<?xml version="1.0" encoding="utf-8"?>
<!-- Generator: Adobe Illustrator 21.1.0, SVG Export Plug-In . SVG Version: 6.00 Build 0)  -->
<svg version="1.1" id="Layer_1" xmlns="http://www.w3.org/2000/svg" xmlns:xlink="http://www.w3.org/1999/xlink" x="0px" y="0px"
	 viewBox="0 0 514.5 643.7" style="enable-background:new 0 0 514.5 643.7;" xml:space="preserve">
<style type="text/css">
	.st0{opacity:0.5;}
	.st1{fill:#F3F3F3;}
	.st2{fill:#31AABA;}
	.st3{opacity:0.1;fill:#010101;enable-background:new    ;}
	.st4{fill:#35B7AE;}
	.st5{fill:url(#SVGID_1_);}
	.st6{fill:#A5B2C7;}
	.st7{fill:#6D798B;}
	.st8{fill:#FED4AF;}
	.st9{fill:#FBBD92;}
	.st10{fill:#D2D2D2;}
	.st11{fill:#AB6087;}
	.st12{fill:#28151A;}
	.st13{fill:#3CC3D9;}
	.st14{fill:#ECAC67;}
	.st15{fill:#ABDDDE;}
	.st16{fill:#EAAE9D;}
	.st17{fill:#CF8885;}
	.st18{fill:#2D9FB2;}
	.st19{fill:#E9EDF7;}
	.st20{fill:#884B6C;}
	.st21{fill:#454043;}
	.st22{fill:#129491;}
	.st23{fill:#ACADAE;}
	.st24{fill:#4E3136;}
	.st25{fill:#024E6C;}
	.st26{fill:#CA9E6F;}
	.st27{fill:#F2E094;}
	.st28{fill:#F2738E;}
	.st29{fill:#73A7BE;}
	.st30{fill:#197DAA;}
	.st31{fill:#F7EB98;}
	.st32{fill:#BC734F;}
	.st33{fill:#252A3D;}
	.st34{fill:#C0CCDD;}
	.st35{fill:#1F2746;}
	.st36{fill:#6D5539;}
	.st37{fill:#FFFFFF;}
	.st38{fill:#4E3C25;}
	.st39{fill:#F0C776;}
	.st40{fill:#DA587C;}
	.st41{fill:#F7A8A7;}
	.st42{fill:#C45C7A;}
	.st43{fill:#73452C;}
	.st44{fill:#FCCFB7;}
	.st45{fill:#69446B;}
	.st46{fill:#5A395D;}
	.st47{fill:#F38AAA;}
	.st48{fill:#EDAA42;}
	.st49{fill:#A76F69;}
	.st50{fill:#A16443;}
	.st51{fill:#FAB6A1;}
	.st52{fill:#E96997;}
	.st53{fill:#82596B;}
	.st54{fill:#9C605B;}
	.st55{fill:#FABCA4;}
	.st56{fill:#F6EC49;}
	.st57{fill:#9B5E3F;}
	.st58{fill:#AEC3E5;}
	.st59{fill:#383958;}
	.st60{fill:#765975;}
	.st61{fill:#59425C;}
	.st62{fill:#A49CCC;}
	.st63{fill:#835D39;}
	.st64{fill:#012F3B;}
	.st65{opacity:0.31;fill:#FFFFFF;enable-background:new    ;}
	.st66{fill:none;stroke:#012F3B;stroke-width:0.44;stroke-miterlimit:10;}
	.st67{fill:#8481BE;}
	.st68{fill:#C8C5BD;}
	.st69{fill:#CADAF0;}
	.st70{fill:#745D9E;}
	.st71{fill:#5D4980;}
	.st72{fill:#CD8079;}
	.st73{fill:#056772;}
	.st74{fill:#EF5B79;}
	.st75{fill:#A1D28E;}
	.st76{fill:#81B16D;}
	.st77{fill:#BD6D6A;}
	.st78{fill:#194353;}
	.st79{fill:#F28186;}
	.st80{fill:#DA5A7A;}
	.st81{fill:#FABFA0;}
	.st82{fill:#1D4E5E;}
	.st83{fill:#393537;}
	.st84{fill:#FEE495;}
	.st85{fill:#B16979;}
	.st86{fill:#606281;}
	.st87{fill:#4E506A;}
	.st88{fill:#7A93A1;}
	.st89{fill:#FCCDB0;}
	.st90{fill:#E98B41;}
	.st91{fill:#CFD7B0;}
	.st92{fill:#FFDDB8;}
	.st93{fill:#9EA372;}
	.st94{fill:#57585A;}
	.st95{fill:#A2B4BF;}
	.st96{fill:#516780;}
	.st97{fill:#EEB59B;}
	.st98{fill:#FABAA3;}
	.st99{fill:#F27385;}
	.st100{fill:#756F90;}
	.st101{fill:#E8E9F5;}
	.st102{fill:#826E74;}
	.st103{fill:#FFCD64;}
	.st104{fill:#F9E8E3;}
	.st105{fill:#DFDAED;}
	.st106{fill:#FCB238;}
	.st107{fill:#645E7B;}
	.st108{fill:#C65E6F;}
	.st109{fill:#F3B29E;}
	.st110{fill:#E3978B;}
	.st111{fill:#C8C4CC;}
	.st112{fill:#F79058;}
	.st113{fill:#D4DAC2;}
	.st114{fill:#E67B50;}
	.st115{fill:#B7B4BC;}
	.st116{clip-path:url(#SVGID_3_);}
	.st117{fill:#4EC0AF;}
	.st118{fill:#D3E7B9;}
	.st119{fill:#D08245;}
	.st120{fill:#5C3D50;}
	.st121{fill:#745B52;}
	.st122{fill:#C0B773;}
	.st123{fill:#2D292C;}
	.st124{fill:#CE8F6E;}
	.st125{fill:#8DB6D9;}
	.st126{fill:#7D9DC9;}
	.st127{fill:#CCD5E4;}
	.st128{fill:#C77966;}
	.st129{fill:#AEBBD3;}
	.st130{fill:#DEBD5B;}
	.st131{fill:none;}
</style>
<title>Asset 4</title>
<g id="Layer_2" class="st0">
	<g id="Layer_1-2">
		<path class="st1" d="M257.2,441.8c-50.8,0-105.5,8.2-105.5,26.3c0,4,2.8,7.5,7.6,10.6l62.3,74.8c4.4,5.2,6.8,11.8,6.9,18.6v58.4
			c0,9.1,14.9,13.2,28.8,13.2c13.9,0,28.8-4.1,28.8-13.2v-58.4c0-6.8,2.5-13.4,6.9-18.6l5.3-6.4h30.6c7.9,0,15.1-4.5,18-11.4l5-12.3
			c1.9-4.6,1.2-9.8-1.9-13.7c-3.2-4.1-8.2-6.4-13.4-6.4h-1.8l20.4-24.5c4.8-3.1,7.6-6.6,7.6-10.6C362.7,450.1,308,441.8,257.2,441.8
			z M336.5,512.1c2.1,0,4.2,0.9,5.5,2.6c1.3,1.6,1.6,3.8,0.8,5.7l-5,12.3c-1.6,3.5-5.1,5.8-9,5.7h-23.3l21.9-26.3H336.5z"/>
		<path class="st2" d="M257.2,451.8c61.8,0,95.5,11.9,95.5,18s-33.7,18-95.5,18s-95.5-11.9-95.5-18S195.4,451.8,257.2,451.8z"/>
		<path class="st3" d="M271.5,465c37.2,0,64.2,3.2,79.8,6.7c0.8-0.5,1.3-1.4,1.4-2.3c0-6-33.7-17.6-95.5-17.6s-95.5,11.6-95.5,17.6
			c0,2.3,5,5.4,14.5,8.4C178.2,473.2,211.6,465,271.5,465z"/>
		<path class="st4" d="M284.8,548.4c-5.6,6.8-8.8,15.3-8.9,24.1v58.6c-0.6,1.3-7.3,4.7-19.3,4.7s-18.7-3.3-19.3-4.4v-58.9
			c0-8.8-3.2-17.4-8.9-24.1l-51.9-62.6c20.7,5.7,51,8.4,80,8.4s59.3-2.7,80-8.4L284.8,548.4z"/>
		
			<linearGradient id="SVGID_1_" gradientUnits="userSpaceOnUse" x1="2236.7019" y1="130.4891" x2="2236.7219" y2="130.5391" gradientTransform="matrix(160 0 0 -91 -357755.6562 12561.6699)">
			<stop  offset="0" style="stop-color:#FFFFFF;stop-opacity:0.1"/>
			<stop  offset="1" style="stop-color:#FFFFFF;stop-opacity:0"/>
		</linearGradient>
		<path class="st5" d="M275.9,572.3c0-8.8,3.2-17.4,8.9-24.1l51.9-62.4c-20.7,5.7-51,8.4-80,8.4s-59.3-2.7-80-8.4l99.3,91
			L275.9,572.3z"/>
		<path class="st6" d="M276.9,166.3c0,0-0.8,0.1-0.9,0.5c-0.1,0.9-0.1,1.7,0,2.6c0.1,0.5,0.7,0.6,0.7,0.6l0.2-0.5L276.9,166.3
			L276.9,166.3z"/>
		<path class="st7" d="M276.8,166.5c0,0-0.5,0.2-0.4,0.4c0.1,0.1,0.2,0.2,0.4,0.3V166.5z"/>
		<path class="st8" d="M280.8,147.4l0.1,24l-1.8,9.8c-3.1,0.3-2.7-3.4-2.7-3.4s-0.3,0.2-1.1-0.3s-0.5-2.4-0.3-4.6
			c0.1-1.2,0.7-2.3,1.7-3.1c0-0.7,0.3-10.7,0.7-14.5c0.1-2.9,0-5.7-0.3-8.6L280.8,147.4z"/>
		<path class="st7" d="M276.7,169.8c0.8,0.7,1.8,1.1,2.9,0.9l1.4-0.3l0.1-2.6c0,0-0.3,0.8-2.2,0.7c-0.9,0-1.7-0.5-2-1.4
			c0,0-0.1-0.1-0.2,0.3S276.4,169.7,276.7,169.8z"/>
		<path class="st9" d="M279.7,172.1c0,0-0.7,2.1-2.1,2.3c-0.6,0.2-1,0.8-1,1.5l-0.2,2.1c0,0,0.8-0.3,0.8-2.4c0,0,0-0.5,1-0.8
			C279.3,174.4,279.9,173.2,279.7,172.1z"/>
		<path class="st10" d="M304.2,234.6c0,0,1,1.7,0.7,2.5s-8.4,9.4-10.8,8.6s-2.8-1.6-2.5-2.5s5.3-7.8,5.3-7.8
			C300.4,238.1,304.2,234.6,304.2,234.6z"/>
		<path class="st10" d="M290.5,227.6c0,0,1,2.4,0.7,3s-8.5,8.4-10.3,8.3c-1.4-0.1-2.6-1.2-2.9-2.6c0-0.9,5.5-7,5.5-7L290.5,227.6z"
			/>
		<path class="st11" d="M280,170.5c4.4,2.9,21.4,7.2,21.4,7.2c0.3,3.1-0.3,36-0.3,36c-0.7,5.2,3.5,18.9,3.5,18.9s0.9,3-3.3,4.1
			s-4.8-1.9-4.8-1.9s-4.8-17.7-5.5-20.3s-1.6-20.3-1.6-20.3c-1.6,5.4-2.4,11.2-2.2,14.5s4.4,18.3,4.4,18.3c-1.2,3.9-5.7,3.5-7.1,3
			c-1-0.3-1.7-1.3-1.5-2.4c-0.6-2.6-5.2-17.8-5.2-19.8s0.8-24.4,0.8-24.4C278.6,173.6,280.1,170.5,280,170.5z"/>
		<path class="st12" d="M299.6,170l-2.6,6.4c-11.6,2.7-16.9-5.1-16.9-5.1c-0.2-1.5-0.1-3,0.3-4.4C288.8,174.2,299.6,170.1,299.6,170
			z"/>
		<path class="st8" d="M291.4,127.2l3.1,2c0,0,1.1,3.2,0.6,3.8s-3.3,2.6-4.9,4.2c-1.2,1.6-2.2,3.3-2.9,5.2l-0.8-5
			c-0.1-1.7,0.2-3.5,0.9-5.1L291.4,127.2z"/>
		<path class="st13" d="M297.2,131.2c0,0,6.7,28,6.7,32.1c-0.1,2.8-1,5.4-2.6,7.7c-14.1,7-21.2-3.7-21.2-3.7
			c-1.1-4.6-0.8-18.7-0.8-18.7c-1.5-0.2-2.8-1.1-3.5-2.4l-0.2-3.3c0.2-1.6,1-1.1,1-1.1s0.3-8.7,0.3-9c0.3-7.4,5.3-7.4,5.3-7.4
			c0.3,1.7,2.8,7.1,2.8,7.1l2.4,1l-0.9,3.2c0,0.8,0.9,5.7,0.9,5.7s1.7-5.1,3.7-6s4.9-4.7,4.9-4.7c0.3-0.7-0.3-2.7-0.3-2.7
			c0.2,0,0.5-0.1,0.6-0.3L297.2,131.2z"/>
		<path class="st14" d="M294.9,172.4c0.2-0.3,0.4-0.1,0.4,0.1c0.2,0.2,0.3,0.3,0.3,0.5c0.2,0.3,0.3,0.7,0.5,1
			c0.2,0.8,0.5,1.5,0.9,2.2c0.9,1.4,2.4,2.1,4,2c1.6-0.2,3-0.9,4.1-2.1c1.1-1.2,1.9-2.5,2.5-4h0.1c-0.2,0.8-0.4,1.6-0.8,2.4
			c-0.4,0.7-0.8,1.4-1.3,2.1c-1.1,1.4-2.7,2.3-4.5,2.4c-0.9,0.1-1.9-0.1-2.7-0.5c-0.8-0.4-1.5-1.1-1.9-1.9c-0.2-0.4-0.3-0.8-0.4-1.2
			c-0.1-0.3-0.2-0.8-0.3-1.1s-0.2-0.8-0.3-1.1s-0.2-0.3-0.3-0.5S295.1,172.3,294.9,172.4L294.9,172.4z"/>
		<ellipse class="st15" cx="286.8" cy="149.6" rx="0.6" ry="0.9"/>
		<path class="st16" d="M308.2,168.9c0.4,3.1-0.3,4.4-0.3,4.4s0.4,7.6,0.5,11.8c0.1,4.5-1.6,5.2-1.6,5.2l-6.8,3.9
			c-1.1,0.5-3.8,1.8-4.9-0.4c-0.6-1.2-1-14.4-0.9-19.6c0-0.7,0-1.3,0.2-2c0.4-0.9,6.9-4,6.9-4C303.3,166.4,307.7,165.7,308.2,168.9z
			"/>
		<path class="st17" d="M294.9,172.4c0.6-0.3,1.3,0,1.6,0.6c0.1,0.2,0.1,0.5,0.1,0.7c0,2,0.2,3.7,0.9,4.5s7,3.6,10.3-5
			c-0.4,2.5-2,4.6-4.2,5.8c0,0-4.1,2-6.6-0.9c-0.5-0.9-0.8-2-0.7-3.1C296.4,173,296.2,172.5,294.9,172.4z"/>
		<path class="st8" d="M301.2,157.4c0,0,0,2.4,0.2,7.2s-1.7,18.9-1.7,18.9c1.1,1.4,3,1.8,4.5,1c-0.4-2,2.8-14.6,2.8-14.6
			c1.6-9.6,0.3-13.7,0.3-13.7C302.6,153.7,301.2,157.4,301.2,157.4z"/>
		<path class="st18" d="M287.7,133.2l-0.4-0.5l-0.3,0.9c-0.3,1.3-0.5,2.5-0.6,3.8l0.8,2.4c-0.7-4.5,0.2-5.9,0.2-5.9L287.7,133.2z"/>
		<path class="st13" d="M296.1,130.5l-0.2-1.8c1.9,0.8,2.4,3.8,2.4,3.8s5.8,3.9,7.4,6.3s1,4.3,1.3,7.8c0.1,0.8,0.5,3.2,0.9,5.3
			c0.5,0.2,1,4.2,1,4.2s-1.1,3.5-6.8,3.1l-1.6-0.3c0,0-3.3-9.1-3.1-12.5s-0.1-5,1.6-6.4"/>
		<path class="st8" d="M304.1,184.2c0.3,1.7,1.1,5.1,0.7,6.8c-0.6,1.8-1.6,3.4-3,4.6c-1.7,1.2-2.3,0.2-2.4-0.3s0.6-3,0.7-3.6
			c0.2-0.9-0.2-1.9-0.3-3.4c-0.9,0.1-0.4,2-0.6,3s-1.4,0.7-1.6,0.3c-0.2-0.7-0.3-1.5-0.3-2.2c0-0.9,0.1-1.8,0.4-2.7
			c0.7-2.6,2-3.3,2-3.3C302.1,186,304,184.3,304.1,184.2z"/>
		<path class="st16" d="M294.8,175.6c-0.8-3-1.7-6.1-2.8-9c-0.7-1.9-7.8-20.8-9.8-29.5s0.3-10.6,0.3-10.6l0.3,1.7
			c-1.9,4.1,5.7,26,9,33.7c1.7,4.1,3.2,8.2,4.3,12.5C296.6,176.2,295.2,177.4,294.8,175.6z"/>
		<path class="st18" d="M297.8,146.1c0.1,1.5,0.3,3,0.8,4.4c0.3,1.3,0.7,2.6,1.1,3.9c0.1,0.2,0,0.2,0.1,0.4
			c-0.2,0.7,0.8,3.8,1.3,3.8c0.1,0.6-0.2,0.6-0.6,0.6s-1.8-5.5-2.7-8.4c-0.4-1.5-0.6-3-0.6-4.6c0-1.5,0.2-3.1,0.8-4.5
			C297.7,143.2,297.7,144.6,297.8,146.1z"/>
		<path class="st19" d="M288.6,172.9l-0.1,4.2c-1.5-0.4-2.9-1-4.2-1.7c-0.7-2.9,0.1-4.3,0.1-4.3
			C285.5,172.2,288.6,172.9,288.6,172.9z"/>
		<path class="st17" d="M295.2,171.4c0,0,1,2.2,0.7,2.8s-1,1.2-1.6-1c0,0-0.1,0-0.1,0.5c0,0,0.3,1.2,1,1.3s1.2-0.8,0.7-2.1
			c-0.2-0.5-0.4-1-0.5-1.5l5.7-3.1V168C301.3,168,295.8,170.8,295.2,171.4z"/>
		<path class="st18" d="M282.5,136.3c5.1-2.5,4.9,6.2,4.9,6.2C286.5,135.2,282.5,136.4,282.5,136.3z"/>
		<polygon class="st18" points="285.5,132.5 283.7,136 282.6,136.3 285.1,132.4 		"/>
		<path class="st20" d="M285.8,185.5c3.9,2.9,3.7,9.4,3.7,9.4v-2c0.1-2.2-0.4-4.4-1.5-6.3l2.6,0.7l-4.2-2.8l-1.7-7.2L285.8,185.5z"
			/>
		<path class="st8" d="M287.5,133.6c-0.2-0.1-2.9-0.7-3.5-1.6s-3-7.2-2-8.2c0.8-0.9-0.3-1.8-0.5-2.3c-0.1-0.5-0.2-0.9-0.1-1.4
			c0,0-0.3-3.5,0.7-4.4s6.8-8.8,13.1-5.1c1,0.9,1.5,2.3,1.3,3.7c-0.1,0.3,0.2,7.7,0.2,7.7s1.7-0.6,1.9,1.6s-0.4,3.8-1.3,4.5
			c-0.6,0.5-0.9,0.8-1.5,0.8l0.2,1.8"/>
		<path class="st21" d="M289.2,107.8c-2.4-0.9-2.6,1.4-2.6,1.4c-1.1-0.1-2,0.7-2.2,1.7c-2.7,0.4-2.4,2.2-2.4,2.2
			c-1.9,0.6-1.7,1.7-1.7,1.7c-0.3,2.2,1.2,2.1,1.2,2.1c0.1,0.9,0.9,1.5,1.8,1.5c0.2,0,0.4-0.1,0.5-0.2c0.4,0.9,1.3,1.3,2.2,0.9
			c0.1,0,0.1-0.1,0.2-0.1c0.6,0.8,1.7,1,2.4,0.4c0.2-0.1,0.3-0.3,0.5-0.5c0.8,0.2,1.6-0.1,2-0.8l-0.7,1.3c-0.7,1.7,1.6,2.7,1.6,2.7
			c-0.3,1,0.1,2,1,2.5c0.4,0.3,0.3,0.3,0.5,1.4c0.1,0.6,0.7,1.1,1.4,1l0.1-1.6c0-1,0.4-2,1-2.8c1.8-1.1,2.4,1,2.4,1
			c0.6-0.6,0.8-1.4,0.5-2.2c0.7-0.9,0.8-2.1,0.3-3.1c0.5-0.9,0.3-1.9-0.4-2.6c0.3-1-0.2-2-1.1-2.4c0.2-0.6,0.2-1.4,0-2
			c-0.5-0.7-1.3-1.1-2.2-1.1c-0.2-1-1.2-1.7-2.2-1.6c-0.3-0.3-0.3-1-1.6-1.3C290.8,107.2,290,107.4,289.2,107.8z"/>
		<path class="st9" d="M282.4,122.7c1.5,1.3,3.3,2.2,5.3,2.4c2.7,0.5,3.8-0.7,3.8-0.7s-0.5,0.5-3,0.3c-1.4-0.3-2.7-0.8-4-1.5
			c-1.1-0.3-2.2-1-3-1.8C281.7,121.9,282,122.3,282.4,122.7z"/>
		<path class="st9" d="M289.4,137.8l4.7-5.7c0.3-1.4,0.4-2.8,0.4-4.2c0.3,0.1,0.5,0.6,0.7,0.7c0.3,0.3,0.7,0.4,1.1,0.2v2.1l0.3,0.7
			c-0.9,1.6-4,3.8-4,3.8L289.4,137.8z"/>
		<path class="st9" d="M296.1,125.2c-0.3,0.6,0.5,0.8,0.7,0.6s0.1-2.1,0.4-1.5s-0.2,2.3-0.7,2.4s0.1-0.8-0.5-0.7s-0.6,0.8-0.6,0.8
			c0,0.5,0.5,0.9,1,0.9c0.2,0,0.4-0.1,0.6-0.3c0.7-0.6,1.2-3.7,0.3-4.1s-1.7,1.1-1.7,1.1C296,124.3,296.3,124.5,296.1,125.2z"/>
		<path class="st9" d="M284.8,124.2l0.3,3.9l1.2,0.1l0.4,0.5c-0.8,0.3-1.7,0.2-2.4-0.3V124L284.8,124.2z"/>
		<path class="st18" d="M308.7,155.1c-2.5,4.4-8.5,3.3-8.5,3.3s0,0.6,0.4,0.7c6.4,1.1,8.3-2.8,8.3-2.8
			C308.9,155.9,308.8,155.5,308.7,155.1z"/>
		<path class="st18" d="M299.4,154.6l-0.3-0.6c0.8,0.4,1.6,0.6,2.5,0.5c2.3-0.1,4.5-1.1,6.2-2.7c-0.4,0.7-0.9,1.2-1.5,1.7
			c-0.6,0.5-1.4,0.9-2.2,1.1C300.2,155.6,299.4,154.6,299.4,154.6z"/>
		<path class="st18" d="M298.1,133.7c-0.3,1.3-3.8,8-3.8,8s-2-3-3-4.3s-3.8,4.9-3.8,4.9l1.4-3.6c0,0,0.9-1.7,1.8-2.1
			s3.4,3.4,3.4,3.4c0.7-1.5,1.5-2.9,2.4-4.3c1.7-2.9,1.6-4.4,1.6-4.4C298.4,132.1,298.4,132.9,298.1,133.7z"/>
		<path class="st18" d="M296.6,132.1c-0.1,0.3-0.3,0.6-0.6,0.9l-0.8,0.8l0,0l-3,2.1c-0.5,0.3-1,0.7-1.5,1c-0.5,0.3-0.9,0.7-1.3,1.2
			c0.2-0.6,0.5-1.2,1-1.6l1.3-1.3c1-0.8,2-1.5,3-2.2l0,0l0.7-0.7c0.2-0.3,0.4-0.5,0.6-0.8c0.4-0.6,0.5-1.3,0.5-2
			C296.8,130.3,296.8,131.2,296.6,132.1z"/>
		<path class="st9" d="M287,135.3c0.2-1.4,0.5-1.6,0.5-1.6c1.3,0.3,2.2-0.4,3.5-1.4c1-0.8,1.9-1.8,2.6-2.9c-1.6,5.3-5.9,5-5.9,5.1
			C287.7,134.4,287.2,134.7,287,135.3z"/>
		<path class="st18" d="M279,147.7c-1.1,0.3-3-1.6-3-1.6c0.6,1.4,2,2.3,3.5,2.4l0.4-15.4C279.2,135.6,279,147.7,279,147.7z"/>
		<path class="st18" d="M279.2,144.1c-1.2-0.2-2.2-1.2-2.5-2.4c1.4,1.8,2.7,1.6,2.7,1.6L279.2,144.1z"/>
		<path class="st18" d="M284.5,145.5c-1.3-0.3-2.5-0.9-3.4-1.8c-0.5-0.3-0.7-0.8-0.5-1.3c0.9,1.2,2.2,2,3.7,2.4L284.5,145.5z"/>
		<path class="st18" d="M281.1,149.6c0.5,1.3,1.7,2.1,3.1,2C281.1,152.7,281.1,149.7,281.1,149.6z"/>
		<ellipse class="st15" cx="286.8" cy="158.2" rx="0.6" ry="0.9"/>
		<ellipse class="st15" cx="286.2" cy="166.1" rx="0.6" ry="0.9"/>
		<ellipse class="st15" cx="287.5" cy="143.6" rx="0.6" ry="0.9"/>
		<path class="st11" d="M280.7,168.1l-0.3,4.4l1.3,1.1c-0.4-1,0.2-4.4,0.2-4.4L280.7,168.1z"/>
		<polygon class="st11" points="293.7,173.3 293.7,177 292.3,177.2 292.4,173.3 		"/>
		<path class="st9" d="M288.4,134.2c0,0-0.8,2.7,0.5,4.3l-1.5,3.7c0-1.1-0.1-2.2-0.3-3.3c-0.3-1.4-0.3-5,0.4-5.4
			C287.7,133.8,288,134.1,288.4,134.2z"/>
		<path class="st9" d="M278.7,177l-0.1,4.3c-0.3,0.1-0.6,0.1-0.8-0.1c0,0,0.8,0.4,0.7-1.9C278.2,177,278.5,176.4,278.7,177z"/>
		<path class="st9" d="M307.6,157.8c0,0-1.7,1.7-6.4,1.3c0.2,3,0.2,5.9,0.1,8.9c0,0,0.8-6.5,0.6-7.3c1.6,0.3,3.3,0.1,4.8-0.4
			c0,0,0.8,6.2,0.4,8.9C307,169.2,308.2,162.2,307.6,157.8z"/>
		<path class="st9" d="M277,147.6l0.2,1.2c1,0.4,1.7,1.4,1.6,2.5c-0.1,1.9,0.8,17.2,0.8,17.2l0.5-0.1l0.2-0.9
			c-0.4-1.6-0.6-3.2-0.7-4.8c0-2.1-0.6-12.4-0.3-14.1L277,147.6z"/>
		<path class="st22" d="M279.2,148.2c0,0-0.3,13.2,1,19.2c3.3,4.4,8.7,6.6,14.1,5.9c0,0-10.4-0.3-13.6-6.2c-0.4-2.2-0.7-4.5-0.9-6.8
			c-0.4-5.1-0.4-12-0.4-15.2L279.2,148.2z"/>
		<path class="st23" d="M285,230.7l-3.4,4.1C283,233.7,284.2,232.3,285,230.7z"/>
		<path class="st23" d="M283.5,231.3l1.7,0.9C284.5,232.4,283.8,232,283.5,231.3z"/>
		<path class="st23" d="M282.5,232.3l1.7,0.9C283.5,233.4,282.8,233,282.5,232.3z"/>
		<path class="st23" d="M281.4,233.5l1.7,0.9C282.4,234.6,281.6,234.2,281.4,233.5z"/>
		<path class="st23" d="M298.6,237.3l-3.4,4.1C296.6,240.3,297.8,238.9,298.6,237.3z"/>
		<path class="st23" d="M297.1,238l1.7,0.9C298.8,238.8,297.5,239.1,297.1,238z"/>
		<path class="st23" d="M296.1,239l1.7,0.9C297.1,240,296.4,239.7,296.1,239z"/>
		<path class="st23" d="M294.9,240.1l1.7,0.9C295.9,241.2,295.2,240.8,294.9,240.1z"/>
		<path class="st23" d="M297.6,244.2c0,0,0.5-0.5-0.7-1.4c-2.8-1.9-4.1-1.6-4.1-1.6s-1.8,1.8-1.2,2.9c0,0,1.6,2.2,3.8,1.4
			L297.6,244.2z"/>
		<path class="st23" d="M284.3,237.1c0,0,0.2-0.3-1-1.1c-2.8-1.9-4.1-1.6-4.1-1.6s-1.8,1.8-1.2,2.9c0,0,2,2.2,3.8,1.4L284.3,237.1z"
			/>
		<path class="st23" d="M304.9,236c-2.2,2.9-4.9,5.6-7.8,7.8l0.1,0.8c0,0,5.4-3.8,7.7-7.4C305,236.8,305,236.4,304.9,236z"/>
		<path class="st23" d="M291.1,229.7c0,0-1.7,3-7.8,7.4l-0.1,0.8c0,0,5.6-3.5,7.9-7.1C291.2,230.8,291.3,230.5,291.1,229.7z"/>
		<path class="st20" d="M285.8,185.5c0,0-4.4-2.4-4.3-4l4.5,3.2L285.8,185.5z"/>
		<path class="st24" d="M262.7,403.4c0,0-5.2,6.8-5.5,7.8s0.1,1.7,2.5,2.5s10.5-7.8,10.8-8.6s-0.9-3.1-0.9-3.1
			S266.2,406,262.7,403.4z"/>
		<path class="st24" d="M249.1,397.2c0,0-5.5,6.3-5.5,7.2c0.3,1.4,1.5,2.5,2.9,2.6c1.7,0.2,10-7.7,10.3-8.3s-0.7-3-0.7-3
			L249.1,397.2z"/>
		<path class="st25" d="M244,351.2c0,0-0.8,22.4-0.8,24.4s4.6,17.2,5.2,19.8c-0.1,1.1,0.5,2.1,1.5,2.4c1.5,0.4,5.9,0.9,7.1-3
			c0,0-4.2-15-4.4-18.3s0.6-9.1,2.2-14.5c0,0,0.9,17.7,1.6,20.3c0.7,2.6,5.5,20.3,5.5,20.3s0.6,3,4.8,1.9s3.3-4.1,3.3-4.1
			s-4.2-13.7-3.5-18.9c0,0,0.6-32.8,0.3-36c0,0-15.1-3-19.4-5.9C247.4,339.6,244,341.4,244,351.2z"/>
		<path class="st8" d="M239.6,338c-0.5,0.9-1,1.9-1.2,3c-0.2,1.3-0.3,3.4-1,4.6c0,0-0.9,0.8,0.9,0.9s1.6-1.3,1.6-1.3
			s-0.8,5.1,2.6,5.1l0.8-0.1l-0.3-10.7C241.8,339.1,240.7,338.6,239.6,338z"/>
		<path class="st9" d="M239.6,337.9c0.7,0.7,1.4,1.2,2.3,1.6v1c-0.6-0.9-1.6-1.6-2.7-1.7L239.6,337.9z"/>
		<path class="st26" d="M254,366.2c-0.3,0-1,0.6-0.9,2.3s-0.3,15.1-0.3,15.1c-0.4,0.8,0,1.7,0.8,2.1c0.1,0,0.2,0.1,0.3,0.1
			c1.8,0.6,3.4,1.6,4.6,0.9S278,375,278,375c0.7-0.2,1.2-0.9,1.2-1.7c0-1.4,0.1-16.6,0.1-16.6l-5.7,0.4L254,366.2z"/>
		<path class="st27" d="M249.3,299.2c0,0-2.5,3-2.3,9.8s-0.1,21.7,0,23.5s0.3,5.1,0.3,5.1s5.3,4,9.8,3.8c-0.7-3.7-0.9-7.5-0.6-11.2
			c0.6-5-0.5-13.8,0.3-17.1s4.4-9.4,5-13.2l-0.4-1.4L249.3,299.2z"/>
		<path class="st28" d="M249.4,304.5c-0.2,0.2,0.4,1.9,1.1,2.9c0.3,0.5,0.9,0.7,1.5,0.4c0,0,0.1-0.1,0.1-0.1l1.5-2.1l-1.7-2.1
			C251,303.8,250.2,304.1,249.4,304.5z"/>
		<path class="st28" d="M250.5,307.1c0,0-1.3,8.6-2.4,16.6c0.7,2.5,1.7,4.9,2.8,7.2c0,0,2.5-4.3,3.2-5.7c-0.1-0.3-2.3-17.8-2.3-17.8
			L250.5,307.1z"/>
		<path class="st29" d="M261.2,297.8c0,0,1.6,1.1-0.3,5.1s-4.9,9-4.6,16s0.1,13.7,0.3,18.5c0.2,4.1-0.5,7.5-0.1,10
			c0.2,1.9,0.3,3.8,0.1,5.7c2.1,1,4.5,1.3,6.8,0.9c0,0,6.1-0.2,9.5-4.2c-0.3-1.6-0.7-3.1-1.3-4.6c0,0,2.7-9.3,2.9-14
			s-1.9-13.8-2.3-17.2s0.3-5.4-1.3-7.8s-7.4-6.3-7.4-6.3s-0.4-3-2.4-3.8L261.2,297.8z"/>
		<path class="st29" d="M246.7,293.2c-3-0.2-5.7,2.1-5.9,5.1c0,0,0,0.1,0,0.1c0,0,0,12.5-0.1,15.3s-0.8,15.6-0.9,17.5
			c0,0.8-0.1,1.7-0.2,2.5c-0.2,0.6-0.4,1.3-0.4,1.9c0,0.7,0.1,1.5,0.2,2.2c0.7,0.7,1.5,1.2,2.4,1.6c0,0-0.4,6.4-0.3,9.1
			c0.5,1.1,1.3,2,2.2,2.7c1.4,0.9,2.2,1.7,2.9,1.3s-0.1-3,0.1-5.6s0.4-13.8,0.4-19s0.3-9.9,0-13.5s-0.4-12.5,1.8-15.1
			C249.1,299.5,246.7,297.9,246.7,293.2z"/>
		<path class="st30" d="M244,299.9c0,1.7-0.1,3.3-0.1,5s-0.1,3.3,0,5s0.2,3.3,0.2,5s-0.1,3.3-0.2,5s-0.3,3.3-0.4,5s-0.3,3.3-0.4,5
			l-0.5,5c-0.2,1.7-0.3,3.3-0.6,5c0-1.7,0.1-3.3,0.2-5l0.3-5c0.1-1.7,0.2-3.3,0.3-5s0.3-3.3,0.3-4.9s0.2-3.3,0.3-5s-0.1-3.3,0-5
			C243.3,306.6,243.5,303.2,244,299.9z"/>
		<path class="st31" d="M251.8,303.6c3.5-1.2,6.7-3.2,9.4-5.7c0,0,0.6,0.3,0.7,2c-2.4,2.8-5.2,5.2-8.3,7.1
			C253.2,305.8,252.6,304.6,251.8,303.6z"/>
		<path class="st31" d="M250.7,300.4c0,0,0.1,2.3,1.1,3.2c-1.1,0.7-2.3,1.3-3.6,1.7c0,0-0.1-4.5,0.8-6
			C249.4,299.8,250,300.2,250.7,300.4z"/>
		<path class="st30" d="M242.2,304.5l0.9,2.9c0.2,0.5,0.3,0.9,0.4,1.4c0.1,0.5,0.1,1.1,0,1.6h-0.1c-0.3-0.4-0.6-0.8-0.8-1.3
			c-0.2-0.5-0.3-1-0.3-1.5C242.3,306.6,242.1,305.6,242.2,304.5L242.2,304.5z"/>
		<path class="st30" d="M246.8,346.7c0.6-7.3,0.7-26,0.5-28.6c-0.2-3.7-0.7-10.9,0.3-15.2l1.4-3.5l-1.4-2c0,0-1.9,2.6-2.2,10.6
			c0,0-0.7,6.2-1,7.2c0,0,2,3.2,1.7,5.2s-1.9,3.5-1.1,7.6c0.6,3.1,1.4,11.2,1.7,14.6c0.1,1,0,5.3,0,5.3L246.8,346.7z"/>
		<path class="st8" d="M251.9,303.6c3.5-1.2,6.7-3.1,9.3-5.7L261,296c0.5,0.2,1.1-0.2,1.7-0.6s1.1-2.4,1-4.6s-1.9-1.6-1.9-1.6
			s-0.3-7.3-0.2-7.7c0.2-1.4-0.3-2.8-1.3-3.7c-6.3-3.7-9.2,0.2-11.7,0.5s-2,4.1-2,4.1v4.9c-0.1,0.5,0,0.9,0.1,1.4
			c0.2,0.5,0.2,1,0.1,1.5c-0.3,1-0.3,2-0.2,3c-0.1,5.9,3.4,7,3.8,7.1S250.5,302.3,251.9,303.6z"/>
		<path class="st32" d="M246,276.8c0.7,0.6,1.7,0.8,2.6,0.4c1.6-0.6,5.4-3.7,7.6-3s6.5,2.4,6.9,3.5c0.2,0.8,0.2,1.6,0,2.4
			c0,0,1.3,0.4,1.3,2.6s-0.2,6.6-0.7,8.1c0,0-0.6-2.2-2.4-1c-0.7,0.8-1,1.8-1,2.8l-0.1,1.6l-1.6,0.7l0.2-1.7c0-0.5-0.2-1-0.5-1.4
			c-0.8-0.8-1.3-1.8-1.6-2.9c-0.2-0.9,0.1-1.9,0.8-2.5l2.3-2.2l-3.6,2.1c-1.3,0.7-2.9,0.7-4.2,0.1l-5.5-3.1
			C246.5,283.2,243.4,281.3,246,276.8z"/>
		<path class="st9" d="M250.7,300.4c1.9,0.6,3.9,0.3,5.6-0.7c1.1-0.9,2-2,2.6-3.3c0,0,0.4,2.2-3,3.9c-1.4,0.7-2.5,0.6-3.5,1.2
			c-0.5,0.3-0.7,1-0.6,2C251.1,302.6,250.7,301.5,250.7,300.4z"/>
		<path class="st9" d="M246.7,288.5c0.8,0.8,1.9,1.5,3,1.8c1.3,0.6,2.6,1.1,4,1.5c2.4,0.3,3-0.3,3-0.3s-0.3,1.5-3,1
			c-2.4-0.5-4.6-1.5-6.5-3C247.1,289.1,246.9,288.8,246.7,288.5z"/>
		<path class="st9" d="M261,296c-0.3,0-0.5-0.1-0.7-0.3c-0.2-0.1-0.4-0.6-0.7-0.7c0,0,0.2,3.9-2.1,5.8c1.3-0.9,2.6-1.9,3.7-3
			L261,296z"/>
		<path class="st26" d="M253.8,367.1l3.9,2.2c0.3,0.2,0.6,0.2,0.9,0l20.5-12.2c0.2-0.2,0.3-0.5,0.1-0.8c0,0-0.1-0.1-0.1-0.1
			l-3.8-2.1c-0.4-0.2-0.8-0.2-1.2,0c-1.8,1-7.3,4.3-12.2,7.1c-3.5,2.1-6.7,3.9-8.1,4.9c-0.3,0.2-0.4,0.5-0.2,0.8
			C253.7,367,253.7,367.1,253.8,367.1z"/>
		<path class="st9" d="M260.8,291.7c0,0,0.8-1.6,1.7-1.1s0.4,3.5-0.3,4.1c-0.4,0.4-1,0.4-1.3,0c-0.2-0.2-0.3-0.4-0.3-0.6
			c0,0,0-0.7,0.6-0.8s0,0.9,0.5,0.7c0.6-0.6,0.9-1.5,0.7-2.4c-0.3-0.6-0.3,1.3-0.4,1.5s-1,0-0.7-0.6
			C261.5,291.7,261.2,291.5,260.8,291.7z"/>
		<path class="st30" d="M239.6,334c0,0,0.6,1,2.8,1.5l-0.1,0.4C242.2,335.9,240,335.6,239.6,334z"/>
		<path class="st8" d="M264.3,351c-0.7,1.2-1.3,2.5-1.7,3.9c0,0-0.8,1.8-0.4,2.7s0.5,1.4,0.5,1.4l1.6-1.1c0,0-0.4-1.6,0.5-1.6
			s1.4,2.2,1.6,2.7s-1.6,1.7-1.4,2.2s0.7,1.6,2.4,0.3c0,0,2.5-1.3,3.3-2.9s-0.7-5.7-1.4-6.9C269.2,352,266.6,353.6,264.3,351z"/>
		<path class="st30" d="M264.3,308.9c-0.7,1.6-1.2,3.3-1.3,5c-0.1,1.6,0.2,3.2,0.8,4.7c0.8,2.9,1.5,5.9,2,8.9
			c0.2,0.8,0.3,1.6,0.3,2.4v2.4c0,1.6-0.1,3.2-0.2,4.8c-0.2,3.2-0.3,6.4-0.6,9.6l0,0c-0.3,1.4-0.5,2.8-0.6,4.2v-0.1
			c0.1,0.2,0.3,0.3,0.5,0.5c0.2,0.2,0.5,0.3,0.8,0.3c0.5,0.2,1.1,0.3,1.7,0.3c0.6,0,1.1-0.2,1.6-0.4c0.5-0.4,0.8-0.8,1-1.4l0,0
			c0.6-2.2,1.1-4.3,1.7-6.4c-0.4,2.2-0.9,4.4-1.3,6.5l0,0c-0.2,0.6-0.5,1.2-1,1.7c-0.5,0.4-1.2,0.6-1.8,0.6c-0.6,0-1.3-0.1-1.9-0.3
			c-0.7-0.2-1.3-0.6-1.7-1.2l0,0v-0.1c0-1.5,0.2-3,0.5-4.4v0.1c0.3-3.1,0.3-6.4,0.5-9.6c0.1-1.6,0.2-3.2,0.2-4.8c0-0.8,0-1.6,0-2.4
			c-0.1-0.8-0.2-1.6-0.3-2.4c-0.6-3.1-1.3-6.3-2.1-9.3C262,315,262.5,311.6,264.3,308.9z"/>
		<path class="st30" d="M264.9,346.7c0.5,0.2,1,0.4,1.5,0.6c0.5,0.2,1,0.3,1.5,0.3c0.5,0.1,1,0.1,1.5,0.1c0.5,0,1-0.1,1.6-0.1
			c-0.5,0.3-1,0.6-1.5,0.8c-0.5,0.2-1.1,0.2-1.7,0.1c-0.6-0.1-1.2-0.3-1.7-0.6C265.6,347.7,265.1,347.2,264.9,346.7z"/>
		<path class="st33" d="M247.2,336.9c2.7,2.2,5.9,3.6,9.4,4l-0.2,2v1.8c0,0-6.3-0.9-9.3-3.7L247.2,336.9z"/>
		<path class="st34" d="M249.6,338.6c-0.4,1.4-0.4,2.8,0,4.2c1.2,0.9,2.7,1.4,4.2,1.4l0.1-3.9C252.4,340,250.9,339.4,249.6,338.6z"
			/>
		<path class="st35" d="M250,345.1l1.7,7.2l4.2,2.8l-2.6-0.7c1.1,1.9,1.6,4.1,1.5,6.3v2c0,0,0.3-6.5-3.7-9.4L250,345.1z"/>
		<path class="st9" d="M237.4,345.7c0,0,1.1,1.2,2.3-0.7c0.2-0.4,0.4-0.8,0.5-1.3c0.1-0.5,0.2-0.9,0.2-0.9s0.6,0.2,0.1,1.4
			c-0.2,0.6-0.5,1.2-0.8,1.7c-0.5,0.5-1.3,0.7-2,0.5c0,0-0.6-0.2-0.5-0.5L237.4,345.7z"/>
		<path class="st36" d="M265.6,357.1l-3.3,2.3c0,0-0.8,0.3-0.8,1.9v2.6l1.6,0.6l1.3-0.7v-1.7c0,0-0.1-1,0.3-1.4s1.1-0.7,1.7-1.2
			C266.3,358.7,266,357.8,265.6,357.1z"/>
		<ellipse class="st37" cx="251" cy="333.9" rx="0.5" ry="0.7"/>
		<path class="st9" d="M240.5,343c0,0,1.1,0.1,1.3-0.6v0.9c0,0-0.3,0.3-1.3,0.3V343z"/>
		<path class="st30" d="M256.5,341.9c0,0,0.4-2.7,0.7-8.6s2.7-12.9,2.7-13.2s-1.2-4-1.2-4s1.5-0.1,2-0.7s-0.5-3.7,0.9-7.2
			s2.2-5.5,1.8-8.6c0,0-0.6-3-2.4-3.6l0.2,1.9c0,0,2,1.1-1,6.3c0,0-4.3,6.9-4.1,14.2c0,0,0.3,8,0.1,10.2S256.8,339.4,256.5,341.9z"
			/>
		<path class="st38" d="M262.9,364.4l1.3-0.7v-2.1c0-0.6,0.3-1.1,0.8-1.4l1.3-1c-0.1-0.5-0.2-0.9-0.3-1.4c-0.8,0.7-1.6,1.3-2.4,1.9
			C262.6,360.6,262.9,364.4,262.9,364.4z"/>
		<path class="st30" d="M261.5,312c0,1.1,0.2,2.1,0.6,3.1l0.7,0.9c0.1,0.5,0.1,1,0.1,1.5c-0.7-0.7-1.2-1.5-1.5-2.5
			c-0.1-0.5-0.2-1-0.2-1.5C261.2,313,261.3,312.5,261.5,312z"/>
		<path class="st39" d="M247.2,336.9c0,0,2.9,3.1,9.4,4c0,0-0.3-6.2-0.4-8.4s0.1-10.2,0-10.9c-0.4-4.4,0.3-8.9,1.9-13
			c0,0,1.4-3.3,2.5-5.2c0.5-1.1,0.9-2.2,1.2-3.3c0,0-4.6,5.2-8.2,7c2.6-1.2,5-2.9,6.9-5c0,0-3.7,5.5-4.4,10.2s-0.4,19.5-0.4,21.6
			s0.3,6.1,0.3,6.1S252.5,340,247.2,336.9z"/>
		<path class="st39" d="M248.5,300.6c-0.2,1.6-0.3,3.2-0.3,4.8c0.4-0.1,0.8-0.2,1.2-0.4c0.2,0.9,0.5,1.7,1,2.4c0,0-1.3,8.5-1.6,10.5
			l1.3-10.3l-1-1.8c-0.5,0.1-0.9,0.2-1.4,0.2c-0.2,2.5-0.3,4.9-0.2,7.4c0.4,7.9,0.3,15.8-0.4,23.7c0,0,0.1-13.6,0.2-15.4
			c0.1-2.9,0-5.8-0.3-8.7c0,0-0.2-7,0.5-9.9C247.8,302.2,248.1,301.4,248.5,300.6z"/>
		<path class="st40" d="M249.7,305.4c0,0,1.6-0.9,2.1-1.3l1,2.2c-0.2,0.5-0.5,1-0.9,1.5l-1.3-0.5l1.3,0.8l1.9,16.8
			c0,0-2,4.3-2.8,5.9c0,0,2.6-3.6,3.2-5.7c0,0-2.2-16.7-1.9-17.5c0.4-0.5,0.8-1,1.1-1.6c-0.4-0.9-0.8-1.7-1.4-2.5l-2.3,1.3
			C249.5,304.9,249.4,305.1,249.7,305.4z"/>
		<polygon class="st41" points="250,310.5 252.3,312.9 252.5,315.2 249.6,312.9 		"/>
		<polygon class="st41" points="249.2,315.4 252.9,318.5 253.3,321.3 248.9,317.9 		"/>
		<polygon class="st41" points="248.5,320.2 253.6,324.1 253.7,325 253,326.6 248.2,322.7 		"/>
		<path class="st41" d="M248.9,326.2l3.2,2.1l-1.3,2.6C250,329.4,249.4,327.8,248.9,326.2z"/>
		<path class="st35" d="M251.3,353.4c0,0-2.8-0.7-3.6-2c0,0,2.5,0.9,3.6,1.2V353.4z"/>
		<path class="st9" d="M264.3,351c0,0,0.4,1.4,3.7,1.5c0,0,1.1,0,1.4-0.5c0.8,1.5,1.3,3.2,1.5,4.9c0,0-1.2-2.6-2.5-3.1
			c-1.8,0-3.4-0.9-4.4-2.4L264.3,351z"/>
		<path class="st9" d="M266.4,359.4c0,0-0.5-2.8-1.7-3.1c0,0,1.8-0.8,1.7,3.3"/>
		<path class="st42" d="M138.1,329.1c-3.8,4.6-6.3,19.1-6.3,19.1c1-1.6,5.2-2.3,5.2-2.3C136.8,342.9,138,329.1,138.1,329.1z"/>
		<path class="st43" d="M138.2,270.8c0,0-2.4-1.3-4,2.1s-0.1,10.5,1,12.7s1.7,4.2,1.7,4.2l3-2c0.7-0.6,1.1-1.5,1.2-2.4
			c1.5-1.9,0.8-6.2,0.8-6.2L138.2,270.8z"/>
		<path class="st44" d="M134.9,375.4c-0.4,0.8-0.6,1.6-0.6,2.5c0,0.5,0.5,0.8,0.8,1.2c0.9,1.2,5,4.1,5,4.1c1.2-1.2,2.8-1.8,4.5-1.7
			l-3.5-5.1L134.9,375.4z"/>
		<path class="st44" d="M150.9,368.9c-0.1,0.2-0.6,1.9-0.7,2.1c-0.5,0.9-0.2,2.1,0.5,2.8l5.2,4.4l4.6-1.9c-1-1.7-4.2-5.7-4.2-5.7
			L150.9,368.9z"/>
		<path class="st44" d="M159.7,323l1,9.7c1.6-0.7,2.1-1,2.5-3.7s-0.5-7.9-0.5-7.9L159.7,323z"/>
		<path class="st45" d="M134.9,375.2c0.1-7,0-8.1,0.5-13.7c0.2-1.6,0.4-3,0.7-5.4c0.5-6-0.9-14.4-0.9-18.1c0-5.1,2-8.5,2.3-8.6
			c16.5-2.6,23,14.8,23.1,14.8c-0.3,4.9-4.1,26.3-4.1,26.3c-1.1,2.3-4.5,1.1-4.5,1.1c-1.2-0.7-1.8-2-1.6-3.3c0,0,0.7-10.7,0.7-14.5
			c0.1-1.9-0.2-3.9-0.8-5.7c0,0-3.9-2.3-4.4-0.3c-0.2,0.9-0.2,3.7-1,7.4c-0.9,4.6-2.5,10.4-2.7,13c-0.2,2.8-0.6,5.5-1.2,8.2
			c-0.9,0.9-2.2,1.3-3.5,1.1C136.2,377.2,134.9,376.2,134.9,375.2z"/>
		<path class="st46" d="M160.3,347.1c0,0-5.4,3.3-9.3,4l0.1,1.4c0,0,5.3,0.1,8.8-2.7L160.3,347.1z"/>
		<path class="st46" d="M138.4,331.9c0,0,2.5,10.8,0.4,20.6c0,0,3.9,1.8,6.3,1.1c0.3-1.8,0.5-3.7,0.6-5.5
			C145.7,347.1,140.5,330.1,138.4,331.9z"/>
		<path class="st47" d="M131.6,331.6c-0.9,1.8-2.3,10.2-2.5,14.6s3.2,5.1,3.2,5.1c-0.2-1.5-0.2-2.9,0.1-4.4
			c0.6-6.9,5.1-14.7,5.1-14.7l1.2-7.7l1,8.5c0.6,3.3,0.9,6.6,0.8,10c-0.1,3.2-0.6,6.4-1.3,9.5c2.5,0.5,10.2-0.3,16.6-2.6
			s7.4-4.8,7.4-4.8c0.1-1.9,0-3.7-0.2-5.6c-0.3-2.4-2.4-16.4-2.4-16.4c3-1.2,3.4-2.5,3.3-4.6s-1.3-10-1.6-16.2s-1.6-13.7-2.9-17.3
			s-3.9-3.3-3.9-3.3c-0.1,1.6-0.6,3.2-1.2,4.7c1.1,3.2,1.7,6.5,1.7,9.8c-0.9,2.9-4.4,3.2-6.4,3.3s-4.1-2.9-5.7-6.7
			c-1-2.3-3.1-3.9-5.6-4.3c-2.8,1.4-4.4,5.3-5.8,8.8s-3.2,15-3.5,19.9C128.8,321.9,131.7,331.5,131.6,331.6z M136.6,317.4
			c0,0,0.6-7.9,2.1-10.7c0.8,1.6,0.9,3.4,0.3,5.1C138.3,313.7,137.5,315.6,136.6,317.4z"/>
		<path class="st48" d="M138.2,275.2c-1.3,0-1.8-1.3-1.9-3.8s1.5-2,1.5-2L138.2,275.2z"/>
		<path class="st44" d="M154.3,285.8c0.9,2.1,2.3,8.8,1.8,10.5s-4.4,3.7-7,3s-4.6-5.2-5.7-7.5s-5.1-3.6-5.1-3.6
			c0.3-0.4,1.7-1,3.1-2.2s0.7-4.4,0.7-4.4c0.4,0.5,1.1,0.8,1.7,0.6C146.1,284.5,154.4,285.8,154.3,285.8z"/>
		<path class="st44" d="M142.3,267.2c-5.7,2.6-1.2,12.5-1.2,12.5c-0.1,2.4,1.1,3.7,1.7,3.6c0,0,4.6,5.1,7.9,5.1s4.6-2.6,5.5-8.5
			c0.1-0.5-0.2-1.3-0.1-1.8c0.2-0.6,0.3-1.1,0.4-1.7c0.1-2.2-0.1-4.3-0.7-6.4C153,263.2,148,264.6,142.3,267.2z"/>
		<path class="st49" d="M133.3,317.4l3,12.7c0,0,5.5,5.1,6.2,5.1s5.1-2.4,5.5-3.5s-1.7-10.1-2.1-11.4s-10-7.4-10-7.4L133.3,317.4z"
			/>
		<path class="st50" d="M156.4,267.9c-0.5-1.1-1.2-2-2.2-2.7c-1.9-1.7-4.3-2.9-6.9-3.3c-2.5-0.2-8.4,2.1-9.4,4.5
			c-0.3,1.7-0.5,3.5-0.4,5.2c0.4,2-0.3,2.4,0.5,5.1c0.3,1,0.7,2,1.2,2.9c0.7,0.5,1.6,0.6,2.3,0.2c0.7,0,1.3-0.3,1.8-0.8
			c0.3,0.8-0.6,2.2,1,3c0.6,0.4,1.3,0.2,1.7-0.3c0.1-0.2,0.2-0.4,0.2-0.6c-0.7,1.3-2.3,0.6-1.9-1s2-1.2,2.5-3.7s1-2.4,4.8-3.2
			s3.9-3.4,3.9-3.4c0.3,0.5,0.5,1,0.6,1.6C156.1,271.4,157.4,270.2,156.4,267.9z"/>
		<path class="st51" d="M156.4,277.2c-2.3,1.5-5.5,2.9-6.1,2.6c-0.8,0.1-1.6,0-2.4-0.1c0.3-0.5,1.1-0.3,3-0.5s5.7-2.5,5.7-2.5
			L156.4,277.2z"/>
		<path class="st51" d="M152.4,283.1c0.7,0.3,1.3-0.2,1.1-0.6c-0.4-0.8-0.5-1.7-0.4-2.6c0.2-0.6,0.4-0.3,0.4-0.3
			c-0.2,0.9-0.1,1.9,0.3,2.8c0.6,1.7-1.8,1.7-2,0.8C152,282.7,152.4,283.1,152.4,283.1z"/>
		<path class="st51" d="M154.3,288c-0.8,1.2-3.2,1.4-3.2,1.4s-6.1,0.2-6.7-5.6c1,2,2.8,3.5,4.9,4.1c3.8,0.9,5.2-1.6,5.2-1.6l0.4,1.1
			c0,0,2.2,8.3,1.1,9.5C156,293.9,155.4,290.8,154.3,288z"/>
		<path class="st52" d="M158.6,292c1.3,1.4,2.1,3.2,2.5,5.1c0.5,3-1.1,5.9-2.6,8.2s-1.2,3.5,0.7,8.7c1.1,2.9,1.6,5.9,1.4,9
			c-0.4-8.2-3.5-9-3.7-12.9s1-4.7,3-9s-1.5-7.8-1.8-9.1c-0.1-1.3,0-2.6,0.3-3.9C158.3,289.4,158.4,290.7,158.6,292z"/>
		<path class="st52" d="M144.6,306.6c3.7,1.9,7.4-0.3,7.4-0.3C148.3,310.3,144.6,306.6,144.6,306.6z"/>
		<path class="st51" d="M161.7,330.4l-0.1-1.2c0,0,0.5-1.3,0.6-1.6s0.1-3.1,0.1-3.1C163.2,327.2,161.6,330.4,161.7,330.4z"/>
		<path class="st51" d="M142.8,285.9c-0.4,1.2-1.4,2.1-2.6,2.3c3.5,1.3,4.4,4.4,5.7,7c0.9,1.7,2.2,3.1,3.8,4.2
			c-2.7,0.1-4.6-4.3-4.6-4.3c-0.8-1.5-1.6-3-2.6-4.4c-0.9-1.2-4.1-2.4-4.1-2.4l3.1-2.2c0.9-1,1.1-2.4,0.5-3.6c1,1.1,1.8,0.2,1.8,0.2
			C144.7,284.7,143.2,284,142.8,285.9z"/>
		<path class="st8" d="M132.6,333.1c-0.5,2.1-0.6,4.3-0.3,6.5c0.2,2,1.3,2.4,2,3.1s1.5,1.3,2.1,0.3c0.3-0.4-0.1-2.5-0.1-3.9
			c0-0.9,0.1-1.8,0.3-2.6c0.2,0.9,0,4.7,1.1,4.4s0.8-1.4,0.9-4c0-1.7-0.2-3.3-0.7-4.9C135.9,334.5,132.6,333.1,132.6,333.1z"/>
		<path class="st53" d="M155.8,376.8c-2.9-1.2-5.7-5.2-5.7-5.2c-0.3,0.5-0.4,1-0.3,1.5c2,2.6,6.2,6.2,9.5,7.3s3.3-0.9,3.3-0.9
			c-0.4-1.7-1.3-3.3-2.6-4.5C158.4,374.8,156.7,375.5,155.8,376.8z"/>
		<path class="st53" d="M140.1,382.5c-2.9-1.2-5.7-5-5.7-5c-0.3,0.4-0.4,0.8-0.4,1.3c1,1.6,6.3,6.1,9.6,7.2s3.3-0.9,3.3-0.9
			c-0.3-1.7-1.3-3.2-2.6-4.3C142.7,380.5,141.1,381.2,140.1,382.5z"/>
		<path class="st47" d="M129.1,318c-0.3,2.9,2,10.7,2,10.7l1.1,4.3c1.9,0.9,4.2,0.3,5.5-1.3c-1.4-5.2-1-19.4-1-19.4L129.1,318z"/>
		<polygon class="st54" points="143,321.7 136.8,316.9 136.6,317.4 142.7,321.9 142.1,335 142.5,335.2 143,322 		"/>
		<path class="st54" d="M142.7,319.7l-5.7-4.3C138.6,317.2,140.5,318.7,142.7,319.7z"/>
		<path class="st54" d="M144.2,324.2c-0.2-1.6-1.5-13.8-1.5-13.8c-0.9-15.5-2.4-17.2-2.4-17.2c-0.6-1.8-2.5-2.9-4.4-2.6
			c0.2-0.8,0.9-1.4,1.7-1.6c3.3-0.8,5,4.9,4.9,4.5c1.7,4.2,3.2,30.5,3.2,30.5C145.7,325.7,144.3,325.7,144.2,324.2z"/>
		<path class="st52" d="M138.8,304.6l0.3-1.1c1.2-0.7,2.3-3.4,2.3-3.4C141.2,301.9,140.3,303.5,138.8,304.6z"/>
		<path class="st52" d="M138.9,302.3c-1.5,3-2.6,11.2-3,14.8s1.9,14.5,1.9,14.5c-0.8,2.1-5.5,1.3-5.5,1.3c5.1,1.8,6.2-1,6.2-1
			s-1.4-9.4-1.8-11.8s1.3-13.8,3.1-17.8s0.9-6.5,0.9-6.5C140.3,297.4,140.3,299.4,138.9,302.3z"/>
		<polygon class="st55" points="153.8,298.7 152.9,296.5 153,299 		"/>
		<path class="st55" d="M141.8,279.8c0,0-0.2,2.1,0.5,2.3s1.2-0.5,0.9-0.8s-0.9-0.6-0.3-1.5S141.8,279.8,141.8,279.8z"/>
		<path class="st54" d="M142.7,321.9l1-1.4l2.2-0.2c0,0,2.7,9.9,2,11.7c-1.6,1.4-3.4,2.5-5.4,3.3l-0.2-0.8c0,0,3.5-0.9,5.3-3.1
			c-0.3-3.6-0.9-7.2-1.9-10.7l-1.6,0.1l-1.4,1.7"/>
		<path class="st56" d="M153.1,288.9c0,0,1.1,3.3,0,4.5s-3,1.6-6-1.4c-1.9-1.9-3.9-3.7-6.1-5.3c0,0-0.2-1.2,1.1,0s6.6,6.6,7.9,6.9
			s4,0.7,2.5-4.5L153.1,288.9z"/>
		<circle class="st56" cx="152.1" cy="294.2" r="0.7"/>
		<circle class="st56" cx="143" cy="282.9" r="0.5"/>
		<path class="st51" d="M136.7,335.7c-0.1,0.9-0.2,1.7-0.4,2.6c-0.1,1.5,0,3,0.3,4.5c0,0-0.1-5,0.3-5.5v1.6
			C136.8,338.9,137.6,336.7,136.7,335.7z"/>
		<path class="st51" d="M138.1,332.4c0,0-0.9,1.8-5.5,0.7c-0.5,1.7-0.6,3.5-0.4,5.2c0,0,0.5-3.8,2-3.6s4-1.6,4.3,0.8l0.2,1.6
			C138.9,335.5,138.7,333.9,138.1,332.4z"/>
		<path class="st51" d="M162.9,321.8c-0.7,0.5-1.4,0.9-2.2,1.2l0.4,2.6c0,0,1-2.2,1.6-1.4c0.5,0.8,0.7,1.7,0.7,2.6
			C163.4,325.1,163.2,323.4,162.9,321.8z"/>
		<path class="st51" d="M156.5,370.5c0,0-0.5,2-4.1,1.2c0,0-1.5-0.5-1.7-1.7c-0.2,0.5-0.4,1.1-0.6,1.6c0,0,0.2-0.8,0.9-0.2
			c1.7,1.7,4.4,1.8,6.3,0.3L156.5,370.5z"/>
		<path class="st51" d="M141.1,376.4c0,0-2.4,2.3-4.9,0.5c0,0-1.3-0.7-1.3-1.5s-0.4,1-0.4,1c1.9,2.2,4.9,2.8,7.5,1.6L141.1,376.4z"
			/>
		<path class="st52" d="M159.3,289.5l-0.9,2.8l0.7,0.9C159.3,292,159.3,290.7,159.3,289.5z"/>
		<path class="st50" d="M141.2,279.8c-0.2,1.1,0.1,2.2,0.8,3c0.1,0.4,0.2,0.7,0.3,1.1c0,0-1.8,0.7-4-6.3L141.2,279.8z"/>
		<path class="st57" d="M155.2,267.3c0.9,1.9,0.1,4.2-1.8,5.1c-0.1,0.1-0.3,0.1-0.4,0.2C154.7,271.4,155.5,269.3,155.2,267.3z"/>
		<path class="st57" d="M144.1,276.9c0,0-0.4,3-3,2.7C142.4,279.2,143.5,278.2,144.1,276.9z"/>
		<path class="st9" d="M221.9,189.6c0,0-0.9,3.4-0.2,4c0.5,0.4,1,0.5,1.6,0.3C223.3,193.9,221.6,194.2,221.9,189.6z"/>
		<path class="st8" d="M341.5,361c-0.1,3.2,0,6.5,0.4,9.7c0.4,3.7-0.6,13.5-0.6,14.2c1.2,0.8,2,2,2.2,3.4c0.3,2.2,0.5,4.2-0.3,4.6
			s-1.1,0.3-1.1,0.3s0.2,4-2.9,3.6l-1.6-10l0.1-24L341.5,361z"/>
		<path class="st9" d="M339.1,387.6c0.8,0.8,1.8,1.5,2.9,1.8c0,0,0.1,3,0.7,3.5c0,0-0.7,1-1.2-2.9
			C341.4,390.2,339.5,389.7,339.1,387.6z"/>
		<path class="st58" d="M320.6,340.2c-1.3,0.2-2.6,0.8-3.6,1.7c-2.1,1.6-5.2,1.6-7,3.7s-2,5.2-2.4,9s-3.6,4.6-1.2,13.8
			c0,0,0.8,3.7,1.1,6s1.7,5.2,5.3,5.5l17.3-29.9L320.6,340.2z"/>
		<path class="st59" d="M314.2,451.3c-0.7,0.2-1.2,0.9-1.2,1.7c0.1,1.3,1.7,2.9,3,4.2c1.7,1.7,4.1,3.8,5.9,4.3s4.6-0.9,3.6-3
			l-7.3-7.1h-4V451.3z"/>
		<path class="st59" d="M327.4,444c-1,0.2-1.7,1.1-1.7,2.1c0,0-0.1,0.6,1.4,2c2,1.9,3.8,3,5.1,4.2c1.1,1.1,3.2,2.6,5.1,2.3
			s3-2.2,1.8-3.5C339,451.1,329.9,442.9,327.4,444z"/>
		<path class="st8" d="M327.2,443.3c0,0-1.6,1.9,0.6,3.9l7.6,5.9c0,0,1.8,0.7,2.8-0.3c1.3-1.3,1.6-2.4-0.6-4.5l-3.5-3.9
			C334,444.4,329.2,440.8,327.2,443.3z"/>
		<path class="st8" d="M314.7,449.8c0,0-1.5,1.9-0.4,3.2s5,6.4,7.6,7s4.8-1,3.3-3l-5.1-6.5l-4.8-0.4"/>
		<path class="st60" d="M339.2,399.5c0,0,0.8,22.4,0.8,24.4s-4.6,17.2-5.2,19.8c0.1,1.1-0.5,2.1-1.5,2.4c-1.5,0.4-5.9,0.9-7.1-3
			c0,0,4.2-15,4.4-18.3s-0.6-9.1-2.2-14.5c0,0-0.9,17.7-1.6,20.3s-5.5,20.3-5.5,20.3s-0.6,3-4.8,1.9s-3.3-4.1-3.3-4.1
			s4.5-15.6,4.5-25.1c0,0-1.6-32.2-1.3-35.5c0,0,17.1,1.2,21.4-1.7C337.7,386.4,339.1,389.6,339.2,399.5z"/>
		<path class="st61" d="M333.1,393.3l-1.7,7.2l-4.2,2.8l2.6-0.7c-1.1,1.9-1.6,4.1-1.5,6.3v2c0,0-0.3-6.5,3.7-9.4L333.1,393.3z"/>
		<path class="st62" d="M315,372.3l-0.3,15.4c0,0,2.8,5.8,11.8,4.7c0,0,8.5-1.2,11.6-6.7c0,0,0.9-19.7,0.8-22.4L315,372.3z"/>
		<path class="st62" d="M320.8,347.6l0.8-1.1c0,0-1.4-0.6-4.9,2.7l-3.4,3c0,0-1.9,1.6-1.9,6.8c-0.1,4.2-0.7,8.4-1.7,12.5
			c0,0.5,3.3,4.5,8,2.4c0,0,14.5,0.2,20.9-5l0.3-5.8c0,0,1.7,0.6,3-2.4l-0.7-13.5c0,0-0.6-7.3-5.4-7.2L320.8,347.6z"/>
		<path class="st8" d="M311.2,371.5c0,0-1.3,4.1,0.3,13.7c0,0,3.2,12.6,2.8,14.6c1.6,0.7,3.4,0.3,4.5-1c0,0-1.9-14.1-1.7-18.9
			s0.2-7.2,0.2-7.2S315.9,368.9,311.2,371.5z"/>
		<path class="st8" d="M321.5,336.2c0,0-1.7-0.3-1.6,1.1s0.5,4.2,1,4.9c0.4,0.4,1,0.7,1.6,0.6c0.2,1.1,0.1,2.2-0.3,3.2l-1.3,1.6
			c1.8,1,3.3,2.6,4.2,4.5c1.1,2.9,1.7,4.2,3,4s1.1-0.1,1.1-0.1l1.6,4.9l0.7-5.9c0.9-0.6,1.5-1.5,1.6-2.6c0.3-1.9-1-6.1-1-6.1
			L321.5,336.2z"/>
		<path class="st8" d="M335.6,327.5c0,0,1.3-0.7,1.1,3.6c0,0,0.3,4.8-0.1,5.7c-0.2,0.3-0.3,0.8-0.5,1.1c-0.3,0.5-0.3,1-0.2,1.5
			c0.2,0.5,0.2,1.2,0,1.7l-1.9,5.1c-0.2,0.4-0.5,0.8-0.9,1l-1.3,0.8c-0.5,0.3-1.2,0.4-1.8,0.3c-2.3-0.4-4.2-1.9-5.2-4l-1.7-1.8
			c0,0-0.9,1.3-2.2-0.3s-1.2-4.9-0.8-6.4S326.1,321.3,335.6,327.5z"/>
		<path class="st63" d="M329.2,336.6c0,0,7.9-1.6,7.2-7.1l0.2,3.3c0,0,1.6,0.3,1.3-3.9c0-1.9-1.4-3.4-3.2-3.7c0,0-0.9-2.1-4.1-2.3
			c0,0-3.6-1.9-6.3,0.5c-1,0-2,0.5-2.6,1.3c-1.2,0.4-2.2,1.3-2.8,2.5c-0.9,1.6-0.3,2-1,3.1c0,0-1.5,2,0.5,7.1
			c0.5,3.2,1.8,3.1,1.8,3.1s-1-4.5,0.8-4c0,0,1.6,0.3,1.7,1.3s-0.2,2.8,0.6,3.3l1.1,0.4c0,0-0.3-2.2,0.6-2.9c1.4-0.9,1.8-2.8,1-4.2
			c0,0-1.7-3.3-0.1-3.7c0,0-0.9,0.9,0.2,2.6c0.8,1.1,1.1,2.4,0.9,3.7c0,0,1.4-0.7,0.6-2.8s1.2-4,1.2-4s-1.5,1.4-1,2.9
			s0.8,3.1-0.2,4.1c0,0,1.2-0.2,1.7-2.8c0.2-1.5,1.1-2.9,2.4-3.7c-1,0.7-1.7,1.8-2,3C329.8,335.3,329.9,336.2,329.2,336.6z"/>
		<polygon class="st64" points="322.8,337.9 329.3,339.8 329.2,340.5 323,338.6 		"/>
		<path class="st62" d="M309.8,371.5c0,0,1.6,4.1,8.7,2.3c0,0,1.4-7.2,1.7-9.2s1.9-6.6-0.1-8.5c0,0-5.3,2.4-8.3-0.3
			c-0.2,1.7-0.2,3.4,0,5.1C312.1,363.3,310.9,369.4,309.8,371.5z"/>
		<path class="st9" d="M328,338.8c0.9,0.2,1.9,0.2,2.8,0.1c2.1-0.6,4.1-1.4,6-2.4l-0.3,0.7c-1.8,0.8-3.6,1.5-5.5,2.1
			C329.4,339.6,328.6,338.8,328,338.8z"/>
		
			<ellipse transform="matrix(0.1829 -0.9831 0.9831 0.1829 -64.4733 603.8102)" class="st65" cx="331" cy="340.7" rx="2.1" ry="1.7"/>
		<ellipse class="st66" cx="331" cy="340.5" rx="1.8" ry="2.1"/>
		
			<ellipse transform="matrix(0.1829 -0.9831 0.9831 0.1829 -59.0425 607.72)" class="st65" cx="336.1" cy="339.4" rx="2.1" ry="1.7"/>
		
			<ellipse transform="matrix(0.1829 -0.9831 0.9831 0.1829 -59.0425 607.72)" class="st66" cx="336.1" cy="339.4" rx="2.1" ry="1.7"/>
		<path class="st66" d="M332.8,340c0,0,0.6-1.2,1.6-0.4"/>
		<path class="st9" d="M334.1,340c0.6,1.2,0.6,2.6,0.2,3.9l-1.2,0.6l-1.4-0.5l1.5,0.1l0.7-0.5C334.1,342.4,334.2,341.2,334.1,340z"
			/>
		<path class="st9" d="M324.8,344c0,0,2.2,3.7,5.9,4.2l1.6-0.5c0,0,2,2.7,1,5.5c0,0-0.1,1.2-1.9,1.8l-0.7,5.9l-0.2-6.2
			c0,0,3.1-1.3,1.7-5.2l-2,0.4C330.2,349.9,324.3,350.1,324.8,344z"/>
		<path class="st9" d="M322.4,342.8c0,0,0.4,0.2,0.8-0.4c0,1.2-0.1,2.3-0.3,3.5c-0.2,0.7-0.7,1,1,3.7c1.1,1.7,1.8,3.6,2.2,5.6
			c0,0-1.2-4-2.2-4.8s-3.5-2.6-3.5-2.6c0.9-0.8,1.6-1.8,1.9-3C322.6,342.9,322.4,342.8,322.4,342.8z"/>
		<path class="st8" d="M318.7,398.7c0,0,0.5,0.9,2,3.3c0.4,1,0.5,2,0.5,3.1c-0.1,0.6-0.2,1.1-0.4,1.7c-0.2,0.4-1.4,0.8-1.6-0.3
			s0.3-3-0.6-3s-0.4,2.5-0.3,3.4c0.1,0.5,0.9,3,0.7,3.6s-1.3,0.9-3-0.3c-1-1.3-1.8-2.8-2.2-4.4c-0.4-1.7,0-3.8,0.5-6.2
			C314.5,399.8,316.4,400.6,318.7,398.7z"/>
		<path class="st59" d="M331.2,450c0,0,1.3-3.6,4.9-3.3c0.7,0.5,1.3,1.2,1.8,1.9c-2,0.2-3.7,1.7-4.1,3.7L331.2,450z"/>
		<path class="st59" d="M317.3,456.8c0,0,2.1-4.1,5.5-2.9c0.7,0.5,1.3,1.2,1.6,2c0,0-2.6-0.7-4.6,3
			C319.4,459,318.1,457.8,317.3,456.8z"/>
		<path class="st67" d="M320.5,347.7c0,0,3,1.7,3.7,3s2,5.1,3,5.2c0.6,0.1,1.1,0.1,1.7,0l1.6,4.8l0.7-5.8c0,0,2.6-0.9,2-4.4
			c0-1-0.4-2-1.1-2.8l0.5-0.2c0.6,1.2,1,2.5,1.2,3.8c0.1,1.8-1,3.6-2.2,3.9l-0.8,7.2l-2.3-5.9c-1,0.2-2-0.2-2.6-1
			c-0.9-1.3-1.6-4.4-2.4-5.1c-1.1-0.8-2.2-1.7-3.2-2.6L320.5,347.7z"/>
		<path class="st67" d="M332.5,361.5c1.8-0.4,3.3-1.5,4.4-2.9c-0.6,1.7-2,3-3.8,3.4c0,0-0.3,4.4,0.3,5.3s3-0.3,3.5-1.6l0.1-5.7
			l0.3,6.2c0,0-2,3.4-4.7,1.4L332.5,361.5z"/>
		
			<ellipse transform="matrix(0.9507 -0.3102 0.3102 0.9507 -94.6742 119.3518)" class="st68" cx="327.9" cy="357.3" rx="0.5" ry="0.7"/>
		
			<ellipse transform="matrix(0.9507 -0.3102 0.3102 0.9507 -95.9659 120.0692)" class="st68" cx="329.5" cy="361.8" rx="0.5" ry="0.7"/>
		<path class="st67" d="M320.6,356.4c0,0,1.6,1.8,0.3,7.2c0,0-1.1,4.6-1.2,6c-0.2,1.5-0.4,3-0.8,4.4c0,0-2.2,2.2-7.6-0.7
			c0,0,5.4,1.7,7.1,0.3c0,0,0.4-2,0.7-3.7s1.1-6,1.4-7.5S321.2,357.4,320.6,356.4z"/>
		<path class="st58" d="M313,346.3c0,0,8.7,2.9,9.6,13.9c0,0,0.3,8.5-3.2,11.2l-0.4,2.5c0,0,4.4-0.9,5.7-7.4s0-14.8-7.1-21.6
			C317.4,345,315.3,343.6,313,346.3z"/>
		<path class="st58" d="M334.3,345.2c0,0,2.7,2.6,2.6,12.3c0,0,0.1,6,2,8.2c0,0,0.1-13.9-0.4-17.1c-0.6-3.4-1.6-4.7-3.3-6
			C335,343.5,334.7,344.4,334.3,345.2z"/>
		<path class="st9" d="M322.2,338.5c0-0.4-0.2-0.7-0.6-0.9c-0.6-0.3-1.3-0.4-1.1,1.3s0.8,2.7,1.4,2.8s0.9-0.9,0.2-1.4
			s-0.3-1.1,0-1.1s-1-0.7-0.9,0.2c0,0.5,0.1,0.9,0.3,1.4c-0.5-0.7-0.7-1.7-0.5-2.6C321.5,337,321.7,338.9,322.2,338.5z"/>
		<path class="st61" d="M331.6,400.6c0.9-0.5,1.8-1,2.7-1.6c-1.1,1.3-2.3,2.6-3.7,3.6L331.6,400.6z"/>
		<path class="st69" d="M315.3,348.4c0,0,2.6-1.5,6.6,7c0,0,4.1,10.3-2.5,16.1c0,0,6.7-8.5,0.7-18.2
			C320.1,353.3,318.5,349.5,315.3,348.4z"/>
		<path class="st69" d="M309,347.4c0,0,2.3,1.7,4.1,0.4s7-4.6,7.8-4.6c0,0-2-0.3-7.9,4C311.8,348,310.3,348.1,309,347.4z"/>
		<path class="st69" d="M334.3,345.2c0,0,2,1.3,2.3,5.2s0.5,10.5,1,11.9s1.3,3.4,1.3,3.4s-2.2-1.6-2.6-10.2s-0.8-8.5-2.2-9.8
			L334.3,345.2z"/>
		<path class="st69" d="M309.9,351.4c-0.5,1.6-0.6,3.3-0.4,5c0.5,2.2,0.1,4.5-0.9,6.5c-1.2,2.7,0.4,9.1,0.4,9.1s-2.1-6.1-0.7-10.5
			s0.3-4.5,0.3-5.9S309.1,351,309.9,351.4z"/>
		<path class="st67" d="M317.8,391c0,0,4.3,4.1,14.1-0.1c0,0,5-2.1,6.2-5.2l0.8-20l-1.2,20c0,0-2.6,4.5-9.6,5.9
			c0,0-7.7,1.4-10.5-1.5L317.8,391z"/>
		<path class="st9" d="M310.9,372.9c1.9,1.2,4.1,1.8,6.3,1.7l-0.1,3.7c0,0-0.4-2.3-2.3-2.7s-2.8-0.6-3.4,0.1s-0.6,2.2-0.5,3.8
			C310.5,377.3,310.5,375.1,310.9,372.9z"/>
		<path class="st9" d="M341.3,361.6c-0.4,1-1.4,1.7-2.5,1.5c0,0,0.1,7.2-0.2,9.3l-0.5,13.4l1.6-20.9c0.7-0.5,1.2-1.3,1.5-2.1v-1.2
			L341.3,361.6z"/>
		<path class="st9" d="M313.9,451.3c1.4,1.3,3.3,1.8,5.2,1.5c0.7-0.2,1.3-0.6,1.7-1.2l0.7,0.9c-0.7,0.2-1.3,0.6-1.9,1
			c-1.1,0.8-5,0.4-5.7-0.8C314,452.7,313.7,452,313.9,451.3z"/>
		<path class="st9" d="M326.7,444.2c0,0,1.3,2.4,5.2,2c0,0,1.9,0,2.5-1.2c0,0,0.7,1.7-2.6,2c-1.7,0.3-3.5-0.1-5-1.1
			C326.6,445.4,326.6,444.8,326.7,444.2z"/>
		<polygon class="st64" points="337.6,338.7 335.9,338.1 335.8,338.5 337.7,339.1 		"/>
		<path class="st70" d="M95,270.4c0,0,3.8,1.9,5.9,3.3c0,0,1.3,0.6,1,1.7c0,0-0.3,2.1-3.2,1.7c-1.3-0.2-3.3-0.1-7.8-3.4
			c-0.9-0.5-1.5-1.4-1.6-2.4C89.3,269.7,93.1,269.5,95,270.4"/>
		<path class="st71" d="M90.6,273.5c0,0,4.4,4,9.2,3.7c0,0-6.4-1.4-7.5-3.6c-0.8-1.2,0.2-1.6,0.2-1.6l-1-0.9l-0.7-0.2l-0.5,0.2
			C90.3,271.9,90.4,272.7,90.6,273.5z"/>
		<path class="st70" d="M85.8,271.1l-0.1,0.7c0,0-0.8,7.2,0.1,9c0.5,1.1,1.7,1.8,2.9,1.7c0.8,0,3.1-1.4,2.5-6
			c-0.2-1.9-0.5-3.8-0.9-5.6L85.8,271.1z"/>
		<path class="st71" d="M85.7,272c1.6,0.6,3.3,0.4,4.7-0.5l0.3,1.2c0,0-0.3,2.3-5.1,0.6L85.7,272z"/>
		<path class="st72" d="M86.7,271.9c-0.2,1.3-0.2,2.7,0,4c0.3,1,1.7,2.5,2.7,0.4c0.8-1.7-0.2-5.3-0.2-5.3L86.7,271.9z"/>
		<path class="st72" d="M94.2,269.3c0,0,0.3,0.9,2.2,1.9c1.2,0.6,2,1.3,2,2.1s-3.6,1-7-2.4L94.2,269.3z"/>
		<path class="st73" d="M90.5,270.9c0,0,2.8,1.2,3.7-1.5c0,0,0.3-14.1,2.5-24.3s4.6-25.9,4.4-27.4L89.6,222L90.5,270.9z"/>
		<path class="st72" d="M107.2,200.8c0.4,0.4,0.9,0.7,1.5,0.8c1.2,0.1,2.2,0.7,3,1.6c0.9,1,1.1,1.7,2,2.2s0.7,0.9,0.3,1.3
			s-2.1,0.1-2.7-1.4c0.2,0.9,0.6,1.7,1.1,2.4c0.7,0.8,1.7,2.4,1.2,3.4s-2.1,1.1-3.9,0.5s-4.5-1.9-5.3-5.9c0-0.7-0.3-1.4-0.8-2
			C103.6,203.7,103.7,201,107.2,200.8z"/>
		<path class="st73" d="M76.9,221.4c0,0,3.5,25,7.9,48.2c0,0,0.1,2.6,2,2.8c2.6,0.3,4.4-1.2,4.2-2.6c0,0-0.4-35.7,1.2-46.7
			C92.2,223.1,85.3,213.9,76.9,221.4z"/>
		<path class="st74" d="M78.7,186.2L76,212.9c-0.9,0.1-1.6,1-1.6,1.9c0,0,3.2-26,2.4-30.7L78.7,186.2z"/>
		<path class="st75" d="M107.3,200.1c0,0-3.3-8.4-4.1-10.2s-0.7-8.2-0.7-8.2c-1-15.9-6.1-15.9-6.1-15.9c-0.5,2.5-3.6,4.9-3.6,4.9
			c4.4,7.3,1,9.8,1,9.8c0.5,1.7-0.3,6.4-0.3,6.4c-0.7-3.9-2.1-5.1-2.1-5.1c-3.1,0-4.9-3.7-4.9-3.7c-2.7-5.1-5.1-6.1-5.1-6.1
			c-1.8,0.5-3.5,1.3-4.9,2.5c-4.9,5-6.5,20.9-6.4,24.2s4.3,10.3,4.3,10.3c-0.6,2.1-0.6,4.3-0.1,6.4l11.2,9.6
			c6.3,0.9,12.7-1.5,16.8-6.4l0.3-3.4c0.1-1.8,0-3.6-0.4-5.3c-0.6-2.9-3-12.9-3-12.9l4.3,7.2c0.7-3.1,4.1-3.2,4.1-3.2
			C107.5,200.7,107.4,200.4,107.3,200.1z M79,198.8l-1.1,3.1l-1.3-5.4c0.5-1.9,1.1-3.7,1.8-5.5C79.2,193.5,79.4,196.2,79,198.8z"/>
		<path class="st72" d="M84.2,167.3c0,0,0.6,2.7-2.4,4.8c1.9,1.9,3.6,4.1,5,6.4c2.8,4.4,4.7,3.3,4.7,3.3l2.1,5.1l0.5-6.4
			c0,0,3-2.3-1.3-9.8C89.6,170.9,86.4,169.6,84.2,167.3z"/>
		<path class="st72" d="M82,164.4c0,0-2,5.3,2.2,3.1c0,0,4,5.3,9.4,3.1c0,0,2.6-1.1,3.3-7.6c0,0,1.4-8.6-0.6-10.5
			c0,0-10.9-7-13.9-0.3C80.5,156,80.3,160.5,82,164.4z"/>
		<path class="st21" d="M83.6,147c0,0-7,0.7-7,10.9c-0.1,1.8-0.5,3.6-1.1,5.3c-0.9,2.4-0.7,7.8,7.6,7.8c1.1-0.9,1.5-2.4,1.1-3.7
			c0,0-1.7,0.7-1.7-1.7c1.2-0.8,2.3-1.8,3.2-2.9c0.6-0.3,1.6-0.6,2.4-4c0,0,6.2,0.9,8.3-4.1c0.3,1.9,0.5,3.8,0.4,5.7
			c0,0.3-0.6,1.6-0.6,2c-0.1,1.2,0.5,2.1,0.2,3.3c0,0,2,1,2.2-5.1s-1.6-7.4-3.5-10C95.1,150.2,89.7,143.7,83.6,147z"/>
		<path class="st76" d="M84.9,192.9c0,0,4.5,0.5,7.1-1.7C91.8,191.4,90.1,194.4,84.9,192.9z"/>
		<path class="st77" d="M94.1,180.6c1.5-4-1.6-8.7-1.6-8.7c-1.3,0-2.4-0.1-2.4-0.1c-1.2-0.2-2.3-0.6-3.3-1.3c-2.5-1.7-2.4-3-2.4-3.8
			c0,0,2.5,4,6.2,4.3c0.8,0.1,1.5,0.1,2.3,0C92.9,170.9,97.1,177.4,94.1,180.6"/>
		<path class="st77" d="M96.8,160.4c0,0-4.7,3.7-8,2.6c0,0,1,1.8,5.1-0.3l2.6-1.6L96.8,160.4z"/>
		<path class="st73" d="M78.4,198.3c0.5,0.9,1.1,1.7,1.8,2.4c1.4,1.5,6,2.4,8.9,1.5c-0.7-2.5-1-5.2-0.9-7.8c0.1-1.8,0.2-3.5,0.2-4.8
			c0.3-3.1,0-6.2-1-9.2c0,0-0.6,0-2.5-3.5c-2-3.7-2.9-4.6-4.2-4.9c0,0-2.3,0.5-2.9,1.5c0,0,4.5,1.9,4.4,8.9
			c-0.1,7.3-3.7,9.3-3.7,9.3c0,0.8,0.1,1.7,0.3,2.5C79.3,195.9,78.4,195.9,78.4,198.3z"/>
		<path class="st74" d="M76.6,174.4c0,0,4.2-0.8,5.7,10.4l1.6,27.4l0.7,4.5l1.1,0.8c0,0-1-9.6-1.2-16.2s-0.8-18.8-1.5-21.1
			s-1.6-5.4-5.1-6.8c-0.6-0.1-1.1,0.2-1.3,0.8C76.6,174.3,76.6,174.3,76.6,174.4z"/>
		<path class="st76" d="M80.5,181.5c0.1,3.3-0.6,6.6-2.2,9.6C78.3,191.1,82.4,185.2,80.5,181.5z"/>
		<path class="st76" d="M80.3,186.5c0.7-0.5,1.2-1.3,1.3-2.2c0.2,1.2-0.4,2.5-1.5,3.1L80.3,186.5z"/>
		<path class="st73" d="M94,170.4c0,0,3.7,5.1,2.9,19.1c0,0,0,4.3-0.3,7c-0.2,1.7-0.1,3.4,0.2,5c1.3-0.2,2.5-0.9,3.3-2
			c0.2-0.3,0.4-0.5,0.7-0.7c0,0-0.6-11.6-0.3-12.6c0.6-1.2,0.9-2.5,0.9-3.9c-0.2-1.7-2.3-4.5-3.3-7.4s-2.6-6.5-2.6-6.5
			C95.2,169.2,94.7,169.9,94,170.4z"/>
		<path class="st21" d="M87.4,160.6c0,0-1.7,5.1-4.9,5L87.4,160.6z"/>
		<path class="st78" d="M100.4,186.3c-0.7,1.1-1.6,2-2.6,2.7c1-0.4,1.9-1,2.6-1.8V186.3z"/>
		<polygon class="st76" points="91.2,181.9 93.6,186.9 94.4,180.3 94.1,180.5 93.5,185.9 91.5,181.8 		"/>
		<path class="st74" d="M74.6,209.1l1.1,1.5l-0.1,2.2c0,0-1.2,0.4-1.2,1.2C74.3,212.4,74.4,210.7,74.6,209.1z"/>
		<path class="st76" d="M77.8,202l2.8,6.7l1.3,1.8c-1,1.5-2.6,2.6-4.4,3c0,0-2.2-3.4-3-4.6l3.1,4c1.4-0.3,2.7-1.1,3.6-2.3l-1-1.7
			c-1.2,1-2.6,1.7-4.1,1.9c1.3-0.6,2.7-1.3,3.9-2.1C80.1,208.6,78,204.1,77.8,202z"/>
		<path class="st74" d="M74.2,215.3c0,0-0.1,6.6,0.9,8.5c0,0,1.2,1.9,6.7,3.9c1,0.5,2,0.7,3.1,0.7c1-0.1,1.8-0.8,2.1-1.8
			c0,0,0-6.2-0.3-6.9c0,0-0.3-0.9-2-1.2S74.1,212.5,74.2,215.3z"/>
		<path class="st79" d="M75.9,212.7c0,0-1.6-0.1-1.7,2.1c0,1.5,0.2,2.9,0.7,4.3c0,0,2.6,2.8,4.6,3.6s4.3,1.2,5.2,0.5
			c0.2-0.4,0.2-0.9,0.2-1.4c0-0.4,0.4-0.8,0.8-0.9c0,0,0.9-0.1,0.9-0.6l0.1-0.7C86.8,219.6,78.1,213.7,75.9,212.7z"/>
		<path class="st80" d="M74.6,215.1c0,0,9.1,5.8,10.3,6.2C84.9,221.2,78.7,218.6,74.6,215.1z"/>
		
			<ellipse transform="matrix(0.9328 -0.3603 0.3603 0.9328 -74.0528 43.2837)" class="st81" cx="79.1" cy="220.3" rx="0.6" ry="0.8"/>
		<path class="st80" d="M74.3,218.4c2.4,3.2,6.3,5.1,10.3,5c0,0-0.1-2,1.2-2.5c-0.7,0.7-1.1,1.7-0.9,2.7
			C80.7,223.9,76.6,221.9,74.3,218.4z"/>
		<path class="st73" d="M92.5,224.5c0,0-0.1,16.8-1.2,24.1c0,0,0.1,4.1,0.1,7.2s-0.4,15-0.4,15l-0.3,0.5c0,0,0.4-13.1,0.1-15.6
			c-0.2-2.4-0.2-4.9-0.1-7.3c0.1-1.1,0.9-22.2,1.1-23.7L92.5,224.5z"/>
		<path class="st76" d="M106.4,198.8c-1.9,0.1-3.5,1.4-3.9,3.3c-0.1-1.8,1.3-3.3,3.1-3.4C105.9,198.7,106.1,198.7,106.4,198.8z"/>
		<path class="st72" d="M81.6,210.8c0.4,0.5,1.1,0.8,1.7,0.8c1,0,1.8,0.9,2.5,2s1.2,1.3,1.3,1.7s-0.2,0.9-1.3,0.5
			c-0.7-0.2-1.3-0.5-1.9-0.9c0.6,0.6,1.1,1.3,1.5,2.1c0.5,1.2,1.7,1.1,2.1,2c0.2,0.5-0.1,1.1-0.6,1.3c-0.1,0-0.3,0.1-0.5,0
			c-0.8,0.4-1.8,0.5-2.7,0.4c0,0-3.1-0.7-4.7-4.9c-0.2-0.9-0.5-1.8-0.9-2.6C79.5,212.8,80.7,212,81.6,210.8z"/>
		<path class="st82" d="M100.9,220c0,0-3.8,4.8-13.8,4.9v1.7c4.9-0.3,9.7-2,13.6-5L100.9,220z"/>
		<path class="st77" d="M94.3,163c0,0,0.7,2.8,0.1,4.4c-0.2,0.4-0.7,0.7-1.2,0.6c0,0,1-0.3,1.1-2.1c0-0.9-0.1-1.8-0.4-2.7L94.3,163z
			"/>
		<path class="st83" d="M82.5,165.6c0,0,0,2.3,1.8,1.7c0,0,0.5,2.4-1.1,3.7c-1.2,0.1-2.4,0-3.6-0.4c0,0,4.3,0.7,4.1-1.8l-0.1-0.9
			C83.5,167.9,82.3,167.8,82.5,165.6z"/>
		<circle class="st84" cx="83.6" cy="167" r="0.5"/>
		<path class="st84" d="M84.1,168.3c0,0.3-0.2,0.5-0.5,0.5s-0.5-0.2-0.5-0.5c0-0.3,0.2-0.9,0.5-0.9S84.1,168.1,84.1,168.3z"/>
		<path class="st77" d="M84.3,167.3c0,0,0.9,2.5-2.4,4.8c1.3,1.3,2.4,2.7,3.5,4.2c0,0-2.2-3.3-1.3-4.4c0.6-0.9,1.1-1.9,1.3-2.9
			L84.3,167.3z"/>
		<path class="st77" d="M85.4,176.3c0,0,3.5,6.3,6.1,5.4l2,4.1l0.6-5.3l-0.8,3.7c-0.1-1.3-0.5-2.5-1-3.7l0.3,3l-1.1-2.2
			c0,0-2.6,0.9-7.2-6.8L85.4,176.3z"/>
		<polygon class="st77" points="92.2,171.4 91.9,173.9 92.6,172.9 92.5,171.3 		"/>
		<path class="st84" d="M83.1,171c0,0,3.8,6,8.5,6c0,0,2.2,0.1,0.9-4.6c0,0,2.2,4.4-0.4,5.1C92.1,177.6,87.7,179.1,83.1,171z"/>
		<path class="st84" d="M91.4,177.6c0,0,1.2,1.2,1.3-0.4L91.4,177.6z"/>
		<polygon class="st76" points="91.2,192.2 88.1,195.3 88.2,193.2 		"/>
		<path class="st76" d="M79.2,189.6l0.2,1.4l-0.8,0.6l-0.2-0.6C78.7,190.5,79,190.1,79.2,189.6z"/>
		<path class="st76" d="M70.2,199.2c0,0,2.6,8.1,5.8,11.9l2.3-0.9l-2,0.5C73.8,207.2,71.7,203.3,70.2,199.2z"/>
		<path class="st76" d="M76.5,196.8c-0.3-1-1.1-1.8-2.1-2.1C74.4,194.7,77,194.3,76.5,196.8z"/>
		<path class="st76" d="M94.8,188.7l-2.4,5.7C93.7,192.7,94.5,190.8,94.8,188.7z"/>
		
			<ellipse transform="matrix(0.8333 -0.5528 0.5528 0.8333 -85.9017 80.8784)" class="st73" cx="91.2" cy="182.9" rx="0.6" ry="0.3"/>
		<ellipse transform="matrix(0.8298 -0.558 0.558 0.8298 -88.6424 84.279)" class="st73" cx="93.9" cy="187.5" rx="0.6" ry="0.3"/>
		<path class="st82" d="M92.5,224.5c0,0-0.7,18.1-1.4,24.8c0,0-0.2,20.1-0.4,21.1c0,0-1.8,3.2-5.4,0.7c0.5,1.2,1.8,1.8,3,1.4
			c1.2,0,2.3-0.6,2.8-1.7l0.4-21.8l3.2-25L92.5,224.5z"/>
		<path class="st77" d="M83.9,214.3c0,0-0.1,0.2,0.4,0.8s1.1,2.1,1.6,2.7s2.1,0.5,1.7,1.8c0,0,0.4-0.6-1.6-1.4
			C84.7,217.4,84.4,215.4,83.9,214.3z"/>
		<path class="st77" d="M111.2,205.3c-0.2-0.7-1-1-1.7-0.8c0,0-0.1,0-0.1,0.1c-0.9,0.3-1.8,0.2-2.6-0.3c0,0,0.4,1.2,2.4,0.9
			C109.8,204.7,110.6,204.8,111.2,205.3z"/>
		<path class="st77" d="M107.2,200.8c0,0-2.9,0.6-3.6,3c0.4,0.6,0.7,1.3,0.8,2c0.3,1.4,1.4,4.5,4.5,5.6c-2.2-1.3-3.7-3.5-4.1-6.1
			c-0.6-4.3,3.6-3.7,3.6-3.7L107.2,200.8z"/>
		<path class="st77" d="M110.7,207.1l-2.8,2C108.4,208,109.5,207.2,110.7,207.1z"/>
		<polygon class="st78" points="88.2,193.2 84.7,194.6 85.5,195.7 85.5,197 88.1,195.3 		"/>
		<path class="st77" d="M86.6,273.6c1,0.3,2.1,0.3,3.1,0l-0.2-1.5c0,0-0.7,0.5-2.8,0.3L86.6,273.6z"/>
		<path class="st77" d="M81.6,210.8c-0.8,1.2-2.1,2.1-3.5,2.4c0.3,0.8,0.6,1.7,0.9,2.6c0.5,1.4,1.3,2.6,2.4,3.5c0,0-2.6-3.4-2-4.9
			c0.6-1.2,1.7-1.9,3-2c0.6,0,1.2-0.1,1.8-0.2C83.4,211.7,82.5,211.2,81.6,210.8z"/>
		<path class="st77" d="M91.5,271.2l1,0.9c0,0,3-0.5,1.7-2.7C93.7,270.5,92.7,271.2,91.5,271.2z"/>
		<path class="st72" d="M384.5,163.4l0.5,10.8c3.4,0,2.6-5.1,2.6-5.1s-0.2,1.4,1.6,1.3s0.9-0.9,0.9-0.9c-0.6-1.2-0.7-3.3-1-4.6
			c-0.3-1-0.7-2-1.2-3C386.9,162.6,385.7,163.1,384.5,163.4z"/>
		<path class="st85" d="M384.2,134c0.1,1.7-0.1,3.3,0,5s0.2,3.3,0.3,5s0.2,3.2,0.3,4.9c0.2,1.7,0.3,3.3,0.3,5l0.3,5
			c0.1,1.7,0.2,3.3,0.2,5c-0.3-1.7-0.4-3.3-0.6-5l-0.5-5c-0.2-1.7-0.3-3.3-0.4-5s-0.3-3.3-0.4-5s-0.2-3.3-0.2-5s0.2-3.3,0.2-5
			s0-3.3,0-5s-0.1-3.3-0.1-5C384,127.3,384.2,130.6,384.2,134z"/>
		<path class="st85" d="M385.3,128.6c0,1,0,2-0.2,3c-0.1,0.5-0.2,1-0.3,1.5c-0.2,0.5-0.5,0.9-0.8,1.3h-0.1c-0.1-0.5-0.1-1.1,0-1.6
			c0.1-0.4,0.3-1,0.4-1.4L385.3,128.6z"/>
		<path class="st85" d="M385.2,159.8l-0.1-0.4c2.2-0.5,2.8-1.5,2.8-1.5C387.5,159,386.4,159.8,385.2,159.8z"/>
		<path class="st77" d="M390.3,169.8c0.1,0.3-0.5,0.5-0.5,0.5c-0.7,0.2-1.4,0.1-2-0.3c-0.3-0.3-0.6-0.7-0.8-1.1
			c-0.2-0.6-0.2-1.3,0.1-1.9c0,0.3,0,0.7,0.1,1c0.1,0.4,0.3,0.8,0.5,1.2c1.2,1.9,2.4,0.4,2.4,0.4L390.3,169.8z"/>
		<path class="st77" d="M387.1,167.5c-1,0.1-1.3-0.3-1.3-0.3v-0.9c0.2,0.7,1.3,0.6,1.3,0.6V167.5z"/>
		<path class="st86" d="M357.8,226c0,0-1.1,2.1-0.8,3s8.4,9.4,10.8,8.6s2.8-1.6,2.5-2.5s-5.3-7.8-5.3-7.8
			C361.5,229.9,357.8,226,357.8,226z"/>
		<path class="st87" d="M366,228.8c0,0-4.4,2.8-8.6-1.6l0.4-1.2c0,0,4.7,3.2,7.2,1.3L366,228.8z"/>
		<path class="st86" d="M371.5,219.6c0,0-1,2.4-0.7,3s8.5,8.4,10.3,8.3c1.5-0.1,2.7-1.2,2.9-2.6c0-0.9-5.2-6.8-5.2-6.8L371.5,219.6z
			"/>
		<path class="st87" d="M379.2,222.2c0,0-4.9,2.2-8.1-0.7l0.4-1.9c1.9,1.6,4.5,2.1,6.9,1.3L379.2,222.2z"/>
		<path class="st88" d="M380.2,163.5c-4.4,2.9-19.4,5.9-19.4,5.9c-0.3,3.1,0.3,36,0.3,36c0.7,5.2-3.5,18.9-3.5,18.9s-0.9,3,3.3,4.1
			s4.8-1.9,4.8-1.9s4.8-17.7,5.5-20.3s1.6-20.3,1.6-20.3c1.6,5.4,2.4,11.2,2.2,14.5s-4.4,18.3-4.4,18.3c1.2,3.9,5.7,3.5,7.1,3
			c1-0.3,1.7-1.3,1.5-2.4c0.6-2.6,5.2-17.8,5.2-19.8s-0.8-24.4-0.8-24.4C383.6,165.3,380.2,163.5,380.2,163.5z"/>
		<path class="st89" d="M366.1,122.5l-0.4,1.4c0.6,3.8,4.1,10,5,13.2s-0.3,12,0.3,17.1c0.3,3.7,0.1,7.5-0.6,11.2
			c4.5,0.2,9.8-3.8,9.8-3.8s0.3-3.2,0.3-5.1s-0.3-16.7,0-23.5s-2.3-9.8-2.3-9.8L366.1,122.5z"/>
		<path class="st90" d="M375.7,127.5l-1.7,2.1l1.5,2.1c0.5,0.4,1.1,0.3,1.5-0.2c0,0,0.1-0.1,0.1-0.1c0.7-1,1.3-2.7,1.1-2.9
			C377.4,128,376.6,127.7,375.7,127.5z"/>
		<path class="st90" d="M375.8,131.5c0,0-2.2,19-2.3,19.3c1,1.4,2,2.8,3.2,4.1c1-1.8,1.9-3.7,2.7-5.7c0.2-2.6-2.4-18.1-2.4-18.1
			L375.8,131.5z"/>
		<path class="st91" d="M366.5,120c-1.9,0.8-2.4,3.8-2.4,3.8s-5.8,4-7.4,6.3s-1,4.3-1.3,7.8s-2.4,12.5-2.3,17.2s2.9,14,2.9,14
			c-0.6,1.6-1.1,3.2-1.3,4.9c3.4,4,9.5,3.9,9.5,3.9c2.3,0.5,4.7,0.2,6.8-0.9c-0.2-1.9-0.1-3.8,0.1-5.7c0.4-2.5-0.6-5.8,0-9.9
			s0-11.5,0.3-18.6s-2.7-12.1-4.6-16s-0.3-5.1-0.3-5.1L366.5,120z"/>
		<path class="st91" d="M378.1,122.9c2.3,2.7,2.5,12,2.2,15.6s0,8.4,0,13.5s0.3,16.5,0.4,19s-0.6,5.2,0.1,5.6s1.5-0.4,2.9-1.3
			c0.9-0.7,1.7-1.6,2.2-2.7c0.2-2.6-0.3-9.1-0.3-9.1c0.6-0.2,2.3-1.1,2.4-1.6c0.1-1,0.2-2.1,0.1-3.1c0-0.9-0.3-1.6-0.4-3.5
			s-0.8-14.6-0.9-17.5s-0.1-15.3-0.1-15.3c-0.1-3-2.6-5.3-5.6-5.2c-0.1,0-0.2,0-0.3,0C379.7,119.1,378.8,120.9,378.1,122.9z"/>
		<path class="st92" d="M373.7,131.4c-3.1-2.1-5.8-4.6-8-7.6c0.1-1.7,0.7-2,0.7-2c2.7,2.5,5.9,4.4,9.4,5.7
			C374.9,128.7,374.2,130,373.7,131.4z"/>
		<path class="st92" d="M378.3,123.2c1,1.9,1.4,4.1,1.1,6.2c-1.3-0.4-2.5-1-3.6-1.7c0.7-0.9,1.1-2,1.1-3.2
			C377.4,124.1,377.9,123.7,378.3,123.2z"/>
		<path class="st72" d="M358.3,175.9c-0.8,1.2-1,5.5-0.6,7.1c0.5,1.7,1.5,3.1,3,4c1.7,1.2,2.3,0.2,2.4-0.3s-0.6-3-0.7-3.6
			c-0.2-0.9-0.7-3.5,0.3-3.4s0.4,2,0.6,3s1.4,0.7,1.6,0.3s0.1-0.9,0.4-1.7s-0.5-3.1-0.5-3.1c-0.8-2.6-1.5-3.2-1.5-3.2
			C360.9,177.6,358.3,176,358.3,175.9z"/>
		<path class="st93" d="M364.9,140.1c-0.2,0.8-0.3,1.6-0.5,2.4c-0.7,3-1.4,6.1-2,9.2c-0.2,0.8-0.3,1.5-0.3,2.3c0,0.8,0,1.6,0,2.4
			l0.2,4.8c0.2,3.1,0.3,6.4,0.5,9.5v-0.1c0.3,1.4,0.5,2.9,0.5,4.4v0.1l0,0c-0.3,0.6-1,1.1-1.7,1.2c-0.6,0.2-1.3,0.3-1.9,0.3
			c-0.6,0-1.3-0.2-1.8-0.6c-0.5-0.4-0.9-1-1-1.7l0,0c-0.4-2.2-0.9-4.4-1.3-6.5c0.6,2.2,1.1,4.3,1.7,6.4l0,0c0.2,0.6,0.5,1,1,1.4
			c0.5,0.3,1,0.4,1.6,0.4c0.6,0,1.2-0.1,1.7-0.3c0.3-0.1,0.5-0.2,0.8-0.3c0.2-0.1,0.4-0.3,0.5-0.5v0.1c-0.1-1.4-0.3-2.8-0.6-4.2l0,0
			c-0.3-3.1-0.4-6.4-0.6-9.5c-0.1-1.6-0.2-3.2-0.2-4.8v-2.4c0.1-0.9,0.2-1.7,0.3-2.4c0.4-3.2,1.1-6.3,1.9-9.4c1-3.5,1.7-6,1-9.2
			C366,135.8,365,139.4,364.9,140.1z"/>
		<path class="st93" d="M361.6,171.9c-0.5,0.3-1,0.5-1.6,0.6c-0.6,0.1-1.2,0.1-1.7-0.1c-0.5-0.2-1-0.5-1.5-0.8c0.5,0,1,0.1,1.6,0.1
			c0.5,0,1,0,1.5-0.1c0.5-0.1,0.9-0.2,1.4-0.3c0.5-0.2,1-0.4,1.5-0.6C362.5,171.2,362.1,171.6,361.6,171.9z"/>
		<path class="st94" d="M380.5,165c-3,2.9-9.3,3.7-9.3,3.7l-0.3-3.8c6.3-0.9,9.3-4,9.3-4L380.5,165z"/>
		<path class="st95" d="M373.8,164.2l0.1,4.2c1.5-0.4,2.9-1,4.2-1.7c0.7-2.9-0.1-4.3-0.1-4.3C376.9,163.4,373.8,164.2,373.8,164.2z"
			/>
		<path class="st96" d="M376.4,177.2c-3.9,2.9-3.7,9.4-3.7,9.4v-2c-0.1-2.2,0.4-4.4,1.5-6.3l-2.6,0.7l4.2-2.8l1.7-7.2L376.4,177.2z"
			/>
		<ellipse class="st97" cx="376.5" cy="157.8" rx="0.5" ry="0.7"/>
		<path class="st93" d="M370.3,159.5c-0.1-1.1-0.2-2.3-0.3-3.3s-0.3-2.2-0.5-3.2c-0.4-2.2-1-4.3-1.6-6.4l-0.8-1.5l-0.1-0.4l-0.1-0.2
			v-0.3l0.3-0.9c0.3-1,0.7-2.1,1-3.1l0.3,0.5c-0.4-0.1-0.8-0.2-1.2-0.3c-0.2,0-0.4-0.2-0.6-0.3c-0.2-0.2-0.4-0.4-0.5-0.6
			c-0.1-0.4-0.2-0.9-0.1-1.3l0.1-1.1c0.1-1.5,0-3-0.5-4.4c-0.5-1.4-1.1-2.9-1.5-4.4c-0.3-1.5-0.4-3.1-0.2-4.6
			c-0.1,1.5,0.1,3,0.5,4.5c0.5,1.5,1,2.9,1.7,4.3c0.6,1.5,0.8,3,0.8,4.6v1.1c0,0.3,0,0.7,0.1,1c0.1,0.1,0.2,0.1,0.3,0.2
			c0.1,0.1,0.3,0.1,0.4,0.2c0.3,0.1,0.7,0.2,1,0.2h0.5l-0.2,0.5c-0.3,1-0.6,2.1-1,3.1c-0.1,0.2-0.1,0.5-0.2,0.7l0.2,0.6l0.4,1.6
			c0.6,2.1,1.1,4.3,1.5,6.4c0.2,1.1,0.3,2.2,0.3,3.3c0.1,1.1,0.1,2.2,0.2,3.3c0.1,2.2,0.2,4.4,0.3,6.5
			C370.6,163.7,370.4,161.6,370.3,159.5z"/>
		<path class="st72" d="M377.1,124.4c0.4-0.2,3.6-3.4,3.8-7.1c0.1-1,0-2-0.2-3c-0.1-0.5-0.1-1,0.1-1.5c0.1-0.5,0.2-0.9,0.1-1.4
			c0,0,0.3-3.5-0.7-4.4s-6.8-8.8-13.1-5.1c-1,0.9-1.5,2.3-1.3,3.7c0.1,0.3-0.2,7.6-0.2,7.6s-1.8-0.6-1.9,1.6s0.4,4.2,1,4.6
			s1.2,0.8,1.7,0.6l-0.2,1.9c2.6,2.6,5.8,4.5,9.3,5.7C376.4,126.8,377,125.6,377.1,124.4z"/>
		<path class="st21" d="M369.7,105.3c2.9,1.9,6.3,2.6,9.7,2.1c1.4,0,5-2.2,2.3-6.4c0,0-1.8-2.8-5.2-0.7c-1.6-0.6-3.5-2.3-5.7-1.7
			s-5.7,2.3-6.1,3.4c-0.2,0.8-0.2,1.6,0,2.4c0,0-1.3,0.4-1.3,2.6s0,6.4,0.4,7.8c0,0,0.5-2.2,2.4-1c0.7,0.8,1,1.8,1,2.8l0.1,1.6
			l1.6,0.7l-0.2-1.7c0-0.5,0.2-1,0.5-1.4c0.7-0.6,1.1-1.5,1.3-2.4c0.4-1.7-2.7-5.1-2.7-5.1C367.7,105.5,369.7,105.3,369.7,105.3z"/>
		<path class="st77" d="M375.8,127.5c0.1-1-0.1-1.7-0.6-2c-1-0.6-2.1-0.5-3.5-1.2c-3.4-1.7-3-3.9-3-3.9c0.6,1.2,1.6,2.3,2.8,3
			c3.6,2,5.4,1,5.4,1C376.9,125.5,376.5,126.6,375.8,127.5z"/>
		<path class="st77" d="M380.5,113.5c-1.9,1.5-4.1,2.6-6.5,3c-2.7,0.5-3-1-3-1s0.5,0.5,3,0.3c1.4-0.3,2.7-0.8,4-1.5
			c1.1-0.3,2.2-1,3-1.8C380.7,112.7,380.5,113.1,380.5,113.5z"/>
		<path class="st77" d="M366.3,121.8c1.2,1.1,2.4,2.1,3.7,3c-2.3-1.9-2.1-5.8-2.1-5.8c-0.3,0.1-0.5,0.6-0.7,0.7
			c-0.2,0.2-0.4,0.3-0.7,0.3L366.3,121.8z"/>
		<path class="st77" d="M366.3,116.3c0.3,0.6-0.4,0.8-0.7,0.6s-0.1-2.2-0.4-1.5s0.2,2.3,0.7,2.4s-0.1-0.8,0.5-0.7s0.6,0.8,0.6,0.8
			c0,0.5-0.5,0.9-1,0.9c-0.2,0-0.4-0.1-0.6-0.3c-0.7-0.6-1.2-3.7-0.3-4.1s1.7,1.1,1.7,1.1C366.4,115.5,366.1,115.7,366.3,116.3z"/>
		<path class="st93" d="M380.5,171.7c0,0-0.1-4.4,0-5.3c0.3-3.4,1.1-11.5,1.7-14.6c0.8-4.1-0.2-8.6-0.5-10.6s1.5-2.3,1.6-3.9
			s-1.4-6.1-1.4-6.1c-0.3-7.9-2.4-9.9-2.4-9.9l-1.4,2l1.4,3.5c1,4.4,0.4,11.5,0.3,15.2c-0.2,2.6-0.1,21.3,0.5,28.6L380.5,171.7z"/>
		<path class="st93" d="M366.5,120l-0.2,1.8c0,0-1.2,1.8,0.6,5.2c2.5,4.1,4,8.7,4.5,13.5c0.3,5.4-0.7,23.2-0.4,25.1
			c0,0-0.5-9.7-1.4-13.1s-2.5-8.2-2.1-8.9c0.4-1.1,0.7-2.2,0.9-3.3c0,0-1.6-0.5-1.8-1.2s0.3-4.6-0.7-6.7s-3-7.2-1.5-10.2
			C364.5,122.3,365.2,120.6,366.5,120z"/>
		<path class="st93" d="M385.8,124.7c0,0-0.9,3.3-1.2,4.9c0,0,0.7,30.9,1,33.8c0,0-1.6-16.7-1.6-33.2c0.1-1.5,0-2.9-0.1-4.4l0.5,2.3
			C385,127,385.5,125.9,385.8,124.7z"/>
		<path class="st93" d="M364.1,136.1c0,0,0.8,3.5,0.1,5.8l-0.5,1.4C363.7,140.9,363.8,138.5,364.1,136.1z"/>
		<path class="st96" d="M375.8,176.3l4-1.5c-1.4,1.2-2.8,2.2-4.4,3L375.8,176.3z"/>
		<path class="st97" d="M380,161.3c0,0-2.6,2.8-9.1,3.6c0,0,0.7-19.1,0.7-20.6s0.3-7.6-2.8-13.8s-2.5-5.5-2.7-6.2
			c0,0,3.6,4.9,7.6,7.2l0.6-1.4c0.4,0.7,0.9,1.3,1.5,1.9l-1.2-0.6l-0.8,1.4c-1.7-1.1-3.4-2.3-5-3.6c0,0,3,1.5,3.6,12.2
			c0.5,7.1,0.2,14.2-0.7,21.3c0,0-0.1,0.7-0.3,1.5c6.2-0.5,8.7-3.9,8.7-3.9L380,161.3z"/>
		<path class="st77" d="M378.1,116.1c0,0,1,2.8,0.3,4.1c0,0-0.3,0.4-1.3,0.4s-1.1-0.3-1.1-0.3c0.8,0,1.5-0.3,2.1-0.8V116.1z"/>
		<path class="st97" d="M379.3,125.9c0,0,0.9,1,0.9,8.2l-0.3,26.7l-0.6,0.7c0,0,0.5-20.2,0.2-23.2s-0.3-8.2-0.3-8.2l-1.2-0.8
			l0.1-0.5l1.2,0.6C379.3,129.5,379.8,128.6,379.3,125.9z"/>
		<path class="st77" d="M358.3,175.9c0,0,2.3,1.7,5-1c0,0,0.9,0.6,2,5.1c0,0-1.4-4-2.3-3.2c-1.5,1.1-3.4,1.3-5.1,0.5
			C357.9,176.8,358.1,176.3,358.3,175.9z"/>
		<path class="st77" d="M388,161.9c-0.6,0.8-1.4,1.3-2.4,1.6v0.8c1-0.4,2-0.9,2.9-1.4L388,161.9z"/>
		<path class="st8" d="M168.9,133.5c-0.9,2.7-1.3,5.6-1,8.4c0,0,0.9,4.1,4.1,4.6c0,0-0.5-6.6,0.5-8.3s-0.5-3.9-0.5-3.9L168.9,133.5z
			"/>
		<path class="st98" d="M168.7,134.3c1,1.1,2.7,1.4,4.1,0.7v0.9l-1.4,1.8c0,0,0.1-1-1.3-1.2c-0.7-0.1-1.3-0.2-2-0.4
			C168.2,135.5,168.4,134.9,168.7,134.3z"/>
		<path class="st98" d="M170.1,137.6c-0.1,1.5-0.2,3-0.1,4.5c0.2,0.9,1.2,0.7,1.3-0.3c0-1,0.1-2,0.4-2.9c0.3-0.4,0.5-0.8,0.6-1.3
			c0,0,0.4,0.4-0.5,1.9l-0.2,2.3c0,0-0.1,1.2-1,1.1s-1-1.3-1-2C169.7,140.5,169.6,137.4,170.1,137.6z"/>
		<path class="st99" d="M183.5,193.6c0,0-3.4,3-4.9,4.6s-0.1,3.6,2.4,2.6c2.9-1.2,5.6-2.8,8.1-4.6l0.3,1c0,0,0.7,0.6,0.9-0.6
			s1-4.9-0.2-5.9C190.1,190.8,187.2,195.1,183.5,193.6z"/>
		<path class="st8" d="M184.8,173.4c0,0,1.2,14.4,0.3,17c-0.6,1.6-1.5,3.1-2.7,4.4c0,0-2.3,2.5,0.7,1.9c2.6-0.6,5-2,6.7-4.1
			c0.8-1.3-0.6-2.7,0.2-6s2.8-8.9,3-13.9L184.8,173.4z"/>
		<path class="st98" d="M185,175.5c0,0,5.2,0.9,7.9-0.9l0.3-2.1l-8.4,0.9L185,175.5z"/>
		<path class="st99" d="M172.8,188.2c-1.8,1.3-3.5,2.9-4.9,4.6c-1.3,1.8-0.1,3.6,2.4,2.6c2.9-1.2,5.6-2.7,8.1-4.6l0.3,1
			c0,0,0.7,0.6,0.9-0.6s1-4.9-0.2-5.9C179.4,185.3,176.6,189.6,172.8,188.2z"/>
		<path class="st8" d="M174.2,168c0,0,1.2,14.4,0.3,17c-0.6,1.6-1.5,3.1-2.7,4.4c0,0-2.3,2.5,0.7,1.9c2.6-0.6,5-2,6.7-4.1
			c0.8-1.3-0.6-2.7,0.2-6s2.8-8.9,3-13.9L174.2,168z"/>
		<path class="st98" d="M174.5,172.4c0,0,2.9,3.2,6.7,2.1l0.4-1.4l-7.3-2.8L174.5,172.4z"/>
		<path class="st100" d="M173.5,134.8c-1.4,1-2.3,2.6-2.5,4.3c-0.3,2.8-1.9,24.2-1.9,24.2c-0.5,1.2-0.4,2.5,0.4,3.5
			c1.3,1.8,11,10.2,23.3,6.5c0,0,6.9-2.2,7.3-7l-2.1-22.2L173.5,134.8z"/>
		<path class="st8" d="M195.1,106.4c0,0-4.2-1.4-6.4,4.9c-1,1.7-1.4,3.6-1.3,5.5c0,0,9.9,1.5,10.6-5.2
			C198,111.7,197.5,107.3,195.1,106.4z"/>
		<polygon class="st101" points="189.3,158.7 188.5,169.1 203.8,160.9 204,150.7 		"/>
		<path class="st98" d="M191.2,112.6l1.1,4.7l0.4-0.1C192.8,117.2,192.5,113.6,191.2,112.6z"/>
		<path class="st102" d="M174.4,88.2c0,0,0.7,4.1,0,6.7s-0.8,4.7,2.2,5.6l1.6,0.2c0,0-1.5-9.8-0.8-13.1
			C177.4,87.7,174.5,85.4,174.4,88.2z"/>
		<path class="st8" d="M193,147.1c-0.9,1.2-1.3,2.7-1.3,4.2c0,1.8-0.2,3.6-0.6,5.3c0,0,0.1,0.7,1.1,0.3s1-1.5,1.1-2.5
			c0-0.5,0.1-1,0.2-1.5c0.2,1.6,0.2,3.2,0,4.8c-0.4,2.2,1.9,1.4,3.1,0.4s2.7-6.2,1.5-9.9C198.1,148,194.6,148.5,193,147.1z"/>
		<path class="st98" d="M192.8,147.3c0,0,3.2,1.6,5.2,0.7c0.3,0.7,0.4,1.5,0.4,2.3c-0.4-0.9-1.4-1.3-2.3-1.1
			c-2.7,0.2-3.6,0.3-3.8,2.3c-0.1,1.7-0.5,3.3-1.2,4.8c0,0,0.5-4.5,0.4-5.4S192,147.7,192.8,147.3z"/>
		<path class="st102" d="M174.4,88.5c-0.6-3.6,1.4-7.1,4.8-8.5c0,0,4-2.2,6.7-1.5s7.4,2.3,8,5.8s-0.8,5.5,1,9.8s4,8.7,0.1,12.4
			c0,0-4-1.4-5.1-2.3c-2.1-1.9-1.6-3.5-1.8-5.4c-1.3-1.4-2.1-3.2-2.2-5.1v-2.8C186,90.7,177.5,92.9,174.4,88.5z"/>
		<path class="st103" d="M175.9,98c0,0-5,1.1-5.8,7.5s-1.5,15.4-2,18.1s-2.4,7.9,0,10.3s4.4,1,4.4,1l-0.6-0.7c0,0,1.7,3.7,4.7,4.6
			s4.2,0.8,7.4,4.2s6.6,3.2,8.7,2.1c-0.1,0.4-0.2,0.9-0.2,1.3c0,0.4-0.5,1.1,2.2,1.7s4.3-0.4,4.5-1.4s2.1-10.8,2.5-12.6s1-2.6,0-8.6
			c-1-5.4-2.5-10.8-4.4-16c0.6,1.6,0.2,3.3-0.9,4.6c-1.9,2-8.4,2.6-9.8,2.3c-2.3-0.6-8.8-2.3-9.9-12c-0.2-1.1,0-2.2,0.5-3.1
			C176.6,100.3,176.1,99.2,175.9,98z"/>
		<path class="st8" d="M188.3,99.1c-0.2,1.9,0.6,3.7,2.1,4.8c0,0,1.2,0.7,1.5,0.8c-2.7,3.6-5.2,7.4-7.4,11.3
			c-3.5-1.4-6.1-4.3-7.1-7.9c0,0-1.6-4.1-0.1-6.9c0,0,3.5,2.6,6.6,1.6s4.1-4.4,4.1-4.4L188.3,99.1z"/>
		<path class="st98" d="M177.2,101.3c-0.4,2.6-0.1,5.3,0.9,7.8c0,0,1.6,5,5.1,6.3l-1.8-1.5l0.3-1.1l-0.9,0.5c0,0-4-6.9-3.2-11.5
			L177.2,101.3z"/>
		<path class="st8" d="M175.4,89.6c-0.1,2.8,0.1,5.7,0.5,8.5c0.7,3.1,2.3,5.5,5.7,5.5c2.9,0,5.7-0.9,6.4-4.5
			c0.6,0.4,1.4,0.3,1.8-0.3c0,0,0.1-0.1,0.1-0.1c0.1-0.2,0.1-0.4,0-0.6c0,0-3.3-1.8-3.5-4.1c-0.1-1.3-0.1-2.5,0.1-3.8
			C186.5,90.2,179.3,92.8,175.4,89.6z"/>
		<path class="st104" d="M187.7,116.6c0-1.4,0.2-2.7,0.6-4c2.3-7.1,6.8-6.2,6.8-6.2c-0.8-1.9-3.2-1.7-3.2-1.7
			c-1.3,0.4-2.4,1.2-3.4,2.1c-3.4,3.2-2.1,8.3-5.3,8.5C183.1,115.4,186.9,117,187.7,116.6z"/>
		<path class="st98" d="M177.3,101.4c1.5,1.8,3.9,2.5,6.1,2c1.5-0.3,2.9-1.1,3.8-2.3c-0.7,1.9-2.6,3.1-4.6,3
			C179.5,104.1,178.6,102.9,177.3,101.4z"/>
		<path class="st98" d="M188.4,102.7c0.7,0.9,1.7,1.5,2.8,1.7c-2.4-1.5-1.9-5.3-1.9-5.3c-0.3,0.2-0.7,0.2-1,0c0,0.3-0.2-0.8-0.8,1.2
			c0,0,0,2.1-4.4,3.7C183.1,104.1,185,103.9,188.4,102.7z"/>
		<path class="st105" d="M193.6,154.9l-5.9,3.2l-0.7,10.4l1.5,0.6l0.7-10.4l4.4-2.3C193.6,156.3,193.8,155.1,193.6,154.9z"/>
		<polygon class="st105" points="198.5,152.3 198.3,153.9 204,150.7 202.7,150.1 		"/>
		<path class="st106" d="M173.4,107.2c0.5,1.9,0.3,3.9-0.4,5.7c-1.2,2.7-2.2,7.4,1.6,9.9c0,0-4.8-1.9-2.8-8.5
			C173.1,111,173.3,110.4,173.4,107.2z"/>
		<path class="st106" d="M177.2,101.3c0,0-1.9,8.4,6.3,14.3C183.4,115.7,173.7,110.6,177.2,101.3z"/>
		<path class="st106" d="M176.1,111c0,0,2.6,11.6,12,12.8C188.1,123.9,177.9,122.9,176.1,111z"/>
		<path class="st106" d="M178.5,111.1c0,0,1.5,10.3,10.7,8.9c0,0-7.9,0.8-10.1-8.1L178.5,111.1z"/>
		<path class="st106" d="M179.3,112.3c0,0,2.8,5.2,7,5.9c0,0-4.5-0.1-7.1-5.3L179.3,112.3z"/>
		<path class="st106" d="M173.4,122.1c0,0,1.5,4.9,1,7.2l-0.9-4.9c-0.1,2.8-0.5,5.6-1,8.4c-0.3,1-0.1,2.1,0.5,3c0,0-0.6,0-1-1
			c0-1.2,0.1-2.3,0.3-3.5c0.4-2.1,1.1-9,0.7-9.7L173.4,122.1z"/>
		<path class="st106" d="M177.8,128.1c0,0,5.7,10,13.4,5.1C191.2,133.2,185.1,136.9,177.8,128.1z"/>
		<path class="st106" d="M193.6,118.3c0,0,1.4,9.7,1.5,11.4s-1.9,14.6-1.9,15.8s0.7,2.2,2.9,2.3s2.2-0.2,3-1.1c0,0-0.2,1.8-3,1.5
			c0,0-3.1,0.1-3.6-1.2c0,0-0.3-0.5,0.3-2.9c0.9-4.7,1.5-9.5,1.9-14.3C194.7,129.9,192.6,118.7,193.6,118.3z"/>
		<path class="st106" d="M194,125.2c0,0,0.5,5.7-3.4,6.8c0,0,3.4-1,3.7-5.5L194,125.2z"/>
		<path class="st106" d="M195.5,124.2c0,0,2.9,2.8,4.3-0.4C199.8,123.8,198.8,128,195.5,124.2z"/>
		<path class="st106" d="M199.8,124.6c0,0-0.9,4.1-3.5,2.7c0,0,2.2,0.8,3.4-3.3L199.8,124.6z"/>
		<path class="st106" d="M200.2,132.4c0,0-1.1,4.1-4.2,4.7c1.5-0.2,2.8-1.1,3.4-2.4c0,0-1,4.1-3.5,4.2
			C195.9,138.9,199.4,139,200.2,132.4z"/>
		<path class="st106" d="M179.8,138.4c1.7,1,3,2.3,4,4c2,3.1,6.8,3.4,6.8,3.4c-3.1,0.3-6.1-1.2-7.7-3.8c-2.8-4.5-3.5-3.7-3.5-3.7"/>
		<path class="st106" d="M169.2,120.2c0,0-0.2,4.2,2.9,4.4C172.1,124.6,170,124,169.2,120.2z"/>
		<path class="st98" d="M175.9,93.4c0,0,2.6,3,8.9,2.1C184.8,95.5,177.7,97.6,175.9,93.4z"/>
		<path class="st98" d="M178.4,96.3l-0.1,2.6c0,0,0.5,0.9,2.1,0.7l0.2-0.3c-0.7,0.1-1.4-0.1-1.9-0.5
			C178.7,98.7,178.9,95.5,178.4,96.3z"/>
		<path class="st98" d="M192.8,151.3c0.1,0.6,0.3,1.2,0.6,1.7c0.5,1.1,0.1,4.2,0.1,4.2s-0.5,2,0.6,1.9c0,0-0.7-0.1-0.3-1.9
			S194.3,152.4,192.8,151.3z"/>
		<polygon class="st98" points="190.7,114 192.1,115.5 191.9,114.5 		"/>
		<path class="st98" d="M195.1,106.4c0,0-6.5-0.9-7.4,10.1c1.4,0,2.9-0.2,4.3-0.5l-3.6-0.1C188.3,116.1,188.4,107.5,195.1,106.4z"/>
		<polygon class="st98" points="179.3,103 179.6,104.6 180.1,104.7 180.3,103.7 		"/>
		<polygon class="st101" points="193.6,155.9 188.8,158.5 188.2,168.9 188.6,158.4 193.6,155.7 		"/>
		<polygon class="st101" points="193.3,155.4 188.3,158.3 187.7,168.7 187.3,168.5 188,158.1 193.6,155.1 		"/>
		<polygon class="st101" points="198.6,152.5 202.9,150.4 203.2,150.5 198.4,152.9 		"/>
		<polygon class="st101" points="198.6,153.2 203.4,150.7 198.5,153.5 		"/>
		<path class="st107" d="M175,147.7c0,0,1.4,17.8,7.5,19.7C178.2,161.7,175.6,154.8,175,147.7z"/>
		<path class="st108" d="M172.8,188.2c0,0-6.2,4.1-5.5,6.5s5.3,0.8,11.1-3.9c0,0-7.6,6-10.4,4.1C168,194.9,166,193.4,172.8,188.2z"
			/>
		<path class="st108" d="M183.4,193.7c0,0-6.2,4.1-5.5,6.5s5.3,0.8,11.1-3.9c0,0-7.9,5.7-10.4,4.1
			C178.6,200.5,176.7,199.2,183.4,193.7z"/>
		<path class="st109" d="M409.1,275c-0.9,2.7-1.3,5.6-1,8.4c0,0,0.9,4.1,4.1,4.6c0,0-0.5-6.6,0.5-8.3s-0.5-3.9-0.5-3.9L409.1,275z"
			/>
		<path class="st98" d="M408.8,275.8c1,1.1,2.7,1.4,4.1,0.7v0.9l-1.4,1.8c0,0,0.1-1-1.3-1.2c-0.7-0.1-1.3-0.2-2-0.4
			C408.4,277,408.6,276.4,408.8,275.8z"/>
		<path class="st110" d="M410.3,279.1c-0.1,1.5-0.2,3-0.1,4.5c0.2,0.9,1.2,0.7,1.3-0.3c0-1,0.1-2,0.4-2.9c0.3-0.4,0.5-0.8,0.6-1.3
			c0,0,0.4,0.4-0.5,1.9l-0.2,2.3c0,0-0.1,1.2-1,1.1s-1-1.3-1-2C409.8,282,409.8,278.9,410.3,279.1z"/>
		<path class="st86" d="M423.6,335.1c0,0-3.4,3-4.9,4.6s-0.1,3.6,2.4,2.6c2.9-1.2,5.6-2.7,8.1-4.6l0.3,1c0,0,0.7,0.6,0.9-0.6
			s1-4.9-0.2-5.9C430.3,332.2,427.4,336.5,423.6,335.1z"/>
		<path class="st109" d="M425,314.9c0,0,1.2,14.4,0.3,17c-0.6,1.6-1.5,3.1-2.7,4.4c0,0-2.3,2.5,0.7,1.9c2.6-0.6,5-2,6.7-4.1
			c0.8-1.3-0.6-2.7,0.2-6s2.8-8.9,3-13.9L425,314.9z"/>
		<path class="st110" d="M425.2,317c0,0,5.2,0.9,7.9-0.9l0.3-2.1l-8.4,0.9L425.2,317z"/>
		<path class="st86" d="M413,329.6c-1.8,1.3-3.5,2.9-4.9,4.6c-1.3,1.8-0.1,3.6,2.4,2.6c2.9-1.2,5.6-2.7,8.1-4.6l0.3,1
			c0,0,0.7,0.6,0.9-0.6s1-4.9-0.2-5.9C419.6,326.8,416.8,331.1,413,329.6z"/>
		<path class="st109" d="M414.4,309.4c0,0,1.2,14.4,0.3,17c-0.6,1.6-1.5,3.1-2.7,4.4c0,0-2.3,2.5,0.7,1.9c2.6-0.6,5-2,6.7-4.1
			c0.8-1.2-0.6-2.7,0.2-6s2.8-8.9,3-13.9L414.4,309.4z"/>
		<path class="st110" d="M414.7,313.9c0,0,2.9,3.2,6.7,2.1l0.4-1.4l-7.3-2.8L414.7,313.9z"/>
		<path class="st111" d="M413.6,276.3c-1.4,1-2.3,2.6-2.5,4.3c-0.3,2.8-1.9,24.2-1.9,24.2c-0.5,1.2-0.4,2.5,0.4,3.5
			c1.2,1.8,11,10.2,23.3,6.5c0,0,6.9-2.2,7.3-7l-2.1-22.2L413.6,276.3z"/>
		<path class="st109" d="M435.3,247.9c0,0-4.2-1.4-6.4,4.9c-1,1.7-1.4,3.6-1.3,5.5c0,0,9.9,1.5,10.6-5.2
			C438.2,253.2,437.7,248.7,435.3,247.9z"/>
		<polygon class="st101" points="429.4,300.1 428.7,310.5 444,302.3 444.2,292.2 		"/>
		<path class="st110" d="M431.4,254.1l1.1,4.7l0.4-0.1C433,258.7,432.7,255,431.4,254.1z"/>
		<path class="st63" d="M414.6,229.7c0,0,0.7,4.1,0,6.7s-0.8,4.7,2.2,5.6l1.6,0.2c0,0-1.5-9.8-0.8-13.1
			C417.6,229.1,414.6,226.9,414.6,229.7z"/>
		<path class="st109" d="M433.2,288.5c-0.9,1.2-1.3,2.7-1.3,4.2c0,1.8-0.2,3.6-0.6,5.3c0,0,0.1,0.7,1.1,0.3s1-1.5,1.1-2.5
			c0-0.5,0.1-1,0.2-1.5c0.2,1.6,0.2,3.2,0,4.8c-0.4,2.2,1.9,1.4,3.1,0.4s2.7-6.2,1.5-9.9C438.2,289.5,434.8,289.9,433.2,288.5z"/>
		<path class="st110" d="M433,288.7c0,0,3.2,1.6,5.2,0.7c0.3,0.7,0.4,1.5,0.4,2.3c-0.4-0.9-1.4-1.3-2.3-1.1
			c-2.7,0.2-3.6,0.3-3.8,2.3c-0.1,1.7-0.5,3.3-1.2,4.8c0,0,0.5-4.5,0.4-5.4S432.2,289.1,433,288.7z"/>
		<path class="st63" d="M414.6,230c-0.6-3.6,1.4-7.1,4.8-8.5c0,0,4-2.2,6.7-1.5s7.4,2.3,8,5.8s-0.8,5.5,1,9.8s4,8.7,0.1,12.4
			c0,0-4-1.4-5.1-2.3c-2.1-1.9-1.6-3.5-1.8-5.4c-1.3-1.4-2.1-3.2-2.2-5.1v-2.8C426.2,232.2,417.7,234.4,414.6,230z"/>
		<path class="st112" d="M416.1,239.5c0,0-5,1.1-5.8,7.5s-1.5,15.4-2,18.1s-2.4,7.9,0,10.3s4.4,1,4.4,1l-0.6-0.7
			c0,0,1.7,3.7,4.7,4.6s4.2,0.8,7.4,4.2s6.6,3.2,8.7,2.1c-0.1,0.4-0.2,0.9-0.2,1.3c0,0.4-0.5,1.1,2.2,1.7s4.3-0.4,4.5-1.4
			s2.1-10.8,2.5-12.6s1-2.6,0-8.6c-1-5.4-2.5-10.8-4.4-16c0.6,1.6,0.2,3.3-0.9,4.6c-1.9,2-8.4,2.6-9.8,2.3c-2.3-0.6-8.8-2.3-9.9-12
			c-0.2-1.1,0-2.2,0.5-3.1C416.8,241.8,416.4,240.7,416.1,239.5z"/>
		<path class="st109" d="M428.5,240.6c-0.2,1.9,0.6,3.7,2.1,4.8c0,0,1.2,0.7,1.5,0.8c-2.7,3.6-5.2,7.4-7.4,11.3
			c-3.5-1.4-6.1-4.3-7.1-7.9c0,0-1.6-4.1-0.1-6.9c0,0,3.5,2.6,6.6,1.6s4.1-4.4,4.1-4.4L428.5,240.6z"/>
		<path class="st110" d="M417.4,242.8c-0.4,2.6-0.1,5.3,0.9,7.8c0,0,1.6,5,5.1,6.3l-1.8-1.5l0.3-1.1l-0.9,0.5c0,0-4-6.9-3.2-11.5
			L417.4,242.8z"/>
		<path class="st109" d="M415.6,231.1c-0.1,2.8,0.1,5.7,0.5,8.5c0.7,3.1,2.3,5.5,5.7,5.5c2.9,0,5.7-0.9,6.4-4.5
			c0.6,0.4,1.4,0.3,1.8-0.3c0,0,0.1-0.1,0.1-0.1c0.1-0.2,0.1-0.4,0-0.6c0,0-3.3-1.8-3.5-4.1c-0.1-1.3-0.1-2.5,0.1-3.8
			C426.7,231.7,419.5,234.3,415.6,231.1z"/>
		<path class="st113" d="M427.8,258.1c0-1.4,0.2-2.7,0.6-4c2.3-7.1,6.8-6.2,6.8-6.2c-0.8-1.9-3.2-1.7-3.2-1.7
			c-1.3,0.4-2.4,1.2-3.4,2.1c-3.4,3.2-2.1,8.3-5.3,8.5C423.3,256.9,427.1,258.4,427.8,258.1z"/>
		<path class="st110" d="M417.5,242.8c1.5,1.8,3.9,2.5,6.1,2c1.5-0.3,2.9-1.1,3.8-2.3c-0.7,1.9-2.6,3.1-4.6,3
			C419.7,245.6,418.7,244.4,417.5,242.8z"/>
		<path class="st110" d="M428.5,244.2c0.7,0.9,1.7,1.5,2.8,1.7c-2.4-1.5-1.9-5.3-1.9-5.3c-0.3,0.2-0.7,0.2-1,0
			c0,0.3-0.2-0.8-0.8,1.2c0,0,0,2.1-4.4,3.7C425,245.3,426.8,244.8,428.5,244.2z"/>
		<path class="st105" d="M433.8,296.3l-5.9,3.2l-0.7,10.4l1.5,0.6l0.7-10.4l4.4-2.3C433.9,297.3,433.9,296.8,433.8,296.3z"/>
		<polygon class="st105" points="438.6,293.8 438.4,295.3 444.2,292.2 442.9,291.5 		"/>
		<path class="st114" d="M413.6,248.6c0.5,1.9,0.3,3.9-0.4,5.7c-1.2,2.7-2.2,7.4,1.6,9.9c0,0-4.8-1.9-2.8-8.5
			C413.3,252.5,413.5,251.9,413.6,248.6z"/>
		<path class="st114" d="M417.4,242.8c0,0-1.9,8.4,6.3,14.3C423.6,257.1,413.9,252.1,417.4,242.8z"/>
		<path class="st114" d="M416.3,252.5c0,0,2.6,11.6,12,12.8C428.3,265.3,418.1,264.4,416.3,252.5z"/>
		<path class="st114" d="M418.7,252.6c0,0,1.5,10.3,10.7,8.9c0,0-7.9,0.8-10.1-8.1L418.7,252.6z"/>
		<path class="st114" d="M419.5,253.8c0,0,2.8,5.2,7,5.9c0,0-4.5-0.1-7.1-5.3L419.5,253.8z"/>
		<path class="st114" d="M413.6,263.6c0,0,1.5,4.9,1,7.2l-0.9-4.9c-0.1,2.8-0.5,5.6-1,8.4c-0.3,1-0.1,2.1,0.5,3c0,0-0.6,0-1-1
			c0-1.2,0.1-2.3,0.3-3.5c0.4-2,1.1-9,0.7-9.7L413.6,263.6z"/>
		<path class="st114" d="M418,269.6c0,0,5.7,10,13.4,5.1C431.4,274.6,425.3,278.3,418,269.6z"/>
		<path class="st114" d="M433.7,259.7c0,0,1.4,9.7,1.5,11.4s-1.9,14.6-1.9,15.8s0.7,2.2,2.9,2.3s2.2-0.2,3-1.1c0,0-0.2,1.8-3,1.5
			c0,0-3.1,0.1-3.6-1.2c0,0-0.3-0.5,0.3-2.9c0.9-4.7,1.5-9.5,1.9-14.3C434.9,271.3,432.8,260.2,433.7,259.7z"/>
		<path class="st114" d="M434.2,266.7c0,0,2,5.8-3.4,6.8c0,0,3.4-1,3.7-5.5L434.2,266.7z"/>
		<path class="st114" d="M435.6,265.7c0,0,2.9,2.8,4.3-0.4C439.9,265.2,439,269.5,435.6,265.7z"/>
		<path class="st114" d="M440,266c0,0-0.9,4.1-3.5,2.7c0,0,2.2,0.8,3.4-3.3L440,266z"/>
		<path class="st114" d="M440.4,273.8c0,0-1.1,4.1-4.2,4.7c1.5-0.2,2.8-1.1,3.4-2.4c0,0-1,4.1-3.5,4.2
			C436.1,280.4,439.6,280.5,440.4,273.8z"/>
		<path class="st114" d="M420,279.9c1.7,1,3,2.3,4,4c2,3.1,6.8,3.4,6.8,3.4c-3.1,0.3-6.1-1.2-7.7-3.8c-2.8-4.5-3.5-3.7-3.5-3.7"/>
		<path class="st114" d="M409.3,261.7c0,0-0.2,4.2,2.9,4.4C412.3,266,410.2,265.5,409.3,261.7z"/>
		<path class="st110" d="M416.1,234.9c0,0,2.6,3,8.9,2.1C425,237,417.8,239,416.1,234.9z"/>
		<path class="st110" d="M418.6,237.7l-0.1,2.6c0,0,0.5,0.9,2.1,0.7l0.2-0.3c-0.7,0.1-1.4-0.1-1.9-0.5
			C418.9,240.1,419.1,237,418.6,237.7z"/>
		<path class="st110" d="M433,292.7c0.1,0.6,0.3,1.2,0.6,1.7c0.5,1.1,0.1,4.2,0.1,4.2s-0.5,2,0.6,1.9c0,0-0.7-0.1-0.3-1.9
			S434.5,293.8,433,292.7z"/>
		<polygon class="st110" points="430.9,255.5 432.3,257 432.1,256 		"/>
		<path class="st110" d="M435.3,247.9c0,0-6.5-0.9-7.4,10.1c1.4,0,2.9-0.2,4.3-0.5l-3.6-0.1C428.5,257.5,428.6,248.9,435.3,247.9z"
			/>
		<polygon class="st110" points="419.5,244.5 419.8,246.1 420.3,246.2 420.5,245.2 		"/>
		<polygon class="st101" points="433.7,297.4 429,300 428.4,310.4 428.8,299.8 433.8,297.2 		"/>
		<polygon class="st101" points="433.5,296.9 428.5,299.8 427.9,310.2 427.5,309.9 428.2,299.6 433.7,296.6 		"/>
		<polygon class="st101" points="438.7,294 443.1,291.8 443.4,292 438.6,294.4 		"/>
		<polygon class="st101" points="438.8,294.6 443.6,292.2 438.7,295 		"/>
		<path class="st115" d="M415.2,289.1c0,0,1.4,17.8,7.5,19.7C418.3,303.1,415.7,296.3,415.2,289.1z"/>
		<path class="st87" d="M413,329.6c0,0-6.2,4.1-5.5,6.5s5.3,0.8,11.1-3.9c0,0-7.6,6-10.4,4.1C408.2,336.4,406.1,334.9,413,329.6z"/>
		<path class="st87" d="M423.6,335.2c0,0-6.2,4.1-5.5,6.5s5.3,0.8,11.1-3.9c0,0-7.9,5.7-10.4,4.1
			C418.8,341.9,416.9,340.6,423.6,335.2z"/>
		<g>
			<defs>
				<polygon id="SVGID_2_" points="220.1,482.4 182.1,480.4 149.4,447 170.8,381.7 205.4,370.4 226.8,402.4 234.8,473.7 				"/>
			</defs>
			<clipPath id="SVGID_3_">
				<use xlink:href="#SVGID_2_"  style="overflow:visible;"/>
			</clipPath>
			<g class="st116">
				<path class="st6" d="M218.8,448.1c0,0,0.8,0.1,0.9,0.5c0.1,0.9,0.1,1.7,0,2.6c-0.1,0.5-0.7,0.6-0.7,0.6l-0.2-0.5V448.1z"/>
				<path class="st7" d="M218.9,448.3c0,0,0.5,0.2,0.4,0.4c-0.1,0.1-0.2,0.2-0.4,0.3V448.3z"/>
				<path class="st8" d="M218.7,428.6c-0.4,2.8-0.5,5.7-0.3,8.6c0.3,3.7,0.7,13.8,0.7,14.5c0.9,0.8,1.5,1.9,1.7,3.1
					c0.3,2.2,0.5,4.2-0.3,4.6s-1.1,0.3-1.1,0.3s0.4,3.7-2.7,3.4l-1.8-9.8l0.1-24L218.7,428.6z"/>
				<path class="st7" d="M219.1,451.6c-0.8,0.7-1.8,1.1-2.9,0.9l-1.4-0.3l-0.1-2.6c0,0,0.3,0.8,2.2,0.7c0.9,0,1.7-0.5,2-1.4
					c0,0,0.1-0.1,0.2,0.3C219.3,450,219.3,450.8,219.1,451.6z"/>
				<path class="st9" d="M216,453.9c0,0,0.7,2.1,2.1,2.3c0.6,0.2,1,0.8,1,1.5l0.2,2.1c0,0-0.8-0.3-0.8-2.4c0,0,0-0.5-1-0.8
					C216.4,456.2,215.8,455,216,453.9z"/>
				<path class="st10" d="M198.8,517.2c0,0,5,6.8,5.3,7.8s-0.1,1.7-2.5,2.5s-10.5-7.8-10.8-8.6s0.7-2.5,0.7-2.5
					S195.3,519.9,198.8,517.2z"/>
				<path class="st10" d="M212.2,511.2c0,0,5.5,6.1,5.5,7c-0.3,1.4-1.5,2.5-2.9,2.6c-1.8,0.2-10-7.7-10.3-8.3s0.7-3,0.7-3
					L212.2,511.2z"/>
				<path class="st53" d="M217.1,465.4c0,0,0.8,22.4,0.8,24.4s-4.6,17.2-5.2,19.8c0.1,1.1-0.5,2.1-1.5,2.4c-1.5,0.4-5.9,0.9-7.1-3
					c0,0,4.2-15,4.4-18.3s-0.6-9.1-2.2-14.5c0,0-0.9,17.7-1.6,20.3s-5.5,20.3-5.5,20.3s-0.6,3-4.8,1.9s-3.3-4.1-3.3-4.1
					s4.2-13.7,3.5-18.9c0,0-0.6-32.8-0.3-36c0,0,17.1-4.4,21.4-7.2C215.6,452.3,217.1,455.4,217.1,465.4z"/>
				<path class="st12" d="M215.3,448.6c0.4,1.4,0.5,2.9,0.3,4.4c0,0-5.3,7.8-16.9,5.1l-2.6-6.4C196.1,451.9,206.9,456,215.3,448.6z"
					/>
				<path class="st8" d="M208.2,414.2c0.7,1.6,1,3.4,0.9,5.1l-0.8,5c0,0-1.4-3.7-2.9-5.2s-4.4-3.6-4.9-4.2s0.6-3.8,0.6-3.8l3.1-2
					L208.2,414.2z"/>
				<path class="st117" d="M199.3,410.4c0.1,0.2,0.4,0.3,0.6,0.3c0,0-0.6,2-0.3,2.7c0,0,2.9,3.8,4.9,4.7s3.7,6,3.7,6
					s0.9-4.9,0.9-5.7l-0.9-3.2l2.4-1c1.1-2.3,2-4.7,2.8-7.1c0,0,5.1,0,5.3,7.4c-0.1,0.3,0.3,9,0.3,9s0.8-0.4,1,1.1l-0.2,3.3
					c-0.7,1.3-2,2.2-3.5,2.4c0,0,0.3,14.1-0.8,18.7c0,0-7.1,10.7-21.2,3.7c-1.6-2.3-2.5-4.9-2.6-7.7c0-4.2,6.7-32.1,6.7-32.1
					L199.3,410.4z"/>
				<path class="st14" d="M200.8,454.2c-0.2-0.1-0.3,0-0.3,0.2s-0.2,0.3-0.3,0.5c-0.2,0.3-0.3,0.7-0.3,1.1c-0.1,0.3-0.2,0.8-0.3,1.1
					l-0.4,1.2c-0.4,0.8-1.1,1.5-1.9,1.9c-0.8,0.4-1.8,0.6-2.7,0.5c-1.8-0.1-3.4-1-4.5-2.4c-0.5-0.7-0.9-1.4-1.3-2.1
					c-0.3-0.8-0.6-1.6-0.8-2.4h0.1c0.6,1.5,1.4,2.8,2.5,4c1.1,1.2,2.5,1.9,4.1,2.1c1.6,0.1,3.1-0.6,4-2c0.4-0.7,0.5-1.5,0.9-2.2
					c0.2-0.3,0.3-0.7,0.5-1s0.2-0.3,0.3-0.5S200.6,453.9,200.8,454.2L200.8,454.2z"/>
				<ellipse class="st118" cx="208.9" cy="431.4" rx="0.6" ry="0.9"/>
				<path class="st14" d="M194.4,449.9c0,0,6.4,3.1,6.9,4c0.1,0.7,0.2,1.3,0.2,2c0.1,5.2-0.3,18.4-0.9,19.6
					c-1.1,2.2-3.7,0.9-4.9,0.4l-6.8-3.9c0,0-1.7-0.8-1.6-5.2c0.1-4.2,0.5-11.8,0.5-11.8s-0.8-1.2-0.3-4.4S192.4,448.2,194.4,449.9z"
					/>
				<path class="st119" d="M200.8,454.2c-0.6-0.3-1.3,0-1.6,0.6c-0.1,0.2-0.1,0.5-0.1,0.7c0,2-0.2,3.7-0.9,4.5s-7,3.6-10.3-5
					c0.4,2.5,2,4.6,4.2,5.8c0,0,4.1,2,6.6-0.9c0.5-0.9,0.8-2,0.7-3.1C199.3,454.8,199.6,454.3,200.8,454.2z"/>
				<path class="st8" d="M188.5,438.1c0,0-1.3,4.1,0.3,13.7c0,0,3.2,12.6,2.8,14.6c1.6,0.7,3.4,0.3,4.5-1c0,0-1.9-14.1-1.7-18.9
					s0.2-7.2,0.2-7.2S193.1,435.5,188.5,438.1z"/>
				<path class="st22" d="M208.4,415.6c0,0,0.9,1.4,0.2,5.9l0.8-2.4c-0.1-1.3-0.3-2.5-0.6-3.8l-0.3-0.9l-0.4,0.5L208.4,415.6z"/>
				<path class="st117" d="M196.8,421.9c1.7,1.4,1.4,3,1.6,6.4s-3.1,12.5-3.1,12.5l-1.6,0.3c-5.7,0.4-6.8-3.1-6.8-3.1s0.4-4.1,1-4.2
					c0.4-2.1,0.8-4.5,0.9-5.3c0.3-3.5-0.3-5.4,1.3-7.8s7.4-6.3,7.4-6.3s0.4-3,2.4-3.8l-0.2,1.8"/>
				<path class="st8" d="M196,465.2c0,0,1.3,0.7,2,3.3c0.3,0.9,0.4,1.8,0.4,2.7c0,0.7-0.1,1.5-0.3,2.2c-0.2,0.4-1.4,0.8-1.6-0.3
					s0.3-3-0.6-3c0,1.5-0.4,2.5-0.3,3.4c0.1,0.5,0.9,3,0.7,3.6s-0.7,1.6-2.4,0.3c-1.4-1.2-2.4-2.8-3-4.6c-0.4-1.7,0.4-5,0.7-6.8
					C191.7,466.1,193.7,467.8,196,465.2z"/>
				<path class="st14" d="M199.6,456.1c1.1-4.3,2.6-8.4,4.3-12.5c3.3-7.7,10.9-29.6,9-33.7l0.3-1.7c0,0,2.3,1.9,0.3,10.6
					s-9.1,27.6-9.8,29.5s-2.4,7.1-2.8,9S199.1,458,199.6,456.1z"/>
				<path class="st22" d="M197.7,423.4c0.6,1.4,0.8,3,0.8,4.5c0,1.6-0.2,3.1-0.6,4.6c-0.9,2.9-2.3,8.3-2.7,8.4s-0.7,0.1-0.6-0.6
					c0.5,0.1,1.5-3.1,1.3-3.8c0.1-0.2,0-0.2,0.1-0.4c0.5-1.4,0.8-2.8,1.1-3.9c0.4-1.4,0.7-2.9,0.8-4.4
					C198,426.3,198,424.9,197.7,423.4z"/>
				<path class="st19" d="M211.2,452.9c0,0,0.8,1.4,0.1,4.3c-1.3,0.8-2.7,1.4-4.2,1.7l-0.1-4.2C207.2,454.7,210.2,453.9,211.2,452.9
					z"/>
				<path class="st119" d="M200.6,453.2c0,0-1,2.2-0.7,2.8s1,1.2,1.6-1c0,0,0.1,0,0.1,0.5c0,0-0.3,1.2-1,1.3s-1.2-0.8-0.7-2.1
					c0.2-0.5,0.4-1,0.5-1.5l-5.7-3.1v-0.3C194.4,449.8,199.9,452.6,200.6,453.2z"/>
				<path class="st22" d="M208.3,424.3c0,0-0.3-8.7,4.9-6.2C213.2,418.2,209.2,417,208.3,424.3z"/>
				<polygon class="st22" points="210.6,414.1 213.1,418.1 212,417.8 210.2,414.3 				"/>
				<path class="st120" d="M211.1,459.1l-1.7,7.2l-4.2,2.8l2.6-0.7c-1.1,1.9-1.6,4.1-1.5,6.3v2c0,0-0.3-6.5,3.7-9.4L211.1,459.1z"/>
				<path class="st8" d="M199.8,412.5l0.2-1.8c-0.6,0-0.8-0.3-1.5-0.8c-0.9-0.7-1.5-2.4-1.3-4.5s1.9-1.6,1.9-1.6s0.3-7.3,0.2-7.7
					c-0.2-1.4,0.3-2.8,1.3-3.7c6.3-3.7,12,4.1,13.1,5.1s0.7,4.4,0.7,4.4c0.1,0.5,0,0.9-0.1,1.4c-0.2,0.4-1.3,1.4-0.5,2.3
					c1,1-1.3,7.3-2,8.2s-3.3,1.5-3.5,1.6"/>
				<path class="st121" d="M203.9,389.1c-1.2,0.3-1.3,1-1.6,1.3c-1-0.1-2,0.6-2.2,1.6c-0.9,0-1.7,0.4-2.2,1.1c-0.2,0.6-0.2,1.4,0,2
					c-1,0.3-1.5,1.4-1.1,2.3c0,0,0,0,0,0.1c-0.7,0.7-0.8,1.7-0.4,2.6c-0.6,1-0.5,2.2,0.3,3.1c-0.3,0.8-0.1,1.6,0.5,2.2
					c0,0,0.6-2.2,2.4-1c0.7,0.8,1,1.8,1,2.8l0.1,1.6c0.6,0.1,1.3-0.3,1.4-0.9c0,0,0,0,0-0.1c0.2-1.1,0.1-1.1,0.5-1.4
					c0.7-0.5,1.1-1,1-2.5c0,0,2.3-1,1.6-2.7l-0.7-1.3c0.4,0.7,1.2,1,2,0.8c0,0,1.1,1.7,2.9,0.1c0.8,0.5,1.8,0.2,2.3-0.6
					c0-0.1,0.1-0.1,0.1-0.2c0,0,1.7,0.8,2.3-1.3c0,0,1.6,0.1,1.2-2.1c0,0,0.3-1.1-1.7-1.7c0,0,0.3-1.7-2.4-2.2
					c-0.2-1-1.1-1.7-2.2-1.7c-0.1-1-0.9-1.7-1.9-1.6c-0.3,0-0.5,0.1-0.7,0.2C205.7,389.1,204.8,389,203.9,389.1z"/>
				<path class="st9" d="M214.1,403.2c-0.8,0.8-1.9,1.5-3,1.8c-1.3,0.6-2.6,1.1-4,1.5c-2.4,0.3-3-0.3-3-0.3s1.1,1.2,3.8,0.7
					c2-0.2,3.8-1.1,5.3-2.4C213.6,404.2,213.9,403.7,214.1,403.2z"/>
				<path class="st9" d="M203.1,417.2c0,0-3.1-2.3-4-3.8l0.3-0.7v-2.1c0.4,0.2,0.8,0.1,1.1-0.2c0.2-0.1,0.4-0.6,0.7-0.7
					c0,1.4,0.2,2.8,0.4,4.2l4.7,5.7L203.1,417.2z"/>
				<path class="st9" d="M200.2,406.3c0,0-0.8-1.6-1.7-1.1s-0.4,3.5,0.3,4.1c0.4,0.4,1,0.4,1.3,0c0.2-0.2,0.3-0.4,0.3-0.6
					c0,0,0-0.7-0.6-0.8s0,0.9-0.5,0.7c-0.6-0.6-0.9-1.5-0.7-2.4c0.3-0.6,0.3,1.3,0.4,1.5s1,0,0.7-0.6
					C199.4,406.3,199.8,406.1,200.2,406.3z"/>
				<path class="st9" d="M211.4,405.7v4.4c-0.7,0.6-1.6,0.7-2.4,0.3l0.4-0.5l1.2-0.1l0.3-3.9L211.4,405.7z"/>
				<path class="st22" d="M186.9,438.1c0,0,1.8,3.9,8.3,2.8c0.2-0.1,0.4-0.4,0.4-0.7c0,0-6,1.1-8.5-3.3
					C186.9,437.3,186.8,437.7,186.9,438.1z"/>
				<path class="st22" d="M191.6,436.5c-0.8-0.2-1.5-0.6-2.2-1.1c-0.6-0.5-1.1-1-1.5-1.7c1.7,1.6,3.9,2.6,6.2,2.7
					c0.9,0.1,1.7-0.1,2.5-0.5l-0.3,0.6C196.3,436.4,195.5,437.4,191.6,436.5z"/>
				<path class="st22" d="M197.7,413.2c0,0-0.1,1.6,1.6,4.4s2.4,4.3,2.4,4.3s2.4-3.7,3.4-3.4s1.8,2.1,1.8,2.1l1.4,3.6
					c0,0-2.9-6.2-3.8-4.9s-3,4.3-3,4.3s-3.5-6.7-3.8-8C197.3,414.8,197.1,413.9,197.7,413.2z"/>
				<path class="st22" d="M199.3,411.4c-0.1,0.7,0.1,1.4,0.5,2c0.2,0.3,0.4,0.5,0.6,0.8l0.7,0.7l0,0c1,0.7,2,1.4,3,2.2l1.3,1.3
					c0.4,0.5,0.8,1,1,1.6c-0.4-0.5-0.8-0.9-1.3-1.2c-0.4-0.3-1-0.7-1.5-1l-3-2.1l0,0l-0.8-0.8c-0.2-0.3-0.4-0.6-0.6-0.9
					C198.9,413.2,198.9,412.2,199.3,411.4z"/>
				<path class="st9" d="M208,416.1c0-0.1-4.4,0.3-5.9-5.1c0.7,1.1,1.6,2.1,2.6,2.9c1.3,1,2.2,1.8,3.5,1.4c0.3,0.5,0.5,1,0.5,1.6
					C208.5,416.6,208.3,416.3,208,416.1z"/>
				<path class="st22" d="M215.9,414.9l0.4,15.4c1.5-0.2,2.8-1.1,3.5-2.4c0,0-1.9,1.8-3,1.6C216.7,429.5,216.5,417.4,215.9,414.9z"
					/>
				<path class="st22" d="M216.3,425c0,0,1.3,0.3,2.7-1.6c-0.3,1.2-1.3,2.2-2.5,2.4L216.3,425z"/>
				<path class="st22" d="M211.5,426.5c1.5-0.3,2.8-1.2,3.7-2.4c0.2,0.5,0,1-0.5,1.3c-0.9,0.9-2.1,1.5-3.4,1.8L211.5,426.5z"/>
				<path class="st22" d="M211.5,433.4c1.4,0.1,2.6-0.7,3.1-2C214.6,431.5,214.6,434.5,211.5,433.4z"/>
				<ellipse class="st118" cx="208.9" cy="440" rx="0.6" ry="0.9"/>
				<ellipse class="st118" cx="209.5" cy="447.8" rx="0.6" ry="0.9"/>
				<ellipse class="st118" cx="208.2" cy="425.4" rx="0.6" ry="0.9"/>
				<path class="st53" d="M213.8,451c0,0,0.6,3.3,0.2,4.4l1.3-1.1l-0.3-4.4L213.8,451z"/>
				<polygon class="st53" points="203.3,455.1 203.4,459 202,458.8 202,455 				"/>
				<path class="st9" d="M207.3,416c0,0,0.8,2.7-0.5,4.3l1.5,3.7c0-1.1,0.1-2.2,0.3-3.3c0.3-1.4,0.3-5-0.4-5.4
					C208,415.7,207.7,415.9,207.3,416z"/>
				<path class="st9" d="M217,458.7l0.1,4.3c0.3,0.1,0.6,0.1,0.8-0.1c0,0-0.8,0.4-0.7-1.9C217.5,458.7,217.2,458.2,217,458.7z"/>
				<path class="st9" d="M188.2,439.6c0,0,1.7,1.7,6.4,1.3c-0.2,3-0.2,5.9-0.1,8.9c0,0-0.8-6.5-0.6-7.3c-1.6,0.3-3.3,0.1-4.8-0.4
					c0,0-0.8,6.2-0.4,8.9C188.7,451,187.5,444,188.2,439.6z"/>
				<path class="st9" d="M218.7,429.3l-0.2,1.2c-1,0.4-1.7,1.4-1.6,2.5c0.1,1.9-0.8,17.2-0.8,17.2l-0.5-0.1l-0.2-0.9
					c0.4-1.6,0.6-3.2,0.7-4.8c0-2.1,0.6-12.4,0.3-14.1L218.7,429.3z"/>
				<path class="st22" d="M216.5,430c0,0,0.3,13.2-1,19.2c-3.3,4.4-8.7,6.6-14.1,5.9c0,0,10.4-0.3,13.6-6.2c0.4-2.2,0.7-4.5,0.9-6.8
					c0.4-5.1,0.4-12,0.4-15.2L216.5,430z"/>
				<path class="st23" d="M210.7,512.5l3.4,4.1C212.7,515.5,211.5,514.1,210.7,512.5z"/>
				<path class="st23" d="M212.2,513.1l-1.7,0.9C211.2,514.2,211.9,513.8,212.2,513.1z"/>
				<path class="st23" d="M213.2,514.1l-1.7,0.9C212.2,515.2,212.9,514.8,213.2,514.1z"/>
				<path class="st23" d="M214.3,515.3l-1.7,0.9C213.3,516.3,214,516,214.3,515.3z"/>
				<path class="st23" d="M197.2,519.1l3.4,4.1C199.1,522.2,197.9,520.7,197.2,519.1z"/>
				<path class="st23" d="M198.6,519.7l-1.7,0.9C197.6,520.8,198.3,520.4,198.6,519.7z"/>
				<path class="st23" d="M199.6,520.8l-1.7,0.9C198,521.6,199.2,521.9,199.6,520.8z"/>
				<path class="st23" d="M200.8,521.9l-1.7,0.9C199.8,523,200.5,522.6,200.8,521.9z"/>
				<path class="st23" d="M198.1,526c0,0-0.5-0.5,0.7-1.4c2.8-1.9,4.1-1.6,4.1-1.6s1.8,1.8,1.2,2.9c0,0-1.6,2.2-3.8,1.4L198.1,526z"
					/>
				<path class="st23" d="M211.4,518.9c0,0-0.2-0.3,1-1.1c2.8-1.9,4.1-1.6,4.1-1.6s1.8,1.8,1.2,2.9c0,0-2,2.2-3.8,1.4L211.4,518.9z"
					/>
				<path class="st23" d="M190.8,517.8c2.2,2.9,4.9,5.6,7.8,7.8l-0.1,0.8c0,0-5.4-3.8-7.7-7.4C190.7,518.6,190.7,518.2,190.8,517.8z
					"/>
				<path class="st23" d="M204.6,511.4c0,0,1.7,3,7.8,7.4l0.1,0.8c0,0-5.6-3.5-7.9-7.1C204.5,512.6,204.5,512.3,204.6,511.4z"/>
				<path class="st120" d="M209.9,467.3c0,0,4.4-2.4,4.3-4l-4.5,3.2L209.9,467.3z"/>
				<path class="st122" d="M276.3,586.2c0,0,4.2,0.7,5.2,2.3c0,0-2.4-14.5-6.3-19.1C275.4,569.4,276.6,583.2,276.3,586.2z"/>
				<path class="st123" d="M271.6,519.4c0,0-0.7,4.3,0.8,6.2c0.1,0.9,0.5,1.8,1.2,2.4c1.1,0.8,3,2,3,2c0.5-1.4,1-2.8,1.7-4.2
					c1.1-2.2,2.6-9.3,1-12.7s-4-2.1-4-2.1L271.6,519.4z"/>
				<path class="st124" d="M272.4,616.7l-3.5,5.1c1.7-0.1,3.3,0.5,4.5,1.7c0,0,4.1-2.9,5-4.1c0.3-0.4,0.7-0.7,0.8-1.2
					c0-0.9-0.2-1.7-0.6-2.5L272.4,616.7z"/>
				<path class="st124" d="M257,610.9c-1.5,1.8-2.9,3.7-4.2,5.7l4.6,1.9l5.2-4.4c0.7-0.7,1-1.9,0.5-2.8c-0.1-0.2-0.6-1.9-0.7-2.1
					L257,610.9z"/>
				<path class="st124" d="M250.6,561.3c0,0-1,5.1-0.5,7.9s1,3,2.5,3.7l1-9.7L250.6,561.3z"/>
				<path class="st125" d="M275.8,617.7c-1.3,0.3-2.6-0.1-3.5-1.1c-0.6-2.7-1-5.4-1.2-8.2c-0.2-2.6-1.8-8.3-2.7-13
					c-0.7-3.7-0.8-6.5-1-7.4c-0.4-2-4.4,0.3-4.4,0.3c-0.6,1.8-0.9,3.8-0.8,5.7c0,3.8,0.7,14.5,0.7,14.5s0.4,2.4-1.6,3.3
					c0,0-3.4,1.3-4.5-1.1c0,0-3.8-21.4-4.1-26.3c0.1,0,6.6-17.4,23.1-14.8c0.3,0.1,2.3,3.5,2.3,8.6c0,3.7-1.4,12.1-0.9,18.1
					c0.2,2.4,0.5,3.8,0.7,5.4c0.5,5.6,0.4,6.8,0.5,13.7C278.5,616.4,277.2,617.5,275.8,617.7z"/>
				<path class="st126" d="M253.1,587.4c0,0,5.4,3.3,9.3,4l-0.1,1.4c0,0-5.3,0.1-8.8-2.7L253.1,587.4z"/>
				<path class="st126" d="M275,572.2c0,0-2.5,10.8-0.4,20.6c0,0-3.9,1.8-6.3,1.1c-0.3-1.8-0.5-3.7-0.6-5.5
					C267.6,587.4,272.8,570.4,275,572.2z"/>
				<path class="st127" d="M284.4,557.3c-0.3-4.9-2-16.4-3.5-19.9s-3-7.4-5.8-8.8c-2.5,0.4-4.6,2-5.6,4.3c-1.7,3.8-3.7,6.8-5.7,6.7
					s-5.5-0.4-6.4-3.3c0-3.3,0.6-6.6,1.7-9.8c-0.6-1.5-1.1-3.1-1.2-4.7c0,0-2.6-0.3-3.9,3.3s-2.5,11.1-2.9,17.3s-1.5,14.1-1.6,16.2
					s0.3,3.4,3.3,4.6c0,0-2,13.9-2.4,16.4c-0.2,1.9-0.3,3.7-0.2,5.6c0,0,1,2.5,7.4,4.8s14,3.1,16.6,2.6c-0.7-3.1-1.2-6.3-1.3-9.5
					c0-3.3,0.3-6.7,0.8-10l1-8.5l1.2,7.7c0,0,4.4,7.8,5.1,14.7c0.3,1.5,0.3,2.9,0.1,4.4c0,0,3.4-0.7,3.2-5.1s-1.7-12.8-2.5-14.6
					C281.7,571.7,284.5,562.2,284.4,557.3z M274.3,552.1c-0.6-1.7-0.5-3.5,0.3-5.1c1.5,2.8,2.1,10.7,2.1,10.7
					S275.4,554.9,274.3,552.1z"/>
				<path class="st62" d="M275.6,509.7c0,0,1.6-0.5,1.5,2s-0.6,3.8-1.9,3.8L275.6,509.7z"/>
				<path class="st124" d="M269.5,522.7c0.6,0.2,1.3-0.1,1.7-0.6c0,0-0.7,3.1,0.7,4.4s2.8,1.7,3.1,2.2c0,0-4,1.3-5.1,3.6
					s-3.2,6.8-5.7,7.5s-6.5-1.3-7-3s1-8.4,1.8-10.5C259,526,267.3,524.8,269.5,522.7z"/>
				<path class="st124" d="M257.5,510.3c-0.6,2.1-0.8,4.2-0.7,6.4c0.1,0.6,0.2,1.1,0.4,1.7c-0.1,0.6-0.1,1.2-0.1,1.8
					c0.9,5.9,2.2,8.5,5.5,8.5s7.9-5.1,7.9-5.1c0.6,0.1,1.8-1.2,1.7-3.6c0,0,4.4-9.8-1.2-12.5S260.4,503.5,257.5,510.3z"/>
				<path class="st47" d="M277.5,559.7c0,0-9.6,6.1-10,7.4s-2.4,10.4-2.1,11.4s4.8,3.4,5.5,3.5s6.2-5.1,6.2-5.1l3-12.7L277.5,559.7z
					"/>
				<path class="st21" d="M257.3,511.5c0.1-0.6,0.3-1.1,0.6-1.6c0,0,0.1,2.6,3.9,3.4s4.3,0.7,4.8,3.2s2.2,2.1,2.5,3.7
					s-1.2,2.4-1.9,1c0.1,0.7,0.7,1.2,1.3,1.1c0.2,0,0.4-0.1,0.6-0.2c1.6-0.8,0.7-2.2,1-3c0.5,0.5,1.1,0.8,1.8,0.8
					c0.7,0.4,1.6,0.3,2.3-0.2c0.5-0.9,0.9-1.9,1.2-2.9c0.9-2.7,0.1-3,0.5-5.1c0.1-1.7-0.1-3.5-0.4-5.2c-1-2.4-6.9-4.7-9.4-4.5
					c-2.6,0.4-5,1.6-6.9,3.3c-1,0.7-1.7,1.6-2.2,2.7C256,510.4,257.3,511.5,257.3,511.5z"/>
				<path class="st128" d="M256.9,517c0,0,3.9,2.3,5.7,2.5s2.6,0,3,0.5c-0.8,0.1-1.6,0.2-2.4,0.1c-0.6,0.3-3.8-1.1-6.1-2.6
					L256.9,517z"/>
				<path class="st128" d="M261.4,523.4c-0.2,0.9-2.6,1-2-0.8c0.4-0.9,0.5-1.9,0.3-2.8c0,0,0.3-0.3,0.4,0.3c0,0.9-0.1,1.8-0.4,2.6
					c0,0.4,0.2,0.7,0.6,0.7c0.2,0,0.4,0,0.5-0.1C260.9,523.4,261.4,523,261.4,523.4z"/>
				<path class="st128" d="M257.5,537.2c-1.1-1.2,1.1-9.5,1.1-9.5l0.4-1.1c0,0,1.5,2.5,5.2,1.6c2.1-0.6,3.9-2.1,4.9-4.1
					c-0.7,5.8-6.7,5.6-6.7,5.6s-2.5-0.2-3.2-1.4C258,531.1,257.4,534.1,257.5,537.2z"/>
				<path class="st129" d="M254.9,528.5c0,0,0.7,2.6,0.3,3.9s-3.9,4.8-1.8,9.1s3.3,5.1,3,9s-3.3,4.7-3.7,12.9
					c-0.2-3.1,0.3-6.1,1.4-9c1.9-5.2,2.2-6.4,0.7-8.7s-3.1-5.1-2.6-8.2c0.4-1.9,1.2-3.7,2.5-5.1C254.9,531.1,255,529.8,254.9,528.5z
					"/>
				<path class="st129" d="M261.4,546.6c0,0,3.7,2.2,7.4,0.3C268.8,546.8,265.1,550.6,261.4,546.6z"/>
				<path class="st128" d="M251.2,564.8c0,0,0,2.9,0.1,3.1s0.6,1.6,0.6,1.6l-0.1,1.2C251.8,570.7,250.1,567.5,251.2,564.8z"/>
				<path class="st128" d="M269.6,523.1c0,0,0.8,1,1.8-0.2c-0.6,1.2-0.4,2.6,0.5,3.6l3.1,2.2c0,0-3.2,1.1-4.1,2.4
					c-1,1.4-1.9,2.9-2.6,4.4c0,0-1.9,4.4-4.6,4.3c1.6-1.1,2.9-2.5,3.8-4.2c1.2-2.5,2.2-5.7,5.7-7c-1.2-0.2-2.3-1.1-2.6-2.3
					C270.2,524.3,268.7,525,269.6,523.1z"/>
				<path class="st124" d="M275.4,572.4c-0.5,1.6-0.7,3.2-0.7,4.9c0.1,2.6-0.2,3.7,0.9,4s1-3.5,1.1-4.4c0.2,0.8,0.3,1.7,0.3,2.6
					c0,1.4-0.4,3.4-0.1,3.9c0.6,1,1.4,0.4,2.1-0.3s1.7-1.1,2-3.1c0.4-2.2,0.3-4.4-0.3-6.5C280.8,573.4,277.5,574.7,275.4,572.4z"/>
				<path class="st50" d="M253.4,615.3c-1.3,1.2-2.2,2.8-2.6,4.5c0,0,0,2,3.3,0.9s7.6-4.7,9.5-7.3c0-0.5-0.1-1-0.3-1.5
					c0,0-2.8,4-5.7,5.2C256.7,615.8,255,615.1,253.4,615.3z"/>
				<path class="st50" d="M269.1,621.2c-1.3,1.1-2.3,2.6-2.6,4.3c0,0,0,2,3.3,0.9s8.5-5.7,9.6-7.2c0-0.5-0.1-0.9-0.4-1.3
					c0,0-2.8,3.7-5.7,5C273.4,622.7,271.8,620.8,269.1,621.2z"/>
				<path class="st127" d="M276.7,552.5c0,0,0.3,14.2-1,19.4c1.3,1.6,3.6,2.2,5.5,1.3l1.1-4.3c0,0,2.3-7.8,2-10.7L276.7,552.5z"/>
				<polygon class="st74" points="270.4,568.9 270.9,582.1 271.3,581.9 270.7,568.8 276.8,564.3 276.6,563.7 270.3,568.6 				"/>
				<path class="st74" d="M276.4,562.3l-5.7,4.3C272.9,565.6,274.8,564.1,276.4,562.3z"/>
				<path class="st74" d="M268,569.8c0,0,1.3-31.8,3-36c-0.1,0.3,1.6-5.3,4.9-4.5c0.8,0.2,1.4,0.8,1.7,1.6c-1.9-0.3-3.8,0.8-4.4,2.6
					c0,0-1.6,1.7-2.4,17.2c0,0-1,17.8-1.2,19.4C269.3,571.5,268,571.4,268,569.8z"/>
				<path class="st129" d="M272.1,540.3c0,0,1,2.7,2.3,3.4l0.3,1.1C273.1,543.9,272.1,542.2,272.1,540.3z"/>
				<path class="st129" d="M272.8,536c0,0-0.9,2.6,0.9,6.5s3.6,15.3,3.1,17.8s-1.8,11.8-1.8,11.8s1.1,2.9,6.2,1c0,0-4.7,0.8-5.5-1.3
					c0,0,2.4-11,1.9-14.5s-1.6-11.8-3-14.8C273.5,540.5,272.9,538.3,272.8,536z"/>
				<polygon class="st128" points="259.6,538.9 260.4,536.8 260.4,539.2 				"/>
				<path class="st128" d="M271.6,520.1c0,0,0.2,2.1-0.5,2.3s-1.2-0.5-0.9-0.8s0.9-0.6,0.3-1.5S271.6,520.1,271.6,520.1z"/>
				<path class="st74" d="M270.7,568.9l-1-1.4l-2.2-0.2c0,0-2.7,9.9-2,11.7c1.6,1.4,3.4,2.5,5.4,3.3l0.2-0.8c0,0-3.5-0.9-5.3-3.1
					c0.3-3.6,0.9-7.2,1.9-10.7l1.6,0.1l1.4,1.7"/>
				<path class="st130" d="M260.3,529.2c0,0-1.1,3.3,0,4.5s3,1.6,6-1.4c1.9-1.9,3.9-3.7,6.1-5.3c0,0,0.2-1.2-1.1,0s-6.6,6.6-7.9,6.9
					s-4,0.7-2.5-4.5L260.3,529.2z"/>
				<circle class="st130" cx="261.2" cy="534.5" r="0.7"/>
				<circle class="st130" cx="270.4" cy="523.2" r="0.5"/>
				<path class="st128" d="M276.7,575.9c0.1,0.9,0.2,1.7,0.4,2.6c0.1,1.5,0,3-0.3,4.5c0,0,0.1-5-0.3-5.5v1.6
					C276.5,579.2,275.8,577,276.7,575.9z"/>
				<path class="st128" d="M275.3,572.7c0,0,0.9,1.8,5.5,0.7c0.5,1.7,0.6,3.5,0.4,5.2c0,0-0.5-3.8-2-3.6s-4-1.6-4.3,0.8l-0.2,1.6
					C274.5,575.8,274.7,574.2,275.3,572.7z"/>
				<path class="st128" d="M250.5,562.1c0.7,0.5,1.4,0.9,2.2,1.2l-0.4,2.6c0,0-1-2.2-1.6-1.4c-0.5,0.8-0.7,1.7-0.7,2.6
					C250,565.4,250.1,563.7,250.5,562.1z"/>
				<path class="st128" d="M256.9,610.8c0,0,0.5,2,4.1,1.2c0,0,1.5-0.5,1.7-1.7c0.2,0.5,0.4,1.1,0.6,1.6c0,0-0.2-0.8-0.9-0.2
					c-1.8,1.6-4.4,1.7-6.3,0.3L256.9,610.8z"/>
				<path class="st128" d="M272.3,616.7c0,0,2.4,2.3,4.9,0.5c0,0,1.3-0.7,1.3-1.5s0.4,1,0.4,1c-1.9,2.2-4.9,2.8-7.5,1.6L272.3,616.7
					z"/>
				<path class="st129" d="M254,529.7l0.9,2.8l-0.7,0.9C254.3,533.4,254,531.1,254,529.7z"/>
				<path class="st21" d="M272.1,520c0.2,1.1-0.1,2.2-0.8,3c-0.1,0.4-0.2,0.7-0.3,1.1c0,0,1.8,0.7,4-6.3L272.1,520z"/>
				<path class="st123" d="M258.2,507.6c-0.9,1.9-0.1,4.2,1.8,5.1c0.1,0.1,0.3,0.1,0.4,0.2C258.7,511.7,257.8,509.6,258.2,507.6z"/>
				<path class="st123" d="M269.2,517.2c0,0,0.4,3,3,2.7C272.2,519.9,269.7,518.9,269.2,517.2z"/>
			</g>
		</g>
		<rect class="st131" width="514.5" height="516.1"/>
	</g>
</g>
</svg>
