<svg xmlns="http://www.w3.org/2000/svg" xmlns:xlink="http://www.w3.org/1999/xlink" viewBox="0 0 514.5 646.7"><defs><style>.cls-1{fill:#f3f3f3;}.cls-2{fill:#31aaba;}.cls-3{fill:#010101;opacity:0.1;isolation:isolate;}.cls-4{fill:#35b7ae;}.cls-5{fill:url(#linear-gradient);}.cls-6{fill:none;}</style><linearGradient id="linear-gradient" x1="-988.9" y1="269.39" x2="-988.88" y2="269.34" gradientTransform="translate(158394.21 -23812.33) scale(160 91)" gradientUnits="userSpaceOnUse"><stop offset="0" stop-color="#fff" stop-opacity="0.1"/><stop offset="1" stop-color="#fff" stop-opacity="0"/></linearGradient></defs><title>Asset 9</title><g id="Layer_2" data-name="Layer 2"><g id="Layer_1-2" data-name="Layer 1"><path class="cls-1" d="M257.2,444.8c-50.8,0-105.5,8.2-105.5,26.3,0,4,2.8,7.5,7.6,10.6l62.3,74.8a29.88,29.88,0,0,1,6.9,18.6v58.4c0,9.1,14.9,13.2,28.8,13.2s28.8-4.1,28.8-13.2V575.1a28.76,28.76,0,0,1,6.9-18.6l5.3-6.4h30.6c7.9,0,15.1-4.5,18-11.4l5-12.3a13.61,13.61,0,0,0-1.9-13.7,17,17,0,0,0-13.4-6.4h-1.8l20.4-24.5c4.8-3.1,7.6-6.6,7.6-10.6C362.7,453.1,308,444.8,257.2,444.8Zm79.3,70.3a6.93,6.93,0,0,1,5.5,2.6,5.6,5.6,0,0,1,.8,5.7l-5,12.3a9.67,9.67,0,0,1-9,5.7H305.5l21.9-26.3Z"/><path class="cls-2" d="M257.2,454.8c61.8,0,95.5,11.9,95.5,18s-33.7,18-95.5,18-95.5-11.9-95.5-18S195.4,454.8,257.2,454.8Z"/><path class="cls-3" d="M271.6,468c37.2,0,64.2,3.2,79.8,6.7a3.43,3.43,0,0,0,1.4-2.3c0-6-33.7-17.6-95.5-17.6s-95.5,11.6-95.5,17.6c0,2.3,5,5.4,14.5,8.4C178.2,476.2,211.6,468,271.6,468Z"/><path class="cls-4" d="M284.9,551.4a38.54,38.54,0,0,0-8.9,24.1v58.6c-.6,1.3-7.3,4.7-19.3,4.7s-18.7-3.3-19.3-4.4V575.5a37.41,37.41,0,0,0-8.9-24.1l-51.8-62.6c20.7,5.7,51,8.4,80,8.4s59.3-2.7,80-8.4l-51.8,62.6Z"/><path class="cls-5" d="M276,575.3a37.41,37.41,0,0,1,8.9-24.1l51.8-62.4c-20.7,5.7-51,8.4-80,8.4s-59.3-2.7-80-8.4l99.3,91Z"/><rect class="cls-6" width="514.5" height="516.1"/></g></g></svg>