<svg xmlns="http://www.w3.org/2000/svg" xmlns:xlink="http://www.w3.org/1999/xlink" viewBox="0 0 514.5 646.7"><defs><style>.cls-1{fill:none;}.cls-2{fill:#f3f3f3;}.cls-3{fill:#31aaba;}.cls-4{fill:#010101;opacity:0.1;isolation:isolate;}.cls-5{fill:#35b7ae;}.cls-6{fill:url(#linear-gradient);}.cls-7{fill:#a5b2c7;}.cls-8{fill:#6d798b;}.cls-9{fill:#fed4af;}.cls-10{fill:#fbbd92;}.cls-11{fill:#d2d2d2;}.cls-12{fill:#ab6087;}.cls-13{fill:#28151a;}.cls-14{fill:#3cc3d9;}.cls-15{fill:#ecac67;}.cls-16{fill:#abddde;}.cls-17{fill:#eaae9d;}.cls-18{fill:#cf8885;}.cls-19{fill:#2d9fb2;}.cls-20{fill:#e9edf7;}.cls-21{fill:#884b6c;}.cls-22{fill:#454043;}.cls-23{fill:#129491;}.cls-24{fill:#acadae;}.cls-25{fill:#745d9e;}.cls-26{fill:#5d4980;}.cls-27{fill:#cd8079;}.cls-28{fill:#056772;}.cls-29{fill:#ef5b79;}.cls-30{fill:#a1d28e;}.cls-31{fill:#81b16d;}.cls-32{fill:#bd6d6a;}.cls-33{fill:#194353;}.cls-34{fill:#f28186;}.cls-35{fill:#da5a7a;}.cls-36{fill:#fabfa0;}.cls-37{fill:#1d4e5e;}.cls-38{fill:#393537;}.cls-39{fill:#fee495;}.cls-40{fill:#b16979;}.cls-41{fill:#606281;}.cls-42{fill:#4e506a;}.cls-43{fill:#7a93a1;}.cls-44{fill:#fccdb0;}.cls-45{fill:#e98b41;}.cls-46{fill:#cfd7b0;}.cls-47{fill:#ffddb8;}.cls-48{fill:#9ea372;}.cls-49{fill:#57585a;}.cls-50{fill:#a2b4bf;}.cls-51{fill:#516780;}.cls-52{fill:#eeb59b;}.cls-53{fill:#fabaa3;}.cls-54{fill:#f27385;}.cls-55{fill:#756f90;}.cls-56{fill:#e8e9f5;}.cls-57{fill:#826e74;}.cls-58{fill:#ffcd64;}.cls-59{fill:#f9e8e3;}.cls-60{fill:#dfdaed;}.cls-61{fill:#fcb238;}.cls-62{fill:#645e7b;}.cls-63{fill:#c65e6f;}.cls-64{clip-path:url(#clip-path);}.cls-65{fill:#4e3136;}.cls-66{fill:#024e6c;}.cls-67{fill:#ca9e6f;}.cls-68{fill:#f2e094;}.cls-69{fill:#f2738e;}.cls-70{fill:#73a7be;}.cls-71{fill:#197daa;}.cls-72{fill:#f7eb98;}.cls-73{fill:#bc734f;}.cls-74{fill:#252a3d;}.cls-75{fill:#c0ccdd;}.cls-76{fill:#1f2746;}.cls-77{fill:#6d5539;}.cls-78{fill:#fff;}.cls-79{fill:#4e3c25;}.cls-80{fill:#f0c776;}.cls-81{fill:#da587c;}.cls-82{fill:#f7a8a7;}.cls-83{fill:#c45c7a;}.cls-84{fill:#73452c;}.cls-85{fill:#fccfb7;}.cls-86{fill:#69446b;}.cls-87{fill:#5a395d;}.cls-88{fill:#f38aaa;}.cls-89{fill:#edaa42;}.cls-90{fill:#a76f69;}.cls-91{fill:#a16443;}.cls-92{fill:#fab6a1;}.cls-93{fill:#e96997;}.cls-94{fill:#82596b;}.cls-95{fill:#9c605b;}.cls-96{fill:#fabca4;}.cls-97{fill:#f6ec49;}.cls-98{fill:#9b5e3f;}.cls-99{fill:#f3b29e;}.cls-100{fill:#e3978b;}.cls-101{fill:#c8c4cc;}.cls-102{fill:#835d39;}.cls-103{fill:#f79058;}.cls-104{fill:#d4dac2;}.cls-105{fill:#e67b50;}.cls-106{fill:#b7b4bc;}</style><linearGradient id="linear-gradient" x1="257.39" y1="269.39" x2="257.4" y2="269.34" gradientTransform="translate(-41011.73 -23812.33) scale(160 91)" gradientUnits="userSpaceOnUse"><stop offset="0" stop-color="#fff" stop-opacity="0.1"/><stop offset="1" stop-color="#fff" stop-opacity="0"/></linearGradient><clipPath id="clip-path"><path class="cls-1" d="M198.7,479.5s88,8.5,157,0l-5-80-20-19.5-20.5,6.5L295.7,457l-21,8.5-24.5-20L241.7,405l-15-10.5H200.2S165.2,413.5,198.7,479.5Z"/></clipPath></defs><title>Asset 7</title><g id="Layer_2" data-name="Layer 2"><g id="Layer_1-2" data-name="Layer 1"><path class="cls-2" d="M257.2,444.8c-50.8,0-105.5,8.2-105.5,26.3,0,4,2.8,7.5,7.6,10.6l62.3,74.8a29.88,29.88,0,0,1,6.9,18.6v58.4c0,9.1,14.9,13.2,28.8,13.2s28.8-4.1,28.8-13.2V575.1a28.76,28.76,0,0,1,6.9-18.6l5.3-6.4h30.6c7.9,0,15.1-4.5,18-11.4l5-12.3a13.61,13.61,0,0,0-1.9-13.7,17,17,0,0,0-13.4-6.4h-1.8l20.4-24.5c4.8-3.1,7.6-6.6,7.6-10.6C362.7,453.1,308,444.8,257.2,444.8Zm79.3,70.3a6.93,6.93,0,0,1,5.5,2.6,5.6,5.6,0,0,1,.8,5.7l-5,12.3a9.67,9.67,0,0,1-9,5.7H305.5l21.9-26.3Z"/><path class="cls-3" d="M257.2,454.8c61.8,0,95.5,11.9,95.5,18s-33.7,18-95.5,18-95.5-11.9-95.5-18S195.4,454.8,257.2,454.8Z"/><path class="cls-4" d="M271.6,468c37.2,0,64.2,3.2,79.8,6.7a3.43,3.43,0,0,0,1.4-2.3c0-6-33.7-17.6-95.5-17.6s-95.5,11.6-95.5,17.6c0,2.3,5,5.4,14.5,8.4C178.2,476.2,211.6,468,271.6,468Z"/><path class="cls-5" d="M284.9,551.4a38.54,38.54,0,0,0-8.9,24.1v58.6c-.6,1.3-7.3,4.7-19.3,4.7s-18.7-3.3-19.3-4.4V575.5a37.41,37.41,0,0,0-8.9-24.1l-51.8-62.6c20.7,5.7,51,8.4,80,8.4s59.3-2.7,80-8.4l-51.8,62.6Z"/><path class="cls-6" d="M276,575.3a37.41,37.41,0,0,1,8.9-24.1l51.8-62.4c-20.7,5.7-51,8.4-80,8.4s-59.3-2.7-80-8.4l99.3,91Z"/><path class="cls-7" d="M258.6,369.3s-.8.1-.9.5a22.08,22.08,0,0,0,0,2.6c.1.5.7.6.7.6l.2-.5Z"/><path class="cls-8" d="M258.5,369.5s-.5.2-.4.4a4,4,0,0,0,.4.3Z"/><path class="cls-9" d="M262.6,350.4l.1,24-1.8,9.8c-3.1.3-2.7-3.4-2.7-3.4s-.3.2-1.1-.3-.5-2.4-.3-4.6a4.45,4.45,0,0,1,1.7-3.1c0-.7.3-10.7.7-14.5a51.72,51.72,0,0,0-.3-8.6Z"/><path class="cls-8" d="M258.4,372.8a3.48,3.48,0,0,0,2.9.9l1.4-.3.1-2.6s-.3.8-2.2.7a2,2,0,0,1-2-1.4s-.1-.1-.2.3A4.8,4.8,0,0,0,258.4,372.8Z"/><path class="cls-10" d="M261.5,375.1s-.7,2.1-2.1,2.3a1.5,1.5,0,0,0-1,1.5l-.2,2.1s.8-.3.8-2.4c0,0,0-.5,1-.8A2.61,2.61,0,0,0,261.5,375.1Z"/><path class="cls-11" d="M286,437.6s1,1.7.7,2.5-8.4,9.4-10.8,8.6-2.8-1.6-2.5-2.5,5.3-7.8,5.3-7.8C282.1,441.1,286,437.6,286,437.6Z"/><path class="cls-11" d="M272.2,430.6s1,2.4.7,3-8.5,8.4-10.3,8.3a3.31,3.31,0,0,1-2.9-2.6c0-.9,5.5-7,5.5-7Z"/><path class="cls-12" d="M261.8,373.5c4.4,2.9,21.4,7.2,21.4,7.2.3,3.1-.3,36-.3,36-.7,5.2,3.5,18.9,3.5,18.9s.9,3-3.3,4.1-4.8-1.9-4.8-1.9-4.8-17.7-5.5-20.3-1.6-20.3-1.6-20.3c-1.6,5.4-2.4,11.2-2.2,14.5s4.4,18.3,4.4,18.3c-1.2,3.9-5.7,3.5-7.1,3a2.11,2.11,0,0,1-1.5-2.4c-.6-2.6-5.2-17.8-5.2-19.8s.8-24.4.8-24.4C260.4,376.6,261.9,373.5,261.8,373.5Z"/><path class="cls-13" d="M281.4,373l-2.6,6.4c-11.6,2.7-16.9-5.1-16.9-5.1a11.69,11.69,0,0,1,.3-4.4C270.6,377.2,281.4,373.1,281.4,373Z"/><path class="cls-9" d="M273.2,330.2l3.1,2s1.1,3.2.6,3.8-3.3,2.6-4.9,4.2a20.78,20.78,0,0,0-2.9,5.2l-.8-5a11.7,11.7,0,0,1,.9-5.1Z"/><path class="cls-14" d="M278.9,334.2s6.7,28,6.7,32.1A14.5,14.5,0,0,1,283,374c-14.1,7-21.2-3.7-21.2-3.7-1.1-4.6-.8-18.7-.8-18.7a4.64,4.64,0,0,1-3.5-2.4l-.2-3.3c.2-1.6,1-1.1,1-1.1s.3-8.7.3-9c.3-7.4,5.3-7.4,5.3-7.4.3,1.7,2.8,7.1,2.8,7.1l2.4,1-.9,3.2c0,.8.9,5.7.9,5.7s1.7-5.1,3.7-6,4.9-4.7,4.9-4.7c.3-.7-.3-2.7-.3-2.7a.75.75,0,0,0,.6-.3Z"/><path class="cls-15" d="M276.7,375.4c.2-.3.4-.1.4.1.2.2.3.3.3.5.2.3.3.7.5,1a10.2,10.2,0,0,0,.9,2.2,4.34,4.34,0,0,0,4,2,6.54,6.54,0,0,0,4.1-2.1,11.78,11.78,0,0,0,2.5-4h.1a9.68,9.68,0,0,1-.8,2.4,12,12,0,0,1-1.3,2.1,6,6,0,0,1-4.5,2.4,4.85,4.85,0,0,1-2.7-.5,4.36,4.36,0,0,1-1.9-1.9,5.64,5.64,0,0,1-.4-1.2c-.1-.3-.2-.8-.3-1.1s-.2-.8-.3-1.1-.2-.3-.3-.5-.2-.4-.3-.3Z"/><ellipse class="cls-16" cx="268.6" cy="352.6" rx="0.6" ry="0.9"/><path class="cls-17" d="M289.9,371.9c.4,3.1-.3,4.4-.3,4.4s.4,7.6.5,11.8c.1,4.5-1.6,5.2-1.6,5.2l-6.8,3.9c-1.1.5-3.8,1.8-4.9-.4-.6-1.2-1-14.4-.9-19.6a5.9,5.9,0,0,1,.2-2c.4-.9,6.9-4,6.9-4C285,369.4,289.5,368.7,289.9,371.9Z"/><path class="cls-18" d="M276.7,375.4a1.21,1.21,0,0,1,1.7,1.3c0,2,.2,3.7.9,4.5s7,3.6,10.3-5a8.18,8.18,0,0,1-4.2,5.8s-4.1,2-6.6-.9a5.72,5.72,0,0,1-.7-3.1C278.1,375.9,277.9,375.5,276.7,375.4Z"/><path class="cls-9" d="M282.9,360.4s0,2.4.2,7.2-1.7,18.9-1.7,18.9a3.57,3.57,0,0,0,4.5,1c-.4-2,2.8-14.6,2.8-14.6,1.6-9.6.3-13.7.3-13.7C284.3,356.7,282.9,360.4,282.9,360.4Z"/><path class="cls-19" d="M269.4,336.2l-.4-.5-.3.9a30.61,30.61,0,0,0-.6,3.8l.8,2.4c-.7-4.5.2-5.9.2-5.9Z"/><path class="cls-14" d="M277.9,333.5l-.2-1.8c1.9.8,2.4,3.8,2.4,3.8s5.8,3.9,7.4,6.3,1,4.3,1.3,7.8c.1.8.5,3.2.9,5.3.5.2,1,4.2,1,4.2s-1.1,3.5-6.8,3.1l-1.6-.3s-3.3-9.1-3.1-12.5-.1-5,1.6-6.4"/><path class="cls-9" d="M285.8,387.2c.3,1.7,1.1,5.1.7,6.8a10.05,10.05,0,0,1-3,4.6c-1.7,1.2-2.3.2-2.4-.3s.6-3,.7-3.6c.2-.9-.2-1.9-.3-3.4-.9.1-.4,2-.6,3s-1.4.7-1.6.3a12.32,12.32,0,0,1-.3-2.2,10.18,10.18,0,0,1,.4-2.7c.7-2.6,2-3.3,2-3.3C283.8,389,285.8,387.3,285.8,387.2Z"/><path class="cls-17" d="M276.6,378.6a84.11,84.11,0,0,0-2.8-9c-.7-1.9-7.8-20.8-9.8-29.5s.3-10.6.3-10.6l.3,1.7c-1.9,4.1,5.7,26,9,33.7a92.15,92.15,0,0,1,4.3,12.5C278.4,379.2,276.9,380.4,276.6,378.6Z"/><path class="cls-19" d="M279.5,349.1a16.28,16.28,0,0,0,.8,4.4,39.55,39.55,0,0,0,1.1,3.9c.1.2,0,.2.1.4-.2.7.8,3.8,1.3,3.8.1.6-.2.6-.6.6s-1.8-5.5-2.7-8.4a18.16,18.16,0,0,1-.6-4.6,11.24,11.24,0,0,1,.8-4.5A32.4,32.4,0,0,0,279.5,349.1Z"/><path class="cls-20" d="M270.4,375.9l-.1,4.2a17.62,17.62,0,0,1-4.2-1.7c-.7-2.9.1-4.3.1-4.3C267.3,375.2,270.3,375.9,270.4,375.9Z"/><path class="cls-18" d="M276.9,374.4s1,2.2.7,2.8-1,1.2-1.6-1c0,0-.1,0-.1.5,0,0,.3,1.2,1,1.3s1.2-.8.7-2.1a5.5,5.5,0,0,1-.5-1.5l5.7-3.1V371C283,371,277.5,373.8,276.9,374.4Z"/><path class="cls-19" d="M264.3,339.3c5.1-2.5,4.9,6.2,4.9,6.2C268.2,338.2,264.3,339.4,264.3,339.3Z"/><polygon class="cls-19" points="267.3 335.5 265.4 339 264.3 339.3 266.8 335.4 267.3 335.5"/><path class="cls-21" d="M267.5,388.5c3.9,2.9,3.7,9.4,3.7,9.4v-2a11.07,11.07,0,0,0-1.5-6.3l2.6.7-4.2-2.8-1.7-7.2Z"/><path class="cls-9" d="M269.3,336.6c-.2-.1-2.9-.7-3.5-1.6s-3-7.2-2-8.2c.8-.9-.3-1.8-.5-2.3a3.78,3.78,0,0,1-.1-1.4s-.3-3.5.7-4.4,6.8-8.8,13.1-5.1a4.22,4.22,0,0,1,1.3,3.7c-.1.3.2,7.7.2,7.7s1.7-.6,1.9,1.6-.4,3.8-1.3,4.5c-.6.5-.9.8-1.5.8l.2,1.8"/><path class="cls-22" d="M271,310.8c-2.4-.9-2.6,1.4-2.6,1.4a2.07,2.07,0,0,0-2.2,1.7c-2.7.4-2.4,2.2-2.4,2.2-1.9.6-1.7,1.7-1.7,1.7-.3,2.2,1.2,2.1,1.2,2.1a1.61,1.61,0,0,0,2.3,1.3,1.67,1.67,0,0,0,2.4.8,1.75,1.75,0,0,0,2.9-.1,1.92,1.92,0,0,0,2-.8l-.7,1.3c-.7,1.7,1.6,2.7,1.6,2.7a2.19,2.19,0,0,0,1,2.5c.4.3.3.3.5,1.4a1.29,1.29,0,0,0,1.4,1l.1-1.6a4.46,4.46,0,0,1,1-2.8c1.8-1.1,2.4,1,2.4,1a2.08,2.08,0,0,0,.5-2.2,2.85,2.85,0,0,0,.3-3.1,2.2,2.2,0,0,0-.4-2.6,1.92,1.92,0,0,0-1.1-2.4,2.87,2.87,0,0,0,0-2,2.61,2.61,0,0,0-2.2-1.1,2,2,0,0,0-2.2-1.6c-.3-.3-.3-1-1.6-1.3A3.77,3.77,0,0,0,271,310.8Z"/><path class="cls-10" d="M264.1,325.7a9.87,9.87,0,0,0,5.3,2.4c2.7.5,3.8-.7,3.8-.7s-.5.5-3,.3a18,18,0,0,1-4-1.5,7.07,7.07,0,0,1-3-1.8A3.75,3.75,0,0,0,264.1,325.7Z"/><path class="cls-10" d="M271.1,340.8l4.7-5.7a24.8,24.8,0,0,0,.4-4.2c.3.1.5.6.7.7a1,1,0,0,0,1.1.2v2.1l.3.7c-.9,1.6-4,3.8-4,3.8Z"/><path class="cls-10" d="M277.9,328.2c-.3.6.5.8.7.6s.1-2.1.4-1.5-.2,2.3-.7,2.4.1-.8-.5-.7-.6.8-.6.8a.94.94,0,0,0,1.6.6c.7-.6,1.2-3.7.3-4.1s-1.7,1.1-1.7,1.1C277.7,327.3,278.1,327.5,277.9,328.2Z"/><path class="cls-10" d="M266.6,327.2l.3,3.9,1.2.1.4.5a2.4,2.4,0,0,1-2.4-.3V327Z"/><path class="cls-19" d="M290.5,358.1c-2.5,4.4-8.5,3.3-8.5,3.3s0,.6.4.7c6.4,1.1,8.3-2.8,8.3-2.8A7.07,7.07,0,0,0,290.5,358.1Z"/><path class="cls-19" d="M281.2,357.6l-.3-.6a4.51,4.51,0,0,0,2.5.5,9.94,9.94,0,0,0,6.2-2.7,6.12,6.12,0,0,1-1.5,1.7,5.7,5.7,0,0,1-2.2,1.1C281.9,358.6,281.2,357.6,281.2,357.6Z"/><path class="cls-19" d="M279.9,336.7c-.3,1.3-3.8,8-3.8,8s-2-3-3-4.3-3.8,4.9-3.8,4.9l1.4-3.6s.9-1.7,1.8-2.1,3.4,3.4,3.4,3.4a37.32,37.32,0,0,1,2.4-4.3c1.7-2.9,1.6-4.4,1.6-4.4A4.22,4.22,0,0,1,279.9,336.7Z"/><path class="cls-19" d="M278.3,335.1a2.84,2.84,0,0,1-.6.9l-.8.8h0l-3,2.1c-.5.3-1,.7-1.5,1a4.89,4.89,0,0,0-1.3,1.2,3.91,3.91,0,0,1,1-1.6l1.3-1.3a33,33,0,0,1,3-2.2h0l.7-.7c.2-.3.4-.5.6-.8a3.32,3.32,0,0,0,.5-2A3.88,3.88,0,0,1,278.3,335.1Z"/><path class="cls-10" d="M268.7,338.3c.2-1.4.5-1.6.5-1.6,1.3.3,2.2-.4,3.5-1.4a13.31,13.31,0,0,0,2.6-2.9c-1.6,5.3-5.9,5-5.9,5.1C269.4,337.4,269,337.7,268.7,338.3Z"/><path class="cls-19" d="M260.7,350.7c-1.1.3-3-1.6-3-1.6a4.2,4.2,0,0,0,3.5,2.4l.4-15.4C261,338.6,260.7,350.7,260.7,350.7Z"/><path class="cls-19" d="M261,347.1a3.21,3.21,0,0,1-2.5-2.4c1.4,1.8,2.7,1.6,2.7,1.6Z"/><path class="cls-19" d="M266.2,348.5a6.76,6.76,0,0,1-3.4-1.8,1.11,1.11,0,0,1-.5-1.3,6.9,6.9,0,0,0,3.7,2.4Z"/><path class="cls-19" d="M262.8,352.6a3.09,3.09,0,0,0,3.1,2C262.8,355.7,262.8,352.7,262.8,352.6Z"/><ellipse class="cls-16" cx="268.6" cy="361.2" rx="0.6" ry="0.9"/><ellipse class="cls-16" cx="268" cy="369.1" rx="0.6" ry="0.9"/><ellipse class="cls-16" cx="269.3" cy="346.6" rx="0.6" ry="0.9"/><path class="cls-12" d="M262.5,371.1l-.3,4.4,1.3,1.1c-.4-1,.2-4.4.2-4.4Z"/><polygon class="cls-12" points="275.4 376.3 275.4 380 274.1 380.2 274.1 376.3 275.4 376.3"/><path class="cls-10" d="M270.2,337.2s-.8,2.7.5,4.3l-1.5,3.7a19.11,19.11,0,0,0-.3-3.3c-.3-1.4-.3-5,.4-5.4C269.2,336.6,269.7,337.1,270.2,337.2Z"/><path class="cls-10" d="M260.4,380l-.1,4.3a.81.81,0,0,1-.8-.1s.8.4.7-1.9S260.3,379.4,260.4,380Z"/><path class="cls-10" d="M289.3,360.8s-1.7,1.7-6.4,1.3a75.89,75.89,0,0,1,.1,8.9s.8-6.5.6-7.3a9.46,9.46,0,0,0,4.8-.4s.8,6.2.4,8.9C288.8,372.2,290,365.2,289.3,360.8Z"/><path class="cls-10" d="M258.8,350.6l.2,1.2a2.52,2.52,0,0,1,1.6,2.5c-.1,1.9.8,17.2.8,17.2l.5-.1.2-.9a23.28,23.28,0,0,1-.7-4.8c0-2.1-.6-12.4-.3-14.1Z"/><path class="cls-23" d="M260.9,351.2s-.3,13.2,1,19.2a15.21,15.21,0,0,0,14.1,5.9s-10.4-.3-13.6-6.2a55.8,55.8,0,0,1-.9-6.8c-.4-5.1-.4-12-.4-15.2Z"/><path class="cls-24" d="M266.8,433.7l-3.4,4.1A13.77,13.77,0,0,0,266.8,433.7Z"/><path class="cls-24" d="M265.3,434.3l1.7.9A1.44,1.44,0,0,1,265.3,434.3Z"/><path class="cls-24" d="M264.3,435.3l1.7.9A1.44,1.44,0,0,1,264.3,435.3Z"/><path class="cls-24" d="M263.1,436.5l1.7.9A1.47,1.47,0,0,1,263.1,436.5Z"/><path class="cls-24" d="M280.3,440.3l-3.4,4.1A10.07,10.07,0,0,0,280.3,440.3Z"/><path class="cls-24" d="M278.9,441l1.7.9C280.5,441.8,279.3,442.1,278.9,441Z"/><path class="cls-24" d="M277.8,442l1.7.9A1.62,1.62,0,0,1,277.8,442Z"/><path class="cls-24" d="M276.7,443.1l1.7.9A1.41,1.41,0,0,1,276.7,443.1Z"/><path class="cls-24" d="M279.4,447.2s.5-.5-.7-1.4c-2.8-1.9-4.1-1.6-4.1-1.6s-1.8,1.8-1.2,2.9c0,0,1.6,2.2,3.8,1.4Z"/><path class="cls-24" d="M266.1,440.1s.2-.3-1-1.1c-2.8-1.9-4.1-1.6-4.1-1.6s-1.8,1.8-1.2,2.9c0,0,2,2.2,3.8,1.4Z"/><path class="cls-24" d="M286.6,439a40.23,40.23,0,0,1-7.8,7.8l.1.8s5.4-3.8,7.7-7.4C286.7,440.1,286.8,439.8,286.6,439Z"/><path class="cls-24" d="M272.8,432.7s-1.7,3-7.8,7.4l-.1.8s5.6-3.5,7.9-7.1C272.9,433.8,273,433.5,272.8,432.7Z"/><path class="cls-21" d="M267.5,388.5s-4.4-2.4-4.3-4l4.5,3.2Z"/><path class="cls-25" d="M183.6,399.3s3.8,1.9,5.9,3.3c0,0,1.3.6,1,1.7,0,0-.3,2.1-3.2,1.7-1.3-.2-3.3-.1-7.8-3.4a3,3,0,0,1-1.6-2.4c0-1.6,3.8-1.8,5.7-.9"/><path class="cls-26" d="M179.2,402.4s4.4,4,9.2,3.7c0,0-6.4-1.4-7.5-3.6-.8-1.2.2-1.6.2-1.6l-1-.9-.7-.2-.5.2A9.22,9.22,0,0,0,179.2,402.4Z"/><path class="cls-25" d="M174.4,400.1l-.1.7s-.8,7.2.1,9a2.83,2.83,0,0,0,2.9,1.7c.8,0,3.1-1.4,2.5-6a48.72,48.72,0,0,0-.9-5.6Z"/><path class="cls-26" d="M174.3,400.9a5.35,5.35,0,0,0,4.7-.5l.3,1.2s-.3,2.3-5.1.6Z"/><path class="cls-27" d="M175.4,400.8a17.21,17.21,0,0,0,0,4c.3,1,1.7,2.5,2.7.4.8-1.7-.2-5.3-.2-5.3Z"/><path class="cls-27" d="M182.8,398.3s.3.9,2.2,1.9c1.2.6,2,1.3,2,2.1s-3.6,1-7-2.4Z"/><path class="cls-28" d="M179.1,399.8s2.8,1.2,3.7-1.5c0,0,.3-14.1,2.5-24.3s4.6-25.9,4.4-27.4l-11.5,4.3Z"/><path class="cls-27" d="M195.8,329.7a2.78,2.78,0,0,0,1.5.8,4.94,4.94,0,0,1,3,1.6c.9,1,1.1,1.7,2,2.2s.7.9.3,1.3-2.1.1-2.7-1.4a7.09,7.09,0,0,0,1.1,2.4c.7.8,1.7,2.4,1.2,3.4s-2.1,1.1-3.9.5-4.5-1.9-5.3-5.9a3.3,3.3,0,0,0-.8-2C192.2,332.7,192.4,329.9,195.8,329.7Z"/><path class="cls-28" d="M165.5,350.3s3.5,25,7.9,48.2c0,0,.1,2.6,2,2.8,2.6.3,4.4-1.2,4.2-2.6,0,0-.4-35.7,1.2-46.7C180.9,352,173.9,342.8,165.5,350.3Z"/><path class="cls-29" d="M167.3,315.1l-2.7,26.7a1.86,1.86,0,0,0-1.6,1.9s3.2-26,2.4-30.7Z"/><path class="cls-30" d="M195.9,329s-3.3-8.4-4.1-10.2-.7-8.2-.7-8.2c-1-15.9-6.1-15.9-6.1-15.9-.5,2.5-3.6,4.9-3.6,4.9,4.4,7.3,1,9.8,1,9.8.5,1.7-.3,6.4-.3,6.4-.7-3.9-2.1-5.1-2.1-5.1-3.1,0-4.9-3.7-4.9-3.7-2.7-5.1-5.1-6.1-5.1-6.1a12.79,12.79,0,0,0-4.9,2.5c-4.9,5-6.5,20.9-6.4,24.2s4.3,10.3,4.3,10.3a12.57,12.57,0,0,0-.1,6.4l11.2,9.6a18.63,18.63,0,0,0,16.8-6.4l.3-3.4a20.62,20.62,0,0,0-.4-5.3c-.6-2.9-3-12.9-3-12.9l4.3,7.2c.7-3.1,4.1-3.2,4.1-3.2A1.67,1.67,0,0,0,195.9,329Zm-28.3-1.2-1.1,3.1-1.3-5.4A53.67,53.67,0,0,1,167,320,13.6,13.6,0,0,1,167.6,327.8Z"/><path class="cls-27" d="M172.8,296.2s.6,2.7-2.4,4.8a33.86,33.86,0,0,1,5,6.4c2.8,4.4,4.7,3.3,4.7,3.3l2.1,5.1.5-6.4s3-2.3-1.3-9.8A11.28,11.28,0,0,1,172.8,296.2Z"/><path class="cls-27" d="M170.6,293.4s-2,5.3,2.2,3.1c0,0,4,5.3,9.4,3.1,0,0,2.6-1.1,3.3-7.6,0,0,1.4-8.6-.6-10.5,0,0-10.9-7-13.9-.3A15.49,15.49,0,0,0,170.6,293.4Z"/><path class="cls-22" d="M172.2,275.9s-7,.7-7,10.9a21.86,21.86,0,0,1-1.1,5.3c-.9,2.4-.7,7.8,7.6,7.8a3.48,3.48,0,0,0,1.1-3.7s-1.7.7-1.7-1.7a15.33,15.33,0,0,0,3.2-2.9c.6-.3,1.6-.6,2.4-4,0,0,6.2.9,8.3-4.1a26,26,0,0,1,.4,5.7c0,.3-.6,1.6-.6,2-.1,1.2.5,2.1.2,3.3,0,0,2,1,2.2-5.1s-1.6-7.4-3.5-10C183.7,279.2,178.3,272.6,172.2,275.9Z"/><path class="cls-31" d="M173.5,321.8s4.5.5,7.1-1.7C180.4,320.3,178.8,323.4,173.5,321.8Z"/><path class="cls-32" d="M182.7,309.5c1.5-4-1.6-8.7-1.6-8.7-1.3,0-2.4-.1-2.4-.1a8.26,8.26,0,0,1-3.3-1.3c-2.5-1.7-2.4-3-2.4-3.8,0,0,2.5,4,6.2,4.3a8.52,8.52,0,0,0,2.3,0c0-.1,4.2,6.4,1.2,9.6"/><path class="cls-32" d="M185.5,289.3s-4.7,3.7-8,2.6c0,0,1,1.8,5.1-.3l2.6-1.6Z"/><path class="cls-28" d="M167,327.2a10.16,10.16,0,0,0,1.8,2.4c1.4,1.5,6,2.4,8.9,1.5a27,27,0,0,1-.9-7.8c.1-1.8.2-3.5.2-4.8a22.6,22.6,0,0,0-1-9.2s-.6,0-2.5-3.5c-2-3.7-2.9-4.6-4.2-4.9,0,0-2.3.5-2.9,1.5,0,0,4.5,1.9,4.4,8.9-.1,7.3-3.7,9.3-3.7,9.3a8,8,0,0,0,.3,2.5C167.9,324.8,167,324.8,167,327.2Z"/><path class="cls-29" d="M165.2,303.3s4.2-.8,5.7,10.4l1.6,27.4.7,4.5,1.1.8s-1-9.6-1.2-16.2-.8-18.8-1.5-21.1-1.6-5.4-5.1-6.8A1.14,1.14,0,0,0,165.2,303.3Z"/><path class="cls-31" d="M169.2,310.4A18.94,18.94,0,0,1,167,320S171.1,314.2,169.2,310.4Z"/><path class="cls-31" d="M168.9,315.4a3.57,3.57,0,0,0,1.3-2.2,3.06,3.06,0,0,1-1.5,3.1Z"/><path class="cls-28" d="M182.6,299.4s3.7,5.1,2.9,19.1c0,0,0,4.3-.3,7a17.26,17.26,0,0,0,.2,5,5,5,0,0,0,3.3-2,4.3,4.3,0,0,1,.7-.7s-.6-11.6-.3-12.6a9,9,0,0,0,.9-3.9c-.2-1.7-2.3-4.5-3.3-7.4s-2.6-6.5-2.6-6.5A4.15,4.15,0,0,1,182.6,299.4Z"/><path class="cls-22" d="M176.1,289.5s-1.7,5.1-4.9,5Z"/><path class="cls-33" d="M189.1,315.2a9.7,9.7,0,0,1-2.6,2.7,5.88,5.88,0,0,0,2.6-1.8Z"/><polygon class="cls-31" points="179.8 310.8 182.2 315.8 183 309.2 182.7 309.5 182.1 314.8 180.1 310.7 179.8 310.8"/><path class="cls-29" d="M163.2,338l1.1,1.5-.1,2.2s-1.2.4-1.2,1.2A34.37,34.37,0,0,1,163.2,338Z"/><path class="cls-31" d="M166.4,330.9l2.8,6.7,1.3,1.8a7,7,0,0,1-4.4,3s-2.2-3.4-3-4.6l3.1,4a6.35,6.35,0,0,0,3.6-2.3l-1-1.7a8.07,8.07,0,0,1-4.1,1.9,31.8,31.8,0,0,0,3.9-2.1C168.7,337.5,166.6,333,166.4,330.9Z"/><path class="cls-29" d="M162.9,344.2s-.1,6.6.9,8.5c0,0,1.2,1.9,6.7,3.9a6.91,6.91,0,0,0,3.1.7,2.46,2.46,0,0,0,2.1-1.8s0-6.2-.3-6.9c0,0-.3-.9-2-1.2S162.8,341.5,162.9,344.2Z"/><path class="cls-34" d="M164.6,341.6s-1.6-.1-1.7,2.1a12.47,12.47,0,0,0,.7,4.3s2.6,2.8,4.6,3.6,4.3,1.2,5.2.5a3,3,0,0,0,.2-1.4,1,1,0,0,1,.8-.9s.9-.1.9-.6l.1-.7S166.7,342.6,164.6,341.6Z"/><path class="cls-35" d="M163.2,344s9.1,5.8,10.3,6.2C173.6,350.2,167.3,347.5,163.2,344Z"/><ellipse class="cls-36" cx="167.66" cy="349.08" rx="0.6" ry="0.8" transform="translate(-114.52 83.86) rotate(-21.12)"/><path class="cls-35" d="M162.9,347.3a12.43,12.43,0,0,0,10.3,5s-.1-2,1.2-2.5a3.09,3.09,0,0,0-.9,2.7A11.59,11.59,0,0,1,162.9,347.3Z"/><path class="cls-28" d="M181.1,353.4s-.1,16.8-1.2,24.1c0,0,.1,4.1.1,7.2s-.4,15-.4,15l-.3.5s.4-13.1.1-15.6a62,62,0,0,1-.1-7.3c0-1.1.9-22.2,1.1-23.7Z"/><path class="cls-31" d="M195,327.7a4.15,4.15,0,0,0-3.9,3.3A3.24,3.24,0,0,1,195,327.7Z"/><path class="cls-27" d="M170.3,339.7a2.51,2.51,0,0,0,1.7.8c.9,0,1.8.9,2.5,2s1.2,1.3,1.3,1.7-.2.9-1.3.5a11.08,11.08,0,0,1-1.9-.9,6.67,6.67,0,0,1,1.5,2.1c.5,1.2,1.7,1.1,2.1,2a1,1,0,0,1-1.1,1.3,5,5,0,0,1-2.7.4s-3.1-.7-4.7-4.9a14.2,14.2,0,0,0-.9-2.6A7.17,7.17,0,0,0,170.3,339.7Z"/><path class="cls-37" d="M189.5,349s-3.8,4.8-13.8,4.9v1.7a24.55,24.55,0,0,0,13.6-5Z"/><path class="cls-32" d="M183,291.9s.7,2.8.1,4.4a1.13,1.13,0,0,1-1.2.6s1-.3,1.1-2.1a7.24,7.24,0,0,0-.4-2.7Z"/><path class="cls-38" d="M171.1,294.5s0,2.3,1.8,1.7c0,0,.5,2.4-1.1,3.7a10,10,0,0,1-3.6-.4s4.3.7,4.1-1.8l-.1-.9S170.9,296.7,171.1,294.5Z"/><circle class="cls-39" cx="172.2" cy="295.9" r="0.5"/><path class="cls-39" d="M172.7,297.2a.5.5,0,0,1-1,0c0-.3.2-.9.5-.9S172.7,297,172.7,297.2Z"/><path class="cls-32" d="M172.9,296.2s.9,2.5-2.4,4.8a36.3,36.3,0,0,1,3.5,4.2s-2.2-3.3-1.3-4.4a8.2,8.2,0,0,0,1.3-2.9Z"/><path class="cls-32" d="M174,305.2s3.5,6.3,6.1,5.4l2,4.1.6-5.3-.8,3.7a11.29,11.29,0,0,0-1-3.7l.3,3-1.1-2.2s-2.6.9-7.2-6.8Z"/><polygon class="cls-32" points="180.8 300.3 180.5 302.8 181.2 301.8 181.1 300.3 180.8 300.3"/><path class="cls-39" d="M171.8,299.9s3.8,6,8.5,6c0,0,2.2.1.9-4.6,0,0,2.2,4.4-.4,5.1C180.7,306.5,176.3,308.1,171.8,299.9Z"/><path class="cls-39" d="M180,306.5s1.2,1.2,1.3-.4Z"/><polygon class="cls-31" points="179.8 321.1 176.7 324.2 176.9 322.1 179.8 321.1"/><path class="cls-31" d="M167.8,318.5l.2,1.4-.8.6-.2-.6A3.41,3.41,0,0,0,167.8,318.5Z"/><path class="cls-31" d="M158.8,328.1s2.6,8.1,5.8,11.9l2.3-.9-2,.5A49.5,49.5,0,0,1,158.8,328.1Z"/><path class="cls-31" d="M165.1,325.7a3,3,0,0,0-2.1-2.1S165.7,323.2,165.1,325.7Z"/><path class="cls-31" d="M183.4,317.6l-2.4,5.7S182.8,321.6,183.4,317.6Z"/><ellipse class="cls-28" cx="179.83" cy="311.73" rx="0.6" ry="0.3" transform="translate(-142.36 151.4) rotate(-33.56)"/><ellipse class="cls-28" cx="182.53" cy="316.44" rx="0.6" ry="0.3" transform="translate(-145.53 155.73) rotate(-33.92)"/><path class="cls-37" d="M181.1,353.4s-.7,18.1-1.4,24.8c0,0-.2,20.1-.4,21.1,0,0-1.8,3.2-5.4.7a2.39,2.39,0,0,0,3,1.4,3,3,0,0,0,2.8-1.7l.4-21.8,3.2-25Z"/><path class="cls-32" d="M172.5,343.2s-.1.2.4.8,1.1,2.1,1.6,2.7,2.1.5,1.7,1.8c0,0,.4-.6-1.6-1.4C173.3,346.3,173,344.3,172.5,343.2Z"/><path class="cls-32" d="M199.9,334.2a1.29,1.29,0,0,0-1.8-.7,3.13,3.13,0,0,1-2.6-.3s.4,1.2,2.4.9A1.73,1.73,0,0,1,199.9,334.2Z"/><path class="cls-32" d="M195.8,329.7s-2.9.6-3.6,3a4.12,4.12,0,0,1,.8,2,7.39,7.39,0,0,0,4.5,5.6,8.45,8.45,0,0,1-4.1-6.1c-.7-4.3,3.6-3.7,3.6-3.7Z"/><path class="cls-32" d="M199.3,336l-2.8,2S197.6,336.1,199.3,336Z"/><polygon class="cls-33" points="176.9 322.1 173.3 323.5 174.1 324.6 174.2 325.9 176.7 324.2 176.9 322.1"/><path class="cls-32" d="M175.3,402.5a5.68,5.68,0,0,0,3.1,0l-.2-1.5s-.7.5-2.8.3Z"/><path class="cls-32" d="M170.3,339.7a6,6,0,0,1-3.5,2.4,24.15,24.15,0,0,1,.9,2.6,8.48,8.48,0,0,0,2.4,3.5s-2.6-3.4-2-4.9a3.5,3.5,0,0,1,3-2,11.05,11.05,0,0,0,1.8-.2A24.1,24.1,0,0,0,170.3,339.7Z"/><path class="cls-32" d="M180.1,400.1l1,.9s3-.5,1.7-2.7A2.56,2.56,0,0,1,180.1,400.1Z"/><path class="cls-27" d="M337.8,301.9l.5,10.8c3.4,0,2.6-5.1,2.6-5.1s-.2,1.4,1.6,1.3.9-.9.9-.9c-.6-1.2-.7-3.3-1-4.6a15.49,15.49,0,0,0-1.2-3A11.9,11.9,0,0,1,337.8,301.9Z"/><path class="cls-40" d="M337.5,272.5c.1,1.7-.1,3.3,0,5s.2,3.3.3,5,.2,3.2.3,4.9a41.93,41.93,0,0,1,.3,5l.3,5c.1,1.7.2,3.3.2,5-.3-1.7-.4-3.3-.6-5l-.5-5c-.2-1.7-.3-3.3-.4-5s-.3-3.3-.4-5-.2-3.3-.2-5,.2-3.3.2-5,0-3.3,0-5-.1-3.3-.1-5C337.2,265.8,337.5,269.1,337.5,272.5Z"/><path class="cls-40" d="M338.6,267.1a15.14,15.14,0,0,1-.2,3,8,8,0,0,1-.3,1.5,4.58,4.58,0,0,1-.8,1.3h-.1a4.3,4.3,0,0,1,0-1.6c.1-.4.3-1,.4-1.4l1-2.8Z"/><path class="cls-40" d="M338.5,298.3l-.1-.4c2.2-.5,2.8-1.5,2.8-1.5A2.84,2.84,0,0,1,338.5,298.3Z"/><path class="cls-32" d="M343.6,308.3c.1.3-.5.5-.5.5a2.48,2.48,0,0,1-2-.3,2.91,2.91,0,0,1-.8-1.1,2.28,2.28,0,0,1,.1-1.9,6.73,6.73,0,0,0,.1,1,5.19,5.19,0,0,0,.5,1.2c1.2,1.9,2.4.4,2.4.4Z"/><path class="cls-32" d="M340.3,306c-1,.1-1.3-.3-1.3-.3v-.9c.2.7,1.3.6,1.3.6Z"/><path class="cls-41" d="M311.1,364.5s-1.1,2.1-.8,3,8.4,9.4,10.8,8.6,2.8-1.6,2.5-2.5-5.3-7.8-5.3-7.8C314.8,368.4,311.1,364.5,311.1,364.5Z"/><path class="cls-42" d="M319.3,367.3s-4.4,2.8-8.6-1.6l.4-1.2s4.7,3.2,7.2,1.3Z"/><path class="cls-41" d="M324.7,358.1s-1,2.4-.7,3,8.5,8.4,10.3,8.3a3.31,3.31,0,0,0,2.9-2.6c0-.9-5.2-6.8-5.2-6.8Z"/><path class="cls-42" d="M332.5,360.7s-4.9,2.2-8.1-.7l.4-1.9a7.32,7.32,0,0,0,6.9,1.3Z"/><path class="cls-43" d="M333.4,302c-4.4,2.9-19.4,5.9-19.4,5.9-.3,3.1.3,36,.3,36,.7,5.2-3.5,18.9-3.5,18.9s-.9,3,3.3,4.1,4.8-1.9,4.8-1.9,4.8-17.7,5.5-20.3,1.6-20.3,1.6-20.3c1.6,5.4,2.4,11.2,2.2,14.5s-4.4,18.3-4.4,18.3c1.2,3.9,5.7,3.5,7.1,3a2.27,2.27,0,0,0,1.5-2.4c.6-2.6,5.2-17.8,5.2-19.8s-.8-24.4-.8-24.4C336.8,303.8,333.4,302,333.4,302Z"/><path class="cls-44" d="M319.3,261l-.4,1.4c.6,3.8,4.1,10,5,13.2s-.3,12,.3,17.1a42.79,42.79,0,0,1-.6,11.2c4.5.2,9.8-3.8,9.8-3.8s.3-3.2.3-5.1-.3-16.7,0-23.5-2.3-9.8-2.3-9.8Z"/><path class="cls-45" d="M328.9,266l-1.7,2.1,1.5,2.1a1.07,1.07,0,0,0,1.6-.3c.7-1,1.3-2.7,1.1-2.9A7,7,0,0,0,328.9,266Z"/><path class="cls-45" d="M329,270s-2.2,19-2.3,19.3a37.06,37.06,0,0,0,3.2,4.1,49.77,49.77,0,0,0,2.7-5.7c.2-2.6-2.4-18.1-2.4-18.1Z"/><path class="cls-46" d="M319.8,258.5c-1.9.8-2.4,3.8-2.4,3.8s-5.8,4-7.4,6.3-1,4.3-1.3,7.8-2.4,12.5-2.3,17.2,2.9,14,2.9,14a19.29,19.29,0,0,0-1.3,4.9c3.4,4,9.5,3.9,9.5,3.9a10.38,10.38,0,0,0,6.8-.9,27.2,27.2,0,0,1,.1-5.7c.4-2.5-.6-5.8,0-9.9s0-11.5.3-18.6-2.7-12.1-4.6-16-.3-5.1-.3-5.1Z"/><path class="cls-46" d="M331.4,261.4c2.3,2.7,2.5,12,2.2,15.6s0,8.4,0,13.5.3,16.5.4,19-.6,5.2.1,5.6,1.5-.4,2.9-1.3a7,7,0,0,0,2.2-2.7c.2-2.6-.3-9.1-.3-9.1.6-.2,2.3-1.1,2.4-1.6a14.67,14.67,0,0,0,.1-3.1c0-1-.3-1.6-.4-3.5s-.8-14.6-.9-17.5S340,261,340,261a5.42,5.42,0,0,0-5.9-5.2A30.75,30.75,0,0,0,331.4,261.4Z"/><path class="cls-47" d="M326.9,269.9a33.19,33.19,0,0,1-8-7.6c.1-1.7.7-2,.7-2A28.88,28.88,0,0,0,329,266,27.7,27.7,0,0,0,326.9,269.9Z"/><path class="cls-47" d="M331.5,261.7a10,10,0,0,1,1.1,6.2,17.55,17.55,0,0,1-3.6-1.7,5.8,5.8,0,0,0,1.1-3.2A4.25,4.25,0,0,0,331.5,261.7Z"/><path class="cls-27" d="M311.6,314.5c-.8,1.2-1,5.5-.6,7.1a7,7,0,0,0,3,4c1.7,1.2,2.3.2,2.4-.3s-.6-3-.7-3.6c-.2-.9-.7-3.5.3-3.4s.4,2,.6,3,1.4.7,1.6.3.1-.9.4-1.7-.5-3.1-.5-3.1c-.8-2.6-1.5-3.2-1.5-3.2A4,4,0,0,1,311.6,314.5Z"/><path class="cls-48" d="M318.1,278.7c-.2.8-.3,1.6-.5,2.4-.7,3-1.4,6.1-2,9.2a16,16,0,0,0-.3,2.3,19.22,19.22,0,0,0,0,2.4l.2,4.8c.2,3.1.3,6.4.5,9.5v-.1a21.18,21.18,0,0,1,.5,4.4v.1h0a2.3,2.3,0,0,1-1.7,1.2,6.28,6.28,0,0,1-1.9.3,3,3,0,0,1-1.8-.6,2.7,2.7,0,0,1-1-1.7h0c-.4-2.2-.9-4.4-1.3-6.5.6,2.2,1.1,4.3,1.7,6.4h0a2.81,2.81,0,0,0,1,1.4,2.73,2.73,0,0,0,1.6.4,4.67,4.67,0,0,0,1.7-.3c.3-.1.5-.2.8-.3a1.18,1.18,0,0,0,.5-.5v.1a20.26,20.26,0,0,0-.6-4.2h0c-.3-3.1-.4-6.4-.6-9.5-.1-1.6-.2-3.2-.2-4.8v-2.4q.15-1.35.3-2.4a78.26,78.26,0,0,1,1.9-9.4c1-3.5,1.7-6,1-9.2C319.2,274.3,318.2,277.9,318.1,278.7Z"/><path class="cls-48" d="M314.8,310.4a3.82,3.82,0,0,1-1.6.6,3.22,3.22,0,0,1-1.7-.1,5.48,5.48,0,0,1-1.5-.8c.5,0,1,.1,1.6.1a7.57,7.57,0,0,0,1.5-.1,7,7,0,0,0,1.4-.3,9.38,9.38,0,0,0,1.5-.6A2.76,2.76,0,0,1,314.8,310.4Z"/><path class="cls-49" d="M333.7,303.5c-3,2.9-9.3,3.7-9.3,3.7l-.3-3.8c6.3-.9,9.3-4,9.3-4Z"/><path class="cls-50" d="M327.1,302.7l.1,4.2a17.62,17.62,0,0,0,4.2-1.7c.7-2.9-.1-4.3-.1-4.3A14.74,14.74,0,0,1,327.1,302.7Z"/><path class="cls-51" d="M329.7,315.8c-3.9,2.9-3.7,9.4-3.7,9.4v-2a11.07,11.07,0,0,1,1.5-6.3l-2.6.7,4.2-2.8,1.7-7.2Z"/><ellipse class="cls-52" cx="329.8" cy="296.3" rx="0.5" ry="0.7"/><path class="cls-48" d="M323.5,298c-.1-1.1-.2-2.3-.3-3.3s-.3-2.2-.5-3.2c-.4-2.2-1-4.3-1.6-6.4l-.8-1.5-.1-.4-.1-.2v-.3l.3-.9c.3-1,.7-2.1,1-3.1l.3.5a5.27,5.27,0,0,1-1.2-.3c-.2,0-.4-.2-.6-.3a3.17,3.17,0,0,1-.5-.6,3,3,0,0,1-.1-1.3l.1-1.1a10.87,10.87,0,0,0-.5-4.4c-.5-1.4-1.1-2.9-1.5-4.4a14.24,14.24,0,0,1-.2-4.6,13.55,13.55,0,0,0,.5,4.5,29.44,29.44,0,0,0,1.7,4.3,12.06,12.06,0,0,1,.8,4.6v1.1a2.79,2.79,0,0,0,.1,1,1.44,1.44,0,0,1,.3.2c.1.1.3.1.4.2a3.55,3.55,0,0,0,1,.2h.5l-.2.5c-.3,1-.6,2.1-1,3.1-.1.2-.1.5-.2.7l.2.6.4,1.6c.6,2.1,1.1,4.3,1.5,6.4a18.41,18.41,0,0,1,.3,3.3c.1,1.1.1,2.2.2,3.3.1,2.2.2,4.4.3,6.5C323.9,302.3,323.6,300.1,323.5,298Z"/><path class="cls-27" d="M330.3,262.9c.4-.2,3.6-3.4,3.8-7.1a8.3,8.3,0,0,0-.2-3,2.57,2.57,0,0,1,.1-1.5,3.78,3.78,0,0,0,.1-1.4s.3-3.5-.7-4.4-6.8-8.8-13.1-5.1a4.22,4.22,0,0,0-1.3,3.7c.1.3-.2,7.6-.2,7.6s-1.8-.6-1.9,1.6.4,4.2,1,4.6,1.2.8,1.7.6l-.2,1.9a24.13,24.13,0,0,0,9.3,5.7A5.18,5.18,0,0,0,330.3,262.9Z"/><path class="cls-22" d="M322.9,243.8a13.68,13.68,0,0,0,9.7,2.1c1.4,0,5-2.2,2.3-6.4,0,0-1.8-2.8-5.2-.7-1.6-.6-3.5-2.3-5.7-1.7s-5.7,2.3-6.1,3.4a4.22,4.22,0,0,0,0,2.4s-1.3.4-1.3,2.6,0,6.4.4,7.8c0,0,.5-2.2,2.4-1a4.14,4.14,0,0,1,1,2.8l.1,1.6,1.6.7-.2-1.7a2.39,2.39,0,0,1,.5-1.4,4.45,4.45,0,0,0,1.3-2.4c.4-1.7-2.7-5.1-2.7-5.1C321,244,322.9,243.8,322.9,243.8Z"/><path class="cls-32" d="M329.1,266c.1-1-.1-1.7-.6-2-1-.6-2.1-.5-3.5-1.2-3.4-1.7-3-3.9-3-3.9a7.45,7.45,0,0,0,2.8,3c3.6,2,5.4,1,5.4,1A4.89,4.89,0,0,1,329.1,266Z"/><path class="cls-32" d="M333.7,252a13.94,13.94,0,0,1-6.5,3c-2.7.5-3-1-3-1s.5.5,3,.3a18,18,0,0,0,4-1.5,7.07,7.07,0,0,0,3-1.8A1.55,1.55,0,0,0,333.7,252Z"/><path class="cls-32" d="M319.6,260.4a31.91,31.91,0,0,0,3.7,3c-2.3-1.9-2.1-5.8-2.1-5.8-.3.1-.5.6-.7.7a1.69,1.69,0,0,1-.7.3Z"/><path class="cls-32" d="M319.5,254.8c.3.6-.4.8-.7.6s-.1-2.2-.4-1.5.2,2.3.7,2.4-.1-.8.5-.7.6.8.6.8a.94.94,0,0,1-1.6.6c-.7-.6-1.2-3.7-.3-4.1S320,254,320,254C319.7,254,319.3,254.2,319.5,254.8Z"/><path class="cls-48" d="M333.7,310.3s-.1-4.4,0-5.3c.3-3.4,1.1-11.5,1.7-14.6.8-4.1-.2-8.6-.5-10.6s1.5-2.3,1.6-3.9-1.4-6.1-1.4-6.1c-.3-7.9-2.4-9.9-2.4-9.9l-1.4,2,1.4,3.5c1,4.4.4,11.5.3,15.2-.2,2.6-.1,21.3.5,28.6Z"/><path class="cls-48" d="M319.8,258.5l-.2,1.8s-1.2,1.8.6,5.2a33,33,0,0,1,4.5,13.5c.3,5.4-.7,23.2-.4,25.1,0,0-.5-9.7-1.4-13.1s-2.5-8.2-2.1-8.9a18.81,18.81,0,0,0,.9-3.3s-1.6-.5-1.8-1.2.3-4.6-.7-6.7-3-7.2-1.5-10.2C317.8,260.8,318.4,259.1,319.8,258.5Z"/><path class="cls-48" d="M339.1,263.3s-.9,3.3-1.2,4.9c0,0,.7,30.9,1,33.8,0,0-1.6-16.7-1.6-33.2a36.24,36.24,0,0,0-.1-4.4l.5,2.3C337.6,266.8,338.7,264.6,339.1,263.3Z"/><path class="cls-48" d="M317.4,274.6s.8,3.5.1,5.8l-.5,1.4A55.06,55.06,0,0,1,317.4,274.6Z"/><path class="cls-51" d="M329.1,314.8l4-1.5a25.31,25.31,0,0,1-4.4,3Z"/><path class="cls-52" d="M333.2,299.8s-2.6,2.8-9.1,3.6c0,0,.7-19.1.7-20.6s.3-7.6-2.8-13.8-2.5-5.5-2.7-6.2c0,0,3.6,4.9,7.6,7.2l.6-1.4a13,13,0,0,0,1.5,1.9l-1.2-.6-.8,1.4a48.9,48.9,0,0,1-5-3.6s3,1.5,3.6,12.2a108.85,108.85,0,0,1-.7,21.3s-.1.7-.3,1.5c6.2-.5,8.7-3.9,8.7-3.9Z"/><path class="cls-32" d="M331.3,254.7s1,2.8.3,4.1c0,0-.3.4-1.3.4s-1.1-.3-1.1-.3a3.64,3.64,0,0,0,2.1-.8Z"/><path class="cls-52" d="M332.6,264.4s.9,1,.9,8.2l-.3,26.7-.6.7s.5-20.2.2-23.2-.3-8.2-.3-8.2l-1.2-.8.1-.5,1.2.6C332.6,268,333,267.1,332.6,264.4Z"/><path class="cls-32" d="M311.6,314.5s2.3,1.7,5-1c0,0,.9.6,2,5.1,0,0-1.4-4-2.3-3.2a4.89,4.89,0,0,1-5.1.5C311.1,315.9,311.1,315.1,311.6,314.5Z"/><path class="cls-32" d="M341.3,300.4a4.49,4.49,0,0,1-2.4,1.6v.8a28.52,28.52,0,0,0,2.9-1.4Z"/><path class="cls-9" d="M213.9,316.7a19.41,19.41,0,0,0-1,8.4s.9,4.1,4.1,4.6c0,0-.5-6.6.5-8.3s-.5-3.9-.5-3.9Z"/><path class="cls-53" d="M213.7,317.5a3.41,3.41,0,0,0,4.1.7v.9l-1.4,1.8s.1-1-1.3-1.2a12.94,12.94,0,0,1-2-.4S213.5,318,213.7,317.5Z"/><path class="cls-53" d="M215.1,320.9a30.06,30.06,0,0,0-.1,4.5c.2.9,1.2.7,1.3-.3a10.62,10.62,0,0,1,.4-2.9,3.1,3.1,0,0,0,.6-1.3s.4.4-.5,1.9l-.2,2.3s-.1,1.2-1,1.1-1-1.3-1-2C214.7,323.8,214.6,320.7,215.1,320.9Z"/><path class="cls-54" d="M228.5,376.8s-3.4,3-4.9,4.6-.1,3.6,2.4,2.6a35.5,35.5,0,0,0,8.1-4.6l.3,1s.7.6.9-.6,1-4.9-.2-5.9C235.1,374,232.3,378.3,228.5,376.8Z"/><path class="cls-9" d="M229.9,356.7s1.2,14.4.3,17a12.85,12.85,0,0,1-2.7,4.4s-2.3,2.5.7,1.9a11.88,11.88,0,0,0,6.7-4.1c.8-1.2-.6-2.7.2-6s2.8-8.9,3-13.9Z"/><path class="cls-53" d="M230,358.8s5.2.9,7.9-.9l.3-2.1-8.4.9Z"/><path class="cls-54" d="M217.8,371.4a26.56,26.56,0,0,0-4.9,4.6c-1.3,1.8-.1,3.6,2.4,2.6a35.5,35.5,0,0,0,8.1-4.6l.3,1s.7.6.9-.6,1-4.9-.2-5.9C224.4,368.6,221.6,372.8,217.8,371.4Z"/><path class="cls-9" d="M219.2,351.2s1.2,14.4.3,17a12.85,12.85,0,0,1-2.7,4.4s-2.3,2.5.7,1.9a11.88,11.88,0,0,0,6.7-4.1c.8-1.2-.6-2.7.2-6s2.8-8.9,3-13.9Z"/><path class="cls-53" d="M219.5,355.6s2.9,3.2,6.7,2.1l.4-1.4-7.3-2.8Z"/><path class="cls-55" d="M218.5,318a6.39,6.39,0,0,0-2.5,4.3c-.3,2.8-1.9,24.2-1.9,24.2a3.44,3.44,0,0,0,.4,3.5c1.2,1.8,11,10.2,23.3,6.5,0,0,6.9-2.2,7.3-7L243,327.3Z"/><path class="cls-9" d="M240.1,289.7s-4.2-1.4-6.4,4.9a9.67,9.67,0,0,0-1.3,5.5s9.9,1.5,10.6-5.2C243,295,242.5,290.5,240.1,289.7Z"/><polygon class="cls-56" points="234.3 341.9 233.6 352.3 248.9 344.1 249 333.9 234.3 341.9"/><path class="cls-53" d="M236.3,295.8l1.1,4.7.4-.1C237.8,300.5,237.6,296.8,236.3,295.8Z"/><path class="cls-57" d="M219.4,271.4s.7,4.1,0,6.7-.8,4.7,2.2,5.6l1.6.2s-1.5-9.8-.8-13.1C222.4,270.9,219.5,268.6,219.4,271.4Z"/><path class="cls-9" d="M238,330.3a6.73,6.73,0,0,0-1.3,4.2,26.86,26.86,0,0,1-.6,5.3s.1.7,1.1.3,1-1.5,1.1-2.5a11.58,11.58,0,0,1,.2-1.5,17,17,0,0,1,0,4.8c-.4,2.2,1.9,1.4,3.1.4s2.7-6.2,1.5-9.9C243.1,331.2,239.6,331.7,238,330.3Z"/><path class="cls-53" d="M237.9,330.5s3.2,1.6,5.2.7a5.21,5.21,0,0,1,.4,2.3,2.06,2.06,0,0,0-2.3-1.1c-2.7.2-3.6.3-3.8,2.3a13.07,13.07,0,0,1-1.2,4.8s.5-4.5.4-5.4S237.1,330.9,237.9,330.5Z"/><path class="cls-57" d="M219.5,271.8a7.86,7.86,0,0,1,4.8-8.5s4-2.2,6.7-1.5,7.4,2.3,8,5.8-.8,5.5,1,9.8,4,8.7.1,12.4c0,0-4-1.4-5.1-2.3-2.1-1.9-1.6-3.5-1.8-5.4A7.89,7.89,0,0,1,231,277v-2.8C231.1,273.9,222.6,276.2,219.5,271.8Z"/><path class="cls-58" d="M221,281.3s-5,1.1-5.8,7.5-1.5,15.4-2,18.1-2.4,7.9,0,10.3,4.4,1,4.4,1l-.6-.7s1.7,3.7,4.7,4.6,4.2.8,7.4,4.2,6.6,3.2,8.7,2.1a9,9,0,0,0-.2,1.3c0,.4-.5,1.1,2.2,1.7s4.3-.4,4.5-1.4,2.1-10.8,2.5-12.6,1-2.6,0-8.6a99.83,99.83,0,0,0-4.4-16,4.62,4.62,0,0,1-.9,4.6c-1.9,2-8.4,2.6-9.8,2.3-2.3-.6-8.8-2.3-9.9-12a4.46,4.46,0,0,1,.5-3.1A9.64,9.64,0,0,1,221,281.3Z"/><path class="cls-9" d="M233.3,282.4a5.1,5.1,0,0,0,2.1,4.8s1.2.7,1.5.8a113.23,113.23,0,0,0-7.4,11.3,12,12,0,0,1-7.1-7.9s-1.6-4.1-.1-6.9c0,0,3.5,2.6,6.6,1.6s4.1-4.4,4.1-4.4Z"/><path class="cls-53" d="M222.2,284.6a14.38,14.38,0,0,0,.9,7.8s1.6,5,5.1,6.3l-1.8-1.5.3-1.1-.9.5s-4-6.9-3.2-11.5Z"/><path class="cls-9" d="M220.4,272.8a43.57,43.57,0,0,0,.5,8.5c.7,3.1,2.3,5.5,5.7,5.5,2.9,0,5.7-.9,6.4-4.5a1.29,1.29,0,0,0,1.9-.4,1.06,1.06,0,0,0,0-.6s-3.3-1.8-3.5-4.1a14.78,14.78,0,0,1,.1-3.8S224.4,276.1,220.4,272.8Z"/><path class="cls-59" d="M232.7,299.8a13.69,13.69,0,0,1,.6-4c2.3-7.1,6.8-6.2,6.8-6.2-.8-1.9-3.2-1.7-3.2-1.7a9.38,9.38,0,0,0-3.4,2.1c-3.4,3.2-2.1,8.3-5.3,8.5C228.2,298.7,232,300.2,232.7,299.8Z"/><path class="cls-53" d="M222.4,284.6a6.19,6.19,0,0,0,6.1,2,6,6,0,0,0,3.8-2.3,4.75,4.75,0,0,1-4.6,3C224.5,287.4,223.6,286.1,222.4,284.6Z"/><path class="cls-53" d="M233.4,286a5.14,5.14,0,0,0,2.8,1.7c-2.4-1.5-1.9-5.3-1.9-5.3a1,1,0,0,1-1,0c0,.3-.2-.8-.8,1.2,0,0,0,2.1-4.4,3.7A27.27,27.27,0,0,0,233.4,286Z"/><path class="cls-60" d="M238.7,338.1l-5.9,3.2-.7,10.4,1.5.6.7-10.4,4.4-2.3A7.44,7.44,0,0,0,238.7,338.1Z"/><polygon class="cls-60" points="243.5 335.5 243.3 337.1 249 333.9 247.7 333.3 243.5 335.5"/><path class="cls-61" d="M218.5,290.4a9.57,9.57,0,0,1-.4,5.7c-1.2,2.8-2.2,7.4,1.6,9.9,0,0-4.8-1.9-2.8-8.5A18.68,18.68,0,0,0,218.5,290.4Z"/><path class="cls-61" d="M222.2,284.6s-1.9,8.4,6.3,14.3C228.5,298.9,218.8,293.9,222.2,284.6Z"/><path class="cls-61" d="M221.1,294.2s2.6,11.6,12,12.8C233.1,307.1,222.9,306.1,221.1,294.2Z"/><path class="cls-61" d="M223.5,294.4s1.5,10.3,10.7,8.9c0,0-7.9.8-10.1-8.1Z"/><path class="cls-61" d="M224.3,295.6s2.8,5.2,7,5.9c0,0-4.5-.1-7.1-5.3Z"/><path class="cls-61" d="M218.5,305.4s1.5,4.9,1,7.2l-.9-4.9a58.17,58.17,0,0,1-1,8.4,3.29,3.29,0,0,0,.5,3s-.6,0-1-1a14.74,14.74,0,0,1,.3-3.5c.4-2.1,1.1-9,.7-9.7Z"/><path class="cls-61" d="M222.9,311.3s5.7,10,13.4,5.1C236.3,316.4,230.2,320.1,222.9,311.3Z"/><path class="cls-61" d="M238.6,301.5s1.4,9.7,1.5,11.4-1.9,14.6-1.9,15.8.7,2.2,2.9,2.3,2.2-.2,3-1.1c0,0-.2,1.8-3,1.5,0,0-3.1.1-3.6-1.2,0,0-.3-.5.3-2.9a126,126,0,0,0,1.9-14.3C239.7,313.1,237.7,301.9,238.6,301.5Z"/><path class="cls-61" d="M239.1,308.5s.5,5.7-3.4,6.8c0,0,3.4-1,3.7-5.5Z"/><path class="cls-61" d="M240.5,307.4s2.9,2.8,4.3-.4C244.8,307,243.9,311.2,240.5,307.4Z"/><path class="cls-61" d="M244.9,307.8s-.9,4.1-3.5,2.7c0,0,2.2.8,3.4-3.3Z"/><path class="cls-61" d="M245.2,315.6s-1.1,4.1-4.2,4.7a4.33,4.33,0,0,0,3.4-2.4s-1,4.1-3.5,4.2C240.9,322.1,244.4,322.2,245.2,315.6Z"/><path class="cls-61" d="M224.9,321.6a10.81,10.81,0,0,1,4,4c2.1,3.2,6.8,3.4,6.8,3.4a8.13,8.13,0,0,1-7.7-3.8c-2.8-4.5-3.5-3.7-3.5-3.7"/><path class="cls-61" d="M214.2,303.4s-.2,4.2,2.9,4.4C217.1,307.8,215.1,307.3,214.2,303.4Z"/><path class="cls-53" d="M221,276.7s2.6,3,8.9,2.1C229.9,278.7,222.7,280.8,221,276.7Z"/><path class="cls-53" d="M223.5,279.5l-.1,2.6s.5.9,2.1.7l.2-.3a2.36,2.36,0,0,1-1.9-.5C223.7,281.9,223.9,278.7,223.5,279.5Z"/><path class="cls-53" d="M237.9,334.5a7.73,7.73,0,0,0,.6,1.7c.5,1.1.1,4.2.1,4.2s-.5,2,.6,1.9c0,0-.7-.1-.3-1.9S239.4,335.6,237.9,334.5Z"/><polygon class="cls-53" points="235.8 297.2 237.1 298.7 236.9 297.7 235.8 297.2"/><path class="cls-53" d="M240.1,289.7s-6.5-.9-7.4,10.1a20.79,20.79,0,0,0,4.3-.5l-3.6-.1C233.4,299.3,233.5,290.7,240.1,289.7Z"/><polygon class="cls-53" points="224.3 286.2 224.7 287.8 225.2 287.9 225.3 287 224.3 286.2"/><polygon class="cls-56" points="238.6 339.2 233.9 341.7 233.3 352.1 233.6 341.6 238.7 339 238.6 339.2"/><polygon class="cls-56" points="238.4 338.7 233.3 341.6 232.7 352 232.3 351.7 233 341.3 238.6 338.3 238.4 338.7"/><polygon class="cls-56" points="243.6 335.7 248 333.6 248.2 333.8 243.4 336.2 243.6 335.7"/><polygon class="cls-56" points="243.6 336.4 248.5 333.9 243.5 336.8 243.6 336.4"/><path class="cls-62" d="M220,330.9s1.4,17.8,7.5,19.7A39.33,39.33,0,0,1,220,330.9Z"/><path class="cls-63" d="M217.8,371.4s-6.2,4.1-5.5,6.5,5.3.8,11.1-3.9c0,0-7.6,6-10.4,4.1C213.1,378.1,211,376.6,217.8,371.4Z"/><path class="cls-63" d="M228.4,376.9s-6.2,4.1-5.5,6.5,5.3.8,11.1-3.9c0,0-7.9,5.7-10.4,4.1C223.7,383.7,221.7,382.4,228.4,376.9Z"/><g class="cls-64"><path class="cls-65" d="M268.8,628.1s-5.2,6.8-5.5,7.8.1,1.7,2.5,2.5,10.5-7.8,10.8-8.6-.9-3.1-.9-3.1S272.3,630.7,268.8,628.1Z"/><path class="cls-65" d="M255.3,621.9s-5.5,6.3-5.5,7.2a3.19,3.19,0,0,0,2.9,2.6c1.7.2,10-7.7,10.3-8.3s-.7-3-.7-3Z"/><path class="cls-66" d="M250.1,576s-.8,22.4-.8,24.4,4.6,17.2,5.2,19.8a2.21,2.21,0,0,0,1.5,2.4c1.5.4,5.9.9,7.1-3,0,0-4.2-15-4.4-18.3s.6-9.1,2.2-14.5c0,0,.9,17.7,1.6,20.3s5.5,20.3,5.5,20.3.6,3,4.8,1.9,3.3-4.1,3.3-4.1-4.2-13.7-3.5-18.9c0,0,.6-32.8.3-36,0,0-15.1-3-19.4-5.9C253.5,564.3,250.1,566.1,250.1,576Z"/><path class="cls-9" d="M245.7,562.7a10.74,10.74,0,0,0-1.2,3c-.3,1.3-.3,3.4-1,4.6,0,0-.9.8.9.9s1.6-1.3,1.6-1.3-.8,5.1,2.6,5.1l.8-.1-.3-10.7C249.1,564.1,246.7,563.5,245.7,562.7Z"/><path class="cls-10" d="M245.8,562.6a8,8,0,0,0,2.3,1.6v1a3.82,3.82,0,0,0-2.7-1.7Z"/><path class="cls-67" d="M260.1,591c-.3,0-1,.6-.9,2.3s-.3,15.1-.3,15.1a1.59,1.59,0,0,0,1.1,2.2c1.8.6,3.4,1.6,4.6.9s19.5-11.7,19.5-11.7a1.69,1.69,0,0,0,1.2-1.7c0-1.4.1-16.6.1-16.6l-5.7.4Z"/><path class="cls-68" d="M255.4,524s-2.5,3-2.3,9.8-.1,21.7,0,23.5.3,5.1.3,5.1,5.3,4,9.8,3.8a43.27,43.27,0,0,1-.6-11.2c.6-5.1-.5-13.8.3-17.1s4.4-9.4,5-13.2l-.4-1.4Z"/><path class="cls-69" d="M255.6,529.3c-.2.2.4,1.9,1.1,2.9a1.07,1.07,0,0,0,1.6.3l1.5-2.1-1.7-2.1A5.88,5.88,0,0,0,255.6,529.3Z"/><path class="cls-69" d="M256.6,531.8s-1.3,8.6-2.4,16.6a42.59,42.59,0,0,0,2.8,7.2s2.5-4.3,3.2-5.7c-.1-.3-2.3-17.8-2.3-17.8Z"/><path class="cls-70" d="M267.3,522.6s1.6,1.1-.3,5.1-4.9,9-4.6,16,.1,13.7.3,18.5c.2,4.1-.5,7.5-.1,10a27.2,27.2,0,0,1,.1,5.7,11.13,11.13,0,0,0,6.8.9s6.1-.2,9.5-4.2a27,27,0,0,0-1.3-4.6s2.7-9.3,2.9-14-1.9-13.8-2.3-17.2.3-5.4-1.3-7.8-7.4-6.3-7.4-6.3-.4-3-2.4-3.8Z"/><path class="cls-70" d="M252.9,518a5.51,5.51,0,0,0-5.9,5.2s0,12.5-.1,15.3-.8,15.6-.9,17.5a13.8,13.8,0,0,1-.2,2.5,7,7,0,0,0-.4,1.9,11,11,0,0,0,.2,2.2,7.19,7.19,0,0,0,2.4,1.6s-.4,6.4-.3,9.1a7,7,0,0,0,2.2,2.7c1.4.9,2.2,1.7,2.9,1.3s-.1-3,.1-5.6.4-13.8.4-19,.3-9.9,0-13.5-.4-12.5,1.8-15.1C255.2,524.2,252.8,522.7,252.9,518Z"/><path class="cls-71" d="M250.2,524.7c0,1.7-.1,3.3-.1,5s-.1,3.3,0,5,.2,3.3.2,5-.1,3.3-.2,5-.3,3.3-.4,5-.3,3.3-.4,5l-.5,5c-.2,1.7-.3,3.3-.6,5,0-1.7.1-3.3.2-5l.3-5c.1-1.7.2-3.3.3-5a41.54,41.54,0,0,0,.3-4.9c.1-1.7.2-3.3.3-5s-.1-3.3,0-5A66.87,66.87,0,0,1,250.2,524.7Z"/><path class="cls-72" d="M257.9,528.3a26.93,26.93,0,0,0,9.4-5.7s.6.3.7,2a36.67,36.67,0,0,1-8.3,7.1A9,9,0,0,0,257.9,528.3Z"/><path class="cls-72" d="M256.8,525.1s.1,2.3,1.1,3.2a13.4,13.4,0,0,1-3.6,1.7s-.1-4.5.8-6A5.15,5.15,0,0,0,256.8,525.1Z"/><path class="cls-71" d="M248.4,529.3l.9,2.9a7.37,7.37,0,0,1,.4,1.4,4.29,4.29,0,0,1,0,1.6h-.1a9.13,9.13,0,0,1-.8-1.3,6.64,6.64,0,0,1-.3-1.5,16.33,16.33,0,0,1-.1-3.1Z"/><path class="cls-71" d="M253,571.4c.6-7.3.7-26,.5-28.6-.2-3.7-.7-10.9.3-15.2l1.4-3.5-1.4-2s-1.9,2.6-2.2,10.6c0,0-.7,6.2-1,7.2,0,0,2,3.2,1.7,5.2s-1.9,3.5-1.1,7.6c.6,3.1,1.4,11.2,1.7,14.6.1,1,0,5.3,0,5.3Z"/><path class="cls-9" d="M258,528.3a24.13,24.13,0,0,0,9.3-5.7l-.2-1.9c.5.2,1.1-.2,1.7-.6s1.1-2.4,1-4.6-1.9-1.6-1.9-1.6-.3-7.3-.2-7.7a4.22,4.22,0,0,0-1.3-3.7c-6.3-3.7-9.2.2-11.7.5s-2,4.1-2,4.1V512a3.78,3.78,0,0,0,.1,1.4,2.52,2.52,0,0,1,.1,1.5,8.06,8.06,0,0,0-.2,3c-.1,5.9,3.4,7,3.8,7.1S256.6,527,258,528.3Z"/><path class="cls-73" d="M252.2,501.6a2.48,2.48,0,0,0,2.6.4c1.6-.6,5.4-3.7,7.6-3s6.5,2.4,6.9,3.5a4.33,4.33,0,0,1,0,2.4s1.3.4,1.3,2.6-.2,6.6-.7,8.1c0,0-.6-2.2-2.4-1a4.14,4.14,0,0,0-1,2.8l-.1,1.6-1.6.7.2-1.7a2.39,2.39,0,0,0-.5-1.4,6.91,6.91,0,0,1-1.6-2.9,2.45,2.45,0,0,1,.8-2.5L266,509l-3.6,2.1a4.63,4.63,0,0,1-4.2.1l-5.5-3.1C252.6,507.9,249.6,506,252.2,501.6Z"/><path class="cls-10" d="M256.8,525.1a7,7,0,0,0,5.6-.7,8.14,8.14,0,0,0,2.6-3.3s.4,2.2-3,3.9c-1.4.7-2.5.6-3.5,1.2-.5.3-.7,1-.6,2A4.89,4.89,0,0,1,256.8,525.1Z"/><path class="cls-10" d="M252.9,513.3a7.07,7.07,0,0,0,3,1.8,24.77,24.77,0,0,0,4,1.5c2.4.3,3-.3,3-.3s-.3,1.5-3,1a15,15,0,0,1-6.5-3A3.18,3.18,0,0,0,252.9,513.3Z"/><path class="cls-10" d="M267.2,520.7a1.69,1.69,0,0,1-.7-.3c-.2-.1-.4-.6-.7-.7,0,0,.2,3.9-2.1,5.8a23.63,23.63,0,0,0,3.7-3Z"/><path class="cls-67" d="M259.9,591.8l3.9,2.2a.75.75,0,0,0,.9,0l20.5-12.2a.56.56,0,0,0,0-.9l-3.8-2.1a1.27,1.27,0,0,0-1.2,0c-1.8,1-7.3,4.3-12.2,7.1-3.5,2.1-6.7,3.9-8.1,4.9C259.5,591.1,259.6,591.7,259.9,591.8Z"/><path class="cls-10" d="M266.9,516.4s.8-1.6,1.7-1.1.4,3.5-.3,4.1a.94.94,0,0,1-1.6-.6s0-.7.6-.8,0,.9.5.7a2.53,2.53,0,0,0,.7-2.4c-.3-.6-.3,1.3-.4,1.5s-1,0-.7-.6C267.6,516.4,267.3,516.2,266.9,516.4Z"/><path class="cls-71" d="M245.7,558.7s.6,1,2.8,1.5l-.1.4S246.2,560.3,245.7,558.7Z"/><path class="cls-9" d="M270.4,575.7a15.35,15.35,0,0,0-1.7,3.9s-.8,1.8-.4,2.7.5,1.4.5,1.4l1.6-1.1s-.4-1.6.5-1.6,1.4,2.2,1.6,2.7-1.6,1.7-1.4,2.2.7,1.6,2.4.3c0,0,2.5-1.3,3.3-2.9s-.7-5.7-1.4-6.9C275.4,576.8,272.7,578.3,270.4,575.7Z"/><path class="cls-71" d="M270.4,533.6a14.22,14.22,0,0,0-1.3,5,10.85,10.85,0,0,0,.8,4.7,88.22,88.22,0,0,1,2,8.9,9.86,9.86,0,0,1,.3,2.4V557c0,1.6-.1,3.2-.2,4.8-.2,3.2-.3,6.4-.6,9.6h0a20.26,20.26,0,0,0-.6,4.2v-.1c.1.2.3.3.5.5a1.14,1.14,0,0,0,.8.3,4.67,4.67,0,0,0,1.7.3,4.19,4.19,0,0,0,1.6-.4,3,3,0,0,0,1-1.4h0c.6-2.2,1.1-4.3,1.7-6.4-.4,2.2-.9,4.4-1.3,6.5h0a4.25,4.25,0,0,1-1,1.7,3,3,0,0,1-1.8.6,6.28,6.28,0,0,1-1.9-.3,2.72,2.72,0,0,1-1.7-1.2h0v-.1a21.18,21.18,0,0,1,.5-4.4v.1c.3-3.1.3-6.4.5-9.6.1-1.6.2-3.2.2-4.8a19.22,19.22,0,0,0,0-2.4,19.67,19.67,0,0,0-.3-2.4c-.6-3.1-1.3-6.3-2.1-9.3A10.72,10.72,0,0,1,270.4,533.6Z"/><path class="cls-71" d="M271,571.4a9.38,9.38,0,0,0,1.5.6,4,4,0,0,0,1.5.3,7.57,7.57,0,0,0,1.5.1c.5,0,1-.1,1.6-.1a7.14,7.14,0,0,1-1.5.8,3.22,3.22,0,0,1-1.7.1,5.78,5.78,0,0,1-1.7-.6A2.33,2.33,0,0,1,271,571.4Z"/><path class="cls-74" d="M253.4,561.7a17.89,17.89,0,0,0,9.4,4l-.2,2v1.8s-6.3-.9-9.3-3.7Z"/><path class="cls-75" d="M255.8,563.4a6.79,6.79,0,0,0,0,4.2A7.16,7.16,0,0,0,260,569l.1-3.9A16.08,16.08,0,0,1,255.8,563.4Z"/><path class="cls-76" d="M256.1,569.8l1.7,7.2,4.2,2.8-2.6-.7a12.06,12.06,0,0,1,1.5,6.3v2s.3-6.5-3.7-9.4Z"/><path class="cls-10" d="M243.6,570.4s1.1,1.2,2.3-.7a4.78,4.78,0,0,0,.5-1.3c.1-.5.2-.9.2-.9s.6.2.1,1.4a14.81,14.81,0,0,1-.8,1.7,1.94,1.94,0,0,1-2,.5s-.6-.2-.5-.5Z"/><path class="cls-77" d="M271.7,581.8l-3.3,2.3s-.8.3-.8,1.9v2.6l1.6.6,1.3-.7v-1.7s-.1-1,.3-1.4,1.1-.7,1.7-1.2A6.28,6.28,0,0,0,271.7,581.8Z"/><ellipse class="cls-78" cx="257.2" cy="558.6" rx="0.5" ry="0.7"/><path class="cls-10" d="M246.6,567.8s1.1.1,1.3-.6v.9s-.3.3-1.3.3Z"/><path class="cls-71" d="M262.6,566.7s.4-2.7.7-8.6,2.7-12.9,2.7-13.2-1.2-4-1.2-4,1.5-.1,2-.7-.5-3.7.9-7.2,2.2-5.5,1.8-8.6c0,0-.6-3-2.4-3.6l.2,1.9s2,1.1-1,6.3c0,0-4.3,6.9-4.1,14.2,0,0,.3,8,.1,10.2S263,564.1,262.6,566.7Z"/><path class="cls-79" d="M269.1,589.1l1.3-.7v-2.1a1.49,1.49,0,0,1,.8-1.4l1.3-1a8.74,8.74,0,0,0-.3-1.4,30.28,30.28,0,0,1-2.4,1.9C268.7,585.4,269.1,589.1,269.1,589.1Z"/><path class="cls-71" d="M267.6,536.7a9,9,0,0,0,.6,3.1l.7.9a7.57,7.57,0,0,1,.1,1.5,5.43,5.43,0,0,1-1.5-2.5,7.72,7.72,0,0,1-.2-1.5A3.65,3.65,0,0,1,267.6,536.7Z"/><path class="cls-80" d="M253.4,561.7s2.9,3.1,9.4,4c0,0-.3-6.2-.4-8.4s.1-10.2,0-10.9a28.77,28.77,0,0,1,1.9-13s1.4-3.3,2.5-5.2a20.69,20.69,0,0,0,1.2-3.3s-4.6,5.2-8.2,7a20.18,20.18,0,0,0,6.9-5s-3.7,5.5-4.4,10.2-.4,19.5-.4,21.6.3,6.1.3,6.1S258.7,564.7,253.4,561.7Z"/><path class="cls-80" d="M254.7,525.3a39.3,39.3,0,0,0-.3,4.8,3.14,3.14,0,0,0,1.2-.4,6.18,6.18,0,0,0,1,2.4s-1.3,8.5-1.6,10.5l1.3-10.3-1-1.8a7.1,7.1,0,0,1-1.4.2,51.53,51.53,0,0,0-.2,7.4,180.51,180.51,0,0,1-.4,23.7s.1-13.6.2-15.4a75.21,75.21,0,0,0-.3-8.7s-.2-7,.5-9.9C253.8,527.6,254.5,525.6,254.7,525.3Z"/><path class="cls-81" d="M255.8,530.2s1.6-.9,2.1-1.3l1,2.2a7.59,7.59,0,0,1-.9,1.5l-1.3-.5,1.3.8,1.9,16.8s-2,4.3-2.8,5.9c0,0,2.6-3.6,3.2-5.7,0,0-2.2-16.7-1.9-17.5a14.17,14.17,0,0,0,1.1-1.6,11.14,11.14,0,0,0-1.4-2.5l-2.3,1.3C255.6,529.6,255.5,529.8,255.8,530.2Z"/><polygon class="cls-82" points="256.1 535.2 258.4 537.7 258.7 540 255.8 537.6 256.1 535.2"/><polygon class="cls-82" points="255.4 540.1 259.1 543.3 259.5 546.1 255.1 542.6 255.4 540.1"/><polygon class="cls-82" points="254.7 544.9 259.7 548.8 259.9 549.7 259.1 551.3 254.4 547.4 254.7 544.9"/><path class="cls-82" d="M255.1,550.9l3.2,2.1-1.3,2.6A28.41,28.41,0,0,1,255.1,550.9Z"/><path class="cls-76" d="M257.5,578.2s-2.8-.7-3.6-2c0,0,2.5.9,3.6,1.2Z"/><path class="cls-10" d="M270.4,575.7s.4,1.4,3.7,1.5c0,0,1.1,0,1.4-.5a14.24,14.24,0,0,1,1.5,4.9s-1.2-2.6-2.5-3.1a5.23,5.23,0,0,1-4.4-2.4Z"/><path class="cls-10" d="M272.6,584.2s-.5-2.8-1.7-3.1c0,0,1.8-.8,1.7,3.3"/></g><g class="cls-64"><path class="cls-83" d="M212.6,468c-3.8,4.6-6.3,19.1-6.3,19.1,1-1.6,5.2-2.3,5.2-2.3C211.3,481.8,212.6,468,212.6,468Z"/><path class="cls-84" d="M212.7,409.6s-2.4-1.3-4,2.1-.1,10.5,1,12.7,1.7,4.2,1.7,4.2l3-2a3.73,3.73,0,0,0,1.2-2.4c1.5-1.9.8-6.2.8-6.2Z"/><path class="cls-85" d="M209.4,514.3a5.72,5.72,0,0,0-.6,2.5c0,.5.5.8.8,1.2.9,1.2,5,4.1,5,4.1a5.77,5.77,0,0,1,4.5-1.7l-3.5-5.1Z"/><path class="cls-85" d="M225.5,507.8c-.1.2-.6,1.9-.7,2.1a2.44,2.44,0,0,0,.5,2.8l5.2,4.4,4.6-1.9c-1-1.7-4.2-5.7-4.2-5.7Z"/><path class="cls-85" d="M234.2,461.9l1,9.7c1.6-.7,2.1-1,2.5-3.7s-.5-7.9-.5-7.9Z"/><path class="cls-86" d="M209.4,514.1c.1-7,0-8.1.5-13.7.2-1.6.4-3,.7-5.4.5-6-.9-14.4-.9-18.1,0-5.1,2-8.5,2.3-8.6,16.5-2.6,23,14.8,23.1,14.8-.3,4.9-4.1,26.3-4.1,26.3-1.1,2.3-4.5,1.1-4.5,1.1a3.18,3.18,0,0,1-1.6-3.3s.7-10.7.7-14.5a16,16,0,0,0-.8-5.7s-3.9-2.3-4.4-.3c-.2.9-.2,3.7-1,7.4-.9,4.6-2.5,10.4-2.7,13a51.38,51.38,0,0,1-1.2,8.2,4,4,0,0,1-3.5,1.1C210.7,516.1,209.4,515,209.4,514.1Z"/><path class="cls-87" d="M234.9,486s-5.4,3.3-9.3,4l.1,1.4s5.3.1,8.8-2.7Z"/><path class="cls-87" d="M213,470.8s2.5,10.8.4,20.6c0,0,3.9,1.8,6.3,1.1a51.08,51.08,0,0,0,.6-5.5C220.3,486,215.1,469,213,470.8Z"/><path class="cls-88" d="M206.2,470.4c-.9,1.8-2.3,10.2-2.5,14.6s3.2,5.1,3.2,5.1a13.38,13.38,0,0,1,.1-4.4c.6-6.9,5.1-14.7,5.1-14.7l1.2-7.7,1,8.5a50.54,50.54,0,0,1,.8,10,60.54,60.54,0,0,1-1.3,9.5c2.5.5,10.2-.3,16.6-2.6s7.4-4.8,7.4-4.8a44.15,44.15,0,0,0-.2-5.6c-.3-2.4-2.4-16.4-2.4-16.4,3-1.2,3.4-2.5,3.3-4.6s-1.3-10-1.6-16.2-1.6-13.7-2.9-17.3-3.9-3.3-3.9-3.3a15.44,15.44,0,0,1-1.2,4.7,31.6,31.6,0,0,1,1.7,9.8c-.9,2.9-4.4,3.2-6.4,3.3s-4.1-2.9-5.7-6.7a7.62,7.62,0,0,0-5.6-4.3c-2.8,1.4-4.4,5.3-5.8,8.8s-3.2,15-3.5,19.9S206.3,470.4,206.2,470.4Zm5-14.2s.6-7.9,2.1-10.7a6.11,6.11,0,0,1,.3,5.1C212.5,453.4,211.2,456.2,211.2,456.2Z"/><path class="cls-89" d="M212.7,414.1c-1.3,0-1.8-1.3-1.9-3.8s1.5-2,1.5-2Z"/><path class="cls-85" d="M228.8,424.7c.9,2.1,2.3,8.8,1.8,10.5s-4.4,3.7-7,3-4.6-5.2-5.7-7.5-5.1-3.6-5.1-3.6c.3-.4,1.7-1,3.1-2.2s.7-4.4.7-4.4a1.63,1.63,0,0,0,1.7.6C220.7,423.4,228.9,424.6,228.8,424.7Z"/><path class="cls-85" d="M216.9,406.1c-5.7,2.6-1.2,12.5-1.2,12.5-.1,2.4,1.1,3.7,1.7,3.6,0,0,4.6,5.1,7.9,5.1s4.6-2.6,5.5-8.5c.1-.5-.2-1.3-.1-1.8a10.46,10.46,0,0,0,.4-1.7,19.82,19.82,0,0,0-.7-6.4C227.5,402.1,222.6,403.5,216.9,406.1Z"/><path class="cls-90" d="M207.9,456.2l3,12.7s5.5,5.1,6.2,5.1,5.1-2.4,5.5-3.5-1.7-10.1-2.1-11.4-10-7.4-10-7.4Z"/><path class="cls-91" d="M230.9,406.8a6.64,6.64,0,0,0-2.2-2.7,13.44,13.44,0,0,0-6.9-3.3c-2.5-.2-8.4,2.1-9.4,4.5a22.27,22.27,0,0,0-.4,5.2c.4,2-.3,2.4.5,5.1a15.23,15.23,0,0,0,1.2,2.9,2.14,2.14,0,0,0,2.3.2,2.44,2.44,0,0,0,1.8-.8c.3.8-.6,2.2,1,3a1.22,1.22,0,0,0,1.9-.9c-.7,1.3-2.3.6-1.9-1s2-1.2,2.5-3.7,1-2.4,4.8-3.2,3.9-3.4,3.9-3.4a5.42,5.42,0,0,1,.6,1.6A2.91,2.91,0,0,0,230.9,406.8Z"/><path class="cls-92" d="M230.9,416.1c-2.3,1.5-5.5,2.9-6.1,2.6a9.9,9.9,0,0,1-2.4-.1c.3-.5,1.1-.3,3-.5s5.7-2.5,5.7-2.5Z"/><path class="cls-92" d="M227,422c.7.3,1.3-.2,1.1-.6a5.29,5.29,0,0,1-.4-2.6c.2-.6.4-.3.4-.3a5.06,5.06,0,0,0,.3,2.8c.6,1.7-1.8,1.7-2,.8C226.6,421.6,227,422,227,422Z"/><path class="cls-92" d="M228.9,426.9c-.8,1.2-3.2,1.4-3.2,1.4s-6.1.2-6.7-5.6a8.21,8.21,0,0,0,4.9,4.1c3.8.9,5.2-1.6,5.2-1.6l.4,1.1s2.2,8.3,1.1,9.5A24.76,24.76,0,0,0,228.9,426.9Z"/><path class="cls-93" d="M233.2,430.9a10.73,10.73,0,0,1,2.5,5.1c.5,3-1.1,5.9-2.6,8.2s-1.2,3.5.7,8.7a20.82,20.82,0,0,1,1.4,9c-.4-8.2-3.5-9-3.7-12.9s1-4.7,3-9-1.5-7.8-1.8-9.1a12.11,12.11,0,0,1,.3-3.9A20.6,20.6,0,0,0,233.2,430.9Z"/><path class="cls-93" d="M219.2,445.4c3.7,1.9,7.4-.3,7.4-.3A4.86,4.86,0,0,1,219.2,445.4Z"/><path class="cls-92" d="M236.3,469.3l-.1-1.2s.5-1.3.6-1.6.1-3.1.1-3.1C237.8,466.1,236.2,469.3,236.3,469.3Z"/><path class="cls-92" d="M217.3,424.8a3.34,3.34,0,0,1-2.6,2.3c3.5,1.3,4.4,4.4,5.7,7a12.09,12.09,0,0,0,3.8,4.2c-2.7.1-4.6-4.3-4.6-4.3a35.25,35.25,0,0,0-2.6-4.4c-.9-1.2-4.1-2.4-4.1-2.4L216,425a3.09,3.09,0,0,0,.5-3.6c1,1.1,1.8.2,1.8.2C219.2,423.6,217.8,422.9,217.3,424.8Z"/><path class="cls-9" d="M207.2,472a17.5,17.5,0,0,0-.3,6.5c.3,2,1.3,2.4,2,3.1s1.5,1.3,2.1.3c.3-.4-.1-2.5-.1-3.9a9.92,9.92,0,0,1,.3-2.6c.2.9,0,4.7,1.1,4.4s.8-1.4.9-4a15,15,0,0,0-.7-4.9C210.5,473.3,207.2,472,207.2,472Z"/><path class="cls-94" d="M230.3,515.6c-2.9-1.2-5.7-5.2-5.7-5.2a2.51,2.51,0,0,0-.3,1.5c2,2.6,6.2,6.2,9.5,7.3s3.3-.9,3.3-.9a8.3,8.3,0,0,0-2.6-4.5A5,5,0,0,0,230.3,515.6Z"/><path class="cls-94" d="M214.6,521.4c-2.9-1.2-5.7-5-5.7-5a2.21,2.21,0,0,0-.4,1.3c1,1.6,6.3,6.1,9.6,7.2s3.3-.9,3.3-.9a7.41,7.41,0,0,0-2.6-4.3A4.54,4.54,0,0,0,214.6,521.4Z"/><path class="cls-88" d="M203.7,456.9c-.3,2.9,2,10.7,2,10.7l1.1,4.3a4.64,4.64,0,0,0,5.5-1.3c-1.4-5.2-1-19.4-1-19.4Z"/><polygon class="cls-95" points="217.6 460.6 211.3 455.7 211.2 456.2 217.3 460.8 216.6 473.8 217.1 474.1 217.5 460.9 217.6 460.6"/><path class="cls-95" d="M217.3,458.6l-5.7-4.3A17.56,17.56,0,0,0,217.3,458.6Z"/><path class="cls-95" d="M218.7,463c-.2-1.6-1.5-13.8-1.5-13.8-.9-15.5-2.4-17.2-2.4-17.2a3.94,3.94,0,0,0-4.4-2.6,2.32,2.32,0,0,1,1.7-1.6c3.3-.8,5,4.9,4.9,4.5,1.7,4.2,3.2,30.5,3.2,30.5C220.2,464.5,218.9,464.6,218.7,463Z"/><path class="cls-93" d="M213.3,443.4l.3-1.1c1.2-.7,2.3-3.4,2.3-3.4A5.4,5.4,0,0,1,213.3,443.4Z"/><path class="cls-93" d="M213.4,441.2c-1.5,3-2.6,11.2-3,14.8s1.9,14.5,1.9,14.5c-.8,2.1-5.5,1.3-5.5,1.3,5.1,1.8,6.2-1,6.2-1s-1.4-9.4-1.8-11.8,1.3-13.8,3.1-17.8.9-6.5.9-6.5A18.86,18.86,0,0,1,213.4,441.2Z"/><polygon class="cls-96" points="228.4 437.5 227.5 435.4 227.6 437.8 228.4 437.5"/><path class="cls-96" d="M216.3,418.7s-.2,2.1.5,2.3,1.2-.5.9-.8-.9-.6-.3-1.5S216.3,418.7,216.3,418.7Z"/><path class="cls-95" d="M217.3,460.8l1-1.4,2.2-.2s2.7,9.9,2,11.7a17,17,0,0,1-5.4,3.3l-.2-.8s3.5-.9,5.3-3.1a57.1,57.1,0,0,0-1.9-10.7l-1.6.1-1.4,1.7"/><path class="cls-97" d="M227.7,427.8s1.1,3.3,0,4.5-3,1.6-6-1.4a51.19,51.19,0,0,0-6.1-5.3s-.2-1.2,1.1,0,6.6,6.6,7.9,6.9,4,.7,2.5-4.5Z"/><circle class="cls-97" cx="226.7" cy="433.1" r="0.7"/><circle class="cls-97" cx="217.5" cy="421.8" r="0.5"/><path class="cls-92" d="M211.2,474.5a20,20,0,0,1-.4,2.6,16.86,16.86,0,0,0,.3,4.5s-.1-5,.3-5.5v1.6C211.4,477.8,212.2,475.6,211.2,474.5Z"/><path class="cls-92" d="M212.7,471.3s-.9,1.8-5.5.7a13.25,13.25,0,0,0-.4,5.2s.5-3.8,2-3.6,4-1.6,4.3.8l.2,1.6A10.48,10.48,0,0,0,212.7,471.3Z"/><path class="cls-92" d="M237.4,460.7a7.68,7.68,0,0,1-2.2,1.2l.4,2.6s1-2.2,1.6-1.4a4.9,4.9,0,0,1,.7,2.6A19.55,19.55,0,0,0,237.4,460.7Z"/><path class="cls-92" d="M231,509.4s-.5,2-4.1,1.2c0,0-1.5-.5-1.7-1.7a11.32,11.32,0,0,0-.6,1.6s.2-.8.9-.2a4.93,4.93,0,0,0,6.3.3Z"/><path class="cls-92" d="M215.7,515.3s-2.4,2.3-4.9.5c0,0-1.3-.7-1.3-1.5s-.4,1-.4,1a6.31,6.31,0,0,0,7.5,1.6Z"/><path class="cls-93" d="M233.9,428.3l-.9,2.8.7.9A24.06,24.06,0,0,0,233.9,428.3Z"/><path class="cls-91" d="M215.8,418.7a3.64,3.64,0,0,0,.8,3,6,6,0,0,1,.3,1.1s-1.8.7-4-6.3Z"/><path class="cls-98" d="M229.8,406.2a3.85,3.85,0,0,1-2.2,5.3C227.5,411.5,230.4,409.6,229.8,406.2Z"/><path class="cls-98" d="M218.7,415.8s-.4,3-3,2.7C215.7,418.5,218.2,417.5,218.7,415.8Z"/></g><g class="cls-64"><path class="cls-99" d="M307.9,442a19.41,19.41,0,0,0-1,8.4s.9,4.1,4.1,4.6c0,0-.5-6.6.5-8.3s-.5-3.9-.5-3.9Z"/><path class="cls-53" d="M307.6,442.8a3.41,3.41,0,0,0,4.1.7v.9l-1.4,1.8s.1-1-1.3-1.2a12.94,12.94,0,0,1-2-.4A18.41,18.41,0,0,1,307.6,442.8Z"/><path class="cls-100" d="M309,446.1a30.06,30.06,0,0,0-.1,4.5c.2.9,1.2.7,1.3-.3a10.62,10.62,0,0,1,.4-2.9,3.1,3.1,0,0,0,.6-1.3s.4.4-.5,1.9l-.2,2.3s-.1,1.2-1,1.1-1-1.3-1-2C308.6,449,308.5,445.9,309,446.1Z"/><path class="cls-41" d="M322.4,502.1s-3.4,3-4.9,4.6-.1,3.6,2.4,2.6a35.5,35.5,0,0,0,8.1-4.6l.3,1s.7.6.9-.6,1-4.9-.2-5.9C329,499.2,326.2,503.5,322.4,502.1Z"/><path class="cls-99" d="M323.8,481.9s1.2,14.4.3,17a12.85,12.85,0,0,1-2.7,4.4s-2.3,2.5.7,1.9a11.88,11.88,0,0,0,6.7-4.1c.8-1.2-.6-2.7.2-6s2.8-8.9,3-13.9Z"/><path class="cls-100" d="M323.9,484s5.2.9,7.9-.9l.3-2.1-8.4.9Z"/><path class="cls-41" d="M311.7,496.6a26.56,26.56,0,0,0-4.9,4.6c-1.3,1.8-.1,3.6,2.4,2.6a35.5,35.5,0,0,0,8.1-4.6l.3,1s.7.6.9-.6,1-4.9-.2-5.9C318.3,493.8,315.5,498.1,311.7,496.6Z"/><path class="cls-99" d="M313.1,476.4s1.2,14.4.3,17a12.85,12.85,0,0,1-2.7,4.4s-2.3,2.5.7,1.9a11.88,11.88,0,0,0,6.7-4.1c.8-1.2-.6-2.7.2-6s2.8-8.9,3-13.9Z"/><path class="cls-100" d="M313.4,480.9s2.9,3.2,6.7,2.1l.4-1.4-7.3-2.8Z"/><path class="cls-101" d="M312.4,443.3a6.39,6.39,0,0,0-2.5,4.3c-.3,2.8-1.9,24.2-1.9,24.2a3.44,3.44,0,0,0,.4,3.5c1.2,1.8,11,10.2,23.3,6.5,0,0,6.9-2.2,7.3-7l-2.1-22.2Z"/><path class="cls-99" d="M334,414.9s-4.2-1.4-6.4,4.9a9.67,9.67,0,0,0-1.3,5.5s9.9,1.5,10.6-5.2C336.9,420.2,336.4,415.7,334,414.9Z"/><polygon class="cls-56" points="328.2 467.1 327.5 477.5 342.8 469.3 342.9 459.2 328.2 467.1"/><path class="cls-100" d="M330.2,421.1l1.1,4.7.4-.1S331.5,422,330.2,421.1Z"/><path class="cls-102" d="M313.3,396.7s.7,4.1,0,6.7-.8,4.7,2.2,5.6l1.6.2s-1.5-9.8-.8-13.1C316.3,396.1,313.4,393.9,313.3,396.7Z"/><path class="cls-99" d="M331.9,455.5a6.73,6.73,0,0,0-1.3,4.2,26.86,26.86,0,0,1-.6,5.3s.1.7,1.1.3,1-1.5,1.1-2.5.2-1.5.2-1.5a17,17,0,0,1,0,4.8c-.4,2.2,1.9,1.4,3.1.4s2.7-6.2,1.5-9.9C337,456.5,333.5,456.9,331.9,455.5Z"/><path class="cls-100" d="M331.8,455.7s3.2,1.6,5.2.7a5.21,5.21,0,0,1,.4,2.3,2.06,2.06,0,0,0-2.3-1.1c-2.7.2-3.6.3-3.8,2.3a13.07,13.07,0,0,1-1.2,4.8s.5-4.5.4-5.4S331,456.1,331.8,455.7Z"/><path class="cls-102" d="M313.4,397a7.86,7.86,0,0,1,4.8-8.5s4-2.2,6.7-1.5,7.4,2.3,8,5.8-.8,5.5,1,9.8,4,8.7.1,12.4c0,0-4-1.4-5.1-2.3-2.1-1.9-1.6-3.5-1.8-5.4a7.89,7.89,0,0,1-2.2-5.1v-2.8C325,399.2,316.5,401.4,313.4,397Z"/><path class="cls-103" d="M314.9,406.5s-5,1.1-5.8,7.5-1.5,15.4-2,18.1-2.4,7.9,0,10.3,4.4,1,4.4,1l-.6-.7s1.7,3.7,4.7,4.6,4.2.8,7.4,4.2,6.6,3.2,8.7,2.1a9,9,0,0,0-.2,1.3c0,.4-.5,1.1,2.2,1.7s4.3-.4,4.5-1.4,2.1-10.8,2.5-12.6,1-2.6,0-8.6a99.83,99.83,0,0,0-4.4-16,4.62,4.62,0,0,1-.9,4.6c-1.9,2-8.4,2.6-9.8,2.3-2.2-.6-8.8-2.3-9.9-12a4.46,4.46,0,0,1,.5-3.1A9.64,9.64,0,0,1,314.9,406.5Z"/><path class="cls-99" d="M327.2,407.6a5.1,5.1,0,0,0,2.1,4.8s1.2.7,1.5.8a113.23,113.23,0,0,0-7.4,11.3,12,12,0,0,1-7.1-7.9s-1.6-4.1-.1-6.9c0,0,3.5,2.6,6.6,1.6s4.1-4.4,4.1-4.4Z"/><path class="cls-100" d="M316.1,409.8a14.38,14.38,0,0,0,.9,7.8s1.6,5,5.1,6.3l-1.8-1.5.3-1.1-.9.5s-4-6.9-3.2-11.5Z"/><path class="cls-99" d="M314.3,398.1a43.57,43.57,0,0,0,.5,8.5c.7,3.1,2.3,5.5,5.7,5.5,2.9,0,5.7-.9,6.4-4.5a1.29,1.29,0,0,0,1.9-.4,1.06,1.06,0,0,0,0-.6s-3.3-1.8-3.5-4.1a14.78,14.78,0,0,1,.1-3.8S318.3,401.3,314.3,398.1Z"/><path class="cls-104" d="M326.6,425.1a13.69,13.69,0,0,1,.6-4c2.3-7.1,6.8-6.2,6.8-6.2-.8-1.9-3.2-1.7-3.2-1.7a9.38,9.38,0,0,0-3.4,2.1c-3.4,3.2-2.1,8.3-5.3,8.5C322.1,423.9,325.9,425.4,326.6,425.1Z"/><path class="cls-100" d="M316.3,409.8a6.19,6.19,0,0,0,6.1,2,6,6,0,0,0,3.8-2.3,4.75,4.75,0,0,1-4.6,3C318.4,412.6,317.5,411.4,316.3,409.8Z"/><path class="cls-100" d="M327.3,411.2a5.14,5.14,0,0,0,2.8,1.7c-2.4-1.5-1.9-5.3-1.9-5.3a1,1,0,0,1-1,0c0,.3-.2-.8-.8,1.2,0,0,0,2.1-4.4,3.7A27.27,27.27,0,0,0,327.3,411.2Z"/><path class="cls-60" d="M332.6,463.3l-5.9,3.2-.7,10.4,1.5.6.7-10.4,4.4-2.3A7.35,7.35,0,0,0,332.6,463.3Z"/><polygon class="cls-60" points="337.4 460.8 337.2 462.3 342.9 459.2 341.6 458.5 337.4 460.8"/><path class="cls-105" d="M312.4,415.6a9.57,9.57,0,0,1-.4,5.7c-1.2,2.7-2.2,7.4,1.6,9.9,0,0-4.8-1.9-2.8-8.5A17.88,17.88,0,0,0,312.4,415.6Z"/><path class="cls-105" d="M316.1,409.8s-1.9,8.4,6.3,14.3C322.4,424.1,312.7,419.1,316.1,409.8Z"/><path class="cls-105" d="M315,419.5s2.6,11.6,12,12.8C327.1,432.3,316.8,431.4,315,419.5Z"/><path class="cls-105" d="M317.4,419.6s1.5,10.3,10.7,8.9c0,0-7.9.8-10.1-8.1Z"/><path class="cls-105" d="M318.2,420.8s2.8,5.2,7,5.9c0,0-4.5-.1-7.1-5.3Z"/><path class="cls-105" d="M312.4,430.6s1.5,4.9,1,7.2l-.9-4.9a58.17,58.17,0,0,1-1,8.4,3.29,3.29,0,0,0,.5,3s-.6,0-1-1a14.74,14.74,0,0,1,.3-3.5c.4-2.1,1.1-9,.7-9.7Z"/><path class="cls-105" d="M316.8,436.6s5.7,10,13.4,5.1C330.2,441.6,324.1,445.3,316.8,436.6Z"/><path class="cls-105" d="M332.5,426.7s1.4,9.7,1.5,11.4-1.9,14.6-1.9,15.8.7,2.2,2.9,2.3,2.2-.2,3-1.1c0,0-.2,1.8-3,1.5,0,0-3.1.1-3.6-1.2,0,0-.3-.5.3-2.9a126,126,0,0,0,1.9-14.3C333.6,438.3,331.6,427.2,332.5,426.7Z"/><path class="cls-105" d="M333,433.7s2,5.8-3.4,6.8c0,0,3.4-1,3.7-5.5Z"/><path class="cls-105" d="M334.4,432.7s2.9,2.8,4.3-.4C338.7,432.2,337.8,436.5,334.4,432.7Z"/><path class="cls-105" d="M338.8,433s-.9,4.1-3.5,2.7c0,0,2.2.8,3.4-3.3Z"/><path class="cls-105" d="M339.1,440.8s-1.1,4.1-4.2,4.7a4.33,4.33,0,0,0,3.4-2.4s-1,4.1-3.5,4.2C334.8,447.4,338.3,447.5,339.1,440.8Z"/><path class="cls-105" d="M318.8,446.9a10.81,10.81,0,0,1,4,4c2.1,3.2,6.8,3.4,6.8,3.4a8.13,8.13,0,0,1-7.7-3.8c-2.8-4.5-3.5-3.7-3.5-3.7"/><path class="cls-105" d="M308.1,428.7s-.2,4.2,2.9,4.4C311,433,309,432.5,308.1,428.7Z"/><path class="cls-100" d="M314.9,401.9s2.6,3,8.9,2.1C323.8,404,316.6,406,314.9,401.9Z"/><path class="cls-100" d="M317.4,404.7l-.1,2.6s.5.9,2.1.7l.2-.3a2.36,2.36,0,0,1-1.9-.5C317.6,407.1,317.9,404,317.4,404.7Z"/><path class="cls-100" d="M331.8,459.7a7.73,7.73,0,0,0,.6,1.7c.5,1.1.1,4.2.1,4.2s-.5,2,.6,1.9c0,0-.7-.1-.3-1.9S333.3,460.8,331.8,459.7Z"/><polygon class="cls-100" points="329.7 422.5 331 424 330.8 423 329.7 422.5"/><path class="cls-100" d="M334,414.9s-6.5-.9-7.4,10.1a20.79,20.79,0,0,0,4.3-.5l-3.6-.1C327.3,424.5,327.4,415.9,334,414.9Z"/><polygon class="cls-100" points="318.2 411.5 318.6 413.1 319.1 413.2 319.2 412.2 318.2 411.5"/><polygon class="cls-56" points="332.5 464.4 327.8 467 327.2 477.4 327.5 466.8 332.6 464.2 332.5 464.4"/><polygon class="cls-56" points="332.3 463.9 327.2 466.8 326.6 477.2 326.2 476.9 326.9 466.6 332.5 463.6 332.3 463.9"/><polygon class="cls-56" points="337.5 461 341.9 458.8 342.1 459 337.3 461.4 337.5 461"/><polygon class="cls-56" points="337.5 461.6 342.4 459.2 337.4 462 337.5 461.6"/><path class="cls-106" d="M313.9,456.1s1.4,17.8,7.5,19.7A38.81,38.81,0,0,1,313.9,456.1Z"/><path class="cls-42" d="M311.7,496.6s-6.2,4.1-5.5,6.5,5.3.8,11.1-3.9c0,0-7.6,6-10.4,4.1C307,503.4,304.9,501.9,311.7,496.6Z"/><path class="cls-42" d="M322.4,502.2s-6.2,4.1-5.5,6.5,5.3.8,11.1-3.9c0,0-7.9,5.7-10.4,4.1C317.6,508.9,315.6,507.6,322.4,502.2Z"/></g><rect class="cls-1" width="514.5" height="516.1"/></g></g></svg>