<?xml version="1.0" encoding="utf-8"?>
<!-- Generator: Adobe Illustrator 21.1.0, SVG Export Plug-In . SVG Version: 6.00 Build 0)  -->
<svg version="1.1" id="Layer_1" xmlns="http://www.w3.org/2000/svg" xmlns:xlink="http://www.w3.org/1999/xlink" x="0px" y="0px"
	 viewBox="0 0 514.5 736.7" style="enable-background:new 0 0 514.5 736.7;" xml:space="preserve">
<style type="text/css">
	.st0{opacity:0.5;}
	.st1{fill:#A5B2C7;}
	.st2{fill:#6D798B;}
	.st3{fill:#FED4AF;}
	.st4{fill:#FBBD92;}
	.st5{fill:#D2D2D2;}
	.st6{fill:#82596B;}
	.st7{fill:#28151A;}
	.st8{fill:#4EC0AF;}
	.st9{fill:#ECAC67;}
	.st10{fill:#D3E7B9;}
	.st11{fill:#D08245;}
	.st12{fill:#129491;}
	.st13{fill:#E9EDF7;}
	.st14{fill:#5C3D50;}
	.st15{fill:#745B52;}
	.st16{fill:#ACADAE;}
	.st17{fill:#AB6087;}
	.st18{fill:#3CC3D9;}
	.st19{fill:#ABDDDE;}
	.st20{fill:#EAAE9D;}
	.st21{fill:#CF8885;}
	.st22{fill:#2D9FB2;}
	.st23{fill:#884B6C;}
	.st24{fill:#454043;}
	.st25{fill:#4E3136;}
	.st26{fill:#024E6C;}
	.st27{fill:#CA9E6F;}
	.st28{fill:#F2E094;}
	.st29{fill:#F2738E;}
	.st30{fill:#73A7BE;}
	.st31{fill:#197DAA;}
	.st32{fill:#F7EB98;}
	.st33{fill:#BC734F;}
	.st34{fill:#252A3D;}
	.st35{fill:#C0CCDD;}
	.st36{fill:#1F2746;}
	.st37{fill:#6D5539;}
	.st38{fill:#FFFFFF;}
	.st39{fill:#4E3C25;}
	.st40{fill:#F0C776;}
	.st41{fill:#DA587C;}
	.st42{fill:#F7A8A7;}
	.st43{fill:#C45C7A;}
	.st44{fill:#73452C;}
	.st45{fill:#FCCFB7;}
	.st46{fill:#69446B;}
	.st47{fill:#5A395D;}
	.st48{fill:#F38AAA;}
	.st49{fill:#EDAA42;}
	.st50{fill:#A76F69;}
	.st51{fill:#A16443;}
	.st52{fill:#FAB6A1;}
	.st53{fill:#E96997;}
	.st54{fill:#9C605B;}
	.st55{fill:#FABCA4;}
	.st56{fill:#F6EC49;}
	.st57{fill:#9B5E3F;}
	.st58{fill:#C0B773;}
	.st59{fill:#2D292C;}
	.st60{fill:#CE8F6E;}
	.st61{fill:#8DB6D9;}
	.st62{fill:#7D9DC9;}
	.st63{fill:#CCD5E4;}
	.st64{fill:#A49CCC;}
	.st65{fill:#C77966;}
	.st66{fill:#AEBBD3;}
	.st67{fill:#EF5B79;}
	.st68{fill:#DEBD5B;}
	.st69{fill:#AEC3E5;}
	.st70{fill:#383958;}
	.st71{fill:#765975;}
	.st72{fill:#59425C;}
	.st73{fill:#835D39;}
	.st74{fill:#012F3B;}
	.st75{opacity:0.31;fill:#FFFFFF;enable-background:new    ;}
	.st76{fill:none;stroke:#012F3B;stroke-width:0.44;stroke-miterlimit:10;}
	.st77{fill:#8481BE;}
	.st78{fill:#C8C5BD;}
	.st79{fill:#CADAF0;}
	.st80{fill:#745D9E;}
	.st81{fill:#5D4980;}
	.st82{fill:#CD8079;}
	.st83{fill:#056772;}
	.st84{fill:#A1D28E;}
	.st85{fill:#81B16D;}
	.st86{fill:#BD6D6A;}
	.st87{fill:#194353;}
	.st88{fill:#F28186;}
	.st89{fill:#DA5A7A;}
	.st90{fill:#FABFA0;}
	.st91{fill:#1D4E5E;}
	.st92{fill:#393537;}
	.st93{fill:#FEE495;}
	.st94{fill:#B16979;}
	.st95{fill:#606281;}
	.st96{fill:#4E506A;}
	.st97{fill:#7A93A1;}
	.st98{fill:#FCCDB0;}
	.st99{fill:#E98B41;}
	.st100{fill:#CFD7B0;}
	.st101{fill:#FFDDB8;}
	.st102{fill:#9EA372;}
	.st103{fill:#57585A;}
	.st104{fill:#A2B4BF;}
	.st105{fill:#516780;}
	.st106{fill:#EEB59B;}
	.st107{fill:#FABAA3;}
	.st108{fill:#F27385;}
	.st109{fill:#756F90;}
	.st110{fill:#E8E9F5;}
	.st111{fill:#826E74;}
	.st112{fill:#FFCD64;}
	.st113{fill:#F9E8E3;}
	.st114{fill:#DFDAED;}
	.st115{fill:#FCB238;}
	.st116{fill:#645E7B;}
	.st117{fill:#C65E6F;}
	.st118{fill:#F3B29E;}
	.st119{fill:#E3978B;}
	.st120{fill:#C8C4CC;}
	.st121{fill:#F79058;}
	.st122{fill:#D4DAC2;}
	.st123{fill:#E67B50;}
	.st124{fill:#B7B4BC;}
	.st125{fill:#F3F3F3;}
	.st126{fill:#31AABA;}
	.st127{opacity:0.1;fill:#010101;enable-background:new    ;}
	.st128{fill:#35B7AE;}
	.st129{fill:url(#SVGID_1_);}
</style>
<title>Asset 2</title>
<g id="Layer_2" class="st0">
	<g id="Layer_1-2">
		<path class="st1" d="M170.1,417.1c0,0,0.8,0.1,0.9,0.5c0.1,0.9,0.1,1.7,0,2.6c-0.1,0.5-0.7,0.6-0.7,0.6l-0.2-0.5V417.1z"/>
		<path class="st2" d="M170.2,417.2c0,0,0.5,0.2,0.4,0.4c-0.1,0.1-0.3,0.2-0.4,0.3V417.2z"/>
		<path class="st3" d="M170,397.6c-0.4,2.8-0.5,5.7-0.3,8.6c0.3,3.7,0.7,13.8,0.7,14.5c0.9,0.8,1.5,1.9,1.7,3.1
			c0.3,2.2,0.5,4.2-0.3,4.6s-1.1,0.3-1.1,0.3s0.4,3.7-2.7,3.4l-1.8-9.8l0.1-24L170,397.6z"/>
		<path class="st2" d="M170.3,420.6c-0.8,0.7-1.8,1.1-2.9,0.9l-1.4-0.3l-0.1-2.6c0,0,0.3,0.8,2.2,0.7c0.9,0,1.7-0.5,2-1.4
			c0,0,0.1-0.1,0.2,0.3C170.5,419,170.5,419.9,170.3,420.6z"/>
		<path class="st4" d="M167.2,422.9c0,0,0.7,2.1,2.1,2.3c0.6,0.2,1,0.8,1,1.5l0.2,2.1c0,0-0.8-0.3-0.8-2.4c0,0,0-0.5-1-0.8
			C167.7,425.2,167.1,424.1,167.2,422.9z"/>
		<path class="st5" d="M150,486.2c0,0,5,6.8,5.3,7.8s-0.1,1.7-2.5,2.5s-10.5-7.8-10.8-8.6s0.7-2.5,0.7-2.5S146.6,488.8,150,486.2z"
			/>
		<path class="st5" d="M163.4,480.2c0,0,5.5,6.1,5.5,7c-0.3,1.4-1.5,2.5-2.9,2.6c-1.7,0.2-10-7.7-10.3-8.3s0.7-3,0.7-3L163.4,480.2z
			"/>
		<path class="st6" d="M168.3,434.3c0,0,0.8,22.4,0.8,24.4s-4.6,17.2-5.2,19.8c0.1,1.1-0.5,2.1-1.5,2.4c-1.5,0.4-5.9,0.9-7.1-3
			c0,0,4.2-15,4.4-18.3s-0.6-9.1-2.2-14.5c0,0-0.9,17.7-1.6,20.3s-5.5,20.3-5.5,20.3s-0.6,3-4.8,1.9s-3.3-4.1-3.3-4.1
			s4.2-13.7,3.5-18.9c0,0-0.6-32.8-0.3-36c0,0,17.1-4.4,21.4-7.2C166.8,421.3,168.3,424.4,168.3,434.3z"/>
		<path class="st7" d="M166.6,417.6c0.4,1.4,0.5,2.9,0.3,4.4c0,0-5.3,7.8-16.9,5.1l-2.6-6.4C147.3,420.8,158.1,424.9,166.6,417.6z"
			/>
		<path class="st3" d="M159.4,383.2c0.7,1.6,1,3.4,0.9,5.1l-0.8,5c0,0-1.4-3.7-2.9-5.2s-4.4-3.6-4.9-4.2s0.6-3.8,0.6-3.8l3.1-2
			L159.4,383.2z"/>
		<path class="st8" d="M150.5,379.4c0.1,0.2,0.4,0.3,0.6,0.3c0,0-0.6,2-0.3,2.7c0,0,2.9,3.8,4.9,4.7s3.7,6,3.7,6s0.9-4.9,0.9-5.7
			l-0.9-3.2l2.4-1c1.1-2.3,2-4.7,2.8-7.1c0,0,5.1,0,5.3,7.4c-0.1,0.3,0.3,9,0.3,9s0.8-0.4,1,1.1l-0.2,3.3c-0.7,1.3-2,2.2-3.5,2.4
			c0,0,0.3,14.1-0.8,18.7c0,0-7.1,10.7-21.2,3.7c-1.6-2.3-2.5-4.9-2.6-7.7c0-4.2,6.7-32.1,6.7-32.1L150.5,379.4z"/>
		<path class="st9" d="M152,423.2c-0.2-0.1-0.3,0-0.3,0.2s-0.2,0.3-0.3,0.5c-0.2,0.3-0.3,0.7-0.3,1.1c-0.1,0.3-0.2,0.8-0.3,1.1
			l-0.4,1.2c-0.4,0.8-1.1,1.5-1.9,1.9c-0.8,0.4-1.8,0.6-2.7,0.5c-1.8-0.1-3.4-1-4.5-2.4c-0.5-0.7-0.9-1.4-1.3-2.1
			c-0.3-0.8-0.6-1.6-0.8-2.4h0.1c0.6,1.5,1.4,2.8,2.5,4c1.1,1.2,2.5,1.9,4.1,2.1c1.6,0.1,3.1-0.6,4-2c0.4-0.7,0.5-1.5,0.9-2.2
			c0.2-0.3,0.3-0.7,0.5-1s0.2-0.3,0.3-0.5S151.9,422.9,152,423.2L152,423.2z"/>
		<ellipse class="st10" cx="160.1" cy="400.4" rx="0.6" ry="0.9"/>
		<path class="st9" d="M145.7,418.8c0,0,6.4,3.1,6.9,4c0.1,0.7,0.2,1.3,0.2,2c0.1,5.2-0.3,18.4-0.9,19.6c-1.1,2.2-3.7,0.9-4.9,0.4
			l-6.8-3.9c0,0-1.7-0.8-1.6-5.2c0.1-4.2,0.5-11.8,0.5-11.8s-0.8-1.2-0.3-4.4C139.2,416.5,143.7,417.2,145.7,418.8z"/>
		<path class="st11" d="M152,423.2c-0.6-0.3-1.3,0-1.6,0.6c-0.1,0.2-0.1,0.5-0.1,0.7c0,2-0.2,3.7-0.9,4.5s-7,3.6-10.3-5
			c0.4,2.5,2,4.6,4.2,5.8c0,0,4.1,2,6.6-0.9c0.5-0.9,0.8-2,0.7-3.1C150.6,423.7,150.8,423.2,152,423.2z"/>
		<path class="st3" d="M139.7,407.1c0,0-1.3,4.1,0.3,13.7c0,0,3.2,12.6,2.8,14.6c1.6,0.7,3.4,0.3,4.5-1c0,0-1.9-14.1-1.7-18.9
			s0.2-7.2,0.2-7.2S144.4,404.5,139.7,407.1z"/>
		<path class="st12" d="M159.6,384.6c0,0,0.9,1.4,0.2,5.9l0.8-2.4c-0.1-1.3-0.3-2.5-0.6-3.8l-0.3-0.9l-0.4,0.5L159.6,384.6z"/>
		<path class="st8" d="M148,390.9c1.7,1.4,1.4,3,1.6,6.4s-3.1,12.5-3.1,12.5l-1.6,0.3c-5.7,0.4-6.8-3.1-6.8-3.1s0.4-4.1,1-4.2
			c0.4-2.1,0.8-4.5,0.9-5.3c0.3-3.5-0.3-5.4,1.3-7.8s7.4-6.3,7.4-6.3s0.4-3,2.4-3.8l-0.2,1.8"/>
		<path class="st3" d="M147.2,434.2c0,0,1.3,0.7,2,3.3c0.3,0.9,0.4,1.8,0.4,2.7c0,0.7-0.1,1.5-0.3,2.2c-0.2,0.4-1.4,0.8-1.6-0.3
			s0.3-3-0.6-3c0,1.5-0.4,2.5-0.3,3.4c0.1,0.5,0.9,3,0.7,3.6s-0.7,1.6-2.4,0.3c-1.4-1.2-2.4-2.8-3-4.6c-0.4-1.7,0.4-5,0.7-6.8
			C142.9,435.1,144.9,436.8,147.2,434.2z"/>
		<path class="st9" d="M150.9,425.1c1.1-4.3,2.6-8.4,4.3-12.5c3.3-7.7,10.9-29.6,9-33.7l0.3-1.7c0,0,2.3,1.9,0.3,10.6
			s-9.1,27.6-9.8,29.5s-2.4,7.1-2.8,9S150.3,426.9,150.9,425.1z"/>
		<path class="st12" d="M149,392.4c0.6,1.4,0.8,3,0.8,4.5c0,1.6-0.2,3.1-0.6,4.6c-0.9,2.9-2.3,8.3-2.7,8.4s-0.7,0.1-0.6-0.6
			c0.5,0.1,1.5-3.1,1.3-3.8c0.1-0.2,0-0.2,0.1-0.4c0.5-1.4,0.8-2.8,1.1-3.9c0.4-1.4,0.7-2.9,0.8-4.4
			C149.2,395.4,149.2,393.9,149,392.4z"/>
		<path class="st13" d="M162.5,421.9c0,0,0.8,1.4,0.1,4.3c-1.3,0.8-2.7,1.4-4.2,1.7l-0.1-4.2C159.8,423.4,161.2,422.8,162.5,421.9z"
			/>
		<path class="st11" d="M151.8,422.2c0,0-1,2.2-0.7,2.8s1,1.2,1.6-1c0,0,0.1,0,0.1,0.5c0,0-0.3,1.2-1,1.3s-1.2-0.8-0.7-2.1
			c0.2-0.5,0.4-1,0.5-1.5l-5.7-3.1v-0.3C145.7,418.8,151.2,421.6,151.8,422.2z"/>
		<path class="st12" d="M159.5,393.3c0,0-0.3-8.7,4.9-6.2C164.4,387.2,160.5,386,159.5,393.3z"/>
		<polygon class="st12" points="161.9,383.1 164.4,387.1 163.3,386.8 161.4,383.3 		"/>
		<path class="st14" d="M162.3,428.1l-1.7,7.2l-4.2,2.8l2.6-0.7c-1.1,1.9-1.6,4.1-1.5,6.3v2c0,0-0.3-6.5,3.7-9.4L162.3,428.1z"/>
		<path class="st3" d="M151,381.5l0.2-1.8c-0.6,0-0.8-0.3-1.5-0.8c-0.9-0.7-1.5-2.4-1.3-4.5s1.9-1.6,1.9-1.6s0.3-7.3,0.2-7.7
			c-0.2-1.4,0.3-2.8,1.3-3.7c6.3-3.7,12,4.1,13.1,5.1s0.7,4.4,0.7,4.4c0.1,0.5,0,0.9-0.1,1.4c-0.2,0.4-1.3,1.4-0.5,2.3
			c1,1-1.3,7.3-2,8.2s-3.3,1.5-3.5,1.6"/>
		<path class="st15" d="M155.2,358c-1.2,0.3-1.3,1-1.6,1.3c-1-0.1-2,0.6-2.2,1.6c-0.9,0-1.7,0.4-2.2,1.1c-0.2,0.6-0.2,1.4,0,2
			c-1,0.3-1.5,1.4-1.1,2.3c0,0,0,0,0,0.1c-0.7,0.7-0.8,1.7-0.4,2.6c-0.6,1-0.5,2.2,0.3,3.1c-0.3,0.8-0.1,1.6,0.5,2.2
			c0,0,0.6-2.2,2.4-1c0.7,0.8,1,1.8,1,2.8l0.1,1.6c0.6,0.1,1.3-0.3,1.4-0.9c0,0,0,0,0-0.1c0.2-1.1,0.1-1.1,0.5-1.4
			c0.7-0.5,1.1-1,1-2.5c0,0,2.3-1,1.6-2.7l-0.7-1.3c0.4,0.7,1.2,1,2,0.8c0,0,1.1,1.7,2.9,0.1c0.8,0.5,1.8,0.2,2.3-0.6
			c0-0.1,0.1-0.1,0.1-0.2c0,0,1.7,0.8,2.3-1.3c0,0,1.6,0.1,1.2-2.1c0,0,0.3-1.1-1.7-1.7c0,0,0.3-1.7-2.4-2.2c-0.2-1-1.1-1.7-2.2-1.7
			c-0.1-1-0.9-1.7-1.9-1.6c-0.3,0-0.5,0.1-0.7,0.2C156.9,358.2,156.1,358,155.2,358z"/>
		<path class="st4" d="M165.4,372.2c-0.8,0.8-1.9,1.5-3,1.8c-1.3,0.6-2.6,1.1-4,1.5c-2.4,0.3-3-0.3-3-0.3s1.1,1.2,3.8,0.7
			c2-0.2,3.8-1.1,5.3-2.4C164.9,373.2,165.2,372.8,165.4,372.2z"/>
		<path class="st4" d="M154.3,386.2c0,0-3.1-2.3-4-3.8l0.3-0.7v-2.1c0.4,0.2,0.8,0.1,1.1-0.2c0.2-0.1,0.4-0.6,0.7-0.7
			c0,1.4,0.2,2.8,0.4,4.2l4.7,5.7L154.3,386.2z"/>
		<path class="st4" d="M151.4,375.3c0,0-0.8-1.6-1.7-1.1s-0.4,3.5,0.3,4.1c0.4,0.4,1,0.4,1.3,0c0.2-0.2,0.3-0.4,0.3-0.6
			c0,0,0-0.7-0.6-0.8s0,0.9-0.5,0.7c-0.6-0.6-0.9-1.5-0.7-2.4c0.3-0.6,0.3,1.3,0.4,1.5s1,0,0.7-0.6
			C150.6,375.3,151,375.1,151.4,375.3z"/>
		<path class="st4" d="M162.7,374.7v4.4c-0.7,0.6-1.6,0.7-2.4,0.3l0.4-0.5l1.2-0.1l0.3-3.9L162.7,374.7z"/>
		<path class="st12" d="M138.1,407.1c0,0,1.8,3.9,8.3,2.8c0.2-0.1,0.4-0.4,0.4-0.7c0,0-6,1.1-8.5-3.3
			C138.1,406.3,138,406.7,138.1,407.1z"/>
		<path class="st12" d="M142.8,405.5c-0.8-0.2-1.5-0.6-2.2-1.1c-0.6-0.5-1.1-1-1.5-1.7c1.7,1.6,3.9,2.6,6.2,2.7
			c0.9,0.1,1.7-0.1,2.5-0.5l-0.3,0.6C147.5,405.4,146.8,406.4,142.8,405.5z"/>
		<path class="st12" d="M148.9,382.2c0,0-0.1,1.6,1.6,4.4s2.4,4.3,2.4,4.3s2.4-3.7,3.4-3.4s1.8,2.1,1.8,2.1l1.4,3.6
			c0,0-2.9-6.2-3.8-4.9s-3,4.3-3,4.3s-3.5-6.7-3.8-8C148.6,383.9,148.6,383,148.9,382.2z"/>
		<path class="st12" d="M150.5,380.4c-0.1,0.7,0.1,1.4,0.5,2c0.2,0.3,0.4,0.5,0.6,0.8l0.7,0.7l0,0c1,0.7,2,1.4,3,2.2l1.3,1.3
			c0.4,0.5,0.8,1,1,1.6c-0.4-0.5-0.8-0.9-1.3-1.2c-0.4-0.3-1-0.7-1.5-1l-3-2.1l0,0l-0.8-0.8c-0.2-0.3-0.4-0.6-0.6-0.9
			C150.1,382.2,150.2,381.3,150.5,380.4z"/>
		<path class="st4" d="M159.3,385.1c0-0.1-4.4,0.3-5.9-5.1c0.7,1.1,1.6,2.1,2.6,2.9c1.3,1,2.2,1.8,3.5,1.4c0.3,0.5,0.5,1,0.5,1.6
			C159.8,385.7,159.5,385.4,159.3,385.1z"/>
		<path class="st12" d="M167.1,383.9l0.4,15.4c1.5-0.2,2.8-1.1,3.5-2.4c0,0-1.9,1.8-3,1.6C168,398.5,167.7,386.3,167.1,383.9z"/>
		<path class="st12" d="M167.5,394c0,0,1.3,0.3,2.7-1.6c-0.3,1.2-1.3,2.2-2.5,2.4L167.5,394z"/>
		<path class="st12" d="M162.7,395.5c1.5-0.3,2.8-1.2,3.7-2.4c0.2,0.5,0,1-0.5,1.3c-0.9,0.9-2.1,1.5-3.4,1.8L162.7,395.5z"/>
		<path class="st12" d="M162.7,402.4c1.4,0.1,2.6-0.7,3.1-2C165.9,400.5,165.9,403.5,162.7,402.4z"/>
		<ellipse class="st10" cx="160.1" cy="409" rx="0.6" ry="0.9"/>
		<ellipse class="st10" cx="160.7" cy="416.8" rx="0.6" ry="0.9"/>
		<ellipse class="st10" cx="159.4" cy="394.4" rx="0.6" ry="0.9"/>
		<path class="st6" d="M165,420c0,0,0.6,3.3,0.2,4.4l1.3-1.1l-0.3-4.4L165,420z"/>
		<polygon class="st6" points="154.6,424.1 154.6,428 153.2,427.8 153.3,424 		"/>
		<path class="st4" d="M158.5,385c0,0,0.8,2.7-0.5,4.3l1.5,3.7c0-1.1,0.1-2.2,0.3-3.3c0.3-1.4,0.3-5-0.4-5.4
			C159.5,384.4,159,384.9,158.5,385z"/>
		<path class="st4" d="M168.3,427.7l0.1,4.3c0.3,0.1,0.6,0.1,0.8-0.1c0,0-0.8,0.4-0.7-1.9S168.4,427.1,168.3,427.7z"/>
		<path class="st4" d="M139.4,408.6c0,0,1.7,1.7,6.4,1.3c-0.2,3-0.2,5.9-0.1,8.9c0,0-0.8-6.5-0.6-7.3c-1.6,0.3-3.3,0.1-4.8-0.4
			c0,0-0.8,6.2-0.4,8.9C139.9,420,138.7,413,139.4,408.6z"/>
		<path class="st4" d="M169.9,398.3l-0.2,1.2c-1,0.4-1.7,1.4-1.6,2.5c0.1,1.9-0.8,17.2-0.8,17.2l-0.5-0.1l-0.2-0.9
			c0.4-1.6,0.6-3.2,0.7-4.8c0-2.1,0.6-12.4,0.3-14.1L169.9,398.3z"/>
		<path class="st12" d="M167.8,399c0,0,0.3,13.2-1,19.2c-3.3,4.4-8.7,6.6-14.1,5.9c0,0,10.4-0.3,13.6-6.2c0.4-2.2,0.7-4.5,0.9-6.8
			c0.4-5.1,0.4-12,0.4-15.2L167.8,399z"/>
		<path class="st16" d="M161.9,481.4l3.4,4.1C163.9,484.4,162.7,483,161.9,481.4z"/>
		<path class="st16" d="M163.4,482.1l-1.7,0.9C162.4,483.2,163.1,482.8,163.4,482.1z"/>
		<path class="st16" d="M164.4,483.1l-1.7,0.9C163.4,484.2,164.1,483.8,164.4,483.1z"/>
		<path class="st16" d="M165.6,484.3l-1.7,0.9C163.9,485.1,165.1,485.4,165.6,484.3z"/>
		<path class="st16" d="M148.4,488.1l3.4,4.1C150.3,491.2,149.2,489.8,148.4,488.1z"/>
		<path class="st16" d="M149.8,488.7l-1.7,0.9C148.8,489.8,149.6,489.4,149.8,488.7z"/>
		<path class="st16" d="M150.9,489.8l-1.7,0.9C149.2,490.6,150.4,490.9,150.9,489.8z"/>
		<path class="st16" d="M152,490.9l-1.7,0.9C151,492,151.7,491.6,152,490.9z"/>
		<path class="st16" d="M149.3,495c0,0-0.5-0.5,0.7-1.4c2.8-1.9,4.1-1.6,4.1-1.6s1.8,1.8,1.2,2.9c0,0-1.6,2.2-3.8,1.4L149.3,495z"/>
		<path class="st16" d="M162.6,487.9c0,0-0.2-0.3,1-1.1c2.8-1.9,4.1-1.6,4.1-1.6s1.8,1.8,1.2,2.9c0,0-2,2.2-3.8,1.4L162.6,487.9z"/>
		<path class="st16" d="M142.1,486.7c2.2,2.9,4.9,5.6,7.8,7.8l-0.1,0.8c0,0-5.4-3.8-7.7-7.4C142,487.9,141.9,487.6,142.1,486.7z"/>
		<path class="st16" d="M155.8,480.4c0,0,1.7,3,7.8,7.4l0.1,0.8c0,0-5.6-3.5-7.9-7.1C155.7,481.2,155.7,480.8,155.8,480.4z"/>
		<path class="st14" d="M161.2,436.3c0,0,4.4-2.4,4.3-4l-4.5,3.2L161.2,436.3z"/>
		<path class="st1" d="M298,147.1c0,0-0.8,0.1-0.9,0.5c-0.1,0.9-0.1,1.7,0,2.6c0.1,0.5,0.7,0.6,0.7,0.6l0.2-0.5L298,147.1L298,147.1
			z"/>
		<path class="st2" d="M297.9,147.3c0,0-0.5,0.2-0.4,0.4c0.1,0.1,0.3,0.2,0.4,0.3V147.3z"/>
		<path class="st3" d="M302,128.3l0.1,24l-1.8,9.8c-3.1,0.3-2.7-3.4-2.7-3.4s-0.3,0.2-1.1-0.3s-0.5-2.4-0.3-4.6
			c0.1-1.2,0.7-2.3,1.7-3.1c0-0.7,0.3-10.7,0.7-14.5c0.1-2.9,0-5.7-0.3-8.6L302,128.3z"/>
		<path class="st2" d="M297.8,150.7c0.8,0.7,1.8,1.1,2.9,0.9l1.4-0.3l0.1-2.6c0,0-0.3,0.8-2.2,0.7c-0.9,0-1.7-0.5-2-1.4
			c0,0-0.1-0.1-0.2,0.3C297.6,149.1,297.6,150,297.8,150.7z"/>
		<path class="st4" d="M300.9,152.9c0,0-0.7,2.1-2.1,2.3c-0.6,0.2-1,0.8-1,1.5l-0.2,2.1c0,0,0.8-0.3,0.8-2.4c0,0,0-0.5,1-0.8
			C300.5,155.3,301.2,154.1,300.9,152.9z"/>
		<path class="st5" d="M325.4,215.5c0,0,1,1.7,0.7,2.5s-8.4,9.4-10.8,8.6s-2.8-1.6-2.5-2.5s5.3-7.8,5.3-7.8
			C321.6,218.9,325.4,215.5,325.4,215.5z"/>
		<path class="st5" d="M311.6,208.5c0,0,1,2.4,0.7,3s-8.5,8.4-10.3,8.3c-1.4-0.1-2.6-1.2-2.9-2.6c0-0.9,5.5-7,5.5-7L311.6,208.5z"/>
		<path class="st17" d="M301.2,151.3c4.4,2.9,21.4,7.2,21.4,7.2c0.3,3.1-0.3,36-0.3,36c-0.7,5.2,3.5,18.9,3.5,18.9s0.9,3-3.3,4.1
			s-4.8-1.9-4.8-1.9s-4.8-17.7-5.5-20.3s-1.6-20.3-1.6-20.3c-1.6,5.4-2.4,11.2-2.2,14.5s4.4,18.3,4.4,18.3c-1.2,3.9-5.7,3.5-7.1,3
			c-1-0.3-1.7-1.3-1.5-2.4c-0.6-2.6-5.2-17.8-5.2-19.8s0.8-24.4,0.8-24.4C299.8,154.5,301.3,151.3,301.2,151.3z"/>
		<path class="st7" d="M320.8,150.8l-2.6,6.4c-11.6,2.7-16.9-5.1-16.9-5.1c-0.2-1.5-0.1-3,0.3-4.4C310,155,320.8,150.9,320.8,150.8z
			"/>
		<path class="st3" d="M312.6,108.1l3.1,2c0,0,1.1,3.2,0.6,3.8s-3.3,2.6-4.9,4.2c-1.2,1.6-2.2,3.3-2.9,5.2l-0.8-5
			c-0.1-1.7,0.2-3.5,0.9-5.1L312.6,108.1z"/>
		<path class="st18" d="M318.3,112.1c0,0,6.7,28,6.7,32.1c-0.1,2.8-1,5.4-2.6,7.7c-14.1,7-21.2-3.7-21.2-3.7
			c-1.1-4.6-0.8-18.7-0.8-18.7c-1.5-0.2-2.8-1.1-3.5-2.4l-0.2-3.3c0.2-1.6,1-1.1,1-1.1s0.3-8.7,0.3-9c0.3-7.4,5.3-7.4,5.3-7.4
			c0.3,1.7,2.8,7.1,2.8,7.1l2.4,1l-0.9,3.2c0,0.8,0.9,5.7,0.9,5.7s1.7-5.1,3.7-6s4.9-4.7,4.9-4.7c0.3-0.7-0.3-2.7-0.3-2.7
			c0.2,0,0.5-0.1,0.6-0.3L318.3,112.1z"/>
		<path class="st9" d="M316.1,153.3c0.2-0.3,0.4-0.1,0.4,0.1c0.2,0.2,0.3,0.3,0.3,0.5c0.2,0.3,0.3,0.7,0.5,1
			c0.2,0.8,0.5,1.5,0.9,2.2c0.9,1.4,2.4,2.1,4,2c1.6-0.2,3-0.9,4.1-2.1c1.1-1.2,1.9-2.5,2.5-4h0.1c-0.2,0.8-0.4,1.6-0.8,2.4
			c-0.4,0.7-0.8,1.4-1.3,2.1c-1.1,1.4-2.7,2.3-4.5,2.4c-0.9,0.1-1.9-0.1-2.7-0.5c-0.8-0.4-1.5-1.1-1.9-1.9c-0.2-0.4-0.3-0.8-0.4-1.2
			c-0.1-0.3-0.2-0.8-0.3-1.1s-0.2-0.8-0.3-1.1s-0.2-0.3-0.3-0.5S316.3,153.2,316.1,153.3L316.1,153.3z"/>
		<ellipse class="st19" cx="308" cy="130.4" rx="0.6" ry="0.9"/>
		<path class="st20" d="M329.3,149.7c0.4,3.1-0.3,4.4-0.3,4.4s0.4,7.6,0.5,11.8c0.1,4.5-1.6,5.2-1.6,5.2l-6.8,3.9
			c-1.1,0.5-3.8,1.8-4.9-0.4c-0.6-1.2-1-14.4-0.9-19.6c0-0.7,0-1.3,0.2-2c0.4-0.9,6.9-4,6.9-4C324.4,147.3,328.9,146.6,329.3,149.7z
			"/>
		<path class="st21" d="M316.1,153.3c0.6-0.3,1.3,0,1.6,0.6c0.1,0.2,0.1,0.5,0.1,0.7c0,2,0.2,3.7,0.9,4.5s7,3.6,10.3-5
			c-0.4,2.5-2,4.6-4.2,5.8c0,0-4.1,2-6.6-0.9c-0.5-0.9-0.8-2-0.7-3.1C317.6,153.8,317.3,153.3,316.1,153.3z"/>
		<path class="st3" d="M322.3,138.3c0,0,0,2.4,0.2,7.2s-1.7,18.9-1.7,18.9c1.1,1.4,3,1.8,4.5,1c-0.4-2,2.8-14.6,2.8-14.6
			c1.6-9.6,0.3-13.7,0.3-13.7C323.7,134.5,322.3,138.3,322.3,138.3z"/>
		<path class="st22" d="M308.8,114.1l-0.4-0.5l-0.3,0.9c-0.3,1.3-0.5,2.5-0.6,3.8l0.8,2.4c-0.7-4.5,0.2-5.9,0.2-5.9L308.8,114.1z"/>
		<path class="st18" d="M317.3,111.4l-0.2-1.8c1.9,0.8,2.4,3.8,2.4,3.8s5.8,3.9,7.4,6.3s1,4.3,1.3,7.8c0.1,0.8,0.5,3.2,0.9,5.3
			c0.5,0.2,1,4.2,1,4.2s-1.1,3.5-6.8,3.1l-1.6-0.3c0,0-3.3-9.1-3.1-12.5s-0.1-5,1.6-6.4"/>
		<path class="st3" d="M325.3,165.1c0.3,1.7,1.1,5.1,0.7,6.8c-0.6,1.8-1.6,3.4-3,4.6c-1.7,1.2-2.3,0.2-2.4-0.3s0.6-3,0.7-3.6
			c0.2-0.9-0.2-1.9-0.3-3.4c-0.9,0.1-0.4,2-0.6,3s-1.4,0.7-1.6,0.3c-0.2-0.7-0.3-1.5-0.3-2.2c0-0.9,0.1-1.8,0.4-2.7
			c0.7-2.6,2-3.3,2-3.3C323.2,166.9,325.2,165.2,325.3,165.1z"/>
		<path class="st20" d="M316,156.4c-0.8-3-1.7-6.1-2.8-9c-0.7-1.9-7.8-20.8-9.8-29.5s0.3-10.6,0.3-10.6l0.3,1.7
			c-1.9,4.1,5.7,26,9,33.7c1.7,4.1,3.2,8.2,4.3,12.5C317.8,157,316.3,158.2,316,156.4z"/>
		<path class="st22" d="M319,127c0.1,1.5,0.3,3,0.8,4.4c0.3,1.3,0.7,2.6,1.1,3.9c0.1,0.2,0,0.2,0.1,0.4c-0.2,0.7,0.8,3.8,1.3,3.8
			c0.1,0.6-0.2,0.6-0.6,0.6s-1.8-5.5-2.7-8.4c-0.4-1.5-0.6-3-0.6-4.6c0-1.5,0.2-3.1,0.8-4.5C318.9,124.1,318.9,125.5,319,127z"/>
		<path class="st13" d="M309.8,153.8l-0.1,4.2c-1.5-0.4-2.9-1-4.2-1.7c-0.7-2.9,0.1-4.3,0.1-4.3
			C306.9,152.9,308.3,153.5,309.8,153.8z"/>
		<path class="st21" d="M316.3,152.3c0,0,1,2.2,0.7,2.8s-1,1.2-1.6-1c0,0-0.1,0-0.1,0.5c0,0,0.3,1.2,1,1.3s1.2-0.8,0.7-2.1
			c-0.2-0.5-0.4-1-0.5-1.5l5.7-3.1v-0.3C322.4,148.9,316.9,151.7,316.3,152.3z"/>
		<path class="st22" d="M303.7,117.2c5.1-2.5,4.9,6.2,4.9,6.2C307.6,116,303.7,117.3,303.7,117.2z"/>
		<polygon class="st22" points="306.7,113.4 304.8,116.9 303.8,117.2 306.2,113.2 		"/>
		<path class="st23" d="M306.9,166.3c3.9,2.9,3.7,9.4,3.7,9.4v-2c0.1-2.2-0.4-4.4-1.5-6.3l2.6,0.7l-4.2-2.8l-1.7-7.2L306.9,166.3z"
			/>
		<path class="st3" d="M308.7,114.4c-0.2-0.1-2.9-0.7-3.5-1.6s-3-7.2-2-8.2c0.8-0.9-0.3-1.8-0.5-2.3c-0.1-0.5-0.2-0.9-0.1-1.4
			c0,0-0.3-3.5,0.7-4.4s6.8-8.8,13.1-5.1c1,0.9,1.5,2.3,1.3,3.7c-0.1,0.3,0.2,7.7,0.2,7.7s1.7-0.6,1.9,1.6s-0.4,3.8-1.3,4.5
			c-0.6,0.5-0.9,0.8-1.5,0.8l0.2,1.8"/>
		<path class="st24" d="M310.4,88.6c-2.4-0.9-2.6,1.4-2.6,1.4c-1.1-0.1-2,0.7-2.2,1.7c-2.7,0.4-2.4,2.2-2.4,2.2
			c-1.9,0.6-1.7,1.7-1.7,1.7c-0.3,2.2,1.2,2.1,1.2,2.1c0.1,0.9,0.9,1.5,1.8,1.4c0.2,0,0.4-0.1,0.5-0.1c0.4,0.9,1.3,1.3,2.2,0.9
			c0.1,0,0.1-0.1,0.2-0.1c0.6,0.8,1.7,1,2.4,0.4c0.2-0.1,0.3-0.3,0.5-0.5c0.8,0.2,1.6-0.1,2-0.8l-0.7,1.3c-0.7,1.7,1.6,2.7,1.6,2.7
			c-0.3,1,0.1,2,1,2.5c0.4,0.3,0.3,0.3,0.5,1.4c0.1,0.6,0.7,1.1,1.4,1l0.1-1.6c0-1,0.4-2,1-2.8c1.8-1.1,2.4,1,2.4,1
			c0.6-0.6,0.8-1.4,0.5-2.2c0.7-0.9,0.8-2.1,0.3-3.1c0.5-0.9,0.3-1.9-0.4-2.6c0.3-1-0.2-2-1.1-2.4c0.2-0.6,0.2-1.4,0-2
			c-0.5-0.7-1.3-1.1-2.2-1.1c-0.2-1-1.2-1.7-2.2-1.6c-0.3-0.3-0.3-1-1.6-1.3C312,88,311.1,88.2,310.4,88.6z"/>
		<path class="st4" d="M303.5,103.5c1.5,1.3,3.3,2.2,5.3,2.4c2.7,0.5,3.8-0.7,3.8-0.7s-0.5,0.5-3,0.3c-1.4-0.3-2.7-0.8-4-1.5
			c-1.1-0.3-2.2-1-3-1.8C302.8,102.7,303.1,103.2,303.5,103.5z"/>
		<path class="st4" d="M310.5,118.6l4.7-5.7c0.3-1.4,0.4-2.8,0.4-4.2c0.3,0.1,0.5,0.6,0.7,0.7c0.3,0.3,0.7,0.4,1.1,0.2v2.1l0.3,0.7
			c-0.9,1.6-4,3.8-4,3.8L310.5,118.6z"/>
		<path class="st4" d="M317.3,106.1c-0.3,0.6,0.5,0.8,0.7,0.6s0.1-2.1,0.4-1.5s-0.2,2.3-0.7,2.4s0.1-0.8-0.5-0.7s-0.6,0.8-0.6,0.8
			c0,0.5,0.5,0.9,1,0.9c0.2,0,0.4-0.1,0.6-0.3c0.7-0.6,1.2-3.7,0.3-4.1s-1.7,1.1-1.7,1.1C317.1,105.2,317.5,105.4,317.3,106.1z"/>
		<path class="st4" d="M306,105l0.3,3.9l1.2,0.1l0.4,0.5c-0.8,0.3-1.7,0.2-2.4-0.3v-4.4L306,105z"/>
		<path class="st22" d="M329.9,135.9c-2.5,4.4-8.5,3.3-8.5,3.3s0,0.6,0.4,0.7c6.4,1.1,8.3-2.8,8.3-2.8
			C330.1,136.7,330,136.3,329.9,135.9z"/>
		<path class="st22" d="M320.6,135.5l-0.3-0.6c0.8,0.4,1.6,0.6,2.5,0.5c2.3-0.1,4.5-1.1,6.2-2.7c-0.4,0.7-0.9,1.2-1.5,1.7
			c-0.6,0.5-1.4,0.9-2.2,1.1C321.3,136.5,320.6,135.5,320.6,135.5z"/>
		<path class="st22" d="M319.3,114.6c-0.3,1.3-3.8,8-3.8,8s-2-3-3-4.3s-3.8,4.9-3.8,4.9l1.4-3.6c0,0,0.9-1.7,1.8-2.1
			s3.4,3.4,3.4,3.4c0.7-1.5,1.5-2.9,2.4-4.3c1.8-2.9,1.6-4.4,1.6-4.4C319.5,113,319.5,113.9,319.3,114.6z"/>
		<path class="st22" d="M317.7,112.9c-0.1,0.3-0.3,0.6-0.6,0.9l-0.8,0.8l0,0l-3,2.1c-0.5,0.3-1,0.7-1.5,1c-0.5,0.3-0.9,0.7-1.3,1.2
			c0.2-0.6,0.5-1.2,1-1.6l1.3-1.3c1-0.8,2-1.5,3-2.2l0,0l0.7-0.7c0.2-0.3,0.4-0.5,0.6-0.8c0.4-0.6,0.5-1.3,0.5-2
			C318,111.2,318,112.1,317.7,112.9z"/>
		<path class="st4" d="M308.1,116.1c0.2-1.4,0.5-1.6,0.5-1.6c1.3,0.3,2.2-0.4,3.5-1.4c1-0.8,1.9-1.8,2.6-2.9c-1.6,5.3-5.9,5-5.9,5.1
			C308.8,115.2,308.4,115.5,308.1,116.1z"/>
		<path class="st22" d="M300.1,128.5c-1.1,0.3-3-1.6-3-1.6c0.6,1.4,2,2.3,3.5,2.4l0.4-15.4C300.4,116.4,300.1,128.5,300.1,128.5z"/>
		<path class="st22" d="M300.4,125c-1.2-0.2-2.2-1.2-2.5-2.4c1.4,1.8,2.7,1.6,2.7,1.6L300.4,125z"/>
		<path class="st22" d="M305.6,126.3c-1.3-0.3-2.5-0.9-3.4-1.8c-0.5-0.3-0.7-0.8-0.5-1.3c0.9,1.2,2.2,2,3.7,2.4L305.6,126.3z"/>
		<path class="st22" d="M302.2,130.4c0.5,1.3,1.7,2.1,3.1,2C302.2,133.6,302.2,130.5,302.2,130.4z"/>
		<ellipse class="st19" cx="308" cy="139.1" rx="0.6" ry="0.9"/>
		<ellipse class="st19" cx="307.4" cy="146.9" rx="0.6" ry="0.9"/>
		<ellipse class="st19" cx="308.7" cy="124.5" rx="0.6" ry="0.9"/>
		<path class="st17" d="M301.9,148.9l-0.3,4.4l1.3,1.1c-0.4-1,0.2-4.4,0.2-4.4L301.9,148.9z"/>
		<polygon class="st17" points="314.8,154.1 314.9,157.9 313.5,158.1 313.6,154.1 		"/>
		<path class="st4" d="M309.6,115.1c0,0-0.8,2.7,0.5,4.3l-1.5,3.7c0-1.1-0.1-2.2-0.3-3.3c-0.3-1.4-0.3-5,0.4-5.4
			C308.6,114.4,309.1,115,309.6,115.1z"/>
		<path class="st4" d="M299.8,157.8l-0.1,4.3c-0.3,0.1-0.6,0.1-0.8-0.1c0,0,0.8,0.4,0.7-1.9S299.7,157.2,299.8,157.8z"/>
		<path class="st4" d="M328.7,138.7c0,0-1.7,1.7-6.4,1.3c0.2,3,0.2,5.9,0.1,8.9c0,0,0.8-6.5,0.6-7.3c1.6,0.3,3.3,0.1,4.8-0.4
			c0,0,0.8,6.2,0.4,8.9C328.2,150.1,329.4,143,328.7,138.7z"/>
		<path class="st4" d="M298.2,128.4l0.2,1.2c1,0.4,1.7,1.4,1.6,2.5c-0.1,1.9,0.8,17.2,0.8,17.2l0.5-0.1l0.2-0.9
			c-0.4-1.6-0.6-3.2-0.7-4.8c0-2.1-0.6-12.4-0.3-14.1L298.2,128.4z"/>
		<path class="st12" d="M300.4,129c0,0-0.3,13.2,1,19.2c3.3,4.4,8.7,6.6,14.1,5.9c0,0-10.4-0.3-13.6-6.2c-0.4-2.2-0.7-4.5-0.9-6.8
			c-0.4-5.1-0.4-12-0.4-15.2L300.4,129z"/>
		<path class="st16" d="M306.2,211.5l-3.4,4.1C304.3,214.6,305.4,213.2,306.2,211.5z"/>
		<path class="st16" d="M304.7,212.2l1.7,0.9C306.4,213,305.1,213.3,304.7,212.2z"/>
		<path class="st16" d="M303.7,213.2l1.7,0.9C305.4,214,304.1,214.3,303.7,213.2z"/>
		<path class="st16" d="M302.5,214.3l1.7,0.9C303.5,215.4,302.8,215,302.5,214.3z"/>
		<path class="st16" d="M319.7,218.1l-3.4,4.1C317.8,221.2,319,219.8,319.7,218.1z"/>
		<path class="st16" d="M318.3,218.8l1.7,0.9C319.3,219.9,318.5,219.5,318.3,218.8z"/>
		<path class="st16" d="M317.3,219.8l1.7,0.9C318.3,220.9,317.5,220.5,317.3,219.8z"/>
		<path class="st16" d="M316.1,221l1.7,0.9C317.1,222,316.4,221.7,316.1,221z"/>
		<path class="st16" d="M318.8,225.1c0,0,0.5-0.5-0.7-1.4c-2.8-1.9-4.1-1.6-4.1-1.6s-1.8,1.8-1.2,2.9c0,0,1.6,2.2,3.8,1.4
			L318.8,225.1z"/>
		<path class="st16" d="M305.5,218c0,0,0.2-0.3-1-1.1c-2.8-1.9-4.1-1.6-4.1-1.6s-1.8,1.8-1.2,2.9c0,0,2,2.2,3.8,1.4L305.5,218z"/>
		<path class="st16" d="M326.1,216.8c-2.2,2.9-4.9,5.6-7.8,7.8l0.1,0.8c0,0,5.4-3.8,7.7-7.4C326.2,217.6,326.2,217.2,326.1,216.8z"
			/>
		<path class="st16" d="M312.3,210.5c0,0-1.7,3-7.8,7.4l-0.1,0.8c0,0,5.6-3.5,7.9-7.1C312.4,211.3,312.4,210.9,312.3,210.5z"/>
		<path class="st23" d="M306.9,166.3c0,0-4.4-2.4-4.3-4l4.5,3.2L306.9,166.3z"/>
		<path class="st25" d="M235.3,347.4c0,0-5.2,6.8-5.5,7.8s0.1,1.7,2.5,2.5s10.5-7.8,10.8-8.6s-0.9-3.1-0.9-3.1
			S238.8,350.1,235.3,347.4z"/>
		<path class="st25" d="M221.7,341.2c0,0-5.5,6.3-5.5,7.2c0.3,1.4,1.5,2.5,2.9,2.6c1.7,0.2,10-7.7,10.3-8.3s-0.7-3-0.7-3
			L221.7,341.2z"/>
		<path class="st26" d="M216.6,295.3c0,0-0.8,22.4-0.8,24.4s4.6,17.2,5.2,19.8c-0.1,1.1,0.5,2.1,1.5,2.4c1.5,0.4,5.9,0.9,7.1-3
			c0,0-4.2-15-4.4-18.3s0.6-9.1,2.2-14.5c0,0,0.9,17.7,1.6,20.3s5.5,20.3,5.5,20.3s0.6,3,4.8,1.9s3.3-4.1,3.3-4.1
			s-4.2-13.7-3.5-18.9c0,0,0.6-32.8,0.3-36c0,0-15.1-3-19.4-5.9C220,283.7,216.6,285.5,216.6,295.3z"/>
		<path class="st3" d="M212.2,282.1c-0.5,0.9-1,1.9-1.2,3c-0.2,1.3-0.3,3.4-1,4.6c0,0-0.9,0.8,0.9,0.9s1.6-1.3,1.6-1.3
			s-0.8,5.1,2.6,5.1l0.8-0.1l-0.3-10.7C214.4,283.3,213.3,282.8,212.2,282.1z"/>
		<path class="st4" d="M212.2,282c0.7,0.7,1.4,1.2,2.3,1.6v1c-0.6-0.9-1.6-1.6-2.7-1.7L212.2,282z"/>
		<path class="st27" d="M226.6,310.3c-0.3,0-1,0.6-0.9,2.3s-0.3,15.1-0.3,15.1c-0.4,0.8,0,1.7,0.8,2.1c0.1,0,0.2,0.1,0.3,0.1
			c1.8,0.6,3.4,1.6,4.6,0.9s19.5-11.7,19.5-11.7c0.7-0.2,1.2-0.9,1.2-1.7c0-1.4,0.1-16.6,0.1-16.6l-5.7,0.4L226.6,310.3z"/>
		<path class="st28" d="M221.9,243.3c0,0-2.5,3-2.3,9.8s-0.1,21.7,0,23.5s0.3,5.1,0.3,5.1s5.3,4,9.8,3.8c-0.7-3.7-0.9-7.5-0.6-11.2
			c0.6-5.1-0.5-13.8,0.3-17.1s4.4-9.4,5-13.2l-0.4-1.4L221.9,243.3z"/>
		<path class="st29" d="M222.1,248.6c-0.2,0.2,0.4,1.9,1.1,2.9c0.3,0.5,0.9,0.7,1.5,0.4c0,0,0.1-0.1,0.1-0.1l1.5-2.1l-1.7-2.1
			C223.7,247.8,222.9,248.2,222.1,248.6z"/>
		<path class="st29" d="M223.1,251.2c0,0-1.3,8.6-2.4,16.6c0.7,2.5,1.7,4.9,2.8,7.2c0,0,2.5-4.3,3.2-5.7c-0.1-0.3-2.3-17.8-2.3-17.8
			L223.1,251.2z"/>
		<path class="st30" d="M233.8,241.9c0,0,1.6,1.1-0.3,5.1s-4.9,9-4.6,16s0.1,13.7,0.3,18.5c0.2,4.1-0.5,7.5-0.1,10
			c0.2,1.9,0.3,3.8,0.1,5.7c2.1,1,4.5,1.3,6.8,0.9c0,0,6.1-0.2,9.5-4.2c-0.3-1.6-0.7-3.1-1.3-4.6c0,0,2.7-9.3,2.9-14
			s-1.9-13.8-2.3-17.2s0.3-5.4-1.3-7.8s-7.4-6.3-7.4-6.3s-0.4-3-2.4-3.8L233.8,241.9z"/>
		<path class="st30" d="M219.4,237.3c-3-0.2-5.7,2.1-5.9,5.1c0,0,0,0.1,0,0.1c0,0,0,12.5-0.1,15.3c-0.1,2.8-0.8,15.6-0.9,17.5
			c0,0.8-0.1,1.7-0.2,2.5c-0.2,0.6-0.4,1.3-0.4,1.9c0,0.7,0.1,1.5,0.2,2.2c0.7,0.7,1.5,1.2,2.4,1.6c0,0-0.4,6.4-0.3,9.1
			c0.5,1.1,1.3,2,2.2,2.7c1.4,0.9,2.2,1.7,2.9,1.3s-0.1-3,0.1-5.6s0.4-13.8,0.4-19s0.3-9.9,0-13.5s-0.4-12.5,1.8-15.1
			C221.7,243.6,219.3,242,219.4,237.3z"/>
		<path class="st31" d="M216.7,244c0,1.7-0.1,3.3-0.1,5s-0.1,3.3,0,5s0.2,3.3,0.2,5s-0.1,3.3-0.2,5s-0.3,3.3-0.4,5s-0.3,3.3-0.4,5
			l-0.5,5c-0.2,1.7-0.3,3.3-0.6,5c0-1.7,0.1-3.3,0.2-5l0.3-5c0.1-1.7,0.2-3.3,0.3-5c0.2-1.6,0.3-3.3,0.3-4.9c0.1-1.7,0.2-3.3,0.3-5
			s-0.1-3.3,0-5C216,250.7,216.2,247.3,216.7,244z"/>
		<path class="st32" d="M224.4,247.7c3.5-1.2,6.7-3.2,9.4-5.7c0,0,0.6,0.3,0.7,2c-2.4,2.8-5.2,5.2-8.3,7.1
			C225.9,249.9,225.2,248.7,224.4,247.7z"/>
		<path class="st32" d="M223.3,244.5c0,0,0.1,2.3,1.1,3.2c-1.1,0.7-2.3,1.3-3.6,1.7c0,0-0.1-4.5,0.8-6
			C222.1,243.9,222.7,244.3,223.3,244.5z"/>
		<path class="st31" d="M214.8,248.6l0.9,2.9c0.2,0.5,0.3,0.9,0.4,1.4c0.1,0.5,0.1,1.1,0,1.6H216c-0.3-0.4-0.6-0.8-0.8-1.3
			c-0.2-0.5-0.3-1-0.3-1.5C214.9,250.6,214.7,249.7,214.8,248.6L214.8,248.6z"/>
		<path class="st31" d="M219.5,290.8c0.6-7.3,0.7-26,0.5-28.6c-0.2-3.7-0.7-10.9,0.3-15.2l1.4-3.5l-1.4-2c0,0-1.9,2.6-2.2,10.6
			c0,0-0.7,6.2-1,7.2c0,0,2,3.2,1.7,5.2s-1.9,3.5-1.1,7.6c0.6,3.1,1.4,11.2,1.7,14.6c0.1,1,0,5.3,0,5.3L219.5,290.8z"/>
		<path class="st3" d="M224.5,247.7c3.5-1.2,6.7-3.1,9.3-5.7l-0.2-1.9c0.5,0.2,1.1-0.2,1.7-0.6s1.1-2.4,1-4.6s-1.9-1.6-1.9-1.6
			s-0.3-7.3-0.2-7.7c0.2-1.4-0.3-2.8-1.3-3.7c-6.3-3.7-9.2,0.2-11.7,0.5s-2,4.1-2,4.1v4.9c-0.1,0.5,0,0.9,0.1,1.4
			c0.2,0.5,0.2,1,0.1,1.5c-0.3,1-0.3,2-0.2,3c-0.1,5.9,3.4,7,3.8,7.1S223.1,246.4,224.5,247.7z"/>
		<path class="st33" d="M218.7,220.9c0.7,0.6,1.7,0.8,2.6,0.4c1.6-0.6,5.4-3.7,7.6-3s6.5,2.4,6.9,3.5c0.2,0.8,0.2,1.6,0,2.4
			c0,0,1.3,0.4,1.3,2.6s-0.2,6.6-0.7,8.1c0,0-0.6-2.2-2.4-1c-0.7,0.8-1,1.8-1,2.8l-0.1,1.6l-1.6,0.7l0.2-1.7c0-0.5-0.2-1-0.5-1.4
			c-0.8-0.8-1.3-1.8-1.6-2.9c-0.2-0.9,0.1-1.9,0.8-2.5l2.3-2.2l-3.6,2.1c-1.3,0.7-2.9,0.7-4.2,0.1l-5.5-3.1
			C219.1,227.3,216.1,225.4,218.7,220.9z"/>
		<path class="st4" d="M223.3,244.5c1.9,0.6,3.9,0.3,5.6-0.7c1.1-0.9,2-2,2.6-3.3c0,0,0.4,2.2-3,3.9c-1.4,0.7-2.5,0.6-3.5,1.2
			c-0.5,0.3-0.7,1-0.6,2C223.7,246.8,223.3,245.7,223.3,244.5z"/>
		<path class="st4" d="M219.4,232.6c0.8,0.8,1.9,1.5,3,1.8c1.3,0.6,2.6,1.1,4,1.5c2.4,0.3,3-0.3,3-0.3s-0.3,1.5-3,1
			c-2.4-0.5-4.6-1.5-6.5-3C219.8,233.3,219.6,233,219.4,232.6z"/>
		<path class="st4" d="M233.7,240.1c-0.3,0-0.5-0.1-0.7-0.3c-0.2-0.1-0.4-0.6-0.7-0.7c0,0,0.2,3.9-2.1,5.8c1.3-0.9,2.6-1.9,3.7-3
			L233.7,240.1z"/>
		<path class="st27" d="M226.4,311.2l3.9,2.2c0.3,0.2,0.6,0.2,0.9,0l20.5-12.2c0.2-0.2,0.3-0.5,0.1-0.8c0,0-0.1-0.1-0.1-0.1
			l-3.8-2.1c-0.4-0.2-0.8-0.2-1.2,0c-1.8,1-7.3,4.3-12.2,7.1c-3.5,2.1-6.7,3.9-8.1,4.9C226.1,310.5,226.2,310.9,226.4,311.2
			C226.4,311.2,226.4,311.2,226.4,311.2z"/>
		<path class="st4" d="M233.4,235.7c0,0,0.8-1.6,1.7-1.1s0.4,3.5-0.3,4.1c-0.4,0.4-1,0.4-1.3,0c-0.2-0.2-0.3-0.4-0.3-0.6
			c0,0,0-0.7,0.6-0.8s0,0.9,0.5,0.7c0.6-0.6,0.9-1.5,0.7-2.4c-0.3-0.6-0.3,1.3-0.4,1.5s-1,0-0.7-0.6
			C234.1,235.7,233.8,235.6,233.4,235.7z"/>
		<path class="st31" d="M212.2,278.1c0,0,0.6,1,2.8,1.5l-0.1,0.4C214.8,280,212.7,279.6,212.2,278.1z"/>
		<path class="st3" d="M236.9,295.1c-0.7,1.2-1.3,2.5-1.7,3.9c0,0-0.8,1.8-0.4,2.7s0.5,1.4,0.5,1.4l1.6-1.1c0,0-0.4-1.6,0.5-1.6
			s1.4,2.2,1.6,2.7s-1.6,1.7-1.4,2.2s0.7,1.6,2.4,0.3c0,0,2.5-1.3,3.3-2.9s-0.7-5.7-1.4-6.9C241.8,296.1,239.2,297.7,236.9,295.1z"
			/>
		<path class="st31" d="M236.9,253c-0.7,1.6-1.2,3.3-1.3,5c-0.1,1.6,0.2,3.2,0.8,4.7c0.8,2.9,1.5,5.9,2,8.9c0.2,0.8,0.3,1.6,0.3,2.4
			v2.4c0,1.6-0.1,3.2-0.2,4.8c-0.2,3.2-0.3,6.4-0.6,9.6l0,0c-0.3,1.4-0.5,2.8-0.6,4.2v-0.1c0.1,0.2,0.3,0.3,0.5,0.5
			c0.2,0.2,0.5,0.3,0.8,0.3c0.5,0.2,1.1,0.3,1.7,0.3c0.6,0,1.1-0.2,1.6-0.4c0.5-0.4,0.8-0.8,1-1.4l0,0c0.6-2.2,1.1-4.3,1.7-6.4
			c-0.4,2.2-0.9,4.4-1.3,6.5l0,0c-0.2,0.6-0.5,1.2-1,1.7c-0.5,0.4-1.2,0.6-1.8,0.6c-0.6,0-1.3-0.1-1.9-0.3c-0.7-0.2-1.3-0.6-1.7-1.2
			l0,0V295c0-1.5,0.2-3,0.5-4.4v0.1c0.3-3.1,0.3-6.4,0.5-9.6c0.1-1.6,0.2-3.2,0.2-4.8c0.1-0.8,0.1-1.6,0-2.4
			c-0.1-0.8-0.2-1.6-0.3-2.4c-0.6-3.1-1.3-6.3-2.1-9.3C234.6,259.1,235.1,255.7,236.9,253z"/>
		<path class="st31" d="M237.5,290.8c0.5,0.2,1,0.4,1.5,0.6c0.5,0.2,1,0.3,1.5,0.3c0.5,0.1,1,0.1,1.5,0.1c0.5,0,1-0.1,1.6-0.1
			c-0.5,0.3-1,0.6-1.5,0.8c-0.5,0.2-1.1,0.2-1.7,0.1c-0.6-0.1-1.2-0.3-1.7-0.6C238.2,291.8,237.7,291.4,237.5,290.8z"/>
		<path class="st34" d="M219.9,281c2.7,2.2,5.9,3.6,9.4,4l-0.2,2v1.8c0,0-6.3-0.9-9.3-3.7L219.9,281z"/>
		<path class="st35" d="M222.3,282.7c-0.4,1.4-0.4,2.8,0,4.2c1.2,0.9,2.7,1.4,4.2,1.4l0.1-3.9C225.1,284.1,223.6,283.6,222.3,282.7z
			"/>
		<path class="st36" d="M222.6,289.1l1.7,7.2l4.2,2.8l-2.6-0.7c1.1,1.9,1.6,4.1,1.5,6.3v2c0,0,0.3-6.5-3.7-9.4L222.6,289.1z"/>
		<path class="st4" d="M210,289.8c0,0,1.1,1.2,2.3-0.7c0.2-0.4,0.4-0.8,0.5-1.3c0.1-0.5,0.2-0.9,0.2-0.9s0.6,0.2,0.1,1.4
			c-0.2,0.6-0.5,1.2-0.8,1.7c-0.5,0.5-1.3,0.7-2,0.5c0,0-0.6-0.2-0.5-0.5L210,289.8z"/>
		<path class="st37" d="M238.2,301.2l-3.3,2.3c0,0-0.8,0.3-0.8,1.9v2.6l1.6,0.6l1.3-0.7v-1.7c0,0-0.1-1,0.3-1.4s1.1-0.7,1.7-1.2
			C238.9,302.8,238.6,302,238.2,301.2z"/>
		<ellipse class="st38" cx="223.6" cy="278" rx="0.5" ry="0.7"/>
		<path class="st4" d="M213.1,287.1c0,0,1.1,0.1,1.3-0.6v0.9c0,0-0.3,0.3-1.3,0.3V287.1z"/>
		<path class="st31" d="M229.1,286c0,0,0.4-2.7,0.7-8.6s2.7-12.9,2.7-13.2s-1.2-4-1.2-4s1.5-0.1,2-0.7s-0.5-3.7,0.9-7.2
			s2.2-5.5,1.8-8.6c0,0-0.6-3-2.4-3.6l0.2,1.9c0,0,2,1.1-1,6.3c0,0-4.3,6.9-4.1,14.2c0,0,0.3,8,0.1,10.2S229.5,283.5,229.1,286z"/>
		<path class="st39" d="M235.6,308.5l1.3-0.7v-2.1c0-0.6,0.3-1.1,0.8-1.4l1.3-1c-0.1-0.5-0.2-0.9-0.3-1.4c-0.8,0.7-1.6,1.3-2.4,1.9
			C235.2,304.7,235.6,308.5,235.6,308.5z"/>
		<path class="st31" d="M234.1,256c0,1.1,0.2,2.1,0.6,3.1l0.7,0.9c0.1,0.5,0.1,1,0.1,1.5c-0.7-0.7-1.2-1.5-1.5-2.5
			c-0.1-0.5-0.2-1-0.2-1.5C233.8,257,233.9,256.5,234.1,256z"/>
		<path class="st40" d="M219.9,281c0,0,2.9,3.1,9.4,4c0,0-0.3-6.2-0.4-8.4s0.1-10.2,0-10.9c-0.4-4.4,0.3-8.9,1.9-13
			c0,0,1.4-3.3,2.5-5.2c0.5-1.1,0.9-2.2,1.2-3.3c0,0-4.6,5.2-8.2,7c2.6-1.2,5-2.9,6.9-5c0,0-3.7,5.5-4.4,10.2s-0.4,19.5-0.4,21.6
			s0.3,6.1,0.3,6.1S225.2,284,219.9,281z"/>
		<path class="st40" d="M221.1,244.7c-0.2,1.6-0.3,3.2-0.3,4.8c0.4-0.1,0.8-0.2,1.2-0.4c0.2,0.9,0.5,1.7,1,2.4c0,0-1.3,8.5-1.6,10.5
			l1.3-10.3l-1-1.8c-0.5,0.1-0.9,0.2-1.4,0.2c-0.2,2.5-0.3,4.9-0.2,7.4c0.4,7.9,0.3,15.8-0.4,23.7c0,0,0.1-13.6,0.2-15.4
			c0.1-2.9,0-5.8-0.3-8.7c0,0-0.2-7,0.5-9.9C220.2,247,221,244.9,221.1,244.7z"/>
		<path class="st41" d="M222.3,249.5c0,0,1.6-0.9,2.1-1.3l1,2.2c-0.2,0.5-0.5,1-0.9,1.5l-1.3-0.5l1.3,0.8l1.9,16.8
			c0,0-2,4.3-2.8,5.9c0,0,2.6-3.6,3.2-5.7c0,0-2.2-16.7-1.9-17.5c0.4-0.5,0.8-1,1.1-1.6c-0.4-0.9-0.8-1.7-1.4-2.5l-2.3,1.3
			C222.1,249,222,249.2,222.3,249.5z"/>
		<polygon class="st42" points="222.6,254.6 224.9,257 225.2,259.3 222.2,257 		"/>
		<polygon class="st42" points="221.9,259.5 225.6,262.6 225.9,265.4 221.5,261.9 		"/>
		<polygon class="st42" points="221.2,264.3 226.2,268.2 226.3,269.1 225.6,270.6 220.9,266.7 		"/>
		<path class="st42" d="M221.6,270.3l3.2,2.1l-1.3,2.6C222.7,273.5,222.1,272,221.6,270.3z"/>
		<path class="st36" d="M224,297.5c0,0-2.8-0.7-3.6-2c0,0,2.5,0.9,3.6,1.2V297.5z"/>
		<path class="st4" d="M236.9,295.1c0,0,0.4,1.4,3.7,1.5c0,0,1.1,0,1.4-0.5c0.8,1.5,1.3,3.2,1.5,4.9c0,0-1.2-2.6-2.5-3.1
			c-1.8,0-3.4-0.9-4.4-2.4L236.9,295.1z"/>
		<path class="st4" d="M239.1,303.5c0,0-0.5-2.8-1.7-3.1c0,0,1.8-0.8,1.7,3.3"/>
		<path class="st43" d="M96.4,273.9c-3.8,4.6-6.3,19.1-6.3,19.1c1-1.6,5.2-2.3,5.2-2.3C95.1,287.7,96.3,273.9,96.4,273.9z"/>
		<path class="st44" d="M96.4,215.5c0,0-2.4-1.3-4,2.1s-0.1,10.5,1,12.7s1.7,4.2,1.7,4.2l3-2c0.7-0.6,1.1-1.5,1.2-2.4
			c1.5-1.9,0.8-6.2,0.8-6.2L96.4,215.5z"/>
		<path class="st45" d="M93.1,320.1c-0.4,0.8-0.6,1.6-0.6,2.5c0,0.5,0.5,0.8,0.8,1.2c0.9,1.2,5,4.1,5,4.1c1.2-1.2,2.8-1.8,4.5-1.7
			l-3.5-5.1L93.1,320.1z"/>
		<path class="st45" d="M109.2,313.7c-0.1,0.2-0.6,1.9-0.7,2.1c-0.5,0.9-0.2,2.1,0.5,2.8l5.2,4.4l4.6-1.9c-1-1.7-4.2-5.7-4.2-5.7
			L109.2,313.7z"/>
		<path class="st45" d="M118,267.8l1,9.7c1.6-0.7,2.1-1,2.5-3.7s-0.5-7.9-0.5-7.9L118,267.8z"/>
		<path class="st46" d="M93.2,320c0.1-7,0-8.1,0.5-13.7c0.2-1.6,0.4-3,0.7-5.4c0.5-6-0.9-14.4-0.9-18.1c0-5.1,2-8.5,2.3-8.6
			c16.5-2.6,23,14.8,23.1,14.8c-0.3,4.9-4.1,26.3-4.1,26.3c-1.1,2.3-4.5,1.1-4.5,1.1c-1.2-0.7-1.8-2-1.6-3.3c0,0,0.7-10.7,0.7-14.5
			c0.1-1.9-0.2-3.9-0.8-5.7c0,0-3.9-2.3-4.4-0.3c-0.2,0.9-0.2,3.7-1,7.4c-0.9,4.6-2.5,10.4-2.7,13c-0.2,2.8-0.6,5.5-1.2,8.2
			c-0.9,0.9-2.2,1.3-3.5,1.1C94.4,322,93.2,320.9,93.2,320z"/>
		<path class="st47" d="M118.6,291.9c0,0-5.4,3.3-9.3,4l0.1,1.4c0,0,5.3,0.1,8.8-2.7L118.6,291.9z"/>
		<path class="st47" d="M96.7,276.7c0,0,2.5,10.8,0.4,20.6c0,0,3.9,1.8,6.3,1.1c0.3-1.8,0.5-3.7,0.6-5.5
			C104,291.9,98.8,274.9,96.7,276.7z"/>
		<path class="st48" d="M89.9,276.3c-0.9,1.8-2.3,10.2-2.5,14.6s3.2,5.1,3.2,5.1c-0.2-1.5-0.2-2.9,0.1-4.4
			c0.6-6.9,5.1-14.7,5.1-14.7l1.2-7.7l1,8.5c0.6,3.3,0.9,6.6,0.8,10c-0.2,3.2-0.6,6.4-1.3,9.5c2.5,0.5,10.2-0.3,16.6-2.6
			s7.4-4.8,7.4-4.8c0.1-1.9,0-3.7-0.2-5.6c-0.3-2.4-2.4-16.4-2.4-16.4c3-1.2,3.4-2.5,3.3-4.6s-1.3-10-1.6-16.2s-1.6-13.7-2.9-17.3
			s-3.9-3.3-3.9-3.3c-0.1,1.6-0.6,3.2-1.2,4.7c1.1,3.2,1.7,6.5,1.7,9.8c-0.9,2.9-4.4,3.2-6.4,3.3s-4.1-2.9-5.7-6.7
			c-1-2.3-3.1-3.9-5.6-4.3c-2.8,1.4-4.4,5.3-5.8,8.8s-3.2,15-3.5,19.9S90,276.2,89.9,276.3z M94.9,262.1c0,0,0.6-7.9,2.1-10.7
			c0.8,1.6,0.9,3.4,0.3,5.1C96.6,258.5,95.8,260.3,94.9,262.1L94.9,262.1z"/>
		<path class="st49" d="M96.4,220c-1.3,0-1.8-1.3-1.9-3.8s1.5-2,1.5-2L96.4,220z"/>
		<path class="st45" d="M112.6,230.6c0.9,2.1,2.3,8.8,1.8,10.5s-4.4,3.7-7,3s-4.6-5.2-5.7-7.5s-5.1-3.6-5.1-3.6
			c0.3-0.4,1.7-1,3.1-2.2s0.7-4.4,0.7-4.4c0.4,0.5,1.1,0.8,1.7,0.6C104.4,229.3,112.7,230.5,112.6,230.6z"/>
		<path class="st45" d="M100.6,212c-5.7,2.6-1.2,12.5-1.2,12.5c-0.1,2.4,1.1,3.7,1.7,3.6c0,0,4.6,5.1,7.9,5.1s4.6-2.6,5.5-8.5
			c0.1-0.5-0.2-1.3-0.1-1.8c0.2-0.6,0.3-1.1,0.4-1.7c0.1-2.2-0.1-4.3-0.7-6.4C111.3,208,106.3,209.3,100.6,212z"/>
		<path class="st50" d="M91.6,262.1l3,12.7c0,0,5.5,5.1,6.2,5.1s5.1-2.4,5.5-3.5s-1.7-10.1-2.1-11.4s-10-7.4-10-7.4L91.6,262.1z"/>
		<path class="st51" d="M114.7,212.7c-0.5-1.1-1.2-2-2.2-2.7c-1.9-1.7-4.3-2.9-6.9-3.3c-2.5-0.2-8.4,2.1-9.4,4.5
			c-0.3,1.7-0.5,3.5-0.4,5.2c0.4,2-0.3,2.4,0.5,5.1c0.3,1,0.7,2,1.2,2.9c0.7,0.5,1.6,0.6,2.3,0.2c0.7,0,1.3-0.3,1.8-0.8
			c0.3,0.8-0.6,2.2,1,3c0.6,0.4,1.3,0.2,1.7-0.3c0.1-0.2,0.2-0.4,0.2-0.6c-0.7,1.3-2.3,0.6-1.9-1s2-1.2,2.5-3.7s1-2.4,4.8-3.2
			s3.9-3.4,3.9-3.4c0.3,0.5,0.5,1,0.6,1.6C115.2,215.2,115.3,213.9,114.7,212.7z"/>
		<path class="st52" d="M114.7,222c-2.3,1.5-5.5,2.9-6.1,2.6c-0.8,0.1-1.6,0-2.4-0.1c0.3-0.5,1.1-0.3,3-0.5s5.7-2.5,5.7-2.5
			L114.7,222z"/>
		<path class="st52" d="M110.7,227.9c0.7,0.3,1.3-0.2,1.1-0.6c-0.4-0.8-0.5-1.7-0.4-2.6c0.2-0.6,0.4-0.3,0.4-0.3
			c-0.2,0.9-0.1,1.9,0.3,2.8c0.6,1.7-1.8,1.7-2,0.8C110.3,227.5,110.7,227.9,110.7,227.9z"/>
		<path class="st52" d="M112.6,232.8c-0.8,1.2-3.2,1.4-3.2,1.4s-6.1,0.2-6.7-5.6c1,2,2.8,3.5,4.9,4.1c3.8,0.9,5.2-1.6,5.2-1.6
			l0.4,1.1c0,0,2.2,8.3,1.1,9.5C114.3,238.7,113.7,235.7,112.6,232.8z"/>
		<path class="st53" d="M116.9,236.8c1.3,1.4,2.1,3.2,2.5,5.1c0.5,3-1.1,5.9-2.6,8.2s-1.2,3.5,0.7,8.7c1.1,2.9,1.6,5.9,1.4,9
			c-0.4-8.2-3.5-9-3.7-12.9s1-4.7,3-9s-1.5-7.8-1.8-9.1c-0.1-1.3,0-2.6,0.3-3.9C116.6,234.2,116.7,235.5,116.9,236.8z"/>
		<path class="st53" d="M102.9,251.3c3.7,1.9,7.4-0.3,7.4-0.3C106.6,255.1,102.9,251.3,102.9,251.3z"/>
		<path class="st52" d="M120,275.1l-0.1-1.2c0,0,0.5-1.3,0.6-1.6s0.1-3.1,0.1-3.1C121.5,272,119.9,275.1,120,275.1z"/>
		<path class="st52" d="M101.1,230.7c-0.4,1.2-1.4,2.1-2.6,2.3c3.5,1.3,4.4,4.4,5.7,7c0.9,1.7,2.2,3.1,3.8,4.2
			c-2.7,0.1-4.6-4.3-4.6-4.3c-0.8-1.5-1.6-3-2.6-4.4c-0.9-1.2-4.1-2.4-4.1-2.4l3.1-2.2c0.9-1,1.1-2.4,0.5-3.6c1,1.1,1.8,0.2,1.8,0.2
			C102.9,229.5,101.5,228.8,101.1,230.7z"/>
		<path class="st3" d="M90.9,277.9c-0.5,2.1-0.6,4.3-0.3,6.5c0.3,2,1.3,2.4,2,3.1s1.5,1.3,2.1,0.3c0.3-0.4-0.1-2.5-0.1-3.9
			c0-0.9,0.1-1.8,0.3-2.6c0.2,0.9,0,4.7,1.1,4.4s0.8-1.4,0.9-4c0-1.7-0.2-3.3-0.7-4.9C94.2,279.2,90.9,277.9,90.9,277.9z"/>
		<path class="st6" d="M114,321.5c-2.9-1.2-5.7-5.2-5.7-5.2c-0.3,0.5-0.4,1-0.3,1.5c2,2.6,6.2,6.2,9.5,7.3s3.3-0.9,3.3-0.9
			c-0.4-1.7-1.3-3.3-2.6-4.5C116.6,319.7,115,320.3,114,321.5z"/>
		<path class="st6" d="M98.4,327.3c-2.9-1.2-5.7-5-5.7-5c-0.3,0.4-0.4,0.8-0.4,1.3c1,1.6,6.3,6.1,9.6,7.2s3.3-0.9,3.3-0.9
			c-0.3-1.7-1.3-3.2-2.6-4.3C101,325.4,99.4,326,98.4,327.3z"/>
		<path class="st48" d="M87.4,262.7c-0.3,2.9,2,10.7,2,10.7l1.1,4.3c1.9,0.9,4.2,0.3,5.5-1.3c-1.4-5.2-1-19.4-1-19.4L87.4,262.7z"/>
		<polygon class="st54" points="101.3,266.5 95.1,261.6 94.9,262.1 101,266.7 100.4,279.7 100.8,280 101.2,266.8 		"/>
		<path class="st54" d="M101,264.5l-5.7-4.3C96.9,262,98.8,263.5,101,264.5z"/>
		<path class="st54" d="M102.5,268.9c-0.2-1.6-1.5-13.8-1.5-13.8c-0.9-15.5-2.4-17.2-2.4-17.2c-0.6-1.8-2.5-2.9-4.4-2.6
			c0.2-0.8,0.9-1.4,1.7-1.6c3.3-0.8,5,4.9,4.9,4.5c1.7,4.2,3.2,30.5,3.2,30.5C103.9,270.4,102.6,270.5,102.5,268.9z"/>
		<path class="st53" d="M97.1,249.3l0.3-1.1c1.2-0.7,2.3-3.4,2.3-3.4C99.6,246.7,98.6,248.3,97.1,249.3z"/>
		<path class="st53" d="M97.1,247.1c-1.5,3-2.6,11.2-3,14.8s1.9,14.5,1.9,14.5c-0.8,2.1-5.5,1.3-5.5,1.3c5.1,1.8,6.2-1,6.2-1
			s-1.4-9.4-1.8-11.8s1.3-13.8,3.1-17.8s0.9-6.5,0.9-6.5C98.7,242.9,98.1,245.1,97.1,247.1z"/>
		<polygon class="st55" points="112.1,243.4 111.2,241.2 111.3,243.7 		"/>
		<path class="st55" d="M100,224.6c0,0-0.2,2.1,0.5,2.3s1.2-0.5,0.9-0.8s-0.9-0.6-0.3-1.5S100,224.6,100,224.6z"/>
		<path class="st54" d="M101,266.7l1-1.4l2.2-0.2c0,0,2.7,9.9,2,11.7c-1.6,1.4-3.4,2.5-5.4,3.3l-0.2-0.8c0,0,3.5-0.9,5.3-3.1
			c-0.3-3.6-0.9-7.2-1.9-10.7l-1.6,0.1l-1.4,1.7"/>
		<path class="st56" d="M111.4,233.7c0,0,1.1,3.3,0,4.5s-3,1.6-6-1.4c-1.9-1.9-3.9-3.7-6.1-5.3c0,0-0.2-1.2,1.1,0s6.6,6.6,7.9,6.9
			s4,0.7,2.5-4.5L111.4,233.7z"/>
		<circle class="st56" cx="110.4" cy="239" r="0.7"/>
		<circle class="st56" cx="101.3" cy="227.7" r="0.5"/>
		<path class="st52" d="M95,280.4c-0.1,0.9-0.2,1.7-0.4,2.6c-0.1,1.5,0,3,0.3,4.5c0,0-0.1-5,0.3-5.5v1.6
			C95.1,283.7,95.9,281.5,95,280.4z"/>
		<path class="st52" d="M96.4,277.2c0,0-0.9,1.8-5.5,0.7c-0.5,1.7-0.6,3.5-0.4,5.2c0,0,0.5-3.8,2-3.6s4-1.6,4.3,0.8l0.2,1.6
			C97.2,280.3,97,278.7,96.4,277.2z"/>
		<path class="st52" d="M121.2,266.6c-0.7,0.5-1.4,0.9-2.2,1.2l0.4,2.6c0,0,1-2.2,1.6-1.4c0.5,0.8,0.7,1.7,0.7,2.6
			C121.7,270,121.5,268.3,121.2,266.6z"/>
		<path class="st52" d="M114.7,315.3c0,0-0.5,2-4.1,1.2c0,0-1.5-0.5-1.7-1.7c-0.2,0.5-0.4,1.1-0.6,1.6c0,0,0.2-0.8,0.9-0.2
			c1.8,1.6,4.4,1.7,6.3,0.3L114.7,315.3z"/>
		<path class="st52" d="M99.4,321.1c0,0-2.4,2.3-4.9,0.5c0,0-1.3-0.7-1.3-1.5s-0.4,1-0.4,1c1.9,2.2,4.9,2.8,7.5,1.6L99.4,321.1z"/>
		<path class="st53" d="M117.6,234.2l-0.9,2.8l0.7,0.9C117.6,236.7,117.6,235.5,117.6,234.2z"/>
		<path class="st51" d="M99.5,224.5c-0.2,1.1,0.1,2.2,0.8,3c0.1,0.4,0.2,0.7,0.3,1.1c0,0-1.8,0.7-4-6.3L99.5,224.5z"/>
		<path class="st57" d="M113.5,212.1c0.9,1.9,0.1,4.2-1.8,5.1c-0.1,0.1-0.3,0.1-0.4,0.2C111.2,217.4,114.1,215.5,113.5,212.1z"/>
		<path class="st57" d="M102.4,221.7c0,0-0.4,3-3,2.7C99.4,224.4,101.9,223.4,102.4,221.7z"/>
		<path class="st58" d="M280.1,475.6c0,0,4.2,0.7,5.2,2.3c0,0-2.4-14.5-6.3-19.1C279.2,458.8,280.4,472.5,280.1,475.6z"/>
		<path class="st59" d="M275.4,408.8c0,0-0.7,4.3,0.8,6.2c0.1,0.9,0.5,1.8,1.2,2.4c1.1,0.8,3,2,3,2c0.5-1.4,1-2.8,1.7-4.2
			c1-2.2,2.6-9.3,1-12.7s-4-2.1-4-2.1L275.4,408.8z"/>
		<path class="st60" d="M276.2,506l-3.5,5.1c1.7-0.1,3.3,0.5,4.5,1.7c0,0,4.1-2.9,5-4.1c0.3-0.4,0.7-0.7,0.8-1.2
			c0-0.9-0.2-1.7-0.6-2.5L276.2,506z"/>
		<path class="st60" d="M260.8,500.2c-1.5,1.8-2.9,3.7-4.2,5.7l4.6,1.9l5.2-4.4c0.7-0.7,1-1.9,0.5-2.8c-0.1-0.2-0.6-1.9-0.7-2.1
			L260.8,500.2z"/>
		<path class="st60" d="M254.4,450.6c0,0-1,5.1-0.5,7.9s1,3,2.5,3.7l1-9.7L254.4,450.6z"/>
		<path class="st61" d="M279.6,507.1c-1.3,0.3-2.6-0.1-3.5-1.1c-0.6-2.7-1-5.4-1.2-8.2c-0.2-2.6-1.8-8.3-2.7-13
			c-0.7-3.7-0.8-6.5-1-7.4c-0.4-2-4.4,0.3-4.4,0.3c-0.6,1.8-0.9,3.8-0.8,5.7c0,3.8,0.7,14.5,0.7,14.5s0.4,2.4-1.6,3.3
			c0,0-3.4,1.3-4.5-1.1c0,0-3.8-21.4-4.1-26.3c0.1,0,6.6-17.4,23.1-14.8c0.3,0.1,2.3,3.5,2.3,8.6c0,3.7-1.4,12.1-0.9,18.1
			c0.2,2.4,0.5,3.8,0.7,5.4c0.5,5.6,0.4,6.8,0.5,13.7C282.3,505.8,281,506.8,279.6,507.1z"/>
		<path class="st62" d="M256.9,476.7c0,0,5.4,3.3,9.3,4l-0.1,1.4c0,0-5.3,0.1-8.8-2.7L256.9,476.7z"/>
		<path class="st62" d="M278.7,461.5c0,0-2.5,10.8-0.4,20.6c0,0-3.9,1.8-6.3,1.1c-0.3-1.8-0.5-3.7-0.6-5.5
			C271.4,476.7,276.6,459.7,278.7,461.5z"/>
		<path class="st63" d="M288.1,446.6c-0.3-4.9-2-16.4-3.5-19.9s-3-7.4-5.8-8.8c-2.5,0.4-4.6,2-5.6,4.3c-1.7,3.8-3.7,6.8-5.7,6.7
			s-5.5-0.4-6.4-3.3c0-3.3,0.6-6.6,1.7-9.8c-0.6-1.5-1.1-3.1-1.2-4.7c0,0-2.6-0.3-3.9,3.3s-2.5,11.1-2.9,17.3s-1.5,14.1-1.6,16.2
			s0.3,3.4,3.3,4.6c0,0-2,13.9-2.4,16.4c-0.2,1.9-0.3,3.7-0.2,5.6c0,0,1,2.5,7.4,4.8c6.4,2.3,14,3.1,16.6,2.6
			c-0.7-3.1-1.2-6.3-1.3-9.5c0-3.3,0.3-6.7,0.8-10l1-8.5l1.2,7.7c0,0,4.4,7.8,5.1,14.7c0.3,1.5,0.3,2.9,0.1,4.4c0,0,3.4-0.7,3.2-5.1
			s-1.7-12.8-2.5-14.6C285.4,461.1,288.3,451.5,288.1,446.6z M278.1,441.4c-0.6-1.7-0.5-3.5,0.3-5.1c1.5,2.8,2.1,10.7,2.1,10.7
			S279.2,444.3,278.1,441.4z"/>
		<path class="st64" d="M279.4,399.1c0,0,1.6-0.5,1.5,2s-0.6,3.8-1.9,3.8L279.4,399.1z"/>
		<path class="st60" d="M273.3,412.1c0.6,0.2,1.3-0.1,1.7-0.6c0,0-0.7,3.1,0.7,4.4s2.8,1.7,3.1,2.2c0,0-4,1.3-5.1,3.6
			s-3.2,6.8-5.7,7.5s-6.5-1.3-7-3s1-8.4,1.8-10.5C262.8,415.4,271.1,414.2,273.3,412.1z"/>
		<path class="st60" d="M261.3,399.6c-0.6,2.1-0.8,4.2-0.7,6.4c0.1,0.6,0.2,1.1,0.4,1.7c-0.1,0.6-0.1,1.2-0.1,1.8
			c0.9,5.9,2.2,8.5,5.5,8.5s7.9-5.1,7.9-5.1c0.6,0.1,1.8-1.2,1.7-3.6c0,0,4.4-9.8-1.2-12.5S264.2,392.8,261.3,399.6z"/>
		<path class="st48" d="M281.3,449.1c0,0-9.6,6.1-10,7.4s-2.4,10.4-2.1,11.4s4.8,3.4,5.5,3.5s6.2-5.1,6.2-5.1l3-12.7L281.3,449.1z"
			/>
		<path class="st24" d="M261.1,400.8c0.1-0.6,0.3-1.1,0.6-1.6c0,0,0.1,2.6,3.9,3.4s4.3,0.7,4.8,3.2s2.2,2.1,2.5,3.7s-1.2,2.4-1.9,1
			c0.1,0.7,0.7,1.2,1.3,1.1c0.2,0,0.4-0.1,0.6-0.2c1.6-0.8,0.7-2.2,1-3c0.5,0.5,1.1,0.8,1.8,0.8c0.7,0.4,1.6,0.3,2.3-0.2
			c0.5-0.9,0.9-1.9,1.2-2.9c0.9-2.7,0.1-3,0.5-5.1c0.1-1.7-0.1-3.5-0.4-5.2c-1-2.4-6.9-4.7-9.4-4.5c-2.6,0.4-5,1.6-6.9,3.3
			c-1,0.7-1.7,1.6-2.2,2.7C259.7,399.8,261.1,400.8,261.1,400.8z"/>
		<path class="st65" d="M260.6,406.3c0,0,3.9,2.3,5.7,2.5s2.6,0,3,0.5c-0.8,0.1-1.6,0.2-2.4,0.1c-0.6,0.3-3.8-1.1-6.1-2.6
			L260.6,406.3z"/>
		<path class="st65" d="M265.2,412.8c-0.2,0.9-2.6,1-2-0.8c0.4-0.9,0.5-1.9,0.3-2.8c0,0,0.3-0.3,0.4,0.3c0,0.9-0.1,1.8-0.4,2.6
			c-0.2,0.4,0.4,1,1.1,0.6C264.7,412.8,265.1,412.3,265.2,412.8z"/>
		<path class="st65" d="M261.3,426.6c-1.1-1.2,1.1-9.5,1.1-9.5l0.4-1.1c0,0,1.5,2.5,5.2,1.6c2.1-0.6,3.9-2.1,4.9-4.1
			c-0.7,5.8-6.7,5.6-6.7,5.6s-2.5-0.2-3.2-1.4C262.8,417.6,261.1,421.9,261.3,426.6z"/>
		<path class="st66" d="M258.7,417.8c0,0,0.7,2.6,0.3,3.9s-3.9,4.8-1.8,9.1s3.3,5.1,3,9s-3.3,4.7-3.7,12.9c-0.2-3.1,0.3-6.1,1.4-9
			c1.9-5.2,2.2-6.4,0.7-8.7s-3.1-5.1-2.6-8.2c0.4-1.9,1.2-3.7,2.5-5.1C258.7,420.5,258.8,419.1,258.7,417.8z"/>
		<path class="st66" d="M265.1,435.9c0,0,3.7,2.2,7.4,0.3c-1.9,2-5,2.1-7,0.2C265.4,436.3,265.2,436.1,265.1,435.9z"/>
		<path class="st65" d="M255,454.1c0,0,0,2.9,0.1,3.1s0.6,1.6,0.6,1.6l-0.1,1.2C255.6,460,253.9,456.8,255,454.1z"/>
		<path class="st65" d="M273.4,412.4c0,0,0.8,1,1.8-0.2c-0.6,1.2-0.4,2.6,0.5,3.6l3.1,2.2c0,0-3.2,1.1-4.1,2.4
			c-1,1.4-1.9,2.9-2.6,4.4c0,0-1.9,4.4-4.6,4.3c1.6-1.1,2.9-2.5,3.8-4.2c1.2-2.5,2.2-5.7,5.7-7c-1.2-0.2-2.3-1.1-2.6-2.3
			C273.9,413.6,272.5,414.3,273.4,412.4z"/>
		<path class="st60" d="M279.2,461.8c-0.5,1.6-0.7,3.2-0.7,4.9c0.1,2.6-0.2,3.7,0.9,4s1-3.5,1.1-4.4c0.2,0.8,0.3,1.7,0.3,2.6
			c0,1.4-0.4,3.4-0.1,3.9c0.6,1,1.4,0.4,2.1-0.3s1.7-1.1,2-3.1c0.4-2.2,0.3-4.4-0.3-6.5C284.6,462.8,281.3,464.1,279.2,461.8z"/>
		<path class="st51" d="M257.2,504.6c-1.3,1.2-2.2,2.8-2.6,4.5c0,0,0,2,3.3,0.9s7.6-4.7,9.5-7.3c0-0.5-0.1-1-0.3-1.5
			c0,0-2.8,4-5.7,5.2C260.5,505.1,258.8,504.4,257.2,504.6z"/>
		<path class="st51" d="M272.9,510.6c-1.3,1.1-2.3,2.6-2.6,4.3c0,0,0,2,3.3,0.9s8.5-5.7,9.6-7.2c0-0.5-0.1-0.9-0.4-1.3
			c0,0-2.8,3.7-5.7,5C277.2,512.1,275.6,510.1,272.9,510.6z"/>
		<path class="st63" d="M280.5,441.9c0,0,0.3,14.2-1,19.4c1.3,1.6,3.6,2.2,5.5,1.3l1.1-4.3c0,0,2.3-7.8,2-10.7L280.5,441.9z"/>
		<polygon class="st67" points="274.2,458.2 274.6,471.5 275.1,471.2 274.5,458.1 280.6,453.6 280.4,453.1 274.1,458 		"/>
		<path class="st67" d="M280.2,451.7l-5.7,4.3C276.7,455,278.6,453.5,280.2,451.7z"/>
		<path class="st67" d="M271.8,459.1c0,0,1.3-31.8,3-36c-0.1,0.3,1.6-5.3,4.9-4.5c0.8,0.2,1.4,0.8,1.7,1.6c-1.9-0.3-3.8,0.8-4.4,2.6
			c0,0-1.6,1.7-2.4,17.2c0,0-1,17.8-1.2,19.4S271.8,460.8,271.8,459.1z"/>
		<path class="st66" d="M275.9,429.7c0,0,1,2.7,2.3,3.4l0.3,1.1C276.9,433.3,275.9,431.6,275.9,429.7z"/>
		<path class="st66" d="M276.6,425.4c0,0-0.9,2.6,0.9,6.5s3.6,15.3,3.1,17.8s-1.8,11.8-1.8,11.8s1.1,2.9,6.2,1c0,0-4.7,0.8-5.5-1.3
			c0,0,2.4-11,1.9-14.5s-1.6-11.8-3-14.8C277.3,429.9,276.7,427.7,276.6,425.4z"/>
		<polygon class="st65" points="263.4,428.3 264.2,426.1 264.2,428.6 		"/>
		<path class="st65" d="M275.4,409.4c0,0,0.2,2.1-0.5,2.3s-1.2-0.5-0.9-0.8s0.9-0.6,0.3-1.5S275.4,409.4,275.4,409.4z"/>
		<path class="st67" d="M274.5,458.3l-1-1.4l-2.2-0.2c0,0-2.7,9.9-2,11.7c1.6,1.4,3.4,2.5,5.4,3.3l0.2-0.8c0,0-3.5-0.9-5.3-3.1
			c0.3-3.6,0.9-7.2,1.9-10.7l1.6,0.1l1.4,1.7"/>
		<path class="st68" d="M264,418.5c0,0-1.1,3.3,0,4.5s3,1.6,6-1.4c1.9-1.9,3.9-3.7,6.1-5.3c0,0,0.2-1.2-1.1,0s-6.6,6.6-7.9,6.9
			s-4,0.7-2.5-4.5L264,418.5z"/>
		<circle class="st68" cx="265" cy="423.9" r="0.7"/>
		<circle class="st68" cx="274.2" cy="412.6" r="0.5"/>
		<path class="st65" d="M280.5,465.3c0.1,0.9,0.2,1.7,0.4,2.6c0.1,1.5,0,3-0.3,4.5c0,0,0.1-5-0.3-5.5v1.6
			C280.3,468.6,279.6,466.3,280.5,465.3z"/>
		<path class="st65" d="M279.1,462c0,0,0.9,1.8,5.5,0.7c0.5,1.7,0.6,3.5,0.4,5.2c0,0-0.5-3.8-2-3.6s-4-1.6-4.3,0.8l-0.2,1.6
			C278.3,465.1,278.5,463.5,279.1,462z"/>
		<path class="st65" d="M254.3,451.4c0.7,0.5,1.4,0.9,2.2,1.2l-0.4,2.6c0,0-1-2.2-1.6-1.4c-0.5,0.8-0.7,1.7-0.7,2.6
			C253.8,454.8,253.9,453.1,254.3,451.4z"/>
		<path class="st65" d="M260.7,500.1c0,0,0.5,2,4.1,1.2c0,0,1.5-0.5,1.7-1.7c0.2,0.5,0.4,1.1,0.6,1.6c0,0-0.2-0.8-0.9-0.2
			c-1.7,1.7-4.4,1.8-6.3,0.3L260.7,500.1z"/>
		<path class="st65" d="M276.1,506c0,0,2.4,2.3,4.9,0.5c0,0,1.3-0.7,1.3-1.5s0.4,1,0.4,1c-1.9,2.2-4.9,2.8-7.5,1.6L276.1,506z"/>
		<path class="st66" d="M257.8,419.1l0.9,2.8l-0.7,0.9C258.1,422.8,257.8,420.4,257.8,419.1z"/>
		<path class="st24" d="M275.9,409.4c0.2,1.1-0.1,2.2-0.8,3c-0.1,0.4-0.2,0.7-0.3,1.1c0,0,1.8,0.7,4-6.3L275.9,409.4z"/>
		<path class="st59" d="M262,396.9c-0.9,1.9-0.1,4.2,1.8,5.1c0.1,0.1,0.3,0.1,0.4,0.2C262.5,401.1,261.6,399,262,396.9z"/>
		<path class="st59" d="M273,406.5c0,0,0.4,3,3,2.7C274.7,408.8,273.6,407.8,273,406.5z"/>
		<path class="st4" d="M222.7,236.7c0,0-0.9,3.4-0.2,4c0.5,0.4,1,0.5,1.6,0.3C224.1,241,222.4,241.3,222.7,236.7z"/>
		<path class="st3" d="M414.4,303.1c-0.1,3.2,0,6.5,0.4,9.7c0.4,3.7-0.6,13.5-0.6,14.2c1.2,0.8,2,2,2.2,3.4c0.3,2.2,0.5,4.2-0.3,4.6
			s-1.1,0.3-1.1,0.3s0.2,4-2.9,3.6l-1.6-10l0.1-24L414.4,303.1z"/>
		<path class="st4" d="M412.1,329.7c0.8,0.8,1.8,1.5,2.9,1.8c0,0,0.1,3,0.7,3.5c0,0-0.7,1-1.2-2.9C413.2,332,412.2,331,412.1,329.7z
			"/>
		<path class="st69" d="M393.5,282.2c-1.3,0.2-2.6,0.8-3.6,1.7c-2.1,1.6-5.2,1.6-7,3.7s-2,5.2-2.4,9s-3.6,4.6-1.2,13.8
			c0,0,0.8,3.7,1.1,6s1.7,5.2,5.3,5.5L403,292L393.5,282.2z"/>
		<path class="st70" d="M387.2,393.4c-0.7,0.2-1.2,0.9-1.2,1.7c0.1,1.3,1.7,2.9,3,4.2c1.7,1.7,4.1,3.8,5.9,4.3s4.6-0.9,3.6-3
			l-7.3-7.1h-4V393.4z"/>
		<path class="st70" d="M400.3,386.1c-1,0.2-1.7,1.1-1.7,2.1c0,0-0.1,0.6,1.4,2c2,1.9,3.8,3,5.1,4.2c1.1,1.1,3.2,2.6,5.1,2.3
			s3-2.2,1.8-3.5C412,393.2,402.9,384.9,400.3,386.1z"/>
		<path class="st3" d="M400.2,385.4c0,0-1.6,1.9,0.6,3.9l7.6,5.9c0,0,1.8,0.7,2.8-0.3c1.3-1.3,1.6-2.4-0.6-4.5l-3.5-3.9
			C406.9,386.5,402.2,382.9,400.2,385.4z"/>
		<path class="st3" d="M387.6,391.9c0,0-1.5,1.9-0.4,3.2s5,6.4,7.6,7s4.8-1,3.3-3l-5.1-6.5l-4.8-0.4"/>
		<path class="st71" d="M412.2,341.6c0,0,0.8,22.4,0.8,24.4s-4.6,17.2-5.2,19.8c0.1,1.1-0.5,2.1-1.5,2.4c-1.5,0.4-5.9,0.9-7.1-3
			c0,0,4.2-15,4.4-18.3s-0.6-9.1-2.2-14.5c0,0-0.9,17.7-1.6,20.3s-5.5,20.3-5.5,20.3s-0.6,3-4.8,1.9s-3.3-4.1-3.3-4.1
			s4.5-15.6,4.5-25.1c0,0-1.6-32.2-1.3-35.5c0,0,17.1,1.2,21.4-1.7C410.7,328.5,412.1,331.6,412.2,341.6z"/>
		<path class="st72" d="M406.1,335.4l-1.7,7.2l-4.2,2.8l2.6-0.7c-1.1,1.9-1.6,4.1-1.5,6.3v2c0,0-0.3-6.5,3.7-9.4L406.1,335.4z"/>
		<path class="st64" d="M388,314.4l-0.3,15.4c0,0,2.8,5.8,11.8,4.7c0,0,8.5-1.2,11.6-6.7c0,0,0.9-19.7,0.8-22.4L388,314.4z"/>
		<path class="st64" d="M393.7,289.7l0.8-1.1c0,0-1.4-0.6-4.9,2.7l-3.4,3c0,0-1.9,1.6-1.9,6.8c-0.1,4.2-0.7,8.4-1.7,12.5
			c0,0.5,3.3,4.5,8,2.4c0,0,14.5,0.2,20.9-5l0.3-5.8c0,0,1.7,0.6,3-2.4l-0.7-13.5c0,0-0.6-7.3-5.4-7.2L393.7,289.7z"/>
		<path class="st3" d="M384.1,313.6c0,0-1.3,4.1,0.3,13.7c0,0,3.2,12.6,2.8,14.6c1.6,0.7,3.4,0.3,4.5-1c0,0-1.9-14.1-1.7-18.9
			s0.2-7.2,0.2-7.2S388.8,311,384.1,313.6z"/>
		<path class="st3" d="M394.5,278.3c0,0-1.7-0.3-1.6,1.1s0.5,4.2,1,4.9s1.6,0.6,1.6,0.6c0.2,1.1,0.1,2.2-0.3,3.2l-1.3,1.6
			c1.8,1,3.3,2.6,4.2,4.5c1.1,2.9,1.7,4.2,3,4s1.1-0.1,1.1-0.1l1.6,4.9l0.7-5.9c0.9-0.6,1.5-1.5,1.6-2.6c0.3-1.9-1-6.1-1-6.1
			L394.5,278.3z"/>
		<path class="st3" d="M408.5,269.6c0,0,1.3-0.7,1.1,3.6c0,0,0.3,4.8-0.1,5.7c-0.2,0.3-0.3,0.8-0.5,1.1c-0.3,0.5-0.3,1-0.2,1.5
			c0.3,0.5,0.3,1.2,0,1.7l-1.9,5.1c-0.2,0.4-0.5,0.8-0.9,1l-1.3,0.8c-0.5,0.3-1.2,0.4-1.8,0.3c-2.3-0.4-4.2-1.9-5.2-4l-1.7-1.8
			c0,0-0.9,1.3-2.2-0.3s-1.2-4.9-0.8-6.4S399,263.4,408.5,269.6z"/>
		<path class="st73" d="M402.2,278.7c0,0,7.9-1.6,7.2-7.1l0.2,3.3c0,0,1.6,0.3,1.3-3.9c0-1.9-1.4-3.4-3.2-3.7c0,0-0.9-2.1-4.1-2.3
			c0,0-3.6-1.9-6.3,0.5c-1,0-2,0.5-2.6,1.3c-1.2,0.4-2.2,1.3-2.8,2.5c-0.9,1.6-0.3,2-1,3.1c0,0-1.5,2,0.5,7.1
			c0.5,3.2,1.8,3.1,1.8,3.1s-1-4.5,0.8-4c0,0,1.6,0.3,1.7,1.3s-0.2,2.8,0.6,3.3l1.1,0.4c0,0-0.3-2.2,0.6-2.9c1.4-0.9,1.8-2.8,1-4.2
			c0,0-1.7-3.3-0.1-3.7c0,0-0.9,0.9,0.2,2.6c0.8,1.1,1.1,2.4,0.9,3.7c0,0,1.4-0.7,0.6-2.8s1.2-4,1.2-4s-1.5,1.4-1,2.9
			s0.8,3.1-0.2,4.1c0,0,1.2-0.2,1.7-2.8c0.2-1.5,1.1-2.9,2.4-3.7c-1,0.7-1.7,1.8-2,3C402.8,277.4,402.9,278.2,402.2,278.7z"/>
		<polygon class="st74" points="395.8,280 402.2,281.9 402.2,282.6 396,280.7 		"/>
		<path class="st64" d="M382.7,313.6c0,0,1.6,4.1,8.7,2.3c0,0,1.4-7.2,1.7-9.2s1.9-6.6-0.1-8.5c0,0-5.3,2.4-8.3-0.3
			c-0.2,1.7-0.2,3.4,0,5.1C385.1,305.4,383.9,311.5,382.7,313.6z"/>
		<path class="st4" d="M400.9,280.9c0.9,0.2,1.9,0.2,2.8,0.1c2.1-0.6,4.1-1.4,6-2.4l-0.3,0.7c-1.8,0.8-3.6,1.5-5.5,2.1
			C402.3,281.6,401.5,280.9,400.9,280.9z"/>
		
			<ellipse transform="matrix(0.1829 -0.9831 0.9831 0.1829 52.1439 628.2291)" class="st75" cx="404" cy="282.7" rx="2.1" ry="1.7"/>
		<ellipse class="st76" cx="404" cy="282.6" rx="1.8" ry="2.1"/>
		
			<ellipse transform="matrix(0.1829 -0.9831 0.9831 0.1829 57.5665 632.1289)" class="st75" cx="409.1" cy="281.4" rx="2.1" ry="1.7"/>
		
			<ellipse transform="matrix(0.1829 -0.9831 0.9831 0.1829 57.5665 632.1289)" class="st76" cx="409.1" cy="281.4" rx="2.1" ry="1.7"/>
		<path class="st76" d="M405.8,282c0,0,0.6-1.2,1.6-0.4"/>
		<path class="st4" d="M407,282.1c0.6,1.2,0.6,2.6,0.2,3.9l-1.2,0.6l-1.4-0.5l1.5,0.1l0.7-0.5C407.1,284.6,407.1,283.3,407,282.1z"
			/>
		<path class="st4" d="M397.7,286.1c0,0,2.2,3.7,5.9,4.2l1.6-0.5c0,0,2,2.7,1,5.5c0,0-0.1,1.2-1.9,1.8l-0.7,5.9l-0.2-6.2
			c0,0,3.1-1.3,1.7-5.2l-2,0.4C403.2,292,397.3,292.2,397.7,286.1z"/>
		<path class="st4" d="M395.4,284.9c0,0,0.4,0.2,0.8-0.4c0,1.2-0.1,2.3-0.3,3.5c-0.2,0.7-0.7,1,1,3.7c1.1,1.7,1.8,3.6,2.2,5.6
			c0,0-1.2-4-2.2-4.8s-3.5-2.6-3.5-2.6c0.9-0.8,1.6-1.8,1.9-3C395.5,284.9,395.4,284.9,395.4,284.9z"/>
		<path class="st3" d="M391.6,340.8c0,0,0.5,0.9,2,3.3c0.4,1,0.5,2,0.5,3.1c-0.1,0.6-0.2,1.1-0.4,1.7c-0.2,0.4-1.4,0.8-1.6-0.3
			s0.3-3-0.6-3s-0.4,2.5-0.3,3.4c0.1,0.5,0.9,3,0.7,3.6s-1.3,0.9-3-0.3c-1-1.3-1.8-2.8-2.2-4.4c-0.4-1.7,0-3.8,0.5-6.2
			C387.4,341.9,389.4,342.7,391.6,340.8z"/>
		<path class="st70" d="M404.1,392.1c0,0,1.3-3.6,4.9-3.3c0.7,0.5,1.3,1.2,1.8,1.9c-2,0.2-3.7,1.7-4.1,3.7L404.1,392.1z"/>
		<path class="st70" d="M390.2,398.9c0,0,2.1-4.1,5.5-2.9c0.7,0.5,1.3,1.2,1.6,2c0,0-2.6-0.7-4.6,3
			C392.4,401.1,391.1,399.9,390.2,398.9z"/>
		<path class="st77" d="M393.4,289.7c0,0,3,1.7,3.7,3s2,5.1,3,5.2c0.6,0.1,1.1,0.1,1.7,0l1.6,4.8l0.7-5.8c0,0,2.6-0.9,2-4.4
			c0-1-0.4-2-1.1-2.8l0.5-0.2c0.6,1.2,1,2.5,1.2,3.8c0.1,1.8-1,3.6-2.2,3.9l-0.8,7.2l-2.3-5.9c-1,0.2-2-0.2-2.6-1
			c-0.9-1.3-1.6-4.4-2.4-5.1c-1.1-0.8-2.2-1.7-3.2-2.6L393.4,289.7z"/>
		<path class="st77" d="M405.5,303.6c1.8-0.4,3.3-1.5,4.4-2.9c-0.6,1.7-2,3-3.8,3.4c0,0-0.3,4.4,0.3,5.3s3-0.3,3.5-1.6l0.1-5.7
			l0.3,6.2c0,0-2,3.4-4.7,1.4L405.5,303.6z"/>
		
			<ellipse transform="matrix(0.9508 -0.3098 0.3098 0.9508 -73.1619 139.0127)" class="st78" cx="401" cy="299.8" rx="0.5" ry="0.7"/>
		
			<ellipse transform="matrix(0.9508 -0.3098 0.3098 0.9508 -74.4378 139.7543)" class="st78" cx="402.7" cy="304.2" rx="0.5" ry="0.7"/>
		<path class="st77" d="M393.5,298.5c0,0,1.6,1.8,0.3,7.2c0,0-1.1,4.6-1.2,6c-0.2,1.5-0.4,3-0.8,4.4c0,0-2.2,2.2-7.6-0.7
			c0,0,5.4,1.7,7.1,0.3c0,0,0.4-2,0.7-3.7s1.1-6,1.4-7.5S394.1,299.5,393.5,298.5z"/>
		<path class="st69" d="M386,288.4c0,0,8.7,2.9,9.6,13.9c0,0,0.3,8.5-3.2,11.2L392,316c0,0,4.4-0.9,5.7-7.4
			c1.6-7.9-1.1-16.1-7.1-21.6C388.9,286.3,387,286.9,386,288.4z"/>
		<path class="st69" d="M407.3,287.3c0,0,2.7,2.6,2.6,12.3c0,0,0.1,6,2,8.2c0,0,0.1-13.9-0.4-17.1c-0.6-3.4-1.6-4.7-3.3-6
			C408.3,284.6,407.7,286.1,407.3,287.3z"/>
		<path class="st4" d="M395.2,280.6c0-0.4-0.2-0.7-0.6-0.9c-0.6-0.3-1.3-0.4-1.1,1.3s0.8,2.7,1.4,2.8s0.9-0.9,0.2-1.4
			s-0.3-1.1,0-1.1s-1-0.7-0.9,0.2s0.3,1.4,0.3,1.4c-0.5-0.7-0.7-1.7-0.5-2.6C394.3,279.1,394.6,281,395.2,280.6z"/>
		<path class="st72" d="M404.6,342.7c0.9-0.5,1.8-1,2.7-1.6c-1.1,1.3-2.3,2.6-3.7,3.6L404.6,342.7z"/>
		<path class="st79" d="M388.2,290.5c0,0,2.6-1.5,6.6,7c0,0,4.1,10.3-2.5,16.1c0,0,6.7-8.5,0.7-18.2
			C393,295.4,391.5,291.6,388.2,290.5z"/>
		<path class="st79" d="M381.9,289.5c0,0,2.3,1.7,4.1,0.4s7-4.6,7.8-4.6c0,0-2-0.3-7.9,4C385.9,289.4,384.3,290.5,381.9,289.5z"/>
		<path class="st79" d="M407.3,287.3c0,0,2,1.3,2.3,5.2s0.5,10.5,1,11.9s1.3,3.4,1.3,3.4s-2.2-1.6-2.6-10.2s-0.8-8.5-2.2-9.8
			L407.3,287.3z"/>
		<path class="st79" d="M382.9,293.4c-0.5,1.6-0.6,3.3-0.4,5c0.5,2.1,0.3,3.8-0.9,6.5s0.4,9.1,0.4,9.1s-2.1-6.1-0.7-10.5
			s0.3-4.5,0.3-5.9S382,293.1,382.9,293.4z"/>
		<path class="st77" d="M390.8,333.1c0,0,4.3,4.1,14.1-0.1c0,0,5-2.1,6.2-5.2l0.8-20l-1.2,20c0,0-2.6,4.5-9.6,5.9
			c0,0-7.7,1.4-10.5-1.5L390.8,333.1z"/>
		<path class="st4" d="M383.8,315c1.9,1.2,4.1,1.8,6.3,1.7l-0.1,3.7c0,0-0.4-2.3-2.3-2.7s-2.8-0.6-3.4,0.1s-0.6,2.2-0.5,3.8
			C383.5,319.4,383.5,317.2,383.8,315z"/>
		<path class="st4" d="M414.3,303.7c-0.4,1-1.4,1.7-2.5,1.5c0,0,0.1,7.2-0.2,9.3l-0.5,13.4l1.6-20.9c0.7-0.5,1.2-1.3,1.5-2.1v-1.2
			L414.3,303.7z"/>
		<path class="st4" d="M386.9,393.3c1.4,1.3,3.3,1.8,5.2,1.5c0.7-0.2,1.3-0.6,1.7-1.2l0.7,0.9c-0.7,0.2-1.3,0.6-1.9,1
			c-1.1,0.8-5,0.4-5.7-0.8C386.7,394.3,386.7,393.8,386.9,393.3z"/>
		<path class="st4" d="M399.7,386.3c0,0,1.3,2.4,5.2,2c0,0,1.9,0,2.5-1.2c0,0,0.7,1.7-2.6,2c-1.7,0.3-3.5-0.1-5-1.1
			C399.6,387.5,399.6,386.9,399.7,386.3z"/>
		<polygon class="st74" points="410.6,280.7 408.9,280.2 408.8,280.6 410.7,281.2 		"/>
		<path class="st80" d="M24.9,228.1c0,0,3.8,1.9,5.9,3.3c0,0,1.3,0.6,1,1.7c0,0-0.3,2.1-3.2,1.7c-1.3-0.2-3.3-0.1-7.8-3.4
			c-0.9-0.5-1.5-1.4-1.6-2.4C19.3,227.4,23,227.2,24.9,228.1"/>
		<path class="st81" d="M20.5,231.2c0,0,4.4,4,9.2,3.7c0,0-6.4-1.4-7.5-3.6c-0.8-1.2,0.2-1.6,0.2-1.6l-1-0.9l-0.7-0.2l-0.5,0.2
			C20.2,229.6,20.3,230.5,20.5,231.2z"/>
		<path class="st80" d="M15.7,228.9l-0.1,0.7c0,0-0.8,7.2,0.1,9c0.5,1.1,1.7,1.8,2.9,1.7c0.8,0,3.1-1.4,2.5-6
			c-0.2-1.9-0.5-3.8-0.9-5.6L15.7,228.9z"/>
		<path class="st81" d="M15.6,229.8c1.6,0.6,3.3,0.4,4.7-0.5l0.3,1.2c0,0-0.3,2.3-5.1,0.6L15.6,229.8z"/>
		<path class="st82" d="M16.7,229.7c-0.2,1.3-0.2,2.7,0,4c0.3,1,1.7,2.5,2.7,0.4c0.8-1.7-0.2-5.3-0.2-5.3L16.7,229.7z"/>
		<path class="st82" d="M24.1,227.1c0,0,0.3,0.9,2.2,1.9c1.2,0.6,2,1.3,2,2.1s-3.6,1-7-2.4L24.1,227.1z"/>
		<path class="st83" d="M20.4,228.6c0,0,2.8,1.2,3.7-1.5c0,0,0.3-14.1,2.5-24.3s4.6-25.9,4.4-27.4l-11.5,4.3L20.4,228.6z"/>
		<path class="st82" d="M37.1,158.5c0.4,0.4,0.9,0.7,1.5,0.8c1.2,0.2,2.2,0.7,3,1.6c0.9,1,1.1,1.7,2,2.2s0.7,0.9,0.3,1.3
			s-2.1,0.1-2.7-1.4c0.2,0.9,0.6,1.7,1.1,2.4c0.7,0.8,1.7,2.4,1.2,3.4s-2.1,1.1-3.9,0.5s-4.5-1.9-5.3-5.9c0-0.7-0.3-1.4-0.8-2
			C33.5,161.5,33.6,158.8,37.1,158.5z"/>
		<path class="st83" d="M6.8,179.1c0,0,3.5,25,7.9,48.2c0,0,0.1,2.6,2,2.8c2.6,0.3,4.4-1.2,4.2-2.6c0,0-0.4-35.7,1.2-46.7
			C22.2,180.9,15.2,171.6,6.8,179.1z"/>
		<path class="st67" d="M8.6,144l-2.7,26.7c-0.9,0.1-1.6,1-1.6,1.9c0,0,3.2-26,2.4-30.7L8.6,144z"/>
		<path class="st84" d="M37.2,157.8c0,0-3.3-8.4-4.1-10.2s-0.7-8.2-0.7-8.2c-1-15.9-6.1-15.9-6.1-15.9c-0.5,2.5-3.6,4.9-3.6,4.9
			c4.4,7.3,1,9.8,1,9.8c0.5,1.7-0.3,6.4-0.3,6.4c-0.7-3.9-2.1-5.1-2.1-5.1c-3.1,0-4.9-3.7-4.9-3.7c-2.7-5.1-5.1-6.1-5.1-6.1
			c-1.8,0.5-3.5,1.3-4.9,2.5c-4.9,5-6.5,20.9-6.4,24.2s4.3,10.3,4.3,10.3c-0.6,2.1-0.6,4.3-0.1,6.4l11.2,9.6
			c6.3,0.9,12.7-1.5,16.8-6.4l0.5-3.5c0.1-1.8,0-3.6-0.4-5.3c-0.6-2.9-3-12.9-3-12.9l4.3,7.2c0.7-3.1,4.1-3.2,4.1-3.2
			C37.5,158.4,37.3,158.1,37.2,157.8z M8.9,156.6l-1.1,3.1l-1.3-5.4c0.5-1.9,1.1-3.7,1.8-5.5C9.2,151.3,9.4,154,8.9,156.6z"/>
		<path class="st82" d="M14.1,125.1c0,0,0.6,2.7-2.4,4.8c1.9,1.9,3.6,4.1,5,6.4c2.8,4.4,4.7,3.3,4.7,3.3l2.1,5.1l0.5-6.4
			c0,0,3-2.3-1.3-9.8C19.5,128.7,16.3,127.5,14.1,125.1z"/>
		<path class="st82" d="M11.9,122.2c0,0-2,5.3,2.2,3.1c0,0,4,5.3,9.4,3.1c0,0,2.6-1.1,3.3-7.6c0,0,1.4-8.6-0.6-10.5
			c0,0-10.9-7-13.9-0.3C10.4,113.9,10.2,118.3,11.9,122.2z"/>
		<path class="st24" d="M13.5,104.8c0,0-7,0.7-7,10.9c-0.1,1.8-0.5,3.6-1.1,5.3c-0.9,2.4-0.7,7.8,7.6,7.8c1.1-0.9,1.5-2.4,1.1-3.7
			c0,0-1.7,0.7-1.7-1.7c1.2-0.8,2.3-1.8,3.2-2.9c0.6-0.3,1.6-0.6,2.4-4c0,0,6.2,0.9,8.3-4.1c0.3,1.9,0.5,3.8,0.4,5.7
			c0,0.3-0.6,1.6-0.6,2c-0.1,1.2,0.5,2.1,0.2,3.3c0,0,2,1,2.2-5.1s-1.6-7.4-3.5-10C25,108,19.6,101.5,13.5,104.8z"/>
		<path class="st85" d="M14.8,150.7c0,0,4.5,0.5,7.1-1.7C21.7,149.1,20.1,152.2,14.8,150.7z"/>
		<path class="st86" d="M24,138.3c1.5-4-1.6-8.7-1.6-8.7c-1.3,0-2.4-0.1-2.4-0.1c-1.2-0.2-2.3-0.6-3.3-1.3c-2.5-1.7-2.4-3-2.4-3.8
			c0,0,2.5,4,6.2,4.3c0.8,0.1,1.5,0.1,2.3,0C22.8,128.6,27,135.1,24,138.3"/>
		<path class="st86" d="M26.8,118.1c0,0-4.7,3.7-8,2.6c0,0,1,1.8,5.1-0.3l2.6-1.6L26.8,118.1z"/>
		<path class="st83" d="M8.3,156c0.5,0.9,1.1,1.7,1.8,2.4c1.4,1.5,6,2.4,8.9,1.5c-0.7-2.5-1-5.2-0.9-7.8c0.1-1.8,0.2-3.5,0.2-4.8
			c0.3-3.1,0-6.2-1-9.2c0,0-0.6,0-2.5-3.5c-2-3.7-2.9-4.6-4.2-4.9c0,0-2.3,0.5-2.9,1.5c0,0,4.5,1.9,4.4,8.9
			c-0.1,7.3-3.7,9.3-3.7,9.3c0,0.8,0.1,1.7,0.3,2.5C9.2,153.6,8.3,153.6,8.3,156z"/>
		<path class="st67" d="M6.5,132.1c0,0,4.2-0.8,5.7,10.4l1.6,27.4l0.7,4.5l1.1,0.8c0,0-1-9.6-1.2-16.2s-0.8-18.8-1.5-21.1
			s-1.6-5.4-5.1-6.8C7.2,131,6.6,131.5,6.5,132.1C6.5,132.1,6.5,132.1,6.5,132.1z"/>
		<path class="st85" d="M10.5,139.2c0.1,3.3-0.6,6.6-2.2,9.6C8.3,148.8,12.4,143,10.5,139.2z"/>
		<path class="st85" d="M10.2,144.2c0.7-0.5,1.2-1.3,1.3-2.2c0.2,1.2-0.4,2.5-1.5,3.1L10.2,144.2z"/>
		<path class="st83" d="M23.9,128.2c0,0,3.7,5.1,2.9,19.1c0,0,0,4.3-0.3,7c-0.2,1.7-0.1,3.4,0.2,5c1.3-0.2,2.5-0.9,3.3-2
			c0.2-0.3,0.4-0.5,0.7-0.7c0,0-0.6-11.6-0.3-12.6c0.6-1.2,0.9-2.5,0.9-3.9c-0.2-1.7-2.3-4.5-3.3-7.4s-2.6-6.5-2.6-6.5
			C25.1,127,24.6,127.7,23.9,128.2z"/>
		<path class="st24" d="M17.4,118.3c0,0-1.7,5.1-4.9,5L17.4,118.3z"/>
		<path class="st87" d="M30.4,144c-0.7,1.1-1.6,2-2.6,2.7c1-0.4,1.9-1,2.6-1.8V144z"/>
		<polygon class="st85" points="21.1,139.6 23.5,144.6 24.3,138 24,138.3 23.4,143.6 21.4,139.5 		"/>
		<path class="st67" d="M4.5,166.9l1.1,1.5l-0.1,2.2c0,0-1.2,0.4-1.2,1.2C4.2,170.2,4.3,168.6,4.5,166.9z"/>
		<path class="st85" d="M7.7,159.7l2.8,6.7l1.3,1.8c-1,1.5-2.6,2.6-4.4,3c0,0-2.2-3.4-3-4.6l3.1,4c1.4-0.3,2.7-1.1,3.6-2.3l-1-1.7
			c-1.2,1-2.6,1.7-4.1,1.9c1.3-0.6,2.7-1.3,3.9-2.1C10,166.4,7.9,161.8,7.7,159.7z"/>
		<path class="st67" d="M4.2,173c0,0-0.1,6.6,0.9,8.5c0,0,1.2,1.9,6.7,3.9c1,0.5,2,0.7,3.1,0.7c1-0.1,1.8-0.8,2.1-1.8
			c0,0,0-6.2-0.3-6.9c0,0-0.3-0.9-2-1.2S4,170.3,4.2,173z"/>
		<path class="st88" d="M5.9,170.5c0,0-1.6-0.1-1.7,2.1c0,1.5,0.2,2.9,0.7,4.3c0,0,2.6,2.8,4.6,3.6s4.3,1.2,5.2,0.5
			c0.2-0.4,0.2-0.9,0.2-1.4c0-0.4,0.4-0.8,0.8-0.9c0,0,0.9-0.1,0.9-0.6l0.1-0.7C16.7,177.3,8,171.4,5.9,170.5z"/>
		<path class="st89" d="M4.5,172.8c0,0,9.1,5.8,10.3,6.2C14.9,179,8.6,176.3,4.5,172.8z"/>
		<ellipse transform="matrix(0.9328 -0.3603 0.3603 0.9328 -63.5275 15.2357)" class="st90" cx="9.1" cy="178" rx="0.6" ry="0.8"/>
		<path class="st89" d="M4.2,176.2c2.4,3.2,6.3,5.1,10.3,5c0,0-0.1-2,1.2-2.5c-0.7,0.7-1.1,1.7-0.9,2.7
			C10.6,181.7,6.6,179.7,4.2,176.2z"/>
		<path class="st83" d="M22.4,182.2c0,0-0.1,16.8-1.2,24.1c0,0,0.1,4.1,0.1,7.2s-0.4,15-0.4,15l-0.3,0.5c0,0,0.4-13.1,0.1-15.6
			c-0.2-2.4-0.2-4.9-0.1-7.3c0-1.1,0.9-22.2,1.1-23.7L22.4,182.2z"/>
		<path class="st85" d="M36.3,156.5c-1.9,0.1-3.5,1.4-3.9,3.3C32.4,159.9,32.4,156,36.3,156.5z"/>
		<path class="st82" d="M11.6,168.6c0.4,0.5,1.1,0.8,1.7,0.8c1,0,1.8,0.9,2.5,2s1.2,1.3,1.3,1.7s-0.2,0.9-1.3,0.5
			c-0.7-0.2-1.3-0.5-1.9-0.9c0.6,0.6,1.1,1.3,1.5,2.1c0.5,1.2,1.7,1.1,2.1,2c0.2,0.5-0.1,1.1-0.6,1.3c-0.1,0-0.3,0.1-0.5,0
			c-0.8,0.4-1.8,0.5-2.7,0.4c0,0-3.1-0.7-4.7-4.9c-0.2-0.9-0.5-1.8-0.9-2.6C9.4,170.5,10.6,169.7,11.6,168.6z"/>
		<path class="st91" d="M30.8,177.8c0,0-3.8,4.8-13.8,4.9v1.7c4.9-0.3,9.7-2,13.6-5L30.8,177.8z"/>
		<path class="st86" d="M24.3,120.7c0,0,0.7,2.8,0.1,4.4c-0.2,0.4-0.7,0.7-1.2,0.6c0,0,1-0.3,1.1-2.1c0.1-0.9,0-1.8-0.4-2.7
			L24.3,120.7z"/>
		<path class="st92" d="M12.4,123.3c0,0,0,2.3,1.8,1.7c0,0,0.5,2.4-1.1,3.7c-1.2,0.1-2.4,0-3.6-0.4c0,0,4.3,0.7,4.1-1.8l-0.1-0.9
			C13.5,125.6,12.2,125.5,12.4,123.3z"/>
		<circle class="st93" cx="13.5" cy="124.7" r="0.5"/>
		<path class="st93" d="M14,126.1c0,0.3-0.2,0.5-0.5,0.5s-0.5-0.2-0.5-0.5c0-0.3,0.2-0.9,0.5-0.9S14,125.8,14,126.1z"/>
		<path class="st86" d="M14.2,125.1c0,0,0.9,2.5-2.4,4.8c1.3,1.3,2.4,2.7,3.5,4.2c0,0-2.2-3.3-1.3-4.4c0.6-0.9,1.1-1.9,1.3-2.9
			L14.2,125.1z"/>
		<path class="st86" d="M15.3,134.1c0,0,3.5,6.3,6.1,5.4l2,4.1l0.6-5.3l-0.8,3.7c-0.1-1.3-0.5-2.5-1-3.7l0.3,3l-1.1-2.2
			c0,0-2.6,0.9-7.2-6.8L15.3,134.1z"/>
		<polygon class="st86" points="22.1,129.2 21.8,131.6 22.5,130.6 22.4,129.1 		"/>
		<path class="st93" d="M13,128.8c0,0,3.8,6,8.5,6c0,0,2.2,0.1,0.9-4.6c0,0,2.2,4.4-0.4,5.1C22,135.3,17.6,136.9,13,128.8z"/>
		<path class="st93" d="M21.3,135.3c0,0,1.2,1.2,1.3-0.4L21.3,135.3z"/>
		<polygon class="st85" points="21.1,149.9 18,153 18.2,150.9 		"/>
		<path class="st85" d="M9.1,147.4l0.2,1.4l-0.8,0.6l-0.2-0.6C8.6,148.4,8.9,148,9.1,147.4z"/>
		<path class="st85" d="M0.1,157c0,0,2.6,8.1,5.8,11.9l2.3-0.9l-2,0.5C3.7,164.9,1.6,161.1,0.1,157z"/>
		<path class="st85" d="M6.4,154.5c-0.3-1-1.1-1.8-2.1-2.1C4.3,152.5,6.9,152,6.4,154.5z"/>
		<path class="st85" d="M24.7,146.4l-2.4,5.7C22.3,152.1,24,150.5,24.7,146.4z"/>
		<ellipse transform="matrix(0.8333 -0.5528 0.5528 0.8333 -74.2577 35.0563)" class="st83" cx="21" cy="140.7" rx="0.6" ry="0.3"/>
		<ellipse transform="matrix(0.8298 -0.558 0.558 0.8298 -76.9821 37.9169)" class="st83" cx="23.7" cy="145.2" rx="0.6" ry="0.3"/>
		<path class="st91" d="M22.4,182.2c0,0-0.7,18.1-1.4,24.8c0,0-0.2,20.1-0.4,21.1c0,0-1.8,3.2-5.4,0.7c0.5,1.2,1.8,1.8,3,1.4
			c1.2,0,2.3-0.6,2.8-1.7l0.4-21.8l3.2-25L22.4,182.2z"/>
		<path class="st86" d="M13.8,172c0,0-0.1,0.2,0.4,0.8s1.1,2.1,1.6,2.7c0.5,0.6,2.1,0.5,1.7,1.8c0,0,0.4-0.6-1.6-1.4
			C14.6,175.1,14.3,173.2,13.8,172z"/>
		<path class="st86" d="M41.2,163c-0.2-0.7-1-1-1.7-0.8c0,0-0.1,0-0.1,0.1c-0.9,0.3-1.8,0.2-2.6-0.3c0,0,0.4,1.2,2.4,0.9
			C39.8,162.5,40.6,162.5,41.2,163z"/>
		<path class="st86" d="M37.1,158.5c0,0-2.9,0.6-3.6,3c0.4,0.6,0.7,1.3,0.8,2c0.3,1.4,1.4,4.5,4.5,5.6c-2.2-1.3-3.7-3.5-4.1-6.1
			c-0.7-4.3,3.6-3.7,3.6-3.7L37.1,158.5z"/>
		<path class="st86" d="M40.6,164.8l-2.8,2C37.8,166.8,38.9,164.9,40.6,164.8z"/>
		<polygon class="st87" points="18.2,150.9 14.6,152.3 15.4,153.4 15.4,154.7 18,153 		"/>
		<path class="st86" d="M16.6,231.4c1,0.3,2.1,0.3,3.1,0l-0.2-1.5c0,0-0.7,0.5-2.8,0.3L16.6,231.4z"/>
		<path class="st86" d="M11.6,168.6c-0.8,1.2-2.1,2-3.5,2.4c0.3,0.8,0.6,1.7,0.9,2.6c0.5,1.4,1.3,2.6,2.4,3.5c0,0-2.6-3.4-2-4.9
			c0.6-1.2,1.7-1.9,3-2c0.6,0,1.2-0.1,1.8-0.2C13.4,169.5,12.5,169,11.6,168.6z"/>
		<path class="st86" d="M21.4,228.9l1,0.9c0,0,3-0.5,1.7-2.7C23.7,228.3,22.6,229,21.4,228.9z"/>
		<path class="st82" d="M443.7,73.1l0.5,10.8c3.4,0,2.6-5.1,2.6-5.1s-0.2,1.4,1.6,1.3s0.9-0.9,0.9-0.9c-0.6-1.2-0.7-3.3-1-4.6
			c-0.3-1-0.7-2-1.2-3C446,72.3,444.9,72.8,443.7,73.1z"/>
		<path class="st94" d="M443.3,43.7c0.1,1.7-0.1,3.3,0,5s0.2,3.3,0.3,5s0.2,3.2,0.3,4.9c0.2,1.7,0.3,3.3,0.3,5l0.3,5
			c0.1,1.7,0.2,3.3,0.2,5c-0.3-1.7-0.4-3.3-0.6-5l-0.5-5c-0.2-1.7-0.3-3.3-0.4-5s-0.3-3.3-0.4-5s-0.2-3.3-0.2-5s0.2-3.3,0.2-5
			s0-3.3,0-5s-0.1-3.3-0.1-5C443.1,37,443.3,40.4,443.3,43.7z"/>
		<path class="st94" d="M444.4,38.3c0,1,0,2-0.2,3c-0.1,0.5-0.2,1-0.3,1.5c-0.2,0.5-0.5,0.9-0.8,1.3H443c-0.1-0.5-0.1-1.1,0-1.6
			c0.1-0.4,0.3-1,0.4-1.4L444.4,38.3z"/>
		<path class="st94" d="M444.4,69.6l-0.1-0.4c2.2-0.5,2.8-1.5,2.8-1.5C446.6,68.8,445.6,69.6,444.4,69.6z"/>
		<path class="st86" d="M449.4,79.5c0.1,0.3-0.5,0.5-0.5,0.5c-0.7,0.2-1.4,0.1-2-0.3c-0.3-0.3-0.6-0.7-0.8-1.1
			c-0.2-0.6-0.2-1.3,0.1-1.9c0,0.3,0,0.7,0.1,1c0.1,0.4,0.3,0.8,0.5,1.2c1.2,1.9,2.4,0.4,2.4,0.4L449.4,79.5z"/>
		<path class="st86" d="M446.2,77.2c-1,0.1-1.3-0.3-1.3-0.3V76c0.2,0.7,1.3,0.6,1.3,0.6V77.2z"/>
		<path class="st95" d="M416.9,135.8c0,0-1.1,2.1-0.8,3s8.4,9.4,10.8,8.6s2.8-1.6,2.5-2.5s-5.3-7.8-5.3-7.8
			C420.6,139.7,416.9,135.8,416.9,135.8z"/>
		<path class="st96" d="M425.1,138.5c0,0-4.4,2.8-8.6-1.6l0.4-1.2c0,0,4.7,3.2,7.2,1.3L425.1,138.5z"/>
		<path class="st95" d="M430.6,129.3c0,0-1,2.4-0.7,3s8.5,8.4,10.3,8.3c1.4-0.1,2.6-1.2,2.9-2.6c0-0.9-5.2-6.8-5.2-6.8L430.6,129.3z
			"/>
		<path class="st96" d="M438.3,131.9c0,0-4.9,2.2-8.1-0.7l0.4-1.9c1.9,1.6,4.5,2.1,6.9,1.3L438.3,131.9z"/>
		<path class="st97" d="M439.3,73.2c-4.4,2.9-19.4,5.9-19.4,5.9c-0.3,3.1,0.3,36,0.3,36c0.7,5.2-3.5,18.9-3.5,18.9s-0.9,3,3.3,4.1
			s4.8-1.9,4.8-1.9s4.8-17.7,5.5-20.3s1.6-20.3,1.6-20.3c1.6,5.4,2.4,11.2,2.2,14.5s-4.4,18.3-4.4,18.3c1.2,3.9,5.7,3.5,7.1,3
			c1-0.3,1.7-1.3,1.5-2.4c0.6-2.6,5.2-17.8,5.2-19.8s-0.8-24.4-0.8-24.4C442.7,75.1,439.3,73.2,439.3,73.2z"/>
		<path class="st98" d="M425.2,32.2l-0.4,1.4c0.6,3.8,4.1,10,5,13.2s-0.3,12,0.3,17.1c0.3,3.7,0.1,7.5-0.6,11.2
			c4.5,0.2,9.8-3.8,9.8-3.8s0.3-3.2,0.3-5.1s-0.3-16.7,0-23.5s-2.3-9.8-2.3-9.8L425.2,32.2z"/>
		<path class="st99" d="M434.8,37.3l-1.7,2.1l1.5,2.1c0.5,0.4,1.1,0.3,1.5-0.2c0,0,0.1-0.1,0.1-0.1c0.7-1,1.3-2.7,1.1-2.9
			C436.6,37.8,435.7,37.5,434.8,37.3z"/>
		<path class="st99" d="M434.9,41.3c0,0-2.2,19-2.3,19.3c1,1.4,2,2.8,3.2,4.1c1-1.8,1.9-3.7,2.7-5.7c0.2-2.6-2.4-18.1-2.4-18.1
			L434.9,41.3z"/>
		<path class="st100" d="M425.6,29.8c-1.9,0.8-2.4,3.8-2.4,3.8s-5.8,4-7.4,6.3s-1,4.3-1.3,7.8s-2.4,12.5-2.3,17.2s2.9,14,2.9,14
			c-0.6,1.6-1.1,3.2-1.3,4.9c3.4,4,9.5,3.9,9.5,3.9c2.3,0.5,4.7,0.2,6.8-0.9c-0.2-1.9-0.1-3.8,0.1-5.7c0.4-2.5-0.6-5.8,0-9.9
			s0-11.5,0.3-18.6s-2.7-12.1-4.6-16s-0.3-5.1-0.3-5.1L425.6,29.8z"/>
		<path class="st100" d="M437.2,32.6c2.3,2.7,2.5,12,2.2,15.6s0,8.4,0,13.5s0.3,16.5,0.4,19s-0.6,5.2,0.1,5.6s1.5-0.4,2.9-1.3
			c0.9-0.7,1.7-1.6,2.2-2.7c0.2-2.6-0.3-9.1-0.3-9.1c0.6-0.2,2.3-1.1,2.4-1.6c0.1-1,0.2-2.1,0.1-3.1c0-0.9-0.3-1.6-0.4-3.5
			s-0.8-14.6-0.9-17.5s-0.1-15.3-0.1-15.3c-0.1-3-2.6-5.3-5.6-5.2c-0.1,0-0.2,0-0.3,0C438.9,28.8,438,30.7,437.2,32.6z"/>
		<path class="st101" d="M432.8,41.2c-3.1-2.1-5.8-4.6-8-7.6c0.1-1.7,0.7-2,0.7-2c2.7,2.5,5.9,4.4,9.4,5.7
			C434,38.5,433.3,39.8,432.8,41.2z"/>
		<path class="st101" d="M437.4,32.9c1,1.9,1.4,4.1,1.1,6.2c-1.3-0.4-2.5-1-3.6-1.7c0.7-0.9,1.1-2,1.1-3.2
			C436.6,33.9,437,33.5,437.4,32.9z"/>
		<path class="st82" d="M417.4,85.7c-0.8,1.2-1,5.5-0.6,7.1c0.5,1.7,1.5,3.1,3,4c1.7,1.2,2.3,0.2,2.4-0.3s-0.6-3-0.7-3.6
			c-0.2-0.9-0.7-3.5,0.3-3.4s0.4,2,0.6,3s1.4,0.7,1.6,0.3s0.1-0.9,0.4-1.7s-0.5-3.1-0.5-3.1c-0.8-2.6-1.5-3.2-1.5-3.2
			C421.2,86.3,419.1,86.7,417.4,85.7z"/>
		<path class="st102" d="M424,49.9c-0.2,0.8-0.3,1.6-0.5,2.4c-0.7,3-1.4,6.1-2,9.2c-0.2,0.8-0.3,1.5-0.3,2.3c0,0.8,0,1.6,0,2.4
			l0.2,4.8c0.2,3.1,0.3,6.4,0.5,9.5v-0.1c0.3,1.4,0.5,2.9,0.5,4.4v0.1l0,0c-0.3,0.6-1,1.1-1.7,1.2c-0.6,0.2-1.3,0.3-1.9,0.3
			c-0.6,0-1.3-0.2-1.8-0.6c-0.5-0.4-0.9-1-1-1.7l0,0c-0.4-2.2-0.9-4.4-1.3-6.5c0.6,2.2,1.1,4.3,1.7,6.4l0,0c0.2,0.6,0.5,1,1,1.4
			c0.5,0.3,1,0.4,1.6,0.4c0.6,0,1.2-0.1,1.7-0.3c0.3-0.1,0.5-0.2,0.8-0.3c0.2-0.1,0.4-0.3,0.5-0.5v0.1c-0.1-1.4-0.3-2.8-0.6-4.2l0,0
			c-0.3-3.1-0.4-6.4-0.6-9.5c-0.1-1.6-0.2-3.2-0.2-4.8v-2.4c0.1-0.9,0.2-1.7,0.3-2.4c0.4-3.2,1.1-6.3,1.9-9.4c1-3.5,1.7-6,1-9.2
			C425.1,45.5,424.1,49.1,424,49.9z"/>
		<path class="st102" d="M420.7,81.7c-0.5,0.3-1,0.5-1.6,0.6c-0.6,0.1-1.2,0.1-1.7-0.1c-0.5-0.2-1-0.5-1.5-0.8c0.5,0,1,0.1,1.6,0.1
			c0.5,0,1,0,1.5-0.1c0.5-0.1,0.9-0.2,1.4-0.3c0.5-0.2,1-0.4,1.5-0.6C421.6,81,421.1,81.4,420.7,81.7z"/>
		<path class="st103" d="M439.6,74.7c-3,2.9-9.3,3.7-9.3,3.7l-0.3-3.8c6.3-0.9,9.3-4,9.3-4L439.6,74.7z"/>
		<path class="st104" d="M432.9,73.9l0.1,4.2c1.5-0.4,2.9-1,4.2-1.7c0.7-2.9-0.1-4.3-0.1-4.3C436,73.1,432.9,73.9,432.9,73.9z"/>
		<path class="st105" d="M435.6,87c-3.9,2.9-3.7,9.4-3.7,9.4v-2c-0.1-2.2,0.4-4.4,1.5-6.3l-2.6,0.7L435,86l1.7-7.2L435.6,87z"/>
		<ellipse class="st106" cx="435.6" cy="67.6" rx="0.5" ry="0.7"/>
		<path class="st102" d="M429.4,69.2c-0.1-1.1-0.2-2.3-0.3-3.3s-0.3-2.2-0.5-3.2c-0.4-2.2-1-4.3-1.6-6.4l-0.8-1.5l-0.1-0.4l-0.1-0.2
			v-0.3l0.3-0.9c0.3-1,0.7-2.1,1-3.1l0.3,0.5c-0.4-0.1-0.8-0.2-1.2-0.3c-0.2,0-0.4-0.2-0.6-0.3c-0.2-0.2-0.4-0.4-0.5-0.6
			c-0.1-0.4-0.2-0.9-0.1-1.3l0.1-1.1c0.1-1.5,0-3-0.5-4.4c-0.5-1.4-1.1-2.9-1.5-4.4c-0.3-1.5-0.4-3.1-0.2-4.6
			c-0.1,1.5,0.1,3,0.5,4.5c0.5,1.5,1,2.9,1.7,4.3c0.6,1.5,0.8,3,0.8,4.6v1.1c0,0.3,0,0.7,0.1,1c0.1,0.1,0.2,0.1,0.3,0.2
			c0.1,0.1,0.3,0.1,0.4,0.2c0.3,0.1,0.7,0.2,1,0.2h0.5l-0.2,0.5c-0.3,1-0.6,2.1-1,3.1c-0.1,0.2-0.1,0.5-0.2,0.7l0.2,0.6l0.4,1.6
			c0.6,2.1,1.1,4.3,1.5,6.4c0.2,1.1,0.3,2.2,0.3,3.3c0,1.1,0.1,2.2,0.2,3.3c0.1,2.2,0.2,4.4,0.3,6.5
			C429.7,73.5,429.5,71.3,429.4,69.2z"/>
		<path class="st82" d="M436.2,34.1c0.4-0.2,3.6-3.4,3.8-7.1c0.1-1,0-2-0.2-3c-0.1-0.5-0.1-1,0.1-1.5c0.1-0.5,0.2-0.9,0.1-1.4
			c0,0,0.3-3.5-0.7-4.4s-6.8-8.8-13.1-5.1c-1,0.9-1.5,2.3-1.3,3.7c0.1,0.3-0.2,7.6-0.2,7.6s-1.8-0.6-1.9,1.6s0.4,4.2,1,4.6
			s1.2,0.8,1.7,0.6l-0.2,1.9c2.6,2.6,5.8,4.5,9.3,5.7C435.5,36.5,436.1,35.4,436.2,34.1z"/>
		<path class="st24" d="M428.8,15c2.9,1.9,6.3,2.6,9.7,2.1c1.4,0,5-2.2,2.3-6.4c0,0-1.8-2.8-5.2-0.7c-1.6-0.6-3.5-2.3-5.7-1.7
			s-5.7,2.3-6.1,3.4c-0.2,0.8-0.2,1.6,0,2.4c0,0-1.3,0.4-1.3,2.6s0,6.4,0.4,7.8c0,0,0.5-2.2,2.4-1c0.7,0.8,1,1.8,1,2.8l0.1,1.6
			l1.6,0.7l-0.2-1.7c0-0.5,0.2-1,0.5-1.4c0.7-0.6,1.1-1.5,1.3-2.4c0.4-1.7-2.7-5.1-2.7-5.1C426.8,15.2,428.8,15,428.8,15z"/>
		<path class="st86" d="M434.9,37.3c0.1-1-0.1-1.7-0.6-2c-1-0.6-2.1-0.5-3.5-1.2c-3.4-1.7-3-3.9-3-3.9c0.6,1.2,1.6,2.3,2.8,3
			c3.6,2,5.4,1,5.4,1C436,35.4,435.6,36.5,434.9,37.3z"/>
		<path class="st86" d="M439.6,23.2c-1.9,1.5-4.1,2.6-6.5,3c-2.7,0.5-3-1-3-1s0.5,0.5,3,0.3c1.4-0.3,2.7-0.8,4-1.5
			c1.1-0.3,2.2-1,3-1.8C439.8,22.5,439.6,22.9,439.6,23.2z"/>
		<path class="st86" d="M425.5,31.6c1.2,1.1,2.4,2.1,3.7,3c-2.3-1.9-2.1-5.8-2.1-5.8c-0.3,0.1-0.5,0.6-0.7,0.7
			c-0.2,0.2-0.4,0.3-0.7,0.3L425.5,31.6z"/>
		<path class="st86" d="M425.4,26c0.3,0.6-0.4,0.8-0.7,0.6s-0.1-2.2-0.4-1.5s0.2,2.3,0.7,2.4s-0.1-0.8,0.5-0.7s0.6,0.8,0.6,0.8
			c0,0.5-0.5,0.9-1,0.9c-0.2,0-0.4-0.1-0.6-0.3c-0.7-0.6-1.2-3.7-0.3-4.1s1.7,1.1,1.7,1.1C425.5,25.2,425.2,25.4,425.4,26z"/>
		<path class="st102" d="M439.6,81.5c0,0-0.1-4.4,0-5.3c0.3-3.4,1.1-11.5,1.7-14.6c0.8-4.1-0.2-8.6-0.5-10.6s1.5-2.3,1.6-3.9
			S441,41,441,41c-0.3-7.9-2.4-9.9-2.4-9.9l-1.4,2l1.4,3.5c1,4.4,0.4,11.5,0.3,15.2c-0.2,2.6-0.1,21.3,0.5,28.6L439.6,81.5z"/>
		<path class="st102" d="M425.6,29.8l-0.2,1.8c0,0-1.2,1.8,0.6,5.2c2.5,4.1,4,8.7,4.5,13.5c0.3,5.4-0.7,23.2-0.4,25.1
			c0,0-0.5-9.7-1.4-13.1s-2.5-8.2-2.1-8.9c0.4-1.1,0.7-2.2,0.9-3.3c0,0-1.6-0.5-1.8-1.2s0.3-4.6-0.7-6.7s-3-7.2-1.5-10.2
			C423.6,32.1,424.3,30.3,425.6,29.8z"/>
		<path class="st102" d="M444.9,34.5c0,0-0.9,3.3-1.2,4.9c0,0,0.7,30.9,1,33.8c0,0-1.6-16.7-1.6-33.2c0.1-1.5,0-2.9-0.1-4.4l0.5,2.3
			C444.1,36.9,444.6,35.7,444.9,34.5z"/>
		<path class="st102" d="M423.2,45.8c0,0,0.8,3.5,0.1,5.8l-0.5,1.4C422.8,50.6,422.9,48.2,423.2,45.8z"/>
		<path class="st105" d="M434.9,86l4-1.5c-1.4,1.2-2.8,2.2-4.4,3L434.9,86z"/>
		<path class="st106" d="M439.1,71c0,0-2.6,2.8-9.1,3.6c0,0,0.7-19.1,0.7-20.6s0.3-7.6-2.8-13.8s-2.5-5.5-2.7-6.2
			c0,0,3.6,4.9,7.6,7.2l0.6-1.4c0.4,0.7,0.9,1.3,1.5,1.9l-1.2-0.6l-0.8,1.4c-1.7-1.1-3.4-2.3-5-3.6c0,0,3,1.5,3.6,12.2
			c0.5,7.1,0.2,14.2-0.7,21.3c0,0-0.1,0.7-0.3,1.5c6.2-0.5,8.7-3.9,8.7-3.9L439.1,71z"/>
		<path class="st86" d="M437.2,25.9c0,0,1,2.8,0.3,4.1c0,0-0.3,0.4-1.3,0.4s-1.1-0.3-1.1-0.3c0.8,0,1.5-0.3,2.1-0.8V25.9z"/>
		<path class="st106" d="M438.4,35.6c0,0,0.9,1,0.9,8.2L439,70.5l-0.6,0.7c0,0,0.5-20.2,0.2-23.2s-0.3-8.2-0.3-8.2l-1.2-0.8l0.1-0.5
			l1.2,0.6C438.5,39.2,438.9,38.3,438.4,35.6z"/>
		<path class="st86" d="M417.4,85.7c0,0,2.3,1.7,5-1c0,0,0.9,0.6,2,5.1c0,0-1.4-4-2.3-3.2c-1.5,1.1-3.4,1.3-5.1,0.5
			C417,86.6,417.1,86.2,417.4,85.7z"/>
		<path class="st86" d="M447.1,71.7c-0.6,0.8-1.4,1.3-2.4,1.6v0.8c1-0.4,2-0.9,2.9-1.4L447.1,71.7z"/>
		<path class="st3" d="M157.7,55.1c-0.9,2.7-1.3,5.6-1,8.4c0,0,0.9,4.1,4.1,4.6c0,0-0.5-6.6,0.5-8.3s-0.5-3.9-0.5-3.9L157.7,55.1z"
			/>
		<path class="st107" d="M157.4,55.9c1,1.1,2.7,1.4,4.1,0.7v0.9l-1.4,1.8c0,0,0.1-1-1.3-1.2c-0.7-0.1-1.3-0.2-2-0.4
			C156.8,57.7,157.2,56.4,157.4,55.9z"/>
		<path class="st107" d="M158.9,59.2c-0.1,1.5-0.2,3-0.1,4.5c0.2,0.9,1.2,0.7,1.3-0.3c0-1,0.1-2,0.4-2.9c0.3-0.4,0.5-0.8,0.6-1.3
			c0,0,0.4,0.4-0.5,1.9l-0.2,2.3c0,0-0.1,1.2-1,1.1s-1-1.3-1-2S158.4,59,158.9,59.2z"/>
		<path class="st108" d="M172.3,115.2c0,0-3.4,3-4.9,4.6s-0.1,3.6,2.4,2.6c2.9-1.2,5.6-2.7,8.1-4.6l0.3,1c0,0,0.7,0.6,0.9-0.6
			s1-4.9-0.2-5.9C178.9,112.4,176,116.6,172.3,115.2z"/>
		<path class="st3" d="M173.6,95c0,0,1.2,14.4,0.3,17c-0.6,1.6-1.5,3.1-2.7,4.4c0,0-2.3,2.5,0.7,1.9c2.6-0.6,5-2,6.7-4.1
			c0.8-1.2-0.6-2.7,0.2-6s2.8-8.9,3-13.9L173.6,95z"/>
		<path class="st107" d="M173.8,97.1c0,0,5.2,0.9,7.9-0.9l0.3-2.1l-8.4,0.9L173.8,97.1z"/>
		<path class="st108" d="M161.6,109.8c-1.8,1.3-3.5,2.9-4.9,4.6c-1.3,1.8-0.1,3.6,2.4,2.6c2.9-1.2,5.6-2.7,8.1-4.6l0.3,1
			c0,0,0.7,0.6,0.9-0.6s1-4.9-0.2-5.9C168.2,106.9,165.4,111.2,161.6,109.8z"/>
		<path class="st3" d="M163,89.6c0,0,1.2,14.4,0.3,17c-0.6,1.6-1.5,3.1-2.7,4.4c0,0-2.3,2.5,0.7,1.9c2.6-0.6,5-2,6.7-4.1
			c0.8-1.2-0.6-2.7,0.2-6s2.8-8.9,3-13.9L163,89.6z"/>
		<path class="st107" d="M163.3,94c0,0,2.9,3.2,6.7,2.1l0.4-1.4l-7.3-2.8L163.3,94z"/>
		<path class="st109" d="M162.3,56.4c-1.4,1-2.3,2.6-2.5,4.3c-0.3,2.8-1.9,24.2-1.9,24.2c-0.5,1.2-0.4,2.5,0.4,3.5
			c1.2,1.8,11,10.2,23.3,6.5c0,0,6.9-2.2,7.3-7l-2.1-22.2L162.3,56.4z"/>
		<path class="st3" d="M183.9,28c0,0-4.2-1.4-6.4,4.9c-1,1.7-1.4,3.6-1.3,5.5c0,0,9.9,1.5,10.6-5.2C186.8,33.3,186.3,28.9,183.9,28z
			"/>
		<polygon class="st110" points="178,80.2 177.3,90.6 192.6,82.5 192.8,72.3 		"/>
		<path class="st107" d="M180,34.2l1.1,4.7l0.4-0.1C181.6,38.8,181.3,35.2,180,34.2z"/>
		<path class="st111" d="M163.2,9.8c0,0,0.7,4.1,0,6.7s-0.8,4.7,2.2,5.6l1.6,0.2c0,0-1.5-9.8-0.8-13.1C166.2,9.3,163.3,7,163.2,9.8z
			"/>
		<path class="st3" d="M181.8,68.7c-0.9,1.2-1.3,2.7-1.3,4.2c0,1.8-0.2,3.6-0.6,5.3c0,0,0.1,0.7,1.1,0.3s1-1.5,1.1-2.5
			c0-0.5,0.1-1,0.2-1.5c0.2,1.6,0.2,3.2,0,4.8c-0.4,2.2,1.9,1.4,3.1,0.4s2.7-6.2,1.5-9.9C186.8,69.6,183.4,70,181.8,68.7z"/>
		<path class="st107" d="M181.6,68.9c0,0,3.2,1.6,5.2,0.7c0.3,0.7,0.4,1.5,0.4,2.3c-0.4-0.9-1.4-1.3-2.3-1.1
			c-2.7,0.2-3.6,0.3-3.8,2.3c-0.1,1.7-0.5,3.3-1.2,4.8c0,0,0.5-4.5,0.4-5.4S180.8,69.2,181.6,68.9z"/>
		<path class="st111" d="M163.2,10.1c-0.6-3.6,1.4-7.1,4.8-8.5c0,0,4-2.2,6.7-1.5s7.4,2.3,8,5.8s-0.8,5.5,1,9.8s4,8.7,0.1,12.4
			c0,0-4-1.4-5.1-2.3c-2.1-1.9-1.6-3.5-1.8-5.4c-1.3-1.4-2.1-3.2-2.2-5.1v-2.8C174.8,12.3,166.3,14.5,163.2,10.1z"/>
		<path class="st112" d="M164.7,19.6c0,0-5,1.1-5.8,7.5s-1.5,15.4-2,18.1s-2.4,7.9,0,10.3s4.4,1,4.4,1l-0.6-0.7c0,0,1.7,3.7,4.7,4.6
			s4.2,0.8,7.4,4.2c3.2,3.4,6.6,3.2,8.7,2.1c-0.1,0.4-0.2,0.9-0.2,1.3c0,0.4-0.5,1.1,2.2,1.7s4.3-0.4,4.5-1.4s2.1-10.8,2.5-12.6
			s1-2.6,0-8.6c-1-5.4-2.5-10.8-4.4-16c0.6,1.6,0.2,3.3-0.9,4.6c-1.9,2-8.4,2.6-9.8,2.3c-2.3-0.6-8.8-2.3-9.9-12
			c-0.2-1.1,0-2.2,0.5-3.1C165.4,21.9,164.9,20.8,164.7,19.6z"/>
		<path class="st3" d="M177.1,20.7c-0.2,1.9,0.6,3.7,2.1,4.8c0,0,1.2,0.7,1.5,0.8c-2.7,3.6-5.2,7.4-7.4,11.3
			c-3.5-1.4-6.1-4.3-7.1-7.9c0,0-1.6-4.1-0.1-6.9c0,0,3.5,2.6,6.6,1.6s4.1-4.4,4.1-4.4L177.1,20.7z"/>
		<path class="st107" d="M166,22.9c-0.4,2.6-0.1,5.3,0.9,7.8c0,0,1.6,5,5.1,6.3l-1.8-1.5l0.3-1.1l-0.9,0.5c0,0-4-6.9-3.2-11.5
			L166,22.9z"/>
		<path class="st3" d="M164.2,11.2c-0.1,2.8,0.1,5.7,0.5,8.5c0.7,3.1,2.3,5.5,5.7,5.5c2.9,0,5.7-0.9,6.4-4.5
			c0.6,0.4,1.4,0.3,1.8-0.3c0,0,0.1-0.1,0.1-0.1c0.1-0.2,0.1-0.4,0-0.6c0,0-3.3-1.8-3.5-4.1c-0.1-1.3-0.1-2.5,0.1-3.8
			C175.3,11.8,168.1,14.4,164.2,11.2z"/>
		<path class="st113" d="M176.4,38.2c0-1.4,0.2-2.7,0.6-4c2.3-7.1,6.8-6.2,6.8-6.2c-0.8-1.9-3.2-1.7-3.2-1.7
			c-1.3,0.4-2.4,1.2-3.4,2.1c-3.4,3.2-2.1,8.3-5.3,8.5C171.9,37,175.7,38.5,176.4,38.2z"/>
		<path class="st107" d="M166.1,23c1.5,1.8,3.9,2.5,6.1,2c1.5-0.3,2.9-1.1,3.8-2.3c-0.7,1.9-2.6,3.1-4.6,3
			C168.3,25.7,167.4,24.5,166.1,23z"/>
		<path class="st107" d="M177.2,24.3c0.7,0.8,1.7,1.4,2.8,1.7c-2.4-1.5-1.9-5.3-1.9-5.3c-0.3,0.2-0.7,0.2-1,0c0,0.3-0.2-0.8-0.8,1.2
			c0,0,0,2.1-4.4,3.7C171.9,25.7,173.8,25.4,177.2,24.3z"/>
		<path class="st114" d="M182.4,76.5l-5.9,3.2l-0.7,10.4l1.5,0.6l0.7-10.4l4.4-2.3C182.5,77.5,182.5,77,182.4,76.5z"/>
		<polygon class="st114" points="187.2,73.9 187.1,75.5 192.8,72.3 191.5,71.6 		"/>
		<path class="st115" d="M162.2,28.7c0.5,1.9,0.3,3.9-0.4,5.7c-1.2,2.8-2.2,7.4,1.6,9.9c0,0-4.8-1.9-2.8-8.5
			C161.9,32.6,162.1,32,162.2,28.7z"/>
		<path class="st115" d="M166,22.9c0,0-1.9,8.4,6.3,14.3C172.2,37.2,162.5,32.2,166,22.9z"/>
		<path class="st115" d="M164.9,32.6c0,0,2.6,11.6,12,12.8C176.9,45.5,166.7,44.5,164.9,32.6z"/>
		<path class="st115" d="M167.3,32.7c0,0,1.5,10.3,10.7,8.9c0,0-7.9,0.8-10.1-8.1L167.3,32.7z"/>
		<path class="st115" d="M168.1,33.9c0,0,2.8,5.2,7,5.9c0,0-4.5-0.1-7.1-5.3L168.1,33.9z"/>
		<path class="st115" d="M162.2,43.7c0,0,1.5,4.9,1,7.2l-0.9-4.9c-0.1,2.8-0.5,5.6-1,8.4c-0.3,1-0.1,2.1,0.5,3c0,0-0.6,0-1-1
			c0-1.2,0.1-2.3,0.3-3.5c0.4-2.1,1.1-9,0.7-9.7L162.2,43.7z"/>
		<path class="st115" d="M166.6,49.7c0,0,5.7,10,13.4,5.1C180,54.8,173.9,58.5,166.6,49.7z"/>
		<path class="st115" d="M182.3,39.9c0,0,1.4,9.7,1.5,11.4s-1.9,14.6-1.9,15.8s0.7,2.2,2.9,2.3s2.2-0.2,3-1.1c0,0-0.2,1.8-3,1.5
			c0,0-3.1,0.1-3.6-1.2c0,0-0.3-0.5,0.3-2.9c0.9-4.7,1.5-9.5,1.9-14.3C183.5,51.4,181.4,40.3,182.3,39.9z"/>
		<path class="st115" d="M182.8,46.8c0,0,0.5,5.7-3.4,6.8c0,0,3.4-1,3.7-5.5L182.8,46.8z"/>
		<path class="st115" d="M184.2,45.8c0,0,2.9,2.8,4.3-0.4C188.5,45.3,187.6,49.6,184.2,45.8z"/>
		<path class="st115" d="M188.6,46.2c0,0-0.9,4.1-3.5,2.7c0,0,2.2,0.8,3.4-3.3L188.6,46.2z"/>
		<path class="st115" d="M189,54c0,0-1.1,4.1-4.2,4.7c1.5-0.2,2.8-1.1,3.4-2.4c0,0-1,4.1-3.5,4.2C184.7,60.5,188.2,60.6,189,54z"/>
		<path class="st115" d="M168.6,60c1.7,1,3,2.3,4,4c2,3.1,6.8,3.4,6.8,3.4c-3.1,0.3-6.1-1.2-7.7-3.8c-2.8-4.5-3.5-3.7-3.5-3.7"/>
		<path class="st115" d="M158,41.8c0,0-0.2,4.2,2.9,4.4C160.9,46.2,158.8,45.6,158,41.8z"/>
		<path class="st107" d="M164.7,15c0,0,2.6,3,8.9,2.1C173.6,17.1,166.4,19.2,164.7,15z"/>
		<path class="st107" d="M167.2,17.9l-0.1,2.6c0,0,0.5,0.9,2.1,0.7l0.2-0.3c-0.7,0.1-1.4-0.1-1.9-0.5
			C167.5,20.3,167.7,17.1,167.2,17.9z"/>
		<path class="st107" d="M181.6,72.8c0.1,0.6,0.3,1.2,0.6,1.7c0.5,1.1,0.1,4.2,0.1,4.2s-0.5,2,0.6,1.9c0,0-0.7-0.1-0.3-1.9
			S183.1,74,181.6,72.8z"/>
		<polygon class="st107" points="179.5,35.6 180.9,37.1 180.7,36.1 		"/>
		<path class="st107" d="M183.9,28c0,0-6.5-0.9-7.4,10.1c1.4,0,2.9-0.2,4.3-0.5l-3.6-0.1C177.1,37.7,177.2,29.1,183.9,28z"/>
		<polygon class="st107" points="168.1,24.6 168.4,26.2 168.9,26.3 169.1,25.3 		"/>
		<polygon class="st110" points="182.3,77.5 177.6,80.1 177,90.5 177.4,79.9 182.4,77.3 		"/>
		<polygon class="st110" points="182.1,77 177.1,79.9 176.5,90.3 176.1,90 176.8,79.7 182.3,76.7 		"/>
		<polygon class="st110" points="187.4,74.1 191.7,72 192,72.1 187.2,74.5 		"/>
		<polygon class="st110" points="187.4,74.8 192.2,72.3 187.3,75.1 		"/>
		<path class="st116" d="M163.8,69.2c0,0,1.4,17.8,7.5,19.7C166.9,83.2,164.3,76.4,163.8,69.2z"/>
		<path class="st117" d="M161.6,109.8c0,0-6.2,4.1-5.5,6.5s5.3,0.8,11.1-3.9c0,0-7.6,6-10.4,4.1C156.8,116.5,154.7,115,161.6,109.8z
			"/>
		<path class="st117" d="M172.2,115.3c0,0-6.2,4.1-5.5,6.5s5.3,0.8,11.1-3.9c0,0-7.9,5.7-10.4,4.1
			C167.4,122.1,165.5,120.7,172.2,115.3z"/>
		<path class="st118" d="M479.5,217.7c-0.9,2.7-1.3,5.6-1,8.4c0,0,0.9,4.1,4.1,4.6c0,0-0.5-6.6,0.5-8.3s-0.5-3.9-0.5-3.9
			L479.5,217.7z"/>
		<path class="st107" d="M479.2,218.4c1,1.1,2.7,1.4,4.1,0.7v0.9l-1.4,1.8c0,0,0.1-1-1.3-1.2c-0.7-0.1-1.3-0.2-2-0.4
			C478.6,220.2,479,218.9,479.2,218.4z"/>
		<path class="st119" d="M480.6,221.8c-0.1,1.5-0.2,3-0.1,4.5c0.2,0.9,1.2,0.7,1.3-0.3c0-1,0.1-2,0.4-2.9c0.3-0.4,0.5-0.8,0.6-1.3
			c0,0,0.4,0.4-0.5,1.9l-0.2,2.3c0,0-0.1,1.2-1,1.1s-1-1.3-1-2C480.2,224.7,480.1,221.6,480.6,221.8z"/>
		<path class="st95" d="M494,277.8c0,0-3.4,3-4.9,4.6s-0.1,3.6,2.4,2.6c2.9-1.2,5.6-2.7,8.1-4.6l0.3,1c0,0,0.7,0.6,0.9-0.6
			s1-4.9-0.2-5.9C500.6,274.9,497.8,279.2,494,277.8z"/>
		<path class="st118" d="M495.4,257.6c0,0,1.2,14.4,0.3,17c-0.6,1.6-1.5,3.1-2.7,4.4c0,0-2.3,2.5,0.7,1.9c2.6-0.6,5-2,6.7-4.1
			c0.8-1.2-0.6-2.7,0.2-6s2.8-8.9,3-13.9L495.4,257.6z"/>
		<path class="st119" d="M495.5,259.7c0,0,5.2,0.9,7.9-0.9l0.3-2.1l-8.4,0.9L495.5,259.7z"/>
		<path class="st95" d="M483.3,272.3c-1.8,1.3-3.5,2.9-4.9,4.6c-1.3,1.8-0.1,3.6,2.4,2.6c2.9-1.2,5.6-2.7,8.1-4.6l0.3,1
			c0,0,0.7,0.6,0.9-0.6s1-4.9-0.2-5.9C489.9,269.5,487.1,273.8,483.3,272.3z"/>
		<path class="st118" d="M484.7,252.1c0,0,1.2,14.4,0.3,17c-0.6,1.6-1.5,3.1-2.7,4.4c0,0-2.3,2.5,0.7,1.9c2.6-0.6,5-2,6.7-4.1
			c0.8-1.2-0.6-2.7,0.2-6s2.8-8.9,3-13.9L484.7,252.1z"/>
		<path class="st119" d="M485,256.6c0,0,2.9,3.2,6.7,2.1l0.4-1.4l-7.3-2.8L485,256.6z"/>
		<path class="st120" d="M484,219c-1.4,1-2.3,2.6-2.5,4.3c-0.3,2.8-1.9,24.2-1.9,24.2c-0.5,1.2-0.4,2.5,0.4,3.5
			c1.2,1.8,11,10.2,23.3,6.5c0,0,6.9-2.2,7.3-7l-2.1-22.2L484,219z"/>
		<path class="st118" d="M505.6,190.6c0,0-4.2-1.4-6.4,4.9c-1,1.7-1.4,3.6-1.3,5.5c0,0,9.9,1.5,10.6-5.2
			C508.5,195.9,508,191.4,505.6,190.6z"/>
		<polygon class="st110" points="499.8,242.8 499.1,253.2 514.4,245 514.5,234.9 		"/>
		<path class="st119" d="M501.8,196.8l1.1,4.7l0.4-0.1C503.3,201.4,503.1,197.7,501.8,196.8z"/>
		<path class="st73" d="M484.9,172.4c0,0,0.7,4.1,0,6.7s-0.8,4.7,2.2,5.6l1.6,0.2c0,0-1.5-9.8-0.8-13.1
			C487.9,171.8,485,169.6,484.9,172.4z"/>
		<path class="st118" d="M503.5,231.2c-0.9,1.2-1.3,2.7-1.3,4.2c0,1.8-0.2,3.6-0.6,5.3c0,0,0.1,0.7,1.1,0.3s1-1.5,1.1-2.5
			c0-0.5,0.1-1,0.2-1.5c0.2,1.6,0.2,3.2,0,4.8c-0.4,2.2,1.9,1.4,3.1,0.4s2.7-6.2,1.5-9.9C508.6,232.2,505.1,232.6,503.5,231.2z"/>
		<path class="st119" d="M503.4,231.4c0,0,3.2,1.6,5.2,0.7c0.3,0.7,0.4,1.5,0.4,2.3c-0.4-0.9-1.4-1.3-2.3-1.1
			c-2.7,0.2-3.6,0.3-3.8,2.3c-0.1,1.7-0.5,3.3-1.2,4.8c0,0,0.5-4.5,0.4-5.4S502.6,231.8,503.4,231.4z"/>
		<path class="st73" d="M485,172.7c-0.6-3.6,1.4-7.1,4.8-8.5c0,0,4-2.2,6.7-1.5s7.4,2.3,8,5.8s-0.8,5.5,1,9.8s4,8.7,0.1,12.4
			c0,0-4-1.4-5.1-2.3c-2.1-1.9-1.6-3.5-1.8-5.4c-1.3-1.4-2.1-3.2-2.2-5.1v-2.8C496.6,174.9,488.1,177.1,485,172.7z"/>
		<path class="st121" d="M486.5,182.2c0,0-5,1.1-5.8,7.5s-1.5,15.4-2,18.1s-2.4,7.9,0,10.3s4.4,1,4.4,1l-0.6-0.7
			c0,0,1.7,3.7,4.7,4.6s4.2,0.8,7.4,4.2s6.6,3.2,8.7,2.1c-0.1,0.4-0.2,0.9-0.2,1.3c0,0.4-0.5,1.1,2.2,1.7s4.3-0.4,4.5-1.4
			s2.1-10.8,2.5-12.6s1-2.6,0-8.6c-1-5.4-2.5-10.8-4.4-16c0.6,1.6,0.2,3.3-0.9,4.6c-1.9,1.9-8.4,2.6-9.8,2.3
			c-2.3-0.6-8.8-2.3-9.9-12c-0.2-1.1,0-2.2,0.5-3.1C487.2,184.5,486.7,183.4,486.5,182.2z"/>
		<path class="st118" d="M498.8,183.3c-0.2,1.9,0.6,3.7,2.1,4.8c0,0,1.2,0.7,1.5,0.8c-2.7,3.6-5.2,7.4-7.4,11.3
			c-3.5-1.4-6.1-4.3-7.1-7.9c0,0-1.6-4.1-0.1-6.9c0,0,3.5,2.6,6.6,1.6s4.1-4.4,4.1-4.4L498.8,183.3z"/>
		<path class="st119" d="M487.7,185.5c-0.4,2.6-0.1,5.3,0.9,7.8c0,0,1.6,5,5.1,6.3l-1.8-1.5l0.3-1.1l-0.9,0.5c0,0-4-6.9-3.2-11.5
			L487.7,185.5z"/>
		<path class="st118" d="M485.9,173.7c-0.1,2.8,0.1,5.7,0.5,8.5c0.7,3.1,2.3,5.5,5.7,5.5c2.9,0,5.7-0.9,6.4-4.5
			c0.6,0.4,1.4,0.3,1.8-0.3c0,0,0.1-0.1,0.1-0.1c0.1-0.2,0.1-0.4,0-0.6c0,0-3.3-1.8-3.5-4.1c-0.1-1.3-0.1-2.5,0.1-3.8
			C497,174.3,489.9,177,485.9,173.7z"/>
		<path class="st122" d="M498.2,200.7c0-1.4,0.2-2.7,0.6-4c2.3-7.1,6.8-6.2,6.8-6.2c-0.8-1.9-3.2-1.7-3.2-1.7
			c-1.3,0.4-2.4,1.2-3.4,2.1c-3.4,3.2-2.1,8.3-5.3,8.5C493.7,199.6,497.5,201.1,498.2,200.7z"/>
		<path class="st119" d="M487.9,185.5c1.5,1.8,3.9,2.5,6.1,2c1.5-0.3,2.9-1.1,3.8-2.3c-0.7,1.9-2.6,3.1-4.6,3
			C490.1,188.3,489.1,187.1,487.9,185.5z"/>
		<path class="st119" d="M498.9,186.9c0.7,0.9,1.7,1.5,2.8,1.7c-2.4-1.5-1.9-5.3-1.9-5.3c-0.3,0.2-0.7,0.2-1,0
			c0,0.3-0.2-0.8-0.8,1.2c0,0,0,2.1-4.4,3.7C495.4,188,497.2,187.5,498.9,186.9z"/>
		<path class="st114" d="M504.2,239l-5.9,3.2l-0.7,10.4l1.5,0.6l0.7-10.4l4.4-2.3C504.3,240,504.3,239.5,504.2,239z"/>
		<polygon class="st114" points="509,236.5 508.8,238 514.5,234.9 513.2,234.2 		"/>
		<path class="st123" d="M484,191.3c0.5,1.9,0.3,3.9-0.4,5.7c-1.2,2.7-2.2,7.4,1.6,9.9c0,0-4.8-1.9-2.8-8.5
			C483.4,196.2,484,193.8,484,191.3z"/>
		<path class="st123" d="M487.7,185.5c0,0-1.9,8.4,6.3,14.3C494,199.8,484.3,194.8,487.7,185.5z"/>
		<path class="st123" d="M486.6,195.2c0,0,2.6,11.6,12,12.8C498.7,208,488.4,207,486.6,195.2z"/>
		<path class="st123" d="M489,195.3c0,0,1.5,10.3,10.7,8.9c0,0-7.9,0.8-10.1-8.1L489,195.3z"/>
		<path class="st123" d="M489.8,196.5c0,0,2.8,5.2,7,5.9c0,0-4.5-0.1-7.1-5.3L489.8,196.5z"/>
		<path class="st123" d="M484,206.3c0,0,1.5,4.9,1,7.2l-0.9-4.9c-0.1,2.8-0.5,5.6-1,8.4c-0.3,1-0.1,2.1,0.5,3c0,0-0.6,0-1-1
			c0-1.2,0.1-2.3,0.3-3.5c0.4-2.1,1.1-9,0.7-9.7L484,206.3z"/>
		<path class="st123" d="M488.4,212.3c0,0,5.7,10,13.4,5.1C501.8,217.3,495.7,221,488.4,212.3z"/>
		<path class="st123" d="M504.1,202.4c0,0,1.4,9.7,1.5,11.4s-1.9,14.6-1.9,15.8s0.7,2.2,2.9,2.3s2.2-0.2,3-1.1c0,0-0.2,1.8-3,1.5
			c0,0-3.1,0.1-3.6-1.2c0,0-0.3-0.5,0.3-2.9c0.9-4.7,1.5-9.5,1.9-14.3C505.2,214,503.2,202.9,504.1,202.4z"/>
		<path class="st123" d="M504.6,209.4c0,0,2,5.8-3.4,6.8c0,0,3.4-1,3.7-5.5L504.6,209.4z"/>
		<path class="st123" d="M506,208.3c0,0,2.9,2.8,4.3-0.4C510.3,207.9,509.4,212.2,506,208.3z"/>
		<path class="st123" d="M510.4,208.7c0,0-0.9,4.1-3.5,2.7c0,0,2.2,0.8,3.4-3.3L510.4,208.7z"/>
		<path class="st123" d="M510.7,216.5c0,0-1.1,4.1-4.2,4.7c1.5-0.2,2.8-1.1,3.4-2.4c0,0-1,4.1-3.5,4.2
			C506.4,223,509.9,223.2,510.7,216.5z"/>
		<path class="st123" d="M490.4,222.6c1.7,1,3,2.3,4,4c2.1,3.2,6.8,3.4,6.8,3.4c-3.1,0.3-6.1-1.2-7.7-3.8c-2.8-4.5-3.5-3.7-3.5-3.7"
			/>
		<path class="st123" d="M479.7,204.4c0,0-0.2,4.2,2.9,4.4C482.6,208.7,480.6,208.2,479.7,204.4z"/>
		<path class="st119" d="M486.5,177.6c0,0,2.6,3,8.9,2.1C495.4,179.7,488.2,181.7,486.5,177.6z"/>
		<path class="st119" d="M489,180.4l-0.1,2.6c0,0,0.5,0.9,2.1,0.7l0.2-0.3c-0.7,0.1-1.4-0.1-1.9-0.5
			C489.2,182.8,489.5,179.7,489,180.4z"/>
		<path class="st119" d="M503.4,235.4c0.1,0.6,0.3,1.2,0.6,1.7c0.5,1.1,0.1,4.2,0.1,4.2s-0.5,2,0.6,1.9c0,0-0.7-0.1-0.3-1.9
			S504.9,236.5,503.4,235.4z"/>
		<polygon class="st119" points="501.3,198.2 502.6,199.6 502.4,198.7 		"/>
		<path class="st119" d="M505.6,190.6c0,0-6.5-0.9-7.4,10.1c1.4,0,2.9-0.2,4.3-0.5l-3.6-0.1C498.9,200.2,499,191.6,505.6,190.6z"/>
		<polygon class="st119" points="489.8,187.2 490.2,188.8 490.7,188.8 490.8,187.9 		"/>
		<polygon class="st110" points="504.1,240.1 499.4,242.7 498.8,253 499.1,242.5 504.2,239.9 		"/>
		<polygon class="st110" points="503.9,239.6 498.8,242.5 498.2,252.9 497.8,252.6 498.5,242.3 504.1,239.3 		"/>
		<polygon class="st110" points="509.1,236.7 513.5,234.5 513.7,234.7 508.9,237.1 		"/>
		<polygon class="st110" points="509.1,237.3 514,234.9 509.1,237.7 		"/>
		<path class="st124" d="M485.5,231.8c0,0,1.4,17.8,7.5,19.7C488.7,245.8,486.1,239,485.5,231.8z"/>
		<path class="st96" d="M483.3,272.3c0,0-6.2,4.1-5.5,6.5s5.3,0.8,11.1-3.9c0,0-7.6,6-10.4,4.1C478.6,279.1,476.5,277.5,483.3,272.3
			z"/>
		<path class="st96" d="M494,277.9c0,0-6.2,4.1-5.5,6.5s5.3,0.8,11.1-3.9c0,0-7.9,5.7-10.4,4.1C489.2,284.6,487.2,283.3,494,277.9z"
			/>
		<path class="st125" d="M257.3,534.8c-50.8,0-105.5,8.2-105.5,26.3c0,4,2.8,7.5,7.6,10.6l62.3,74.8c4.4,5.2,6.8,11.8,6.9,18.6v58.4
			c0,9.1,14.9,13.2,28.8,13.2c13.9,0,28.8-4.1,28.8-13.2v-58.4c0-6.8,2.5-13.4,6.9-18.6l5.3-6.4H329c7.9,0,15.1-4.5,18-11.4l5-12.3
			c1.9-4.6,1.2-9.8-1.9-13.7c-3.2-4.1-8.2-6.4-13.4-6.4h-1.8l20.4-24.5c4.8-3.1,7.6-6.6,7.6-10.6
			C362.8,543.1,308.1,534.8,257.3,534.8z M336.6,605.1c2.1,0,4.2,0.9,5.5,2.6c1.3,1.6,1.6,3.8,0.8,5.7l-5,12.3
			c-1.6,3.5-5.1,5.7-9,5.7h-23.3l21.9-26.3H336.6z"/>
		<path class="st126" d="M257.3,544.8c61.8,0,95.5,11.9,95.5,18s-33.7,18-95.5,18s-95.5-11.9-95.5-18S195.5,544.8,257.3,544.8z"/>
		<path class="st127" d="M271.6,558c37.2,0,64.2,3.2,79.8,6.7c0.8-0.5,1.3-1.4,1.4-2.3c0-6-33.7-17.6-95.5-17.6
			s-95.5,11.6-95.5,17.6c0,2.3,5,5.4,14.5,8.4C178.3,566.2,211.7,558,271.6,558z"/>
		<path class="st128" d="M284.9,641.4c-5.6,6.8-8.8,15.3-8.9,24.1v58.6c-0.6,1.3-7.3,4.7-19.3,4.7s-18.7-3.3-19.3-4.4v-58.9
			c0-8.8-3.2-17.4-8.9-24.1l-51.7-62.6c20.7,5.7,51,8.4,80,8.4s59.3-2.7,80-8.4L284.9,641.4L284.9,641.4z"/>
		
			<linearGradient id="SVGID_1_" gradientUnits="userSpaceOnUse" x1="3470.2546" y1="83.8101" x2="3470.2646" y2="83.8601" gradientTransform="matrix(160 0 0 -91 -555059.4375 8420.2891)">
			<stop  offset="0" style="stop-color:#FFFFFF;stop-opacity:0.1"/>
			<stop  offset="1" style="stop-color:#FFFFFF;stop-opacity:0"/>
		</linearGradient>
		<path class="st129" d="M276.1,665.3c0-8.8,3.2-17.4,8.9-24.1l51.9-62.4c-20.7,5.7-51,8.4-80,8.4s-59.3-2.7-80-8.4l99.3,91
			L276.1,665.3z"/>
	</g>
</g>
</svg>
