<?xml version="1.0" encoding="utf-8"?>
<!-- Generator: Adobe Illustrator 21.1.0, SVG Export Plug-In . SVG Version: 6.00 Build 0)  -->
<svg version="1.1" id="Layer_1" xmlns="http://www.w3.org/2000/svg" xmlns:xlink="http://www.w3.org/1999/xlink" x="0px" y="0px"
	 viewBox="0 0 514.5 726.7" style="enable-background:new 0 0 514.5 726.7;" xml:space="preserve">
<style type="text/css">
	.st0{opacity:0.5;}
	.st1{fill:#F3F3F3;}
	.st2{fill:#31AABA;}
	.st3{opacity:0.1;fill:#010101;enable-background:new    ;}
	.st4{fill:#35B7AE;}
	.st5{fill:url(#SVGID_1_);}
	.st6{fill:none;}
	.st7{fill:#A5B2C7;}
	.st8{fill:#6D798B;}
	.st9{fill:#FED4AF;}
	.st10{fill:#FBBD92;}
	.st11{fill:#D2D2D2;}
	.st12{fill:#AB6087;}
	.st13{fill:#28151A;}
	.st14{fill:#3CC3D9;}
	.st15{fill:#ECAC67;}
	.st16{fill:#ABDDDE;}
	.st17{fill:#EAAE9D;}
	.st18{fill:#CF8885;}
	.st19{fill:#2D9FB2;}
	.st20{fill:#E9EDF7;}
	.st21{fill:#884B6C;}
	.st22{fill:#454043;}
	.st23{fill:#129491;}
	.st24{fill:#ACADAE;}
	.st25{fill:#4E3136;}
	.st26{fill:#024E6C;}
	.st27{fill:#CA9E6F;}
	.st28{fill:#F2E094;}
	.st29{fill:#F2738E;}
	.st30{fill:#73A7BE;}
	.st31{fill:#197DAA;}
	.st32{fill:#F7EB98;}
	.st33{fill:#BC734F;}
	.st34{fill:#252A3D;}
	.st35{fill:#C0CCDD;}
	.st36{fill:#1F2746;}
	.st37{fill:#6D5539;}
	.st38{fill:#FFFFFF;}
	.st39{fill:#4E3C25;}
	.st40{fill:#F0C776;}
	.st41{fill:#DA587C;}
	.st42{fill:#F7A8A7;}
	.st43{fill:#C45C7A;}
	.st44{fill:#73452C;}
	.st45{fill:#FCCFB7;}
	.st46{fill:#69446B;}
	.st47{fill:#5A395D;}
	.st48{fill:#F38AAA;}
	.st49{fill:#EDAA42;}
	.st50{fill:#A76F69;}
	.st51{fill:#A16443;}
	.st52{fill:#FAB6A1;}
	.st53{fill:#E96997;}
	.st54{fill:#82596B;}
	.st55{fill:#9C605B;}
	.st56{fill:#FABCA4;}
	.st57{fill:#F6EC49;}
	.st58{fill:#9B5E3F;}
	.st59{fill:#745D9E;}
	.st60{fill:#5D4980;}
	.st61{fill:#CD8079;}
	.st62{fill:#056772;}
	.st63{fill:#EF5B79;}
	.st64{fill:#A1D28E;}
	.st65{fill:#81B16D;}
	.st66{fill:#BD6D6A;}
	.st67{fill:#194353;}
	.st68{fill:#F28186;}
	.st69{fill:#DA5A7A;}
	.st70{fill:#FABFA0;}
	.st71{fill:#1D4E5E;}
	.st72{fill:#393537;}
	.st73{fill:#FEE495;}
	.st74{fill:#B16979;}
	.st75{fill:#606281;}
	.st76{fill:#4E506A;}
	.st77{fill:#7A93A1;}
	.st78{fill:#FCCDB0;}
	.st79{fill:#E98B41;}
	.st80{fill:#CFD7B0;}
	.st81{fill:#FFDDB8;}
	.st82{fill:#9EA372;}
	.st83{fill:#57585A;}
	.st84{fill:#A2B4BF;}
	.st85{fill:#516780;}
	.st86{fill:#EEB59B;}
	.st87{fill:#FABAA3;}
	.st88{fill:#F27385;}
	.st89{fill:#756F90;}
	.st90{fill:#E8E9F5;}
	.st91{fill:#826E74;}
	.st92{fill:#FFCD64;}
	.st93{fill:#F9E8E3;}
	.st94{fill:#DFDAED;}
	.st95{fill:#FCB238;}
	.st96{fill:#645E7B;}
	.st97{fill:#C65E6F;}
	.st98{fill:#F3B29E;}
	.st99{fill:#E3978B;}
	.st100{fill:#C8C4CC;}
	.st101{fill:#835D39;}
	.st102{fill:#F79058;}
	.st103{fill:#D4DAC2;}
	.st104{fill:#E67B50;}
	.st105{fill:#B7B4BC;}
	.st106{clip-path:url(#SVGID_3_);}
	.st107{fill:#AEC3E5;}
	.st108{fill:#383958;}
	.st109{fill:#765975;}
	.st110{fill:#59425C;}
	.st111{fill:#A49CCC;}
	.st112{fill:#012F3B;}
	.st113{opacity:0.31;fill:#FFFFFF;enable-background:new    ;}
	.st114{fill:none;stroke:#012F3B;stroke-width:0.44;stroke-miterlimit:10;}
	.st115{fill:#8481BE;}
	.st116{fill:#C8C5BD;}
	.st117{fill:#CADAF0;}
</style>
<title>Asset 5</title>
<g id="Layer_2" class="st0">
	<g id="Layer_1-2">
		<path class="st1" d="M248.5,524.8c-50.8,0-105.5,8.2-105.5,26.3c0,4,2.8,7.5,7.6,10.6l62.3,74.8c4.4,5.2,6.8,11.8,6.9,18.6v58.4
			c0,9.1,14.9,13.2,28.8,13.2c13.9,0,28.8-4.1,28.8-13.2v-58.4c0-6.8,2.5-13.4,6.9-18.6l5.3-6.4h30.6c7.9,0,15.1-4.5,18-11.4l5-12.3
			c1.9-4.6,1.2-9.8-1.9-13.7c-3.2-4.1-8.2-6.4-13.4-6.4h-1.8l20.4-24.5c4.8-3.1,7.6-6.6,7.6-10.6C354,533.1,299.3,524.8,248.5,524.8
			z M327.8,595.1c2.1,0,4.2,0.9,5.5,2.6c1.3,1.6,1.6,3.8,0.8,5.7l-5,12.3c-1.6,3.5-5.1,5.8-9,5.7h-23.3l21.9-26.3H327.8z"/>
		<path class="st2" d="M248.5,534.8c61.8,0,95.5,11.9,95.5,18s-33.7,18-95.5,18s-95.5-11.9-95.5-18S186.7,534.8,248.5,534.8z"/>
		<path class="st3" d="M262.9,548c37.2,0,64.2,3.2,79.8,6.7c0.8-0.5,1.3-1.4,1.4-2.3c0-6-33.7-17.6-95.5-17.6s-95.5,11.6-95.5,17.6
			c0,2.3,5,5.4,14.5,8.4C169.5,556.2,202.9,548,262.9,548z"/>
		<path class="st4" d="M276.2,631.4c-5.6,6.8-8.8,15.3-8.9,24.1v58.6c-0.7,1.3-7.3,4.7-19.3,4.7s-18.7-3.3-19.3-4.4v-58.9
			c0-8.8-3.2-17.4-8.9-24.1l-51.9-62.6c20.7,5.7,51,8.4,80,8.4s59.3-2.7,80-8.4L276.2,631.4z"/>
		
			<linearGradient id="SVGID_1_" gradientUnits="userSpaceOnUse" x1="1620.6283" y1="88.7944" x2="1620.6383" y2="88.8444" gradientTransform="matrix(160 0 0 -91 -259127.9375 8863.6699)">
			<stop  offset="0" style="stop-color:#FFFFFF;stop-opacity:0.1"/>
			<stop  offset="1" style="stop-color:#FFFFFF;stop-opacity:0"/>
		</linearGradient>
		<path class="st5" d="M267.3,655.3c0-8.8,3.2-17.4,8.9-24.1l51.9-62.4c-20.7,5.7-51,8.4-80,8.4s-59.3-2.7-80-8.4l99.3,91
			L267.3,655.3z"/>
		<rect class="st6" width="514.5" height="516.1"/>
		<path class="st7" d="M279.6,375.3c0,0-0.8,0.1-0.9,0.5c-0.1,0.9-0.1,1.7,0,2.6c0.1,0.5,0.7,0.6,0.7,0.6l0.2-0.5L279.6,375.3z"/>
		<path class="st8" d="M279.4,375.5c0,0-0.5,0.2-0.4,0.4c0.1,0.1,0.3,0.2,0.4,0.3V375.5z"/>
		<path class="st9" d="M283.5,356.4l0.1,24l-1.8,9.8c-3.1,0.3-2.7-3.4-2.7-3.4s-0.3,0.2-1.1-0.3s-0.5-2.4-0.3-4.6
			c0.1-1.2,0.7-2.3,1.7-3.1c0-0.7,0.3-10.7,0.7-14.5c0.1-2.9,0-5.7-0.3-8.6L283.5,356.4z"/>
		<path class="st8" d="M279.3,378.8c0.8,0.7,1.8,1.1,2.9,0.9l1.4-0.3l0.1-2.6c0,0-0.3,0.8-2.2,0.7c-0.9,0-1.7-0.5-2-1.4
			c0,0-0.1-0.1-0.2,0.3C279.1,377.2,279.1,378,279.3,378.8z"/>
		<path class="st10" d="M282.4,381.1c0,0-0.7,2.1-2.1,2.3c-0.6,0.2-1,0.8-1,1.5l-0.2,2.1c0,0,0.8-0.3,0.8-2.4c0,0,0-0.5,1-0.8
			C282,383.4,282.6,382.2,282.4,381.1z"/>
		<path class="st11" d="M306.9,443.6c0,0,1,1.7,0.7,2.5s-8.4,9.4-10.8,8.6s-2.8-1.6-2.5-2.5s5.3-7.8,5.3-7.8
			C303.1,447.1,306.9,443.6,306.9,443.6z"/>
		<path class="st11" d="M293.1,436.6c0,0,1,2.4,0.7,3s-8.5,8.4-10.3,8.3c-1.4-0.1-2.6-1.2-2.9-2.6c0-0.9,5.5-7,5.5-7L293.1,436.6z"
			/>
		<path class="st12" d="M282.7,379.5c4.4,2.9,21.4,7.2,21.4,7.2c0.3,3.1-0.3,36-0.3,36c-0.7,5.2,3.5,18.9,3.5,18.9s0.9,3-3.3,4.1
			s-4.8-1.9-4.8-1.9s-4.8-17.7-5.5-20.3s-1.6-20.3-1.6-20.3c-1.6,5.4-2.4,11.2-2.2,14.5s4.4,18.3,4.4,18.3c-1.2,3.9-5.7,3.5-7.1,3
			c-1-0.3-1.7-1.3-1.5-2.4c-0.6-2.6-5.2-17.8-5.2-19.8s0.8-24.4,0.8-24.4C281.3,382.6,282.8,379.5,282.7,379.5z"/>
		<path class="st13" d="M302.3,379l-2.6,6.4c-11.6,2.7-16.9-5.1-16.9-5.1c-0.2-1.5-0.1-3,0.3-4.4C291.5,383.2,302.3,379.1,302.3,379
			z"/>
		<path class="st9" d="M294.1,336.2l3.1,2c0,0,1.1,3.2,0.6,3.8s-3.3,2.6-4.9,4.2c-1.2,1.6-2.2,3.3-2.9,5.2l-0.8-5
			c-0.1-1.7,0.2-3.5,0.9-5.1L294.1,336.2z"/>
		<path class="st14" d="M299.9,340.2c0,0,6.7,28,6.7,32.1c-0.1,2.8-1,5.4-2.6,7.7c-14.1,7-21.2-3.7-21.2-3.7
			c-1.1-4.6-0.8-18.7-0.8-18.7c-1.5-0.2-2.8-1.1-3.5-2.4l-0.2-3.3c0.2-1.6,1-1.1,1-1.1s0.3-8.7,0.3-9c0.3-7.4,5.3-7.4,5.3-7.4
			c0.3,1.7,2.8,7.1,2.8,7.1l2.4,1l-0.9,3.2c0,0.8,0.9,5.7,0.9,5.7s1.7-5.1,3.7-6s4.9-4.7,4.9-4.7c0.3-0.7-0.3-2.7-0.3-2.7
			c0.2,0,0.5-0.1,0.6-0.3L299.9,340.2z"/>
		<path class="st15" d="M297.6,381.4c0.2-0.3,0.4-0.1,0.4,0.1c0.2,0.2,0.3,0.3,0.3,0.5c0.2,0.3,0.3,0.7,0.5,1
			c0.2,0.8,0.5,1.5,0.9,2.2c0.9,1.4,2.4,2.1,4,2c1.6-0.2,3-0.9,4.1-2.1c1.1-1.2,1.9-2.5,2.5-4h0.1c-0.2,0.8-0.4,1.6-0.8,2.4
			c-0.4,0.7-0.8,1.4-1.3,2.1c-1.1,1.4-2.7,2.3-4.5,2.4c-0.9,0.1-1.9-0.1-2.7-0.5c-0.8-0.4-1.5-1.1-1.9-1.9c-0.2-0.4-0.3-0.8-0.4-1.2
			c-0.1-0.3-0.2-0.8-0.3-1.1s-0.2-0.8-0.3-1.1s-0.2-0.3-0.3-0.5S297.8,381.3,297.6,381.4L297.6,381.4z"/>
		<ellipse class="st16" cx="289.5" cy="358.6" rx="0.6" ry="0.9"/>
		<path class="st17" d="M310.8,377.9c0.4,3.1-0.3,4.4-0.3,4.4s0.4,7.6,0.5,11.8c0.1,4.5-1.6,5.2-1.6,5.2l-6.8,3.9
			c-1.1,0.5-3.8,1.8-4.9-0.4c-0.6-1.2-1-14.4-0.9-19.6c0-0.7,0-1.3,0.2-2c0.4-0.9,6.9-4,6.9-4C305.9,375.4,310.4,374.7,310.8,377.9z
			"/>
		<path class="st18" d="M297.6,381.4c0.6-0.3,1.3,0,1.6,0.6c0.1,0.2,0.1,0.5,0.1,0.7c0,2,0.2,3.7,0.9,4.5s7,3.6,10.3-5
			c-0.4,2.5-2,4.6-4.2,5.8c0,0-4.1,2-6.6-0.9c-0.5-0.9-0.8-2-0.7-3.1C299.1,382,298.8,381.5,297.6,381.4z"/>
		<path class="st9" d="M303.9,366.4c0,0,0,2.4,0.2,7.2s-1.7,18.9-1.7,18.9c1.1,1.4,3,1.8,4.5,1c-0.4-2,2.8-14.6,2.8-14.6
			c1.6-9.6,0.3-13.7,0.3-13.7C305.3,362.7,303.9,366.4,303.9,366.4z"/>
		<path class="st19" d="M290.4,342.2l-0.4-0.5l-0.3,0.9c-0.3,1.3-0.5,2.5-0.6,3.8l0.8,2.4c-0.7-4.5,0.2-5.9,0.2-5.9L290.4,342.2z"/>
		<path class="st14" d="M298.8,339.5l-0.2-1.8c1.9,0.8,2.4,3.8,2.4,3.8s5.8,3.9,7.4,6.3s1,4.3,1.3,7.8c0.1,0.8,0.5,3.2,0.9,5.3
			c0.5,0.2,1,4.2,1,4.2s-1.1,3.5-6.8,3.1l-1.6-0.3c0,0-3.3-9.1-3.1-12.5s-0.1-5,1.6-6.4"/>
		<path class="st9" d="M306.8,393.2c0.3,1.7,1.1,5.1,0.7,6.8c-0.6,1.8-1.6,3.4-3,4.6c-1.7,1.2-2.3,0.2-2.4-0.3
			c0.1-1.2,0.4-2.4,0.7-3.6c0.2-0.9-0.2-1.9-0.3-3.4c-0.9,0.1-0.4,2-0.6,3s-1.4,0.7-1.6,0.3c-0.2-0.7-0.3-1.5-0.3-2.2
			c0-0.9,0.1-1.8,0.4-2.7c0.7-2.6,2-3.3,2-3.3C304.7,395,306.7,393.3,306.8,393.2z"/>
		<path class="st17" d="M297.5,384.6c-0.8-3-1.7-6.1-2.8-9c-0.7-1.9-7.8-20.8-9.8-29.5s0.3-10.6,0.3-10.6l0.3,1.7
			c-1.9,4.1,5.7,26,9,33.7c1.7,4.1,3.2,8.2,4.3,12.5C299.3,385.2,297.8,386.4,297.5,384.6z"/>
		<path class="st19" d="M300.5,355.1c0.1,1.5,0.3,3,0.8,4.4c0.3,1.3,0.7,2.6,1.1,3.9c0.1,0.2,0,0.2,0.1,0.4
			c-0.2,0.7,0.8,3.8,1.3,3.8c0.1,0.6-0.2,0.6-0.6,0.6s-1.8-5.5-2.7-8.4c-0.4-1.5-0.6-3-0.6-4.6c0-1.5,0.2-3.1,0.8-4.5
			C300.4,352.2,300.4,353.6,300.5,355.1z"/>
		<path class="st20" d="M291.3,381.9l-0.1,4.2c-1.5-0.4-2.9-1-4.2-1.7c-0.7-2.9,0.1-4.3,0.1-4.3
			C288.2,381.2,291.2,381.9,291.3,381.9z"/>
		<path class="st18" d="M297.8,380.4c0,0,1,2.2,0.7,2.8s-1,1.2-1.6-1c0,0-0.1,0-0.1,0.5c0,0,0.3,1.2,1,1.3s1.2-0.8,0.7-2.1
			c-0.2-0.5-0.4-1-0.5-1.5l5.7-3.1V377C303.9,377,298.5,379.8,297.8,380.4z"/>
		<path class="st19" d="M285.2,345.3c5.1-2.5,4.9,6.2,4.9,6.2C289.1,344.2,285.2,345.4,285.2,345.3z"/>
		<polygon class="st19" points="288.2,341.5 286.4,345 285.3,345.3 287.7,341.4 		"/>
		<path class="st21" d="M288.4,394.5c3.9,2.9,3.7,9.4,3.7,9.4v-2c0.1-2.2-0.4-4.4-1.5-6.3l2.6,0.7l-4.2-2.8l-1.7-7.2L288.4,394.5z"
			/>
		<path class="st9" d="M290.2,342.6c-0.2-0.1-2.9-0.7-3.5-1.6s-3-7.2-2-8.2c0.8-0.9-0.3-1.8-0.5-2.3c-0.1-0.5-0.2-0.9-0.1-1.4
			c0,0-0.3-3.5,0.7-4.4s6.8-8.8,13.1-5.1c1,0.9,1.5,2.3,1.3,3.7c-0.1,0.3,0.2,7.7,0.2,7.7s1.7-0.6,1.9,1.6s-0.4,3.8-1.3,4.5
			c-0.6,0.5-0.9,0.8-1.5,0.8l0.2,1.8"/>
		<path class="st22" d="M291.9,316.8c-2.4-0.9-2.6,1.4-2.6,1.4c-1.1-0.1-2,0.7-2.2,1.7c-2.7,0.4-2.4,2.2-2.4,2.2
			c-1.9,0.6-1.7,1.7-1.7,1.7c-0.3,2.2,1.2,2.1,1.2,2.1c0.1,0.9,0.9,1.5,1.8,1.5c0.2,0,0.4-0.1,0.5-0.2c0.4,0.9,1.3,1.3,2.2,0.9
			c0.1,0,0.1-0.1,0.2-0.1c0.6,0.8,1.7,1,2.4,0.4c0.2-0.1,0.3-0.3,0.5-0.5c0.8,0.2,1.6-0.1,2-0.8l-0.7,1.3c-0.7,1.7,1.6,2.7,1.6,2.7
			c-0.3,1,0.1,2,1,2.5c0.4,0.3,0.3,0.3,0.5,1.4c0.1,0.6,0.7,1.1,1.4,1l0.1-1.6c0-1,0.4-2,1-2.8c1.8-1.1,2.4,1,2.4,1
			c0.6-0.6,0.8-1.4,0.5-2.2c0.7-0.9,0.8-2.1,0.3-3.1c0.5-0.9,0.3-1.9-0.4-2.6c0.3-1-0.2-2-1.1-2.4c0.2-0.6,0.2-1.4,0-2
			c-0.5-0.7-1.3-1.1-2.2-1.1c-0.2-1-1.2-1.7-2.2-1.6c-0.3-0.3-0.3-1-1.6-1.3C293.5,316.2,292.7,316.4,291.9,316.8z"/>
		<path class="st10" d="M285,331.7c1.5,1.3,3.3,2.2,5.3,2.4c2.7,0.5,3.8-0.7,3.8-0.7s-0.5,0.5-3,0.3c-1.4-0.3-2.7-0.8-4-1.5
			c-1.1-0.3-2.2-1-3-1.8C284.3,330.9,284.6,331.3,285,331.7z"/>
		<path class="st10" d="M292,346.8l4.7-5.7c0.3-1.4,0.4-2.8,0.4-4.2c0.3,0.1,0.5,0.6,0.7,0.7c0.3,0.3,0.7,0.4,1.1,0.2v2.1l0.3,0.7
			c-0.9,1.6-4,3.8-4,3.8L292,346.8z"/>
		<path class="st10" d="M298.8,334.2c-0.3,0.6,0.5,0.8,0.7,0.6s0.1-2.1,0.4-1.5s-0.2,2.3-0.7,2.4s0.1-0.8-0.5-0.7s-0.6,0.8-0.6,0.8
			c0,0.5,0.5,0.9,1,0.9c0.2,0,0.4-0.1,0.6-0.3c0.7-0.6,1.2-3.7,0.3-4.1s-1.7,1.1-1.7,1.1C298.6,333.3,299,333.5,298.8,334.2z"/>
		<path class="st10" d="M287.5,333.2l0.3,3.9l1.2,0.1l0.4,0.5c-0.8,0.3-1.7,0.2-2.4-0.3V333L287.5,333.2z"/>
		<path class="st19" d="M311.4,364.1c-2.5,4.4-8.5,3.3-8.5,3.3s0,0.6,0.4,0.7c6.4,1.1,8.3-2.8,8.3-2.8
			C311.6,364.9,311.5,364.5,311.4,364.1z"/>
		<path class="st19" d="M302.1,363.6l-0.3-0.6c0.8,0.4,1.6,0.6,2.5,0.5c2.3-0.1,4.5-1.1,6.2-2.7c-0.4,0.7-0.9,1.2-1.5,1.7
			c-0.6,0.5-1.4,0.9-2.2,1.1C302.8,364.6,302.1,363.6,302.1,363.6z"/>
		<path class="st19" d="M300.8,342.7c-0.3,1.3-3.8,8-3.8,8s-2-3-3-4.3s-3.8,4.9-3.8,4.9l1.4-3.6c0,0,0.9-1.7,1.8-2.1
			s3.4,3.4,3.4,3.4c0.7-1.5,1.5-2.9,2.4-4.3c1.7-2.9,1.6-4.4,1.6-4.4C301,341.1,301,341.9,300.8,342.7z"/>
		<path class="st19" d="M299.2,341.1c-0.1,0.3-0.3,0.6-0.6,0.9l-0.8,0.8l0,0l-3,2.1c-0.5,0.3-1,0.7-1.5,1c-0.5,0.3-0.9,0.7-1.3,1.2
			c0.2-0.6,0.5-1.2,1-1.6l1.3-1.3c1-0.8,2-1.5,3-2.2l0,0l0.7-0.7c0.2-0.3,0.4-0.5,0.6-0.8c0.4-0.6,0.5-1.3,0.5-2
			C299.5,339.3,299.5,340.3,299.2,341.1z"/>
		<path class="st10" d="M289.6,344.3c0.2-1.4,0.5-1.6,0.5-1.6c1.3,0.3,2.2-0.4,3.5-1.4c1-0.8,1.9-1.8,2.6-2.9
			c-1.6,5.3-5.9,5-5.9,5.1C290,343.7,289.7,344,289.6,344.3z"/>
		<path class="st19" d="M281.6,356.7c-1.1,0.3-3-1.6-3-1.6c0.6,1.4,2,2.3,3.5,2.4l0.4-15.4C281.9,344.6,281.6,356.7,281.6,356.7z"/>
		<path class="st19" d="M281.9,353.1c-1.2-0.2-2.2-1.2-2.5-2.4c1.4,1.8,2.7,1.6,2.7,1.6L281.9,353.1z"/>
		<path class="st19" d="M287.1,354.5c-1.3-0.3-2.5-0.9-3.4-1.8c-0.5-0.3-0.7-0.8-0.5-1.3c0.9,1.2,2.2,2,3.7,2.4L287.1,354.5z"/>
		<path class="st19" d="M283.7,358.6c0.5,1.3,1.7,2.1,3.1,2C283.7,361.7,283.7,358.7,283.7,358.6z"/>
		<ellipse class="st16" cx="289.5" cy="367.2" rx="0.6" ry="0.9"/>
		<ellipse class="st16" cx="288.9" cy="375.1" rx="0.6" ry="0.9"/>
		<ellipse class="st16" cx="290.2" cy="352.6" rx="0.6" ry="0.9"/>
		<path class="st12" d="M283.4,377.1l-0.3,4.4l1.3,1.1c-0.4-1,0.2-4.4,0.2-4.4L283.4,377.1z"/>
		<polygon class="st12" points="296.3,382.3 296.4,386 295,386.2 295.1,382.3 		"/>
		<path class="st10" d="M291.1,343.2c0,0-0.8,2.7,0.5,4.3l-1.5,3.7c0-1.1-0.1-2.2-0.3-3.3c-0.3-1.4-0.3-5,0.4-5.4
			C290.1,342.6,290.6,343.1,291.1,343.2z"/>
		<path class="st10" d="M281.4,386l-0.1,4.3c-0.3,0.1-0.6,0.1-0.8-0.1c0,0,0.8,0.4,0.7-1.9C280.9,386,281.2,385.4,281.4,386z"/>
		<path class="st10" d="M310.2,366.8c0,0-1.7,1.7-6.4,1.3c0.2,3,0.2,5.9,0.1,8.9c0,0,0.8-6.5,0.6-7.3c1.6,0.3,3.3,0.1,4.8-0.4
			c0,0,0.8,6.2,0.4,8.9C309.7,378.2,310.9,371.2,310.2,366.8z"/>
		<path class="st10" d="M279.7,356.6l0.2,1.2c1,0.4,1.7,1.4,1.6,2.5c-0.1,1.9,0.8,17.2,0.8,17.2l0.5-0.1l0.2-0.9
			c-0.4-1.6-0.6-3.2-0.7-4.8c0-2.1-0.6-12.4-0.3-14.1L279.7,356.6z"/>
		<path class="st23" d="M281.9,357.2c0,0-0.3,13.2,1,19.2c3.3,4.4,8.7,6.6,14.1,5.9c0,0-10.4-0.3-13.6-6.2c-0.4-2.2-0.7-4.5-0.9-6.8
			c-0.4-5.1-0.4-12-0.4-15.2L281.9,357.2z"/>
		<path class="st24" d="M287.7,439.7l-3.4,4.1C285.7,442.7,286.9,441.3,287.7,439.7z"/>
		<path class="st24" d="M286.2,440.3l1.7,0.9C287.2,441.4,286.5,441,286.2,440.3z"/>
		<path class="st24" d="M285.2,441.3l1.7,0.9C286.2,442.4,285.5,442,285.2,441.3z"/>
		<path class="st24" d="M284,442.5l1.7,0.9C285,443.6,284.3,443.2,284,442.5z"/>
		<path class="st24" d="M301.2,446.3l-3.4,4.1C299.3,449.4,300.5,447.9,301.2,446.3z"/>
		<path class="st24" d="M299.8,447l1.7,0.9C301.4,447.8,300.2,448.1,299.8,447z"/>
		<path class="st24" d="M298.8,448l1.7,0.9C299.8,449,299.1,448.7,298.8,448z"/>
		<path class="st24" d="M297.6,449.1l1.7,0.9C298.6,450.2,297.9,449.8,297.6,449.1z"/>
		<path class="st24" d="M300.3,453.2c0,0,0.5-0.5-0.7-1.4c-2.8-1.9-4.1-1.6-4.1-1.6s-1.8,1.8-1.2,2.9c0,0,1.6,2.2,3.8,1.4
			L300.3,453.2z"/>
		<path class="st24" d="M287,446.1c0,0,0.2-0.3-1-1.1c-2.8-1.9-4.1-1.6-4.1-1.6s-1.8,1.8-1.2,2.9c0,0,2,2.2,3.8,1.4L287,446.1z"/>
		<path class="st24" d="M307.6,445c-2.2,2.9-4.9,5.6-7.8,7.8l0.1,0.8c0,0,5.4-3.8,7.7-7.4C307.7,445.8,307.7,445.4,307.6,445z"/>
		<path class="st24" d="M293.8,438.7c0,0-1.7,3-7.8,7.4l-0.1,0.8c0,0,5.6-3.5,7.9-7.1C293.9,439.4,293.9,439.1,293.8,438.7z"/>
		<path class="st21" d="M288.4,394.5c0,0-4.4-2.4-4.3-4l4.5,3.2L288.4,394.5z"/>
		<path class="st25" d="M256.7,543c0,0-5.2,6.8-5.5,7.8s0.1,1.7,2.5,2.5s10.5-7.8,10.8-8.6s-0.9-3.1-0.9-3.1S260.2,545.6,256.7,543z
			"/>
		<path class="st25" d="M243.2,536.7c0,0-5.5,6.3-5.5,7.2c0.3,1.4,1.5,2.5,2.9,2.6c1.7,0.2,10-7.7,10.3-8.3s-0.7-3-0.7-3
			L243.2,536.7z"/>
		<path class="st26" d="M238,490.8c0,0-0.8,22.4-0.8,24.4s4.6,17.2,5.2,19.8c-0.1,1.1,0.5,2.1,1.5,2.4c1.5,0.5,5.9,0.9,7.1-3
			c0,0-4.2-15-4.4-18.3s0.6-9.1,2.2-14.5c0,0,0.9,17.7,1.6,20.3s5.5,20.3,5.5,20.3s0.6,3,4.8,1.9s3.3-4.1,3.3-4.1
			s-4.2-13.7-3.5-18.9c0,0,0.6-32.8,0.3-36c0,0-15.1-3-19.4-5.9C241.4,479.2,238,481,238,490.8z"/>
		<path class="st9" d="M233.7,477.6c-0.5,0.9-1,1.9-1.2,3c-0.3,1.3-0.3,3.4-1,4.6c0,0-0.9,0.8,0.9,0.9s1.6-1.3,1.6-1.3
			s-0.8,5.1,2.6,5.1l0.8-0.1l-0.3-10.7C237,479,234.6,478.4,233.7,477.6z"/>
		<path class="st10" d="M233.7,477.5c0.7,0.7,1.4,1.2,2.3,1.6v1c-0.6-0.9-1.6-1.6-2.7-1.7L233.7,477.5z"/>
		<path class="st27" d="M248,505.8c-0.3,0-1,0.6-0.9,2.3s-0.3,15.1-0.3,15.1c-0.4,0.8,0,1.7,0.8,2.1c0.1,0,0.2,0.1,0.3,0.1
			c1.8,0.6,3.4,1.6,4.6,0.9s19.5-11.7,19.5-11.7c0.7-0.2,1.2-0.9,1.2-1.7c0-1.4,0.1-16.6,0.1-16.6l-5.7,0.4L248,505.8z"/>
		<path class="st28" d="M243.3,438.8c0,0-2.5,3-2.3,9.8s-0.1,21.7,0,23.5s0.3,5.1,0.3,5.1s5.3,4,9.8,3.8c-0.7-3.7-0.9-7.5-0.6-11.2
			c0.6-5.1-0.5-13.8,0.3-17.1s4.4-9.4,5-13.2l-0.4-1.4L243.3,438.8z"/>
		<path class="st29" d="M243.5,444.1c-0.2,0.2,0.4,1.9,1.1,2.9c0.3,0.5,0.9,0.7,1.5,0.4c0,0,0.1-0.1,0.1-0.1l1.5-2.1l-1.7-2.1
			C245.1,443.3,244.3,443.7,243.5,444.1z"/>
		<path class="st29" d="M244.6,446.7c0,0-1.3,8.6-2.4,16.6c0.7,2.5,1.7,4.9,2.8,7.2c0,0,2.5-4.3,3.2-5.7c-0.1-0.3-2.3-17.8-2.3-17.8
			L244.6,446.7z"/>
		<path class="st30" d="M255.3,437.4c0,0,1.6,1.1-0.3,5.1s-4.9,9-4.6,16s0.1,13.7,0.3,18.5c0.2,4.1-0.5,7.5-0.1,10
			c0.2,1.9,0.3,3.8,0.1,5.7c2.1,1,4.5,1.3,6.8,0.9c0,0,6.1-0.2,9.5-4.2c-0.3-1.6-0.7-3.1-1.3-4.6c0,0,2.7-9.3,2.9-14
			s-1.9-13.8-2.3-17.2s0.3-5.4-1.3-7.8s-7.4-6.3-7.4-6.3s-0.4-3-2.4-3.8L255.3,437.4z"/>
		<path class="st30" d="M240.8,432.8c-3-0.2-5.7,2.1-5.9,5.1c0,0,0,0.1,0,0.1c0,0,0,12.5-0.1,15.3s-0.8,15.6-0.9,17.5
			c0,0.8-0.1,1.7-0.2,2.5c-0.2,0.6-0.4,1.3-0.4,1.9c0,0.7,0.1,1.5,0.2,2.2c0.7,0.7,1.5,1.2,2.4,1.6c0,0-0.4,6.4-0.3,9.1
			c0.5,1.1,1.3,2,2.2,2.7c1.4,0.9,2.2,1.7,2.9,1.3s-0.1-3,0.1-5.6s0.4-13.8,0.4-19s0.3-9.9,0-13.5s-0.4-12.5,1.8-15.1
			C243.2,439.1,240.7,437.5,240.8,432.8z"/>
		<path class="st31" d="M238.1,439.5c0,1.7-0.1,3.3-0.1,5s-0.1,3.3,0,5s0.2,3.3,0.2,5s-0.1,3.3-0.2,5s-0.3,3.3-0.4,5s-0.3,3.3-0.4,5
			l-0.5,5c-0.2,1.7-0.3,3.3-0.6,5c0-1.7,0.1-3.3,0.2-5l0.3-5c0.1-1.7,0.2-3.3,0.3-5c0.2-1.6,0.3-3.3,0.3-4.9c0.1-1.7,0.2-3.3,0.3-5
			s-0.1-3.3,0-5C237.4,446.2,237.6,442.8,238.1,439.5z"/>
		<path class="st32" d="M245.9,443.2c3.5-1.2,6.7-3.2,9.4-5.7c0,0,0.6,0.3,0.7,2c-2.4,2.8-5.2,5.2-8.3,7.1
			C247.3,445.4,246.7,444.2,245.9,443.2z"/>
		<path class="st32" d="M244.7,440c0,0,0.1,2.3,1.1,3.2c-1.1,0.7-2.3,1.3-3.6,1.7c0,0-0.1-4.5,0.8-6
			C243.5,439.4,244.1,439.7,244.7,440z"/>
		<path class="st31" d="M236.3,444.1l0.9,2.9c0.2,0.5,0.3,0.9,0.4,1.4c0.1,0.5,0.1,1.1,0,1.6h-0.1c-0.3-0.4-0.6-0.8-0.8-1.3
			c-0.2-0.5-0.3-1-0.3-1.5C236.4,446.1,236.2,445.2,236.3,444.1L236.3,444.1z"/>
		<path class="st31" d="M240.9,486.3c0.6-7.3,0.7-26,0.5-28.6c-0.2-3.7-0.7-10.9,0.3-15.2l1.4-3.5l-1.4-2c0,0-1.9,2.6-2.2,10.6
			c0,0-0.7,6.2-1,7.2c0,0,2,3.2,1.7,5.2s-1.9,3.5-1.1,7.6c0.6,3.1,1.4,11.2,1.7,14.6c0.1,1,0,5.3,0,5.3L240.9,486.3z"/>
		<path class="st9" d="M245.9,443.2c3.5-1.2,6.7-3.1,9.3-5.7l-0.2-1.9c0.5,0.2,1.1-0.2,1.7-0.6s1.1-2.4,1-4.6s-1.9-1.6-1.9-1.6
			s-0.3-7.3-0.2-7.7c0.2-1.4-0.3-2.8-1.3-3.7c-6.3-3.7-9.2,0.2-11.7,0.5s-2,4.1-2,4.1v4.9c-0.1,0.5,0,0.9,0.1,1.4
			c0.2,0.5,0.2,1,0.1,1.5c-0.3,1-0.3,2-0.2,3c-0.1,5.9,3.4,7,3.8,7.1S244.6,441.9,245.9,443.2z"/>
		<path class="st33" d="M240.1,416.4c0.7,0.6,1.7,0.8,2.6,0.4c1.6-0.6,5.4-3.7,7.6-3s6.5,2.4,6.9,3.5c0.2,0.8,0.2,1.6,0,2.4
			c0,0,1.3,0.4,1.3,2.6s-0.2,6.6-0.7,8.1c0,0-0.6-2.2-2.4-1c-0.7,0.8-1,1.8-1,2.8l-0.1,1.6l-1.6,0.7l0.2-1.7c0-0.5-0.2-1-0.5-1.4
			c-0.8-0.8-1.3-1.8-1.6-2.9c-0.2-0.9,0.1-1.9,0.8-2.5l2.3-2.2l-3.6,2.1c-1.3,0.7-2.9,0.7-4.2,0.1l-5.5-3.1
			C240.5,422.8,237.5,420.9,240.1,416.4z"/>
		<path class="st10" d="M244.7,440c1.9,0.6,3.9,0.3,5.6-0.7c1.1-0.9,2-2,2.6-3.3c0,0,0.4,2.2-3,3.9c-1.4,0.7-2.5,0.6-3.5,1.2
			c-0.5,0.3-0.7,1-0.6,2C245.1,442.2,244.8,441.1,244.7,440z"/>
		<path class="st10" d="M240.8,428.1c0.8,0.8,1.9,1.5,3,1.8c1.3,0.6,2.6,1.1,4,1.5c2.4,0.3,3-0.3,3-0.3s-0.3,1.5-3,1
			c-2.4-0.5-4.6-1.5-6.5-3C241.2,428.7,241,428.4,240.8,428.1z"/>
		<path class="st10" d="M255.1,435.6c-0.3,0-0.5-0.1-0.7-0.3c-0.2-0.1-0.4-0.6-0.7-0.7c0,0,0.2,3.9-2.1,5.8c1.3-0.9,2.6-1.9,3.7-3
			L255.1,435.6z"/>
		<path class="st27" d="M247.9,506.7l3.9,2.2c0.3,0.2,0.6,0.2,0.9,0l20.5-12.2c0.2-0.2,0.3-0.5,0.1-0.8c0,0-0.1-0.1-0.1-0.1
			l-3.8-2.1c-0.4-0.2-0.8-0.2-1.2,0c-1.8,1-7.3,4.3-12.2,7.1c-3.5,2.1-6.7,3.9-8.1,4.9c-0.3,0-0.5,0.2-0.5,0.5
			C247.4,506.5,247.6,506.7,247.9,506.7z"/>
		<path class="st10" d="M254.8,431.3c0,0,0.8-1.6,1.7-1.1s0.4,3.5-0.3,4.1c-0.4,0.4-1,0.4-1.3,0c-0.2-0.2-0.3-0.4-0.3-0.6
			c0,0,0-0.7,0.6-0.8s0,0.9,0.5,0.7c0.6-0.6,0.9-1.5,0.7-2.4c-0.3-0.6-0.3,1.3-0.4,1.5s-1,0-0.7-0.6
			C255.5,431.3,255.3,431.1,254.8,431.3z"/>
		<path class="st31" d="M233.7,473.6c0,0,0.6,1,2.8,1.5l-0.1,0.4C236.3,475.5,234.1,475.2,233.7,473.6z"/>
		<path class="st9" d="M258.3,490.6c-0.7,1.2-1.3,2.5-1.7,3.9c0,0-0.8,1.8-0.4,2.7c0.4,0.9,0.5,1.4,0.5,1.4l1.6-1.1
			c0,0-0.4-1.6,0.5-1.6s1.4,2.2,1.6,2.7s-1.6,1.7-1.4,2.2s0.7,1.6,2.4,0.3c0,0,2.5-1.3,3.3-2.9s-0.7-5.7-1.4-6.9
			C263.3,491.6,260.7,493.2,258.3,490.6z"/>
		<path class="st31" d="M258.3,448.5c-0.7,1.6-1.2,3.3-1.3,5c-0.1,1.6,0.2,3.2,0.8,4.7c0.8,2.9,1.5,5.9,2,8.9
			c0.2,0.8,0.3,1.6,0.3,2.4v2.4c0,1.6-0.1,3.2-0.2,4.8c-0.2,3.2-0.3,6.4-0.6,9.6l0,0c-0.3,1.4-0.5,2.8-0.6,4.2v-0.1
			c0.1,0.2,0.3,0.3,0.5,0.5c0.2,0.2,0.5,0.3,0.8,0.3c0.5,0.2,1.1,0.3,1.7,0.3c0.6,0,1.1-0.2,1.6-0.4c0.5-0.4,0.8-0.8,1-1.4l0,0
			c0.6-2.2,1.1-4.3,1.7-6.4c-0.4,2.2-0.9,4.4-1.3,6.5l0,0c-0.2,0.6-0.5,1.2-1,1.7c-0.5,0.4-1.2,0.6-1.8,0.6c-0.6,0-1.3-0.1-1.9-0.3
			c-0.7-0.2-1.3-0.6-1.7-1.2l0,0v-0.1c0-1.5,0.2-3,0.5-4.4v0.1c0.3-3.1,0.3-6.4,0.5-9.6c0.1-1.6,0.2-3.2,0.2-4.8c0-0.8,0-1.6,0-2.4
			c-0.1-0.8-0.2-1.6-0.3-2.4c-0.6-3.1-1.3-6.3-2.1-9.3C256.1,454.6,256.5,451.2,258.3,448.5z"/>
		<path class="st31" d="M258.9,486.3c0.5,0.2,1,0.4,1.5,0.6c0.5,0.2,1,0.3,1.5,0.3c0.5,0,1,0.1,1.5,0.1s1-0.1,1.6-0.1
			c-0.5,0.3-1,0.6-1.5,0.8c-0.5,0.2-1.1,0.2-1.7,0.1c-0.6-0.1-1.2-0.3-1.7-0.6C259.6,487.2,259.2,486.8,258.9,486.3z"/>
		<path class="st34" d="M241.3,476.5c2.7,2.2,5.9,3.6,9.4,4l-0.2,2v1.8c0,0-6.3-0.9-9.3-3.7L241.3,476.5z"/>
		<path class="st35" d="M243.7,478.2c-0.4,1.4-0.4,2.8,0,4.2c1.2,0.9,2.7,1.4,4.2,1.4l0.1-3.9C246.5,479.6,245,479,243.7,478.2z"/>
		<path class="st36" d="M244,484.6l1.7,7.2l4.2,2.8l-2.6-0.7c1.1,1.9,1.6,4.1,1.5,6.3v2c0,0,0.3-6.5-3.7-9.4L244,484.6z"/>
		<path class="st10" d="M231.5,485.3c0,0,1.1,1.2,2.3-0.7c0.2-0.4,0.4-0.8,0.5-1.3c0.1-0.5,0.2-0.9,0.2-0.9s0.6,0.2,0.1,1.4
			c-0.2,0.6-0.5,1.2-0.8,1.7c-0.5,0.5-1.3,0.7-2,0.5c0,0-0.6-0.2-0.5-0.5L231.5,485.3z"/>
		<path class="st37" d="M259.6,496.7l-3.3,2.3c0,0-0.8,0.3-0.8,1.9v2.6l1.6,0.6l1.3-0.7v-1.7c0,0-0.1-1,0.3-1.4s1.1-0.7,1.7-1.2
			C260.3,498.2,260.1,497.4,259.6,496.7z"/>
		<ellipse class="st38" cx="245.1" cy="473.5" rx="0.5" ry="0.7"/>
		<path class="st10" d="M234.5,482.6c0,0,1.1,0.1,1.3-0.6v0.9c0,0-0.3,0.3-1.3,0.3V482.6z"/>
		<path class="st31" d="M250.6,481.5c0,0,0.4-2.7,0.7-8.6s2.7-12.9,2.7-13.2s-1.2-4-1.2-4s1.5-0.1,2-0.7s-0.5-3.7,0.9-7.2
			c1.4-3.5,2.2-5.5,1.8-8.6c0,0-0.6-3-2.4-3.6l0.2,1.9c0,0,2,1.1-1,6.3c0,0-4.3,6.9-4.1,14.2c0,0,0.3,8,0.1,10.2
			S250.9,479,250.6,481.5z"/>
		<path class="st39" d="M257,504l1.3-0.7v-2.1c0-0.6,0.3-1.1,0.8-1.4l1.3-1c-0.1-0.5-0.2-0.9-0.3-1.4c-0.8,0.7-1.6,1.3-2.4,1.9
			C256.7,500.2,257,504,257,504z"/>
		<path class="st31" d="M255.5,451.5c0,1.1,0.2,2.1,0.6,3.1l0.7,0.9c0.1,0.5,0.1,1,0.1,1.5c-0.7-0.7-1.2-1.5-1.5-2.5
			c-0.1-0.5-0.2-1-0.2-1.5C255.3,452.5,255.4,452,255.5,451.5z"/>
		<path class="st40" d="M241.3,476.5c0,0,2.9,3.1,9.4,4c0,0-0.3-6.2-0.4-8.4s0.1-10.2,0-10.9c-0.4-4.4,0.3-8.9,1.9-13
			c0,0,1.4-3.3,2.5-5.2c0.5-1.1,0.9-2.2,1.2-3.3c0,0-4.6,5.2-8.2,7c2.6-1.2,5-2.9,6.9-5c0,0-3.7,5.5-4.4,10.2s-0.4,19.5-0.4,21.6
			s0.3,6.1,0.3,6.1S246.6,479.6,241.3,476.5z"/>
		<path class="st40" d="M242.6,440.2c-0.2,1.6-0.3,3.2-0.3,4.8c0.4-0.1,0.8-0.2,1.2-0.4c0.2,0.9,0.5,1.7,1,2.4c0,0-1.3,8.5-1.6,10.5
			l1.3-10.3l-1-1.8c-0.5,0.1-0.9,0.2-1.4,0.2c-0.2,2.5-0.3,4.9-0.2,7.4c0.4,7.9,0.3,15.8-0.4,23.7c0,0,0.1-13.6,0.2-15.4
			c0.1-2.9,0-5.8-0.3-8.7c0,0-0.2-7,0.5-9.9C241.9,441.8,242.2,441,242.6,440.2z"/>
		<path class="st41" d="M243.7,445c0,0,1.6-0.9,2.1-1.3l1,2.2c-0.2,0.5-0.5,1-0.9,1.5l-1.3-0.5l1.3,0.8l1.9,16.8c0,0-2,4.3-2.8,5.9
			c0,0,2.6-3.6,3.2-5.7c0,0-2.2-16.7-1.9-17.5c0.4-0.5,0.8-1,1.1-1.6c-0.4-0.9-0.8-1.7-1.4-2.5l-2.3,1.3
			C243.5,444.5,243.5,444.7,243.7,445z"/>
		<polygon class="st42" points="244.1,450.1 246.3,452.5 246.6,454.8 243.7,452.5 		"/>
		<polygon class="st42" points="243.3,455 247,458.1 247.4,460.9 243,457.4 		"/>
		<polygon class="st42" points="242.6,459.8 247.6,463.7 247.8,464.6 247,466.2 242.3,462.3 		"/>
		<path class="st42" d="M243,465.8l3.2,2.1l-1.3,2.6C244.1,469,243.5,467.4,243,465.8z"/>
		<path class="st36" d="M245.4,493c0,0-2.8-0.7-3.6-2c0,0,2.5,0.9,3.6,1.2V493z"/>
		<path class="st10" d="M258.3,490.6c0,0,0.4,1.4,3.7,1.5c0,0,1.1,0,1.4-0.5c0.8,1.5,1.3,3.2,1.5,4.9c0,0-1.2-2.6-2.5-3.1
			c-1.8,0-3.4-0.9-4.4-2.4L258.3,490.6z"/>
		<path class="st10" d="M260.5,499c0,0-0.5-2.8-1.7-3.1c0,0,1.8-0.8,1.7,3.3"/>
		<path class="st43" d="M147.7,446.1c-3.8,4.6-6.3,19.1-6.3,19.1c1-1.6,5.2-2.3,5.2-2.3C146.4,459.9,147.7,446.1,147.7,446.1z"/>
		<path class="st44" d="M147.8,387.8c0,0-2.4-1.3-4,2.1s-0.1,10.5,1,12.7s1.7,4.2,1.7,4.2l3-2c0.7-0.6,1.1-1.5,1.2-2.4
			c1.5-1.9,0.8-6.2,0.8-6.2L147.8,387.8z"/>
		<path class="st45" d="M144.5,492.4c-0.4,0.8-0.6,1.6-0.6,2.5c0,0.5,0.5,0.8,0.8,1.2c0.9,1.2,5,4.1,5,4.1c1.2-1.2,2.8-1.8,4.5-1.7
			l-3.5-5.1L144.5,492.4z"/>
		<path class="st45" d="M160.6,485.9c-0.1,0.2-0.6,1.9-0.7,2.1c-0.5,0.9-0.2,2.1,0.5,2.8l5.2,4.4l4.6-1.9c-1-1.7-4.2-5.7-4.2-5.7
			L160.6,485.9z"/>
		<path class="st45" d="M169.4,440l1,9.7c1.6-0.7,2.1-1,2.5-3.7s-0.5-7.9-0.5-7.9L169.4,440z"/>
		<path class="st46" d="M144.6,492.2c0.1-7,0-8.1,0.5-13.7c0.2-1.6,0.4-3,0.7-5.4c0.5-6-0.9-14.4-0.9-18.1c0-5.1,2-8.5,2.3-8.6
			c16.5-2.6,23,14.8,23.1,14.8c-0.3,4.9-4.1,26.3-4.1,26.3c-1.1,2.3-4.5,1.1-4.5,1.1c-1.2-0.7-1.8-2-1.6-3.3c0,0,0.7-10.7,0.7-14.5
			c0.1-1.9-0.2-3.9-0.8-5.7c0,0-3.9-2.3-4.4-0.3c-0.2,0.9-0.2,3.7-1,7.4c-0.9,4.6-2.5,10.4-2.7,13c-0.2,2.8-0.6,5.5-1.2,8.2
			c-0.9,0.9-2.2,1.3-3.5,1.1C145.8,494.2,144.6,493.2,144.6,492.2z"/>
		<path class="st47" d="M170,464.1c0,0-5.4,3.3-9.3,4l0.1,1.4c0,0,5.3,0.1,8.8-2.7L170,464.1z"/>
		<path class="st47" d="M148.1,448.9c0,0,2.5,10.8,0.4,20.6c0,0,3.9,1.8,6.3,1.1c0.3-1.8,0.5-3.7,0.6-5.5
			C155.4,464.1,150.2,447.1,148.1,448.9z"/>
		<path class="st48" d="M141.3,448.6c-0.9,1.8-2.3,10.2-2.5,14.6s3.2,5.1,3.2,5.1c-0.2-1.5-0.2-2.9,0.1-4.4
			c0.6-6.9,5.1-14.7,5.1-14.7l1.2-7.7l1,8.5c0.6,3.3,0.9,6.6,0.8,10c-0.1,3.2-0.6,6.4-1.3,9.5c2.5,0.5,10.2-0.3,16.6-2.6
			s7.4-4.8,7.4-4.8c0.1-1.9,0-3.7-0.2-5.6c-0.3-2.4-2.4-16.4-2.4-16.4c3-1.2,3.4-2.5,3.3-4.6s-1.3-10-1.6-16.2s-1.6-13.7-2.9-17.3
			s-3.9-3.3-3.9-3.3c-0.1,1.6-0.6,3.2-1.2,4.7c1.1,3.2,1.7,6.5,1.7,9.8c-0.9,2.9-4.4,3.2-6.4,3.3s-4.1-2.9-5.7-6.7
			c-1-2.3-3.1-3.9-5.6-4.3c-2.8,1.4-4.4,5.3-5.8,8.8s-3.2,15-3.5,19.9C138.5,438.9,141.4,448.5,141.3,448.6z M146.3,434.4
			c0,0,0.6-7.9,2.1-10.7c0.8,1.6,0.9,3.4,0.3,5.1C148,430.7,147.2,432.6,146.3,434.4z"/>
		<path class="st49" d="M147.8,392.2c-1.3,0-1.8-1.3-1.9-3.8s1.5-2,1.5-2L147.8,392.2z"/>
		<path class="st45" d="M164,402.8c0.9,2.1,2.3,8.8,1.8,10.5s-4.4,3.7-7,3s-4.6-5.2-5.7-7.5s-5.1-3.6-5.1-3.6c0.3-0.4,1.7-1,3.1-2.2
			s0.7-4.4,0.7-4.4c0.4,0.5,1.1,0.8,1.7,0.6C155.8,401.5,164,402.8,164,402.8z"/>
		<path class="st45" d="M152,384.2c-5.7,2.6-1.2,12.5-1.2,12.5c-0.1,2.4,1.1,3.7,1.7,3.6c0,0,4.6,5.1,7.9,5.1s4.6-2.6,5.5-8.5
			c0.1-0.5-0.2-1.3-0.1-1.8c0.2-0.6,0.3-1.1,0.4-1.7c0.1-2.2-0.1-4.3-0.7-6.4C162.6,380.2,157.7,381.6,152,384.2z"/>
		<path class="st50" d="M143,434.4l3,12.7c0,0,5.5,5.1,6.2,5.1s5.1-2.4,5.5-3.5s-1.7-10.1-2.1-11.4s-10-7.4-10-7.4L143,434.4z"/>
		<path class="st51" d="M166,384.9c-0.5-1.1-1.2-2-2.2-2.7c-1.9-1.7-4.3-2.9-6.9-3.3c-2.5-0.2-8.4,2.1-9.4,4.5
			c-0.3,1.7-0.5,3.5-0.4,5.2c0.4,2-0.3,2.4,0.5,5.1c0.3,1,0.7,2,1.2,2.9c0.7,0.5,1.6,0.6,2.3,0.2c0.7,0,1.3-0.3,1.8-0.8
			c0.3,0.8-0.6,2.2,1,3c0.6,0.4,1.3,0.2,1.7-0.3c0.1-0.2,0.2-0.4,0.2-0.6c-0.7,1.3-2.3,0.6-1.9-1s2-1.2,2.5-3.7s1-2.4,4.8-3.2
			s3.9-3.4,3.9-3.4c0.3,0.5,0.5,1,0.6,1.6C165.7,388.4,167.1,387.2,166,384.9z"/>
		<path class="st52" d="M166,394.2c-2.3,1.5-5.5,2.9-6.1,2.6c-0.8,0.1-1.6,0-2.4-0.1c0.3-0.5,1.1-0.3,3-0.5s5.7-2.5,5.7-2.5
			L166,394.2z"/>
		<path class="st52" d="M162.1,400.1c0.7,0.3,1.3-0.2,1.1-0.6c-0.4-0.8-0.5-1.7-0.4-2.6c0.2-0.6,0.4-0.3,0.4-0.3
			c-0.2,0.9-0.1,1.9,0.3,2.8c0.6,1.7-1.8,1.7-2,0.8C161.7,399.7,162.1,400.1,162.1,400.1z"/>
		<path class="st52" d="M164,405c-0.8,1.2-3.2,1.4-3.2,1.4s-6.1,0.2-6.7-5.6c1,2,2.8,3.5,4.9,4.1c3.8,0.9,5.2-1.6,5.2-1.6l0.4,1.1
			c0,0,2.2,8.3,1.1,9.5C165.7,410.9,165.1,407.8,164,405z"/>
		<path class="st53" d="M168.3,409c1.3,1.4,2.1,3.2,2.5,5.1c0.5,3-1.1,5.9-2.6,8.2s-1.2,3.5,0.7,8.7c1.1,2.9,1.6,5.9,1.4,9
			c-0.4-8.2-3.5-9-3.7-12.9s1-4.7,3-9s-1.5-7.8-1.8-9.1c-0.1-1.3,0-2.6,0.3-3.9C168,406.4,168.1,407.7,168.3,409z"/>
		<path class="st53" d="M154.3,423.6c3.7,1.9,7.4-0.3,7.4-0.3c-1.7,2.1-4.8,2.4-6.9,0.7C154.6,423.9,154.4,423.7,154.3,423.6z"/>
		<path class="st52" d="M171.4,447.4l-0.1-1.2c0,0,0.5-1.3,0.6-1.6s0.1-3.1,0.1-3.1C172.9,444.2,171.3,447.4,171.4,447.4z"/>
		<path class="st52" d="M152.5,402.9c-0.4,1.2-1.4,2.1-2.6,2.3c3.5,1.3,4.4,4.4,5.7,7c0.9,1.7,2.2,3.1,3.8,4.2
			c-2.7,0.1-4.6-4.3-4.6-4.3c-0.8-1.5-1.6-3-2.6-4.4c-0.9-1.2-4.1-2.4-4.1-2.4l3.1-2.2c0.9-1,1.1-2.4,0.5-3.6c1,1.1,1.8,0.2,1.8,0.2
			C154.3,401.7,152.9,401,152.5,402.9z"/>
		<path class="st9" d="M142.3,450.1c-0.5,2.1-0.6,4.3-0.3,6.5c0.2,2,1.3,2.4,2,3.1s1.5,1.3,2.1,0.3c0.3-0.4-0.1-2.5-0.1-3.9
			c0-0.9,0.1-1.8,0.3-2.6c0.2,0.9,0,4.7,1.1,4.4s0.8-1.4,0.9-4c0-1.7-0.2-3.3-0.7-4.9C145.6,451.5,142.3,450.1,142.3,450.1z"/>
		<path class="st54" d="M165.4,493.8c-2.9-1.2-5.7-5.2-5.7-5.2c-0.3,0.5-0.4,1-0.3,1.5c2,2.6,6.2,6.2,9.5,7.3s3.3-0.9,3.3-0.9
			c-0.4-1.7-1.3-3.3-2.6-4.5C168,491.8,166.4,492.5,165.4,493.8z"/>
		<path class="st54" d="M149.8,499.5c-2.9-1.2-5.7-5-5.7-5c-0.3,0.4-0.4,0.8-0.4,1.3c1,1.6,6.3,6.1,9.6,7.2s3.3-0.9,3.3-0.9
			c-0.3-1.7-1.3-3.2-2.6-4.3C152.4,497.5,150.8,498.2,149.8,499.5z"/>
		<path class="st48" d="M138.8,435c-0.3,2.9,2,10.7,2,10.7l1.1,4.3c1.9,0.9,4.2,0.3,5.5-1.3c-1.4-5.2-1-19.4-1-19.4L138.8,435z"/>
		<polygon class="st55" points="152.7,438.7 146.4,433.9 146.3,434.4 152.4,438.9 151.8,452 152.2,452.2 152.6,439 		"/>
		<path class="st55" d="M152.4,436.7l-5.7-4.3C148.3,434.2,150.2,435.7,152.4,436.7z"/>
		<path class="st55" d="M153.8,441.2c-0.2-1.6-1.5-13.8-1.5-13.8c-0.9-15.5-2.4-17.2-2.4-17.2c-0.6-1.8-2.5-2.9-4.4-2.6
			c0.2-0.8,0.9-1.4,1.7-1.6c3.3-0.8,5,4.9,4.9,4.5c1.7,4.2,3.2,30.5,3.2,30.5C155.3,442.7,154,442.7,153.8,441.2z"/>
		<path class="st53" d="M148.4,421.6l0.3-1.1c1.2-0.7,2.3-3.4,2.3-3.4C150.9,418.9,149.9,420.6,148.4,421.6z"/>
		<path class="st53" d="M148.5,419.3c-1.5,3-2.6,11.2-3,14.8s1.9,14.5,1.9,14.5c-0.8,2.1-5.5,1.3-5.5,1.3c5.1,1.8,6.2-1,6.2-1
			s-1.4-9.4-1.8-11.8s1.3-13.8,3.1-17.8s0.9-6.5,0.9-6.5C150.1,415.1,149.5,417.3,148.5,419.3z"/>
		<polygon class="st56" points="163.5,415.7 162.6,413.5 162.7,416 		"/>
		<path class="st56" d="M151.4,396.8c0,0-0.2,2.1,0.5,2.3s1.2-0.5,0.9-0.8s-0.9-0.6-0.3-1.5S151.4,396.8,151.4,396.8z"/>
		<path class="st55" d="M152.4,438.9l1-1.4l2.2-0.2c0,0,2.7,9.9,2,11.7c-1.6,1.4-3.4,2.5-5.4,3.3l-0.2-0.8c0,0,3.5-0.9,5.3-3.1
			c-0.3-3.6-0.9-7.2-1.9-10.7l-1.6,0.1l-1.4,1.7"/>
		<path class="st57" d="M162.8,405.9c0,0,1.1,3.3,0,4.5s-3,1.6-6-1.4c-1.9-1.9-3.9-3.7-6.1-5.3c0,0-0.2-1.2,1.1,0s6.6,6.6,7.9,6.9
			s4,0.7,2.5-4.5L162.8,405.9z"/>
		<circle class="st57" cx="161.8" cy="411.2" r="0.7"/>
		<circle class="st57" cx="152.6" cy="399.9" r="0.5"/>
		<path class="st52" d="M146.4,452.7c-0.1,0.9-0.2,1.7-0.4,2.6c-0.1,1.5,0,3,0.3,4.5c0,0-0.1-5,0.3-5.5v1.6
			C146.5,455.9,147.3,453.7,146.4,452.7z"/>
		<path class="st52" d="M147.8,449.4c0,0-0.9,1.8-5.5,0.7c-0.5,1.7-0.6,3.5-0.4,5.2c0,0,0.5-3.8,2-3.6s4-1.6,4.3,0.8l0.2,1.6
			C148.6,452.5,148.4,450.9,147.8,449.4z"/>
		<path class="st52" d="M172.6,438.8c-0.7,0.5-1.4,0.9-2.2,1.2l0.4,2.6c0,0,1-2.2,1.6-1.4c0.5,0.8,0.7,1.7,0.7,2.6
			C173.1,442.1,172.9,440.4,172.6,438.8z"/>
		<path class="st52" d="M166.1,487.5c0,0-0.5,2-4.1,1.2c0,0-1.5-0.5-1.7-1.7c-0.2,0.5-0.4,1.1-0.6,1.6c0,0,0.2-0.8,0.9-0.2
			c1.7,1.7,4.4,1.8,6.3,0.3L166.1,487.5z"/>
		<path class="st52" d="M150.8,493.4c0,0-2.4,2.3-4.9,0.5c0,0-1.3-0.7-1.3-1.5s-0.4,1-0.4,1c1.9,2.2,4.9,2.8,7.5,1.6L150.8,493.4z"
			/>
		<path class="st53" d="M169,406.5l-0.9,2.8l0.7,0.9C169,409,169,407.7,169,406.5z"/>
		<path class="st51" d="M150.9,396.8c-0.2,1.1,0.1,2.2,0.8,3c0.1,0.4,0.2,0.7,0.3,1.1c0,0-1.8,0.7-4-6.3L150.9,396.8z"/>
		<path class="st58" d="M164.9,384.3c0.9,1.9,0.1,4.2-1.8,5.1c-0.1,0.1-0.3,0.1-0.4,0.2C162.6,389.6,165.5,387.7,164.9,384.3z"/>
		<path class="st58" d="M153.8,393.9c0,0-0.4,3-3,2.7C152.1,396.2,153.2,395.2,153.8,393.9z"/>
		<path class="st10" d="M226.6,272.6c0,0-0.9,3.4-0.2,4c0.4,0.4,1.1,0.5,1.6,0.3C228,276.9,226.3,277.2,226.6,272.6z"/>
		<path class="st59" d="M128.5,397.1c0,0,3.8,1.9,5.9,3.3c0,0,1.3,0.6,1,1.7c0,0-0.3,2.1-3.2,1.7c-1.3-0.2-3.3-0.1-7.8-3.4
			c-0.9-0.5-1.5-1.4-1.6-2.4C122.8,396.4,126.5,396.2,128.5,397.1"/>
		<path class="st60" d="M124.1,400.2c0,0,4.4,4,9.2,3.7c0,0-6.4-1.4-7.5-3.6c-0.8-1.2,0.2-1.6,0.2-1.6l-1-0.9l-0.7-0.2l-0.5,0.2
			C123.7,398.6,123.8,399.4,124.1,400.2z"/>
		<path class="st59" d="M119.2,397.9l-0.1,0.7c0,0-0.8,7.2,0.1,9c0.5,1.1,1.7,1.8,2.9,1.7c0.8,0,3.1-1.4,2.5-6
			c-0.2-1.9-0.5-3.8-0.9-5.6L119.2,397.9z"/>
		<path class="st60" d="M119.2,398.8c1.6,0.6,3.3,0.4,4.7-0.5l0.3,1.2c0,0-0.3,2.3-5.1,0.6L119.2,398.8z"/>
		<path class="st61" d="M120.2,398.6c-0.2,1.3-0.2,2.7,0,4c0.3,1,1.7,2.5,2.7,0.4c0.8-1.7-0.2-5.3-0.2-5.3L120.2,398.6z"/>
		<path class="st61" d="M127.7,396.1c0,0,0.3,0.9,2.2,1.9c1.2,0.6,2,1.3,2,2.1s-3.6,1-7-2.4L127.7,396.1z"/>
		<path class="st62" d="M124,397.6c0,0,2.8,1.2,3.7-1.5c0,0,0.3-14.1,2.5-24.3s4.6-25.9,4.4-27.4l-11.5,4.3L124,397.6z"/>
		<path class="st61" d="M140.7,327.5c0.4,0.4,0.9,0.7,1.5,0.8c1.2,0.2,2.2,0.7,3,1.6c0.9,1,1.1,1.7,2,2.2s0.7,0.9,0.3,1.3
			s-2.1,0.1-2.7-1.4c0.2,0.9,0.6,1.7,1.1,2.4c0.7,0.8,1.7,2.4,1.2,3.4s-2.1,1.1-3.9,0.5s-4.5-1.9-5.3-5.9c0-0.7-0.3-1.4-0.8-2
			C137,330.5,137.2,327.8,140.7,327.5z"/>
		<path class="st62" d="M110.4,348.1c0,0,3.5,25,7.9,48.2c0,0,0.1,2.6,2,2.8c2.6,0.3,4.4-1.2,4.2-2.6c0,0-0.4-35.7,1.2-46.7
			C125.7,349.9,118.8,340.6,110.4,348.1z"/>
		<path class="st63" d="M112.2,313l-2.7,26.7c-0.9,0.1-1.6,1-1.6,1.9c0,0,3.2-26,2.4-30.7L112.2,313z"/>
		<path class="st64" d="M140.8,326.8c0,0-3.3-8.4-4.1-10.2s-0.7-8.2-0.7-8.2c-1-15.9-6.1-15.9-6.1-15.9c-0.5,2.5-3.6,4.9-3.6,4.9
			c4.4,7.3,1,9.8,1,9.8c0.5,1.7-0.3,6.4-0.3,6.4c-0.7-3.9-2.1-5.1-2.1-5.1c-3.1,0-4.9-3.7-4.9-3.7c-2.7-5.1-5.1-6.1-5.1-6.1
			c-1.8,0.5-3.5,1.3-4.9,2.5c-4.9,5-6.5,20.9-6.4,24.2s4.3,10.3,4.3,10.3c-0.6,2.1-0.6,4.3-0.1,6.4l11.2,9.6
			c6.3,0.9,12.7-1.5,16.8-6.4l0.3-3.4c0.1-1.8,0-3.6-0.4-5.3c-0.6-2.9-3-12.9-3-12.9l4.3,7.2c0.7-3.1,4.1-3.2,4.1-3.2
			C141,327.4,140.9,327.1,140.8,326.8z M112.4,325.6l-1.1,3.1l-1.3-5.4c0.5-1.9,1.1-3.7,1.8-5.5C112.8,320.3,113,323,112.4,325.6
			L112.4,325.6z"/>
		<path class="st61" d="M117.7,294.1c0,0,0.6,2.7-2.4,4.8c1.9,1.9,3.6,4.1,5,6.4c2.8,4.4,4.7,3.3,4.7,3.3l2.1,5.1l0.5-6.4
			c0,0,3-2.3-1.3-9.8C123.1,297.7,119.9,296.4,117.7,294.1z"/>
		<path class="st61" d="M115.5,291.2c0,0-2,5.3,2.2,3.1c0,0,4,5.3,9.4,3.1c0,0,2.6-1.1,3.3-7.6c0,0,1.4-8.6-0.6-10.5
			c0,0-10.9-7-13.9-0.3C114,282.8,113.8,287.3,115.5,291.2z"/>
		<path class="st22" d="M117.1,273.8c0,0-7,0.7-7,10.9c-0.1,1.8-0.5,3.6-1.1,5.3c-0.9,2.4-0.7,7.8,7.6,7.8c1.1-0.9,1.5-2.4,1.1-3.7
			c0,0-1.7,0.7-1.7-1.7c1.2-0.8,2.3-1.8,3.2-2.9c0.6-0.3,1.6-0.6,2.4-4c0,0,6.2,0.9,8.3-4.1c0.3,1.9,0.5,3.8,0.4,5.7
			c0,0.3-0.6,1.6-0.6,2c-0.1,1.2,0.5,2.1,0.2,3.3c0,0,2,1,2.2-5.1s-1.6-7.4-3.5-10C128.6,277,123.2,270.5,117.1,273.8z"/>
		<path class="st65" d="M118.3,319.7c0,0,4.5,0.5,7.1-1.7C125.3,318.1,123.6,321.2,118.3,319.7z"/>
		<path class="st66" d="M127.6,307.3c1.5-4-1.6-8.7-1.6-8.7c-1.3,0-2.4-0.1-2.4-0.1c-1.2-0.2-2.3-0.6-3.3-1.3
			c-2.5-1.7-2.4-3-2.4-3.8c0,0,2.5,4,6.2,4.3c0.8,0.1,1.5,0.1,2.3,0C126.4,297.6,130.6,304.1,127.6,307.3"/>
		<path class="st66" d="M130.3,287.1c0,0-4.7,3.7-8,2.6c0,0,1,1.8,5.1-0.3l2.6-1.6L130.3,287.1z"/>
		<path class="st62" d="M111.8,325c0.5,0.9,1.1,1.7,1.8,2.4c1.4,1.5,6,2.4,8.9,1.5c-0.7-2.5-1-5.2-0.9-7.8c0.1-1.8,0.2-3.5,0.2-4.8
			c0.3-3.1,0-6.2-1-9.2c0,0-0.6,0-2.5-3.5c-2-3.7-2.9-4.6-4.2-4.9c0,0-2.3,0.5-2.9,1.5c0,0,4.5,1.9,4.4,8.9
			c-0.1,7.3-3.7,9.3-3.7,9.3c0,0.8,0.1,1.7,0.3,2.5C112.8,322.6,111.9,322.6,111.8,325z"/>
		<path class="st63" d="M110.1,301.1c0,0,4.2-0.8,5.7,10.4l1.6,27.4l0.7,4.5l1.1,0.8c0,0-1-9.6-1.2-16.2s-0.8-18.8-1.5-21.1
			s-1.6-5.4-5.1-6.8C110.8,300,110.2,300.4,110.1,301.1C110.1,301.1,110.1,301.1,110.1,301.1z"/>
		<path class="st65" d="M114,308.2c0.1,3.3-0.6,6.6-2.2,9.6C111.8,317.8,115.9,312,114,308.2z"/>
		<path class="st65" d="M113.8,313.2c0.7-0.5,1.2-1.3,1.3-2.2c0.2,1.2-0.4,2.5-1.5,3.1L113.8,313.2z"/>
		<path class="st62" d="M127.4,297.2c0,0,3.7,5.1,2.9,19.1c0,0,0,4.3-0.3,7c-0.2,1.7-0.1,3.4,0.2,5c1.3-0.2,2.5-0.9,3.3-2
			c0.2-0.3,0.4-0.5,0.7-0.7c0,0-0.6-11.6-0.3-12.6c0.6-1.2,0.9-2.5,0.9-3.9c-0.2-1.7-2.3-4.5-3.3-7.4s-2.6-6.5-2.6-6.5
			C128.6,296,128.1,296.7,127.4,297.2z"/>
		<path class="st22" d="M120.9,287.3c0,0-1.7,5.1-4.9,5L120.9,287.3z"/>
		<path class="st67" d="M133.9,313c-0.7,1.1-1.6,2-2.6,2.7c1-0.4,1.9-1,2.6-1.8V313z"/>
		<polygon class="st65" points="124.7,308.6 127.1,313.6 127.9,307 127.6,307.3 127,312.6 125,308.5 		"/>
		<path class="st63" d="M108.1,335.9l1.1,1.5l-0.1,2.2c0,0-1.2,0.4-1.2,1.2C107.8,339.2,107.9,337.5,108.1,335.9z"/>
		<path class="st65" d="M111.3,328.7l2.8,6.7l1.3,1.8c-1,1.5-2.6,2.6-4.4,3c0,0-2.2-3.4-3-4.6l3.1,4c1.4-0.3,2.7-1.1,3.6-2.3l-1-1.7
			c-1.2,1-2.6,1.7-4.1,1.9c1.3-0.6,2.7-1.3,3.9-2.1C113.6,335.4,111.4,330.8,111.3,328.7z"/>
		<path class="st63" d="M107.7,342c0,0-0.1,6.6,0.9,8.5c0,0,1.2,1.9,6.7,3.9c1,0.5,2,0.7,3.1,0.7c1-0.1,1.8-0.8,2.1-1.8
			c0,0,0-6.2-0.3-6.9c0,0-0.3-0.9-2-1.2S107.6,339.3,107.7,342z"/>
		<path class="st68" d="M109.4,339.5c0,0-1.6-0.1-1.7,2.1c0,1.5,0.2,2.9,0.7,4.3c0,0,2.6,2.8,4.6,3.6s4.3,1.2,5.2,0.5
			c0.2-0.4,0.2-0.9,0.2-1.4c0-0.4,0.4-0.8,0.8-0.9c0,0,0.9-0.1,0.9-0.6l0.1-0.7C120.2,346.3,111.6,340.4,109.4,339.5z"/>
		<path class="st69" d="M108.1,341.8c0,0,9.1,5.8,10.3,6.2C114.7,346.4,111.3,344.3,108.1,341.8z"/>
		
			<ellipse transform="matrix(0.9328 -0.3603 0.3603 0.9328 -117.449 63.8484)" class="st70" cx="112.5" cy="346.9" rx="0.6" ry="0.8"/>
		<path class="st69" d="M107.8,345.2c2.4,3.2,6.3,5.1,10.3,5c0,0-0.1-2,1.2-2.5c-0.7,0.7-1.1,1.7-0.9,2.7
			C114.2,350.6,110.2,348.6,107.8,345.2z"/>
		<path class="st62" d="M125.9,351.2c0,0-0.1,16.8-1.2,24.1c0,0,0.1,4.1,0.1,7.2s-0.4,15-0.4,15l-0.3,0.5c0,0,0.4-13.1,0.1-15.6
			c-0.2-2.4-0.2-4.9-0.1-7.3c0.1-1.1,0.9-22.2,1.1-23.7L125.9,351.2z"/>
		<path class="st65" d="M139.9,325.5c-1.9,0.1-3.5,1.4-3.9,3.3C136,328.9,136,325,139.9,325.5z"/>
		<path class="st61" d="M115.1,337.6c0.4,0.5,1.1,0.8,1.7,0.8c1,0,1.8,0.9,2.5,2s1.2,1.3,1.3,1.7s-0.2,0.9-1.3,0.5
			c-0.7-0.2-1.3-0.5-1.9-0.9c0.6,0.6,1.1,1.3,1.5,2.1c0.5,1.2,1.7,1.1,2.1,2c0.2,0.5-0.1,1.1-0.6,1.3c-0.1,0-0.3,0.1-0.5,0
			c-0.8,0.4-1.8,0.5-2.7,0.4c0,0-3.1-0.7-4.7-4.9c-0.2-0.9-0.5-1.8-0.9-2.6C113,339.5,114.2,338.7,115.1,337.6z"/>
		<path class="st71" d="M134.4,346.8c0,0-3.8,4.8-13.8,4.9v1.7c4.9-0.3,9.7-2,13.6-5L134.4,346.8z"/>
		<path class="st66" d="M127.8,289.7c0,0,0.7,2.8,0.1,4.4c-0.2,0.4-0.7,0.7-1.2,0.6c0,0,1-0.3,1.1-2.1c0.1-0.9,0-1.8-0.4-2.7
			L127.8,289.7z"/>
		<path class="st72" d="M116,292.3c0,0,0,2.3,1.8,1.7c0,0,0.5,2.4-1.1,3.7c-1.2,0.1-2.4,0-3.6-0.4c0,0,4.3,0.7,4.1-1.8l-0.1-0.9
			C117,294.6,115.7,294.5,116,292.3z"/>
		<circle class="st73" cx="117.1" cy="293.7" r="0.5"/>
		<path class="st73" d="M117.6,295c0,0.3-0.2,0.5-0.5,0.5s-0.5-0.2-0.5-0.5c0-0.3,0.2-0.9,0.5-0.9S117.6,294.8,117.6,295z"/>
		<path class="st66" d="M117.8,294.1c0,0,0.9,2.5-2.4,4.8c1.3,1.3,2.4,2.7,3.5,4.2c0,0-2.2-3.3-1.3-4.4c0.6-0.9,1.1-1.9,1.3-2.9
			L117.8,294.1z"/>
		<path class="st66" d="M118.8,303.1c0,0,3.5,6.3,6.1,5.4l2,4.1l0.6-5.3l-0.8,3.7c-0.1-1.3-0.5-2.5-1-3.7l0.3,3l-1.1-2.2
			c0,0-2.6,0.9-7.2-6.8L118.8,303.1z"/>
		<polygon class="st66" points="125.7,298.2 125.4,300.6 126.1,299.6 125.9,298.1 		"/>
		<path class="st73" d="M116.6,297.8c0,0,3.8,6,8.5,6c0,0,2.2,0.1,0.9-4.6c0,0,2.2,4.4-0.4,5.1C125.5,304.3,121.2,305.9,116.6,297.8
			z"/>
		<path class="st73" d="M124.9,304.3c0,0,1.2,1.2,1.3-0.4L124.9,304.3z"/>
		<polygon class="st65" points="124.6,318.9 121.6,322 121.7,319.9 		"/>
		<path class="st65" d="M112.6,316.4l0.2,1.4l-0.8,0.6l-0.2-0.6C112.1,317.4,112.4,316.9,112.6,316.4z"/>
		<path class="st65" d="M103.7,326c0,0,2.6,8.1,5.8,11.9l2.3-0.9l-2,0.5C107.3,333.9,105.2,330.1,103.7,326z"/>
		<path class="st65" d="M110,323.5c-0.3-1-1.1-1.8-2.1-2.1C107.9,321.5,110.5,321,110,323.5z"/>
		<path class="st65" d="M128.3,315.4l-2.4,5.7C125.9,321.1,127.6,319.5,128.3,315.4z"/>
		
			<ellipse transform="matrix(0.8333 -0.5528 0.5528 0.8333 -150.3505 120.5125)" class="st62" cx="124.7" cy="309.6" rx="0.6" ry="0.3"/>
		
			<ellipse transform="matrix(0.8298 -0.558 0.558 0.8298 -153.6624 124.5366)" class="st62" cx="127.3" cy="314.2" rx="0.6" ry="0.3"/>
		<path class="st71" d="M125.9,351.2c0,0-0.7,18.1-1.4,24.8c0,0-0.2,20.1-0.4,21.1c0,0-1.8,3.2-5.4,0.7c0.5,1.2,1.8,1.8,3,1.4
			c1.2,0,2.3-0.6,2.8-1.7l0.4-21.8l3.2-25L125.9,351.2z"/>
		<path class="st66" d="M117.4,341c0,0-0.1,0.2,0.4,0.8s1.1,2.1,1.6,2.7s2.1,0.5,1.7,1.8c0,0,0.4-0.6-1.6-1.4
			C118.1,344.1,117.9,342.2,117.4,341z"/>
		<path class="st66" d="M144.7,332c-0.2-0.7-1-1-1.7-0.8c0,0-0.1,0-0.1,0.1c-0.9,0.3-1.8,0.2-2.6-0.3c0,0,0.4,1.2,2.4,0.9
			C143.3,331.5,144.1,331.5,144.7,332z"/>
		<path class="st66" d="M140.7,327.5c0,0-2.9,0.6-3.6,3c0.4,0.6,0.7,1.3,0.8,2c0.3,1.4,1.4,4.5,4.5,5.6c-2.2-1.3-3.7-3.5-4.1-6.1
			c-0.6-4.3,3.6-3.7,3.6-3.7L140.7,327.5z"/>
		<path class="st66" d="M144.2,333.8l-2.8,2C141.9,334.7,143,334,144.2,333.8z"/>
		<polygon class="st67" points="121.7,319.9 118.1,321.3 119,322.4 119,323.7 121.6,322 		"/>
		<path class="st66" d="M120.1,400.4c1,0.3,2.1,0.3,3.1,0l-0.2-1.5c0,0-0.7,0.5-2.8,0.3L120.1,400.4z"/>
		<path class="st66" d="M115.1,337.6c-0.8,1.2-2.1,2.1-3.5,2.4c0.3,0.8,0.6,1.7,0.9,2.6c0.5,1.4,1.3,2.6,2.4,3.5c0,0-2.6-3.4-2-4.9
			c0.6-1.2,1.7-1.9,3-2c0.6,0,1.2-0.1,1.8-0.2C116.9,338.5,116,338,115.1,337.6z"/>
		<path class="st66" d="M124.9,397.9l1,0.9c0,0,3-0.5,1.7-2.7C127.7,396.1,127.2,397.9,124.9,397.9z"/>
		<path class="st61" d="M371,329.3l0.5,10.8c3.4,0,2.6-5.1,2.6-5.1s-0.2,1.4,1.6,1.3s0.9-0.9,0.9-0.9c-0.6-1.2-0.7-3.3-1-4.6
			c-0.3-1-0.7-2-1.2-3C373.4,328.5,372.2,329,371,329.3z"/>
		<path class="st74" d="M370.7,299.9c0.1,1.7-0.1,3.3,0,5s0.2,3.3,0.3,5s0.2,3.2,0.3,4.9c0.2,1.7,0.3,3.3,0.3,5l0.3,5
			c0.1,1.7,0.2,3.3,0.2,5c-0.3-1.7-0.4-3.3-0.6-5l-0.5-5c-0.2-1.7-0.3-3.3-0.4-5s-0.3-3.3-0.4-5s-0.2-3.3-0.2-5s0.2-3.3,0.2-5
			s0-3.3,0-5s-0.1-3.3-0.1-5C370.5,293.2,370.7,296.5,370.7,299.9z"/>
		<path class="st74" d="M371.8,294.5c0,1,0,2-0.2,3c-0.1,0.5-0.2,1-0.3,1.5c-0.2,0.5-0.5,0.9-0.8,1.3h-0.1c-0.1-0.5-0.1-1.1,0-1.6
			c0.1-0.4,0.3-1,0.4-1.4L371.8,294.5z"/>
		<path class="st74" d="M371.7,325.7l-0.1-0.4c2.2-0.5,2.8-1.5,2.8-1.5C374,324.9,372.9,325.7,371.7,325.7z"/>
		<path class="st66" d="M376.8,335.7c0.1,0.3-0.5,0.5-0.5,0.5c-0.7,0.2-1.4,0.1-2-0.3c-0.3-0.3-0.6-0.7-0.8-1.1
			c-0.2-0.6-0.2-1.3,0.1-1.9c0,0.3,0,0.7,0.1,1c0.1,0.4,0.3,0.8,0.5,1.2c1.2,1.9,2.4,0.4,2.4,0.4L376.8,335.7z"/>
		<path class="st66" d="M373.6,333.4c-1,0.1-1.3-0.3-1.3-0.3v-0.9c0.2,0.7,1.3,0.6,1.3,0.6V333.4z"/>
		<path class="st75" d="M344.3,391.9c0,0-1.1,2.1-0.8,3s8.4,9.4,10.8,8.6s2.8-1.6,2.5-2.5s-5.3-7.8-5.3-7.8
			C348,395.8,344.3,391.9,344.3,391.9z"/>
		<path class="st76" d="M352.5,394.7c0,0-4.4,2.8-8.6-1.6l0.4-1.2c0,0,4.7,3.2,7.2,1.3L352.5,394.7z"/>
		<path class="st75" d="M358,385.5c0,0-1,2.4-0.7,3s8.5,8.4,10.3,8.3c1.4-0.1,2.6-1.2,2.9-2.6c0-0.9-5.2-6.8-5.2-6.8L358,385.5z"/>
		<path class="st76" d="M365.7,388.1c0,0-4.9,2.2-8.1-0.7l0.4-1.9c1.9,1.6,4.5,2.1,6.9,1.3L365.7,388.1z"/>
		<path class="st77" d="M366.7,329.4c-4.4,2.9-19.4,5.9-19.4,5.9c-0.3,3.1,0.3,36,0.3,36c0.7,5.2-3.5,18.9-3.5,18.9s-0.9,3,3.3,4.1
			s4.8-1.9,4.8-1.9s4.8-17.7,5.5-20.3s1.6-20.3,1.6-20.3c1.6,5.4,2.4,11.2,2.2,14.5s-4.4,18.3-4.4,18.3c1.2,3.9,5.7,3.5,7.1,3
			c1-0.3,1.7-1.3,1.5-2.4c0.6-2.6,5.2-17.8,5.2-19.8s-0.8-24.4-0.8-24.4C370.1,331.2,366.7,329.4,366.7,329.4z"/>
		<path class="st78" d="M352.6,288.4l-0.4,1.4c0.6,3.8,4.1,10,5,13.2s-0.3,12,0.3,17.1c0.3,3.7,0.1,7.5-0.6,11.2
			c4.5,0.2,9.8-3.8,9.8-3.8s0.3-3.2,0.3-5.1s-0.3-16.7,0-23.5s-2.3-9.8-2.3-9.8L352.6,288.4z"/>
		<path class="st79" d="M362.1,293.4l-1.7,2.1l1.5,2.1c0.5,0.4,1.1,0.3,1.5-0.2c0,0,0.1-0.1,0.1-0.1c0.7-1,1.3-2.7,1.1-2.9
			C363.8,293.9,363,293.6,362.1,293.4z"/>
		<path class="st79" d="M362.2,297.4c0,0-2.2,19-2.3,19.3c1,1.4,2,2.8,3.2,4.1c1-1.8,1.9-3.7,2.7-5.7c0.2-2.6-2.4-18.1-2.4-18.1
			L362.2,297.4z"/>
		<path class="st80" d="M353,285.9c-1.9,0.8-2.4,3.8-2.4,3.8s-5.8,4-7.4,6.3s-1,4.3-1.3,7.8s-2.4,12.5-2.3,17.2s2.9,14,2.9,14
			c-0.6,1.6-1.1,3.2-1.3,4.9c3.4,4,9.5,3.9,9.5,3.9c2.3,0.5,4.7,0.2,6.8-0.9c-0.2-1.9-0.1-3.8,0.1-5.7c0.4-2.5-0.6-5.8,0-9.9
			s0-11.5,0.3-18.6s-2.7-12.1-4.6-16s-0.3-5.1-0.3-5.1L353,285.9z"/>
		<path class="st80" d="M364.6,288.8c2.3,2.7,2.5,12,2.2,15.6s0,8.4,0,13.5s0.3,16.5,0.4,19s-0.6,5.2,0.1,5.6s1.5-0.4,2.9-1.3
			c0.9-0.7,1.7-1.6,2.2-2.7c0.2-2.6-0.3-9.1-0.3-9.1c0.6-0.2,2.3-1.1,2.4-1.6c0.1-1,0.2-2.1,0.1-3.1c0-1-0.3-1.6-0.4-3.5
			s-0.8-14.6-0.9-17.5s-0.1-15.3-0.1-15.3c-0.1-3-2.6-5.3-5.6-5.2c-0.1,0-0.2,0-0.3,0C366.2,285,365.3,286.8,364.6,288.8z"/>
		<path class="st81" d="M360.1,297.3c-3.1-2.1-5.8-4.6-8-7.6c0.1-1.7,0.7-2,0.7-2c2.7,2.5,5.9,4.4,9.4,5.7
			C361.4,294.6,360.7,295.9,360.1,297.3z"/>
		<path class="st81" d="M364.8,289.1c1,1.9,1.4,4.1,1.1,6.2c-1.3-0.4-2.5-1-3.6-1.7c0.7-0.9,1.1-2,1.1-3.2
			C363.9,290,364.4,289.6,364.8,289.1z"/>
		<path class="st61" d="M344.8,341.9c-0.8,1.2-1,5.5-0.6,7.1c0.5,1.7,1.5,3.1,3,4c1.7,1.2,2.3,0.2,2.4-0.3s-0.6-3-0.7-3.6
			c-0.2-0.9-0.7-3.5,0.3-3.4s0.4,2,0.6,3s1.4,0.7,1.6,0.3s0.1-0.9,0.4-1.7s-0.5-3.1-0.5-3.1c-0.8-2.6-1.5-3.2-1.5-3.2
			C348.6,342.5,346.5,342.8,344.8,341.9z"/>
		<path class="st82" d="M351.3,306c-0.2,0.8-0.3,1.6-0.5,2.4c-0.7,3-1.4,6.1-2,9.2c-0.2,0.8-0.3,1.5-0.3,2.3c0,0.8,0,1.6,0,2.4
			l0.2,4.8c0.2,3.1,0.3,6.4,0.5,9.5v-0.1c0.3,1.4,0.5,2.9,0.5,4.4v0.1l0,0c-0.3,0.6-1,1.1-1.7,1.2c-0.6,0.2-1.3,0.3-1.9,0.3
			c-0.6,0-1.3-0.2-1.8-0.6c-0.5-0.4-0.9-1-1-1.7l0,0c-0.4-2.2-0.9-4.4-1.3-6.5c0.6,2.2,1.1,4.3,1.7,6.4l0,0c0.2,0.6,0.5,1,1,1.4
			c0.5,0.3,1,0.4,1.6,0.4c0.6,0,1.2-0.1,1.7-0.3c0.3-0.1,0.5-0.2,0.8-0.3c0.2-0.1,0.4-0.3,0.5-0.5v0.1c-0.1-1.4-0.3-2.8-0.6-4.2l0,0
			c-0.3-3.1-0.4-6.4-0.6-9.5c-0.1-1.6-0.2-3.2-0.2-4.8V320c0.1-0.9,0.2-1.7,0.3-2.4c0.4-3.2,1.1-6.3,1.9-9.4c1-3.5,1.7-6,1-9.2
			C352.5,301.7,351.4,305.3,351.3,306z"/>
		<path class="st82" d="M348,337.8c-0.5,0.3-1,0.5-1.6,0.6c-0.6,0.1-1.2,0.1-1.7-0.1c-0.5-0.2-1-0.5-1.5-0.8c0.5,0,1,0.1,1.6,0.1
			c0.5,0,1,0,1.5-0.1c0.5-0.1,0.9-0.2,1.4-0.3c0.5-0.2,1-0.4,1.5-0.6C348.9,337.1,348.5,337.5,348,337.8z"/>
		<path class="st83" d="M366.9,330.9c-3,2.9-9.3,3.7-9.3,3.7l-0.3-3.8c6.3-0.9,9.3-4,9.3-4L366.9,330.9z"/>
		<path class="st84" d="M360.3,330.1l0.1,4.2c1.5-0.4,2.9-1,4.2-1.7c0.7-2.9-0.1-4.3-0.1-4.3C363.4,329.3,360.3,330.1,360.3,330.1z"
			/>
		<path class="st85" d="M362.9,343.2c-3.9,2.9-3.7,9.4-3.7,9.4v-2c-0.1-2.2,0.4-4.4,1.5-6.3l-2.6,0.7l4.2-2.8l1.7-7.2L362.9,343.2z"
			/>
		<ellipse class="st86" cx="363" cy="323.7" rx="0.5" ry="0.7"/>
		<path class="st82" d="M356.7,325.4c-0.1-1.1-0.2-2.3-0.3-3.3s-0.3-2.2-0.5-3.2c-0.4-2.2-1-4.3-1.6-6.4l-0.8-1.5l-0.1-0.4l-0.1-0.2
			v-0.3l0.3-0.9c0.3-1,0.7-2.1,1-3.1l0.3,0.5c-0.4-0.1-0.8-0.2-1.2-0.3c-0.2,0-0.4-0.2-0.6-0.3c-0.2-0.2-0.4-0.4-0.5-0.6
			c-0.1-0.4-0.2-0.9-0.1-1.3l0.1-1.1c0.1-1.5,0-3-0.5-4.4c-0.5-1.4-1.1-2.9-1.5-4.4c-0.3-1.5-0.4-3.1-0.2-4.6
			c-0.1,1.5,0.1,3,0.5,4.5c0.5,1.5,1,2.9,1.7,4.3c0.6,1.5,0.8,3,0.8,4.6v1.1c0,0.3,0,0.7,0.1,1c0.1,0.1,0.2,0.1,0.3,0.2
			c0.1,0.1,0.3,0.1,0.4,0.2c0.3,0.1,0.7,0.2,1,0.2h0.5l-0.2,0.5c-0.3,1-0.6,2.1-1,3.1c-0.1,0.2-0.1,0.5-0.2,0.7l0.2,0.6l0.4,1.6
			c0.6,2.1,1.1,4.3,1.5,6.4c0.2,1.1,0.3,2.2,0.3,3.3c0.1,1.1,0.1,2.2,0.2,3.3c0.1,2.2,0.2,4.4,0.3,6.5
			C357.1,329.7,356.8,327.5,356.7,325.4z"/>
		<path class="st61" d="M363.5,290.3c0.4-0.2,3.6-3.4,3.8-7.1c0.1-1,0-2-0.2-3c-0.1-0.5-0.1-1,0.1-1.5c0.1-0.5,0.2-0.9,0.1-1.4
			c0,0,0.3-3.5-0.7-4.4s-6.8-8.8-13.1-5.1c-1,0.9-1.5,2.3-1.3,3.7c0.1,0.3-0.2,7.6-0.2,7.6s-1.8-0.6-1.9,1.6s0.4,4.2,1,4.6
			s1.2,0.8,1.7,0.6l-0.2,1.9c2.6,2.6,5.8,4.5,9.3,5.7C362.8,292.7,363.4,291.5,363.5,290.3z"/>
		<path class="st22" d="M356.1,271.2c2.9,1.9,6.3,2.6,9.7,2.1c1.4,0,5-2.2,2.3-6.4c0,0-1.8-2.8-5.2-0.7c-1.6-0.6-3.5-2.3-5.7-1.7
			s-5.7,2.3-6.1,3.4c-0.2,0.8-0.2,1.6,0,2.4c0,0-1.3,0.4-1.3,2.6s0,6.4,0.4,7.8c0,0,0.5-2.2,2.4-1c0.7,0.8,1,1.8,1,2.8l0.1,1.6
			l1.6,0.7l-0.2-1.7c0-0.5,0.2-1,0.5-1.4c0.7-0.6,1.1-1.5,1.3-2.4c0.4-1.7-2.7-5.1-2.7-5.1C354.2,271.4,356.1,271.2,356.1,271.2z"/>
		<path class="st66" d="M362.3,293.4c0.1-1-0.1-1.7-0.6-2c-1-0.6-2.1-0.5-3.5-1.2c-3.4-1.7-3-3.9-3-3.9c0.6,1.2,1.6,2.3,2.8,3
			c3.6,2,5.4,1,5.4,1C363.4,291.4,363.1,292.5,362.3,293.4z"/>
		<path class="st66" d="M366.9,279.4c-1.9,1.5-4.1,2.6-6.5,3c-2.7,0.5-3-1-3-1s0.5,0.5,3,0.3c1.4-0.3,2.7-0.8,4-1.5
			c1.1-0.3,2.2-1,3-1.8C367.1,278.7,366.9,279,366.9,279.4z"/>
		<path class="st66" d="M352.8,287.8c1.2,1.1,2.4,2.1,3.7,3c-2.3-1.9-2.1-5.8-2.1-5.8c-0.3,0.1-0.5,0.6-0.7,0.7
			c-0.2,0.2-0.4,0.3-0.7,0.3L352.8,287.8z"/>
		<path class="st66" d="M352.7,282.2c0.3,0.6-0.4,0.8-0.7,0.6s-0.1-2.2-0.4-1.5s0.2,2.3,0.7,2.4s-0.1-0.8,0.5-0.7s0.6,0.8,0.6,0.8
			c0,0.5-0.5,0.9-1,0.9c-0.2,0-0.4-0.1-0.6-0.3c-0.7-0.6-1.2-3.7-0.3-4.1s1.7,1.1,1.7,1.1C352.9,281.4,352.6,281.6,352.7,282.2z"/>
		<path class="st82" d="M367,337.6c0,0-0.1-4.4,0-5.3c0.3-3.4,1.1-11.5,1.7-14.6c0.8-4.1-0.2-8.6-0.5-10.6s1.5-2.3,1.6-3.9
			s-1.4-6.1-1.4-6.1c-0.3-7.9-2.4-9.9-2.4-9.9l-1.4,2l1.4,3.5c1,4.4,0.4,11.5,0.3,15.2c-0.2,2.6-0.1,21.3,0.5,28.6L367,337.6z"/>
		<path class="st82" d="M353,285.9l-0.2,1.8c0,0-1.2,1.8,0.6,5.2c2.5,4.1,4,8.7,4.5,13.5c0.4,5.4-0.7,23.2-0.4,25.1
			c0,0-0.5-9.7-1.4-13.1s-2.5-8.2-2.1-8.9c0.4-1.1,0.7-2.2,0.9-3.3c0,0-1.6-0.5-1.8-1.2s0.3-4.6-0.7-6.7s-3-7.2-1.5-10.2
			C351,288.2,351.6,286.5,353,285.9z"/>
		<path class="st82" d="M372.3,290.7c0,0-0.9,3.3-1.2,4.9c0,0,0.7,30.9,1,33.8c0,0-1.6-16.7-1.6-33.2c0.1-1.5,0-2.9-0.1-4.4l0.5,2.3
			C371.5,293,371.9,291.9,372.3,290.7z"/>
		<path class="st82" d="M350.6,302c0,0,0.8,3.5,0.1,5.8l-0.5,1.4C350.2,306.8,350.3,304.4,350.6,302z"/>
		<path class="st85" d="M362.3,342.2l4-1.5c-1.4,1.2-2.8,2.2-4.4,3L362.3,342.2z"/>
		<path class="st86" d="M366.4,327.2c0,0-2.6,2.8-9.1,3.6c0,0,0.7-19.1,0.7-20.6s0.3-7.6-2.8-13.8s-2.5-5.5-2.7-6.2
			c0,0,3.6,4.9,7.6,7.2l0.6-1.4c0.4,0.7,0.9,1.3,1.5,1.9l-1.2-0.6l-0.8,1.4c-1.7-1.1-3.4-2.3-5-3.6c0,0,3,1.5,3.6,12.2
			c0.5,7.1,0.2,14.2-0.7,21.3c0,0-0.1,0.7-0.3,1.5c6.2-0.5,8.7-3.9,8.7-3.9L366.4,327.2z"/>
		<path class="st66" d="M364.6,282.1c0,0,1,2.8,0.3,4.1c0,0-0.3,0.4-1.3,0.4s-1.1-0.3-1.1-0.3c0.8,0,1.5-0.3,2.1-0.8V282.1z"/>
		<path class="st86" d="M365.8,291.8c0,0,0.9,1,0.9,8.2l-0.3,26.7l-0.6,0.7c0,0,0.5-20.2,0.2-23.2s-0.3-8.2-0.3-8.2l-1.2-0.8
			l0.1-0.5l1.2,0.6C365.8,295.4,366.3,294.5,365.8,291.8z"/>
		<path class="st66" d="M344.8,341.9c0,0,2.3,1.7,5-1c0,0,0.9,0.6,2,5.1c0,0-1.4-4-2.3-3.2c-1.5,1.1-3.4,1.3-5.1,0.5
			C344.4,342.8,344.5,342.3,344.8,341.9z"/>
		<path class="st66" d="M374.5,327.8c-0.6,0.8-1.4,1.3-2.4,1.6v0.8c1-0.4,2-0.9,2.9-1.4L374.5,327.8z"/>
		<path class="st9" d="M205.5,317.6c-0.9,2.7-1.3,5.6-1,8.4c0,0,0.9,4.1,4.1,4.6c0,0-0.5-6.6,0.5-8.3s-0.5-3.9-0.5-3.9L205.5,317.6z
			"/>
		<path class="st87" d="M205.2,318.4c1,1.1,2.7,1.4,4.1,0.7v0.9l-1.4,1.8c0,0,0.1-1-1.3-1.2c-0.7-0.1-1.3-0.2-2-0.4
			C204.6,320.2,205,318.9,205.2,318.4z"/>
		<path class="st87" d="M206.6,321.7c-0.1,1.5-0.2,3-0.1,4.5c0.2,0.9,1.2,0.7,1.3-0.3c0-1,0.1-2,0.4-2.9c0.3-0.4,0.5-0.8,0.6-1.3
			c0,0,0.4,0.4-0.5,1.9l-0.2,2.3c0,0-0.1,1.2-1,1.1s-1-1.3-1-2C206.2,324.6,206.1,321.5,206.6,321.7z"/>
		<path class="st88" d="M220,377.7c0,0-3.4,3-4.9,4.6s-0.1,3.6,2.4,2.6c2.9-1.2,5.6-2.7,8.1-4.6l0.3,1c0,0,0.7,0.6,0.9-0.6
			s1-4.9-0.2-5.9C226.6,374.9,223.8,379.1,220,377.7z"/>
		<path class="st9" d="M221.4,357.5c0,0,1.2,14.4,0.3,17c-0.6,1.6-1.5,3.1-2.7,4.4c0,0-2.3,2.5,0.7,1.9c2.6-0.6,5-2,6.7-4.1
			c0.8-1.2-0.6-2.7,0.2-6s2.8-8.9,3-13.9L221.4,357.5z"/>
		<path class="st87" d="M221.6,359.6c0,0,5.2,0.9,7.9-0.9l0.3-2.1l-8.4,0.9L221.6,359.6z"/>
		<path class="st88" d="M209.3,372.2c-1.8,1.3-3.5,2.9-4.9,4.6c-1.3,1.8-0.1,3.6,2.4,2.6c2.9-1.2,5.6-2.8,8.1-4.6l0.3,1
			c0,0,0.7,0.6,0.9-0.6s1-4.9-0.2-5.9C216,369.4,213.1,373.7,209.3,372.2z"/>
		<path class="st9" d="M210.7,352.1c0,0,1.2,14.4,0.3,17c-0.6,1.6-1.5,3.1-2.7,4.4c0,0-2.3,2.5,0.7,1.9c2.6-0.6,5-2,6.7-4.1
			c0.8-1.2-0.6-2.7,0.2-6s2.8-8.9,3-13.9L210.7,352.1z"/>
		<path class="st87" d="M211,356.5c0,0,2.9,3.2,6.7,2.1l0.4-1.4l-7.3-2.8L211,356.5z"/>
		<path class="st89" d="M210,318.9c-1.4,1-2.3,2.6-2.5,4.3c-0.3,2.8-1.9,24.2-1.9,24.2c-0.5,1.2-0.4,2.5,0.4,3.5
			c1.2,1.8,11,10.2,23.3,6.5c0,0,6.9-2.2,7.3-7l-2.1-22.2L210,318.9z"/>
		<path class="st9" d="M231.6,290.5c0,0-4.2-1.4-6.4,4.9c-1,1.7-1.4,3.6-1.3,5.5c0,0,9.9,1.5,10.6-5.2
			C234.5,295.8,234,291.3,231.6,290.5z"/>
		<polygon class="st90" points="225.8,342.7 225.1,353.1 240.4,344.9 240.6,334.8 		"/>
		<path class="st87" d="M227.8,296.7l1.1,4.7l0.4-0.1C229.3,301.3,229.1,297.7,227.8,296.7z"/>
		<path class="st91" d="M210.9,272.3c0,0,0.7,4.1,0,6.7s-0.8,4.7,2.2,5.6l1.6,0.2c0,0-1.5-9.8-0.8-13.1
			C213.9,271.7,211,269.5,210.9,272.3z"/>
		<path class="st9" d="M229.5,331.2c-0.9,1.2-1.3,2.7-1.3,4.2c0,1.8-0.2,3.6-0.6,5.3c0,0,0.1,0.7,1.1,0.3s1-1.5,1.1-2.5
			c0-0.5,0.1-1,0.2-1.5c0.2,1.6,0.2,3.2,0,4.8c-0.4,2.2,1.9,1.4,3.1,0.4s2.7-6.2,1.5-9.9C234.6,332.1,231.1,332.5,229.5,331.2z"/>
		<path class="st87" d="M229.4,331.4c0,0,3.2,1.6,5.2,0.7c0.3,0.7,0.4,1.5,0.4,2.3c-0.4-0.9-1.4-1.3-2.3-1.1
			c-2.7,0.2-3.6,0.3-3.8,2.3c-0.1,1.7-0.5,3.3-1.2,4.8c0,0,0.5-4.5,0.4-5.4S228.6,331.7,229.4,331.4z"/>
		<path class="st91" d="M211,272.6c-0.6-3.6,1.4-7.1,4.8-8.5c0,0,4-2.2,6.7-1.5s7.4,2.3,8,5.8s-0.8,5.5,1,9.8s4,8.7,0.1,12.4
			c0,0-4-1.4-5.1-2.3c-2.1-1.9-1.6-3.5-1.8-5.4c-1.3-1.4-2.1-3.2-2.2-5.1v-3C222.6,274.8,214.1,277,211,272.6z"/>
		<path class="st92" d="M212.5,282.1c0,0-5,1.1-5.8,7.5s-1.5,15.4-2,18.1s-2.4,7.9,0,10.3s4.4,1,4.4,1l-0.6-0.7c0,0,1.7,3.7,4.7,4.6
			s4.2,0.8,7.4,4.2s6.6,3.2,8.7,2.1c-0.1,0.4-0.2,0.9-0.2,1.3c0,0.4-0.5,1.1,2.2,1.7s4.3-0.4,4.5-1.4s2.1-10.8,2.5-12.6s1-2.6,0-8.6
			c-1-5.4-2.5-10.8-4.4-16c0.6,1.6,0.2,3.3-0.9,4.6c-1.9,1.9-8.4,2.6-9.8,2.3c-2.3-0.6-8.8-2.3-9.9-12c-0.2-1.1,0-2.2,0.5-3.1
			C213.2,284.4,212.7,283.3,212.5,282.1z"/>
		<path class="st9" d="M224.8,283.2c-0.2,1.9,0.6,3.7,2.1,4.8c0,0,1.2,0.7,1.5,0.8c-2.7,3.6-5.2,7.4-7.4,11.3
			c-3.5-1.4-6.1-4.3-7.1-7.9c0,0-1.6-4.1-0.1-6.9c0,0,3.5,2.6,6.6,1.6s4.1-4.4,4.1-4.4L224.8,283.2z"/>
		<path class="st87" d="M213.7,285.4c-0.4,2.6-0.1,5.3,0.9,7.8c0,0,1.6,5,5.1,6.3l-1.8-1.5l0.3-1.1l-0.9,0.5c0,0-4-6.9-3.2-11.5
			L213.7,285.4z"/>
		<path class="st9" d="M212,273.7c-0.1,2.8,0.1,5.7,0.5,8.5c0.7,3.1,2.3,5.5,5.7,5.5c2.9,0,5.7-0.9,6.4-4.5c0.6,0.4,1.4,0.3,1.8-0.3
			c0,0,0.1-0.1,0.1-0.1c0.1-0.2,0.1-0.4,0-0.6c0,0-3.3-1.8-3.5-4.1c-0.1-1.3-0.1-2.5,0.1-3.8C223.1,274.3,215.9,276.9,212,273.7z"/>
		<path class="st93" d="M224.2,300.7c0-1.4,0.2-2.7,0.6-4c2.3-7.1,6.8-6.2,6.8-6.2c-0.8-1.9-3.2-1.7-3.2-1.7
			c-1.3,0.4-2.4,1.2-3.4,2.1c-3.4,3.2-2.1,8.3-5.3,8.5C219.7,299.5,223.5,301,224.2,300.7z"/>
		<path class="st87" d="M213.9,285.5c1.5,1.8,3.9,2.5,6.1,2c1.5-0.3,2.9-1.1,3.8-2.3c-0.7,1.9-2.6,3.1-4.6,3
			C216.1,288.2,215.1,287,213.9,285.5z"/>
		<path class="st87" d="M224.9,286.8c0.7,0.9,1.7,1.5,2.8,1.7c-2.4-1.5-1.9-5.3-1.9-5.3c-0.3,0.2-0.7,0.2-1,0c0,0.3-0.2-0.8-0.8,1.2
			c0,0,0,2.1-4.4,3.7C221.4,287.8,223.2,287.4,224.9,286.8z"/>
		<path class="st94" d="M230.2,339l-5.9,3.2l-0.7,10.4l1.5,0.6l0.7-10.4l4.4-2.3C230.3,340,230.3,339.5,230.2,339z"/>
		<polygon class="st94" points="235,336.4 234.8,337.9 240.6,334.8 239.2,334.1 		"/>
		<path class="st95" d="M210,291.2c0.5,1.9,0.3,3.9-0.4,5.7c-1.2,2.7-2.2,7.4,1.6,9.9c0,0-4.8-1.9-2.8-8.5
			C209.6,295.1,209.9,294.5,210,291.2z"/>
		<path class="st95" d="M213.7,285.4c0,0-1.9,8.4,6.3,14.3C220,299.7,210.3,294.7,213.7,285.4z"/>
		<path class="st95" d="M212.6,295.1c0,0,2.6,11.6,12,12.8C224.7,307.9,214.4,307,212.6,295.1z"/>
		<path class="st95" d="M215,295.2c0,0,1.5,10.3,10.7,8.9c0,0-7.9,0.8-10.1-8.1L215,295.2z"/>
		<path class="st95" d="M215.8,296.4c0,0,2.8,5.2,7,5.9c0,0-4.5-0.1-7.1-5.3L215.8,296.4z"/>
		<path class="st95" d="M210,306.2c0,0,1.5,4.9,1,7.2l-0.9-4.9c-0.1,2.8-0.5,5.6-1,8.4c-0.3,1-0.1,2.1,0.5,3c0,0-0.6,0-1-1
			c0-1.2,0.1-2.3,0.3-3.5c0.4-2.1,1.1-9,0.7-9.7L210,306.2z"/>
		<path class="st95" d="M214.4,312.2c0,0,5.7,10,13.4,5.1C227.8,317.3,221.7,321,214.4,312.2z"/>
		<path class="st95" d="M230.1,302.3c0,0,1.4,9.7,1.5,11.4s-1.9,14.6-1.9,15.8s0.7,2.2,2.9,2.3s2.2-0.2,3-1.1c0,0-0.2,1.8-3,1.5
			c0,0-3.1,0.1-3.6-1.2c0,0-0.3-0.5,0.3-2.9c0.9-4.7,1.5-9.5,1.9-14.3C231.3,313.9,229.2,302.8,230.1,302.3z"/>
		<path class="st95" d="M230.6,309.3c0,0,0.5,5.7-3.4,6.8c0,0,3.4-1,3.7-5.5L230.6,309.3z"/>
		<path class="st95" d="M232,308.3c0,0,2.9,2.8,4.3-0.4C236.3,307.8,235.4,312.1,232,308.3z"/>
		<path class="st95" d="M236.4,308.7c0,0-0.9,4.1-3.5,2.7c0,0,2.2,0.8,3.4-3.3L236.4,308.7z"/>
		<path class="st95" d="M236.8,316.4c0,0-1.1,4.1-4.2,4.7c1.5-0.2,2.8-1.1,3.4-2.4c0,0-1,4.1-3.5,4.2
			C232.4,323,235.9,323.1,236.8,316.4z"/>
		<path class="st95" d="M216.4,322.5c1.7,1,3,2.3,4,4c2.1,3.2,6.8,3.4,6.8,3.4c-3.1,0.3-6.1-1.2-7.7-3.8c-2.8-4.5-3.5-3.7-3.5-3.7"
			/>
		<path class="st95" d="M205.7,304.3c0,0-0.2,4.2,2.9,4.4C208.7,308.7,206.6,308.1,205.7,304.3z"/>
		<path class="st87" d="M212.5,277.5c0,0,2.6,3,8.9,2.1C221.4,279.6,214.2,281.7,212.5,277.5z"/>
		<path class="st87" d="M215,280.3l-0.1,2.6c0,0,0.5,0.9,2.1,0.7l0.2-0.3c-0.7,0.1-1.4-0.1-1.9-0.5
			C215.2,282.7,215.5,279.6,215,280.3z"/>
		<path class="st87" d="M229.4,335.3c0.1,0.6,0.3,1.2,0.6,1.7c0.5,1.1,0.1,4.2,0.1,4.2s-0.5,2,0.6,1.9c0,0-0.7-0.1-0.3-1.9
			S230.9,336.5,229.4,335.3z"/>
		<polygon class="st87" points="227.3,298.1 228.6,299.6 228.4,298.6 		"/>
		<path class="st87" d="M231.6,290.5c0,0-6.5-0.9-7.4,10.1c1.4,0,2.9-0.2,4.3-0.5l-3.6-0.1C224.9,300.2,225,291.6,231.6,290.5z"/>
		<polygon class="st87" points="215.8,287.1 216.2,288.7 216.7,288.8 216.8,287.8 		"/>
		<polygon class="st90" points="230.1,340 225.4,342.6 224.8,353 225.2,342.4 230.2,339.8 		"/>
		<polygon class="st90" points="229.9,339.5 224.8,342.4 224.2,352.8 223.8,352.5 224.6,342.2 230.1,339.2 		"/>
		<polygon class="st90" points="235.1,336.6 239.5,334.5 239.7,334.6 235,337 		"/>
		<polygon class="st90" points="235.1,337.3 240,334.8 235.1,337.6 		"/>
		<path class="st96" d="M211.5,331.7c0,0,1.4,17.8,7.5,19.7C214.7,345.7,212.1,338.8,211.5,331.7z"/>
		<path class="st97" d="M209.3,372.2c0,0-6.2,4.1-5.5,6.5s5.3,0.8,11.1-3.9c0,0-7.6,6-10.4,4.1C204.6,379,202.5,377.5,209.3,372.2z"
			/>
		<path class="st97" d="M220,377.8c0,0-6.2,4.1-5.5,6.5s5.3,0.8,11.1-3.9c0,0-7.9,5.7-10.4,4.1C215.2,384.5,213.2,383.2,220,377.8z"
			/>
		<path class="st98" d="M375.8,435c-0.9,2.7-1.3,5.6-1,8.4c0,0,0.9,4.1,4.1,4.6c0,0-0.5-6.6,0.5-8.3s-0.5-3.9-0.5-3.9L375.8,435z"/>
		<path class="st87" d="M375.5,435.8c1,1.1,2.7,1.4,4.1,0.7v0.9l-1.4,1.8c0,0,0.1-1-1.3-1.2c-0.7-0.1-1.3-0.2-2-0.4
			C375.1,437,375.3,436.4,375.5,435.8z"/>
		<path class="st99" d="M376.9,439.1c-0.1,1.5-0.2,3-0.1,4.5c0.2,0.9,1.2,0.7,1.3-0.3c0-1,0.1-2,0.4-2.9c0.3-0.4,0.5-0.8,0.6-1.3
			c0,0,0.4,0.4-0.5,1.9l-0.2,2.3c0,0-0.1,1.2-1,1.1s-1-1.3-1-2C376.5,442,376.5,438.9,376.9,439.1z"/>
		<path class="st75" d="M390.3,495.1c0,0-3.4,3-4.9,4.6s-0.1,3.6,2.4,2.6c2.9-1.2,5.6-2.7,8.1-4.6l0.3,1c0,0,0.7,0.6,0.9-0.6
			s1-4.9-0.2-5.9C396.9,492.2,394.1,496.5,390.3,495.1z"/>
		<path class="st98" d="M391.7,474.9c0,0,1.2,14.4,0.3,17c-0.6,1.6-1.5,3.1-2.7,4.4c0,0-2.3,2.5,0.7,1.9c2.6-0.6,5-2,6.7-4.1
			c0.8-1.2-0.6-2.7,0.2-6s2.8-8.9,3-13.9L391.7,474.9z"/>
		<path class="st99" d="M391.9,477c0,0,5.2,0.9,7.9-0.9l0.3-2.1l-8.4,0.9L391.9,477z"/>
		<path class="st75" d="M379.7,489.6c-1.8,1.3-3.5,2.9-4.9,4.6c-1.3,1.8-0.1,3.6,2.4,2.6c2.9-1.2,5.6-2.7,8.1-4.6l0.3,1
			c0,0,0.7,0.6,0.9-0.6s1-4.9-0.2-5.9C386.3,486.8,383.4,491.1,379.7,489.6z"/>
		<path class="st98" d="M381,469.4c0,0,1.2,14.4,0.3,17c-0.6,1.6-1.5,3.1-2.7,4.4c0,0-2.3,2.5,0.7,1.9c2.6-0.6,5-2,6.7-4.1
			c0.8-1.2-0.6-2.7,0.2-6s2.8-8.9,3-13.9L381,469.4z"/>
		<path class="st99" d="M381.3,473.9c0,0,2.9,3.2,6.7,2.1l0.4-1.4l-7.3-2.8L381.3,473.9z"/>
		<path class="st100" d="M380.3,436.3c-1.4,1-2.3,2.6-2.5,4.3c-0.3,2.8-1.9,24.2-1.9,24.2c-0.5,1.2-0.4,2.5,0.4,3.5
			c1.2,1.8,11,10.2,23.3,6.5c0,0,6.9-2.2,7.3-7l-2.1-22.2L380.3,436.3z"/>
		<path class="st98" d="M401.9,407.9c0,0-4.2-1.4-6.4,4.9c-1,1.7-1.4,3.6-1.3,5.5c0,0,9.9,1.5,10.6-5.2
			C404.8,413.2,404.3,408.7,401.9,407.9z"/>
		<polygon class="st90" points="396.1,460.1 395.4,470.5 410.7,462.3 410.9,452.2 		"/>
		<path class="st99" d="M398.1,414.1l1.1,4.7l0.4-0.1C399.7,418.7,399.4,415,398.1,414.1z"/>
		<path class="st101" d="M381.3,389.7c0,0,0.7,4.1,0,6.7s-0.8,4.7,2.2,5.6l1.6,0.2c0,0-1.5-9.8-0.8-13.1
			C384.2,389.1,381.3,386.9,381.3,389.7z"/>
		<path class="st98" d="M399.8,448.5c-0.9,1.2-1.3,2.7-1.3,4.2c0,1.8-0.2,3.6-0.6,5.3c0,0,0.1,0.7,1.1,0.3s1-1.5,1.1-2.5
			s0.2-1.5,0.2-1.5c0.2,1.6,0.2,3.2,0,4.8c-0.4,2.2,1.9,1.4,3.1,0.4s2.7-6.2,1.5-9.9C404.9,449.5,401.4,449.9,399.8,448.5z"/>
		<path class="st99" d="M399.7,448.7c0,0,3.2,1.6,5.2,0.7c0.3,0.7,0.4,1.5,0.4,2.3c-0.4-0.8-1.3-1.3-2.2-1.1
			c-2.7,0.2-3.6,0.3-3.8,2.3c-0.1,1.7-0.5,3.3-1.2,4.8c0,0,0.5-4.5,0.4-5.4S398.9,449.1,399.7,448.7z"/>
		<path class="st101" d="M381.3,390c-0.6-3.6,1.4-7.1,4.8-8.5c0,0,4-2.2,6.7-1.5s7.4,2.3,8,5.8s-0.8,5.5,1,9.8s4,8.7,0.1,12.4
			c0,0-4-1.4-5.1-2.3c-2.1-1.9-1.6-3.5-1.8-5.4c-1.3-1.4-2.1-3.2-2.2-5.1v-2.8C392.9,392.2,384.4,394.4,381.3,390z"/>
		<path class="st102" d="M382.8,399.5c0,0-5,1.1-5.8,7.5s-1.5,15.4-2,18.1s-2.4,7.9,0,10.3s4.4,1,4.4,1l-0.6-0.7
			c0,0,1.7,3.7,4.7,4.6s4.2,0.8,7.4,4.2s6.6,3.2,8.7,2.1c-0.1,0.4-0.2,0.9-0.2,1.3c0,0.4-0.5,1.1,2.2,1.7s4.3-0.4,4.5-1.4
			s2.1-10.8,2.5-12.6s1-2.6,0-8.6c-1-5.4-2.5-10.8-4.4-16c0.6,1.6,0.2,3.3-0.9,4.6c-1.9,2-8.4,2.6-9.8,2.3c-2.3-0.6-8.8-2.3-9.9-12
			c-0.2-1.1,0-2.2,0.5-3.1C383.5,401.8,383.1,400.7,382.8,399.5z"/>
		<path class="st98" d="M395.2,400.6c-0.2,1.9,0.6,3.7,2.1,4.8c0,0,1.2,0.7,1.5,0.8c-2.7,3.6-5.2,7.4-7.4,11.3
			c-3.5-1.4-6.1-4.3-7.1-7.9c0,0-1.6-4.1-0.1-6.9c0,0,3.5,2.6,6.6,1.6s4.1-4.4,4.1-4.4L395.2,400.6z"/>
		<path class="st99" d="M384,402.8c-0.4,2.6-0.1,5.3,0.9,7.8c0,0,1.6,5,5.1,6.3l-1.8-1.5l0.3-1.1l-0.9,0.5c0,0-4-6.9-3.2-11.5
			L384,402.8z"/>
		<path class="st98" d="M382.3,391.1c-0.1,2.8,0.1,5.7,0.5,8.5c0.7,3.1,2.3,5.5,5.7,5.5c2.9,0,5.7-0.9,6.4-4.5
			c0.6,0.4,1.4,0.3,1.8-0.3c0,0,0.1-0.1,0.1-0.1c0.1-0.2,0.1-0.4,0-0.6c0,0-3.3-1.8-3.5-4.1c-0.1-1.3-0.1-2.5,0.1-3.8
			C393.4,391.7,386.2,394.3,382.3,391.1z"/>
		<path class="st103" d="M394.5,418.1c0-1.4,0.2-2.7,0.6-4c2.3-7.1,6.8-6.2,6.8-6.2c-0.8-1.9-3.2-1.7-3.2-1.7
			c-1.3,0.4-2.4,1.2-3.4,2.1c-3.4,3.2-2.1,8.3-5.3,8.5C390,416.9,393.8,418.4,394.5,418.1z"/>
		<path class="st99" d="M384.2,402.8c1.5,1.8,3.9,2.5,6.1,2c1.5-0.3,2.9-1.1,3.8-2.3c-0.7,1.9-2.6,3.1-4.6,3
			C386.4,405.6,385.4,404.4,384.2,402.8z"/>
		<path class="st99" d="M395.2,404.2c0.7,0.9,1.7,1.5,2.8,1.7c-2.4-1.5-1.9-5.3-1.9-5.3c-0.3,0.2-0.7,0.2-1,0c0,0.3-0.2-0.8-0.8,1.2
			c0,0,0,2.1-4.4,3.7C391.7,405.2,393.5,404.8,395.2,404.2z"/>
		<path class="st94" d="M400.5,456.3l-5.9,3.2l-0.7,10.4l1.5,0.6l0.7-10.4l4.4-2.3C400.6,457.3,400.6,456.8,400.5,456.3z"/>
		<polygon class="st94" points="405.3,453.8 405.1,455.3 410.9,452.2 409.5,451.5 		"/>
		<path class="st104" d="M380.3,408.6c0.5,1.9,0.3,3.9-0.4,5.7c-1.2,2.7-2.2,7.4,1.6,9.9c0,0-4.8-1.9-2.8-8.5
			C379.9,412.5,380.2,411.9,380.3,408.6z"/>
		<path class="st104" d="M384,402.8c0,0-1.9,8.4,6.3,14.3C390.3,417.1,380.6,412.1,384,402.8z"/>
		<path class="st104" d="M382.9,412.5c0,0,2.6,11.6,12,12.8C395,425.3,384.7,424.4,382.9,412.5z"/>
		<path class="st104" d="M385.3,412.6c0,0,1.5,10.3,10.7,8.9c0,0-7.9,0.8-10.1-8.1L385.3,412.6z"/>
		<path class="st104" d="M386.2,413.8c0,0,2.8,5.2,7,5.9c0,0-4.5-0.1-7.1-5.3L386.2,413.8z"/>
		<path class="st104" d="M380.3,423.6c0,0,1.5,4.9,1,7.2l-0.9-4.9c-0.1,2.8-0.5,5.6-1,8.4c-0.3,1-0.1,2.1,0.5,3c0,0-0.6,0-1-1
			c0-1.2,0.1-2.3,0.3-3.5c0.4-2.1,1.1-9,0.7-9.7L380.3,423.6z"/>
		<path class="st104" d="M384.7,429.6c0,0,5.7,10,13.4,5.1C398.1,434.6,392,438.3,384.7,429.6z"/>
		<path class="st104" d="M400.4,419.7c0,0,1.4,9.7,1.5,11.4s-1.9,14.6-1.9,15.8s0.7,2.2,2.9,2.3s2.2-0.2,3-1.1c0,0-0.2,1.8-3,1.5
			c0,0-3.1,0.1-3.6-1.2c0,0-0.3-0.5,0.3-2.9c0.9-4.7,1.5-9.5,1.9-14.3C401.6,431.3,399.5,420.2,400.4,419.7z"/>
		<path class="st104" d="M400.9,426.7c0,0,2,5.8-3.4,6.8c0,0,3.4-1,3.7-5.5L400.9,426.7z"/>
		<path class="st104" d="M402.3,425.7c0,0,2.9,2.8,4.3-0.4C406.6,425.2,405.7,429.5,402.3,425.7z"/>
		<path class="st104" d="M406.7,426c0,0-0.9,4.1-3.5,2.7c0,0,2.2,0.8,3.4-3.3L406.7,426z"/>
		<path class="st104" d="M407.1,433.8c0,0-1.1,4.1-4.2,4.7c1.5-0.2,2.8-1.1,3.4-2.4c0,0-1,4.1-3.5,4.2
			C402.8,440.4,406.2,440.5,407.1,433.8z"/>
		<path class="st104" d="M386.7,439.9c1.7,1,3,2.3,4,4c2.1,3.2,6.8,3.4,6.8,3.4c-3.1,0.3-6.1-1.2-7.7-3.8c-2.8-4.5-3.5-3.7-3.5-3.7"
			/>
		<path class="st104" d="M376,421.7c0,0-0.2,4.2,2.9,4.4C379,426,376.9,425.5,376,421.7z"/>
		<path class="st99" d="M382.8,394.9c0,0,2.6,3,8.9,2.1C391.7,397,384.5,399,382.8,394.9z"/>
		<path class="st99" d="M385.3,397.7l-0.1,2.6c0,0,0.5,0.9,2.1,0.7l0.2-0.3c-0.7,0.1-1.4-0.1-1.9-0.5
			C385.6,400.1,385.8,397,385.3,397.7z"/>
		<path class="st99" d="M399.7,452.7c0.1,0.6,0.3,1.2,0.6,1.7c0.5,1.1,0.1,4.2,0.1,4.2s-0.5,2,0.6,1.9c0,0-0.7-0.1-0.3-1.9
			S401.2,453.8,399.7,452.7z"/>
		<polygon class="st99" points="397.6,415.5 398.9,417 398.7,416 		"/>
		<path class="st99" d="M401.9,407.9c0,0-6.5-0.9-7.4,10.1c1.4,0,2.9-0.2,4.3-0.5l-3.6-0.1C395.2,417.5,395.3,408.9,401.9,407.9z"/>
		<polygon class="st99" points="386.1,404.5 386.5,406.1 387,406.2 387.1,405.2 		"/>
		<polygon class="st90" points="400.4,457.4 395.7,460 395.1,470.4 395.5,459.8 400.5,457.2 		"/>
		<polygon class="st90" points="400.2,456.9 395.1,459.8 394.5,470.2 394.2,469.9 394.9,459.6 400.4,456.6 		"/>
		<polygon class="st90" points="405.4,454 409.8,451.8 410.1,452 405.3,454.4 		"/>
		<polygon class="st90" points="405.4,454.6 410.3,452.2 405.4,455 		"/>
		<path class="st105" d="M381.9,449.1c0,0,1.4,17.8,7.5,19.7C385,463.1,382.4,456.3,381.9,449.1z"/>
		<path class="st76" d="M379.7,489.6c0,0-6.2,4.1-5.5,6.5s5.3,0.8,11.1-3.9c0,0-7.6,6-10.4,4.1C374.9,496.4,372.8,494.9,379.7,489.6
			z"/>
		<path class="st76" d="M390.3,495.2c0,0-6.2,4.1-5.5,6.5s5.3,0.8,11.1-3.9c0,0-7.9,5.7-10.4,4.1
			C385.5,501.9,383.5,500.6,390.3,495.2z"/>
		<g>
			<defs>
				<path id="SVGID_2_" d="M254.7,566.7c0,0,40,0,50-0.7l-4.7-30.7L280,516l-13.3,12.7L266,548l-12,9.3L254.7,566.7z"/>
			</defs>
			<clipPath id="SVGID_3_">
				<use xlink:href="#SVGID_2_"  style="overflow:visible;"/>
			</clipPath>
			<g class="st106">
				<path class="st9" d="M292.1,571c-0.1,3.2,0,6.5,0.4,9.7c0.4,3.7-0.6,13.5-0.6,14.2c1.2,0.8,2,2,2.2,3.4c0.3,2.2,0.5,4.2-0.3,4.6
					s-1.1,0.3-1.1,0.3s0.2,4-2.9,3.6l-1.6-10l0.1-24L292.1,571z"/>
				<path class="st10" d="M289.8,597.6c0.8,0.8,1.8,1.5,2.9,1.8c0,0,0.1,3,0.7,3.5c0,0-0.7,1-1.2-2.9
					C292.1,600.2,290.2,599.7,289.8,597.6z"/>
				<path class="st107" d="M271.3,550.2c-1.3,0.2-2.6,0.8-3.6,1.7c-2.1,1.6-5.2,1.6-7,3.7s-2,5.2-2.4,9s-3.6,4.6-1.2,13.8
					c0,0,0.8,3.7,1.1,6s1.7,5.2,5.3,5.5l17.3-29.9L271.3,550.2z"/>
				<path class="st108" d="M264.9,661.3c-0.7,0.2-1.2,0.9-1.2,1.7c0.1,1.3,1.7,2.9,3,4.2c1.7,1.7,4.1,3.8,5.9,4.3s4.6-0.9,3.6-3
					l-7.3-7.1h-4V661.3z"/>
				<path class="st108" d="M278.1,654c-1,0.2-1.7,1.1-1.7,2.1c0,0-0.1,0.6,1.4,2c2,1.9,3.8,3,5.1,4.2c1.1,1.1,3.2,2.6,5.1,2.3
					s3-2.2,1.8-3.5C289.7,661.1,280.6,652.9,278.1,654z"/>
				<path class="st9" d="M277.9,653.3c0,0-1.6,1.9,0.6,3.9l7.6,5.9c0,0,1.8,0.7,2.8-0.3c1.3-1.3,1.6-2.4-0.6-4.5l-3.5-3.9
					C284.7,654.4,279.9,650.8,277.9,653.3z"/>
				<path class="st9" d="M265.3,659.8c0,0-1.5,1.9-0.4,3.2s5,6.4,7.6,7s4.8-1,3.3-3l-5.1-6.5l-4.8-0.4"/>
				<path class="st109" d="M289.9,609.5c0,0,0.8,22.4,0.8,24.4s-4.6,17.2-5.2,19.8c0.1,1.1-0.5,2.1-1.5,2.4c-1.5,0.4-5.9,0.9-7.1-3
					c0,0,4.2-15,4.4-18.3s-0.6-9.1-2.2-14.5c0,0-0.9,17.7-1.6,20.3s-5.5,20.3-5.5,20.3s-0.6,3-4.8,1.9s-3.3-4.1-3.3-4.1
					s4.5-15.6,4.5-25.1c0,0-1.6-32.2-1.3-35.5c0,0,17.1,1.2,21.4-1.7C288.4,596.4,289.8,599.6,289.9,609.5z"/>
				<path class="st110" d="M283.8,603.3l-1.7,7.2l-4.2,2.8l2.6-0.7c-1.1,1.9-1.6,4.1-1.5,6.3v2c0,0-0.3-6.5,3.7-9.4L283.8,603.3z"/>
				<path class="st111" d="M265.7,582.3l-0.3,15.4c0,0,2.8,5.8,11.8,4.7c0,0,8.5-1.2,11.6-6.7c0,0,0.9-19.7,0.8-22.4L265.7,582.3z"
					/>
				<path class="st111" d="M271.4,557.6l0.8-1.1c0,0-1.4-0.6-4.9,2.7l-3.4,3c0,0-1.9,1.6-1.9,6.8c-0.1,4.2-0.7,8.4-1.7,12.5
					c0,0.5,3.3,4.5,8,2.4c0,0,14.5,0.2,20.9-5l0.3-5.8c0,0,1.7,0.6,3-2.4l-0.7-13.5c0,0-0.6-7.3-5.4-7.2L271.4,557.6z"/>
				<path class="st9" d="M261.8,581.5c0,0-1.3,4.1,0.3,13.7c0,0,3.2,12.6,2.8,14.6c1.6,0.7,3.4,0.3,4.5-1c0,0-1.9-14.1-1.7-18.9
					s0.2-7.2,0.2-7.2S266.6,578.9,261.8,581.5z"/>
				<path class="st9" d="M272.2,546.2c0,0-1.7-0.3-1.6,1.1s0.5,4.2,1,4.9c0.4,0.4,1,0.7,1.6,0.6c0.2,1.1,0.1,2.2-0.3,3.2l-1.3,1.6
					c1.8,1,3.3,2.6,4.2,4.5c1.1,2.9,1.7,4.2,3,4s1.1-0.1,1.1-0.1l1.6,4.9l0.7-5.9c0.9-0.6,1.5-1.5,1.6-2.6c0.3-1.9-1-6.1-1-6.1
					L272.2,546.2z"/>
				<path class="st9" d="M286.2,537.5c0,0,1.3-0.7,1.1,3.6c0,0,0.3,4.8-0.1,5.7c-0.2,0.3-0.3,0.8-0.5,1.1c-0.3,0.5-0.3,1-0.2,1.5
					c0.3,0.5,0.3,1.2,0,1.7l-1.9,5.1c-0.2,0.4-0.5,0.8-0.9,1l-1.3,0.8c-0.5,0.3-1.2,0.4-1.8,0.3c-2.3-0.4-4.2-1.9-5.2-4l-1.7-1.8
					c0,0-0.9,1.3-2.2-0.3s-1.2-4.9-0.8-6.4C271.3,544.2,276.7,531.3,286.2,537.5z"/>
				<path class="st101" d="M279.9,546.6c0,0,7.9-1.6,7.2-7.1l0.2,3.3c0,0,1.6,0.3,1.3-3.9c0-1.9-1.4-3.4-3.2-3.7
					c0,0-0.9-2.1-4.1-2.3c0,0-3.6-1.9-6.3,0.5c-1,0-2,0.5-2.6,1.3c-1.2,0.4-2.2,1.3-2.8,2.5c-0.9,1.6-0.3,2-1,3.1c0,0-1.5,2,0.5,7.1
					c0.5,3.2,1.8,3.1,1.8,3.1s-1-4.5,0.8-4c0,0,1.6,0.3,1.7,1.3s-0.2,2.8,0.6,3.3l1.1,0.4c0,0-0.3-2.2,0.6-2.9
					c1.4-0.9,1.8-2.8,1-4.2c0,0-1.7-3.3-0.1-3.7c0,0-0.9,0.9,0.2,2.6c0.8,1.1,1.1,2.4,0.9,3.7c0,0,1.4-0.7,0.6-2.8s1.2-4,1.2-4
					s-1.5,1.4-1,2.9s0.8,3.1-0.2,4.1c0,0,1.2-0.2,1.7-2.8c0.3-1.5,1.1-2.8,2.4-3.7c-1,0.7-1.7,1.8-2,3
					C280.5,545.3,280.6,546.2,279.9,546.6z"/>
				<polygon class="st112" points="273.5,547.9 280,549.8 279.9,550.5 273.7,548.6 				"/>
				<path class="st111" d="M260.5,581.5c0,0,1.6,4.1,8.7,2.3c0,0,1.4-7.2,1.7-9.2s1.9-6.6-0.1-8.5c0,0-5.3,2.4-8.3-0.3
					c-0.2,1.7-0.2,3.4,0,5.1C262.8,573.3,261.6,579.4,260.5,581.5z"/>
				<path class="st10" d="M278.7,548.8c0.9,0.2,1.9,0.2,2.8,0.1c2.1-0.6,4.1-1.4,6-2.4l-0.3,0.7c-1.8,0.8-3.6,1.5-5.5,2.1
					C280.1,549.6,279.3,548.8,278.7,548.8z"/>
				
					<ellipse transform="matrix(0.1829 -0.9831 0.9831 0.1829 -311.2352 726.9032)" class="st113" cx="281.7" cy="550.7" rx="2.1" ry="1.7"/>
				<ellipse class="st114" cx="281.7" cy="550.5" rx="1.8" ry="2.1"/>
				
					<ellipse transform="matrix(0.1829 -0.9831 0.9831 0.1829 -305.8105 730.8017)" class="st113" cx="286.8" cy="549.4" rx="2.1" ry="1.7"/>
				
					<ellipse transform="matrix(0.1829 -0.9831 0.9831 0.1829 -305.8105 730.8017)" class="st114" cx="286.8" cy="549.4" rx="2.1" ry="1.7"/>
				<path class="st114" d="M283.5,550c0,0,0.6-1.2,1.6-0.4"/>
				<path class="st10" d="M284.8,550c0.6,1.2,0.6,2.6,0.2,3.9l-1.2,0.6l-1.4-0.5l1.5,0.1l0.7-0.5C284.7,552.4,284.8,551.2,284.8,550
					z"/>
				<path class="st10" d="M275.4,554c0,0,2.2,3.7,5.9,4.2l1.6-0.5c0,0,2,2.7,1,5.5c0,0-0.1,1.2-1.9,1.8l-0.7,5.9l-0.2-6.2
					c0,0,3.1-1.3,1.7-5.2l-2,0.4C280.9,559.9,275,560.1,275.4,554z"/>
				<path class="st10" d="M273.1,552.8c0,0,0.4,0.2,0.8-0.4c0,1.2-0.1,2.3-0.3,3.5c-0.2,0.7-0.7,1,1,3.7c1.1,1.7,1.8,3.6,2.2,5.6
					c0,0-1.2-4-2.2-4.8s-3.5-2.6-3.5-2.6c0.9-0.8,1.6-1.8,1.9-3C273.3,552.9,273.1,552.8,273.1,552.8z"/>
				<path class="st9" d="M269.3,608.7c0,0,0.5,0.9,2,3.3c0.4,1,0.5,2,0.5,3.1c-0.1,0.6-0.2,1.1-0.4,1.7c-0.2,0.4-1.4,0.8-1.6-0.3
					s0.3-3-0.6-3s-0.4,2.5-0.3,3.4c0.1,0.5,0.9,3,0.7,3.6s-1.3,0.9-3-0.3c-1-1.3-1.8-2.8-2.2-4.4c-0.4-1.7,0-3.8,0.5-6.2
					C265.1,609.8,267.1,610.6,269.3,608.7z"/>
				<path class="st108" d="M281.8,660c0,0,1.3-3.6,4.9-3.3c0.7,0.5,1.3,1.2,1.8,1.9c-2,0.2-3.7,1.7-4.1,3.7L281.8,660z"/>
				<path class="st108" d="M267.9,666.8c0,0,2.1-4.1,5.5-2.9c0.7,0.5,1.3,1.2,1.6,2c0,0-2.6-0.7-4.6,3
					C270.1,669,268.8,667.8,267.9,666.8z"/>
				<path class="st115" d="M271.2,557.7c0,0,3,1.7,3.7,3s2,5.1,3,5.2c0.6,0.1,1.1,0.1,1.7,0l1.6,4.8l0.7-5.8c0,0,2.6-0.9,2-4.4
					c0-1-0.4-2-1.1-2.8l0.5-0.2c0.6,1.2,1,2.5,1.2,3.8c0.1,1.8-1,3.6-2.2,3.9l-0.8,7.2l-2.3-5.9c-1,0.2-2-0.2-2.6-1
					c-0.9-1.3-1.6-4.4-2.4-5.1c-1.1-0.8-2.2-1.7-3.2-2.6L271.2,557.7z"/>
				<path class="st115" d="M283.2,571.5c1.8-0.4,3.3-1.5,4.4-2.9c-0.6,1.7-2,3-3.8,3.4c0,0-0.3,4.4,0.3,5.3s3-0.3,3.5-1.6l0.1-5.7
					l0.3,6.2c0,0-2,3.4-4.7,1.4L283.2,571.5z"/>
				
					<ellipse transform="matrix(0.9507 -0.3102 0.3102 0.9507 -162.2092 114.407)" class="st116" cx="278.6" cy="567.2" rx="0.5" ry="0.7"/>
				
					<ellipse transform="matrix(0.9507 -0.3102 0.3102 0.9507 -163.488 115.1529)" class="st116" cx="280.3" cy="571.6" rx="0.5" ry="0.7"/>
				<path class="st115" d="M271.3,566.4c0,0,1.6,1.8,0.3,7.2c0,0-1.1,4.6-1.2,6c-0.2,1.5-0.4,3-0.8,4.4c0,0-2.2,2.2-7.6-0.7
					c0,0,5.4,1.7,7.1,0.3c0,0,0.4-2,0.7-3.7s1.1-6,1.4-7.5S271.9,567.4,271.3,566.4z"/>
				<path class="st107" d="M263.7,556.3c0,0,8.7,2.9,9.6,13.9c0,0,0.3,8.5-3.2,11.2l-0.4,2.5c0,0,4.4-0.9,5.7-7.4s0-14.8-7.1-21.6
					C266.6,554.2,264.7,554.8,263.7,556.3z"/>
				<path class="st107" d="M285,555.2c0,0,2.7,2.6,2.6,12.3c0,0,0.1,6,2,8.2c0,0,0.1-13.9-0.4-17.1c-0.6-3.4-1.6-4.7-3.3-6
					C285.7,553.5,285.4,554.4,285,555.2z"/>
				<path class="st10" d="M272.9,548.5c0-0.4-0.2-0.7-0.6-0.9c-0.6-0.3-1.3-0.4-1.1,1.3s0.8,2.7,1.4,2.8s0.9-0.9,0.2-1.4
					s-0.3-1.1,0-1.1s-1-0.7-0.9,0.2c0,0.5,0.1,0.9,0.3,1.4c-0.5-0.7-0.7-1.7-0.5-2.6C272.2,547,272.4,548.9,272.9,548.5z"/>
				<path class="st110" d="M282.3,610.6c0.9-0.5,1.8-1,2.7-1.6c-1.1,1.3-2.3,2.6-3.7,3.6L282.3,610.6z"/>
				<path class="st117" d="M265.9,558.4c0,0,2.6-1.5,6.6,7c0,0,4.1,10.3-2.5,16.1c0,0,6.7-8.5,0.7-18.2
					C270.7,563.3,269.2,559.5,265.9,558.4z"/>
				<path class="st117" d="M259.6,557.4c0,0,2.3,1.7,4.1,0.4s7-4.6,7.8-4.6c0,0-2-0.3-7.9,4C263.7,557.3,262,558.4,259.6,557.4z"/>
				<path class="st117" d="M285,555.2c0,0,2,1.3,2.3,5.2s0.5,10.5,1,11.9s1.3,3.4,1.3,3.4s-2.2-1.6-2.6-10.2s-0.8-8.5-2.2-9.8
					L285,555.2z"/>
				<path class="st117" d="M260.6,561.4c-0.5,1.6-0.6,3.3-0.4,5c0.5,2.1,0.3,3.8-0.9,6.5s0.4,9.1,0.4,9.1s-2.1-6.1-0.7-10.5
					s0.3-4.5,0.3-5.9S259.7,561,260.6,561.4z"/>
				<path class="st115" d="M268.5,601c0,0,4.3,4.1,14.1-0.1c0,0,5-2.1,6.2-5.2l0.8-20l-1.2,20c0,0-2.6,4.5-9.6,5.9
					c0,0-7.7,1.4-10.5-1.5L268.5,601z"/>
				<path class="st10" d="M261.5,582.9c1.9,1.2,4.1,1.8,6.3,1.7l-0.1,3.7c0,0-0.4-2.3-2.3-2.7s-2.8-0.6-3.4,0.1s-0.6,2.2-0.5,3.8
					C261.2,587.3,261.2,585.1,261.5,582.9z"/>
				<path class="st10" d="M292,571.6c-0.4,1-1.4,1.7-2.5,1.5c0,0,0.1,7.2-0.2,9.3l-0.5,13.4l1.6-20.9c0.7-0.5,1.2-1.3,1.5-2.1v-1.2
					H292z"/>
				<path class="st10" d="M264.6,661.3c1.4,1.3,3.3,1.8,5.2,1.5c0.7-0.2,1.3-0.6,1.7-1.2l0.7,0.9c-0.7,0.2-1.3,0.6-1.9,1
					c-1.1,0.8-5,0.4-5.7-0.8C264.7,662.7,264.3,662,264.6,661.3z"/>
				<path class="st10" d="M277.4,654.2c0,0,1.3,2.4,5.2,2c0,0,1.9,0,2.5-1.2c0,0,0.7,1.7-2.6,2c-1.7,0.3-3.5-0.1-5-1.1
					C277.3,655.4,277.3,654.8,277.4,654.2z"/>
				<polygon class="st112" points="288.3,548.7 286.6,548.1 286.5,548.5 288.4,549.1 				"/>
			</g>
		</g>
	</g>
</g>
</svg>
