<svg xmlns="http://www.w3.org/2000/svg" xmlns:xlink="http://www.w3.org/1999/xlink" viewBox="0 0 514.5 736.74"><defs><style>.cls-1{fill:#a5b2c7;}.cls-2{fill:#6d798b;}.cls-3{fill:#fed4af;}.cls-4{fill:#fbbd92;}.cls-5{fill:#d2d2d2;}.cls-6{fill:#82596b;}.cls-7{fill:#28151a;}.cls-8{fill:#4ec0af;}.cls-9{fill:#ecac67;}.cls-10{fill:#d3e7b9;}.cls-11{fill:#d08245;}.cls-12{fill:#129491;}.cls-13{fill:#e9edf7;}.cls-14{fill:#5c3d50;}.cls-15{fill:#745b52;}.cls-16{fill:#acadae;}.cls-17{fill:#ab6087;}.cls-18{fill:#3cc3d9;}.cls-19{fill:#abddde;}.cls-20{fill:#eaae9d;}.cls-21{fill:#cf8885;}.cls-22{fill:#2d9fb2;}.cls-23{fill:#884b6c;}.cls-24{fill:#454043;}.cls-25{fill:#4e3136;}.cls-26{fill:#024e6c;}.cls-27{fill:#ca9e6f;}.cls-28{fill:#f2e094;}.cls-29{fill:#f2738e;}.cls-30{fill:#73a7be;}.cls-31{fill:#197daa;}.cls-32{fill:#f7eb98;}.cls-33{fill:#bc734f;}.cls-34{fill:#252a3d;}.cls-35{fill:#c0ccdd;}.cls-36{fill:#1f2746;}.cls-37{fill:#6d5539;}.cls-38,.cls-75{fill:#fff;}.cls-39{fill:#4e3c25;}.cls-40{fill:#f0c776;}.cls-41{fill:#da587c;}.cls-42{fill:#f7a8a7;}.cls-43{fill:#c45c7a;}.cls-44{fill:#73452c;}.cls-45{fill:#fccfb7;}.cls-46{fill:#69446b;}.cls-47{fill:#5a395d;}.cls-48{fill:#f38aaa;}.cls-49{fill:#edaa42;}.cls-50{fill:#a76f69;}.cls-51{fill:#a16443;}.cls-52{fill:#fab6a1;}.cls-53{fill:#e96997;}.cls-54{fill:#9c605b;}.cls-55{fill:#fabca4;}.cls-56{fill:#f6ec49;}.cls-57{fill:#9b5e3f;}.cls-58{fill:#c0b773;}.cls-59{fill:#2d292c;}.cls-60{fill:#ce8f6e;}.cls-61{fill:#8db6d9;}.cls-62{fill:#7d9dc9;}.cls-63{fill:#ccd5e4;}.cls-64{fill:#a49ccc;}.cls-65{fill:#c77966;}.cls-66{fill:#aebbd3;}.cls-67{fill:#ef5b79;}.cls-68{fill:#debd5b;}.cls-69{fill:#aec3e5;}.cls-70{fill:#383958;}.cls-71{fill:#765975;}.cls-72{fill:#59425c;}.cls-73{fill:#835d39;}.cls-74{fill:#012f3b;}.cls-75{opacity:0.31;}.cls-127,.cls-75{isolation:isolate;}.cls-76{fill:none;stroke:#012f3b;stroke-miterlimit:10;stroke-width:0.44px;}.cls-77{fill:#8481be;}.cls-78{fill:#c8c5bd;}.cls-79{fill:#cadaf0;}.cls-80{fill:#745d9e;}.cls-81{fill:#5d4980;}.cls-82{fill:#cd8079;}.cls-83{fill:#056772;}.cls-84{fill:#a1d28e;}.cls-85{fill:#81b16d;}.cls-86{fill:#bd6d6a;}.cls-87{fill:#194353;}.cls-88{fill:#f28186;}.cls-89{fill:#da5a7a;}.cls-90{fill:#fabfa0;}.cls-91{fill:#1d4e5e;}.cls-92{fill:#393537;}.cls-93{fill:#fee495;}.cls-94{fill:#b16979;}.cls-95{fill:#606281;}.cls-96{fill:#4e506a;}.cls-97{fill:#7a93a1;}.cls-98{fill:#fccdb0;}.cls-99{fill:#e98b41;}.cls-100{fill:#cfd7b0;}.cls-101{fill:#ffddb8;}.cls-102{fill:#9ea372;}.cls-103{fill:#57585a;}.cls-104{fill:#a2b4bf;}.cls-105{fill:#516780;}.cls-106{fill:#eeb59b;}.cls-107{fill:#fabaa3;}.cls-108{fill:#f27385;}.cls-109{fill:#756f90;}.cls-110{fill:#e8e9f5;}.cls-111{fill:#826e74;}.cls-112{fill:#ffcd64;}.cls-113{fill:#f9e8e3;}.cls-114{fill:#dfdaed;}.cls-115{fill:#fcb238;}.cls-116{fill:#645e7b;}.cls-117{fill:#c65e6f;}.cls-118{fill:#f3b29e;}.cls-119{fill:#e3978b;}.cls-120{fill:#c8c4cc;}.cls-121{fill:#f79058;}.cls-122{fill:#d4dac2;}.cls-123{fill:#e67b50;}.cls-124{fill:#b7b4bc;}.cls-125{fill:#f3f3f3;}.cls-126{fill:#31aaba;}.cls-127{fill:#010101;opacity:0.1;}.cls-128{fill:#35b7ae;}.cls-129{fill:url(#linear-gradient);}</style><linearGradient id="linear-gradient" x1="3340.01" y1="359.43" x2="3340.02" y2="359.38" gradientTransform="translate(-534230.43 -31915.71) scale(160 91)" gradientUnits="userSpaceOnUse"><stop offset="0" stop-color="#fff" stop-opacity="0.1"/><stop offset="1" stop-color="#fff" stop-opacity="0"/></linearGradient></defs><title>Asset 2</title><g id="Layer_2" data-name="Layer 2"><g id="Layer_1-2" data-name="Layer 1"><path class="cls-1" d="M170.1,417.14s.8.1.9.5a22.08,22.08,0,0,1,0,2.6c-.1.5-.7.6-.7.6l-.2-.5Z"/><path class="cls-2" d="M170.2,417.24s.5.2.4.4a4,4,0,0,1-.4.3Z"/><path class="cls-3" d="M170,397.64a42,42,0,0,0-.3,8.6c.3,3.7.7,13.8.7,14.5a4.79,4.79,0,0,1,1.7,3.1c.3,2.2.5,4.2-.3,4.6s-1.1.3-1.1.3.4,3.7-2.7,3.4l-1.8-9.8.1-24Z"/><path class="cls-2" d="M170.3,420.64a3.48,3.48,0,0,1-2.9.9l-1.4-.3-.1-2.6s.3.8,2.2.7a2,2,0,0,0,2-1.4s.1-.1.2.3A4.83,4.83,0,0,1,170.3,420.64Z"/><path class="cls-4" d="M167.2,422.94s.7,2.1,2.1,2.3a1.5,1.5,0,0,1,1,1.5l.2,2.1s-.8-.3-.8-2.4c0,0,0-.5-1-.8A2.61,2.61,0,0,1,167.2,422.94Z"/><path class="cls-5" d="M150,486.24s5,6.8,5.3,7.8-.1,1.7-2.5,2.5-10.5-7.8-10.8-8.6.7-2.5.7-2.5S146.6,488.84,150,486.24Z"/><path class="cls-5" d="M163.4,480.24s5.5,6.1,5.5,7a3.19,3.19,0,0,1-2.9,2.6c-1.7.2-10-7.7-10.3-8.3s.7-3,.7-3Z"/><path class="cls-6" d="M168.3,434.34s.8,22.4.8,24.4-4.6,17.2-5.2,19.8a2.21,2.21,0,0,1-1.5,2.4c-1.5.4-5.9.9-7.1-3,0,0,4.2-15,4.4-18.3s-.6-9.1-2.2-14.5c0,0-.9,17.7-1.6,20.3s-5.5,20.3-5.5,20.3-.6,3-4.8,1.9-3.3-4.1-3.3-4.1,4.2-13.7,3.5-18.9c0,0-.6-32.8-.3-36,0,0,17.1-4.4,21.4-7.2C166.8,421.34,168.3,424.44,168.3,434.34Z"/><path class="cls-7" d="M166.6,417.64a11.69,11.69,0,0,1,.3,4.4s-5.3,7.8-16.9,5.1l-2.6-6.4C147.3,420.84,158.1,424.94,166.6,417.64Z"/><path class="cls-3" d="M159.4,383.24a11.7,11.7,0,0,1,.9,5.1l-.8,5s-1.4-3.7-2.9-5.2-4.4-3.6-4.9-4.2.6-3.8.6-3.8l3.1-2Z"/><path class="cls-8" d="M150.5,379.44a.75.75,0,0,0,.6.3s-.6,2-.3,2.7c0,0,2.9,3.8,4.9,4.7s3.7,6,3.7,6,.9-4.9.9-5.7l-.9-3.2,2.4-1a75,75,0,0,0,2.8-7.1s5.1,0,5.3,7.4c-.1.3.3,9,.3,9s.8-.4,1,1.1l-.2,3.3a4.64,4.64,0,0,1-3.5,2.4s.3,14.1-.8,18.7c0,0-7.1,10.7-21.2,3.7a14.5,14.5,0,0,1-2.6-7.7c0-4.2,6.7-32.1,6.7-32.1Z"/><path class="cls-9" d="M152,423.24c-.2-.1-.3,0-.3.2s-.2.3-.3.5a2,2,0,0,0-.3,1.1c-.1.3-.2.8-.3,1.1l-.4,1.2a4.36,4.36,0,0,1-1.9,1.9,4.85,4.85,0,0,1-2.7.5,6.31,6.31,0,0,1-4.5-2.4,12,12,0,0,1-1.3-2.1,16.88,16.88,0,0,1-.8-2.4h.1a11.78,11.78,0,0,0,2.5,4,6.3,6.3,0,0,0,4.1,2.1,4.34,4.34,0,0,0,4-2c.4-.7.5-1.5.9-2.2.2-.3.3-.7.5-1s.2-.3.3-.5.3-.3.4,0Z"/><ellipse class="cls-10" cx="160.1" cy="400.44" rx="0.6" ry="0.9"/><path class="cls-9" d="M145.7,418.84s6.4,3.1,6.9,4a13.38,13.38,0,0,1,.2,2c.1,5.2-.3,18.4-.9,19.6-1.1,2.2-3.7.9-4.9.4l-6.8-3.9s-1.7-.8-1.6-5.2c.1-4.2.5-11.8.5-11.8s-.8-1.2-.3-4.4C139.2,416.54,143.7,417.24,145.7,418.84Z"/><path class="cls-11" d="M152,423.24a1.21,1.21,0,0,0-1.7,1.3c0,2-.2,3.7-.9,4.5s-7,3.6-10.3-5a8.18,8.18,0,0,0,4.2,5.8s4.1,2,6.6-.9a5.72,5.72,0,0,0,.7-3.1C150.6,423.74,150.8,423.24,152,423.24Z"/><path class="cls-3" d="M139.7,407.14s-1.3,4.1.3,13.7c0,0,3.2,12.6,2.8,14.6a3.74,3.74,0,0,0,4.5-1s-1.9-14.1-1.7-18.9.2-7.2.2-7.2S144.4,404.54,139.7,407.14Z"/><path class="cls-12" d="M159.6,384.64s.9,1.4.2,5.9l.8-2.4a28,28,0,0,0-.6-3.8l-.3-.9-.4.5Z"/><path class="cls-8" d="M148,390.94c1.7,1.4,1.4,3,1.6,6.4s-3.1,12.5-3.1,12.5l-1.6.3c-5.7.4-6.8-3.1-6.8-3.1s.4-4.1,1-4.2c.4-2.1.8-4.5.9-5.3.3-3.5-.3-5.4,1.3-7.8s7.4-6.3,7.4-6.3.4-3,2.4-3.8l-.2,1.8"/><path class="cls-3" d="M147.2,434.24s1.3.7,2,3.3a9.44,9.44,0,0,1,.4,2.7,6.84,6.84,0,0,1-.3,2.2c-.2.4-1.4.8-1.6-.3s.3-3-.6-3c0,1.5-.4,2.5-.3,3.4.1.5.9,3,.7,3.6s-.7,1.6-2.4.3a10.05,10.05,0,0,1-3-4.6c-.4-1.7.4-5,.7-6.8C142.9,435.14,144.9,436.84,147.2,434.24Z"/><path class="cls-9" d="M150.9,425.14a92.15,92.15,0,0,1,4.3-12.5c3.3-7.7,10.9-29.6,9-33.7l.3-1.7s2.3,1.9.3,10.6-9.1,27.6-9.8,29.5-2.4,7.1-2.8,9S150.3,426.94,150.9,425.14Z"/><path class="cls-12" d="M149,392.44a11.56,11.56,0,0,1,.8,4.5,18.76,18.76,0,0,1-.6,4.6c-.9,2.9-2.3,8.3-2.7,8.4s-.7.1-.6-.6c.5.1,1.5-3.1,1.3-3.8.1-.2,0-.2.1-.4.5-1.4.8-2.8,1.1-3.9a21.35,21.35,0,0,0,.8-4.4A33.14,33.14,0,0,0,149,392.44Z"/><path class="cls-13" d="M162.5,421.94s.8,1.4.1,4.3a12.91,12.91,0,0,1-4.2,1.7l-.1-4.2A12.74,12.74,0,0,0,162.5,421.94Z"/><path class="cls-11" d="M151.8,422.24s-1,2.2-.7,2.8,1,1.2,1.6-1c0,0,.1,0,.1.5,0,0-.3,1.2-1,1.3s-1.2-.8-.7-2.1a5.5,5.5,0,0,0,.5-1.5l-5.7-3.1v-.3C145.7,418.84,151.2,421.64,151.8,422.24Z"/><path class="cls-12" d="M159.5,393.34s-.3-8.7,4.9-6.2C164.4,387.24,160.5,386,159.5,393.34Z"/><polygon class="cls-12" points="161.9 383.14 164.4 387.14 163.3 386.84 161.4 383.34 161.9 383.14"/><path class="cls-14" d="M162.3,428.14l-1.7,7.2-4.2,2.8,2.6-.7a12.06,12.06,0,0,0-1.5,6.3v2s-.3-6.5,3.7-9.4Z"/><path class="cls-3" d="M151,381.54l.2-1.8c-.6,0-.8-.3-1.5-.8-.9-.7-1.5-2.4-1.3-4.5s1.9-1.6,1.9-1.6.3-7.3.2-7.7a4.22,4.22,0,0,1,1.3-3.7c6.3-3.7,12,4.1,13.1,5.1s.7,4.4.7,4.4a3.78,3.78,0,0,1-.1,1.4c-.2.4-1.3,1.4-.5,2.3,1,1-1.3,7.3-2,8.2s-3.3,1.5-3.5,1.6"/><path class="cls-15" d="M155.2,358c-1.2.3-1.3,1-1.6,1.3a2.12,2.12,0,0,0-2.2,1.6,2.61,2.61,0,0,0-2.2,1.1,2.87,2.87,0,0,0,0,2,1.84,1.84,0,0,0-1.1,2.4,2.27,2.27,0,0,0-.4,2.6,2.67,2.67,0,0,0,.3,3.1,2.08,2.08,0,0,0,.5,2.2s.6-2.2,2.4-1a4.14,4.14,0,0,1,1,2.8l.1,1.6a1.19,1.19,0,0,0,1.4-1c.2-1.1.1-1.1.5-1.4.7-.5,1.1-1,1-2.5,0,0,2.3-1,1.6-2.7l-.7-1.3a1.92,1.92,0,0,0,2,.8s1.1,1.7,2.9.1a1.67,1.67,0,0,0,2.4-.8s1.7.8,2.3-1.3c0,0,1.6.1,1.2-2.1,0,0,.3-1.1-1.7-1.7,0,0,.3-1.7-2.4-2.2a2.15,2.15,0,0,0-2.2-1.7,1.75,1.75,0,0,0-2.6-1.4A5.82,5.82,0,0,0,155.2,358Z"/><path class="cls-4" d="M165.4,372.24a7.07,7.07,0,0,1-3,1.8,24.77,24.77,0,0,1-4,1.5c-2.4.3-3-.3-3-.3s1.1,1.2,3.8.7a9.87,9.87,0,0,0,5.3-2.4A2.52,2.52,0,0,0,165.4,372.24Z"/><path class="cls-4" d="M154.3,386.24s-3.1-2.3-4-3.8l.3-.7v-2.1a1,1,0,0,0,1.1-.2c.2-.1.4-.6.7-.7a25.58,25.58,0,0,0,.4,4.2l4.7,5.7Z"/><path class="cls-4" d="M151.4,375.34s-.8-1.6-1.7-1.1-.4,3.5.3,4.1a.94.94,0,0,0,1.6-.6s0-.7-.6-.8,0,.9-.5.7a2.53,2.53,0,0,1-.7-2.4c.3-.6.3,1.3.4,1.5s1,0,.7-.6C150.6,375.34,151,375.14,151.4,375.34Z"/><path class="cls-4" d="M162.7,374.74v4.4a2.17,2.17,0,0,1-2.4.3l.4-.5,1.2-.1.3-3.9Z"/><path class="cls-12" d="M138.1,407.14s1.8,3.9,8.3,2.8a.83.83,0,0,0,.4-.7s-6,1.1-8.5-3.3A1.84,1.84,0,0,0,138.1,407.14Z"/><path class="cls-12" d="M142.8,405.54a7.56,7.56,0,0,1-2.2-1.1,6.12,6.12,0,0,1-1.5-1.7,9.94,9.94,0,0,0,6.2,2.7,4.51,4.51,0,0,0,2.5-.5l-.3.6C147.5,405.44,146.8,406.44,142.8,405.54Z"/><path class="cls-12" d="M148.9,382.24s-.1,1.6,1.6,4.4,2.4,4.3,2.4,4.3,2.4-3.7,3.4-3.4,1.8,2.1,1.8,2.1l1.4,3.6s-2.9-6.2-3.8-4.9-3,4.3-3,4.3-3.5-6.7-3.8-8A3.34,3.34,0,0,1,148.9,382.24Z"/><path class="cls-12" d="M150.5,380.44a2.75,2.75,0,0,0,.5,2c.2.3.4.5.6.8l.7.7h0c1,.7,2,1.4,3,2.2l1.3,1.3a4.35,4.35,0,0,1,1,1.6,4.89,4.89,0,0,0-1.3-1.2c-.4-.3-1-.7-1.5-1l-3-2.1h0l-.8-.8a4.7,4.7,0,0,1-.6-.9A3.79,3.79,0,0,1,150.5,380.44Z"/><path class="cls-4" d="M159.3,385.14c0-.1-4.4.3-5.9-5.1a13.31,13.31,0,0,0,2.6,2.9c1.3,1,2.2,1.8,3.5,1.4a3.22,3.22,0,0,1,.5,1.6A8.78,8.78,0,0,0,159.3,385.14Z"/><path class="cls-12" d="M167.1,383.94l.4,15.4a4.47,4.47,0,0,0,3.5-2.4s-1.9,1.8-3,1.6C168,398.54,167.7,386.34,167.1,383.94Z"/><path class="cls-12" d="M167.5,394s1.3.3,2.7-1.6a3.21,3.21,0,0,1-2.5,2.4Z"/><path class="cls-12" d="M162.7,395.54a6.26,6.26,0,0,0,3.7-2.4,1.11,1.11,0,0,1-.5,1.3,6.76,6.76,0,0,1-3.4,1.8Z"/><path class="cls-12" d="M162.7,402.44a3.09,3.09,0,0,0,3.1-2C165.9,400.54,165.9,403.54,162.7,402.44Z"/><ellipse class="cls-10" cx="160.1" cy="409.04" rx="0.6" ry="0.9"/><ellipse class="cls-10" cx="160.7" cy="416.84" rx="0.6" ry="0.9"/><ellipse class="cls-10" cx="159.4" cy="394.44" rx="0.6" ry="0.9"/><path class="cls-6" d="M165,420s.6,3.3.2,4.4l1.3-1.1-.3-4.4Z"/><polygon class="cls-6" points="154.6 424.14 154.6 428.04 153.2 427.84 153.3 424.04 154.6 424.14"/><path class="cls-4" d="M158.5,385s.8,2.7-.5,4.3l1.5,3.7a19.11,19.11,0,0,1,.3-3.3c.3-1.4.3-5-.4-5.4C159.5,384.44,159,384.94,158.5,385Z"/><path class="cls-4" d="M168.3,427.74l.1,4.3a.81.81,0,0,0,.8-.1s-.8.4-.7-1.9S168.4,427.14,168.3,427.74Z"/><path class="cls-4" d="M139.4,408.64s1.7,1.7,6.4,1.3a75.89,75.89,0,0,0-.1,8.9s-.8-6.5-.6-7.3a9.46,9.46,0,0,1-4.8-.4s-.8,6.2-.4,8.9C139.9,420,138.7,413,139.4,408.64Z"/><path class="cls-4" d="M169.9,398.34l-.2,1.2a2.52,2.52,0,0,0-1.6,2.5c.1,1.9-.8,17.2-.8,17.2l-.5-.1-.2-.9a23.28,23.28,0,0,0,.7-4.8c0-2.1.6-12.4.3-14.1Z"/><path class="cls-12" d="M167.8,399s.3,13.2-1,19.2a15.21,15.21,0,0,1-14.1,5.9s10.4-.3,13.6-6.2a55.8,55.8,0,0,0,.9-6.8c.4-5.1.4-12,.4-15.2Z"/><path class="cls-16" d="M161.9,481.44l3.4,4.1A12.24,12.24,0,0,1,161.9,481.44Z"/><path class="cls-16" d="M163.4,482.14l-1.7.9A1.44,1.44,0,0,0,163.4,482.14Z"/><path class="cls-16" d="M164.4,483.14l-1.7.9A1.44,1.44,0,0,0,164.4,483.14Z"/><path class="cls-16" d="M165.6,484.34l-1.7.9C163.9,485.14,165.1,485.44,165.6,484.34Z"/><path class="cls-16" d="M148.4,488.14l3.4,4.1A11.06,11.06,0,0,1,148.4,488.14Z"/><path class="cls-16" d="M149.8,488.74l-1.7.9A1.41,1.41,0,0,0,149.8,488.74Z"/><path class="cls-16" d="M150.9,489.84l-1.7.9C149.2,490.64,150.4,490.94,150.9,489.84Z"/><path class="cls-16" d="M152,490.94l-1.7.9A1.44,1.44,0,0,0,152,490.94Z"/><path class="cls-16" d="M149.3,495s-.5-.5.7-1.4c2.8-1.9,4.1-1.6,4.1-1.6s1.8,1.8,1.2,2.9c0,0-1.6,2.2-3.8,1.4Z"/><path class="cls-16" d="M162.6,487.94s-.2-.3,1-1.1c2.8-1.9,4.1-1.6,4.1-1.6s1.8,1.8,1.2,2.9c0,0-2,2.2-3.8,1.4Z"/><path class="cls-16" d="M142.1,486.74a40.23,40.23,0,0,0,7.8,7.8l-.1.8s-5.4-3.8-7.7-7.4C142,487.94,141.9,487.64,142.1,486.74Z"/><path class="cls-16" d="M155.8,480.44s1.7,3,7.8,7.4l.1.8s-5.6-3.5-7.9-7.1A2.87,2.87,0,0,1,155.8,480.44Z"/><path class="cls-14" d="M161.2,436.34s4.4-2.4,4.3-4l-4.5,3.2Z"/><path class="cls-1" d="M298,147.14s-.8.1-.9.5a22.08,22.08,0,0,0,0,2.6c.1.5.7.6.7.6l.2-.5v-3.2Z"/><path class="cls-2" d="M297.9,147.34s-.5.2-.4.4a4,4,0,0,0,.4.3Z"/><path class="cls-3" d="M302,128.34l.1,24-1.8,9.8c-3.1.3-2.7-3.4-2.7-3.4s-.3.2-1.1-.3-.5-2.4-.3-4.6a4.45,4.45,0,0,1,1.7-3.1c0-.7.3-10.7.7-14.5a51.72,51.72,0,0,0-.3-8.6Z"/><path class="cls-2" d="M297.8,150.74a3.48,3.48,0,0,0,2.9.9l1.4-.3.1-2.6s-.3.8-2.2.7a2,2,0,0,1-2-1.4s-.1-.1-.2.3A4.86,4.86,0,0,0,297.8,150.74Z"/><path class="cls-4" d="M300.9,152.94s-.7,2.1-2.1,2.3a1.5,1.5,0,0,0-1,1.5l-.2,2.1s.8-.3.8-2.4c0,0,0-.5,1-.8A2.26,2.26,0,0,0,300.9,152.94Z"/><path class="cls-5" d="M325.4,215.54s1,1.7.7,2.5-8.4,9.4-10.8,8.6-2.8-1.6-2.5-2.5,5.3-7.8,5.3-7.8C321.6,218.94,325.4,215.54,325.4,215.54Z"/><path class="cls-5" d="M311.6,208.54s1,2.4.7,3-8.5,8.4-10.3,8.3a3.31,3.31,0,0,1-2.9-2.6c0-.9,5.5-7,5.5-7Z"/><path class="cls-17" d="M301.2,151.34c4.4,2.9,21.4,7.2,21.4,7.2.3,3.1-.3,36-.3,36-.7,5.2,3.5,18.9,3.5,18.9s.9,3-3.3,4.1-4.8-1.9-4.8-1.9-4.8-17.7-5.5-20.3-1.6-20.3-1.6-20.3c-1.6,5.4-2.4,11.2-2.2,14.5s4.4,18.3,4.4,18.3c-1.2,3.9-5.7,3.5-7.1,3a2.11,2.11,0,0,1-1.5-2.4c-.6-2.6-5.2-17.8-5.2-19.8s.8-24.4.8-24.4C299.8,154.54,301.3,151.34,301.2,151.34Z"/><path class="cls-7" d="M320.8,150.84l-2.6,6.4c-11.6,2.7-16.9-5.1-16.9-5.1a11.69,11.69,0,0,1,.3-4.4C310,155,320.8,150.94,320.8,150.84Z"/><path class="cls-3" d="M312.6,108.14l3.1,2s1.1,3.2.6,3.8-3.3,2.6-4.9,4.2a20.78,20.78,0,0,0-2.9,5.2l-.8-5a11.7,11.7,0,0,1,.9-5.1Z"/><path class="cls-18" d="M318.3,112.14s6.7,28,6.7,32.1a14.5,14.5,0,0,1-2.6,7.7c-14.1,7-21.2-3.7-21.2-3.7-1.1-4.6-.8-18.7-.8-18.7a4.64,4.64,0,0,1-3.5-2.4l-.2-3.3c.2-1.6,1-1.1,1-1.1s.3-8.7.3-9c.3-7.4,5.3-7.4,5.3-7.4.3,1.7,2.8,7.1,2.8,7.1l2.4,1-.9,3.2c0,.8.9,5.7.9,5.7s1.7-5.1,3.7-6,4.9-4.7,4.9-4.7c.3-.7-.3-2.7-.3-2.7a.75.75,0,0,0,.6-.3Z"/><path class="cls-9" d="M316.1,153.34c.2-.3.4-.1.4.1.2.2.3.3.3.5.2.3.3.7.5,1a10.2,10.2,0,0,0,.9,2.2,4.34,4.34,0,0,0,4,2,6.54,6.54,0,0,0,4.1-2.1,11.78,11.78,0,0,0,2.5-4h.1a9.68,9.68,0,0,1-.8,2.4,12,12,0,0,1-1.3,2.1,6,6,0,0,1-4.5,2.4,4.85,4.85,0,0,1-2.7-.5,4.36,4.36,0,0,1-1.9-1.9,5.64,5.64,0,0,1-.4-1.2c-.1-.3-.2-.8-.3-1.1s-.2-.8-.3-1.1-.2-.3-.3-.5-.1-.4-.3-.3Z"/><ellipse class="cls-19" cx="308" cy="130.44" rx="0.6" ry="0.9"/><path class="cls-20" d="M329.3,149.74c.4,3.1-.3,4.4-.3,4.4s.4,7.6.5,11.8c.1,4.5-1.6,5.2-1.6,5.2l-6.8,3.9c-1.1.5-3.8,1.8-4.9-.4-.6-1.2-1-14.4-.9-19.6a5.9,5.9,0,0,1,.2-2c.4-.9,6.9-4,6.9-4C324.4,147.34,328.9,146.64,329.3,149.74Z"/><path class="cls-21" d="M316.1,153.34a1.21,1.21,0,0,1,1.7,1.3c0,2,.2,3.7.9,4.5s7,3.6,10.3-5a8.18,8.18,0,0,1-4.2,5.8s-4.1,2-6.6-.9a5.72,5.72,0,0,1-.7-3.1C317.6,153.84,317.3,153.34,316.1,153.34Z"/><path class="cls-3" d="M322.3,138.34s0,2.4.2,7.2-1.7,18.9-1.7,18.9a3.57,3.57,0,0,0,4.5,1c-.4-2,2.8-14.6,2.8-14.6,1.6-9.6.3-13.7.3-13.7C323.7,134.54,322.3,138.34,322.3,138.34Z"/><path class="cls-22" d="M308.8,114.14l-.4-.5-.3.9a30.61,30.61,0,0,0-.6,3.8l.8,2.4c-.7-4.5.2-5.9.2-5.9Z"/><path class="cls-18" d="M317.3,111.44l-.2-1.8c1.9.8,2.4,3.8,2.4,3.8s5.8,3.9,7.4,6.3,1,4.3,1.3,7.8c.1.8.5,3.2.9,5.3.5.2,1,4.2,1,4.2s-1.1,3.5-6.8,3.1l-1.6-.3s-3.3-9.1-3.1-12.5-.1-5,1.6-6.4"/><path class="cls-3" d="M325.3,165.14c.3,1.7,1.1,5.1.7,6.8a10.05,10.05,0,0,1-3,4.6c-1.7,1.2-2.3.2-2.4-.3s.6-3,.7-3.6c.2-.9-.2-1.9-.3-3.4-.9.1-.4,2-.6,3s-1.4.7-1.6.3a12.32,12.32,0,0,1-.3-2.2,10.18,10.18,0,0,1,.4-2.7c.7-2.6,2-3.3,2-3.3C323.2,166.94,325.2,165.24,325.3,165.14Z"/><path class="cls-20" d="M316,156.44a84.11,84.11,0,0,0-2.8-9c-.7-1.9-7.8-20.8-9.8-29.5s.3-10.6.3-10.6l.3,1.7c-1.9,4.1,5.7,26,9,33.7a92.15,92.15,0,0,1,4.3,12.5C317.8,157,316.3,158.24,316,156.44Z"/><path class="cls-22" d="M319,127a16.28,16.28,0,0,0,.8,4.4,39.55,39.55,0,0,0,1.1,3.9c.1.2,0,.2.1.4-.2.7.8,3.8,1.3,3.8.1.6-.2.6-.6.6s-1.8-5.5-2.7-8.4a18.16,18.16,0,0,1-.6-4.6,11.24,11.24,0,0,1,.8-4.5A16.07,16.07,0,0,0,319,127Z"/><path class="cls-13" d="M309.8,153.84l-.1,4.2a17.62,17.62,0,0,1-4.2-1.7c-.7-2.9.1-4.3.1-4.3A12.74,12.74,0,0,0,309.8,153.84Z"/><path class="cls-21" d="M316.3,152.34s1,2.2.7,2.8-1,1.2-1.6-1c0,0-.1,0-.1.5,0,0,.3,1.2,1,1.3s1.2-.8.7-2.1a5.5,5.5,0,0,1-.5-1.5l5.7-3.1v-.3C322.4,148.94,316.9,151.74,316.3,152.34Z"/><path class="cls-22" d="M303.7,117.24c5.1-2.5,4.9,6.2,4.9,6.2C307.6,116,303.7,117.34,303.7,117.24Z"/><polygon class="cls-22" points="306.7 113.44 304.8 116.94 303.8 117.24 306.2 113.24 306.7 113.44"/><path class="cls-23" d="M306.9,166.34c3.9,2.9,3.7,9.4,3.7,9.4v-2a11.07,11.07,0,0,0-1.5-6.3l2.6.7-4.2-2.8-1.7-7.2Z"/><path class="cls-3" d="M308.7,114.44c-.2-.1-2.9-.7-3.5-1.6s-3-7.2-2-8.2c.8-.9-.3-1.8-.5-2.3a3.78,3.78,0,0,1-.1-1.4s-.3-3.5.7-4.4,6.8-8.8,13.1-5.1a4.22,4.22,0,0,1,1.3,3.7c-.1.3.2,7.7.2,7.7s1.7-.6,1.9,1.6-.4,3.8-1.3,4.5c-.6.5-.9.8-1.5.8l.2,1.8"/><path class="cls-24" d="M310.4,88.64c-2.4-.9-2.6,1.4-2.6,1.4a2.07,2.07,0,0,0-2.2,1.7c-2.7.4-2.4,2.2-2.4,2.2-1.9.6-1.7,1.7-1.7,1.7-.3,2.2,1.2,2.1,1.2,2.1A1.61,1.61,0,0,0,305,99a1.67,1.67,0,0,0,2.4.8,1.75,1.75,0,0,0,2.9-.1,1.92,1.92,0,0,0,2-.8l-.7,1.3c-.7,1.7,1.6,2.7,1.6,2.7a2.19,2.19,0,0,0,1,2.5c.4.3.3.3.5,1.4a1.29,1.29,0,0,0,1.4,1l.1-1.6a4.46,4.46,0,0,1,1-2.8c1.8-1.1,2.4,1,2.4,1a2.08,2.08,0,0,0,.5-2.2,2.85,2.85,0,0,0,.3-3.1,2.2,2.2,0,0,0-.4-2.6,1.92,1.92,0,0,0-1.1-2.4,2.87,2.87,0,0,0,0-2,2.61,2.61,0,0,0-2.2-1.1,2,2,0,0,0-2.2-1.6c-.3-.3-.3-1-1.6-1.3A3.77,3.77,0,0,0,310.4,88.64Z"/><path class="cls-4" d="M303.5,103.54a9.87,9.87,0,0,0,5.3,2.4c2.7.5,3.8-.7,3.8-.7s-.5.5-3,.3a18,18,0,0,1-4-1.5,7.07,7.07,0,0,1-3-1.8A3.75,3.75,0,0,0,303.5,103.54Z"/><path class="cls-4" d="M310.5,118.64l4.7-5.7a24.8,24.8,0,0,0,.4-4.2c.3.1.5.6.7.7a1,1,0,0,0,1.1.2v2.1l.3.7c-.9,1.6-4,3.8-4,3.8Z"/><path class="cls-4" d="M317.3,106.14c-.3.6.5.8.7.6s.1-2.1.4-1.5-.2,2.3-.7,2.4.1-.8-.5-.7-.6.8-.6.8a.94.94,0,0,0,1.6.6c.7-.6,1.2-3.7.3-4.1s-1.7,1.1-1.7,1.1C317.1,105.24,317.5,105.44,317.3,106.14Z"/><path class="cls-4" d="M306,105l.3,3.9,1.2.1.4.5a2.4,2.4,0,0,1-2.4-.3v-4.4Z"/><path class="cls-22" d="M329.9,135.94c-2.5,4.4-8.5,3.3-8.5,3.3s0,.6.4.7c6.4,1.1,8.3-2.8,8.3-2.8A7.07,7.07,0,0,0,329.9,135.94Z"/><path class="cls-22" d="M320.6,135.54l-.3-.6a4.51,4.51,0,0,0,2.5.5,9.94,9.94,0,0,0,6.2-2.7,6.12,6.12,0,0,1-1.5,1.7,5.7,5.7,0,0,1-2.2,1.1C321.3,136.54,320.6,135.54,320.6,135.54Z"/><path class="cls-22" d="M319.3,114.64c-.3,1.3-3.8,8-3.8,8s-2-3-3-4.3-3.8,4.9-3.8,4.9l1.4-3.6s.9-1.7,1.8-2.1,3.4,3.4,3.4,3.4a37.32,37.32,0,0,1,2.4-4.3c1.8-2.9,1.6-4.4,1.6-4.4A4.22,4.22,0,0,1,319.3,114.64Z"/><path class="cls-22" d="M317.7,112.94a2.84,2.84,0,0,1-.6.9l-.8.8h0l-3,2.1c-.5.3-1,.7-1.5,1a4.89,4.89,0,0,0-1.3,1.2,3.91,3.91,0,0,1,1-1.6l1.3-1.3a33,33,0,0,1,3-2.2h0l.7-.7c.2-.3.4-.5.6-.8a3.32,3.32,0,0,0,.5-2A3.37,3.37,0,0,1,317.7,112.94Z"/><path class="cls-4" d="M308.1,116.14c.2-1.4.5-1.6.5-1.6,1.3.3,2.2-.4,3.5-1.4a13.31,13.31,0,0,0,2.6-2.9c-1.6,5.3-5.9,5-5.9,5.1C308.8,115.24,308.4,115.54,308.1,116.14Z"/><path class="cls-22" d="M300.1,128.54c-1.1.3-3-1.6-3-1.6a4.2,4.2,0,0,0,3.5,2.4l.4-15.4C300.4,116.44,300.1,128.54,300.1,128.54Z"/><path class="cls-22" d="M300.4,125a3.21,3.21,0,0,1-2.5-2.4c1.4,1.8,2.7,1.6,2.7,1.6Z"/><path class="cls-22" d="M305.6,126.34a6.76,6.76,0,0,1-3.4-1.8,1.11,1.11,0,0,1-.5-1.3,6.9,6.9,0,0,0,3.7,2.4Z"/><path class="cls-22" d="M302.2,130.44a3.09,3.09,0,0,0,3.1,2C302.2,133.64,302.2,130.54,302.2,130.44Z"/><ellipse class="cls-19" cx="308" cy="139.14" rx="0.6" ry="0.9"/><ellipse class="cls-19" cx="307.4" cy="146.94" rx="0.6" ry="0.9"/><ellipse class="cls-19" cx="308.7" cy="124.54" rx="0.6" ry="0.9"/><path class="cls-17" d="M301.9,148.94l-.3,4.4,1.3,1.1c-.4-1,.2-4.4.2-4.4Z"/><polygon class="cls-17" points="314.8 154.14 314.9 157.94 313.5 158.14 313.6 154.14 314.8 154.14"/><path class="cls-4" d="M309.6,115.14s-.8,2.7.5,4.3l-1.5,3.7a19.11,19.11,0,0,0-.3-3.3c-.3-1.4-.3-5,.4-5.4C308.6,114.44,309.1,115,309.6,115.14Z"/><path class="cls-4" d="M299.8,157.84l-.1,4.3a.81.81,0,0,1-.8-.1s.8.4.7-1.9S299.7,157.24,299.8,157.84Z"/><path class="cls-4" d="M328.7,138.74s-1.7,1.7-6.4,1.3a75.89,75.89,0,0,1,.1,8.9s.8-6.5.6-7.3a9.46,9.46,0,0,0,4.8-.4s.8,6.2.4,8.9C328.2,150.14,329.4,143,328.7,138.74Z"/><path class="cls-4" d="M298.2,128.44l.2,1.2a2.52,2.52,0,0,1,1.6,2.5c-.1,1.9.8,17.2.8,17.2l.5-.1.2-.9a23.28,23.28,0,0,1-.7-4.8c0-2.1-.6-12.4-.3-14.1Z"/><path class="cls-12" d="M300.4,129s-.3,13.2,1,19.2a15.21,15.21,0,0,0,14.1,5.9s-10.4-.3-13.6-6.2a55.8,55.8,0,0,1-.9-6.8c-.4-5.1-.4-12-.4-15.2Z"/><path class="cls-16" d="M306.2,211.54l-3.4,4.1A11,11,0,0,0,306.2,211.54Z"/><path class="cls-16" d="M304.7,212.24l1.7.9C306.4,213,305.1,213.34,304.7,212.24Z"/><path class="cls-16" d="M303.7,213.24l1.7.9C305.4,214,304.1,214.34,303.7,213.24Z"/><path class="cls-16" d="M302.5,214.34l1.7.9A1.47,1.47,0,0,1,302.5,214.34Z"/><path class="cls-16" d="M319.7,218.14l-3.4,4.1A9.23,9.23,0,0,0,319.7,218.14Z"/><path class="cls-16" d="M318.3,218.84l1.7.9A1.41,1.41,0,0,1,318.3,218.84Z"/><path class="cls-16" d="M317.3,219.84l1.7.9A1.41,1.41,0,0,1,317.3,219.84Z"/><path class="cls-16" d="M316.1,221l1.7.9A1.57,1.57,0,0,1,316.1,221Z"/><path class="cls-16" d="M318.8,225.14s.5-.5-.7-1.4c-2.8-1.9-4.1-1.6-4.1-1.6s-1.8,1.8-1.2,2.9c0,0,1.6,2.2,3.8,1.4Z"/><path class="cls-16" d="M305.5,218s.2-.3-1-1.1c-2.8-1.9-4.1-1.6-4.1-1.6s-1.8,1.8-1.2,2.9c0,0,2,2.2,3.8,1.4Z"/><path class="cls-16" d="M326.1,216.84a40.23,40.23,0,0,1-7.8,7.8l.1.8s5.4-3.8,7.7-7.4A3.63,3.63,0,0,0,326.1,216.84Z"/><path class="cls-16" d="M312.3,210.54s-1.7,3-7.8,7.4l-.1.8s5.6-3.5,7.9-7.1A2.87,2.87,0,0,0,312.3,210.54Z"/><path class="cls-23" d="M306.9,166.34s-4.4-2.4-4.3-4l4.5,3.2Z"/><path class="cls-25" d="M235.3,347.44s-5.2,6.8-5.5,7.8.1,1.7,2.5,2.5,10.5-7.8,10.8-8.6-.9-3.1-.9-3.1S238.8,350.14,235.3,347.44Z"/><path class="cls-25" d="M221.7,341.24s-5.5,6.3-5.5,7.2a3.19,3.19,0,0,0,2.9,2.6c1.7.2,10-7.7,10.3-8.3s-.7-3-.7-3Z"/><path class="cls-26" d="M216.6,295.34s-.8,22.4-.8,24.4,4.6,17.2,5.2,19.8a2.21,2.21,0,0,0,1.5,2.4c1.5.4,5.9.9,7.1-3,0,0-4.2-15-4.4-18.3s.6-9.1,2.2-14.5c0,0,.9,17.7,1.6,20.3s5.5,20.3,5.5,20.3.6,3,4.8,1.9,3.3-4.1,3.3-4.1-4.2-13.7-3.5-18.9c0,0,.6-32.8.3-36,0,0-15.1-3-19.4-5.9C220,283.74,216.6,285.54,216.6,295.34Z"/><path class="cls-3" d="M212.2,282.14a10.74,10.74,0,0,0-1.2,3c-.2,1.3-.3,3.4-1,4.6,0,0-.9.8.9.9s1.6-1.3,1.6-1.3-.8,5.1,2.6,5.1l.8-.1-.3-10.7A15.84,15.84,0,0,1,212.2,282.14Z"/><path class="cls-4" d="M212.2,282a8,8,0,0,0,2.3,1.6v1a3.82,3.82,0,0,0-2.7-1.7Z"/><path class="cls-27" d="M226.6,310.34c-.3,0-1,.6-.9,2.3s-.3,15.1-.3,15.1a1.59,1.59,0,0,0,1.1,2.2c1.8.6,3.4,1.6,4.6.9s19.5-11.7,19.5-11.7a1.69,1.69,0,0,0,1.2-1.7c0-1.4.1-16.6.1-16.6l-5.7.4Z"/><path class="cls-28" d="M221.9,243.34s-2.5,3-2.3,9.8-.1,21.7,0,23.5.3,5.1.3,5.1,5.3,4,9.8,3.8a43.27,43.27,0,0,1-.6-11.2c.6-5.1-.5-13.8.3-17.1s4.4-9.4,5-13.2l-.4-1.4Z"/><path class="cls-29" d="M222.1,248.64c-.2.2.4,1.9,1.1,2.9a1.07,1.07,0,0,0,1.6.3l1.5-2.1-1.7-2.1A7.72,7.72,0,0,0,222.1,248.64Z"/><path class="cls-29" d="M223.1,251.24s-1.3,8.6-2.4,16.6a42.59,42.59,0,0,0,2.8,7.2s2.5-4.3,3.2-5.7c-.1-.3-2.3-17.8-2.3-17.8Z"/><path class="cls-30" d="M233.8,241.94s1.6,1.1-.3,5.1-4.9,9-4.6,16,.1,13.7.3,18.5c.2,4.1-.5,7.5-.1,10a27.2,27.2,0,0,1,.1,5.7,11.13,11.13,0,0,0,6.8.9s6.1-.2,9.5-4.2a27,27,0,0,0-1.3-4.6s2.7-9.3,2.9-14-1.9-13.8-2.3-17.2.3-5.4-1.3-7.8-7.4-6.3-7.4-6.3-.4-3-2.4-3.8Z"/><path class="cls-30" d="M219.4,237.34a5.51,5.51,0,0,0-5.9,5.2s0,12.5-.1,15.3-.8,15.6-.9,17.5a13.8,13.8,0,0,1-.2,2.5,7,7,0,0,0-.4,1.9,11,11,0,0,0,.2,2.2,7.19,7.19,0,0,0,2.4,1.6s-.4,6.4-.3,9.1a7,7,0,0,0,2.2,2.7c1.4.9,2.2,1.7,2.9,1.3s-.1-3,.1-5.6.4-13.8.4-19,.3-9.9,0-13.5-.4-12.5,1.8-15.1C221.7,243.64,219.3,242,219.4,237.34Z"/><path class="cls-31" d="M216.7,244c0,1.7-.1,3.3-.1,5s-.1,3.3,0,5,.2,3.3.2,5-.1,3.3-.2,5-.3,3.3-.4,5-.3,3.3-.4,5l-.5,5c-.2,1.7-.3,3.3-.6,5,0-1.7.1-3.3.2-5l.3-5c.1-1.7.2-3.3.3-5a41.54,41.54,0,0,0,.3-4.9c.1-1.7.2-3.3.3-5s-.1-3.3,0-5A56,56,0,0,1,216.7,244Z"/><path class="cls-32" d="M224.4,247.74a26.93,26.93,0,0,0,9.4-5.7s.6.3.7,2a36.67,36.67,0,0,1-8.3,7.1A9,9,0,0,0,224.4,247.74Z"/><path class="cls-32" d="M223.3,244.54s.1,2.3,1.1,3.2a13.4,13.4,0,0,1-3.6,1.7s-.1-4.5.8-6A4.12,4.12,0,0,0,223.3,244.54Z"/><path class="cls-31" d="M214.8,248.64l.9,2.9a7.37,7.37,0,0,1,.4,1.4,4.29,4.29,0,0,1,0,1.6H216a9.13,9.13,0,0,1-.8-1.3,6.64,6.64,0,0,1-.3-1.5c0-1.1-.2-2-.1-3.1Z"/><path class="cls-31" d="M219.5,290.84c.6-7.3.7-26,.5-28.6-.2-3.7-.7-10.9.3-15.2l1.4-3.5-1.4-2s-1.9,2.6-2.2,10.6c0,0-.7,6.2-1,7.2,0,0,2,3.2,1.7,5.2s-1.9,3.5-1.1,7.6c.6,3.1,1.4,11.2,1.7,14.6.1,1,0,5.3,0,5.3Z"/><path class="cls-3" d="M224.5,247.74a24.13,24.13,0,0,0,9.3-5.7l-.2-1.9c.5.2,1.1-.2,1.7-.6s1.1-2.4,1-4.6-1.9-1.6-1.9-1.6-.3-7.3-.2-7.7a4.22,4.22,0,0,0-1.3-3.7c-6.3-3.7-9.2.2-11.7.5s-2,4.1-2,4.1v4.9a3.78,3.78,0,0,0,.1,1.4,2.52,2.52,0,0,1,.1,1.5,8.06,8.06,0,0,0-.2,3c-.1,5.9,3.4,7,3.8,7.1S223.1,246.44,224.5,247.74Z"/><path class="cls-33" d="M218.7,220.94a2.48,2.48,0,0,0,2.6.4c1.6-.6,5.4-3.7,7.6-3s6.5,2.4,6.9,3.5a4.33,4.33,0,0,1,0,2.4s1.3.4,1.3,2.6-.2,6.6-.7,8.1c0,0-.6-2.2-2.4-1a4.14,4.14,0,0,0-1,2.8l-.1,1.6-1.6.7.2-1.7a2.39,2.39,0,0,0-.5-1.4,6.91,6.91,0,0,1-1.6-2.9,2.45,2.45,0,0,1,.8-2.5l2.3-2.2-3.6,2.1a4.63,4.63,0,0,1-4.2.1l-5.5-3.1C219.1,227.34,216.1,225.44,218.7,220.94Z"/><path class="cls-4" d="M223.3,244.54a7,7,0,0,0,5.6-.7,8.14,8.14,0,0,0,2.6-3.3s.4,2.2-3,3.9c-1.4.7-2.5.6-3.5,1.2-.5.3-.7,1-.6,2A5.1,5.1,0,0,1,223.3,244.54Z"/><path class="cls-4" d="M219.4,232.64a7.07,7.07,0,0,0,3,1.8,24.77,24.77,0,0,0,4,1.5c2.4.3,3-.3,3-.3s-.3,1.5-3,1a15,15,0,0,1-6.5-3A6.91,6.91,0,0,0,219.4,232.64Z"/><path class="cls-4" d="M233.7,240.14a1.69,1.69,0,0,1-.7-.3c-.2-.1-.4-.6-.7-.7,0,0,.2,3.9-2.1,5.8a23.63,23.63,0,0,0,3.7-3Z"/><path class="cls-27" d="M226.4,311.24l3.9,2.2a.75.75,0,0,0,.9,0l20.5-12.2a.56.56,0,0,0,0-.9l-3.8-2.1a1.28,1.28,0,0,0-1.2,0c-1.8,1-7.3,4.3-12.2,7.1-3.5,2.1-6.7,3.9-8.1,4.9A.61.61,0,0,0,226.4,311.24Z"/><path class="cls-4" d="M233.4,235.74s.8-1.6,1.7-1.1.4,3.5-.3,4.1a.94.94,0,0,1-1.6-.6s0-.7.6-.8,0,.9.5.7a2.53,2.53,0,0,0,.7-2.4c-.3-.6-.3,1.3-.4,1.5s-1,0-.7-.6C234.1,235.74,233.8,235.64,233.4,235.74Z"/><path class="cls-31" d="M212.2,278.14s.6,1,2.8,1.5l-.1.4C214.8,280,212.7,279.64,212.2,278.14Z"/><path class="cls-3" d="M236.9,295.14a15.35,15.35,0,0,0-1.7,3.9s-.8,1.8-.4,2.7.5,1.4.5,1.4l1.6-1.1s-.4-1.6.5-1.6,1.4,2.2,1.6,2.7-1.6,1.7-1.4,2.2.7,1.6,2.4.3c0,0,2.5-1.3,3.3-2.9s-.7-5.7-1.4-6.9C241.8,296.14,239.2,297.74,236.9,295.14Z"/><path class="cls-31" d="M236.9,253a14.22,14.22,0,0,0-1.3,5,10.85,10.85,0,0,0,.8,4.7,88.22,88.22,0,0,1,2,8.9,9.86,9.86,0,0,1,.3,2.4v2.4c0,1.6-.1,3.2-.2,4.8-.2,3.2-.3,6.4-.6,9.6h0a20.26,20.26,0,0,0-.6,4.2v-.1c.1.2.3.3.5.5a1.33,1.33,0,0,0,.8.3,4.67,4.67,0,0,0,1.7.3,4.19,4.19,0,0,0,1.6-.4,3,3,0,0,0,1-1.4h0c.6-2.2,1.1-4.3,1.7-6.4-.4,2.2-.9,4.4-1.3,6.5h0a4.25,4.25,0,0,1-1,1.7,3,3,0,0,1-1.8.6,6.28,6.28,0,0,1-1.9-.3,2.72,2.72,0,0,1-1.7-1.2h0V295a21.18,21.18,0,0,1,.5-4.4v.1c.3-3.1.3-6.4.5-9.6.1-1.6.2-3.2.2-4.8a19.22,19.22,0,0,0,0-2.4,19.67,19.67,0,0,0-.3-2.4c-.6-3.1-1.3-6.3-2.1-9.3A10.39,10.39,0,0,1,236.9,253Z"/><path class="cls-31" d="M237.5,290.84a9.38,9.38,0,0,0,1.5.6,4,4,0,0,0,1.5.3,7.57,7.57,0,0,0,1.5.1c.5,0,1-.1,1.6-.1a7.14,7.14,0,0,1-1.5.8,3.22,3.22,0,0,1-1.7.1,5.78,5.78,0,0,1-1.7-.6A2.34,2.34,0,0,1,237.5,290.84Z"/><path class="cls-34" d="M219.9,281a17.89,17.89,0,0,0,9.4,4l-.2,2v1.8s-6.3-.9-9.3-3.7Z"/><path class="cls-35" d="M222.3,282.74a6.79,6.79,0,0,0,0,4.2,7.16,7.16,0,0,0,4.2,1.4l.1-3.9A13.33,13.33,0,0,1,222.3,282.74Z"/><path class="cls-36" d="M222.6,289.14l1.7,7.2,4.2,2.8-2.6-.7a12.06,12.06,0,0,1,1.5,6.3v2s.3-6.5-3.7-9.4Z"/><path class="cls-4" d="M210,289.84s1.1,1.2,2.3-.7a4.78,4.78,0,0,0,.5-1.3c.1-.5.2-.9.2-.9s.6.2.1,1.4a14.81,14.81,0,0,1-.8,1.7,1.94,1.94,0,0,1-2,.5s-.6-.2-.5-.5Z"/><path class="cls-37" d="M238.2,301.24l-3.3,2.3s-.8.3-.8,1.9V308l1.6.6,1.3-.7v-1.7s-.1-1,.3-1.4,1.1-.7,1.7-1.2A5.42,5.42,0,0,0,238.2,301.24Z"/><ellipse class="cls-38" cx="223.6" cy="278.04" rx="0.5" ry="0.7"/><path class="cls-4" d="M213.1,287.14s1.1.1,1.3-.6v.9s-.3.3-1.3.3Z"/><path class="cls-31" d="M229.1,286s.4-2.7.7-8.6,2.7-12.9,2.7-13.2-1.2-4-1.2-4,1.5-.1,2-.7-.5-3.7.9-7.2,2.2-5.5,1.8-8.6c0,0-.6-3-2.4-3.6l.2,1.9s2,1.1-1,6.3c0,0-4.3,6.9-4.1,14.2,0,0,.3,8,.1,10.2S229.5,283.54,229.1,286Z"/><path class="cls-39" d="M235.6,308.54l1.3-.7v-2.1a1.49,1.49,0,0,1,.8-1.4l1.3-1a8.74,8.74,0,0,0-.3-1.4,30.28,30.28,0,0,1-2.4,1.9C235.2,304.74,235.6,308.54,235.6,308.54Z"/><path class="cls-31" d="M234.1,256a9,9,0,0,0,.6,3.1l.7.9a7.57,7.57,0,0,1,.1,1.5A5.43,5.43,0,0,1,234,259a7.72,7.72,0,0,1-.2-1.5A4,4,0,0,1,234.1,256Z"/><path class="cls-40" d="M219.9,281s2.9,3.1,9.4,4c0,0-.3-6.2-.4-8.4s.1-10.2,0-10.9a28.77,28.77,0,0,1,1.9-13s1.4-3.3,2.5-5.2a20.69,20.69,0,0,0,1.2-3.3s-4.6,5.2-8.2,7a20.18,20.18,0,0,0,6.9-5s-3.7,5.5-4.4,10.2-.4,19.5-.4,21.6.3,6.1.3,6.1S225.2,284,219.9,281Z"/><path class="cls-40" d="M221.1,244.74a39.3,39.3,0,0,0-.3,4.8,3.14,3.14,0,0,0,1.2-.4,6.18,6.18,0,0,0,1,2.4s-1.3,8.5-1.6,10.5l1.3-10.3-1-1.8a7.1,7.1,0,0,1-1.4.2,51.53,51.53,0,0,0-.2,7.4,180.51,180.51,0,0,1-.4,23.7s.1-13.6.2-15.4a75.21,75.21,0,0,0-.3-8.7s-.2-7,.5-9.9C220.2,247,221,244.94,221.1,244.74Z"/><path class="cls-41" d="M222.3,249.54s1.6-.9,2.1-1.3l1,2.2a7.59,7.59,0,0,1-.9,1.5l-1.3-.5,1.3.8,1.9,16.8s-2,4.3-2.8,5.9c0,0,2.6-3.6,3.2-5.7,0,0-2.2-16.7-1.9-17.5a14.17,14.17,0,0,0,1.1-1.6,11.14,11.14,0,0,0-1.4-2.5l-2.3,1.3C222.1,249,222,249.24,222.3,249.54Z"/><polygon class="cls-42" points="222.6 254.64 224.9 257.04 225.2 259.34 222.2 257.04 222.6 254.64"/><polygon class="cls-42" points="221.9 259.54 225.6 262.64 225.9 265.44 221.5 261.94 221.9 259.54"/><polygon class="cls-42" points="221.2 264.34 226.2 268.24 226.3 269.14 225.6 270.64 220.9 266.74 221.2 264.34"/><path class="cls-42" d="M221.6,270.34l3.2,2.1-1.3,2.6A23.91,23.91,0,0,1,221.6,270.34Z"/><path class="cls-36" d="M224,297.54s-2.8-.7-3.6-2c0,0,2.5.9,3.6,1.2Z"/><path class="cls-4" d="M236.9,295.14s.4,1.4,3.7,1.5c0,0,1.1,0,1.4-.5a14.24,14.24,0,0,1,1.5,4.9s-1.2-2.6-2.5-3.1a5.23,5.23,0,0,1-4.4-2.4Z"/><path class="cls-4" d="M239.1,303.54s-.5-2.8-1.7-3.1c0,0,1.8-.8,1.7,3.3"/><path class="cls-43" d="M96.4,273.94c-3.8,4.6-6.3,19.1-6.3,19.1,1-1.6,5.2-2.3,5.2-2.3C95.1,287.74,96.3,273.94,96.4,273.94Z"/><path class="cls-44" d="M96.4,215.54s-2.4-1.3-4,2.1-.1,10.5,1,12.7,1.7,4.2,1.7,4.2l3-2a3.73,3.73,0,0,0,1.2-2.4c1.5-1.9.8-6.2.8-6.2Z"/><path class="cls-45" d="M93.1,320.14a5.72,5.72,0,0,0-.6,2.5c0,.5.5.8.8,1.2.9,1.2,5,4.1,5,4.1a5.77,5.77,0,0,1,4.5-1.7l-3.5-5.1Z"/><path class="cls-45" d="M109.2,313.74c-.1.2-.6,1.9-.7,2.1a2.44,2.44,0,0,0,.5,2.8l5.2,4.4,4.6-1.9c-1-1.7-4.2-5.7-4.2-5.7Z"/><path class="cls-45" d="M118,267.84l1,9.7c1.6-.7,2.1-1,2.5-3.7s-.5-7.9-.5-7.9Z"/><path class="cls-46" d="M93.2,320c.1-7,0-8.1.5-13.7.2-1.6.4-3,.7-5.4.5-6-.9-14.4-.9-18.1,0-5.1,2-8.5,2.3-8.6,16.5-2.6,23,14.8,23.1,14.8-.3,4.9-4.1,26.3-4.1,26.3-1.1,2.3-4.5,1.1-4.5,1.1a3.18,3.18,0,0,1-1.6-3.3s.7-10.7.7-14.5a16,16,0,0,0-.8-5.7s-3.9-2.3-4.4-.3c-.2.9-.2,3.7-1,7.4-.9,4.6-2.5,10.4-2.7,13a51.38,51.38,0,0,1-1.2,8.2,4,4,0,0,1-3.5,1.1C94.4,322,93.2,320.94,93.2,320Z"/><path class="cls-47" d="M118.6,291.94s-5.4,3.3-9.3,4l.1,1.4s5.3.1,8.8-2.7Z"/><path class="cls-47" d="M96.7,276.74s2.5,10.8.4,20.6c0,0,3.9,1.8,6.3,1.1a51.08,51.08,0,0,0,.6-5.5C104,291.94,98.8,274.94,96.7,276.74Z"/><path class="cls-48" d="M89.9,276.34c-.9,1.8-2.3,10.2-2.5,14.6s3.2,5.1,3.2,5.1a13.38,13.38,0,0,1,.1-4.4c.6-6.9,5.1-14.7,5.1-14.7l1.2-7.7,1,8.5a50.54,50.54,0,0,1,.8,10,60.54,60.54,0,0,1-1.3,9.5c2.5.5,10.2-.3,16.6-2.6s7.4-4.8,7.4-4.8a44.15,44.15,0,0,0-.2-5.6c-.3-2.4-2.4-16.4-2.4-16.4,3-1.2,3.4-2.5,3.3-4.6s-1.3-10-1.6-16.2-1.6-13.7-2.9-17.3-3.9-3.3-3.9-3.3a15.44,15.44,0,0,1-1.2,4.7,31.6,31.6,0,0,1,1.7,9.8c-.9,2.9-4.4,3.2-6.4,3.3s-4.1-2.9-5.7-6.7a7.62,7.62,0,0,0-5.6-4.3c-2.8,1.4-4.4,5.3-5.8,8.8s-3.2,15-3.5,19.9S90,276.24,89.9,276.34Zm5-14.2s.6-7.9,2.1-10.7a6.11,6.11,0,0,1,.3,5.1A47.62,47.62,0,0,1,94.9,262.14Z"/><path class="cls-49" d="M96.4,220c-1.3,0-1.8-1.3-1.9-3.8s1.5-2,1.5-2Z"/><path class="cls-45" d="M112.6,230.64c.9,2.1,2.3,8.8,1.8,10.5s-4.4,3.7-7,3-4.6-5.2-5.7-7.5-5.1-3.6-5.1-3.6c.3-.4,1.7-1,3.1-2.2s.7-4.4.7-4.4a1.63,1.63,0,0,0,1.7.6C104.4,229.34,112.7,230.54,112.6,230.64Z"/><path class="cls-45" d="M100.6,212c-5.7,2.6-1.2,12.5-1.2,12.5-.1,2.4,1.1,3.7,1.7,3.6,0,0,4.6,5.1,7.9,5.1s4.6-2.6,5.5-8.5c.1-.5-.2-1.3-.1-1.8a10.46,10.46,0,0,0,.4-1.7,19.82,19.82,0,0,0-.7-6.4C111.3,208,106.3,209.34,100.6,212Z"/><path class="cls-50" d="M91.6,262.14l3,12.7s5.5,5.1,6.2,5.1,5.1-2.4,5.5-3.5-1.7-10.1-2.1-11.4-10-7.4-10-7.4Z"/><path class="cls-51" d="M114.7,212.74a6.64,6.64,0,0,0-2.2-2.7,13.44,13.44,0,0,0-6.9-3.3c-2.5-.2-8.4,2.1-9.4,4.5a22.27,22.27,0,0,0-.4,5.2c.4,2-.3,2.4.5,5.1a15.23,15.23,0,0,0,1.2,2.9,2.14,2.14,0,0,0,2.3.2,2.44,2.44,0,0,0,1.8-.8c.3.8-.6,2.2,1,3a1.22,1.22,0,0,0,1.9-.9c-.7,1.3-2.3.6-1.9-1s2-1.2,2.5-3.7,1-2.4,4.8-3.2,3.9-3.4,3.9-3.4a5.42,5.42,0,0,1,.6,1.6A3.1,3.1,0,0,0,114.7,212.74Z"/><path class="cls-52" d="M114.7,222c-2.3,1.5-5.5,2.9-6.1,2.6a9.9,9.9,0,0,1-2.4-.1c.3-.5,1.1-.3,3-.5s5.7-2.5,5.7-2.5Z"/><path class="cls-52" d="M110.7,227.94c.7.3,1.3-.2,1.1-.6a5.29,5.29,0,0,1-.4-2.6c.2-.6.4-.3.4-.3a5.06,5.06,0,0,0,.3,2.8c.6,1.7-1.8,1.7-2,.8C110.3,227.54,110.7,227.94,110.7,227.94Z"/><path class="cls-52" d="M112.6,232.84c-.8,1.2-3.2,1.4-3.2,1.4s-6.1.2-6.7-5.6a8.21,8.21,0,0,0,4.9,4.1c3.8.9,5.2-1.6,5.2-1.6l.4,1.1s2.2,8.3,1.1,9.5A24.76,24.76,0,0,0,112.6,232.84Z"/><path class="cls-53" d="M116.9,236.84a10.73,10.73,0,0,1,2.5,5.1c.5,3-1.1,5.9-2.6,8.2s-1.2,3.5.7,8.7a20.82,20.82,0,0,1,1.4,9c-.4-8.2-3.5-9-3.7-12.9s1-4.7,3-9-1.5-7.8-1.8-9.1a12.11,12.11,0,0,1,.3-3.9A20.6,20.6,0,0,0,116.9,236.84Z"/><path class="cls-53" d="M102.9,251.34c3.7,1.9,7.4-.3,7.4-.3C106.6,255.14,102.9,251.34,102.9,251.34Z"/><path class="cls-52" d="M120,275.14l-.1-1.2s.5-1.3.6-1.6.1-3.1.1-3.1C121.5,272,119.9,275.14,120,275.14Z"/><path class="cls-52" d="M101.1,230.74a3.34,3.34,0,0,1-2.6,2.3c3.5,1.3,4.4,4.4,5.7,7a12.09,12.09,0,0,0,3.8,4.2c-2.7.1-4.6-4.3-4.6-4.3a35.25,35.25,0,0,0-2.6-4.4c-.9-1.2-4.1-2.4-4.1-2.4l3.1-2.2a3.09,3.09,0,0,0,.5-3.6c1,1.1,1.8.2,1.8.2C102.9,229.54,101.5,228.84,101.1,230.74Z"/><path class="cls-3" d="M90.9,277.94a17.5,17.5,0,0,0-.3,6.5c.3,2,1.3,2.4,2,3.1s1.5,1.3,2.1.3c.3-.4-.1-2.5-.1-3.9a9.92,9.92,0,0,1,.3-2.6c.2.9,0,4.7,1.1,4.4s.8-1.4.9-4a15,15,0,0,0-.7-4.9C94.2,279.24,90.9,277.94,90.9,277.94Z"/><path class="cls-6" d="M114,321.54c-2.9-1.2-5.7-5.2-5.7-5.2a2.51,2.51,0,0,0-.3,1.5c2,2.6,6.2,6.2,9.5,7.3s3.3-.9,3.3-.9a8.3,8.3,0,0,0-2.6-4.5A5.23,5.23,0,0,0,114,321.54Z"/><path class="cls-6" d="M98.4,327.34c-2.9-1.2-5.7-5-5.7-5a2.21,2.21,0,0,0-.4,1.3c1,1.6,6.3,6.1,9.6,7.2s3.3-.9,3.3-.9a7.41,7.41,0,0,0-2.6-4.3A4.39,4.39,0,0,0,98.4,327.34Z"/><path class="cls-48" d="M87.4,262.74c-.3,2.9,2,10.7,2,10.7l1.1,4.3a4.64,4.64,0,0,0,5.5-1.3c-1.4-5.2-1-19.4-1-19.4Z"/><polygon class="cls-54" points="101.3 266.54 95.1 261.64 94.9 262.14 101 266.74 100.4 279.74 100.8 280.04 101.2 266.84 101.3 266.54"/><path class="cls-54" d="M101,264.54l-5.7-4.3A17.56,17.56,0,0,0,101,264.54Z"/><path class="cls-54" d="M102.5,268.94c-.2-1.6-1.5-13.8-1.5-13.8-.9-15.5-2.4-17.2-2.4-17.2a3.94,3.94,0,0,0-4.4-2.6,2.32,2.32,0,0,1,1.7-1.6c3.3-.8,5,4.9,4.9,4.5,1.7,4.2,3.2,30.5,3.2,30.5C103.9,270.44,102.6,270.54,102.5,268.94Z"/><path class="cls-53" d="M97.1,249.34l.3-1.1c1.2-.7,2.3-3.4,2.3-3.4A6,6,0,0,1,97.1,249.34Z"/><path class="cls-53" d="M97.1,247.14c-1.5,3-2.6,11.2-3,14.8s1.9,14.5,1.9,14.5c-.8,2.1-5.5,1.3-5.5,1.3,5.1,1.8,6.2-1,6.2-1s-1.4-9.4-1.8-11.8,1.3-13.8,3.1-17.8.9-6.5.9-6.5A18.86,18.86,0,0,1,97.1,247.14Z"/><polygon class="cls-55" points="112.1 243.44 111.2 241.24 111.3 243.74 112.1 243.44"/><path class="cls-55" d="M100,224.64s-.2,2.1.5,2.3,1.2-.5.9-.8-.9-.6-.3-1.5S100,224.64,100,224.64Z"/><path class="cls-54" d="M101,266.74l1-1.4,2.2-.2s2.7,9.9,2,11.7a17,17,0,0,1-5.4,3.3l-.2-.8s3.5-.9,5.3-3.1a57.1,57.1,0,0,0-1.9-10.7l-1.6.1-1.4,1.7"/><path class="cls-56" d="M111.4,233.74s1.1,3.3,0,4.5-3,1.6-6-1.4a51.19,51.19,0,0,0-6.1-5.3s-.2-1.2,1.1,0,6.6,6.6,7.9,6.9,4,.7,2.5-4.5Z"/><circle class="cls-56" cx="110.4" cy="239.04" r="0.7"/><circle class="cls-56" cx="101.3" cy="227.74" r="0.5"/><path class="cls-52" d="M95,280.44a20,20,0,0,1-.4,2.6,16.45,16.45,0,0,0,.3,4.5s-.1-5,.3-5.5v1.6C95.1,283.74,95.9,281.54,95,280.44Z"/><path class="cls-52" d="M96.4,277.24s-.9,1.8-5.5.7a13.25,13.25,0,0,0-.4,5.2s.5-3.8,2-3.6,4-1.6,4.3.8l.2,1.6A9.12,9.12,0,0,0,96.4,277.24Z"/><path class="cls-52" d="M121.2,266.64a7.68,7.68,0,0,1-2.2,1.2l.4,2.6s1-2.2,1.6-1.4a4.9,4.9,0,0,1,.7,2.6A26.26,26.26,0,0,0,121.2,266.64Z"/><path class="cls-52" d="M114.7,315.34s-.5,2-4.1,1.2c0,0-1.5-.5-1.7-1.7a11.32,11.32,0,0,0-.6,1.6s.2-.8.9-.2a4.93,4.93,0,0,0,6.3.3Z"/><path class="cls-52" d="M99.4,321.14s-2.4,2.3-4.9.5c0,0-1.3-.7-1.3-1.5s-.4,1-.4,1a6.31,6.31,0,0,0,7.5,1.6Z"/><path class="cls-53" d="M117.6,234.24l-.9,2.8.7.9A24.06,24.06,0,0,0,117.6,234.24Z"/><path class="cls-51" d="M99.5,224.54a3.64,3.64,0,0,0,.8,3,6,6,0,0,1,.3,1.1s-1.8.7-4-6.3Z"/><path class="cls-57" d="M113.5,212.14a3.85,3.85,0,0,1-2.2,5.3C111.2,217.44,114.1,215.54,113.5,212.14Z"/><path class="cls-57" d="M102.4,221.74s-.4,3-3,2.7C99.4,224.44,101.9,223.44,102.4,221.74Z"/><path class="cls-58" d="M280.1,475.64s4.2.7,5.2,2.3c0,0-2.4-14.5-6.3-19.1C279.2,458.84,280.4,472.54,280.1,475.64Z"/><path class="cls-59" d="M275.4,408.84s-.7,4.3.8,6.2a3.54,3.54,0,0,0,1.2,2.4c1.1.8,3,2,3,2a29.48,29.48,0,0,1,1.7-4.2c1-2.2,2.6-9.3,1-12.7s-4-2.1-4-2.1Z"/><path class="cls-60" d="M276.2,506l-3.5,5.1a5.77,5.77,0,0,1,4.5,1.7s4.1-2.9,5-4.1c.3-.4.7-.7.8-1.2a5.72,5.72,0,0,0-.6-2.5Z"/><path class="cls-60" d="M260.8,500.24a60.69,60.69,0,0,0-4.2,5.7l4.6,1.9,5.2-4.4a2.44,2.44,0,0,0,.5-2.8c-.1-.2-.6-1.9-.7-2.1Z"/><path class="cls-60" d="M254.4,450.64s-1,5.1-.5,7.9,1,3,2.5,3.7l1-9.7Z"/><path class="cls-61" d="M279.6,507.14a3.71,3.71,0,0,1-3.5-1.1,70,70,0,0,1-1.2-8.2c-.2-2.6-1.8-8.3-2.7-13-.7-3.7-.8-6.5-1-7.4-.4-2-4.4.3-4.4.3a16,16,0,0,0-.8,5.7c0,3.8.7,14.5.7,14.5s.4,2.4-1.6,3.3c0,0-3.4,1.3-4.5-1.1,0,0-3.8-21.4-4.1-26.3.1,0,6.6-17.4,23.1-14.8.3.1,2.3,3.5,2.3,8.6,0,3.7-1.4,12.1-.9,18.1.2,2.4.5,3.8.7,5.4.5,5.6.4,6.8.5,13.7C282.3,505.84,281,506.84,279.6,507.14Z"/><path class="cls-62" d="M256.9,476.74s5.4,3.3,9.3,4l-.1,1.4s-5.3.1-8.8-2.7Z"/><path class="cls-62" d="M278.7,461.54s-2.5,10.8-.4,20.6c0,0-3.9,1.8-6.3,1.1a51.08,51.08,0,0,1-.6-5.5C271.4,476.74,276.6,459.74,278.7,461.54Z"/><path class="cls-63" d="M288.1,446.64c-.3-4.9-2-16.4-3.5-19.9s-3-7.4-5.8-8.8a7.33,7.33,0,0,0-5.6,4.3c-1.7,3.8-3.7,6.8-5.7,6.7s-5.5-.4-6.4-3.3a31.6,31.6,0,0,1,1.7-9.8,15.44,15.44,0,0,1-1.2-4.7s-2.6-.3-3.9,3.3-2.5,11.1-2.9,17.3-1.5,14.1-1.6,16.2.3,3.4,3.3,4.6c0,0-2,13.9-2.4,16.4a43.84,43.84,0,0,0-.2,5.6s1,2.5,7.4,4.8,14,3.1,16.6,2.6a49.48,49.48,0,0,1-1.3-9.5,74.9,74.9,0,0,1,.8-10l1-8.5,1.2,7.7s4.4,7.8,5.1,14.7a13.38,13.38,0,0,1,.1,4.4s3.4-.7,3.2-5.1-1.7-12.8-2.5-14.6C285.4,461.14,288.3,451.54,288.1,446.64Zm-10-5.2a6.46,6.46,0,0,1,.3-5.1c1.5,2.8,2.1,10.7,2.1,10.7S279.2,444.34,278.1,441.44Z"/><path class="cls-64" d="M279.4,399.14s1.6-.5,1.5,2-.6,3.8-1.9,3.8Z"/><path class="cls-60" d="M273.3,412.14a1.63,1.63,0,0,0,1.7-.6s-.7,3.1.7,4.4,2.8,1.7,3.1,2.2c0,0-4,1.3-5.1,3.6s-3.2,6.8-5.7,7.5-6.5-1.3-7-3,1-8.4,1.8-10.5C262.8,415.44,271.1,414.24,273.3,412.14Z"/><path class="cls-60" d="M261.3,399.64a19.82,19.82,0,0,0-.7,6.4,13.64,13.64,0,0,0,.4,1.7,10.28,10.28,0,0,0-.1,1.8c.9,5.9,2.2,8.5,5.5,8.5s7.9-5.1,7.9-5.1c.6.1,1.8-1.2,1.7-3.6,0,0,4.4-9.8-1.2-12.5S264.2,392.84,261.3,399.64Z"/><path class="cls-48" d="M281.3,449.14s-9.6,6.1-10,7.4-2.4,10.4-2.1,11.4,4.8,3.4,5.5,3.5,6.2-5.1,6.2-5.1l3-12.7Z"/><path class="cls-24" d="M261.1,400.84a6.65,6.65,0,0,1,.6-1.6s.1,2.6,3.9,3.4,4.3.7,4.8,3.2,2.2,2.1,2.5,3.7-1.2,2.4-1.9,1a1.22,1.22,0,0,0,1.9.9c1.6-.8.7-2.2,1-3a2.44,2.44,0,0,0,1.8.8,2.14,2.14,0,0,0,2.3-.2,15.23,15.23,0,0,0,1.2-2.9c.9-2.7.1-3,.5-5.1a22.27,22.27,0,0,0-.4-5.2c-1-2.4-6.9-4.7-9.4-4.5a13.44,13.44,0,0,0-6.9,3.3,6.64,6.64,0,0,0-2.2,2.7C259.7,399.84,261.1,400.84,261.1,400.84Z"/><path class="cls-65" d="M260.6,406.34s3.9,2.3,5.7,2.5,2.6,0,3,.5a9.9,9.9,0,0,1-2.4.1c-.6.3-3.8-1.1-6.1-2.6Z"/><path class="cls-65" d="M265.2,412.84c-.2.9-2.6,1-2-.8a5.09,5.09,0,0,0,.3-2.8s.3-.3.4.3a6.77,6.77,0,0,1-.4,2.6c-.2.4.4,1,1.1.6C264.7,412.84,265.1,412.34,265.2,412.84Z"/><path class="cls-65" d="M261.3,426.64c-1.1-1.2,1.1-9.5,1.1-9.5l.4-1.1s1.5,2.5,5.2,1.6a8.21,8.21,0,0,0,4.9-4.1c-.7,5.8-6.7,5.6-6.7,5.6s-2.5-.2-3.2-1.4C262.8,417.64,261.1,421.94,261.3,426.64Z"/><path class="cls-66" d="M258.7,417.84s.7,2.6.3,3.9-3.9,4.8-1.8,9.1,3.3,5.1,3,9-3.3,4.7-3.7,12.9a20.93,20.93,0,0,1,1.4-9c1.9-5.2,2.2-6.4.7-8.7s-3.1-5.1-2.6-8.2a10.73,10.73,0,0,1,2.5-5.1A14.45,14.45,0,0,0,258.7,417.84Z"/><path class="cls-66" d="M265.1,435.94s3.7,2.2,7.4.3A4.92,4.92,0,0,1,265.1,435.94Z"/><path class="cls-65" d="M255,454.14s0,2.9.1,3.1.6,1.6.6,1.6l-.1,1.2S253.9,456.84,255,454.14Z"/><path class="cls-65" d="M273.4,412.44s.8,1,1.8-.2a3.09,3.09,0,0,0,.5,3.6l3.1,2.2s-3.2,1.1-4.1,2.4a28.58,28.58,0,0,0-2.6,4.4s-1.9,4.4-4.6,4.3a12.09,12.09,0,0,0,3.8-4.2c1.2-2.5,2.2-5.7,5.7-7a3.15,3.15,0,0,1-2.6-2.3C273.9,413.64,272.5,414.34,273.4,412.44Z"/><path class="cls-60" d="M279.2,461.84a15,15,0,0,0-.7,4.9c.1,2.6-.2,3.7.9,4s1-3.5,1.1-4.4a9.92,9.92,0,0,1,.3,2.6c0,1.4-.4,3.4-.1,3.9.6,1,1.4.4,2.1-.3s1.7-1.1,2-3.1a15.62,15.62,0,0,0-.3-6.5C284.6,462.84,281.3,464.14,279.2,461.84Z"/><path class="cls-51" d="M257.2,504.64a8.48,8.48,0,0,0-2.6,4.5s0,2,3.3.9,7.6-4.7,9.5-7.3a3.73,3.73,0,0,0-.3-1.5s-2.8,4-5.7,5.2A4.36,4.36,0,0,0,257.2,504.64Z"/><path class="cls-51" d="M272.9,510.64a7.53,7.53,0,0,0-2.6,4.3s0,2,3.3.9,8.5-5.7,9.6-7.2a2.21,2.21,0,0,0-.4-1.3s-2.8,3.7-5.7,5C277.2,512.14,275.6,510.14,272.9,510.64Z"/><path class="cls-63" d="M280.5,441.94s.3,14.2-1,19.4a4.64,4.64,0,0,0,5.5,1.3l1.1-4.3s2.3-7.8,2-10.7Z"/><polygon class="cls-67" points="274.2 458.24 274.6 471.54 275.1 471.24 274.5 458.14 280.6 453.64 280.4 453.14 274.1 458.04 274.2 458.24"/><path class="cls-67" d="M280.2,451.74l-5.7,4.3A18.72,18.72,0,0,0,280.2,451.74Z"/><path class="cls-67" d="M271.8,459.14s1.3-31.8,3-36c-.1.3,1.6-5.3,4.9-4.5a2.48,2.48,0,0,1,1.7,1.6,3.94,3.94,0,0,0-4.4,2.6s-1.6,1.7-2.4,17.2c0,0-1,17.8-1.2,19.4S271.8,460.84,271.8,459.14Z"/><path class="cls-66" d="M275.9,429.74s1,2.7,2.3,3.4l.3,1.1A5.17,5.17,0,0,1,275.9,429.74Z"/><path class="cls-66" d="M276.6,425.44s-.9,2.6.9,6.5,3.6,15.3,3.1,17.8-1.8,11.8-1.8,11.8,1.1,2.9,6.2,1c0,0-4.7.8-5.5-1.3,0,0,2.4-11,1.9-14.5s-1.6-11.8-3-14.8A14.83,14.83,0,0,1,276.6,425.44Z"/><polygon class="cls-65" points="263.4 428.34 264.2 426.14 264.2 428.64 263.4 428.34"/><path class="cls-65" d="M275.4,409.44s.2,2.1-.5,2.3-1.2-.5-.9-.8.9-.6.3-1.5S275.4,409.44,275.4,409.44Z"/><path class="cls-67" d="M274.5,458.34l-1-1.4-2.2-.2s-2.7,9.9-2,11.7a17,17,0,0,0,5.4,3.3l.2-.8s-3.5-.9-5.3-3.1a57.1,57.1,0,0,1,1.9-10.7l1.6.1,1.4,1.7"/><path class="cls-68" d="M264,418.54s-1.1,3.3,0,4.5,3,1.6,6-1.4a51.19,51.19,0,0,1,6.1-5.3s.2-1.2-1.1,0-6.6,6.6-7.9,6.9-4,.7-2.5-4.5Z"/><circle class="cls-68" cx="265" cy="423.94" r="0.7"/><circle class="cls-68" cx="274.2" cy="412.64" r="0.5"/><path class="cls-65" d="M280.5,465.34a20,20,0,0,0,.4,2.6,16.45,16.45,0,0,1-.3,4.5s.1-5-.3-5.5v1.6C280.3,468.64,279.6,466.34,280.5,465.34Z"/><path class="cls-65" d="M279.1,462s.9,1.8,5.5.7a13.25,13.25,0,0,1,.4,5.2s-.5-3.8-2-3.6-4-1.6-4.3.8l-.2,1.6A9.22,9.22,0,0,1,279.1,462Z"/><path class="cls-65" d="M254.3,451.44a7.68,7.68,0,0,0,2.2,1.2l-.4,2.6s-1-2.2-1.6-1.4a4.9,4.9,0,0,0-.7,2.6A19.84,19.84,0,0,1,254.3,451.44Z"/><path class="cls-65" d="M260.7,500.14s.5,2,4.1,1.2c0,0,1.5-.5,1.7-1.7a11.32,11.32,0,0,1,.6,1.6s-.2-.8-.9-.2a4.8,4.8,0,0,1-6.3.3Z"/><path class="cls-65" d="M276.1,506s2.4,2.3,4.9.5c0,0,1.3-.7,1.3-1.5s.4,1,.4,1a6.31,6.31,0,0,1-7.5,1.6Z"/><path class="cls-66" d="M257.8,419.14l.9,2.8-.7.9C258.1,422.84,257.8,420.44,257.8,419.14Z"/><path class="cls-24" d="M275.9,409.44a3.64,3.64,0,0,1-.8,3,6,6,0,0,0-.3,1.1s1.8.7,4-6.3Z"/><path class="cls-59" d="M262,396.94a3.85,3.85,0,0,0,2.2,5.3A5.31,5.31,0,0,1,262,396.94Z"/><path class="cls-59" d="M273,406.54s.4,3,3,2.7A4.81,4.81,0,0,1,273,406.54Z"/><path class="cls-4" d="M222.7,236.74s-.9,3.4-.2,4a1.77,1.77,0,0,0,1.6.3S222.4,241.34,222.7,236.74Z"/><path class="cls-3" d="M414.4,303.14a69.24,69.24,0,0,0,.4,9.7c.4,3.7-.6,13.5-.6,14.2a4.87,4.87,0,0,1,2.2,3.4c.3,2.2.5,4.2-.3,4.6s-1.1.3-1.1.3.2,4-2.9,3.6l-1.6-10,.1-24Z"/><path class="cls-4" d="M412.1,329.74a6.91,6.91,0,0,0,2.9,1.8s.1,3,.7,3.5c0,0-.7,1-1.2-2.9A2.68,2.68,0,0,1,412.1,329.74Z"/><path class="cls-69" d="M393.5,282.24a7.5,7.5,0,0,0-3.6,1.7c-2.1,1.6-5.2,1.6-7,3.7s-2,5.2-2.4,9-3.6,4.6-1.2,13.8c0,0,.8,3.7,1.1,6s1.7,5.2,5.3,5.5L403,292Z"/><path class="cls-70" d="M387.2,393.44a1.69,1.69,0,0,0-1.2,1.7c.1,1.3,1.7,2.9,3,4.2,1.7,1.7,4.1,3.8,5.9,4.3s4.6-.9,3.6-3l-7.3-7.1h-4Z"/><path class="cls-70" d="M400.3,386.14a2.16,2.16,0,0,0-1.7,2.1s-.1.6,1.4,2c2,1.9,3.8,3,5.1,4.2,1.1,1.1,3.2,2.6,5.1,2.3s3-2.2,1.8-3.5C412,393.24,402.9,384.94,400.3,386.14Z"/><path class="cls-3" d="M400.2,385.44s-1.6,1.9.6,3.9l7.6,5.9s1.8.7,2.8-.3c1.3-1.3,1.6-2.4-.6-4.5l-3.5-3.9C406.9,386.54,402.2,382.94,400.2,385.44Z"/><path class="cls-3" d="M387.6,391.94s-1.5,1.9-.4,3.2,5,6.4,7.6,7,4.8-1,3.3-3l-5.1-6.5-4.8-.4"/><path class="cls-71" d="M412.2,341.64s.8,22.4.8,24.4-4.6,17.2-5.2,19.8a2.21,2.21,0,0,1-1.5,2.4c-1.5.4-5.9.9-7.1-3,0,0,4.2-15,4.4-18.3s-.6-9.1-2.2-14.5c0,0-.9,17.7-1.6,20.3s-5.5,20.3-5.5,20.3-.6,3-4.8,1.9-3.3-4.1-3.3-4.1,4.5-15.6,4.5-25.1c0,0-1.6-32.2-1.3-35.5,0,0,17.1,1.2,21.4-1.7C410.7,328.54,412.1,331.64,412.2,341.64Z"/><path class="cls-72" d="M406.1,335.44l-1.7,7.2-4.2,2.8,2.6-.7a12.06,12.06,0,0,0-1.5,6.3v2s-.3-6.5,3.7-9.4Z"/><path class="cls-64" d="M388,314.44l-.3,15.4s2.8,5.8,11.8,4.7c0,0,8.5-1.2,11.6-6.7,0,0,.9-19.7.8-22.4Z"/><path class="cls-64" d="M393.7,289.74l.8-1.1s-1.4-.6-4.9,2.7l-3.4,3s-1.9,1.6-1.9,6.8a58.85,58.85,0,0,1-1.7,12.5c0,.5,3.3,4.5,8,2.4,0,0,14.5.2,20.9-5l.3-5.8s1.7.6,3-2.4l-.7-13.5s-.6-7.3-5.4-7.2Z"/><path class="cls-3" d="M384.1,313.64s-1.3,4.1.3,13.7c0,0,3.2,12.6,2.8,14.6a3.74,3.74,0,0,0,4.5-1s-1.9-14.1-1.7-18.9.2-7.2.2-7.2S388.8,311,384.1,313.64Z"/><path class="cls-3" d="M394.5,278.34s-1.7-.3-1.6,1.1.5,4.2,1,4.9,1.6.6,1.6.6a6.57,6.57,0,0,1-.3,3.2l-1.3,1.6a10.26,10.26,0,0,1,4.2,4.5c1.1,2.9,1.7,4.2,3,4s1.1-.1,1.1-.1l1.6,4.9.7-5.9a3.31,3.31,0,0,0,1.6-2.6c.3-1.9-1-6.1-1-6.1Z"/><path class="cls-3" d="M408.5,269.64s1.3-.7,1.1,3.6c0,0,.3,4.8-.1,5.7-.2.3-.3.8-.5,1.1a1.94,1.94,0,0,0-.2,1.5,2,2,0,0,1,0,1.7l-1.9,5.1a1.76,1.76,0,0,1-.9,1l-1.3.8a2.78,2.78,0,0,1-1.8.3,7.14,7.14,0,0,1-5.2-4l-1.7-1.8s-.9,1.3-2.2-.3-1.2-4.9-.8-6.4S399,263.44,408.5,269.64Z"/><path class="cls-73" d="M402.2,278.74s7.9-1.6,7.2-7.1l.2,3.3s1.6.3,1.3-3.9a3.72,3.72,0,0,0-3.2-3.7s-.9-2.1-4.1-2.3c0,0-3.6-1.9-6.3.5a3.29,3.29,0,0,0-2.6,1.3,4.89,4.89,0,0,0-2.8,2.5c-.9,1.6-.3,2-1,3.1,0,0-1.5,2,.5,7.1.5,3.2,1.8,3.1,1.8,3.1s-1-4.5.8-4c0,0,1.6.3,1.7,1.3s-.2,2.8.6,3.3l1.1.4s-.3-2.2.6-2.9a3.14,3.14,0,0,0,1-4.2s-1.7-3.3-.1-3.7c0,0-.9.9.2,2.6a4.68,4.68,0,0,1,.9,3.7s1.4-.7.6-2.8,1.2-4,1.2-4-1.5,1.4-1,2.9.8,3.1-.2,4.1c0,0,1.2-.2,1.7-2.8a5.29,5.29,0,0,1,2.4-3.7,5.27,5.27,0,0,0-2,3C402.8,277.44,402.9,278.24,402.2,278.74Z"/><polygon class="cls-74" points="395.8 280.04 402.2 281.94 402.2 282.64 396 280.74 395.8 280.04"/><path class="cls-64" d="M382.7,313.64s1.6,4.1,8.7,2.3c0,0,1.4-7.2,1.7-9.2s1.9-6.6-.1-8.5c0,0-5.3,2.4-8.3-.3a24.42,24.42,0,0,0,0,5.1C385.1,305.44,383.9,311.54,382.7,313.64Z"/><path class="cls-4" d="M400.9,280.94a9.41,9.41,0,0,0,2.8.1,38,38,0,0,0,6-2.4l-.3.7a40.66,40.66,0,0,1-5.5,2.1C402.3,281.64,401.5,280.94,400.9,280.94Z"/><ellipse class="cls-75" cx="404.01" cy="282.73" rx="2.1" ry="1.7" transform="translate(52.16 628.22) rotate(-79.46)"/><ellipse class="cls-76" cx="404" cy="282.64" rx="1.8" ry="2.1"/><ellipse class="cls-75" cx="409.07" cy="281.43" rx="2.1" ry="1.7" transform="translate(57.57 632.12) rotate(-79.46)"/><ellipse class="cls-76" cx="409.07" cy="281.43" rx="2.1" ry="1.7" transform="translate(57.57 632.12) rotate(-79.46)"/><path class="cls-76" d="M405.8,282s.6-1.2,1.6-.4"/><path class="cls-4" d="M407,282.14a5.36,5.36,0,0,1,.2,3.9l-1.2.6-1.4-.5,1.5.1.7-.5A11.21,11.21,0,0,0,407,282.14Z"/><path class="cls-4" d="M397.7,286.14s2.2,3.7,5.9,4.2l1.6-.5s2,2.7,1,5.5c0,0-.1,1.2-1.9,1.8l-.7,5.9-.2-6.2s3.1-1.3,1.7-5.2l-2,.4C403.2,292,397.3,292.24,397.7,286.14Z"/><path class="cls-4" d="M395.4,284.94s.4.2.8-.4a28.83,28.83,0,0,1-.3,3.5c-.2.7-.7,1,1,3.7a16.52,16.52,0,0,1,2.2,5.6s-1.2-4-2.2-4.8-3.5-2.6-3.5-2.6a5.69,5.69,0,0,0,1.9-3C395.5,284.94,395.4,284.94,395.4,284.94Z"/><path class="cls-3" d="M391.6,340.84s.5.9,2,3.3a8.62,8.62,0,0,1,.5,3.1,8.51,8.51,0,0,1-.4,1.7c-.2.4-1.4.8-1.6-.3s.3-3-.6-3-.4,2.5-.3,3.4c.1.5.9,3,.7,3.6s-1.3.9-3-.3a11.63,11.63,0,0,1-2.2-4.4c-.4-1.7,0-3.8.5-6.2C387.4,341.94,389.4,342.74,391.6,340.84Z"/><path class="cls-70" d="M404.1,392.14s1.3-3.6,4.9-3.3a7.85,7.85,0,0,1,1.8,1.9,4.65,4.65,0,0,0-4.1,3.7Z"/><path class="cls-70" d="M390.2,398.94s2.1-4.1,5.5-2.9a4.51,4.51,0,0,1,1.6,2s-2.6-.7-4.6,3C392.4,401.14,391.1,399.94,390.2,398.94Z"/><path class="cls-77" d="M393.4,289.74s3,1.7,3.7,3,2,5.1,3,5.2a7.39,7.39,0,0,0,1.7,0l1.6,4.8.7-5.8s2.6-.9,2-4.4a4.69,4.69,0,0,0-1.1-2.8l.5-.2a10.67,10.67,0,0,1,1.2,3.8c.1,1.8-1,3.6-2.2,3.9l-.8,7.2-2.3-5.9a2.76,2.76,0,0,1-2.6-1c-.9-1.3-1.6-4.4-2.4-5.1a32.88,32.88,0,0,1-3.2-2.6Z"/><path class="cls-77" d="M405.5,303.64a7.93,7.93,0,0,0,4.4-2.9,5.44,5.44,0,0,1-3.8,3.4s-.3,4.4.3,5.3,3-.3,3.5-1.6l.1-5.7.3,6.2s-2,3.4-4.7,1.4Z"/><ellipse class="cls-78" cx="401.02" cy="299.84" rx="0.5" ry="0.7" transform="translate(-73.16 138.99) rotate(-18.05)"/><ellipse class="cls-78" cx="402.72" cy="304.23" rx="0.5" ry="0.7" transform="translate(-74.44 139.73) rotate(-18.05)"/><path class="cls-77" d="M393.5,298.54s1.6,1.8.3,7.2c0,0-1.1,4.6-1.2,6a29.48,29.48,0,0,1-.8,4.4s-2.2,2.2-7.6-.7c0,0,5.4,1.7,7.1.3,0,0,.4-2,.7-3.7s1.1-6,1.4-7.5S394.1,299.54,393.5,298.54Z"/><path class="cls-69" d="M386,288.44s8.7,2.9,9.6,13.9c0,0,.3,8.5-3.2,11.2L392,316s4.4-.9,5.7-7.4a23.15,23.15,0,0,0-7.1-21.6A3.83,3.83,0,0,0,386,288.44Z"/><path class="cls-69" d="M407.3,287.34s2.7,2.6,2.6,12.3c0,0,.1,6,2,8.2,0,0,.1-13.9-.4-17.1-.6-3.4-1.6-4.7-3.3-6C408.3,284.64,407.7,286.14,407.3,287.34Z"/><path class="cls-4" d="M395.2,280.64a1,1,0,0,0-.6-.9c-.6-.3-1.3-.4-1.1,1.3s.8,2.7,1.4,2.8.9-.9.2-1.4-.3-1.1,0-1.1-1-.7-.9.2.3,1.4.3,1.4a3.11,3.11,0,0,1-.5-2.6C394.3,279.14,394.6,281,395.2,280.64Z"/><path class="cls-72" d="M404.6,342.74a25.55,25.55,0,0,0,2.7-1.6,21,21,0,0,1-3.7,3.6Z"/><path class="cls-79" d="M388.2,290.54s2.6-1.5,6.6,7c0,0,4.1,10.3-2.5,16.1,0,0,6.7-8.5.7-18.2C393,295.44,391.5,291.64,388.2,290.54Z"/><path class="cls-79" d="M381.9,289.54s2.3,1.7,4.1.4,7-4.6,7.8-4.6c0,0-2-.3-7.9,4C385.9,289.44,384.3,290.54,381.9,289.54Z"/><path class="cls-79" d="M407.3,287.34s2,1.3,2.3,5.2.5,10.5,1,11.9,1.3,3.4,1.3,3.4-2.2-1.6-2.6-10.2-.8-8.5-2.2-9.8Z"/><path class="cls-79" d="M382.9,293.44a11.56,11.56,0,0,0-.4,5c.5,2.1.3,3.8-.9,6.5s.4,9.1.4,9.1-2.1-6.1-.7-10.5.3-4.5.3-5.9S382,293.14,382.9,293.44Z"/><path class="cls-77" d="M390.8,333.14s4.3,4.1,14.1-.1c0,0,5-2.1,6.2-5.2l.8-20-1.2,20s-2.6,4.5-9.6,5.9c0,0-7.7,1.4-10.5-1.5Z"/><path class="cls-4" d="M383.8,315a10.36,10.36,0,0,0,6.3,1.7l-.1,3.7s-.4-2.3-2.3-2.7-2.8-.6-3.4.1-.6,2.2-.5,3.8A25.08,25.08,0,0,1,383.8,315Z"/><path class="cls-4" d="M414.3,303.74a2.26,2.26,0,0,1-2.5,1.5s.1,7.2-.2,9.3l-.5,13.4,1.6-20.9a4.45,4.45,0,0,0,1.5-2.1v-1.2Z"/><path class="cls-4" d="M386.9,393.34a6.3,6.3,0,0,0,5.2,1.5,3,3,0,0,0,1.7-1.2l.7.9a6.18,6.18,0,0,0-1.9,1c-1.1.8-5,.4-5.7-.8A1.76,1.76,0,0,1,386.9,393.34Z"/><path class="cls-4" d="M399.7,386.34s1.3,2.4,5.2,2c0,0,1.9,0,2.5-1.2,0,0,.7,1.7-2.6,2a7.14,7.14,0,0,1-5-1.1A2.77,2.77,0,0,1,399.7,386.34Z"/><polygon class="cls-74" points="410.6 280.74 408.9 280.24 408.8 280.64 410.7 281.24 410.6 280.74"/><path class="cls-80" d="M24.9,228.14s3.8,1.9,5.9,3.3c0,0,1.3.6,1,1.7,0,0-.3,2.1-3.2,1.7-1.3-.2-3.3-.1-7.8-3.4a3,3,0,0,1-1.6-2.4c.1-1.6,3.8-1.8,5.7-.9"/><path class="cls-81" d="M20.5,231.24s4.4,4,9.2,3.7c0,0-6.4-1.4-7.5-3.6-.8-1.2.2-1.6.2-1.6l-1-.9-.7-.2-.5.2A8.82,8.82,0,0,0,20.5,231.24Z"/><path class="cls-80" d="M15.7,228.94l-.1.7s-.8,7.2.1,9a2.83,2.83,0,0,0,2.9,1.7c.8,0,3.1-1.4,2.5-6a48.72,48.72,0,0,0-.9-5.6Z"/><path class="cls-81" d="M15.6,229.84a5.35,5.35,0,0,0,4.7-.5l.3,1.2s-.3,2.3-5.1.6Z"/><path class="cls-82" d="M16.7,229.74a17.21,17.21,0,0,0,0,4c.3,1,1.7,2.5,2.7.4.8-1.7-.2-5.3-.2-5.3Z"/><path class="cls-82" d="M24.1,227.14s.3.9,2.2,1.9c1.2.6,2,1.3,2,2.1s-3.6,1-7-2.4Z"/><path class="cls-83" d="M20.4,228.64s2.8,1.2,3.7-1.5c0,0,.3-14.1,2.5-24.3s4.6-25.9,4.4-27.4l-11.5,4.3Z"/><path class="cls-82" d="M37.1,158.54a2.78,2.78,0,0,0,1.5.8,4.94,4.94,0,0,1,3,1.6c.9,1,1.1,1.7,2,2.2s.7.9.3,1.3-2.1.1-2.7-1.4a7.09,7.09,0,0,0,1.1,2.4c.7.8,1.7,2.4,1.2,3.4s-2.1,1.1-3.9.5-4.5-1.9-5.3-5.9a3.3,3.3,0,0,0-.8-2C33.5,161.54,33.6,158.84,37.1,158.54Z"/><path class="cls-83" d="M6.8,179.14s3.5,25,7.9,48.2c0,0,.1,2.6,2,2.8,2.6.3,4.4-1.2,4.2-2.6,0,0-.4-35.7,1.2-46.7C22.2,180.94,15.2,171.64,6.8,179.14Z"/><path class="cls-67" d="M8.6,144l-2.7,26.7a1.86,1.86,0,0,0-1.6,1.9s3.2-26,2.4-30.7Z"/><path class="cls-84" d="M37.2,157.84s-3.3-8.4-4.1-10.2-.7-8.2-.7-8.2c-1-15.9-6.1-15.9-6.1-15.9-.5,2.5-3.6,4.9-3.6,4.9,4.4,7.3,1,9.8,1,9.8.5,1.7-.3,6.4-.3,6.4-.7-3.9-2.1-5.1-2.1-5.1-3.1,0-4.9-3.7-4.9-3.7-2.7-5.1-5.1-6.1-5.1-6.1a12.79,12.79,0,0,0-4.9,2.5c-4.9,5-6.5,20.9-6.4,24.2s4.3,10.3,4.3,10.3a12.57,12.57,0,0,0-.1,6.4l11.2,9.6a18.63,18.63,0,0,0,16.8-6.4l.5-3.5a20.62,20.62,0,0,0-.4-5.3c-.6-2.9-3-12.9-3-12.9l4.3,7.2c.7-3.1,4.1-3.2,4.1-3.2A5.91,5.91,0,0,1,37.2,157.84Zm-28.3-1.2-1.1,3.1-1.3-5.4a53.67,53.67,0,0,1,1.8-5.5A14.71,14.71,0,0,1,8.9,156.64Z"/><path class="cls-82" d="M14.1,125.14s.6,2.7-2.4,4.8a33.86,33.86,0,0,1,5,6.4c2.8,4.4,4.7,3.3,4.7,3.3l2.1,5.1.5-6.4s3-2.3-1.3-9.8A11.19,11.19,0,0,1,14.1,125.14Z"/><path class="cls-82" d="M11.9,122.24s-2,5.3,2.2,3.1c0,0,4,5.3,9.4,3.1,0,0,2.6-1.1,3.3-7.6,0,0,1.4-8.6-.6-10.5,0,0-10.9-7-13.9-.3A14.55,14.55,0,0,0,11.9,122.24Z"/><path class="cls-24" d="M13.5,104.84s-7,.7-7,10.9A21.86,21.86,0,0,1,5.4,121c-.9,2.4-.7,7.8,7.6,7.8a3.48,3.48,0,0,0,1.1-3.7s-1.7.7-1.7-1.7a15.33,15.33,0,0,0,3.2-2.9c.6-.3,1.6-.6,2.4-4,0,0,6.2.9,8.3-4.1a26,26,0,0,1,.4,5.7c0,.3-.6,1.6-.6,2-.1,1.2.5,2.1.2,3.3,0,0,2,1,2.2-5.1s-1.6-7.4-3.5-10C25,108,19.6,101.54,13.5,104.84Z"/><path class="cls-85" d="M14.8,150.74s4.5.5,7.1-1.7C21.7,149.14,20.1,152.24,14.8,150.74Z"/><path class="cls-86" d="M24,138.34c1.5-4-1.6-8.7-1.6-8.7-1.3,0-2.4-.1-2.4-.1a8.26,8.26,0,0,1-3.3-1.3c-2.5-1.7-2.4-3-2.4-3.8,0,0,2.5,4,6.2,4.3a8.52,8.52,0,0,0,2.3,0c0-.1,4.2,6.4,1.2,9.6"/><path class="cls-86" d="M26.8,118.14s-4.7,3.7-8,2.6c0,0,1,1.8,5.1-.3l2.6-1.6Z"/><path class="cls-83" d="M8.3,156a10.16,10.16,0,0,0,1.8,2.4c1.4,1.5,6,2.4,8.9,1.5a27,27,0,0,1-.9-7.8c.1-1.8.2-3.5.2-4.8a22.6,22.6,0,0,0-1-9.2s-.6,0-2.5-3.5c-2-3.7-2.9-4.6-4.2-4.9,0,0-2.3.5-2.9,1.5,0,0,4.5,1.9,4.4,8.9-.1,7.3-3.7,9.3-3.7,9.3a8,8,0,0,0,.3,2.5C9.2,153.64,8.3,153.64,8.3,156Z"/><path class="cls-67" d="M6.5,132.14s4.2-.8,5.7,10.4l1.6,27.4.7,4.5,1.1.8s-1-9.6-1.2-16.2-.8-18.8-1.5-21.1-1.6-5.4-5.1-6.8A1.14,1.14,0,0,0,6.5,132.14Z"/><path class="cls-85" d="M10.5,139.24a18.94,18.94,0,0,1-2.2,9.6S12.4,143,10.5,139.24Z"/><path class="cls-85" d="M10.2,144.24a3.57,3.57,0,0,0,1.3-2.2,3.06,3.06,0,0,1-1.5,3.1Z"/><path class="cls-83" d="M23.9,128.24s3.7,5.1,2.9,19.1c0,0,0,4.3-.3,7a17.26,17.26,0,0,0,.2,5,5,5,0,0,0,3.3-2,4.3,4.3,0,0,1,.7-.7s-.6-11.6-.3-12.6a9,9,0,0,0,.9-3.9c-.2-1.7-2.3-4.5-3.3-7.4s-2.6-6.5-2.6-6.5A5.17,5.17,0,0,1,23.9,128.24Z"/><path class="cls-24" d="M17.4,118.34s-1.7,5.1-4.9,5Z"/><path class="cls-87" d="M30.4,144a9.7,9.7,0,0,1-2.6,2.7,5.88,5.88,0,0,0,2.6-1.8Z"/><polygon class="cls-85" points="21.1 139.64 23.5 144.64 24.3 138.04 24 138.34 23.4 143.64 21.4 139.54 21.1 139.64"/><path class="cls-67" d="M4.5,166.94l1.1,1.5-.1,2.2s-1.2.4-1.2,1.2A34.37,34.37,0,0,1,4.5,166.94Z"/><path class="cls-85" d="M7.7,159.74l2.8,6.7,1.3,1.8a7,7,0,0,1-4.4,3s-2.2-3.4-3-4.6l3.1,4a6.35,6.35,0,0,0,3.6-2.3l-1-1.7a8.07,8.07,0,0,1-4.1,1.9,31.8,31.8,0,0,0,3.9-2.1C10,166.44,7.9,161.84,7.7,159.74Z"/><path class="cls-67" d="M4.2,173s-.1,6.6.9,8.5c0,0,1.2,1.9,6.7,3.9a6.91,6.91,0,0,0,3.1.7,2.46,2.46,0,0,0,2.1-1.8s0-6.2-.3-6.9c0,0-.3-.9-2-1.2S4,170.34,4.2,173Z"/><path class="cls-88" d="M5.9,170.54s-1.6-.1-1.7,2.1a12.47,12.47,0,0,0,.7,4.3s2.6,2.8,4.6,3.6,4.3,1.2,5.2.5a3,3,0,0,0,.2-1.4,1,1,0,0,1,.8-.9s.9-.1.9-.6l.1-.7C16.7,177.34,8,171.44,5.9,170.54Z"/><path class="cls-89" d="M4.5,172.84s9.1,5.8,10.3,6.2C14.9,179,8.6,176.34,4.5,172.84Z"/><ellipse class="cls-90" cx="9.1" cy="178.01" rx="0.6" ry="0.8" transform="translate(-63.53 15.23) rotate(-21.12)"/><path class="cls-89" d="M4.2,176.24a12.43,12.43,0,0,0,10.3,5s-.1-2,1.2-2.5a3.09,3.09,0,0,0-.9,2.7A12.16,12.16,0,0,1,4.2,176.24Z"/><path class="cls-83" d="M22.4,182.24s-.1,16.8-1.2,24.1c0,0,.1,4.1.1,7.2s-.4,15-.4,15l-.3.5s.4-13.1.1-15.6a62,62,0,0,1-.1-7.3c0-1.1.9-22.2,1.1-23.7Z"/><path class="cls-85" d="M36.3,156.54a4.15,4.15,0,0,0-3.9,3.3C32.4,159.94,32.4,156,36.3,156.54Z"/><path class="cls-82" d="M11.6,168.64a2.51,2.51,0,0,0,1.7.8c1,0,1.8.9,2.5,2s1.2,1.3,1.3,1.7-.2.9-1.3.5a11.08,11.08,0,0,1-1.9-.9,6.67,6.67,0,0,1,1.5,2.1c.5,1.2,1.7,1.1,2.1,2a1,1,0,0,1-1.1,1.3,5,5,0,0,1-2.7.4s-3.1-.7-4.7-4.9a14.2,14.2,0,0,0-.9-2.6A9.68,9.68,0,0,0,11.6,168.64Z"/><path class="cls-91" d="M30.8,177.84s-3.8,4.8-13.8,4.9v1.7a24.55,24.55,0,0,0,13.6-5Z"/><path class="cls-86" d="M24.3,120.74s.7,2.8.1,4.4a1.13,1.13,0,0,1-1.2.6s1-.3,1.1-2.1a5.34,5.34,0,0,0-.4-2.7Z"/><path class="cls-92" d="M12.4,123.34s0,2.3,1.8,1.7c0,0,.5,2.4-1.1,3.7a10,10,0,0,1-3.6-.4s4.3.7,4.1-1.8l-.1-.9S12.2,125.54,12.4,123.34Z"/><circle class="cls-93" cx="13.5" cy="124.74" r="0.5"/><path class="cls-93" d="M14,126.14a.5.5,0,0,1-1,0c0-.3.2-.9.5-.9S14,125.84,14,126.14Z"/><path class="cls-86" d="M14.2,125.14s.9,2.5-2.4,4.8a36.3,36.3,0,0,1,3.5,4.2s-2.2-3.3-1.3-4.4a8.2,8.2,0,0,0,1.3-2.9Z"/><path class="cls-86" d="M15.3,134.14s3.5,6.3,6.1,5.4l2,4.1.6-5.3-.8,3.7a11.29,11.29,0,0,0-1-3.7l.3,3-1.1-2.2s-2.6.9-7.2-6.8Z"/><polygon class="cls-86" points="22.1 129.24 21.8 131.64 22.5 130.64 22.4 129.14 22.1 129.24"/><path class="cls-93" d="M13,128.84s3.8,6,8.5,6c0,0,2.2.1.9-4.6,0,0,2.2,4.4-.4,5.1C22,135.34,17.6,136.94,13,128.84Z"/><path class="cls-93" d="M21.3,135.34s1.2,1.2,1.3-.4Z"/><polygon class="cls-85" points="21.1 149.94 18 153.04 18.2 150.94 21.1 149.94"/><path class="cls-85" d="M9.1,147.44l.2,1.4-.8.6-.2-.6A4.49,4.49,0,0,0,9.1,147.44Z"/><path class="cls-85" d="M.1,157s2.6,8.1,5.8,11.9l2.3-.9-2,.5A50.2,50.2,0,0,1,.1,157Z"/><path class="cls-85" d="M6.4,154.54a3,3,0,0,0-2.1-2.1C4.3,152.54,6.9,152,6.4,154.54Z"/><path class="cls-85" d="M24.7,146.44l-2.4,5.7S24,150.54,24.7,146.44Z"/><ellipse class="cls-83" cx="21.01" cy="140.65" rx="0.6" ry="0.3" transform="translate(-74.26 35.07) rotate(-33.56)"/><ellipse class="cls-83" cx="23.68" cy="145.16" rx="0.6" ry="0.3" transform="translate(-76.98 37.93) rotate(-33.92)"/><path class="cls-91" d="M22.4,182.24s-.7,18.1-1.4,24.8c0,0-.2,20.1-.4,21.1,0,0-1.8,3.2-5.4.7a2.39,2.39,0,0,0,3,1.4,3,3,0,0,0,2.8-1.7l.4-21.8,3.2-25Z"/><path class="cls-86" d="M13.8,172s-.1.2.4.8,1.1,2.1,1.6,2.7,2.1.5,1.7,1.8c0,0,.4-.6-1.6-1.4C14.6,175.14,14.3,173.24,13.8,172Z"/><path class="cls-86" d="M41.2,163a1.29,1.29,0,0,0-1.8-.7,3.13,3.13,0,0,1-2.6-.3s.4,1.2,2.4.9A1.7,1.7,0,0,1,41.2,163Z"/><path class="cls-86" d="M37.1,158.54s-2.9.6-3.6,3a4.12,4.12,0,0,1,.8,2c.3,1.4,1.4,4.5,4.5,5.6a8.45,8.45,0,0,1-4.1-6.1c-.7-4.3,3.6-3.7,3.6-3.7Z"/><path class="cls-86" d="M40.6,164.84l-2.8,2S38.9,164.94,40.6,164.84Z"/><polygon class="cls-87" points="18.2 150.94 14.6 152.34 15.4 153.44 15.4 154.74 18 153.04 18.2 150.94"/><path class="cls-86" d="M16.6,231.44a5.68,5.68,0,0,0,3.1,0l-.2-1.5s-.7.5-2.8.3Z"/><path class="cls-86" d="M11.6,168.64A6,6,0,0,1,8.1,171a24.15,24.15,0,0,1,.9,2.6,8.48,8.48,0,0,0,2.4,3.5s-2.6-3.4-2-4.9a3.5,3.5,0,0,1,3-2,9.52,9.52,0,0,0,1.8-.2A24.1,24.1,0,0,0,11.6,168.64Z"/><path class="cls-86" d="M21.4,228.94l1,.9s3-.5,1.7-2.7A2.68,2.68,0,0,1,21.4,228.94Z"/><path class="cls-82" d="M443.7,73.14l.5,10.8c3.4,0,2.6-5.1,2.6-5.1s-.2,1.4,1.6,1.3.9-.9.9-.9c-.6-1.2-.7-3.3-1-4.6a15.49,15.49,0,0,0-1.2-3A13.22,13.22,0,0,1,443.7,73.14Z"/><path class="cls-94" d="M443.3,43.74c.1,1.7-.1,3.3,0,5s.2,3.3.3,5,.2,3.2.3,4.9a41.93,41.93,0,0,1,.3,5l.3,5c.1,1.7.2,3.3.2,5-.3-1.7-.4-3.3-.6-5l-.5-5c-.2-1.7-.3-3.3-.4-5s-.3-3.3-.4-5-.2-3.3-.2-5,.2-3.3.2-5,0-3.3,0-5-.1-3.3-.1-5A85.53,85.53,0,0,1,443.3,43.74Z"/><path class="cls-94" d="M444.4,38.34a15.14,15.14,0,0,1-.2,3,8,8,0,0,1-.3,1.5,4.58,4.58,0,0,1-.8,1.3H443a4.3,4.3,0,0,1,0-1.6c.1-.4.3-1,.4-1.4l1-2.8Z"/><path class="cls-94" d="M444.4,69.64l-.1-.4c2.2-.5,2.8-1.5,2.8-1.5A3.22,3.22,0,0,1,444.4,69.64Z"/><path class="cls-86" d="M449.4,79.54c.1.3-.5.5-.5.5a2.48,2.48,0,0,1-2-.3,2.91,2.91,0,0,1-.8-1.1,2.28,2.28,0,0,1,.1-1.9,6.73,6.73,0,0,0,.1,1,5.19,5.19,0,0,0,.5,1.2c1.2,1.9,2.4.4,2.4.4Z"/><path class="cls-86" d="M446.2,77.24c-1,.1-1.3-.3-1.3-.3V76c.2.7,1.3.6,1.3.6Z"/><path class="cls-95" d="M416.9,135.84s-1.1,2.1-.8,3,8.4,9.4,10.8,8.6,2.8-1.6,2.5-2.5-5.3-7.8-5.3-7.8C420.6,139.74,416.9,135.84,416.9,135.84Z"/><path class="cls-96" d="M425.1,138.54s-4.4,2.8-8.6-1.6l.4-1.2s4.7,3.2,7.2,1.3Z"/><path class="cls-95" d="M430.6,129.34s-1,2.4-.7,3,8.5,8.4,10.3,8.3a3.31,3.31,0,0,0,2.9-2.6c0-.9-5.2-6.8-5.2-6.8Z"/><path class="cls-96" d="M438.3,131.94s-4.9,2.2-8.1-.7l.4-1.9a7.32,7.32,0,0,0,6.9,1.3Z"/><path class="cls-97" d="M439.3,73.24c-4.4,2.9-19.4,5.9-19.4,5.9-.3,3.1.3,36,.3,36,.7,5.2-3.5,18.9-3.5,18.9s-.9,3,3.3,4.1,4.8-1.9,4.8-1.9,4.8-17.7,5.5-20.3,1.6-20.3,1.6-20.3c1.6,5.4,2.4,11.2,2.2,14.5s-4.4,18.3-4.4,18.3c1.2,3.9,5.7,3.5,7.1,3a2.11,2.11,0,0,0,1.5-2.4c.6-2.6,5.2-17.8,5.2-19.8s-.8-24.4-.8-24.4C442.7,75.14,439.3,73.24,439.3,73.24Z"/><path class="cls-98" d="M425.2,32.24l-.4,1.4c.6,3.8,4.1,10,5,13.2s-.3,12,.3,17.1a42.79,42.79,0,0,1-.6,11.2c4.5.2,9.8-3.8,9.8-3.8s.3-3.2.3-5.1-.3-16.7,0-23.5-2.3-9.8-2.3-9.8Z"/><path class="cls-99" d="M434.8,37.34l-1.7,2.1,1.5,2.1a1.07,1.07,0,0,0,1.6-.3c.7-1,1.3-2.7,1.1-2.9A5.42,5.42,0,0,0,434.8,37.34Z"/><path class="cls-99" d="M434.9,41.34s-2.2,19-2.3,19.3a37.06,37.06,0,0,0,3.2,4.1,49.77,49.77,0,0,0,2.7-5.7c.2-2.6-2.4-18.1-2.4-18.1Z"/><path class="cls-100" d="M425.6,29.84c-1.9.8-2.4,3.8-2.4,3.8s-5.8,4-7.4,6.3-1,4.3-1.3,7.8-2.4,12.5-2.3,17.2,2.9,14,2.9,14a19.29,19.29,0,0,0-1.3,4.9c3.4,4,9.5,3.9,9.5,3.9a10.38,10.38,0,0,0,6.8-.9,27.2,27.2,0,0,1,.1-5.7c.4-2.5-.6-5.8,0-9.9s0-11.5.3-18.6-2.7-12.1-4.6-16-.3-5.1-.3-5.1Z"/><path class="cls-100" d="M437.2,32.64c2.3,2.7,2.5,12,2.2,15.6s0,8.4,0,13.5.3,16.5.4,19-.6,5.2.1,5.6,1.5-.4,2.9-1.3a7,7,0,0,0,2.2-2.7c.2-2.6-.3-9.1-.3-9.1.6-.2,2.3-1.1,2.4-1.6a14.67,14.67,0,0,0,.1-3.1c0-.9-.3-1.6-.4-3.5s-.8-14.6-.9-17.5-.1-15.3-.1-15.3a5.42,5.42,0,0,0-5.9-5.2A48.65,48.65,0,0,0,437.2,32.64Z"/><path class="cls-101" d="M432.8,41.24a33.19,33.19,0,0,1-8-7.6c.1-1.7.7-2,.7-2a28.88,28.88,0,0,0,9.4,5.7A15.28,15.28,0,0,0,432.8,41.24Z"/><path class="cls-101" d="M437.4,32.94a10,10,0,0,1,1.1,6.2,17.55,17.55,0,0,1-3.6-1.7,5.8,5.8,0,0,0,1.1-3.2A4.25,4.25,0,0,0,437.4,32.94Z"/><path class="cls-82" d="M417.4,85.74c-.8,1.2-1,5.5-.6,7.1a7,7,0,0,0,3,4c1.7,1.2,2.3.2,2.4-.3s-.6-3-.7-3.6c-.2-.9-.7-3.5.3-3.4s.4,2,.6,3,1.4.7,1.6.3.1-.9.4-1.7-.5-3.1-.5-3.1c-.8-2.6-1.5-3.2-1.5-3.2A3.89,3.89,0,0,1,417.4,85.74Z"/><path class="cls-102" d="M424,49.94c-.2.8-.3,1.6-.5,2.4-.7,3-1.4,6.1-2,9.2a16,16,0,0,0-.3,2.3,19.22,19.22,0,0,0,0,2.4l.2,4.8c.2,3.1.3,6.4.5,9.5v-.1a21.18,21.18,0,0,1,.5,4.4v.1h0a2.3,2.3,0,0,1-1.7,1.2,6.28,6.28,0,0,1-1.9.3,3,3,0,0,1-1.8-.6,2.7,2.7,0,0,1-1-1.7h0c-.4-2.2-.9-4.4-1.3-6.5.6,2.2,1.1,4.3,1.7,6.4h0a2.81,2.81,0,0,0,1,1.4,2.73,2.73,0,0,0,1.6.4,4.67,4.67,0,0,0,1.7-.3c.3-.1.5-.2.8-.3a1.18,1.18,0,0,0,.5-.5v.1a20.26,20.26,0,0,0-.6-4.2h0c-.3-3.1-.4-6.4-.6-9.5-.1-1.6-.2-3.2-.2-4.8v-2.4q.15-1.35.3-2.4a78.26,78.26,0,0,1,1.9-9.4c1-3.5,1.7-6,1-9.2C425.1,45.54,424.1,49.14,424,49.94Z"/><path class="cls-102" d="M420.7,81.74a3.82,3.82,0,0,1-1.6.6,3.22,3.22,0,0,1-1.7-.1,5.48,5.48,0,0,1-1.5-.8c.5,0,1,.1,1.6.1a7.57,7.57,0,0,0,1.5-.1,7,7,0,0,0,1.4-.3,9.38,9.38,0,0,0,1.5-.6A6.79,6.79,0,0,1,420.7,81.74Z"/><path class="cls-103" d="M439.6,74.74c-3,2.9-9.3,3.7-9.3,3.7l-.3-3.8c6.3-.9,9.3-4,9.3-4Z"/><path class="cls-104" d="M432.9,73.94l.1,4.2a17.62,17.62,0,0,0,4.2-1.7c.7-2.9-.1-4.3-.1-4.3C436,73.14,432.9,73.94,432.9,73.94Z"/><path class="cls-105" d="M435.6,87c-3.9,2.9-3.7,9.4-3.7,9.4v-2a11.07,11.07,0,0,1,1.5-6.3l-2.6.7L435,86l1.7-7.2Z"/><ellipse class="cls-106" cx="435.6" cy="67.64" rx="0.5" ry="0.7"/><path class="cls-102" d="M429.4,69.24c-.1-1.1-.2-2.3-.3-3.3s-.3-2.2-.5-3.2c-.4-2.2-1-4.3-1.6-6.4l-.8-1.5-.1-.4-.1-.2v-.3l.3-.9c.3-1,.7-2.1,1-3.1l.3.5a5.27,5.27,0,0,1-1.2-.3c-.2,0-.4-.2-.6-.3a3.17,3.17,0,0,1-.5-.6,3,3,0,0,1-.1-1.3l.1-1.1a10.87,10.87,0,0,0-.5-4.4c-.5-1.4-1.1-2.9-1.5-4.4a14.24,14.24,0,0,1-.2-4.6,13.55,13.55,0,0,0,.5,4.5,29.44,29.44,0,0,0,1.7,4.3,12.06,12.06,0,0,1,.8,4.6v1.1a2.79,2.79,0,0,0,.1,1,1.44,1.44,0,0,1,.3.2c.1.1.3.1.4.2a3.55,3.55,0,0,0,1,.2h.5l-.2.5c-.3,1-.6,2.1-1,3.1-.1.2-.1.5-.2.7l.2.6.4,1.6c.6,2.1,1.1,4.3,1.5,6.4a18.41,18.41,0,0,1,.3,3.3c0,1.1.1,2.2.2,3.3.1,2.2.2,4.4.3,6.5C429.7,73.54,429.5,71.34,429.4,69.24Z"/><path class="cls-82" d="M436.2,34.14c.4-.2,3.6-3.4,3.8-7.1a8.3,8.3,0,0,0-.2-3,2.57,2.57,0,0,1,.1-1.5,3.78,3.78,0,0,0,.1-1.4s.3-3.5-.7-4.4-6.8-8.8-13.1-5.1a4.22,4.22,0,0,0-1.3,3.7c.1.3-.2,7.6-.2,7.6s-1.8-.6-1.9,1.6.4,4.2,1,4.6,1.2.8,1.7.6l-.2,1.9a24.13,24.13,0,0,0,9.3,5.7A5.18,5.18,0,0,0,436.2,34.14Z"/><path class="cls-24" d="M428.8,15a13.68,13.68,0,0,0,9.7,2.1c1.4,0,5-2.2,2.3-6.4,0,0-1.8-2.8-5.2-.7-1.6-.6-3.5-2.3-5.7-1.7s-5.7,2.3-6.1,3.4a4.22,4.22,0,0,0,0,2.4s-1.3.4-1.3,2.6,0,6.4.4,7.8c0,0,.5-2.2,2.4-1a4.14,4.14,0,0,1,1,2.8l.1,1.6,1.6.7-.2-1.7a2.39,2.39,0,0,1,.5-1.4,4.45,4.45,0,0,0,1.3-2.4c.4-1.7-2.7-5.1-2.7-5.1C426.8,15.24,428.8,15,428.8,15Z"/><path class="cls-86" d="M434.9,37.34c.1-1-.1-1.7-.6-2-1-.6-2.1-.5-3.5-1.2-3.4-1.7-3-3.9-3-3.9a7.45,7.45,0,0,0,2.8,3c3.6,2,5.4,1,5.4,1A4.72,4.72,0,0,1,434.9,37.34Z"/><path class="cls-86" d="M439.6,23.24a13.94,13.94,0,0,1-6.5,3c-2.7.5-3-1-3-1s.5.5,3,.3a18,18,0,0,0,4-1.5,7.07,7.07,0,0,0,3-1.8A1.55,1.55,0,0,0,439.6,23.24Z"/><path class="cls-86" d="M425.5,31.64a31.91,31.91,0,0,0,3.7,3c-2.3-1.9-2.1-5.8-2.1-5.8-.3.1-.5.6-.7.7a1.69,1.69,0,0,1-.7.3Z"/><path class="cls-86" d="M425.4,26c.3.6-.4.8-.7.6s-.1-2.2-.4-1.5.2,2.3.7,2.4-.1-.8.5-.7.6.8.6.8a.94.94,0,0,1-1.6.6c-.7-.6-1.2-3.7-.3-4.1s1.7,1.1,1.7,1.1C425.5,25.24,425.2,25.44,425.4,26Z"/><path class="cls-102" d="M439.6,81.54s-.1-4.4,0-5.3c.3-3.4,1.1-11.5,1.7-14.6.8-4.1-.2-8.6-.5-10.6s1.5-2.3,1.6-3.9S441,41,441,41c-.3-7.9-2.4-9.9-2.4-9.9l-1.4,2,1.4,3.5c1,4.4.4,11.5.3,15.2-.2,2.6-.1,21.3.5,28.6Z"/><path class="cls-102" d="M425.6,29.84l-.2,1.8s-1.2,1.8.6,5.2a33,33,0,0,1,4.5,13.5c.3,5.4-.7,23.2-.4,25.1,0,0-.5-9.7-1.4-13.1s-2.5-8.2-2.1-8.9a18.81,18.81,0,0,0,.9-3.3s-1.6-.5-1.8-1.2.3-4.6-.7-6.7S422,35,423.5,32C423.6,32.14,424.3,30.34,425.6,29.84Z"/><path class="cls-102" d="M444.9,34.54s-.9,3.3-1.2,4.9c0,0,.7,30.9,1,33.8,0,0-1.6-16.7-1.6-33.2a36.24,36.24,0,0,0-.1-4.4l.5,2.3A16.23,16.23,0,0,0,444.9,34.54Z"/><path class="cls-102" d="M423.2,45.84s.8,3.5.1,5.8l-.5,1.4A55.86,55.86,0,0,1,423.2,45.84Z"/><path class="cls-105" d="M434.9,86l4-1.5a25.31,25.31,0,0,1-4.4,3Z"/><path class="cls-106" d="M439.1,71s-2.6,2.8-9.1,3.6c0,0,.7-19.1.7-20.6s.3-7.6-2.8-13.8-2.5-5.5-2.7-6.2c0,0,3.6,4.9,7.6,7.2l.6-1.4a13,13,0,0,0,1.5,1.9l-1.2-.6-.8,1.4a48.9,48.9,0,0,1-5-3.6s3,1.5,3.6,12.2a108.85,108.85,0,0,1-.7,21.3s-.1.7-.3,1.5c6.2-.5,8.7-3.9,8.7-3.9Z"/><path class="cls-86" d="M437.2,25.94s1,2.8.3,4.1c0,0-.3.4-1.3.4s-1.1-.3-1.1-.3a3.64,3.64,0,0,0,2.1-.8Z"/><path class="cls-106" d="M438.4,35.64s.9,1,.9,8.2l-.3,26.7-.6.7s.5-20.2.2-23.2-.3-8.2-.3-8.2l-1.2-.8.1-.5,1.2.6C438.5,39.24,438.9,38.34,438.4,35.64Z"/><path class="cls-86" d="M417.4,85.74s2.3,1.7,5-1c0,0,.9.6,2,5.1,0,0-1.4-4-2.3-3.2a4.89,4.89,0,0,1-5.1.5A2.87,2.87,0,0,1,417.4,85.74Z"/><path class="cls-86" d="M447.1,71.74a4.49,4.49,0,0,1-2.4,1.6v.8a28.52,28.52,0,0,0,2.9-1.4Z"/><path class="cls-3" d="M157.7,55.14a19.41,19.41,0,0,0-1,8.4s.9,4.1,4.1,4.6c0,0-.5-6.6.5-8.3s-.5-3.9-.5-3.9Z"/><path class="cls-107" d="M157.4,55.94a3.41,3.41,0,0,0,4.1.7v.9l-1.4,1.8s.1-1-1.3-1.2a12.94,12.94,0,0,1-2-.4S157.2,56.44,157.4,55.94Z"/><path class="cls-107" d="M158.9,59.24a30.06,30.06,0,0,0-.1,4.5c.2.9,1.2.7,1.3-.3a10.62,10.62,0,0,1,.4-2.9,3.1,3.1,0,0,0,.6-1.3s.4.4-.5,1.9l-.2,2.3s-.1,1.2-1,1.1-1-1.3-1-2S158.4,59,158.9,59.24Z"/><path class="cls-108" d="M172.3,115.24s-3.4,3-4.9,4.6-.1,3.6,2.4,2.6a35.5,35.5,0,0,0,8.1-4.6l.3,1s.7.6.9-.6,1-4.9-.2-5.9C178.9,112.44,176,116.64,172.3,115.24Z"/><path class="cls-3" d="M173.6,95s1.2,14.4.3,17a12.85,12.85,0,0,1-2.7,4.4s-2.3,2.5.7,1.9a11.88,11.88,0,0,0,6.7-4.1c.8-1.2-.6-2.7.2-6s2.8-8.9,3-13.9Z"/><path class="cls-107" d="M173.8,97.14s5.2.9,7.9-.9l.3-2.1-8.4.9Z"/><path class="cls-108" d="M161.6,109.84a26.56,26.56,0,0,0-4.9,4.6c-1.3,1.8-.1,3.6,2.4,2.6a35.5,35.5,0,0,0,8.1-4.6l.3,1s.7.6.9-.6,1-4.9-.2-5.9C168.2,106.94,165.4,111.24,161.6,109.84Z"/><path class="cls-3" d="M163,89.64s1.2,14.4.3,17a12.85,12.85,0,0,1-2.7,4.4s-2.3,2.5.7,1.9a11.88,11.88,0,0,0,6.7-4.1c.8-1.2-.6-2.7.2-6s2.8-8.9,3-13.9Z"/><path class="cls-107" d="M163.3,94s2.9,3.2,6.7,2.1l.4-1.4-7.3-2.8Z"/><path class="cls-109" d="M162.3,56.44a6.39,6.39,0,0,0-2.5,4.3c-.3,2.8-1.9,24.2-1.9,24.2a3.44,3.44,0,0,0,.4,3.5c1.2,1.8,11,10.2,23.3,6.5,0,0,6.9-2.2,7.3-7l-2.1-22.2Z"/><path class="cls-3" d="M183.9,28s-4.2-1.4-6.4,4.9a9.67,9.67,0,0,0-1.3,5.5s9.9,1.5,10.6-5.2C186.8,33.34,186.3,28.94,183.9,28Z"/><polygon class="cls-110" points="178 80.24 177.3 90.64 192.6 82.54 192.8 72.34 178 80.24"/><path class="cls-107" d="M180,34.24l1.1,4.7.4-.1C181.6,38.84,181.3,35.24,180,34.24Z"/><path class="cls-111" d="M163.2,9.84s.7,4.1,0,6.7-.8,4.7,2.2,5.6l1.6.2s-1.5-9.8-.8-13.1C166.2,9.34,163.3,7,163.2,9.84Z"/><path class="cls-3" d="M181.8,68.74a6.73,6.73,0,0,0-1.3,4.2,26.86,26.86,0,0,1-.6,5.3s.1.7,1.1.3,1-1.5,1.1-2.5a11.58,11.58,0,0,1,.2-1.5,17,17,0,0,1,0,4.8c-.4,2.2,1.9,1.4,3.1.4s2.7-6.2,1.5-9.9C186.8,69.64,183.4,70,181.8,68.74Z"/><path class="cls-107" d="M181.6,68.94s3.2,1.6,5.2.7a5.21,5.21,0,0,1,.4,2.3,2.06,2.06,0,0,0-2.3-1.1c-2.7.2-3.6.3-3.8,2.3a13.07,13.07,0,0,1-1.2,4.8s.5-4.5.4-5.4S180.8,69.24,181.6,68.94Z"/><path class="cls-111" d="M163.2,10.14a7.86,7.86,0,0,1,4.8-8.5s4-2.2,6.7-1.5,7.4,2.3,8,5.8-.8,5.5,1,9.8,4,8.7.1,12.4c0,0-4-1.4-5.1-2.3-2.1-1.9-1.6-3.5-1.8-5.4a7.89,7.89,0,0,1-2.2-5.1v-2.8C174.8,12.34,166.3,14.54,163.2,10.14Z"/><path class="cls-112" d="M164.7,19.64s-5,1.1-5.8,7.5-1.5,15.4-2,18.1-2.4,7.9,0,10.3,4.4,1,4.4,1l-.6-.7s1.7,3.7,4.7,4.6,4.2.8,7.4,4.2,6.6,3.2,8.7,2.1a9,9,0,0,0-.2,1.3c0,.4-.5,1.1,2.2,1.7s4.3-.4,4.5-1.4,2.1-10.8,2.5-12.6,1-2.6,0-8.6a99.83,99.83,0,0,0-4.4-16,4.62,4.62,0,0,1-.9,4.6c-1.9,2-8.4,2.6-9.8,2.3-2.3-.6-8.8-2.3-9.9-12a4.46,4.46,0,0,1,.5-3.1A9.56,9.56,0,0,1,164.7,19.64Z"/><path class="cls-3" d="M177.1,20.74a5.1,5.1,0,0,0,2.1,4.8s1.2.7,1.5.8a113.23,113.23,0,0,0-7.4,11.3,12,12,0,0,1-7.1-7.9s-1.6-4.1-.1-6.9c0,0,3.5,2.6,6.6,1.6s4.1-4.4,4.1-4.4Z"/><path class="cls-107" d="M166,22.94a14.38,14.38,0,0,0,.9,7.8s1.6,5,5.1,6.3l-1.8-1.5.3-1.1-.9.5s-4-6.9-3.2-11.5Z"/><path class="cls-3" d="M164.2,11.24a43.57,43.57,0,0,0,.5,8.5c.7,3.1,2.3,5.5,5.7,5.5,2.9,0,5.7-.9,6.4-4.5a1.29,1.29,0,0,0,1.9-.4,1.06,1.06,0,0,0,0-.6s-3.3-1.8-3.5-4.1a14.78,14.78,0,0,1,.1-3.8S168.1,14.44,164.2,11.24Z"/><path class="cls-113" d="M176.4,38.24a13.69,13.69,0,0,1,.6-4c2.3-7.1,6.8-6.2,6.8-6.2-.8-1.9-3.2-1.7-3.2-1.7a9.38,9.38,0,0,0-3.4,2.1c-3.4,3.2-2.1,8.3-5.3,8.5C171.9,37,175.7,38.54,176.4,38.24Z"/><path class="cls-107" d="M166.1,23a6.19,6.19,0,0,0,6.1,2,6,6,0,0,0,3.8-2.3,4.75,4.75,0,0,1-4.6,3C168.3,25.74,167.4,24.54,166.1,23Z"/><path class="cls-107" d="M177.2,24.34A5.14,5.14,0,0,0,180,26c-2.4-1.5-1.9-5.3-1.9-5.3a1,1,0,0,1-1,0c0,.3-.2-.8-.8,1.2,0,0,0,2.1-4.4,3.7C171.9,25.74,173.8,25.44,177.2,24.34Z"/><path class="cls-114" d="M182.4,76.54l-5.9,3.2-.7,10.4,1.5.6.7-10.4,4.4-2.3A7.5,7.5,0,0,0,182.4,76.54Z"/><polygon class="cls-114" points="187.2 73.94 187.1 75.54 192.8 72.34 191.5 71.64 187.2 73.94"/><path class="cls-115" d="M162.2,28.74a9.57,9.57,0,0,1-.4,5.7c-1.2,2.8-2.2,7.4,1.6,9.9,0,0-4.8-1.9-2.8-8.5C161.9,32.64,162.1,32,162.2,28.74Z"/><path class="cls-115" d="M166,22.94s-1.9,8.4,6.3,14.3C172.2,37.24,162.5,32.24,166,22.94Z"/><path class="cls-115" d="M164.9,32.64s2.6,11.6,12,12.8C176.9,45.54,166.7,44.54,164.9,32.64Z"/><path class="cls-115" d="M167.3,32.74s1.5,10.3,10.7,8.9c0,0-7.9.8-10.1-8.1Z"/><path class="cls-115" d="M168.1,33.94s2.8,5.2,7,5.9c0,0-4.5-.1-7.1-5.3Z"/><path class="cls-115" d="M162.2,43.74s1.5,4.9,1,7.2l-.9-4.9a58.17,58.17,0,0,1-1,8.4,3.29,3.29,0,0,0,.5,3s-.6,0-1-1a14.74,14.74,0,0,1,.3-3.5c.4-2.1,1.1-9,.7-9.7Z"/><path class="cls-115" d="M166.6,49.74s5.7,10,13.4,5.1C180,54.84,173.9,58.54,166.6,49.74Z"/><path class="cls-115" d="M182.3,39.94s1.4,9.7,1.5,11.4-1.9,14.6-1.9,15.8.7,2.2,2.9,2.3,2.2-.2,3-1.1c0,0-.2,1.8-3,1.5,0,0-3.1.1-3.6-1.2,0,0-.3-.5.3-2.9a126,126,0,0,0,1.9-14.3C183.5,51.44,181.4,40.34,182.3,39.94Z"/><path class="cls-115" d="M182.8,46.84s.5,5.7-3.4,6.8c0,0,3.4-1,3.7-5.5Z"/><path class="cls-115" d="M184.2,45.84s2.9,2.8,4.3-.4C188.5,45.34,187.6,49.64,184.2,45.84Z"/><path class="cls-115" d="M188.6,46.24s-.9,4.1-3.5,2.7c0,0,2.2.8,3.4-3.3Z"/><path class="cls-115" d="M189,54s-1.1,4.1-4.2,4.7a4.33,4.33,0,0,0,3.4-2.4s-1,4.1-3.5,4.2C184.7,60.54,188.2,60.64,189,54Z"/><path class="cls-115" d="M168.6,60a10.81,10.81,0,0,1,4,4c2,3.1,6.8,3.4,6.8,3.4a8.13,8.13,0,0,1-7.7-3.8c-2.8-4.5-3.5-3.7-3.5-3.7"/><path class="cls-115" d="M158,41.84s-.2,4.2,2.9,4.4C160.9,46.24,158.8,45.64,158,41.84Z"/><path class="cls-107" d="M164.7,15s2.6,3,8.9,2.1C173.6,17.14,166.4,19.24,164.7,15Z"/><path class="cls-107" d="M167.2,17.94l-.1,2.6s.5.9,2.1.7l.2-.3a2.36,2.36,0,0,1-1.9-.5C167.5,20.34,167.7,17.14,167.2,17.94Z"/><path class="cls-107" d="M181.6,72.84a7.73,7.73,0,0,0,.6,1.7c.5,1.1.1,4.2.1,4.2s-.5,2,.6,1.9c0,0-.7-.1-.3-1.9S183.1,74,181.6,72.84Z"/><polygon class="cls-107" points="179.5 35.64 180.9 37.14 180.7 36.14 179.5 35.64"/><path class="cls-107" d="M183.9,28s-6.5-.9-7.4,10.1a20.79,20.79,0,0,0,4.3-.5l-3.6-.1C177.1,37.74,177.2,29.14,183.9,28Z"/><polygon class="cls-107" points="168.1 24.64 168.4 26.24 168.9 26.34 169.1 25.34 168.1 24.64"/><polygon class="cls-110" points="182.3 77.54 177.6 80.14 177 90.54 177.4 79.94 182.4 77.34 182.3 77.54"/><polygon class="cls-110" points="182.1 77.04 177.1 79.94 176.5 90.34 176.1 90.04 176.8 79.74 182.3 76.74 182.1 77.04"/><polygon class="cls-110" points="187.4 74.14 191.7 72.04 192 72.14 187.2 74.54 187.4 74.14"/><polygon class="cls-110" points="187.4 74.84 192.2 72.34 187.3 75.14 187.4 74.84"/><path class="cls-116" d="M163.8,69.24s1.4,17.8,7.5,19.7A36.89,36.89,0,0,1,163.8,69.24Z"/><path class="cls-117" d="M161.6,109.84s-6.2,4.1-5.5,6.5,5.3.8,11.1-3.9c0,0-7.6,6-10.4,4.1C156.8,116.54,154.7,115,161.6,109.84Z"/><path class="cls-117" d="M172.2,115.34s-6.2,4.1-5.5,6.5,5.3.8,11.1-3.9c0,0-7.9,5.7-10.4,4.1C167.4,122.14,165.5,120.74,172.2,115.34Z"/><path class="cls-118" d="M479.5,217.74a19.41,19.41,0,0,0-1,8.4s.9,4.1,4.1,4.6c0,0-.5-6.6.5-8.3s-.5-3.9-.5-3.9Z"/><path class="cls-107" d="M479.2,218.44a3.41,3.41,0,0,0,4.1.7v.9l-1.4,1.8s.1-1-1.3-1.2a12.94,12.94,0,0,1-2-.4S479,218.94,479.2,218.44Z"/><path class="cls-119" d="M480.6,221.84a30.06,30.06,0,0,0-.1,4.5c.2.9,1.2.7,1.3-.3a10.62,10.62,0,0,1,.4-2.9,3.1,3.1,0,0,0,.6-1.3s.4.4-.5,1.9l-.2,2.3s-.1,1.2-1,1.1-1-1.3-1-2C480.2,224.74,480.1,221.64,480.6,221.84Z"/><path class="cls-95" d="M494,277.84s-3.4,3-4.9,4.6-.1,3.6,2.4,2.6a35.5,35.5,0,0,0,8.1-4.6l.3,1s.7.6.9-.6,1-4.9-.2-5.9C500.6,274.94,497.8,279.24,494,277.84Z"/><path class="cls-118" d="M495.4,257.64s1.2,14.4.3,17A12.85,12.85,0,0,1,493,279s-2.3,2.5.7,1.9a11.88,11.88,0,0,0,6.7-4.1c.8-1.2-.6-2.7.2-6s2.8-8.9,3-13.9Z"/><path class="cls-119" d="M495.5,259.74s5.2.9,7.9-.9l.3-2.1-8.4.9Z"/><path class="cls-95" d="M483.3,272.34a26.56,26.56,0,0,0-4.9,4.6c-1.3,1.8-.1,3.6,2.4,2.6a35.5,35.5,0,0,0,8.1-4.6l.3,1s.7.6.9-.6,1-4.9-.2-5.9C489.9,269.54,487.1,273.84,483.3,272.34Z"/><path class="cls-118" d="M484.7,252.14s1.2,14.4.3,17a12.85,12.85,0,0,1-2.7,4.4s-2.3,2.5.7,1.9a11.88,11.88,0,0,0,6.7-4.1c.8-1.2-.6-2.7.2-6s2.8-8.9,3-13.9Z"/><path class="cls-119" d="M485,256.64s2.9,3.2,6.7,2.1l.4-1.4-7.3-2.8Z"/><path class="cls-120" d="M484,219a6.39,6.39,0,0,0-2.5,4.3c-.3,2.8-1.9,24.2-1.9,24.2a3.44,3.44,0,0,0,.4,3.5c1.2,1.8,11,10.2,23.3,6.5,0,0,6.9-2.2,7.3-7l-2.1-22.2Z"/><path class="cls-118" d="M505.6,190.64s-4.2-1.4-6.4,4.9a9.67,9.67,0,0,0-1.3,5.5s9.9,1.5,10.6-5.2C508.5,195.94,508,191.44,505.6,190.64Z"/><polygon class="cls-110" points="499.8 242.84 499.1 253.24 514.4 245.04 514.5 234.94 499.8 242.84"/><path class="cls-119" d="M501.8,196.84l1.1,4.7.4-.1S503.1,197.74,501.8,196.84Z"/><path class="cls-73" d="M484.9,172.44s.7,4.1,0,6.7-.8,4.7,2.2,5.6l1.6.2s-1.5-9.8-.8-13.1C487.9,171.84,485,169.64,484.9,172.44Z"/><path class="cls-118" d="M503.5,231.24a6.73,6.73,0,0,0-1.3,4.2,26.86,26.86,0,0,1-.6,5.3s.1.7,1.1.3,1-1.5,1.1-2.5a11.58,11.58,0,0,1,.2-1.5,17,17,0,0,1,0,4.8c-.4,2.2,1.9,1.4,3.1.4s2.7-6.2,1.5-9.9C508.6,232.24,505.1,232.64,503.5,231.24Z"/><path class="cls-119" d="M503.4,231.44s3.2,1.6,5.2.7a5.21,5.21,0,0,1,.4,2.3,2.06,2.06,0,0,0-2.3-1.1c-2.7.2-3.6.3-3.8,2.3a13.07,13.07,0,0,1-1.2,4.8s.5-4.5.4-5.4S502.6,231.84,503.4,231.44Z"/><path class="cls-73" d="M485,172.74a7.86,7.86,0,0,1,4.8-8.5s4-2.2,6.7-1.5,7.4,2.3,8,5.8-.8,5.5,1,9.8,4,8.7.1,12.4c0,0-4-1.4-5.1-2.3-2.1-1.9-1.6-3.5-1.8-5.4a7.89,7.89,0,0,1-2.2-5.1v-2.8C496.6,174.94,488.1,177.14,485,172.74Z"/><path class="cls-121" d="M486.5,182.24s-5,1.1-5.8,7.5-1.5,15.4-2,18.1-2.4,7.9,0,10.3,4.4,1,4.4,1l-.6-.7s1.7,3.7,4.7,4.6,4.2.8,7.4,4.2,6.6,3.2,8.7,2.1a9,9,0,0,0-.2,1.3c0,.4-.5,1.1,2.2,1.7s4.3-.4,4.5-1.4,2.1-10.8,2.5-12.6,1-2.6,0-8.6a99.83,99.83,0,0,0-4.4-16,4.62,4.62,0,0,1-.9,4.6c-1.9,1.9-8.4,2.6-9.8,2.3-2.3-.6-8.8-2.3-9.9-12a4.46,4.46,0,0,1,.5-3.1A9.64,9.64,0,0,1,486.5,182.24Z"/><path class="cls-118" d="M498.8,183.34a5.1,5.1,0,0,0,2.1,4.8s1.2.7,1.5.8a113.23,113.23,0,0,0-7.4,11.3,12,12,0,0,1-7.1-7.9s-1.6-4.1-.1-6.9c0,0,3.5,2.6,6.6,1.6s4.1-4.4,4.1-4.4Z"/><path class="cls-119" d="M487.7,185.54a14.38,14.38,0,0,0,.9,7.8s1.6,5,5.1,6.3l-1.8-1.5.3-1.1-.9.5s-4-6.9-3.2-11.5Z"/><path class="cls-118" d="M485.9,173.74a43.57,43.57,0,0,0,.5,8.5c.7,3.1,2.3,5.5,5.7,5.5,2.9,0,5.7-.9,6.4-4.5a1.29,1.29,0,0,0,1.9-.4,1.06,1.06,0,0,0,0-.6s-3.3-1.8-3.5-4.1a14.78,14.78,0,0,1,.1-3.8S489.9,177,485.9,173.74Z"/><path class="cls-122" d="M498.2,200.74a13.69,13.69,0,0,1,.6-4c2.3-7.1,6.8-6.2,6.8-6.2-.8-1.9-3.2-1.7-3.2-1.7a9.38,9.38,0,0,0-3.4,2.1c-3.4,3.2-2.1,8.3-5.3,8.5C493.7,199.64,497.5,201.14,498.2,200.74Z"/><path class="cls-119" d="M487.9,185.54a6.19,6.19,0,0,0,6.1,2,6,6,0,0,0,3.8-2.3,4.75,4.75,0,0,1-4.6,3C490.1,188.34,489.1,187.14,487.9,185.54Z"/><path class="cls-119" d="M498.9,186.94a5.14,5.14,0,0,0,2.8,1.7c-2.4-1.5-1.9-5.3-1.9-5.3a1,1,0,0,1-1,0c0,.3-.2-.8-.8,1.2,0,0,0,2.1-4.4,3.7A27.27,27.27,0,0,0,498.9,186.94Z"/><path class="cls-114" d="M504.2,239l-5.9,3.2-.7,10.4,1.5.6.7-10.4,4.4-2.3A7.44,7.44,0,0,0,504.2,239Z"/><polygon class="cls-114" points="509 236.54 508.8 238.04 514.5 234.94 513.2 234.24 509 236.54"/><path class="cls-123" d="M484,191.34a9.57,9.57,0,0,1-.4,5.7c-1.2,2.7-2.2,7.4,1.6,9.9,0,0-4.8-1.9-2.8-8.5A17.88,17.88,0,0,0,484,191.34Z"/><path class="cls-123" d="M487.7,185.54s-1.9,8.4,6.3,14.3C494,199.84,484.3,194.84,487.7,185.54Z"/><path class="cls-123" d="M486.6,195.24s2.6,11.6,12,12.8C498.7,208,488.4,207,486.6,195.24Z"/><path class="cls-123" d="M489,195.34s1.5,10.3,10.7,8.9c0,0-7.9.8-10.1-8.1Z"/><path class="cls-123" d="M489.8,196.54s2.8,5.2,7,5.9c0,0-4.5-.1-7.1-5.3Z"/><path class="cls-123" d="M484,206.34s1.5,4.9,1,7.2l-.9-4.9a58.17,58.17,0,0,1-1,8.4,3.29,3.29,0,0,0,.5,3s-.6,0-1-1a14.74,14.74,0,0,1,.3-3.5c.4-2.1,1.1-9,.7-9.7Z"/><path class="cls-123" d="M488.4,212.34s5.7,10,13.4,5.1C501.8,217.34,495.7,221,488.4,212.34Z"/><path class="cls-123" d="M504.1,202.44s1.4,9.7,1.5,11.4-1.9,14.6-1.9,15.8.7,2.2,2.9,2.3,2.2-.2,3-1.1c0,0-.2,1.8-3,1.5,0,0-3.1.1-3.6-1.2,0,0-.3-.5.3-2.9a126,126,0,0,0,1.9-14.3C505.2,214,503.2,202.94,504.1,202.44Z"/><path class="cls-123" d="M504.6,209.44s2,5.8-3.4,6.8c0,0,3.4-1,3.7-5.5Z"/><path class="cls-123" d="M506,208.34s2.9,2.8,4.3-.4C510.3,207.94,509.4,212.24,506,208.34Z"/><path class="cls-123" d="M510.4,208.74s-.9,4.1-3.5,2.7c0,0,2.2.8,3.4-3.3Z"/><path class="cls-123" d="M510.7,216.54s-1.1,4.1-4.2,4.7a4.33,4.33,0,0,0,3.4-2.4s-1,4.1-3.5,4.2C506.4,223,509.9,223.24,510.7,216.54Z"/><path class="cls-123" d="M490.4,222.64a10.81,10.81,0,0,1,4,4c2.1,3.2,6.8,3.4,6.8,3.4a8.13,8.13,0,0,1-7.7-3.8c-2.8-4.5-3.5-3.7-3.5-3.7"/><path class="cls-123" d="M479.7,204.44s-.2,4.2,2.9,4.4C482.6,208.74,480.6,208.24,479.7,204.44Z"/><path class="cls-119" d="M486.5,177.64s2.6,3,8.9,2.1C495.4,179.74,488.2,181.74,486.5,177.64Z"/><path class="cls-119" d="M489,180.44l-.1,2.6s.5.9,2.1.7l.2-.3a2.36,2.36,0,0,1-1.9-.5C489.2,182.84,489.5,179.74,489,180.44Z"/><path class="cls-119" d="M503.4,235.44a7.73,7.73,0,0,0,.6,1.7c.5,1.1.1,4.2.1,4.2s-.5,2,.6,1.9c0,0-.7-.1-.3-1.9S504.9,236.54,503.4,235.44Z"/><polygon class="cls-119" points="501.3 198.24 502.6 199.64 502.4 198.74 501.3 198.24"/><path class="cls-119" d="M505.6,190.64s-6.5-.9-7.4,10.1a20.79,20.79,0,0,0,4.3-.5l-3.6-.1C498.9,200.24,499,191.64,505.6,190.64Z"/><polygon class="cls-119" points="489.8 187.24 490.2 188.84 490.7 188.84 490.8 187.94 489.8 187.24"/><polygon class="cls-110" points="504.1 240.14 499.4 242.74 498.8 253.04 499.1 242.54 504.2 239.94 504.1 240.14"/><polygon class="cls-110" points="503.9 239.64 498.8 242.54 498.2 252.94 497.8 252.64 498.5 242.34 504.1 239.34 503.9 239.64"/><polygon class="cls-110" points="509.1 236.74 513.5 234.54 513.7 234.74 508.9 237.14 509.1 236.74"/><polygon class="cls-110" points="509.1 237.34 514 234.94 509.1 237.74 509.1 237.34"/><path class="cls-124" d="M485.5,231.84s1.4,17.8,7.5,19.7A38.81,38.81,0,0,1,485.5,231.84Z"/><path class="cls-96" d="M483.3,272.34s-6.2,4.1-5.5,6.5,5.3.8,11.1-3.9c0,0-7.6,6-10.4,4.1C478.6,279.14,476.5,277.54,483.3,272.34Z"/><path class="cls-96" d="M494,277.94s-6.2,4.1-5.5,6.5,5.3.8,11.1-3.9c0,0-7.9,5.7-10.4,4.1C489.2,284.64,487.2,283.34,494,277.94Z"/><path class="cls-125" d="M257.3,534.84c-50.8,0-105.5,8.2-105.5,26.3,0,4,2.8,7.5,7.6,10.6l62.3,74.8a29.88,29.88,0,0,1,6.9,18.6v58.4c0,9.1,14.9,13.2,28.8,13.2s28.8-4.1,28.8-13.2v-58.4a28.76,28.76,0,0,1,6.9-18.6l5.3-6.4H329c7.9,0,15.1-4.5,18-11.4l5-12.3a13.61,13.61,0,0,0-1.9-13.7,17,17,0,0,0-13.4-6.4h-1.8l20.4-24.5c4.8-3.1,7.6-6.6,7.6-10.6C362.8,543.14,308.1,534.84,257.3,534.84Zm79.3,70.3a6.93,6.93,0,0,1,5.5,2.6,5.6,5.6,0,0,1,.8,5.7l-5,12.3a9.77,9.77,0,0,1-9,5.7H305.6l21.9-26.3Z"/><path class="cls-126" d="M257.3,544.84c61.8,0,95.5,11.9,95.5,18s-33.7,18-95.5,18-95.5-11.9-95.5-18S195.5,544.84,257.3,544.84Z"/><path class="cls-127" d="M271.6,558c37.2,0,64.2,3.2,79.8,6.7a3.43,3.43,0,0,0,1.4-2.3c0-6-33.7-17.6-95.5-17.6s-95.5,11.6-95.5,17.6c0,2.3,5,5.4,14.5,8.4C178.3,566.24,211.7,558,271.6,558Z"/><path class="cls-128" d="M284.9,641.44a38.54,38.54,0,0,0-8.9,24.1v58.6c-.6,1.3-7.3,4.7-19.3,4.7s-18.7-3.3-19.3-4.4v-58.9a37.41,37.41,0,0,0-8.9-24.1l-51.7-62.6c20.7,5.7,51,8.4,80,8.4s59.3-2.7,80-8.4l-51.9,62.6Z"/><path class="cls-129" d="M276.1,665.34a37.41,37.41,0,0,1,8.9-24.1l51.9-62.4c-20.7,5.7-51,8.4-80,8.4s-59.3-2.7-80-8.4l99.3,91Z"/></g></g></svg>