<?xml version="1.0" encoding="utf-8"?>
<!-- Generator: Adobe Illustrator 21.1.0, SVG Export Plug-In . SVG Version: 6.00 Build 0)  -->
<svg version="1.1" id="Layer_1" xmlns="http://www.w3.org/2000/svg" xmlns:xlink="http://www.w3.org/1999/xlink" x="0px" y="0px"
	 viewBox="0 0 514.5 646.7" style="enable-background:new 0 0 514.5 646.7;" xml:space="preserve">
<style type="text/css">
	.st0{opacity:0.5;}
	.st1{fill:#F3F3F3;}
	.st2{fill:#31AABA;}
	.st3{opacity:0.1;fill:#010101;enable-background:new    ;}
	.st4{fill:#35B7AE;}
	.st5{fill:url(#SVGID_1_);}
	.st6{fill:#A5B2C7;}
	.st7{fill:#6D798B;}
	.st8{fill:#FED4AF;}
	.st9{fill:#FBBD92;}
	.st10{fill:#D2D2D2;}
	.st11{fill:#AB6087;}
	.st12{fill:#28151A;}
	.st13{fill:#3CC3D9;}
	.st14{fill:#ECAC67;}
	.st15{fill:#ABDDDE;}
	.st16{fill:#EAAE9D;}
	.st17{fill:#CF8885;}
	.st18{fill:#2D9FB2;}
	.st19{fill:#E9EDF7;}
	.st20{fill:#884B6C;}
	.st21{fill:#454043;}
	.st22{fill:#129491;}
	.st23{fill:#ACADAE;}
	.st24{fill:#745D9E;}
	.st25{fill:#5D4980;}
	.st26{fill:#CD8079;}
	.st27{fill:#056772;}
	.st28{fill:#EF5B79;}
	.st29{fill:#A1D28E;}
	.st30{fill:#81B16D;}
	.st31{fill:#BD6D6A;}
	.st32{fill:#194353;}
	.st33{fill:#F28186;}
	.st34{fill:#DA5A7A;}
	.st35{fill:#FABFA0;}
	.st36{fill:#1D4E5E;}
	.st37{fill:#393537;}
	.st38{fill:#FEE495;}
	.st39{fill:#B16979;}
	.st40{fill:#606281;}
	.st41{fill:#4E506A;}
	.st42{fill:#7A93A1;}
	.st43{fill:#FCCDB0;}
	.st44{fill:#E98B41;}
	.st45{fill:#CFD7B0;}
	.st46{fill:#FFDDB8;}
	.st47{fill:#9EA372;}
	.st48{fill:#57585A;}
	.st49{fill:#A2B4BF;}
	.st50{fill:#516780;}
	.st51{fill:#EEB59B;}
	.st52{fill:#FABAA3;}
	.st53{fill:#F27385;}
	.st54{fill:#756F90;}
	.st55{fill:#E8E9F5;}
	.st56{fill:#826E74;}
	.st57{fill:#FFCD64;}
	.st58{fill:#F9E8E3;}
	.st59{fill:#DFDAED;}
	.st60{fill:#FCB238;}
	.st61{fill:#645E7B;}
	.st62{fill:#C65E6F;}
	.st63{clip-path:url(#SVGID_3_);}
	.st64{fill:#4E3136;}
	.st65{fill:#024E6C;}
	.st66{fill:#CA9E6F;}
	.st67{fill:#F2E094;}
	.st68{fill:#F2738E;}
	.st69{fill:#73A7BE;}
	.st70{fill:#197DAA;}
	.st71{fill:#F7EB98;}
	.st72{fill:#BC734F;}
	.st73{fill:#252A3D;}
	.st74{fill:#C0CCDD;}
	.st75{fill:#1F2746;}
	.st76{fill:#6D5539;}
	.st77{fill:#FFFFFF;}
	.st78{fill:#4E3C25;}
	.st79{fill:#F0C776;}
	.st80{fill:#DA587C;}
	.st81{fill:#F7A8A7;}
	.st82{clip-path:url(#SVGID_5_);}
	.st83{fill:#C45C7A;}
	.st84{fill:#73452C;}
	.st85{fill:#FCCFB7;}
	.st86{fill:#69446B;}
	.st87{fill:#5A395D;}
	.st88{fill:#F38AAA;}
	.st89{fill:#EDAA42;}
	.st90{fill:#A76F69;}
	.st91{fill:#A16443;}
	.st92{fill:#FAB6A1;}
	.st93{fill:#E96997;}
	.st94{fill:#82596B;}
	.st95{fill:#9C605B;}
	.st96{fill:#FABCA4;}
	.st97{fill:#F6EC49;}
	.st98{fill:#9B5E3F;}
	.st99{clip-path:url(#SVGID_7_);}
	.st100{fill:#F3B29E;}
	.st101{fill:#E3978B;}
	.st102{fill:#C8C4CC;}
	.st103{fill:#835D39;}
	.st104{fill:#F79058;}
	.st105{fill:#D4DAC2;}
	.st106{fill:#E67B50;}
	.st107{fill:#B7B4BC;}
	.st108{fill:none;}
</style>
<title>Asset 7</title>
<g id="Layer_2" class="st0">
	<g id="Layer_1-2">
		<path class="st1" d="M257.2,444.8c-50.8,0-105.5,8.2-105.5,26.3c0,4,2.8,7.5,7.6,10.6l62.3,74.8c4.4,5.2,6.8,11.8,6.9,18.6v58.4
			c0,9.1,14.9,13.2,28.8,13.2c13.9,0,28.8-4.1,28.8-13.2v-58.4c0-6.8,2.5-13.4,6.9-18.6l5.3-6.4h30.6c7.9,0,15.1-4.5,18-11.4l5-12.3
			c1.9-4.6,1.2-9.8-1.9-13.7c-3.2-4.1-8.2-6.4-13.4-6.4h-1.8l20.4-24.5c4.8-3.1,7.6-6.6,7.6-10.6C362.7,453.1,308,444.8,257.2,444.8
			z M336.5,515.1c2.1,0,4.2,0.9,5.5,2.6c1.3,1.6,1.6,3.8,0.8,5.7l-5,12.3c-1.6,3.5-5.1,5.8-9,5.7h-23.3l21.9-26.3H336.5z"/>
		<path class="st2" d="M257.2,454.8c61.8,0,95.5,11.9,95.5,18s-33.7,18-95.5,18s-95.5-11.9-95.5-18S195.4,454.8,257.2,454.8z"/>
		<path class="st3" d="M271.6,468c37.2,0,64.2,3.2,79.8,6.7c0.8-0.5,1.3-1.4,1.4-2.3c0-6-33.7-17.6-95.5-17.6s-95.5,11.6-95.5,17.6
			c0,2.3,5,5.4,14.5,8.4C178.2,476.2,211.6,468,271.6,468z"/>
		<path class="st4" d="M284.9,551.4c-5.6,6.8-8.8,15.3-8.9,24.1v58.6c-0.6,1.3-7.3,4.7-19.3,4.7s-18.7-3.3-19.3-4.4v-58.9
			c0-8.8-3.2-17.4-8.9-24.1l-51.8-62.6c20.7,5.7,51,8.4,80,8.4s59.3-2.7,80-8.4L284.9,551.4L284.9,551.4z"/>
		
			<linearGradient id="SVGID_1_" gradientUnits="userSpaceOnUse" x1="387.6385" y1="128.3548" x2="387.6485" y2="128.4048" gradientTransform="matrix(160 0 0 -91 -61840.7305 12383.6699)">
			<stop  offset="0" style="stop-color:#FFFFFF;stop-opacity:0.1"/>
			<stop  offset="1" style="stop-color:#FFFFFF;stop-opacity:0"/>
		</linearGradient>
		<path class="st5" d="M276,575.3c0-8.8,3.2-17.4,8.9-24.1l51.8-62.4c-20.7,5.7-51,8.4-80,8.4s-59.3-2.7-80-8.4l99.3,91V575.3z"/>
		<path class="st6" d="M258.6,369.3c0,0-0.8,0.1-0.9,0.5c-0.1,0.9-0.1,1.7,0,2.6c0.1,0.5,0.7,0.6,0.7,0.6l0.2-0.5L258.6,369.3z"/>
		<path class="st7" d="M258.5,369.5c0,0-0.5,0.2-0.4,0.4c0.1,0.1,0.3,0.2,0.4,0.3V369.5z"/>
		<path class="st8" d="M262.6,350.4l0.1,24l-1.8,9.8c-3.1,0.3-2.7-3.4-2.7-3.4s-0.3,0.2-1.1-0.3s-0.5-2.4-0.3-4.6
			c0.1-1.2,0.7-2.3,1.7-3.1c0-0.7,0.3-10.7,0.7-14.5c0.1-2.9,0-5.7-0.3-8.6L262.6,350.4z"/>
		<path class="st7" d="M258.4,372.8c0.8,0.7,1.8,1.1,2.9,0.9l1.4-0.3l0.1-2.6c0,0-0.3,0.8-2.2,0.7c-0.9,0-1.7-0.5-2-1.4
			c0,0-0.1-0.1-0.2,0.3C258.2,371.2,258.2,372,258.4,372.8z"/>
		<path class="st9" d="M261.5,375.1c0,0-0.7,2.1-2.1,2.3c-0.6,0.2-1,0.8-1,1.5l-0.2,2.1c0,0,0.8-0.3,0.8-2.4c0,0,0-0.5,1-0.8
			C261,377.3,261.6,376.2,261.5,375.1z"/>
		<path class="st10" d="M286,437.6c0,0,1,1.7,0.7,2.5s-8.4,9.4-10.8,8.6s-2.8-1.6-2.5-2.5s5.3-7.8,5.3-7.8
			C282.1,441.1,286,437.6,286,437.6z"/>
		<path class="st10" d="M272.2,430.6c0,0,1,2.4,0.7,3s-8.5,8.4-10.3,8.3c-1.4-0.1-2.6-1.2-2.9-2.6c0-0.9,5.5-7,5.5-7L272.2,430.6z"
			/>
		<path class="st11" d="M261.8,373.5c4.4,2.9,21.4,7.2,21.4,7.2c0.3,3.1-0.3,36-0.3,36c-0.7,5.2,3.5,18.9,3.5,18.9s0.9,3-3.3,4.1
			s-4.8-1.9-4.8-1.9s-4.8-17.7-5.5-20.3s-1.6-20.3-1.6-20.3c-1.6,5.4-2.4,11.2-2.2,14.5s4.4,18.3,4.4,18.3c-1.2,3.9-5.7,3.5-7.1,3
			c-1-0.3-1.7-1.3-1.5-2.4c-0.6-2.6-5.2-17.8-5.2-19.8s0.8-24.4,0.8-24.4C260.4,376.6,261.9,373.5,261.8,373.5z"/>
		<path class="st12" d="M281.4,373l-2.6,6.4c-11.6,2.7-16.9-5.1-16.9-5.1c-0.2-1.5-0.1-3,0.3-4.4C270.6,377.2,281.4,373.1,281.4,373
			z"/>
		<path class="st8" d="M273.2,330.2l3.1,2c0,0,1.1,3.2,0.6,3.8s-3.3,2.6-4.9,4.2c-1.2,1.6-2.2,3.3-2.9,5.2l-0.8-5
			c-0.1-1.7,0.2-3.5,0.9-5.1L273.2,330.2z"/>
		<path class="st13" d="M278.9,334.2c0,0,6.7,28,6.7,32.1c-0.1,2.8-1,5.4-2.6,7.7c-14.1,7-21.2-3.7-21.2-3.7
			c-1.1-4.6-0.8-18.7-0.8-18.7c-1.5-0.2-2.8-1.1-3.5-2.4l-0.2-3.3c0.2-1.6,1-1.1,1-1.1s0.3-8.7,0.3-9c0.3-7.4,5.3-7.4,5.3-7.4
			c0.3,1.7,2.8,7.1,2.8,7.1l2.4,1l-0.9,3.2c0,0.8,0.9,5.7,0.9,5.7s1.7-5.1,3.7-6s4.9-4.7,4.9-4.7c0.3-0.7-0.3-2.7-0.3-2.7
			c0.2,0,0.5-0.1,0.6-0.3L278.9,334.2z"/>
		<path class="st14" d="M276.7,375.4c0.2-0.3,0.4-0.1,0.4,0.1c0.2,0.2,0.3,0.3,0.3,0.5c0.2,0.3,0.3,0.7,0.5,1
			c0.2,0.8,0.5,1.5,0.9,2.2c0.9,1.4,2.4,2.1,4,2c1.6-0.2,3-0.9,4.1-2.1c1.1-1.2,1.9-2.5,2.5-4h0.1c-0.2,0.8-0.4,1.6-0.8,2.4
			c-0.4,0.7-0.8,1.4-1.3,2.1c-1.1,1.4-2.7,2.3-4.5,2.4c-0.9,0.1-1.9-0.1-2.7-0.5c-0.8-0.4-1.5-1.1-1.9-1.9c-0.2-0.4-0.3-0.8-0.4-1.2
			c-0.1-0.3-0.2-0.8-0.3-1.1s-0.2-0.8-0.3-1.1s-0.2-0.3-0.3-0.5S276.8,375.3,276.7,375.4L276.7,375.4z"/>
		<ellipse class="st15" cx="268.6" cy="352.6" rx="0.6" ry="0.9"/>
		<path class="st16" d="M289.9,371.9c0.4,3.1-0.3,4.4-0.3,4.4s0.4,7.6,0.5,11.8c0.1,4.5-1.6,5.2-1.6,5.2l-6.8,3.9
			c-1.1,0.5-3.8,1.8-4.9-0.4c-0.6-1.2-1-14.4-0.9-19.6c0-0.7,0-1.3,0.2-2c0.4-0.9,6.9-4,6.9-4C285,369.4,289.5,368.7,289.9,371.9z"
			/>
		<path class="st17" d="M276.7,375.4c0.6-0.3,1.3,0,1.6,0.6c0.1,0.2,0.1,0.5,0.1,0.7c0,2,0.2,3.7,0.9,4.5s7,3.6,10.3-5
			c-0.4,2.5-2,4.6-4.2,5.8c0,0-4.1,2-6.6-0.9c-0.5-0.9-0.8-2-0.7-3.1C278.1,375.9,277.9,375.5,276.7,375.4z"/>
		<path class="st8" d="M282.9,360.4c0,0,0,2.4,0.2,7.2s-1.7,18.9-1.7,18.9c1.1,1.4,3,1.8,4.5,1c-0.4-2,2.8-14.6,2.8-14.6
			c1.6-9.6,0.3-13.7,0.3-13.7C284.3,356.7,282.9,360.4,282.9,360.4z"/>
		<path class="st18" d="M269.4,336.2l-0.4-0.5l-0.3,0.9c-0.3,1.3-0.5,2.5-0.6,3.8l0.8,2.4c-0.7-4.5,0.2-5.9,0.2-5.9L269.4,336.2z"/>
		<path class="st13" d="M277.9,333.5l-0.2-1.8c1.9,0.8,2.4,3.8,2.4,3.8s5.8,3.9,7.4,6.3s1,4.3,1.3,7.8c0.1,0.8,0.5,3.2,0.9,5.3
			c0.5,0.2,1,4.2,1,4.2s-1.1,3.5-6.8,3.1l-1.6-0.3c0,0-3.3-9.1-3.1-12.5s-0.1-5,1.6-6.4"/>
		<path class="st8" d="M285.8,387.2c0.3,1.7,1.1,5.1,0.7,6.8c-0.6,1.8-1.6,3.4-3,4.6c-1.7,1.2-2.3,0.2-2.4-0.3s0.6-3,0.7-3.6
			c0.2-0.9-0.2-1.9-0.3-3.4c-0.9,0.1-0.4,2-0.6,3s-1.4,0.7-1.6,0.3c-0.2-0.7-0.3-1.5-0.3-2.2c0-0.9,0.1-1.8,0.4-2.7
			c0.7-2.6,2-3.3,2-3.3C283.8,389,285.8,387.3,285.8,387.2z"/>
		<path class="st16" d="M276.6,378.6c-0.8-3-1.7-6.1-2.8-9c-0.7-1.9-7.8-20.8-9.8-29.5s0.3-10.6,0.3-10.6l0.3,1.7
			c-1.9,4.1,5.7,26,9,33.7c1.7,4.1,3.2,8.2,4.3,12.5C278.4,379.2,276.9,380.4,276.6,378.6z"/>
		<path class="st18" d="M279.5,349.1c0.1,1.5,0.3,3,0.8,4.4c0.3,1.3,0.7,2.6,1.1,3.9c0.1,0.2,0,0.2,0.1,0.4
			c-0.2,0.7,0.8,3.8,1.3,3.8c0.1,0.6-0.2,0.6-0.6,0.6s-1.8-5.5-2.7-8.4c-0.4-1.5-0.6-3-0.6-4.6c0-1.5,0.2-3.1,0.8-4.5
			C279.5,346.2,279.5,347.6,279.5,349.1z"/>
		<path class="st19" d="M270.4,375.9l-0.1,4.2c-1.5-0.4-2.9-1-4.2-1.7c-0.7-2.9,0.1-4.3,0.1-4.3
			C267.3,375.2,270.3,375.9,270.4,375.9z"/>
		<path class="st17" d="M276.9,374.4c0,0,1,2.2,0.7,2.8s-1,1.2-1.6-1c0,0-0.1,0-0.1,0.5c0,0,0.3,1.2,1,1.3s1.2-0.8,0.7-2.1
			c-0.2-0.5-0.4-1-0.5-1.5l5.7-3.1V371C283,371,277.5,373.8,276.9,374.4z"/>
		<path class="st18" d="M264.3,339.3c5.1-2.5,4.9,6.2,4.9,6.2C268.2,338.2,264.3,339.4,264.3,339.3z"/>
		<polygon class="st18" points="267.3,335.5 265.4,339 264.3,339.3 266.8,335.4 		"/>
		<path class="st20" d="M267.5,388.5c3.9,2.9,3.7,9.4,3.7,9.4v-2c0.1-2.2-0.4-4.4-1.5-6.3l2.6,0.7l-4.2-2.8l-1.7-7.2L267.5,388.5z"
			/>
		<path class="st8" d="M269.3,336.6c-0.2-0.1-2.9-0.7-3.5-1.6s-3-7.2-2-8.2c0.8-0.9-0.3-1.8-0.5-2.3c-0.1-0.5-0.2-0.9-0.1-1.4
			c0,0-0.3-3.5,0.7-4.4s6.8-8.8,13.1-5.1c1,0.9,1.5,2.3,1.3,3.7c-0.1,0.3,0.2,7.7,0.2,7.7s1.7-0.6,1.9,1.6s-0.4,3.8-1.3,4.5
			c-0.6,0.5-0.9,0.8-1.5,0.8l0.2,1.8"/>
		<path class="st21" d="M271,310.8c-2.4-0.9-2.6,1.4-2.6,1.4c-1.1-0.1-2,0.7-2.2,1.7c-2.7,0.4-2.4,2.2-2.4,2.2
			c-1.9,0.6-1.7,1.7-1.7,1.7c-0.3,2.2,1.2,2.1,1.2,2.1c0.1,0.9,0.9,1.5,1.8,1.5c0.2,0,0.4-0.1,0.5-0.2c0.4,0.9,1.3,1.3,2.2,0.9
			c0.1,0,0.1-0.1,0.2-0.1c0.6,0.8,1.7,1,2.4,0.4c0.2-0.1,0.3-0.3,0.5-0.5c0.8,0.2,1.6-0.1,2-0.8l-0.7,1.3c-0.7,1.7,1.6,2.7,1.6,2.7
			c-0.3,1,0.1,2,1,2.5c0.4,0.3,0.3,0.3,0.5,1.4c0.1,0.6,0.7,1.1,1.4,1l0.1-1.6c0-1,0.4-2,1-2.8c1.8-1.1,2.4,1,2.4,1
			c0.6-0.6,0.8-1.4,0.5-2.2c0.7-0.9,0.8-2.1,0.3-3.1c0.5-0.9,0.3-1.9-0.4-2.6c0.3-1-0.2-2-1.1-2.4c0.2-0.6,0.2-1.4,0-2
			c-0.5-0.7-1.3-1.1-2.2-1.1c-0.2-1-1.2-1.7-2.2-1.6c-0.3-0.3-0.3-1-1.6-1.3C272.6,310.2,271.7,310.3,271,310.8z"/>
		<path class="st9" d="M264.1,325.7c1.5,1.3,3.3,2.2,5.3,2.4c2.7,0.5,3.8-0.7,3.8-0.7s-0.5,0.5-3,0.3c-1.4-0.3-2.7-0.8-4-1.5
			c-1.1-0.3-2.2-1-3-1.8C263.4,324.9,263.7,325.3,264.1,325.7z"/>
		<path class="st9" d="M271.1,340.8l4.7-5.7c0.3-1.4,0.4-2.8,0.4-4.2c0.3,0.1,0.5,0.6,0.7,0.7c0.3,0.3,0.7,0.4,1.1,0.2v2.1l0.3,0.7
			c-0.9,1.6-4,3.8-4,3.8L271.1,340.8z"/>
		<path class="st9" d="M277.9,328.2c-0.3,0.6,0.5,0.8,0.7,0.6s0.1-2.1,0.4-1.5s-0.2,2.3-0.7,2.4s0.1-0.8-0.5-0.7s-0.6,0.8-0.6,0.8
			c0,0.5,0.5,0.9,1,0.9c0.2,0,0.4-0.1,0.6-0.3c0.7-0.6,1.2-3.7,0.3-4.1s-1.7,1.1-1.7,1.1C277.7,327.3,278.1,327.5,277.9,328.2z"/>
		<path class="st9" d="M266.6,327.2l0.3,3.9l1.2,0.1l0.4,0.5c-0.8,0.3-1.7,0.2-2.4-0.3V327L266.6,327.2z"/>
		<path class="st18" d="M290.5,358.1c-2.5,4.4-8.5,3.3-8.5,3.3s0,0.6,0.4,0.7c6.4,1.1,8.3-2.8,8.3-2.8
			C290.7,358.9,290.6,358.5,290.5,358.1z"/>
		<path class="st18" d="M281.2,357.6l-0.3-0.6c0.8,0.4,1.6,0.6,2.5,0.5c2.3-0.1,4.5-1.1,6.2-2.7c-0.4,0.7-0.9,1.2-1.5,1.7
			c-0.6,0.5-1.4,0.9-2.2,1.1C281.9,358.6,281.2,357.6,281.2,357.6z"/>
		<path class="st18" d="M279.9,336.7c-0.3,1.3-3.8,8-3.8,8s-2-3-3-4.3s-3.8,4.9-3.8,4.9l1.4-3.6c0,0,0.9-1.7,1.8-2.1
			s3.4,3.4,3.4,3.4c0.7-1.5,1.5-2.9,2.4-4.3c1.7-2.9,1.6-4.4,1.6-4.4C280.1,335.1,280.1,335.9,279.9,336.7z"/>
		<path class="st18" d="M278.3,335.1c-0.1,0.3-0.3,0.6-0.6,0.9l-0.8,0.8l0,0l-3,2.1c-0.5,0.3-1,0.7-1.5,1c-0.5,0.3-0.9,0.7-1.3,1.2
			c0.2-0.6,0.5-1.2,1-1.6l1.3-1.3c1-0.8,2-1.5,3-2.2l0,0l0.7-0.7c0.2-0.3,0.4-0.5,0.6-0.8c0.4-0.6,0.5-1.3,0.5-2
			C278.5,333.3,278.6,334.2,278.3,335.1z"/>
		<path class="st9" d="M268.7,338.3c0.2-1.4,0.5-1.6,0.5-1.6c1.3,0.3,2.2-0.4,3.5-1.4c1-0.8,1.9-1.8,2.6-2.9c-1.6,5.3-5.9,5-5.9,5.1
			C269.4,337.4,269,337.7,268.7,338.3z"/>
		<path class="st18" d="M260.7,350.7c-1.1,0.3-3-1.6-3-1.6c0.6,1.4,2,2.3,3.5,2.4l0.4-15.4C261,338.6,260.7,350.7,260.7,350.7z"/>
		<path class="st18" d="M261,347.1c-1.2-0.2-2.2-1.2-2.5-2.4c1.4,1.8,2.7,1.6,2.7,1.6L261,347.1z"/>
		<path class="st18" d="M266.2,348.5c-1.3-0.3-2.5-0.9-3.4-1.8c-0.5-0.3-0.7-0.8-0.5-1.3c0.9,1.2,2.2,2,3.7,2.4L266.2,348.5z"/>
		<path class="st18" d="M262.8,352.6c0.5,1.3,1.7,2.1,3.1,2C262.8,355.7,262.8,352.7,262.8,352.6z"/>
		<ellipse class="st15" cx="268.6" cy="361.2" rx="0.6" ry="0.9"/>
		<ellipse class="st15" cx="268" cy="369.1" rx="0.6" ry="0.9"/>
		<ellipse class="st15" cx="269.3" cy="346.6" rx="0.6" ry="0.9"/>
		<path class="st11" d="M262.5,371.1l-0.3,4.4l1.3,1.1c-0.4-1,0.2-4.4,0.2-4.4L262.5,371.1z"/>
		<polygon class="st11" points="275.4,376.3 275.4,380 274.1,380.2 274.1,376.3 		"/>
		<path class="st9" d="M270.2,337.2c0,0-0.8,2.7,0.5,4.3l-1.5,3.7c0-1.1-0.1-2.2-0.3-3.3c-0.3-1.4-0.3-5,0.4-5.4
			C269.2,336.6,269.7,337.1,270.2,337.2z"/>
		<path class="st9" d="M260.4,380l-0.1,4.3c-0.3,0.1-0.6,0.1-0.8-0.1c0,0,0.8,0.4,0.7-1.9S260.3,379.4,260.4,380z"/>
		<path class="st9" d="M289.3,360.8c0,0-1.7,1.7-6.4,1.3c0.2,3,0.2,5.9,0.1,8.9c0,0,0.8-6.5,0.6-7.3c1.6,0.3,3.3,0.1,4.8-0.4
			c0,0,0.8,6.2,0.4,8.9C288.8,372.2,290,365.2,289.3,360.8z"/>
		<path class="st9" d="M258.8,350.6l0.2,1.2c1,0.4,1.7,1.4,1.6,2.5c-0.1,1.9,0.8,17.2,0.8,17.2l0.5-0.1l0.2-0.9
			c-0.4-1.6-0.6-3.2-0.7-4.8c0-2.1-0.6-12.4-0.3-14.1L258.8,350.6z"/>
		<path class="st22" d="M260.9,351.2c0,0-0.3,13.2,1,19.2c3.3,4.4,8.7,6.6,14.1,5.9c0,0-10.4-0.3-13.6-6.2c-0.4-2.2-0.7-4.5-0.9-6.8
			c-0.4-5.1-0.4-12-0.4-15.2L260.9,351.2z"/>
		<path class="st23" d="M266.8,433.7l-3.4,4.1C264.8,436.7,265.9,435.3,266.8,433.7z"/>
		<path class="st23" d="M265.3,434.3l1.7,0.9C266.3,435.4,265.6,435,265.3,434.3z"/>
		<path class="st23" d="M264.3,435.3l1.7,0.9C265.3,436.4,264.6,436,264.3,435.3z"/>
		<path class="st23" d="M263.1,436.5l1.7,0.9C264.1,437.6,263.4,437.2,263.1,436.5z"/>
		<path class="st23" d="M280.3,440.3l-3.4,4.1C278.4,443.4,279.6,441.9,280.3,440.3z"/>
		<path class="st23" d="M278.9,441l1.7,0.9C280.5,441.8,279.3,442.1,278.9,441z"/>
		<path class="st23" d="M277.8,442l1.7,0.9C278.8,443,278.1,442.6,277.8,442z"/>
		<path class="st23" d="M276.7,443.1l1.7,0.9C277.7,444.2,276.9,443.8,276.7,443.1z"/>
		<path class="st23" d="M279.4,447.2c0,0,0.5-0.5-0.7-1.4c-2.8-1.9-4.1-1.6-4.1-1.6s-1.8,1.8-1.2,2.9c0,0,1.6,2.2,3.8,1.4
			L279.4,447.2z"/>
		<path class="st23" d="M266.1,440.1c0,0,0.2-0.3-1-1.1c-2.8-1.9-4.1-1.6-4.1-1.6s-1.8,1.8-1.2,2.9c0,0,2,2.2,3.8,1.4L266.1,440.1z"
			/>
		<path class="st23" d="M286.6,439c-2.2,2.9-4.9,5.6-7.8,7.8l0.1,0.8c0,0,5.4-3.8,7.7-7.4C286.7,440.1,286.8,439.8,286.6,439z"/>
		<path class="st23" d="M272.8,432.7c0,0-1.7,3-7.8,7.4l-0.1,0.8c0,0,5.6-3.5,7.9-7.1C272.9,433.8,273,433.5,272.8,432.7z"/>
		<path class="st20" d="M267.5,388.5c0,0-4.4-2.4-4.3-4l4.5,3.2L267.5,388.5z"/>
		<path class="st24" d="M183.6,399.3c0,0,3.8,1.9,5.9,3.3c0,0,1.3,0.6,1,1.7c0,0-0.3,2.1-3.2,1.7c-1.3-0.2-3.3-0.1-7.8-3.4
			c-0.9-0.5-1.5-1.4-1.6-2.4C177.9,398.6,181.7,398.4,183.6,399.3"/>
		<path class="st25" d="M179.2,402.4c0,0,4.4,4,9.2,3.7c0,0-6.4-1.4-7.5-3.6c-0.8-1.2,0.2-1.6,0.2-1.6l-1-0.9l-0.7-0.2l-0.5,0.2
			C178.9,400.8,179,401.6,179.2,402.4z"/>
		<path class="st24" d="M174.4,400.1l-0.1,0.7c0,0-0.8,7.2,0.1,9c0.5,1.1,1.7,1.8,2.9,1.7c0.8,0,3.1-1.4,2.5-6
			c-0.2-1.9-0.5-3.8-0.9-5.6L174.4,400.1z"/>
		<path class="st25" d="M174.3,400.9c1.6,0.6,3.3,0.4,4.7-0.5l0.3,1.2c0,0-0.3,2.3-5.1,0.6L174.3,400.9z"/>
		<path class="st26" d="M175.4,400.8c-0.2,1.3-0.2,2.7,0,4c0.3,1,1.7,2.5,2.7,0.4c0.8-1.7-0.2-5.3-0.2-5.3L175.4,400.8z"/>
		<path class="st26" d="M182.8,398.3c0,0,0.3,0.9,2.2,1.9c1.2,0.6,2,1.3,2,2.1s-3.6,1-7-2.4L182.8,398.3z"/>
		<path class="st27" d="M179.1,399.8c0,0,2.8,1.2,3.7-1.5c0,0,0.3-14.1,2.5-24.3s4.6-25.9,4.4-27.4l-11.5,4.3L179.1,399.8z"/>
		<path class="st26" d="M195.8,329.7c0.4,0.4,0.9,0.7,1.5,0.8c1.2,0.2,2.2,0.7,3,1.6c0.9,1,1.1,1.7,2,2.2s0.7,0.9,0.3,1.3
			s-2.1,0.1-2.7-1.4c0.2,0.9,0.6,1.7,1.1,2.4c0.7,0.8,1.7,2.4,1.2,3.4s-2.1,1.1-3.9,0.5s-4.5-1.9-5.3-5.9c0-0.7-0.3-1.4-0.8-2
			C192.2,332.7,192.4,329.9,195.8,329.7z"/>
		<path class="st27" d="M165.5,350.3c0,0,3.5,25,7.9,48.2c0,0,0.1,2.6,2,2.8c2.6,0.3,4.4-1.2,4.2-2.6c0,0-0.4-35.7,1.2-46.7
			C180.9,352,173.9,342.8,165.5,350.3z"/>
		<path class="st28" d="M167.3,315.1l-2.7,26.7c-0.9,0.1-1.6,1-1.6,1.9c0,0,3.2-26,2.4-30.7L167.3,315.1z"/>
		<path class="st29" d="M195.9,329c0,0-3.3-8.4-4.1-10.2s-0.7-8.2-0.7-8.2c-1-15.9-6.1-15.9-6.1-15.9c-0.5,2.5-3.6,4.9-3.6,4.9
			c4.4,7.3,1,9.8,1,9.8c0.5,1.7-0.3,6.4-0.3,6.4c-0.7-3.9-2.1-5.1-2.1-5.1c-3.1,0-4.9-3.7-4.9-3.7c-2.7-5.1-5.1-6.1-5.1-6.1
			c-1.8,0.5-3.5,1.3-4.9,2.5c-4.9,5-6.5,20.9-6.4,24.2s4.3,10.3,4.3,10.3c-0.6,2.1-0.6,4.3-0.1,6.4l11.2,9.6
			c6.3,0.9,12.7-1.5,16.8-6.4l0.3-3.4c0.1-1.8,0-3.6-0.4-5.3c-0.6-2.9-3-12.9-3-12.9l4.3,7.2c0.7-3.1,4.1-3.2,4.1-3.2
			C196.2,329.6,196.1,329.3,195.9,329z M167.6,327.8l-1.1,3.1l-1.3-5.4c0.5-1.9,1.1-3.7,1.8-5.5C168,322.5,168.2,325.2,167.6,327.8
			L167.6,327.8z"/>
		<path class="st26" d="M172.8,296.2c0,0,0.6,2.7-2.4,4.8c1.9,1.9,3.6,4.1,5,6.4c2.8,4.4,4.7,3.3,4.7,3.3l2.1,5.1l0.5-6.4
			c0,0,3-2.3-1.3-9.8C178.2,299.7,175,298.5,172.8,296.2z"/>
		<path class="st26" d="M170.6,293.4c0,0-2,5.3,2.2,3.1c0,0,4,5.3,9.4,3.1c0,0,2.6-1.1,3.3-7.6c0,0,1.4-8.6-0.6-10.5
			c0,0-10.9-7-13.9-0.3C169.2,285,169.1,289.5,170.6,293.4z"/>
		<path class="st21" d="M172.2,275.9c0,0-7,0.7-7,10.9c-0.1,1.8-0.5,3.6-1.1,5.3c-0.9,2.4-0.7,7.8,7.6,7.8c1.1-0.9,1.5-2.4,1.1-3.7
			c0,0-1.7,0.7-1.7-1.7c1.2-0.8,2.3-1.8,3.2-2.9c0.6-0.3,1.6-0.6,2.4-4c0,0,6.2,0.9,8.3-4.1c0.3,1.9,0.5,3.8,0.4,5.7
			c0,0.3-0.6,1.6-0.6,2c-0.1,1.2,0.5,2.1,0.2,3.3c0,0,2,1,2.2-5.1s-1.6-7.4-3.5-10C183.7,279.2,178.3,272.6,172.2,275.9z"/>
		<path class="st30" d="M173.5,321.8c0,0,4.5,0.5,7.1-1.7C180.4,320.3,178.8,323.4,173.5,321.8z"/>
		<path class="st31" d="M182.7,309.5c1.5-4-1.6-8.7-1.6-8.7c-1.3,0-2.4-0.1-2.4-0.1c-1.2-0.2-2.3-0.6-3.3-1.3
			c-2.5-1.7-2.4-3-2.4-3.8c0,0,2.5,4,6.2,4.3c0.8,0.1,1.5,0.1,2.3,0C181.5,299.8,185.7,306.3,182.7,309.5"/>
		<path class="st31" d="M185.5,289.3c0,0-4.7,3.7-8,2.6c0,0,1,1.8,5.1-0.3l2.6-1.6L185.5,289.3z"/>
		<path class="st27" d="M167,327.2c0.5,0.9,1.1,1.7,1.8,2.4c1.4,1.5,6,2.4,8.9,1.5c-0.7-2.5-1-5.2-0.9-7.8c0.1-1.8,0.2-3.5,0.2-4.8
			c0.3-3.1,0-6.2-1-9.2c0,0-0.6,0-2.5-3.5c-2-3.7-2.9-4.6-4.2-4.9c0,0-2.3,0.5-2.9,1.5c0,0,4.5,1.9,4.4,8.9
			c-0.1,7.3-3.7,9.3-3.7,9.3c0,0.8,0.1,1.7,0.3,2.5C167.9,324.8,167,324.8,167,327.2z"/>
		<path class="st28" d="M165.2,303.3c0,0,4.2-0.8,5.7,10.4l1.6,27.4l0.7,4.5l1.1,0.8c0,0-1-9.6-1.2-16.2s-0.8-18.8-1.5-21.1
			s-1.6-5.4-5.1-6.8C165.9,302.2,165.3,302.6,165.2,303.3C165.2,303.3,165.2,303.3,165.2,303.3z"/>
		<path class="st30" d="M169.2,310.4c0.1,3.3-0.6,6.6-2.2,9.6C167,320,171.1,314.2,169.2,310.4z"/>
		<path class="st30" d="M168.9,315.4c0.7-0.5,1.2-1.3,1.3-2.2c0.2,1.2-0.4,2.5-1.5,3.1L168.9,315.4z"/>
		<path class="st27" d="M182.6,299.4c0,0,3.7,5.1,2.9,19.1c0,0,0,4.3-0.3,7c-0.2,1.7-0.1,3.4,0.2,5c1.3-0.2,2.5-0.9,3.3-2
			c0.2-0.3,0.4-0.5,0.7-0.7c0,0-0.6-11.6-0.3-12.6c0.6-1.2,0.9-2.5,0.9-3.9c-0.2-1.7-2.3-4.5-3.3-7.4s-2.6-6.5-2.6-6.5
			C183.8,298.2,183.3,298.9,182.6,299.4z"/>
		<path class="st21" d="M176.1,289.5c0,0-1.7,5.1-4.9,5L176.1,289.5z"/>
		<path class="st32" d="M189.1,315.2c-0.7,1.1-1.6,2-2.6,2.7c1-0.4,1.9-1,2.6-1.8V315.2z"/>
		<polygon class="st30" points="179.8,310.8 182.2,315.8 183,309.2 182.7,309.5 182.1,314.8 180.1,310.7 		"/>
		<path class="st28" d="M163.2,338l1.1,1.5l-0.1,2.2c0,0-1.2,0.4-1.2,1.2C162.9,341.3,163,339.6,163.2,338z"/>
		<path class="st30" d="M166.4,330.9l2.8,6.7l1.3,1.8c-1,1.5-2.6,2.6-4.4,3c0,0-2.2-3.4-3-4.6l3.1,4c1.4-0.3,2.7-1.1,3.6-2.3l-1-1.7
			c-1.2,1-2.6,1.7-4.1,1.9c1.3-0.6,2.7-1.3,3.9-2.1C168.7,337.5,166.6,333,166.4,330.9z"/>
		<path class="st28" d="M162.9,344.2c0,0-0.1,6.6,0.9,8.5c0,0,1.2,1.9,6.7,3.9c1,0.5,2,0.7,3.1,0.7c1-0.1,1.8-0.8,2.1-1.8
			c0,0,0-6.2-0.3-6.9c0,0-0.3-0.9-2-1.2S162.8,341.5,162.9,344.2z"/>
		<path class="st33" d="M164.6,341.6c0,0-1.6-0.1-1.7,2.1c0,1.5,0.2,2.9,0.7,4.3c0,0,2.6,2.8,4.6,3.6s4.3,1.2,5.2,0.5
			c0.2-0.4,0.2-0.9,0.2-1.4c0-0.4,0.4-0.8,0.8-0.9c0,0,0.9-0.1,0.9-0.6l0.1-0.7C175.4,348.5,166.7,342.6,164.6,341.6z"/>
		<path class="st34" d="M163.2,344c0,0,9.1,5.8,10.3,6.2C173.6,350.2,167.3,347.5,163.2,344z"/>
		
			<ellipse transform="matrix(0.9328 -0.3603 0.3603 0.9328 -114.5193 83.8599)" class="st35" cx="167.7" cy="349.1" rx="0.6" ry="0.8"/>
		<path class="st34" d="M162.9,347.3c2.4,3.2,6.3,5.1,10.3,5c0,0-0.1-2,1.2-2.5c-0.7,0.7-1.1,1.7-0.9,2.7
			C169.3,352.8,165.2,350.8,162.9,347.3z"/>
		<path class="st27" d="M181.1,353.4c0,0-0.1,16.8-1.2,24.1c0,0,0.1,4.1,0.1,7.2s-0.4,15-0.4,15l-0.3,0.5c0,0,0.4-13.1,0.1-15.6
			c-0.2-2.4-0.2-4.9-0.1-7.3c0-1.1,0.9-22.2,1.1-23.7L181.1,353.4z"/>
		<path class="st30" d="M195,327.7c-1.9,0.1-3.5,1.4-3.9,3.3c-0.1-1.8,1.3-3.3,3.1-3.4C194.5,327.6,194.7,327.6,195,327.7z"/>
		<path class="st26" d="M170.3,339.7c0.4,0.5,1.1,0.8,1.7,0.8c0.9,0,1.8,0.9,2.5,2s1.2,1.3,1.3,1.7s-0.2,0.9-1.3,0.5
			c-0.7-0.2-1.3-0.5-1.9-0.9c0.6,0.6,1.1,1.3,1.5,2.1c0.5,1.2,1.7,1.1,2.1,2c0.2,0.5-0.1,1.1-0.6,1.3c-0.1,0-0.3,0.1-0.5,0
			c-0.8,0.4-1.8,0.5-2.7,0.4c0,0-3.1-0.7-4.7-4.9c-0.2-0.9-0.5-1.8-0.9-2.6C168.2,341.7,169.4,340.8,170.3,339.7z"/>
		<path class="st36" d="M189.5,349c0,0-3.8,4.8-13.8,4.9v1.7c4.9-0.3,9.7-2,13.6-5L189.5,349z"/>
		<path class="st31" d="M183,291.9c0,0,0.7,2.8,0.1,4.4c-0.2,0.4-0.7,0.7-1.2,0.6c0,0,1-0.3,1.1-2.1c0-0.9-0.1-1.8-0.4-2.7
			L183,291.9z"/>
		<path class="st37" d="M171.1,294.5c0,0,0,2.3,1.8,1.7c0,0,0.5,2.4-1.1,3.7c-1.2,0.1-2.4,0-3.6-0.4c0,0,4.3,0.7,4.1-1.8l-0.1-0.9
			C172.2,296.8,170.9,296.7,171.1,294.5z"/>
		<circle class="st38" cx="172.2" cy="295.9" r="0.5"/>
		<path class="st38" d="M172.7,297.2c0,0.3-0.2,0.5-0.5,0.5s-0.5-0.2-0.5-0.5c0-0.3,0.2-0.9,0.5-0.9S172.7,297,172.7,297.2z"/>
		<path class="st31" d="M172.9,296.2c0,0,0.9,2.5-2.4,4.8c1.3,1.3,2.4,2.7,3.5,4.2c0,0-2.2-3.3-1.3-4.4c0.6-0.9,1.1-1.9,1.3-2.9
			L172.9,296.2z"/>
		<path class="st31" d="M174,305.2c0,0,3.5,6.3,6.1,5.4l2,4.1l0.6-5.3l-0.8,3.7c-0.1-1.3-0.5-2.5-1-3.7l0.3,3l-1.1-2.2
			c0,0-2.6,0.9-7.2-6.8L174,305.2z"/>
		<polygon class="st31" points="180.8,300.3 180.5,302.8 181.2,301.8 181.1,300.3 		"/>
		<path class="st38" d="M171.8,299.9c0,0,3.8,6,8.5,6c0,0,2.2,0.1,0.9-4.6c0,0,2.2,4.4-0.4,5.1C180.7,306.5,176.3,308.1,171.8,299.9
			z"/>
		<path class="st38" d="M180,306.5c0,0,1.2,1.2,1.3-0.4L180,306.5z"/>
		<polygon class="st30" points="179.8,321.1 176.7,324.2 176.9,322.1 		"/>
		<path class="st30" d="M167.8,318.5l0.2,1.4l-0.8,0.6l-0.2-0.6C167.4,319.5,167.6,319,167.8,318.5z"/>
		<path class="st30" d="M158.8,328.1c0,0,2.6,8.1,5.8,11.9l2.3-0.9l-2,0.5C162.4,336.1,160.3,332.2,158.8,328.1z"/>
		<path class="st30" d="M165.1,325.7c-0.3-1-1.1-1.8-2.1-2.1C163,323.6,165.7,323.2,165.1,325.7z"/>
		<path class="st30" d="M183.4,317.6l-2.4,5.7C181,323.3,182.8,321.6,183.4,317.6z"/>
		
			<ellipse transform="matrix(0.8333 -0.5528 0.5528 0.8333 -142.3665 151.3742)" class="st27" cx="179.8" cy="311.8" rx="0.6" ry="0.3"/>
		
			<ellipse transform="matrix(0.8298 -0.558 0.558 0.8298 -145.5334 155.709)" class="st27" cx="182.5" cy="316.5" rx="0.6" ry="0.3"/>
		<path class="st36" d="M181.1,353.4c0,0-0.7,18.1-1.4,24.8c0,0-0.2,20.1-0.4,21.1c0,0-1.8,3.2-5.4,0.7c0.5,1.2,1.8,1.8,3,1.4
			c1.2,0,2.3-0.6,2.8-1.7l0.4-21.8l3.2-25L181.1,353.4z"/>
		<path class="st31" d="M172.5,343.2c0,0-0.1,0.2,0.4,0.8s1.1,2.1,1.6,2.7s2.1,0.5,1.7,1.8c0,0,0.4-0.6-1.6-1.4
			C173.3,346.3,173,344.3,172.5,343.2z"/>
		<path class="st31" d="M199.9,334.2c-0.2-0.7-1-1-1.7-0.8c0,0-0.1,0-0.1,0.1c-0.9,0.3-1.8,0.2-2.6-0.3c0,0,0.4,1.2,2.4,0.9
			C198.5,333.7,199.3,333.7,199.9,334.2z"/>
		<path class="st31" d="M195.8,329.7c0,0-2.9,0.6-3.6,3c0.4,0.6,0.7,1.3,0.8,2c0.4,2.5,2.1,4.6,4.5,5.6c-2.2-1.3-3.7-3.5-4.1-6.1
			c-0.7-4.3,3.6-3.7,3.6-3.7L195.8,329.7z"/>
		<path class="st31" d="M199.3,336l-2.8,2C196.5,338,197.6,336.1,199.3,336z"/>
		<polygon class="st32" points="176.9,322.1 173.3,323.5 174.1,324.6 174.2,325.9 176.7,324.2 		"/>
		<path class="st31" d="M175.3,402.5c1,0.3,2.1,0.3,3.1,0l-0.2-1.5c0,0-0.7,0.5-2.8,0.3L175.3,402.5z"/>
		<path class="st31" d="M170.3,339.7c-0.8,1.2-2.1,2.1-3.5,2.4c0.3,0.8,0.6,1.7,0.9,2.6c0.5,1.4,1.3,2.6,2.4,3.5c0,0-2.6-3.4-2-4.9
			c0.6-1.2,1.7-1.9,3-2c0.6,0,1.2-0.1,1.8-0.2C172.1,340.6,171.2,340.1,170.3,339.7z"/>
		<path class="st31" d="M180.1,400.1l1,0.9c0,0,3-0.5,1.7-2.7C182.4,399.5,181.3,400.2,180.1,400.1z"/>
		<path class="st26" d="M337.8,301.9l0.5,10.8c3.4,0,2.6-5.1,2.6-5.1s-0.2,1.4,1.6,1.3s0.9-0.9,0.9-0.9c-0.6-1.2-0.7-3.3-1-4.6
			c-0.3-1-0.7-2-1.2-3C340.2,301.1,339,301.6,337.8,301.9z"/>
		<path class="st39" d="M337.5,272.5c0.1,1.7-0.1,3.3,0,5s0.2,3.3,0.3,5s0.2,3.2,0.3,4.9c0.2,1.7,0.3,3.3,0.3,5l0.3,5
			c0.1,1.7,0.2,3.3,0.2,5c-0.3-1.7-0.4-3.3-0.6-5l-0.5-5c-0.2-1.7-0.3-3.3-0.4-5s-0.3-3.3-0.4-5s-0.2-3.3-0.2-5s0.2-3.3,0.2-5
			s0-3.3,0-5s-0.1-3.3-0.1-5C337.2,265.8,337.5,269.1,337.5,272.5z"/>
		<path class="st39" d="M338.6,267.1c0,1,0,2-0.2,3c-0.1,0.5-0.2,1-0.3,1.5c-0.2,0.5-0.5,0.9-0.8,1.3h-0.1c-0.1-0.5-0.1-1.1,0-1.6
			c0.1-0.4,0.3-1,0.4-1.4L338.6,267.1z"/>
		<path class="st39" d="M338.5,298.3l-0.1-0.4c2.2-0.5,2.8-1.5,2.8-1.5C340.8,297.5,339.7,298.3,338.5,298.3z"/>
		<path class="st31" d="M343.6,308.3c0.1,0.3-0.5,0.5-0.5,0.5c-0.7,0.2-1.4,0.1-2-0.3c-0.3-0.3-0.6-0.7-0.8-1.1
			c-0.2-0.6-0.2-1.3,0.1-1.9c0,0.3,0,0.7,0.1,1c0.1,0.4,0.3,0.8,0.5,1.2c1.2,1.9,2.4,0.4,2.4,0.4L343.6,308.3z"/>
		<path class="st31" d="M340.3,306c-1,0.1-1.3-0.3-1.3-0.3v-0.9c0.2,0.7,1.3,0.6,1.3,0.6V306z"/>
		<path class="st40" d="M311.1,364.5c0,0-1.1,2.1-0.8,3s8.4,9.4,10.8,8.6s2.8-1.6,2.5-2.5s-5.3-7.8-5.3-7.8
			C314.8,368.4,311.1,364.5,311.1,364.5z"/>
		<path class="st41" d="M319.3,367.3c0,0-4.4,2.8-8.6-1.6l0.4-1.2c0,0,4.7,3.2,7.2,1.3L319.3,367.3z"/>
		<path class="st40" d="M324.7,358.1c0,0-1,2.4-0.7,3s8.5,8.4,10.3,8.3c1.4-0.1,2.6-1.2,2.9-2.6c0-0.9-5.2-6.8-5.2-6.8L324.7,358.1z
			"/>
		<path class="st41" d="M332.5,360.7c0,0-4.9,2.2-8.1-0.7l0.4-1.9c1.9,1.6,4.5,2.1,6.9,1.3L332.5,360.7z"/>
		<path class="st42" d="M333.4,302c-4.4,2.9-19.4,5.9-19.4,5.9c-0.3,3.1,0.3,36,0.3,36c0.7,5.2-3.5,18.9-3.5,18.9s-0.9,3,3.3,4.1
			s4.8-1.9,4.8-1.9s4.8-17.7,5.5-20.3s1.6-20.3,1.6-20.3c1.6,5.4,2.4,11.2,2.2,14.5s-4.4,18.3-4.4,18.3c1.2,3.9,5.7,3.5,7.1,3
			c1-0.4,1.6-1.3,1.5-2.4c0.6-2.6,5.2-17.8,5.2-19.8s-0.8-24.4-0.8-24.4C336.8,303.8,333.4,302,333.4,302z"/>
		<path class="st43" d="M319.3,261l-0.4,1.4c0.6,3.8,4.1,10,5,13.2s-0.3,12,0.3,17.1c0.3,3.7,0.1,7.5-0.6,11.2
			c4.5,0.2,9.8-3.8,9.8-3.8s0.3-3.2,0.3-5.1s-0.3-16.7,0-23.5s-2.3-9.8-2.3-9.8L319.3,261z"/>
		<path class="st44" d="M328.9,266l-1.7,2.1l1.5,2.1c0.5,0.4,1.1,0.3,1.5-0.2c0,0,0.1-0.1,0.1-0.1c0.7-1,1.3-2.7,1.1-2.9
			C330.6,266.5,329.8,266.2,328.9,266z"/>
		<path class="st44" d="M329,270c0,0-2.2,19-2.3,19.3c1,1.4,2,2.8,3.2,4.1c1-1.8,1.9-3.7,2.7-5.7c0.2-2.6-2.4-18.1-2.4-18.1L329,270
			z"/>
		<path class="st45" d="M319.8,258.5c-1.9,0.8-2.4,3.8-2.4,3.8s-5.8,4-7.4,6.3s-1,4.3-1.3,7.8s-2.4,12.5-2.3,17.2s2.9,14,2.9,14
			c-0.6,1.6-1.1,3.2-1.3,4.9c3.4,4,9.5,3.9,9.5,3.9c2.3,0.5,4.7,0.2,6.8-0.9c-0.2-1.9-0.1-3.8,0.1-5.7c0.4-2.5-0.6-5.8,0-9.9
			s0-11.5,0.3-18.6s-2.7-12.1-4.6-16s-0.3-5.1-0.3-5.1L319.8,258.5z"/>
		<path class="st45" d="M331.4,261.4c2.3,2.7,2.5,12,2.2,15.6s0,8.4,0,13.5s0.3,16.5,0.4,19s-0.6,5.2,0.1,5.6s1.5-0.4,2.9-1.3
			c0.9-0.7,1.7-1.6,2.2-2.7c0.2-2.6-0.3-9.1-0.3-9.1c0.6-0.2,2.3-1.1,2.4-1.6c0.1-1,0.2-2.1,0.1-3.1c0-1-0.3-1.6-0.4-3.5
			s-0.8-14.6-0.9-17.5S340,261,340,261c-0.1-3-2.6-5.3-5.6-5.2c-0.1,0-0.2,0-0.3,0C333,257.6,332.1,259.4,331.4,261.4z"/>
		<path class="st46" d="M326.9,269.9c-3.1-2.1-5.8-4.6-8-7.6c0.1-1.7,0.7-2,0.7-2c2.7,2.5,5.9,4.4,9.4,5.7
			C328.2,267.2,327.5,268.5,326.9,269.9z"/>
		<path class="st46" d="M331.5,261.7c1,1.9,1.4,4.1,1.1,6.2c-1.3-0.4-2.5-1-3.6-1.7c0.7-0.9,1.1-2,1.1-3.2
			C330.7,262.7,331.1,262.2,331.5,261.7z"/>
		<path class="st26" d="M311.6,314.5c-0.8,1.2-1,5.5-0.6,7.1c0.5,1.7,1.5,3.1,3,4c1.7,1.2,2.3,0.2,2.4-0.3s-0.6-3-0.7-3.6
			c-0.2-0.9-0.7-3.5,0.3-3.4s0.4,2,0.6,3s1.4,0.7,1.6,0.3s0.1-0.9,0.4-1.7s-0.5-3.1-0.5-3.1c-0.8-2.6-1.5-3.2-1.5-3.2
			C315.4,315.1,313.3,315.4,311.6,314.5z"/>
		<path class="st47" d="M318.1,278.7c-0.2,0.8-0.3,1.6-0.5,2.4c-0.7,3-1.4,6.1-2,9.2c-0.2,0.8-0.3,1.5-0.3,2.3c0,0.8,0,1.6,0,2.4
			l0.2,4.8c0.2,3.1,0.3,6.4,0.5,9.5v-0.1c0.3,1.4,0.5,2.9,0.5,4.4v0.1l0,0c-0.3,0.6-1,1.1-1.7,1.2c-0.6,0.2-1.3,0.3-1.9,0.3
			c-0.6,0-1.3-0.2-1.8-0.6c-0.5-0.4-0.9-1-1-1.7l0,0c-0.4-2.2-0.9-4.4-1.3-6.5c0.6,2.2,1.1,4.3,1.7,6.4l0,0c0.2,0.6,0.5,1,1,1.4
			c0.5,0.3,1,0.4,1.6,0.4c0.6,0,1.2-0.1,1.7-0.3c0.3-0.1,0.5-0.2,0.8-0.3c0.2-0.1,0.4-0.3,0.5-0.5v0.1c-0.1-1.4-0.3-2.8-0.6-4.2l0,0
			c-0.3-3.1-0.4-6.4-0.6-9.5c-0.1-1.6-0.2-3.2-0.2-4.8v-2.4c0.1-0.9,0.2-1.7,0.3-2.4c0.4-3.2,1.1-6.3,1.9-9.4c1-3.5,1.7-6,1-9.2
			C319.2,274.3,318.2,277.9,318.1,278.7z"/>
		<path class="st47" d="M314.8,310.4c-0.5,0.3-1,0.5-1.6,0.6c-0.6,0.1-1.2,0.1-1.7-0.1c-0.5-0.2-1-0.5-1.5-0.8c0.5,0,1,0.1,1.6,0.1
			c0.5,0,1,0,1.5-0.1c0.5-0.1,0.9-0.2,1.4-0.3c0.5-0.2,1-0.4,1.5-0.6C315.7,309.7,315.3,310.1,314.8,310.4z"/>
		<path class="st48" d="M333.7,303.5c-3,2.9-9.3,3.7-9.3,3.7l-0.3-3.8c6.3-0.9,9.3-4,9.3-4L333.7,303.5z"/>
		<path class="st49" d="M327.1,302.7l0.1,4.2c1.5-0.4,2.9-1,4.2-1.7c0.7-2.9-0.1-4.3-0.1-4.3C330,301.7,328.6,302.3,327.1,302.7z"/>
		<path class="st50" d="M329.7,315.8c-3.9,2.9-3.7,9.4-3.7,9.4v-2c-0.1-2.2,0.4-4.4,1.5-6.3l-2.6,0.7l4.2-2.8l1.7-7.2L329.7,315.8z"
			/>
		<ellipse class="st51" cx="329.8" cy="296.3" rx="0.5" ry="0.7"/>
		<path class="st47" d="M323.5,298c-0.1-1.1-0.2-2.3-0.3-3.3s-0.3-2.2-0.5-3.2c-0.4-2.2-1-4.3-1.6-6.4l-0.8-1.5l-0.1-0.4l-0.1-0.2
			v-0.3l0.3-0.9c0.3-1,0.7-2.1,1-3.1l0.3,0.5c-0.4-0.1-0.8-0.2-1.2-0.3c-0.2,0-0.4-0.2-0.6-0.3c-0.2-0.2-0.4-0.4-0.5-0.6
			c-0.1-0.4-0.2-0.9-0.1-1.3l0.1-1.1c0.1-1.5,0-3-0.5-4.4c-0.5-1.4-1.1-2.9-1.5-4.4c-0.3-1.5-0.4-3.1-0.2-4.6
			c-0.1,1.5,0.1,3,0.5,4.5c0.5,1.5,1,2.9,1.7,4.3c0.6,1.5,0.8,3,0.8,4.6v1.1c0,0.3,0,0.7,0.1,1c0.1,0.1,0.2,0.1,0.3,0.2
			c0.1,0.1,0.3,0.1,0.4,0.2c0.3,0.1,0.7,0.2,1,0.2h0.5l-0.2,0.5c-0.3,1-0.6,2.1-1,3.1c-0.1,0.2-0.1,0.5-0.2,0.7l0.2,0.6l0.4,1.6
			c0.6,2.1,1.1,4.3,1.5,6.4c0.2,1.1,0.3,2.2,0.3,3.3c0.1,1.1,0.1,2.2,0.2,3.3c0.1,2.2,0.2,4.4,0.3,6.5
			C323.9,302.3,323.6,300.1,323.5,298z"/>
		<path class="st26" d="M330.3,262.9c0.4-0.2,3.6-3.4,3.8-7.1c0.1-1,0-2-0.2-3c-0.1-0.5-0.1-1,0.1-1.5c0.1-0.5,0.2-0.9,0.1-1.4
			c0,0,0.3-3.5-0.7-4.4s-6.8-8.8-13.1-5.1c-1,0.9-1.5,2.3-1.3,3.7c0.1,0.3-0.2,7.6-0.2,7.6s-1.8-0.6-1.9,1.6s0.4,4.2,1,4.6
			s1.2,0.8,1.7,0.6l-0.2,1.9c2.6,2.6,5.8,4.5,9.3,5.7C329.6,265.3,330.2,264.1,330.3,262.9z"/>
		<path class="st21" d="M322.9,243.8c2.9,1.9,6.3,2.6,9.7,2.1c1.4,0,5-2.2,2.3-6.4c0,0-1.8-2.8-5.2-0.7c-1.6-0.6-3.5-2.3-5.7-1.7
			s-5.7,2.3-6.1,3.4c-0.2,0.8-0.2,1.6,0,2.4c0,0-1.3,0.4-1.3,2.6s0,6.4,0.4,7.8c0,0,0.5-2.2,2.4-1c0.7,0.8,1,1.8,1,2.8l0.1,1.6
			l1.6,0.7l-0.2-1.7c0-0.5,0.2-1,0.5-1.4c0.7-0.6,1.1-1.5,1.3-2.4c0.4-1.7-2.7-5.1-2.7-5.1C321,244,322.9,243.8,322.9,243.8z"/>
		<path class="st31" d="M329.1,266c0.1-1-0.1-1.7-0.6-2c-1-0.6-2.1-0.5-3.5-1.2c-3.4-1.7-3-3.9-3-3.9c0.6,1.2,1.6,2.3,2.8,3
			c3.6,2,5.4,1,5.4,1C330.2,264,329.8,265.1,329.1,266z"/>
		<path class="st31" d="M333.7,252c-1.9,1.5-4.1,2.6-6.5,3c-2.7,0.5-3-1-3-1s0.5,0.5,3,0.3c1.4-0.3,2.7-0.8,4-1.5
			c1.1-0.3,2.2-1,3-1.8C333.9,251.3,333.7,251.6,333.7,252z"/>
		<path class="st31" d="M319.6,260.4c1.2,1.1,2.4,2.1,3.7,3c-2.3-1.9-2.1-5.8-2.1-5.8c-0.3,0.1-0.5,0.6-0.7,0.7
			c-0.2,0.2-0.4,0.3-0.7,0.3L319.6,260.4z"/>
		<path class="st31" d="M319.5,254.8c0.3,0.6-0.4,0.8-0.7,0.6s-0.1-2.2-0.4-1.5s0.2,2.3,0.7,2.4s-0.1-0.8,0.5-0.7s0.6,0.8,0.6,0.8
			c0,0.5-0.5,0.9-1,0.9c-0.2,0-0.4-0.1-0.6-0.3c-0.7-0.6-1.2-3.7-0.3-4.1s1.7,1.1,1.7,1.1C319.7,254,319.3,254.2,319.5,254.8z"/>
		<path class="st47" d="M333.7,310.3c0,0-0.1-4.4,0-5.3c0.3-3.4,1.1-11.5,1.7-14.6c0.8-4.1-0.2-8.6-0.5-10.6s1.5-2.3,1.6-3.9
			s-1.4-6.1-1.4-6.1c-0.3-7.9-2.4-9.9-2.4-9.9l-1.4,2l1.4,3.5c1,4.4,0.4,11.5,0.3,15.2c-0.2,2.6-0.1,21.3,0.5,28.6L333.7,310.3z"/>
		<path class="st47" d="M319.8,258.5l-0.2,1.8c0,0-1.2,1.8,0.6,5.2c2.5,4.1,4,8.7,4.5,13.5c0.3,5.4-0.7,23.2-0.4,25.1
			c0,0-0.5-9.7-1.4-13.1s-2.5-8.2-2.1-8.9c0.4-1.1,0.7-2.2,0.9-3.3c0,0-1.6-0.5-1.8-1.2s0.3-4.6-0.7-6.7s-3-7.2-1.5-10.2
			C317.8,260.8,318.4,259.1,319.8,258.5z"/>
		<path class="st47" d="M339.1,263.3c0,0-0.9,3.3-1.2,4.9c0,0,0.7,30.9,1,33.8c0,0-1.6-16.7-1.6-33.2c0.1-1.5,0-2.9-0.1-4.4l0.5,2.3
			C337.6,266.8,338.7,264.6,339.1,263.3z"/>
		<path class="st47" d="M317.4,274.6c0,0,0.8,3.5,0.1,5.8l-0.5,1.4C317,279.4,317.1,277,317.4,274.6z"/>
		<path class="st50" d="M329.1,314.8l4-1.5c-1.4,1.2-2.8,2.2-4.4,3L329.1,314.8z"/>
		<path class="st51" d="M333.2,299.8c0,0-2.6,2.8-9.1,3.6c0,0,0.7-19.1,0.7-20.6s0.3-7.6-2.8-13.8s-2.5-5.5-2.7-6.2
			c0,0,3.6,4.9,7.6,7.2l0.6-1.4c0.4,0.7,0.9,1.3,1.5,1.9l-1.2-0.6l-0.8,1.4c-1.7-1.1-3.4-2.3-5-3.6c0,0,3,1.5,3.6,12.2
			c0.5,7.1,0.2,14.2-0.7,21.3c0,0-0.1,0.7-0.3,1.5c6.2-0.5,8.7-3.9,8.7-3.9L333.2,299.8z"/>
		<path class="st31" d="M331.3,254.7c0,0,1,2.8,0.3,4.1c0,0-0.3,0.4-1.3,0.4s-1.1-0.3-1.1-0.3c0.8,0,1.5-0.3,2.1-0.8V254.7z"/>
		<path class="st51" d="M332.6,264.4c0,0,0.9,1,0.9,8.2l-0.3,26.7l-0.6,0.7c0,0,0.5-20.2,0.2-23.2s-0.3-8.2-0.3-8.2l-1.2-0.8
			l0.1-0.5l1.2,0.6C332.6,268,333,267.1,332.6,264.4z"/>
		<path class="st31" d="M311.6,314.5c0,0,2.3,1.7,5-1c0,0,0.9,0.6,2,5.1c0,0-1.4-4-2.3-3.2c-1.5,1.1-3.4,1.3-5.1,0.5
			C311.1,315.9,311.1,315.1,311.6,314.5z"/>
		<path class="st31" d="M341.3,300.4c-0.6,0.8-1.4,1.3-2.4,1.6v0.8c1-0.4,2-0.9,2.9-1.4L341.3,300.4z"/>
		<path class="st8" d="M213.9,316.7c-0.9,2.7-1.3,5.6-1,8.4c0,0,0.9,4.1,4.1,4.6c0,0-0.5-6.6,0.5-8.3s-0.5-3.9-0.5-3.9L213.9,316.7z
			"/>
		<path class="st52" d="M213.7,317.5c1,1.1,2.7,1.4,4.1,0.7v0.9l-1.4,1.8c0,0,0.1-1-1.3-1.2c-0.7-0.1-1.3-0.2-2-0.4
			C213.1,319.3,213.5,318,213.7,317.5z"/>
		<path class="st52" d="M215.1,320.9c-0.1,1.5-0.2,3-0.1,4.5c0.2,0.9,1.2,0.7,1.3-0.3c0-1,0.1-2,0.4-2.9c0.3-0.4,0.5-0.8,0.6-1.3
			c0,0,0.4,0.4-0.5,1.9l-0.2,2.3c0,0-0.1,1.2-1,1.1s-1-1.3-1-2C214.7,323.8,214.6,320.7,215.1,320.9z"/>
		<path class="st53" d="M228.5,376.8c0,0-3.4,3-4.9,4.6s-0.1,3.6,2.4,2.6c2.9-1.2,5.6-2.7,8.1-4.6l0.3,1c0,0,0.7,0.6,0.9-0.6
			s1-4.9-0.2-5.9C235.1,374,232.3,378.3,228.5,376.8z"/>
		<path class="st8" d="M229.9,356.7c0,0,1.2,14.4,0.3,17c-0.6,1.6-1.5,3.1-2.7,4.4c0,0-2.3,2.5,0.7,1.9c2.6-0.6,5-2,6.7-4.1
			c0.8-1.2-0.6-2.7,0.2-6s2.8-8.9,3-13.9L229.9,356.7z"/>
		<path class="st52" d="M230,358.8c0,0,5.2,0.9,7.9-0.9l0.3-2.1l-8.4,0.9L230,358.8z"/>
		<path class="st53" d="M217.8,371.4c-1.8,1.3-3.5,2.9-4.9,4.6c-1.3,1.8-0.1,3.6,2.4,2.6c2.9-1.2,5.6-2.7,8.1-4.6l0.3,1
			c0,0,0.7,0.6,0.9-0.6s1-4.9-0.2-5.9C224.4,368.6,221.6,372.8,217.8,371.4z"/>
		<path class="st8" d="M219.2,351.2c0,0,1.2,14.4,0.3,17c-0.6,1.6-1.5,3.1-2.7,4.4c0,0-2.3,2.5,0.7,1.9c2.6-0.6,5-2,6.7-4.1
			c0.8-1.2-0.6-2.7,0.2-6s2.8-8.9,3-13.9L219.2,351.2z"/>
		<path class="st52" d="M219.5,355.6c0,0,2.9,3.2,6.7,2.1l0.4-1.4l-7.3-2.8L219.5,355.6z"/>
		<path class="st54" d="M218.5,318c-1.4,1-2.3,2.6-2.5,4.3c-0.3,2.8-1.9,24.2-1.9,24.2c-0.5,1.2-0.4,2.5,0.4,3.5
			c1.2,1.8,11,10.2,23.3,6.5c0,0,6.9-2.2,7.3-7l-2.1-22.2L218.5,318z"/>
		<path class="st8" d="M240.1,289.7c0,0-4.2-1.4-6.4,4.9c-1,1.7-1.4,3.6-1.3,5.5c0,0,9.9,1.5,10.6-5.2
			C243,295,242.5,290.5,240.1,289.7z"/>
		<polygon class="st55" points="234.3,341.9 233.6,352.3 248.9,344.1 249,333.9 		"/>
		<path class="st52" d="M236.3,295.8l1.1,4.7l0.4-0.1C237.8,300.5,237.6,296.8,236.3,295.8z"/>
		<path class="st56" d="M219.4,271.4c0,0,0.7,4.1,0,6.7s-0.8,4.7,2.2,5.6l1.6,0.2c0,0-1.5-9.8-0.8-13.1
			C222.4,270.9,219.5,268.6,219.4,271.4z"/>
		<path class="st8" d="M238,330.3c-0.9,1.2-1.3,2.7-1.3,4.2c0,1.8-0.2,3.6-0.6,5.3c0,0,0.1,0.7,1.1,0.3s1-1.5,1.1-2.5
			c0-0.5,0.1-1,0.2-1.5c0.2,1.6,0.2,3.2,0,4.8c-0.4,2.2,1.9,1.4,3.1,0.4s2.7-6.2,1.5-9.9C243.1,331.2,239.6,331.7,238,330.3z"/>
		<path class="st52" d="M237.9,330.5c0,0,3.2,1.6,5.2,0.7c0.3,0.7,0.4,1.5,0.4,2.3c-0.4-0.9-1.4-1.3-2.3-1.1
			c-2.7,0.2-3.6,0.3-3.8,2.3c-0.1,1.7-0.5,3.3-1.2,4.8c0,0,0.5-4.5,0.4-5.4S237.1,330.9,237.9,330.5z"/>
		<path class="st56" d="M219.5,271.8c-0.6-3.6,1.4-7.1,4.8-8.5c0,0,4-2.2,6.7-1.5s7.4,2.3,8,5.8s-0.8,5.5,1,9.8s4,8.7,0.1,12.4
			c0,0-4-1.4-5.1-2.3c-2.1-1.9-1.6-3.5-1.8-5.4c-1.3-1.4-2.1-3.2-2.2-5.1v-2.8C231.1,273.9,222.6,276.2,219.5,271.8z"/>
		<path class="st57" d="M221,281.3c0,0-5,1.1-5.8,7.5s-1.5,15.4-2,18.1s-2.4,7.9,0,10.3s4.4,1,4.4,1l-0.6-0.7c0,0,1.7,3.7,4.7,4.6
			s4.2,0.8,7.4,4.2s6.6,3.2,8.7,2.1c-0.1,0.4-0.2,0.9-0.2,1.3c0,0.4-0.5,1.1,2.2,1.7s4.3-0.4,4.5-1.4s2.1-10.8,2.5-12.6s1-2.6,0-8.6
			c-1-5.4-2.5-10.8-4.4-16c0.6,1.6,0.2,3.3-0.9,4.6c-1.9,2-8.4,2.6-9.8,2.3c-2.3-0.6-8.8-2.3-9.9-12c-0.2-1.1,0-2.2,0.5-3.1
			C221.7,283.6,221.2,282.5,221,281.3z"/>
		<path class="st8" d="M233.3,282.4c-0.2,1.9,0.6,3.7,2.1,4.8c0,0,1.2,0.7,1.5,0.8c-2.7,3.6-5.2,7.4-7.4,11.3
			c-3.5-1.4-6.1-4.3-7.1-7.9c0,0-1.6-4.1-0.1-6.9c0,0,3.5,2.6,6.6,1.6s4.1-4.4,4.1-4.4L233.3,282.4z"/>
		<path class="st52" d="M222.2,284.6c-0.4,2.6-0.1,5.3,0.9,7.8c0,0,1.6,5,5.1,6.3l-1.8-1.5l0.3-1.1l-0.9,0.5c0,0-4-6.9-3.2-11.5
			L222.2,284.6z"/>
		<path class="st8" d="M220.4,272.8c-0.1,2.8,0.1,5.7,0.5,8.5c0.7,3.1,2.3,5.5,5.7,5.5c2.9,0,5.7-0.9,6.4-4.5
			c0.6,0.4,1.4,0.3,1.8-0.3c0,0,0.1-0.1,0.1-0.1c0.1-0.2,0.1-0.4,0-0.6c0,0-3.3-1.8-3.5-4.1c-0.1-1.3-0.1-2.5,0.1-3.8
			C231.5,273.4,224.4,276.1,220.4,272.8z"/>
		<path class="st58" d="M232.7,299.8c0-1.4,0.2-2.7,0.6-4c2.3-7.1,6.8-6.2,6.8-6.2c-0.8-1.9-3.2-1.7-3.2-1.7
			c-1.3,0.4-2.4,1.2-3.4,2.1c-3.4,3.2-2.1,8.3-5.3,8.5C228.2,298.7,232,300.2,232.7,299.8z"/>
		<path class="st52" d="M222.4,284.6c1.5,1.8,3.9,2.5,6.1,2c1.5-0.3,2.9-1.1,3.8-2.3c-0.7,1.9-2.6,3.1-4.6,3
			C224.5,287.4,223.6,286.1,222.4,284.6z"/>
		<path class="st52" d="M233.4,286c0.7,0.9,1.7,1.5,2.8,1.7c-2.4-1.5-1.9-5.3-1.9-5.3c-0.3,0.2-0.7,0.2-1,0c0,0.3-0.2-0.8-0.8,1.2
			c0,0,0,2.1-4.4,3.7C229.9,287,231.7,286.6,233.4,286z"/>
		<path class="st59" d="M238.7,338.1l-5.9,3.2l-0.7,10.4l1.5,0.6l0.7-10.4l4.4-2.3C238.8,339.1,238.8,338.6,238.7,338.1z"/>
		<polygon class="st59" points="243.5,335.5 243.3,337.1 249,333.9 247.7,333.3 		"/>
		<path class="st60" d="M218.5,290.4c0.5,1.9,0.3,3.9-0.4,5.7c-1.2,2.8-2.2,7.4,1.6,9.9c0,0-4.8-1.9-2.8-8.5
			C217.9,295.3,218.4,292.8,218.5,290.4z"/>
		<path class="st60" d="M222.2,284.6c0,0-1.9,8.4,6.3,14.3C228.5,298.9,218.8,293.9,222.2,284.6z"/>
		<path class="st60" d="M221.1,294.2c0,0,2.6,11.6,12,12.8C233.1,307.1,222.9,306.1,221.1,294.2z"/>
		<path class="st60" d="M223.5,294.4c0,0,1.5,10.3,10.7,8.9c0,0-7.9,0.8-10.1-8.1L223.5,294.4z"/>
		<path class="st60" d="M224.3,295.6c0,0,2.8,5.2,7,5.9c0,0-4.5-0.1-7.1-5.3L224.3,295.6z"/>
		<path class="st60" d="M218.5,305.4c0,0,1.5,4.9,1,7.2l-0.9-4.9c-0.1,2.8-0.5,5.6-1,8.4c-0.3,1-0.1,2.1,0.5,3c0,0-0.6,0-1-1
			c0-1.2,0.1-2.3,0.3-3.5c0.4-2.1,1.1-9,0.7-9.7L218.5,305.4z"/>
		<path class="st60" d="M222.9,311.3c0,0,5.7,10,13.4,5.1C236.3,316.4,230.2,320.1,222.9,311.3z"/>
		<path class="st60" d="M238.6,301.5c0,0,1.4,9.7,1.5,11.4s-1.9,14.6-1.9,15.8s0.7,2.2,2.9,2.3s2.2-0.2,3-1.1c0,0-0.2,1.8-3,1.5
			c0,0-3.1,0.1-3.6-1.2c0,0-0.3-0.5,0.3-2.9c0.9-4.7,1.5-9.5,1.9-14.3C239.7,313.1,237.7,301.9,238.6,301.5z"/>
		<path class="st60" d="M239.1,308.5c0,0,0.5,5.7-3.4,6.8c0,0,3.4-1,3.7-5.5L239.1,308.5z"/>
		<path class="st60" d="M240.5,307.4c0,0,2.9,2.8,4.3-0.4C244.8,307,243.9,311.2,240.5,307.4z"/>
		<path class="st60" d="M244.9,307.8c0,0-0.9,4.1-3.5,2.7c0,0,2.2,0.8,3.4-3.3L244.9,307.8z"/>
		<path class="st60" d="M245.2,315.6c0,0-1.1,4.1-4.2,4.7c1.5-0.2,2.8-1.1,3.4-2.4c0,0-1,4.1-3.5,4.2
			C240.9,322.1,244.4,322.2,245.2,315.6z"/>
		<path class="st60" d="M224.9,321.6c1.7,1,3,2.3,4,4c2.1,3.2,6.8,3.4,6.8,3.4c-3.1,0.3-6.1-1.2-7.7-3.8c-2.8-4.5-3.5-3.7-3.5-3.7"
			/>
		<path class="st60" d="M214.2,303.4c0,0-0.2,4.2,2.9,4.4C217.1,307.8,215.1,307.3,214.2,303.4z"/>
		<path class="st52" d="M221,276.7c0,0,2.6,3,8.9,2.1C229.9,278.7,222.7,280.8,221,276.7z"/>
		<path class="st52" d="M223.5,279.5l-0.1,2.6c0,0,0.5,0.9,2.1,0.7l0.2-0.3c-0.7,0.1-1.4-0.1-1.9-0.5
			C223.7,281.9,223.9,278.7,223.5,279.5z"/>
		<path class="st52" d="M237.9,334.5c0.1,0.6,0.3,1.2,0.6,1.7c0.5,1.1,0.1,4.2,0.1,4.2s-0.5,2,0.6,1.9c0,0-0.7-0.1-0.3-1.9
			S239.4,335.6,237.9,334.5z"/>
		<polygon class="st52" points="235.8,297.2 237.1,298.7 236.9,297.7 		"/>
		<path class="st52" d="M240.1,289.7c0,0-6.5-0.9-7.4,10.1c1.4,0,2.9-0.2,4.3-0.5l-3.6-0.1C233.4,299.3,233.5,290.7,240.1,289.7z"/>
		<polygon class="st52" points="224.3,286.2 224.7,287.8 225.2,287.9 225.3,287 		"/>
		<polygon class="st55" points="238.6,339.2 233.9,341.7 233.3,352.1 233.6,341.6 238.7,339 		"/>
		<polygon class="st55" points="238.4,338.7 233.3,341.6 232.7,352 232.3,351.7 233,341.3 238.6,338.3 		"/>
		<polygon class="st55" points="243.6,335.7 248,333.6 248.2,333.8 243.4,336.2 		"/>
		<polygon class="st55" points="243.6,336.4 248.5,333.9 243.5,336.8 		"/>
		<path class="st61" d="M220,330.9c0,0,1.4,17.8,7.5,19.7C223.3,344.8,220.7,338,220,330.9z"/>
		<path class="st62" d="M217.8,371.4c0,0-6.2,4.1-5.5,6.5s5.3,0.8,11.1-3.9c0,0-7.6,6-10.4,4.1C213.1,378.1,211,376.6,217.8,371.4z"
			/>
		<path class="st62" d="M228.4,376.9c0,0-6.2,4.1-5.5,6.5s5.3,0.8,11.1-3.9c0,0-7.9,5.7-10.4,4.1
			C223.7,383.7,221.7,382.4,228.4,376.9z"/>
		<g>
			<defs>
				<path id="SVGID_2_" d="M198.7,479.5c0,0,88,8.5,157,0l-5-80l-20-19.5l-20.5,6.5L295.7,457l-21,8.5l-24.5-20l-8.5-40.5l-15-10.5
					h-26.5C200.2,394.5,165.2,413.5,198.7,479.5z"/>
			</defs>
			<clipPath id="SVGID_3_">
				<use xlink:href="#SVGID_2_"  style="overflow:visible;"/>
			</clipPath>
			<g class="st63">
				<path class="st64" d="M268.8,628.1c0,0-5.2,6.8-5.5,7.8s0.1,1.7,2.5,2.5s10.5-7.8,10.8-8.6s-0.9-3.1-0.9-3.1
					S272.3,630.7,268.8,628.1z"/>
				<path class="st64" d="M255.3,621.9c0,0-5.5,6.3-5.5,7.2c0.3,1.4,1.5,2.5,2.9,2.6c1.7,0.2,10-7.7,10.3-8.3s-0.7-3-0.7-3
					L255.3,621.9z"/>
				<path class="st65" d="M250.1,576c0,0-0.8,22.4-0.8,24.4s4.6,17.2,5.2,19.8c-0.1,1.1,0.5,2.1,1.5,2.4c1.5,0.4,5.9,0.9,7.1-3
					c0,0-4.2-15-4.4-18.3s0.6-9.1,2.2-14.5c0,0,0.9,17.7,1.6,20.3s5.5,20.3,5.5,20.3s0.6,3,4.8,1.9s3.3-4.1,3.3-4.1
					s-4.2-13.7-3.5-18.9c0,0,0.6-32.8,0.3-36c0,0-15.1-3-19.4-5.9C253.5,564.3,250.1,566.1,250.1,576z"/>
				<path class="st8" d="M245.7,562.7c-0.5,0.9-1,1.9-1.2,3c-0.3,1.3-0.3,3.4-1,4.6c0,0-0.9,0.8,0.9,0.9s1.6-1.3,1.6-1.3
					s-0.8,5.1,2.6,5.1l0.8-0.1l-0.3-10.7C249.1,564.1,246.7,563.5,245.7,562.7z"/>
				<path class="st9" d="M245.8,562.6c0.7,0.7,1.4,1.2,2.3,1.6v1c-0.6-0.9-1.6-1.6-2.7-1.7L245.8,562.6z"/>
				<path class="st66" d="M260.1,591c-0.3,0-1,0.6-0.9,2.3s-0.3,15.1-0.3,15.1c-0.4,0.8,0,1.7,0.8,2.1c0.1,0,0.2,0.1,0.3,0.1
					c1.8,0.6,3.4,1.6,4.6,0.9s19.5-11.7,19.5-11.7c0.7-0.2,1.2-0.9,1.2-1.7c0-1.4,0.1-16.6,0.1-16.6l-5.7,0.4L260.1,591z"/>
				<path class="st67" d="M255.4,524c0,0-2.5,3-2.3,9.8s-0.1,21.7,0,23.5s0.3,5.1,0.3,5.1s5.3,4,9.8,3.8c-0.7-3.7-0.9-7.5-0.6-11.2
					c0.6-5.1-0.5-13.8,0.3-17.1s4.4-9.4,5-13.2l-0.4-1.4L255.4,524z"/>
				<path class="st68" d="M255.6,529.3c-0.2,0.2,0.4,1.9,1.1,2.9c0.3,0.5,0.9,0.7,1.5,0.4c0,0,0.1-0.1,0.1-0.1l1.5-2.1l-1.7-2.1
					C257.2,528.4,256.3,528.8,255.6,529.3z"/>
				<path class="st68" d="M256.6,531.8c0,0-1.3,8.6-2.4,16.6c0.7,2.5,1.7,4.9,2.8,7.2c0,0,2.5-4.3,3.2-5.7
					c-0.1-0.3-2.3-17.8-2.3-17.8L256.6,531.8z"/>
				<path class="st69" d="M267.3,522.6c0,0,1.6,1.1-0.3,5.1s-4.9,9-4.6,16s0.1,13.7,0.3,18.5c0.2,4.1-0.5,7.5-0.1,10
					c0.2,1.9,0.3,3.8,0.1,5.7c2.1,1,4.5,1.3,6.8,0.9c0,0,6.1-0.2,9.5-4.2c-0.3-1.6-0.7-3.1-1.3-4.6c0,0,2.7-9.3,2.9-14
					s-1.9-13.8-2.3-17.2s0.3-5.4-1.3-7.8s-7.4-6.3-7.4-6.3s-0.4-3-2.4-3.8L267.3,522.6z"/>
				<path class="st69" d="M252.9,518c-3-0.2-5.7,2.1-5.9,5.1c0,0,0,0.1,0,0.1c0,0,0,12.5-0.1,15.3s-0.8,15.6-0.9,17.5
					c0,0.8-0.1,1.7-0.2,2.5c-0.2,0.6-0.4,1.3-0.4,1.9c0,0.7,0.1,1.5,0.2,2.2c0.7,0.7,1.5,1.2,2.4,1.6c0,0-0.4,6.4-0.3,9.1
					c0.5,1.1,1.3,2,2.2,2.7c1.4,0.9,2.2,1.7,2.9,1.3s-0.1-3,0.1-5.6s0.4-13.8,0.4-19s0.3-9.9,0-13.5s-0.4-12.5,1.8-15.1
					C255.2,524.2,252.8,522.7,252.9,518z"/>
				<path class="st70" d="M250.2,524.7c0,1.7-0.1,3.3-0.1,5s-0.1,3.3,0,5s0.2,3.3,0.2,5s-0.1,3.3-0.2,5s-0.3,3.3-0.4,5
					s-0.3,3.3-0.4,5l-0.5,5c-0.2,1.7-0.3,3.3-0.6,5c0-1.7,0.1-3.3,0.2-5l0.3-5c0.1-1.7,0.2-3.3,0.3-5c0.2-1.6,0.3-3.3,0.3-4.9
					c0.1-1.7,0.2-3.3,0.3-5s-0.1-3.3,0-5C249.5,531.4,249.7,528,250.2,524.7z"/>
				<path class="st71" d="M257.9,528.3c3.5-1.2,6.7-3.2,9.4-5.7c0,0,0.6,0.3,0.7,2c-2.4,2.8-5.2,5.2-8.3,7.1
					C259.4,530.5,258.7,529.3,257.9,528.3z"/>
				<path class="st71" d="M256.8,525.1c0,0,0.1,2.3,1.1,3.2c-1.1,0.7-2.3,1.3-3.6,1.7c0,0-0.1-4.5,0.8-6
					C255.6,524.5,256.2,524.8,256.8,525.1z"/>
				<path class="st70" d="M248.4,529.3l0.9,2.9c0.2,0.5,0.3,0.9,0.4,1.4c0.1,0.5,0.1,1.1,0,1.6h-0.1c-0.3-0.4-0.6-0.8-0.8-1.3
					c-0.2-0.5-0.3-1-0.3-1.5C248.4,531.4,248.3,530.3,248.4,529.3L248.4,529.3z"/>
				<path class="st70" d="M253,571.4c0.6-7.3,0.7-26,0.5-28.6c-0.2-3.7-0.7-10.9,0.3-15.2l1.4-3.5l-1.4-2c0,0-1.9,2.6-2.2,10.6
					c0,0-0.7,6.2-1,7.2c0,0,2,3.2,1.7,5.2s-1.9,3.5-1.1,7.6c0.6,3.1,1.4,11.2,1.7,14.6c0.1,1,0,5.3,0,5.3L253,571.4z"/>
				<path class="st8" d="M258,528.3c3.5-1.2,6.7-3.1,9.3-5.7l-0.2-1.9c0.5,0.2,1.1-0.2,1.7-0.6s1.1-2.4,1-4.6s-1.9-1.6-1.9-1.6
					s-0.3-7.3-0.2-7.7c0.2-1.4-0.3-2.8-1.3-3.7c-6.3-3.7-9.2,0.2-11.7,0.5s-2,4.1-2,4.1v4.9c-0.1,0.5,0,0.9,0.1,1.4
					c0.2,0.5,0.2,1,0.1,1.5c-0.3,1-0.3,2-0.2,3c-0.1,5.9,3.4,7,3.8,7.1S256.6,527,258,528.3z"/>
				<path class="st72" d="M252.2,501.6c0.7,0.6,1.7,0.8,2.6,0.4c1.6-0.6,5.4-3.7,7.6-3s6.5,2.4,6.9,3.5c0.2,0.8,0.2,1.6,0,2.4
					c0,0,1.3,0.4,1.3,2.6s-0.2,6.6-0.7,8.1c0,0-0.6-2.2-2.4-1c-0.7,0.8-1,1.8-1,2.8l-0.1,1.6l-1.6,0.7l0.2-1.7c0-0.5-0.2-1-0.5-1.4
					c-0.8-0.8-1.3-1.8-1.6-2.9c-0.2-0.9,0.1-1.9,0.8-2.5l2.3-2.2l-3.6,2.1c-1.3,0.7-2.9,0.7-4.2,0.1l-5.5-3.1
					C252.6,507.9,249.6,506,252.2,501.6z"/>
				<path class="st9" d="M256.8,525.1c1.9,0.6,3.9,0.3,5.6-0.7c1.1-0.9,2-2,2.6-3.3c0,0,0.4,2.2-3,3.9c-1.4,0.7-2.5,0.6-3.5,1.2
					c-0.5,0.3-0.7,1-0.6,2C257.2,527.3,256.8,526.2,256.8,525.1z"/>
				<path class="st9" d="M252.9,513.3c0.8,0.8,1.9,1.5,3,1.8c1.3,0.6,2.6,1.1,4,1.5c2.4,0.3,3-0.3,3-0.3s-0.3,1.5-3,1
					c-2.4-0.5-4.6-1.5-6.5-3C253.3,513.9,253.1,513.6,252.9,513.3z"/>
				<path class="st9" d="M267.2,520.7c-0.3,0-0.5-0.1-0.7-0.3c-0.2-0.1-0.4-0.6-0.7-0.7c0,0,0.2,3.9-2.1,5.8c1.3-0.9,2.6-1.9,3.7-3
					L267.2,520.7z"/>
				<path class="st66" d="M259.9,591.8l3.9,2.2c0.3,0.2,0.6,0.2,0.9,0l20.5-12.2c0.2-0.2,0.3-0.5,0.1-0.8c0,0-0.1-0.1-0.1-0.1
					l-3.8-2.1c-0.4-0.2-0.8-0.2-1.2,0c-1.8,1-7.3,4.3-12.2,7.1c-3.5,2.1-6.7,3.9-8.1,4.9C259.5,591.1,259.6,591.7,259.9,591.8z"/>
				<path class="st9" d="M266.9,516.4c0,0,0.8-1.6,1.7-1.1s0.4,3.5-0.3,4.1c-0.4,0.4-1,0.4-1.3,0c-0.2-0.2-0.3-0.4-0.3-0.6
					c0,0,0-0.7,0.6-0.8s0,0.9,0.5,0.7c0.6-0.6,0.9-1.5,0.7-2.4c-0.3-0.6-0.3,1.3-0.4,1.5s-1,0-0.7-0.6
					C267.6,516.4,267.3,516.2,266.9,516.4z"/>
				<path class="st70" d="M245.7,558.7c0,0,0.6,1,2.8,1.5l-0.1,0.4C248.4,560.6,246.2,560.3,245.7,558.7z"/>
				<path class="st8" d="M270.4,575.7c-0.7,1.2-1.3,2.5-1.7,3.9c0,0-0.8,1.8-0.4,2.7s0.5,1.4,0.5,1.4l1.6-1.1c0,0-0.4-1.6,0.5-1.6
					s1.4,2.2,1.6,2.7s-1.6,1.7-1.4,2.2s0.7,1.6,2.4,0.3c0,0,2.5-1.3,3.3-2.9s-0.7-5.7-1.4-6.9C275.4,576.8,272.7,578.3,270.4,575.7z
					"/>
				<path class="st70" d="M270.4,533.6c-0.7,1.6-1.2,3.3-1.3,5c-0.1,1.6,0.2,3.2,0.8,4.7c0.8,2.9,1.5,5.9,2,8.9
					c0.2,0.8,0.3,1.6,0.3,2.4v2.4c0,1.6-0.1,3.2-0.2,4.8c-0.2,3.2-0.3,6.4-0.6,9.6l0,0c-0.3,1.4-0.5,2.8-0.6,4.2v-0.1
					c0.1,0.2,0.3,0.3,0.5,0.5c0.2,0.2,0.5,0.3,0.8,0.3c0.5,0.2,1.1,0.3,1.7,0.3c0.6,0,1.1-0.2,1.6-0.4c0.5-0.4,0.8-0.8,1-1.4l0,0
					c0.6-2.2,1.1-4.3,1.7-6.4c-0.4,2.2-0.9,4.4-1.3,6.5l0,0c-0.2,0.6-0.5,1.2-1,1.7c-0.5,0.4-1.2,0.6-1.8,0.6
					c-0.6,0-1.3-0.1-1.9-0.3c-0.7-0.2-1.3-0.6-1.7-1.2l0,0v-0.1c0-1.5,0.2-3,0.5-4.4v0.1c0.3-3.1,0.3-6.4,0.5-9.6
					c0.1-1.6,0.2-3.2,0.2-4.8c0-0.8,0-1.6,0-2.4c-0.1-0.8-0.2-1.6-0.3-2.4c-0.6-3.1-1.3-6.3-2.1-9.3
					C268.2,539.7,268.6,536.3,270.4,533.6z"/>
				<path class="st70" d="M271,571.4c0.5,0.2,1,0.4,1.5,0.6c0.5,0.2,1,0.3,1.5,0.3c0.5,0.1,1,0.1,1.5,0.1c0.5,0,1-0.1,1.6-0.1
					c-0.5,0.3-1,0.6-1.5,0.8c-0.5,0.2-1.1,0.2-1.7,0.1c-0.6-0.1-1.2-0.3-1.7-0.6C271.7,572.4,271.2,571.9,271,571.4z"/>
				<path class="st73" d="M253.4,561.7c2.7,2.2,5.9,3.6,9.4,4l-0.2,2v1.8c0,0-6.3-0.9-9.3-3.7L253.4,561.7z"/>
				<path class="st74" d="M255.8,563.4c-0.4,1.4-0.4,2.8,0,4.2c1.2,0.9,2.7,1.4,4.2,1.4l0.1-3.9
					C258.6,564.7,257.1,564.2,255.8,563.4z"/>
				<path class="st75" d="M256.1,569.8l1.7,7.2l4.2,2.8l-2.6-0.7c1.1,1.9,1.6,4.1,1.5,6.3v2c0,0,0.3-6.5-3.7-9.4L256.1,569.8z"/>
				<path class="st9" d="M243.6,570.4c0,0,1.1,1.2,2.3-0.7c0.2-0.4,0.4-0.8,0.5-1.3c0.1-0.5,0.2-0.9,0.2-0.9s0.6,0.2,0.1,1.4
					c-0.2,0.6-0.5,1.2-0.8,1.7c-0.5,0.5-1.3,0.7-2,0.5c0,0-0.6-0.2-0.5-0.5L243.6,570.4z"/>
				<path class="st76" d="M271.7,581.8l-3.3,2.3c0,0-0.8,0.3-0.8,1.9v2.6l1.6,0.6l1.3-0.7v-1.7c0,0-0.1-1,0.3-1.4s1.1-0.7,1.7-1.2
					C272.4,583.4,272.1,582.5,271.7,581.8z"/>
				<ellipse class="st77" cx="257.2" cy="558.6" rx="0.5" ry="0.7"/>
				<path class="st9" d="M246.6,567.8c0,0,1.1,0.1,1.3-0.6v0.9c0,0-0.3,0.3-1.3,0.3V567.8z"/>
				<path class="st70" d="M262.6,566.7c0,0,0.4-2.7,0.7-8.6s2.7-12.9,2.7-13.2s-1.2-4-1.2-4s1.5-0.1,2-0.7s-0.5-3.7,0.9-7.2
					s2.2-5.5,1.8-8.6c0,0-0.6-3-2.4-3.6l0.2,1.9c0,0,2,1.1-1,6.3c0,0-4.3,6.9-4.1,14.2c0,0,0.3,8,0.1,10.2S263,564.1,262.6,566.7z"
					/>
				<path class="st78" d="M269.1,589.1l1.3-0.7v-2.1c0-0.6,0.3-1.1,0.8-1.4l1.3-1c-0.1-0.5-0.2-0.9-0.3-1.4
					c-0.8,0.7-1.6,1.3-2.4,1.9C268.7,585.4,269.1,589.1,269.1,589.1z"/>
				<path class="st70" d="M267.6,536.7c0,1.1,0.2,2.1,0.6,3.1l0.7,0.9c0.1,0.5,0.1,1,0.1,1.5c-0.7-0.7-1.2-1.5-1.5-2.5
					c-0.1-0.5-0.2-1-0.2-1.5C267.3,537.7,267.4,537.2,267.6,536.7z"/>
				<path class="st79" d="M253.4,561.7c0,0,2.9,3.1,9.4,4c0,0-0.3-6.2-0.4-8.4s0.1-10.2,0-10.9c-0.4-4.4,0.3-8.9,1.9-13
					c0,0,1.4-3.3,2.5-5.2c0.5-1.1,0.9-2.2,1.2-3.3c0,0-4.6,5.2-8.2,7c2.6-1.2,5-2.9,6.9-5c0,0-3.7,5.5-4.4,10.2s-0.4,19.5-0.4,21.6
					s0.3,6.1,0.3,6.1S258.7,564.7,253.4,561.7z"/>
				<path class="st79" d="M254.7,525.3c-0.2,1.6-0.3,3.2-0.3,4.8c0.4-0.1,0.8-0.2,1.2-0.4c0.2,0.9,0.5,1.7,1,2.4
					c0,0-1.3,8.5-1.6,10.5l1.3-10.3l-1-1.8c-0.5,0.1-0.9,0.2-1.4,0.2c-0.2,2.5-0.3,4.9-0.2,7.4c0.4,7.9,0.3,15.8-0.4,23.7
					c0,0,0.1-13.6,0.2-15.4c0.1-2.9,0-5.8-0.3-8.7c0,0-0.2-7,0.5-9.9C253.8,527.6,254.5,525.6,254.7,525.3z"/>
				<path class="st80" d="M255.8,530.2c0,0,1.6-0.9,2.1-1.3l1,2.2c-0.2,0.5-0.5,1-0.9,1.5l-1.3-0.5l1.3,0.8l1.9,16.8
					c0,0-2,4.3-2.8,5.9c0,0,2.6-3.6,3.2-5.7c0,0-2.2-16.7-1.9-17.5c0.4-0.5,0.8-1,1.1-1.6c-0.4-0.9-0.8-1.7-1.4-2.5l-2.3,1.3
					C255.6,529.6,255.5,529.8,255.8,530.2z"/>
				<polygon class="st81" points="256.1,535.2 258.4,537.7 258.7,540 255.8,537.6 				"/>
				<polygon class="st81" points="255.4,540.1 259.1,543.3 259.5,546.1 255.1,542.6 				"/>
				<polygon class="st81" points="254.7,544.9 259.7,548.8 259.9,549.7 259.1,551.3 254.4,547.4 				"/>
				<path class="st81" d="M255.1,550.9l3.2,2.1l-1.3,2.6C256.2,554.1,255.6,552.5,255.1,550.9z"/>
				<path class="st75" d="M257.5,578.2c0,0-2.8-0.7-3.6-2c0,0,2.5,0.9,3.6,1.2V578.2z"/>
				<path class="st9" d="M270.4,575.7c0,0,0.4,1.4,3.7,1.5c0,0,1.1,0,1.4-0.5c0.8,1.5,1.3,3.2,1.5,4.9c0,0-1.2-2.6-2.5-3.1
					c-1.8,0-3.4-0.9-4.4-2.4L270.4,575.7z"/>
				<path class="st9" d="M272.6,584.2c0,0-0.5-2.8-1.7-3.1c0,0,1.8-0.8,1.7,3.3"/>
			</g>
		</g>
		<g>
			<defs>
				<path id="SVGID_4_" d="M198.7,479.5c0,0,88,8.5,157,0l-5-80l-20-19.5l-20.5,6.5L295.7,457l-21,8.5l-24.5-20l-8.5-40.5l-15-10.5
					h-26.5C200.2,394.5,165.2,413.5,198.7,479.5z"/>
			</defs>
			<clipPath id="SVGID_5_">
				<use xlink:href="#SVGID_4_"  style="overflow:visible;"/>
			</clipPath>
			<g class="st82">
				<path class="st83" d="M212.6,468c-3.8,4.6-6.3,19.1-6.3,19.1c1-1.6,5.2-2.3,5.2-2.3C211.3,481.8,212.6,468,212.6,468z"/>
				<path class="st84" d="M212.7,409.6c0,0-2.4-1.3-4,2.1s-0.1,10.5,1,12.7s1.7,4.2,1.7,4.2l3-2c0.7-0.6,1.1-1.5,1.2-2.4
					c1.5-1.9,0.8-6.2,0.8-6.2L212.7,409.6z"/>
				<path class="st85" d="M209.4,514.3c-0.4,0.8-0.6,1.6-0.6,2.5c0,0.5,0.5,0.8,0.8,1.2c0.9,1.2,5,4.1,5,4.1
					c1.2-1.2,2.8-1.8,4.5-1.7l-3.5-5.1L209.4,514.3z"/>
				<path class="st85" d="M225.5,507.8c-0.1,0.2-0.6,1.9-0.7,2.1c-0.5,0.9-0.2,2.1,0.5,2.8l5.2,4.4l4.6-1.9c-1-1.7-4.2-5.7-4.2-5.7
					L225.5,507.8z"/>
				<path class="st85" d="M234.2,461.9l1,9.7c1.6-0.7,2.1-1,2.5-3.7s-0.5-7.9-0.5-7.9L234.2,461.9z"/>
				<path class="st86" d="M209.4,514.1c0.1-7,0-8.1,0.5-13.7c0.2-1.6,0.4-3,0.7-5.4c0.5-6-0.9-14.4-0.9-18.1c0-5.1,2-8.5,2.3-8.6
					c16.5-2.6,23,14.8,23.1,14.8c-0.3,4.9-4.1,26.3-4.1,26.3c-1.1,2.3-4.5,1.1-4.5,1.1c-1.2-0.7-1.8-2-1.6-3.3
					c0,0,0.7-10.7,0.7-14.5c0.1-1.9-0.2-3.9-0.8-5.7c0,0-3.9-2.3-4.4-0.3c-0.2,0.9-0.2,3.7-1,7.4c-0.9,4.6-2.5,10.4-2.7,13
					c-0.2,2.8-0.6,5.5-1.2,8.2c-0.9,0.9-2.2,1.3-3.5,1.1C210.7,516.1,209.4,515,209.4,514.1z"/>
				<path class="st87" d="M234.9,486c0,0-5.4,3.3-9.3,4l0.1,1.4c0,0,5.3,0.1,8.8-2.7L234.9,486z"/>
				<path class="st87" d="M213,470.8c0,0,2.5,10.8,0.4,20.6c0,0,3.9,1.8,6.3,1.1c0.3-1.8,0.5-3.7,0.6-5.5
					C220.3,486,215.1,469,213,470.8z"/>
				<path class="st88" d="M206.2,470.4c-0.9,1.8-2.3,10.2-2.5,14.6s3.2,5.1,3.2,5.1c-0.2-1.5-0.2-2.9,0.1-4.4
					c0.6-6.9,5.1-14.7,5.1-14.7l1.2-7.7l1,8.5c0.6,3.3,0.9,6.6,0.8,10c-0.2,3.2-0.6,6.4-1.3,9.5c2.5,0.5,10.2-0.3,16.6-2.6
					s7.4-4.8,7.4-4.8c0.1-1.9,0-3.7-0.2-5.6c-0.3-2.4-2.4-16.4-2.4-16.4c3-1.2,3.4-2.5,3.3-4.6s-1.3-10-1.6-16.2s-1.6-13.7-2.9-17.3
					s-3.9-3.3-3.9-3.3c-0.1,1.6-0.6,3.2-1.2,4.7c1.1,3.2,1.7,6.5,1.7,9.8c-0.9,2.9-4.4,3.2-6.4,3.3s-4.1-2.9-5.7-6.7
					c-1-2.3-3.1-3.9-5.6-4.3c-2.8,1.4-4.4,5.3-5.8,8.8s-3.2,15-3.5,19.9S206.3,470.4,206.2,470.4z M211.2,456.2
					c0,0,0.6-7.9,2.1-10.7c0.8,1.6,0.9,3.4,0.3,5.1C212.5,453.4,211.2,456.2,211.2,456.2L211.2,456.2z"/>
				<path class="st89" d="M212.7,414.1c-1.3,0-1.8-1.3-1.9-3.8s1.5-2,1.5-2L212.7,414.1z"/>
				<path class="st85" d="M228.8,424.7c0.9,2.1,2.3,8.8,1.8,10.5s-4.4,3.7-7,3s-4.6-5.2-5.7-7.5s-5.1-3.6-5.1-3.6
					c0.3-0.4,1.7-1,3.1-2.2s0.7-4.4,0.7-4.4c0.4,0.5,1.1,0.8,1.7,0.6C220.7,423.4,228.9,424.6,228.8,424.7z"/>
				<path class="st85" d="M216.9,406.1c-5.7,2.6-1.2,12.5-1.2,12.5c-0.1,2.4,1.1,3.7,1.7,3.6c0,0,4.6,5.1,7.9,5.1s4.6-2.6,5.5-8.5
					c0.1-0.5-0.2-1.3-0.1-1.8c0.2-0.6,0.3-1.1,0.4-1.7c0.1-2.2-0.1-4.3-0.7-6.4C227.5,402.1,222.6,403.5,216.9,406.1z"/>
				<path class="st90" d="M207.9,456.2l3,12.7c0,0,5.5,5.1,6.2,5.1s5.1-2.4,5.5-3.5s-1.7-10.1-2.1-11.4s-10-7.4-10-7.4L207.9,456.2z
					"/>
				<path class="st91" d="M230.9,406.8c-0.5-1.1-1.2-2-2.2-2.7c-1.9-1.7-4.3-2.9-6.9-3.3c-2.5-0.2-8.4,2.1-9.4,4.5
					c-0.3,1.7-0.5,3.5-0.4,5.2c0.4,2-0.3,2.4,0.5,5.1c0.3,1,0.7,2,1.2,2.9c0.7,0.5,1.6,0.6,2.3,0.2c0.7,0,1.3-0.3,1.8-0.8
					c0.3,0.8-0.6,2.2,1,3c0.6,0.4,1.3,0.2,1.7-0.3c0.1-0.2,0.2-0.4,0.2-0.6c-0.7,1.3-2.3,0.6-1.9-1s2-1.2,2.5-3.7s1-2.4,4.8-3.2
					s3.9-3.4,3.9-3.4c0.3,0.5,0.5,1,0.6,1.6C231.5,409.3,231.6,407.9,230.9,406.8z"/>
				<path class="st92" d="M230.9,416.1c-2.3,1.5-5.5,2.9-6.1,2.6c-0.8,0.1-1.6,0-2.4-0.1c0.3-0.5,1.1-0.3,3-0.5s5.7-2.5,5.7-2.5
					L230.9,416.1z"/>
				<path class="st92" d="M227,422c0.7,0.3,1.3-0.2,1.1-0.6c-0.4-0.8-0.5-1.7-0.4-2.6c0.2-0.6,0.4-0.3,0.4-0.3
					c-0.2,0.9-0.1,1.9,0.3,2.8c0.6,1.7-1.8,1.7-2,0.8C226.6,421.6,227,422,227,422z"/>
				<path class="st92" d="M228.9,426.9c-0.8,1.2-3.2,1.4-3.2,1.4s-6.1,0.2-6.7-5.6c1,2,2.8,3.5,4.9,4.1c3.8,0.9,5.2-1.6,5.2-1.6
					l0.4,1.1c0,0,2.2,8.3,1.1,9.5C230.6,432.8,230,429.7,228.9,426.9z"/>
				<path class="st93" d="M233.2,430.9c1.3,1.4,2.1,3.2,2.5,5.1c0.5,3-1.1,5.9-2.6,8.2s-1.2,3.5,0.7,8.7c1.1,2.9,1.6,5.9,1.4,9
					c-0.4-8.2-3.5-9-3.7-12.9s1-4.7,3-9s-1.5-7.8-1.8-9.1c-0.1-1.3,0-2.6,0.3-3.9C232.9,428.3,233,429.6,233.2,430.9z"/>
				<path class="st93" d="M219.2,445.4c3.7,1.9,7.4-0.3,7.4-0.3c-1.7,2.1-4.7,2.5-6.8,0.8C219.6,445.8,219.4,445.6,219.2,445.4z"/>
				<path class="st92" d="M236.3,469.3l-0.1-1.2c0,0,0.5-1.3,0.6-1.6s0.1-3.1,0.1-3.1C237.8,466.1,236.2,469.3,236.3,469.3z"/>
				<path class="st92" d="M217.3,424.8c-0.4,1.2-1.4,2.1-2.6,2.3c3.5,1.3,4.4,4.4,5.7,7c0.9,1.7,2.2,3.1,3.8,4.2
					c-2.7,0.1-4.6-4.3-4.6-4.3c-0.8-1.5-1.6-3-2.6-4.4c-0.9-1.2-4.1-2.4-4.1-2.4l3.1-2.2c0.9-1,1.1-2.4,0.5-3.6
					c1,1.1,1.8,0.2,1.8,0.2C219.2,423.6,217.8,422.9,217.3,424.8z"/>
				<path class="st8" d="M207.2,472c-0.5,2.1-0.6,4.3-0.3,6.5c0.3,2,1.3,2.4,2,3.1s1.5,1.3,2.1,0.3c0.3-0.4-0.1-2.5-0.1-3.9
					c0-0.9,0.1-1.8,0.3-2.6c0.2,0.9,0,4.7,1.1,4.4s0.8-1.4,0.9-4c0-1.7-0.2-3.3-0.7-4.9C210.5,473.3,207.2,472,207.2,472z"/>
				<path class="st94" d="M230.3,515.6c-2.9-1.2-5.7-5.2-5.7-5.2c-0.3,0.5-0.4,1-0.3,1.5c2,2.6,6.2,6.2,9.5,7.3s3.3-0.9,3.3-0.9
					c-0.4-1.7-1.3-3.3-2.6-4.5C232.9,513.7,231.3,514.4,230.3,515.6z"/>
				<path class="st94" d="M214.6,521.4c-2.9-1.2-5.7-5-5.7-5c-0.3,0.4-0.4,0.8-0.4,1.3c1,1.6,6.3,6.1,9.6,7.2s3.3-0.9,3.3-0.9
					c-0.3-1.7-1.3-3.2-2.6-4.3C217.2,519.5,215.6,520.1,214.6,521.4z"/>
				<path class="st88" d="M203.7,456.9c-0.3,2.9,2,10.7,2,10.7l1.1,4.3c1.9,0.9,4.2,0.3,5.5-1.3c-1.4-5.2-1-19.4-1-19.4L203.7,456.9
					z"/>
				<polygon class="st95" points="217.6,460.6 211.3,455.7 211.2,456.2 217.3,460.8 216.6,473.8 217.1,474.1 217.5,460.9 				"/>
				<path class="st95" d="M217.3,458.6l-5.7-4.3C213.2,456.1,215.1,457.6,217.3,458.6z"/>
				<path class="st95" d="M218.7,463c-0.2-1.6-1.5-13.8-1.5-13.8c-0.9-15.5-2.4-17.2-2.4-17.2c-0.6-1.8-2.5-2.9-4.4-2.6
					c0.2-0.8,0.9-1.4,1.7-1.6c3.3-0.8,5,4.9,4.9,4.5c1.7,4.2,3.2,30.5,3.2,30.5C220.2,464.5,218.9,464.6,218.7,463z"/>
				<path class="st93" d="M213.3,443.4l0.3-1.1c1.2-0.7,2.3-3.4,2.3-3.4C215.9,440.7,214.9,442.4,213.3,443.4z"/>
				<path class="st93" d="M213.4,441.2c-1.5,3-2.6,11.2-3,14.8s1.9,14.5,1.9,14.5c-0.8,2.1-5.5,1.3-5.5,1.3c5.1,1.8,6.2-1,6.2-1
					s-1.4-9.4-1.8-11.8s1.3-13.8,3.1-17.8s0.9-6.5,0.9-6.5C215,437,214.4,439.2,213.4,441.2z"/>
				<polygon class="st96" points="228.4,437.5 227.5,435.4 227.6,437.8 				"/>
				<path class="st96" d="M216.3,418.7c0,0-0.2,2.1,0.5,2.3s1.2-0.5,0.9-0.8s-0.9-0.6-0.3-1.5S216.3,418.7,216.3,418.7z"/>
				<path class="st95" d="M217.3,460.8l1-1.4l2.2-0.2c0,0,2.7,9.9,2,11.7c-1.6,1.4-3.4,2.5-5.4,3.3l-0.2-0.8c0,0,3.5-0.9,5.3-3.1
					c-0.3-3.6-0.9-7.2-1.9-10.7l-1.6,0.1l-1.4,1.7"/>
				<path class="st97" d="M227.7,427.8c0,0,1.1,3.3,0,4.5s-3,1.6-6-1.4c-1.9-1.9-3.9-3.7-6.1-5.3c0,0-0.2-1.2,1.1,0s6.6,6.6,7.9,6.9
					s4,0.7,2.5-4.5L227.7,427.8z"/>
				<circle class="st97" cx="226.7" cy="433.1" r="0.7"/>
				<circle class="st97" cx="217.5" cy="421.8" r="0.5"/>
				<path class="st92" d="M211.2,474.5c-0.1,0.9-0.2,1.7-0.4,2.6c-0.1,1.5,0,3,0.3,4.5c0,0-0.1-5,0.3-5.5v1.6
					C211.4,477.8,212.2,475.6,211.2,474.5z"/>
				<path class="st92" d="M212.7,471.3c0,0-0.9,1.8-5.5,0.7c-0.5,1.7-0.6,3.5-0.4,5.2c0,0,0.5-3.8,2-3.6s4-1.6,4.3,0.8l0.2,1.6
					C213.5,474.4,213.3,472.8,212.7,471.3z"/>
				<path class="st92" d="M237.4,460.7c-0.7,0.5-1.4,0.9-2.2,1.2l0.4,2.6c0,0,1-2.2,1.6-1.4c0.5,0.8,0.7,1.7,0.7,2.6
					C237.9,464,237.8,462.3,237.4,460.7z"/>
				<path class="st92" d="M231,509.4c0,0-0.5,2-4.1,1.2c0,0-1.5-0.5-1.7-1.7c-0.2,0.5-0.4,1.1-0.6,1.6c0,0,0.2-0.8,0.9-0.2
					c1.8,1.6,4.4,1.7,6.3,0.3L231,509.4z"/>
				<path class="st92" d="M215.7,515.3c0,0-2.4,2.3-4.9,0.5c0,0-1.3-0.7-1.3-1.5s-0.4,1-0.4,1c1.9,2.2,4.9,2.8,7.5,1.6L215.7,515.3z
					"/>
				<path class="st93" d="M233.9,428.3l-0.9,2.8l0.7,0.9C233.9,430.8,233.9,429.5,233.9,428.3z"/>
				<path class="st91" d="M215.8,418.7c-0.2,1.1,0.1,2.2,0.8,3c0.1,0.4,0.2,0.7,0.3,1.1c0,0-1.8,0.7-4-6.3L215.8,418.7z"/>
				<path class="st98" d="M229.8,406.2c0.9,1.9,0.1,4.2-1.8,5.1c-0.1,0.1-0.3,0.1-0.4,0.2C227.5,411.5,230.4,409.6,229.8,406.2z"/>
				<path class="st98" d="M218.7,415.8c0,0-0.4,3-3,2.7C215.7,418.5,218.2,417.5,218.7,415.8z"/>
			</g>
		</g>
		<g>
			<defs>
				<path id="SVGID_6_" d="M198.7,479.5c0,0,88,8.5,157,0l-5-80l-20-19.5l-20.5,6.5L295.7,457l-21,8.5l-24.5-20l-8.5-40.5l-15-10.5
					h-26.5C200.2,394.5,165.2,413.5,198.7,479.5z"/>
			</defs>
			<clipPath id="SVGID_7_">
				<use xlink:href="#SVGID_6_"  style="overflow:visible;"/>
			</clipPath>
			<g class="st99">
				<path class="st100" d="M307.9,442c-0.9,2.7-1.3,5.6-1,8.4c0,0,0.9,4.1,4.1,4.6c0,0-0.5-6.6,0.5-8.3s-0.5-3.9-0.5-3.9L307.9,442z
					"/>
				<path class="st52" d="M307.6,442.8c1,1.1,2.7,1.4,4.1,0.7v0.9l-1.4,1.8c0,0,0.1-1-1.3-1.2c-0.7-0.1-1.3-0.2-2-0.4
					C307.2,444,307.4,443.4,307.6,442.8z"/>
				<path class="st101" d="M309,446.1c-0.1,1.5-0.2,3-0.1,4.5c0.2,0.9,1.2,0.7,1.3-0.3c0-1,0.1-2,0.4-2.9c0.3-0.4,0.5-0.8,0.6-1.3
					c0,0,0.4,0.4-0.5,1.9l-0.2,2.3c0,0-0.1,1.2-1,1.1s-1-1.3-1-2C308.6,449,308.5,445.9,309,446.1z"/>
				<path class="st40" d="M322.4,502.1c0,0-3.4,3-4.9,4.6s-0.1,3.6,2.4,2.6c2.9-1.2,5.6-2.7,8.1-4.6l0.3,1c0,0,0.7,0.6,0.9-0.6
					s1-4.9-0.2-5.9C329,499.2,326.2,503.5,322.4,502.1z"/>
				<path class="st100" d="M323.8,481.9c0,0,1.2,14.4,0.3,17c-0.6,1.6-1.5,3.1-2.7,4.4c0,0-2.3,2.5,0.7,1.9c2.6-0.6,5-2,6.7-4.1
					c0.8-1.2-0.6-2.7,0.2-6s2.8-8.9,3-13.9L323.8,481.9z"/>
				<path class="st101" d="M323.9,484c0,0,5.2,0.9,7.9-0.9l0.3-2.1l-8.4,0.9L323.9,484z"/>
				<path class="st40" d="M311.7,496.6c-1.8,1.3-3.5,2.9-4.9,4.6c-1.3,1.8-0.1,3.6,2.4,2.6c2.9-1.2,5.6-2.7,8.1-4.6l0.3,1
					c0,0,0.7,0.6,0.9-0.6s1-4.9-0.2-5.9C318.3,493.8,315.5,498.1,311.7,496.6z"/>
				<path class="st100" d="M313.1,476.4c0,0,1.2,14.4,0.3,17c-0.6,1.6-1.5,3.1-2.7,4.4c0,0-2.3,2.5,0.7,1.9c2.6-0.6,5-2,6.7-4.1
					c0.8-1.2-0.6-2.7,0.2-6s2.8-8.9,3-13.9L313.1,476.4z"/>
				<path class="st101" d="M313.4,480.9c0,0,2.9,3.2,6.7,2.1l0.4-1.4l-7.3-2.8L313.4,480.9z"/>
				<path class="st102" d="M312.4,443.3c-1.4,1-2.3,2.6-2.5,4.3c-0.3,2.8-1.9,24.2-1.9,24.2c-0.5,1.2-0.4,2.5,0.4,3.5
					c1.2,1.8,11,10.2,23.3,6.5c0,0,6.9-2.2,7.3-7l-2.1-22.2L312.4,443.3z"/>
				<path class="st100" d="M334,414.9c0,0-4.2-1.4-6.4,4.9c-1,1.7-1.4,3.6-1.3,5.5c0,0,9.9,1.5,10.6-5.2
					C336.9,420.2,336.4,415.7,334,414.9z"/>
				<polygon class="st55" points="328.2,467.1 327.5,477.5 342.8,469.3 342.9,459.2 				"/>
				<path class="st101" d="M330.2,421.1l1.1,4.7l0.4-0.1C331.7,425.7,331.5,422,330.2,421.1z"/>
				<path class="st103" d="M313.3,396.7c0,0,0.7,4.1,0,6.7s-0.8,4.7,2.2,5.6l1.6,0.2c0,0-1.5-9.8-0.8-13.1
					C316.3,396.1,313.4,393.9,313.3,396.7z"/>
				<path class="st100" d="M331.9,455.5c-0.9,1.2-1.3,2.7-1.3,4.2c0,1.8-0.2,3.6-0.6,5.3c0,0,0.1,0.7,1.1,0.3s1-1.5,1.1-2.5
					s0.2-1.5,0.2-1.5c0.2,1.6,0.2,3.2,0,4.8c-0.4,2.2,1.9,1.4,3.1,0.4s2.7-6.2,1.5-9.9C337,456.5,333.5,456.9,331.9,455.5z"/>
				<path class="st101" d="M331.8,455.7c0,0,3.2,1.6,5.2,0.7c0.3,0.7,0.4,1.5,0.4,2.3c-0.4-0.9-1.4-1.3-2.3-1.1
					c-2.7,0.2-3.6,0.3-3.8,2.3c-0.1,1.7-0.5,3.3-1.2,4.8c0,0,0.5-4.5,0.4-5.4S331,456.1,331.8,455.7z"/>
				<path class="st103" d="M313.4,397c-0.6-3.6,1.4-7.1,4.8-8.5c0,0,4-2.2,6.7-1.5s7.4,2.3,8,5.8s-0.8,5.5,1,9.8s4,8.7,0.1,12.4
					c0,0-4-1.4-5.1-2.3c-2.1-1.9-1.6-3.5-1.8-5.4c-1.3-1.4-2.1-3.2-2.2-5.1v-2.8C325,399.2,316.5,401.4,313.4,397z"/>
				<path class="st104" d="M314.9,406.5c0,0-5,1.1-5.8,7.5s-1.5,15.4-2,18.1s-2.4,7.9,0,10.3s4.4,1,4.4,1l-0.6-0.7
					c0,0,1.7,3.7,4.7,4.6s4.2,0.8,7.4,4.2s6.6,3.2,8.7,2.1c-0.1,0.4-0.2,0.9-0.2,1.3c0,0.4-0.5,1.1,2.2,1.7s4.3-0.4,4.5-1.4
					s2.1-10.8,2.5-12.6s1-2.6,0-8.6c-1-5.4-2.5-10.8-4.4-16c0.6,1.6,0.2,3.3-0.9,4.6c-1.9,2-8.4,2.6-9.8,2.3
					c-2.2-0.6-8.8-2.3-9.9-12c-0.2-1.1,0-2.2,0.5-3.1C315.6,408.8,315.1,407.7,314.9,406.5z"/>
				<path class="st100" d="M327.2,407.6c-0.2,1.9,0.6,3.7,2.1,4.8c0,0,1.2,0.7,1.5,0.8c-2.7,3.6-5.2,7.4-7.4,11.3
					c-3.5-1.4-6.1-4.3-7.1-7.9c0,0-1.6-4.1-0.1-6.9c0,0,3.5,2.6,6.6,1.6s4.1-4.4,4.1-4.4L327.2,407.6z"/>
				<path class="st101" d="M316.1,409.8c-0.4,2.6-0.1,5.3,0.9,7.8c0,0,1.6,5,5.1,6.3l-1.8-1.5l0.3-1.1l-0.9,0.5c0,0-4-6.9-3.2-11.5
					L316.1,409.8z"/>
				<path class="st100" d="M314.3,398.1c-0.1,2.8,0.1,5.7,0.5,8.5c0.7,3.1,2.3,5.5,5.7,5.5c2.9,0,5.7-0.9,6.4-4.5
					c0.6,0.4,1.4,0.3,1.8-0.3c0,0,0.1-0.1,0.1-0.1c0.1-0.2,0.1-0.4,0-0.6c0,0-3.3-1.8-3.5-4.1c-0.1-1.3-0.1-2.5,0.1-3.8
					C325.4,398.7,318.3,401.3,314.3,398.1z"/>
				<path class="st105" d="M326.6,425.1c0-1.4,0.2-2.7,0.6-4c2.3-7.1,6.8-6.2,6.8-6.2c-0.8-1.9-3.2-1.7-3.2-1.7
					c-1.3,0.4-2.4,1.2-3.4,2.1c-3.4,3.2-2.1,8.3-5.3,8.5C322.1,423.9,325.9,425.4,326.6,425.1z"/>
				<path class="st101" d="M316.3,409.8c1.5,1.8,3.9,2.5,6.1,2c1.5-0.3,2.9-1.1,3.8-2.3c-0.7,1.9-2.6,3.1-4.6,3
					C318.4,412.6,317.5,411.4,316.3,409.8z"/>
				<path class="st101" d="M327.3,411.2c0.7,0.9,1.7,1.5,2.8,1.7c-2.4-1.5-1.9-5.3-1.9-5.3c-0.3,0.2-0.7,0.2-1,0
					c0,0.3-0.2-0.8-0.8,1.2c0,0,0,2.1-4.4,3.7C323.8,412.2,325.6,411.8,327.3,411.2z"/>
				<path class="st59" d="M332.6,463.3l-5.9,3.2l-0.7,10.4l1.5,0.6l0.7-10.4l4.4-2.3C332.7,464.3,332.7,463.8,332.6,463.3z"/>
				<polygon class="st59" points="337.4,460.8 337.2,462.3 342.9,459.2 341.6,458.5 				"/>
				<path class="st106" d="M312.4,415.6c0.5,1.9,0.3,3.9-0.4,5.7c-1.2,2.7-2.2,7.4,1.6,9.9c0,0-4.8-1.9-2.8-8.5
					C311.8,420.5,312.4,418.1,312.4,415.6z"/>
				<path class="st106" d="M316.1,409.8c0,0-1.9,8.4,6.3,14.3C322.4,424.1,312.7,419.1,316.1,409.8z"/>
				<path class="st106" d="M315,419.5c0,0,2.6,11.6,12,12.8C327.1,432.3,316.8,431.4,315,419.5z"/>
				<path class="st106" d="M317.4,419.6c0,0,1.5,10.3,10.7,8.9c0,0-7.9,0.8-10.1-8.1L317.4,419.6z"/>
				<path class="st106" d="M318.2,420.8c0,0,2.8,5.2,7,5.9c0,0-4.5-0.1-7.1-5.3L318.2,420.8z"/>
				<path class="st106" d="M312.4,430.6c0,0,1.5,4.9,1,7.2l-0.9-4.9c-0.1,2.8-0.5,5.6-1,8.4c-0.3,1-0.1,2.1,0.5,3c0,0-0.6,0-1-1
					c0-1.2,0.1-2.3,0.3-3.5c0.4-2.1,1.1-9,0.7-9.7L312.4,430.6z"/>
				<path class="st106" d="M316.8,436.6c0,0,5.7,10,13.4,5.1C330.2,441.6,324.1,445.3,316.8,436.6z"/>
				<path class="st106" d="M332.5,426.7c0,0,1.4,9.7,1.5,11.4s-1.9,14.6-1.9,15.8s0.7,2.2,2.9,2.3s2.2-0.2,3-1.1c0,0-0.2,1.8-3,1.5
					c0,0-3.1,0.1-3.6-1.2c0,0-0.3-0.5,0.3-2.9c0.9-4.7,1.5-9.5,1.9-14.3C333.6,438.3,331.6,427.2,332.5,426.7z"/>
				<path class="st106" d="M333,433.7c0,0,2,5.8-3.4,6.8c0,0,3.4-1,3.7-5.5L333,433.7z"/>
				<path class="st106" d="M334.4,432.7c0,0,2.9,2.8,4.3-0.4C338.7,432.2,337.8,436.5,334.4,432.7z"/>
				<path class="st106" d="M338.8,433c0,0-0.9,4.1-3.5,2.7c0,0,2.2,0.8,3.4-3.3L338.8,433z"/>
				<path class="st106" d="M339.1,440.8c0,0-1.1,4.1-4.2,4.7c1.5-0.2,2.8-1.1,3.4-2.4c0,0-1,4.1-3.5,4.2
					C334.8,447.4,338.3,447.5,339.1,440.8z"/>
				<path class="st106" d="M318.8,446.9c1.7,1,3,2.3,4,4c2.1,3.2,6.8,3.4,6.8,3.4c-3.1,0.3-6.1-1.2-7.7-3.8
					c-2.8-4.5-3.5-3.7-3.5-3.7"/>
				<path class="st106" d="M308.1,428.7c0,0-0.2,4.2,2.9,4.4C311,433,309,432.5,308.1,428.7z"/>
				<path class="st101" d="M314.9,401.9c0,0,2.6,3,8.9,2.1C323.8,404,316.6,406,314.9,401.9z"/>
				<path class="st101" d="M317.4,404.7l-0.1,2.6c0,0,0.5,0.9,2.1,0.7l0.2-0.3c-0.7,0.1-1.4-0.1-1.9-0.5
					C317.6,407.1,317.9,404,317.4,404.7z"/>
				<path class="st101" d="M331.8,459.7c0.1,0.6,0.3,1.2,0.6,1.7c0.5,1.1,0.1,4.2,0.1,4.2s-0.5,2,0.6,1.9c0,0-0.7-0.1-0.3-1.9
					S333.3,460.8,331.8,459.7z"/>
				<polygon class="st101" points="329.7,422.5 331,424 330.8,423 				"/>
				<path class="st101" d="M334,414.9c0,0-6.5-0.9-7.4,10.1c1.4,0,2.9-0.2,4.3-0.5l-3.6-0.1C327.3,424.5,327.4,415.9,334,414.9z"/>
				<polygon class="st101" points="318.2,411.5 318.6,413.1 319.1,413.2 319.2,412.2 				"/>
				<polygon class="st55" points="332.5,464.4 327.8,467 327.2,477.4 327.5,466.8 332.6,464.2 				"/>
				<polygon class="st55" points="332.3,463.9 327.2,466.8 326.6,477.2 326.2,476.9 326.9,466.6 332.5,463.6 				"/>
				<polygon class="st55" points="337.5,461 341.9,458.8 342.1,459 337.3,461.4 				"/>
				<polygon class="st55" points="337.5,461.6 342.4,459.2 337.4,462 				"/>
				<path class="st107" d="M313.9,456.1c0,0,1.4,17.8,7.5,19.7C317.1,470.1,314.5,463.2,313.9,456.1z"/>
				<path class="st41" d="M311.7,496.6c0,0-6.2,4.1-5.5,6.5s5.3,0.8,11.1-3.9c0,0-7.6,6-10.4,4.1C307,503.4,304.9,501.9,311.7,496.6
					z"/>
				<path class="st41" d="M322.4,502.2c0,0-6.2,4.1-5.5,6.5s5.3,0.8,11.1-3.9c0,0-7.9,5.7-10.4,4.1
					C317.6,508.9,315.6,507.6,322.4,502.2z"/>
			</g>
		</g>
		<rect class="st108" width="514.5" height="516.1"/>
	</g>
</g>
</svg>
