<svg xmlns="http://www.w3.org/2000/svg" width="40" height="40" viewBox="0 0 40 40">
    <path fill="#F2F2F2" fill-rule="nonzero" d="M39.654 37.96l-9.723-9.72a16.984 16.984 0 0 0 4.187-11.185C34.118 7.645 26.463 0 17.06 0 7.647 0 0 7.654 0 17.055c0 9.402 7.656 17.056 17.06 17.056 4.275 0 8.187-1.579 11.186-4.186l9.723 9.72c.23.23.54.355.842.355a1.199 1.199 0 0 0 .843-2.04zM2.386 17.055c0-8.088 6.583-14.66 14.664-14.66 8.09 0 14.664 6.58 14.664 14.66s-6.573 14.67-14.664 14.67c-8.081 0-14.664-6.58-14.664-14.67z"/>
</svg>
