<svg xmlns="http://www.w3.org/2000/svg" width="40" height="45" viewBox="0 0 40 45">
    <g fill="#F2F2F2" fill-rule="nonzero">
        <path d="M8.382 8.863c6.647-5.969 16.595-6.06 23.334-.611l-5.342.2a1.231 1.231 0 0 0 .046 2.465h.046l8.2-.302a1.234 1.234 0 0 0 1.196-1.232v-.09-.056l-.303-8.05A1.239 1.239 0 0 0 34.272.001a1.231 1.231 0 0 0-1.196 1.278l.193 5.047c-3.337-2.71-7.446-4.28-11.841-4.5-5.443-.273-10.674 1.58-14.71 5.212C1.165 12.03-1.188 19.624.577 26.852a1.234 1.234 0 0 0 1.498.904 1.233 1.233 0 0 0 .91-1.488A17.726 17.726 0 0 1 8.383 8.863zM39.425 17.615a1.239 1.239 0 0 0-1.493-.904c-.66.165-1.072.831-.907 1.488a17.746 17.746 0 0 1-5.378 17.406 17.846 17.846 0 0 1-11.974 4.59 17.885 17.885 0 0 1-11.425-4.097l5.387-.484a1.232 1.232 0 0 0 1.118-1.342 1.228 1.228 0 0 0-1.347-1.113l-8.145.73a1.232 1.232 0 0 0-1.118 1.342l.733 8.114a1.233 1.233 0 0 0 1.228 1.122c.037 0 .073 0 .11-.009a1.232 1.232 0 0 0 1.118-1.342l-.44-4.937c3.326 2.683 7.403 4.244 11.754 4.463.349.018.697.027 1.036.027 5.048 0 9.849-1.843 13.623-5.239a20.22 20.22 0 0 0 6.12-19.815z"/>
    </g>
</svg>
