<svg xmlns="http://www.w3.org/2000/svg" width="40" height="45" viewBox="0 0 40 45">
    <g fill="#F2F2F2" fill-rule="nonzero">
        <path d="M0 24.733C0 35.915 8.966 45 20 45s20-9.085 20-20.267c0-5.553-2.222-10.639-5.824-14.289l1.571-1.592.728.738c.307.31.69.466 1.111.466.422 0 .805-.155 1.111-.466a1.609 1.609 0 0 0 0-2.252l-3.64-3.688a1.558 1.558 0 0 0-2.222 0 1.609 1.609 0 0 0 0 2.252l.728.737-1.724 1.748c-2.912-2.175-6.398-3.534-10.23-3.844v-1.36h3.487c.881 0 1.57-.698 1.57-1.591S25.978 0 25.097 0H14.75c-.881 0-1.57.699-1.57 1.592 0 .893.689 1.592 1.57 1.592h3.716v1.359C8.123 5.358 0 14.094 0 24.733zM20 7.649c9.31 0 16.897 7.687 16.897 17.122 0 9.435-7.587 17.123-16.897 17.123-9.31 0-16.897-7.688-16.897-17.123C3.103 15.298 10.69 7.65 20 7.65z"/>
        <path d="M19.595 24h6.81C27.3 24 28 23.353 28 22.527c0-.826-.7-1.473-1.595-1.473H21.19v-7.58c0-.827-.7-1.474-1.596-1.474C18.7 12 18 12.647 18 13.473v9.09c0 .79.7 1.437 1.595 1.437z"/>
    </g>
</svg>
