<?xml version="1.0" encoding="utf-8"?>
<!-- Generator: Adobe Illustrator 21.1.0, SVG Export Plug-In . SVG Version: 6.00 Build 0)  -->
<svg version="1.1" id="Layer_1" xmlns="http://www.w3.org/2000/svg" xmlns:xlink="http://www.w3.org/1999/xlink" x="0px" y="0px"
	 viewBox="0 0 514.5 641.7" style="enable-background:new 0 0 514.5 641.7;" xml:space="preserve">
<style type="text/css">
	.st0{opacity:0.5;}
	.st1{fill:#F3F3F3;}
	.st2{fill:#31AABA;}
	.st3{opacity:0.1;fill:#010101;enable-background:new    ;}
	.st4{fill:#35B7AE;}
	.st5{fill:url(#SVGID_1_);}
	.st6{fill:#A5B2C7;}
	.st7{fill:#6D798B;}
	.st8{fill:#FED4AF;}
	.st9{fill:#FBBD92;}
	.st10{fill:#D2D2D2;}
	.st11{fill:#AB6087;}
	.st12{fill:#28151A;}
	.st13{fill:#3CC3D9;}
	.st14{fill:#ECAC67;}
	.st15{fill:#ABDDDE;}
	.st16{fill:#EAAE9D;}
	.st17{fill:#CF8885;}
	.st18{fill:#2D9FB2;}
	.st19{fill:#E9EDF7;}
	.st20{fill:#884B6C;}
	.st21{fill:#454043;}
	.st22{fill:#129491;}
	.st23{fill:#ACADAE;}
	.st24{fill:#C45C7A;}
	.st25{fill:#73452C;}
	.st26{fill:#FCCFB7;}
	.st27{fill:#69446B;}
	.st28{fill:#5A395D;}
	.st29{fill:#F38AAA;}
	.st30{fill:#EDAA42;}
	.st31{fill:#A76F69;}
	.st32{fill:#A16443;}
	.st33{fill:#FAB6A1;}
	.st34{fill:#E96997;}
	.st35{fill:#82596B;}
	.st36{fill:#9C605B;}
	.st37{fill:#FABCA4;}
	.st38{fill:#F6EC49;}
	.st39{fill:#9B5E3F;}
	.st40{fill:#745D9E;}
	.st41{fill:#5D4980;}
	.st42{fill:#CD8079;}
	.st43{fill:#056772;}
	.st44{fill:#EF5B79;}
	.st45{fill:#A1D28E;}
	.st46{fill:#81B16D;}
	.st47{fill:#BD6D6A;}
	.st48{fill:#194353;}
	.st49{fill:#F28186;}
	.st50{fill:#DA5A7A;}
	.st51{fill:#FABFA0;}
	.st52{fill:#1D4E5E;}
	.st53{fill:#393537;}
	.st54{fill:#FEE495;}
	.st55{fill:#B16979;}
	.st56{fill:#606281;}
	.st57{fill:#4E506A;}
	.st58{fill:#7A93A1;}
	.st59{fill:#FCCDB0;}
	.st60{fill:#E98B41;}
	.st61{fill:#CFD7B0;}
	.st62{fill:#FFDDB8;}
	.st63{fill:#9EA372;}
	.st64{fill:#57585A;}
	.st65{fill:#A2B4BF;}
	.st66{fill:#516780;}
	.st67{fill:#EEB59B;}
	.st68{fill:#FABAA3;}
	.st69{fill:#F27385;}
	.st70{fill:#756F90;}
	.st71{fill:#E8E9F5;}
	.st72{fill:#826E74;}
	.st73{fill:#FFCD64;}
	.st74{fill:#F9E8E3;}
	.st75{fill:#DFDAED;}
	.st76{fill:#FCB238;}
	.st77{fill:#645E7B;}
	.st78{fill:#C65E6F;}
	.st79{fill:#F3B29E;}
	.st80{fill:#E3978B;}
	.st81{fill:#C8C4CC;}
	.st82{fill:#835D39;}
	.st83{fill:#F79058;}
	.st84{fill:#D4DAC2;}
	.st85{fill:#E67B50;}
	.st86{fill:#B7B4BC;}
	.st87{clip-path:url(#SVGID_3_);}
	.st88{fill:#4E3136;}
	.st89{fill:#024E6C;}
	.st90{fill:#CA9E6F;}
	.st91{fill:#F2E094;}
	.st92{fill:#F2738E;}
	.st93{fill:#73A7BE;}
	.st94{fill:#197DAA;}
	.st95{fill:#F7EB98;}
	.st96{fill:#BC734F;}
	.st97{fill:#252A3D;}
	.st98{fill:#C0CCDD;}
	.st99{fill:#1F2746;}
	.st100{fill:#6D5539;}
	.st101{fill:#FFFFFF;}
	.st102{fill:#4E3C25;}
	.st103{fill:#F0C776;}
	.st104{fill:#DA587C;}
	.st105{fill:#F7A8A7;}
	.st106{fill:none;}
</style>
<title>Asset 6</title>
<g id="Layer_2" class="st0">
	<g id="Layer_1-2">
		<path class="st1" d="M257.2,439.8c-50.8,0-105.5,8.2-105.5,26.3c0,4,2.8,7.5,7.6,10.6l62.3,74.8c4.4,5.2,6.8,11.8,6.9,18.6v58.4
			c0,9.1,14.9,13.2,28.8,13.2c13.9,0,28.8-4.1,28.8-13.2v-58.4c0-6.8,2.5-13.4,6.9-18.6l5.3-6.4h30.6c7.9,0,15.1-4.5,18-11.4l5-12.3
			c1.9-4.6,1.2-9.8-1.9-13.7c-3.2-4.1-8.2-6.4-13.4-6.4h-1.8l20.4-24.5c4.8-3.1,7.6-6.6,7.6-10.6
			C362.7,448.1,308.1,439.8,257.2,439.8z M336.5,510.1c2.1,0,4.2,0.9,5.5,2.6c1.3,1.6,1.6,3.8,0.8,5.7l-5,12.3
			c-1.6,3.5-5.1,5.8-9,5.7h-23.3l21.9-26.3H336.5z"/>
		<path class="st2" d="M257.2,449.8c61.8,0,95.5,11.9,95.5,18s-33.7,18-95.5,18s-95.5-11.9-95.5-18S195.4,449.8,257.2,449.8z"/>
		<path class="st3" d="M271.6,463c37.2,0,64.2,3.2,79.8,6.7c0.8-0.5,1.3-1.4,1.4-2.3c0-6-33.7-17.6-95.5-17.6s-95.5,11.6-95.5,17.6
			c0,2.3,5,5.4,14.5,8.4C178.3,471.2,211.7,463,271.6,463z"/>
		<path class="st4" d="M284.9,546.4c-5.6,6.8-8.8,15.3-8.9,24.1v58.6c-0.7,1.3-7.3,4.7-19.3,4.7s-18.7-3.3-19.3-4.4v-58.9
			c0-8.8-3.2-17.4-8.9-24.1l-51.9-62.6c20.7,5.7,51,8.4,80,8.4s59.3-2.7,80-8.4L284.9,546.4z"/>
		
			<linearGradient id="SVGID_1_" gradientUnits="userSpaceOnUse" x1="1004.1602" y1="131.3324" x2="1004.1702" y2="131.3825" gradientTransform="matrix(160 0 0 -91 -160484.3438 12649.6699)">
			<stop  offset="0" style="stop-color:#FFFFFF;stop-opacity:0.1"/>
			<stop  offset="1" style="stop-color:#FFFFFF;stop-opacity:0"/>
		</linearGradient>
		<path class="st5" d="M276,570.3c0-8.8,3.2-17.4,8.9-24.1l51.9-62.4c-20.7,5.7-51,8.4-80,8.4s-59.3-2.7-80-8.4l99.3,91L276,570.3z"
			/>
		<path class="st6" d="M264.3,329.3c0,0-0.8,0.1-0.9,0.5c-0.1,0.9-0.1,1.7,0,2.6c0.1,0.5,0.7,0.6,0.7,0.6l0.2-0.5L264.3,329.3z"/>
		<path class="st7" d="M264.2,329.5c0,0-0.5,0.2-0.4,0.4c0.1,0.1,0.3,0.2,0.4,0.3V329.5z"/>
		<path class="st8" d="M268.2,310.4l0.1,24l-1.8,9.8c-3.1,0.3-2.7-3.4-2.7-3.4s-0.3,0.2-1.1-0.3s-0.5-2.4-0.3-4.6
			c0.1-1.2,0.7-2.3,1.7-3.1c0-0.7,0.3-10.7,0.7-14.5c0.1-2.9,0-5.7-0.3-8.6L268.2,310.4z"/>
		<path class="st7" d="M264.1,332.8c0.8,0.7,1.8,1.1,2.9,0.9l1.4-0.3l0.1-2.6c0,0-0.3,0.8-2.2,0.7c-0.9,0-1.7-0.5-2-1.4
			c0,0-0.1-0.1-0.2,0.3S263.8,332.7,264.1,332.8z"/>
		<path class="st9" d="M267.1,335.1c0,0-0.7,2.1-2.1,2.3c-0.6,0.2-1,0.8-1,1.5l-0.2,2.1c0,0,0.8-0.3,0.8-2.4c0,0,0-0.5,1-0.8
			C266.7,337.4,267.3,336.2,267.1,335.1z"/>
		<path class="st10" d="M291.6,397.6c0,0,1,1.7,0.7,2.5s-8.4,9.4-10.8,8.6s-2.8-1.6-2.5-2.5s5.3-7.8,5.3-7.8
			C287.8,401.1,291.6,397.6,291.6,397.6z"/>
		<path class="st10" d="M277.9,390.6c0,0,1,2.4,0.7,3s-8.5,8.4-10.3,8.3c-1.4-0.1-2.6-1.2-2.9-2.6c0-0.9,5.5-7,5.5-7L277.9,390.6z"
			/>
		<path class="st11" d="M267.4,333.5c4.4,2.9,21.4,7.2,21.4,7.2c0.3,3.1-0.3,36-0.3,36c-0.7,5.2,3.5,18.9,3.5,18.9s0.9,3-3.3,4.1
			s-4.8-1.9-4.8-1.9s-4.8-17.7-5.5-20.3s-1.6-20.3-1.6-20.3c-1.6,5.4-2.4,11.2-2.2,14.5S279,390,279,390c-1.2,3.9-5.7,3.5-7.1,3
			c-1-0.3-1.7-1.3-1.5-2.4c-0.6-2.6-5.2-17.8-5.2-19.8s0.8-24.4,0.8-24.4C266,336.6,267.5,333.5,267.4,333.5z"/>
		<path class="st12" d="M287,333l-2.6,6.4c-11.6,2.7-16.9-5.1-16.9-5.1c-0.2-1.5-0.1-3,0.3-4.4C276.2,337.2,287,333.1,287,333z"/>
		<path class="st8" d="M278.8,290.2l3.1,2c0,0,1.1,3.2,0.6,3.8s-3.3,2.6-4.9,4.2c-1.2,1.6-2.2,3.3-2.9,5.2l-0.8-5
			c-0.1-1.7,0.2-3.5,0.9-5.1L278.8,290.2z"/>
		<path class="st13" d="M284.6,294.2c0,0,6.7,28,6.7,32.1c-0.1,2.8-1,5.4-2.6,7.7c-14.1,7-21.2-3.7-21.2-3.7
			c-1.1-4.6-0.8-18.7-0.8-18.7c-1.5-0.2-2.8-1.1-3.5-2.4l-0.2-3.3c0.2-1.6,1-1.1,1-1.1s0.3-8.7,0.3-9c0.3-7.4,5.3-7.4,5.3-7.4
			c0.3,1.7,2.8,7.1,2.8,7.1l2.4,1l-0.9,3.2c0,0.8,0.9,5.7,0.9,5.7s1.7-5.1,3.7-6s4.9-4.7,4.9-4.7c0.3-0.7-0.3-2.7-0.3-2.7
			c0.2,0,0.5-0.1,0.6-0.3L284.6,294.2z"/>
		<path class="st14" d="M282.3,335.4c0.2-0.3,0.4-0.1,0.4,0.1c0.2,0.2,0.3,0.3,0.3,0.5c0.2,0.3,0.3,0.7,0.5,1
			c0.2,0.8,0.5,1.5,0.9,2.2c0.9,1.4,2.4,2.1,4,2c1.6-0.2,3-0.9,4.1-2.1c1.1-1.2,1.9-2.5,2.5-4h0.1c-0.2,0.8-0.4,1.6-0.8,2.4
			c-0.4,0.7-0.8,1.4-1.3,2.1c-1.1,1.4-2.7,2.3-4.5,2.4c-0.9,0.1-1.9-0.1-2.7-0.5c-0.8-0.4-1.5-1.1-1.9-1.9c-0.2-0.4-0.3-0.8-0.4-1.2
			c-0.1-0.3-0.2-0.8-0.3-1.1s-0.2-0.8-0.3-1.1s-0.2-0.3-0.3-0.5S282.5,335.3,282.3,335.4L282.3,335.4z"/>
		<ellipse class="st15" cx="274.2" cy="312.6" rx="0.6" ry="0.9"/>
		<path class="st16" d="M295.6,331.9c0.4,3.1-0.3,4.4-0.3,4.4s0.4,7.6,0.5,11.8c0.1,4.5-1.6,5.2-1.6,5.2l-6.8,3.9
			c-1.1,0.5-3.8,1.8-4.9-0.4c-0.6-1.2-1-14.4-0.9-19.6c0-0.7,0-1.3,0.2-2c0.4-0.9,6.9-4,6.9-4C290.7,329.4,295.1,328.7,295.6,331.9z
			"/>
		<path class="st17" d="M282.3,335.4c0.6-0.3,1.3,0,1.6,0.6c0.1,0.2,0.1,0.5,0.1,0.7c0,2,0.2,3.7,0.9,4.5s7,3.6,10.3-5
			c-0.4,2.5-2,4.6-4.2,5.8c0,0-4.1,2-6.6-0.9c-0.5-0.9-0.8-2-0.7-3.1C283.8,336,283.6,335.5,282.3,335.4z"/>
		<path class="st8" d="M288.6,320.4c0,0,0,2.4,0.2,7.2s-1.7,18.9-1.7,18.9c1.1,1.4,3,1.8,4.5,1c-0.4-2,2.8-14.6,2.8-14.6
			c1.6-9.6,0.3-13.7,0.3-13.7C290,316.7,288.6,320.4,288.6,320.4z"/>
		<path class="st18" d="M275.1,296.2l-0.4-0.5l-0.3,0.9c-0.3,1.3-0.5,2.5-0.6,3.8l0.8,2.4c-0.7-4.5,0.2-5.9,0.2-5.9L275.1,296.2z"/>
		<path class="st13" d="M283.5,293.5l-0.2-1.8c1.9,0.8,2.4,3.8,2.4,3.8s5.8,3.9,7.4,6.3s1,4.3,1.3,7.8c0.1,0.8,0.5,3.2,0.9,5.3
			c0.5,0.2,1,4.2,1,4.2s-1.1,3.5-6.8,3.1l-1.6-0.3c0,0-3.3-9.1-3.1-12.5s-0.1-5,1.6-6.4"/>
		<path class="st8" d="M291.5,347.2c0.3,1.7,1.1,5.1,0.7,6.8c-0.6,1.8-1.6,3.4-3,4.6c-1.7,1.2-2.3,0.2-2.4-0.3
			c0.1-1.2,0.4-2.4,0.7-3.6c0.2-0.9-0.2-1.9-0.3-3.4c-0.9,0.1-0.4,2-0.6,3s-1.4,0.7-1.6,0.3c-0.2-0.7-0.3-1.5-0.3-2.2
			c0-0.9,0.1-1.8,0.4-2.7c0.7-2.6,2-3.3,2-3.3C289.5,349,291.4,347.3,291.5,347.2z"/>
		<path class="st16" d="M282.2,338.6c-0.8-3-1.7-6.1-2.8-9c-0.7-1.9-7.8-20.8-9.8-29.5s0.3-10.6,0.3-10.6l0.3,1.7
			c-1.9,4.1,5.7,26,9,33.7c1.7,4.1,3.2,8.2,4.3,12.5C284,339.2,282.6,340.4,282.2,338.6z"/>
		<path class="st18" d="M285.2,309.1c0.1,1.5,0.3,3,0.8,4.4c0.3,1.3,0.7,2.6,1.1,3.9c0.1,0.2,0,0.2,0.1,0.4
			c-0.2,0.7,0.8,3.8,1.3,3.8c0.1,0.6-0.2,0.6-0.6,0.6s-1.8-5.5-2.7-8.4c-0.4-1.5-0.6-3-0.6-4.6c0-1.5,0.2-3.1,0.8-4.5
			C285.1,306.2,285.1,307.6,285.2,309.1z"/>
		<path class="st19" d="M276,335.9l-0.1,4.2c-1.5-0.4-2.9-1-4.2-1.7c-0.7-2.9,0.1-4.3,0.1-4.3C272.9,335.2,276,335.9,276,335.9z"/>
		<path class="st17" d="M282.6,334.4c0,0,1,2.2,0.7,2.8s-1,1.2-1.6-1c0,0-0.1,0-0.1,0.5c0,0,0.3,1.2,1,1.3s1.2-0.8,0.7-2.1
			c-0.2-0.5-0.4-1-0.5-1.5l5.7-3.1V331C288.7,331,283.2,333.8,282.6,334.4z"/>
		<path class="st18" d="M270,299.3c5.1-2.5,4.9,6.2,4.9,6.2C273.9,298.2,270,299.4,270,299.3z"/>
		<polygon class="st18" points="272.9,295.5 271.1,299 270,299.3 272.5,295.4 		"/>
		<path class="st20" d="M273.2,348.5c3.9,2.9,3.7,9.4,3.7,9.4v-2c0.1-2.2-0.4-4.4-1.5-6.3l2.6,0.7l-4.2-2.8l-1.7-7.2L273.2,348.5z"
			/>
		<path class="st8" d="M274.9,296.6c-0.2-0.1-2.9-0.7-3.5-1.6s-3-7.2-2-8.2c0.8-0.9-0.3-1.8-0.5-2.3c-0.1-0.5-0.2-0.9-0.1-1.4
			c0,0-0.3-3.5,0.7-4.4s6.8-8.8,13.1-5.1c1,0.9,1.5,2.3,1.3,3.7c-0.1,0.3,0.2,7.7,0.2,7.7s1.7-0.6,1.9,1.6s-0.4,3.8-1.3,4.5
			c-0.6,0.5-0.9,0.8-1.5,0.8l0.2,1.8"/>
		<path class="st21" d="M276.7,270.8c-2.4-0.9-2.6,1.4-2.6,1.4c-1.1-0.1-2,0.7-2.2,1.7c-2.7,0.4-2.4,2.2-2.4,2.2
			c-1.9,0.6-1.7,1.7-1.7,1.7c-0.3,2.2,1.2,2.1,1.2,2.1c0.1,0.9,0.9,1.5,1.8,1.5c0.2,0,0.4-0.1,0.5-0.2c0.4,0.9,1.3,1.3,2.2,0.9
			c0.1,0,0.1-0.1,0.2-0.1c0.6,0.8,1.7,1,2.4,0.4c0.2-0.1,0.3-0.3,0.5-0.5c0.8,0.2,1.6-0.1,2-0.8l-0.7,1.3c-0.7,1.7,1.6,2.7,1.6,2.7
			c-0.3,1,0.1,2,1,2.5c0.4,0.3,0.3,0.3,0.5,1.4c0.1,0.6,0.7,1.1,1.4,1l0.1-1.6c0-1,0.4-2,1-2.8c1.8-1.1,2.4,1,2.4,1
			c0.6-0.6,0.8-1.4,0.5-2.2c0.7-0.9,0.8-2.1,0.3-3.1c0.5-0.9,0.3-1.9-0.4-2.6c0.3-1-0.2-2-1.1-2.4c0.2-0.6,0.2-1.4,0-2
			c-0.5-0.7-1.3-1.1-2.2-1.1c-0.2-1-1.2-1.7-2.2-1.6c-0.3-0.3-0.3-1-1.6-1.3C278.3,270.2,277.4,270.3,276.7,270.8z"/>
		<path class="st9" d="M269.8,285.7c1.5,1.3,3.3,2.2,5.3,2.4c2.7,0.5,3.8-0.7,3.8-0.7s-0.5,0.5-3,0.3c-1.4-0.3-2.7-0.8-4-1.5
			c-1.1-0.3-2.2-1-3-1.8C269.1,284.9,269.4,285.3,269.8,285.7z"/>
		<path class="st9" d="M276.8,300.8l4.7-5.7c0.3-1.4,0.4-2.8,0.4-4.2c0.3,0.1,0.5,0.6,0.7,0.7c0.3,0.3,0.7,0.4,1.1,0.2v2.1l0.3,0.7
			c-0.9,1.6-4,3.8-4,3.8L276.8,300.8z"/>
		<path class="st9" d="M283.5,288.2c-0.3,0.6,0.5,0.8,0.7,0.6s0.1-2.1,0.4-1.5s-0.2,2.3-0.7,2.4s0.1-0.8-0.5-0.7s-0.6,0.8-0.6,0.8
			c0,0.5,0.5,0.9,1,0.9c0.2,0,0.4-0.1,0.6-0.3c0.7-0.6,1.2-3.7,0.3-4.1s-1.7,1.1-1.7,1.1C283.4,287.3,283.7,287.5,283.5,288.2z"/>
		<path class="st9" d="M272.2,287.2l0.3,3.9l1.2,0.1l0.4,0.5c-0.8,0.3-1.7,0.2-2.4-0.3V287L272.2,287.2z"/>
		<path class="st18" d="M296.2,318.1c-2.5,4.4-8.5,3.3-8.5,3.3s0,0.6,0.4,0.7c6.4,1.1,8.3-2.8,8.3-2.8
			C296.3,318.8,296.2,318.2,296.2,318.1z"/>
		<path class="st18" d="M286.8,317.6l-0.3-0.6c0.8,0.4,1.6,0.6,2.5,0.5c2.3-0.1,4.5-1.1,6.2-2.7c-0.4,0.7-0.9,1.2-1.5,1.7
			c-0.6,0.5-1.4,0.9-2.2,1.1C287.6,318.6,286.8,317.6,286.8,317.6z"/>
		<path class="st18" d="M285.5,296.7c-0.3,1.3-3.8,8-3.8,8s-2-3-3-4.3s-3.8,4.9-3.8,4.9l1.4-3.6c0,0,0.9-1.7,1.8-2.1
			s3.4,3.4,3.4,3.4c0.7-1.5,1.5-2.9,2.4-4.3c1.7-2.9,1.6-4.4,1.6-4.4C285.8,295.1,285.8,295.9,285.5,296.7z"/>
		<path class="st18" d="M284,295.1c-0.1,0.3-0.3,0.6-0.6,0.9l-0.8,0.8l0,0l-3,2.1c-0.5,0.3-1,0.7-1.5,1c-0.5,0.3-0.9,0.7-1.3,1.2
			c0.2-0.6,0.5-1.2,1-1.6l1.3-1.3c1-0.8,2-1.5,3-2.2l0,0l0.7-0.7c0.2-0.3,0.4-0.5,0.6-0.8c0.4-0.6,0.5-1.3,0.5-2
			C284.2,293.3,284.2,294.2,284,295.1z"/>
		<path class="st9" d="M274.4,298.3c0.2-1.4,0.5-1.6,0.5-1.6c1.3,0.3,2.2-0.4,3.5-1.4c1-0.8,1.9-1.8,2.6-2.9c-1.6,5.3-5.9,5-5.9,5.1
			C275.1,297.4,274.7,297.7,274.4,298.3z"/>
		<path class="st18" d="M266.4,310.7c-1.1,0.3-3-1.6-3-1.6c0.6,1.4,2,2.3,3.5,2.4l0.4-15.4C266.6,298.6,266.4,310.7,266.4,310.7z"/>
		<path class="st18" d="M266.6,307.1c-1.2-0.2-2.2-1.2-2.5-2.4c1.4,1.8,2.7,1.6,2.7,1.6L266.6,307.1z"/>
		<path class="st18" d="M271.9,308.5c-1.3-0.3-2.5-0.9-3.4-1.8c-0.5-0.3-0.7-0.8-0.5-1.3c0.9,1.2,2.2,2,3.7,2.4L271.9,308.5z"/>
		<path class="st18" d="M268.5,312.6c0.5,1.3,1.7,2.1,3.1,2C268.5,315.7,268.5,312.7,268.5,312.6z"/>
		<ellipse class="st15" cx="274.2" cy="321.2" rx="0.6" ry="0.9"/>
		<ellipse class="st15" cx="273.6" cy="329.1" rx="0.6" ry="0.9"/>
		<ellipse class="st15" cx="274.9" cy="306.6" rx="0.6" ry="0.9"/>
		<path class="st11" d="M268.1,331.1l-0.3,4.4l1.3,1.1c-0.4-1,0.2-4.4,0.2-4.4L268.1,331.1z"/>
		<polygon class="st11" points="281.1,336.3 281.1,340 279.7,340.2 279.8,336.3 		"/>
		<path class="st9" d="M275.9,297.2c0,0-0.8,2.7,0.5,4.3l-1.5,3.7c0-1.1-0.1-2.2-0.3-3.3c-0.3-1.4-0.3-5,0.4-5.4
			C274.9,296.6,275.4,297.1,275.9,297.2z"/>
		<path class="st9" d="M266.1,340l-0.1,4.3c-0.3,0.1-0.6,0.1-0.8-0.1c0,0,0.8,0.4,0.7-1.9S265.9,339.4,266.1,340z"/>
		<path class="st9" d="M295,320.8c0,0-1.7,1.7-6.4,1.3c0.2,3,0.2,5.9,0.1,8.9c0,0,0.8-6.5,0.6-7.3c1.6,0.3,3.3,0.1,4.8-0.4
			c0,0,0.8,6.2,0.4,8.9C294.4,332.2,295.6,325.2,295,320.8z"/>
		<path class="st9" d="M264.4,310.6l0.2,1.2c1,0.4,1.7,1.4,1.6,2.5c-0.1,1.9,0.8,17.2,0.8,17.2l0.5-0.1l0.2-0.9
			c-0.4-1.6-0.6-3.2-0.7-4.8c0-2.1-0.6-12.4-0.3-14.1L264.4,310.6z"/>
		<path class="st22" d="M266.6,311.2c0,0-0.3,13.2,1,19.2c3.3,4.4,8.7,6.6,14.1,5.9c0,0-10.4-0.3-13.6-6.2c-0.4-2.2-0.7-4.5-0.9-6.8
			c-0.4-5.1-0.4-12-0.4-15.2L266.6,311.2z"/>
		<path class="st23" d="M272.4,393.7l-3.4,4.1C270.5,396.7,271.6,395.3,272.4,393.7z"/>
		<path class="st23" d="M271,394.3l1.7,0.9C272,395.4,271.2,395,271,394.3z"/>
		<path class="st23" d="M269.9,395.3l1.7,0.9C270.9,396.4,270.2,396,269.9,395.3z"/>
		<path class="st23" d="M268.8,396.5l1.7,0.9C269.8,397.6,269,397.2,268.8,396.5z"/>
		<path class="st23" d="M286,400.3l-3.4,4.1C284,403.3,285.2,401.9,286,400.3z"/>
		<path class="st23" d="M284.5,401l1.7,0.9C286.2,401.8,284.9,402.1,284.5,401z"/>
		<path class="st23" d="M283.5,402l1.7,0.9C284.5,403,283.8,402.7,283.5,402z"/>
		<path class="st23" d="M282.3,403.1l1.7,0.9C283.3,404.2,282.6,403.8,282.3,403.1z"/>
		<path class="st23" d="M285.1,407.2c0,0,0.5-0.5-0.7-1.4c-2.8-1.9-4.1-1.6-4.1-1.6s-1.8,1.8-1.2,2.9c0,0,1.6,2.2,3.8,1.4
			L285.1,407.2z"/>
		<path class="st23" d="M271.7,400.1c0,0,0.2-0.3-1-1.1c-2.8-1.9-4.1-1.6-4.1-1.6s-1.8,1.8-1.2,2.9c0,0,2,2.2,3.8,1.4L271.7,400.1z"
			/>
		<path class="st23" d="M292.3,399c-2.2,2.9-4.9,5.6-7.8,7.8l0.1,0.8c0,0,5.4-3.8,7.7-7.4C292.4,399.8,292.4,399.4,292.3,399z"/>
		<path class="st23" d="M278.5,392.7c0,0-1.7,3-7.8,7.4l-0.1,0.8c0,0,5.6-3.5,7.9-7.1C278.6,393.8,278.7,393.5,278.5,392.7z"/>
		<path class="st20" d="M273.2,348.5c0,0-4.4-2.4-4.3-4l4.5,3.2L273.2,348.5z"/>
		<path class="st24" d="M174.3,412c-3.8,4.6-6.3,19.1-6.3,19.1c1-1.6,5.2-2.3,5.2-2.3C173,425.8,174.2,412,174.3,412z"/>
		<path class="st25" d="M174.4,353.6c0,0-2.4-1.3-4,2.1s-0.1,10.5,1,12.7s1.7,4.2,1.7,4.2l3-2c0.7-0.6,1.1-1.5,1.2-2.4
			c1.5-1.9,0.8-6.2,0.8-6.2L174.4,353.6z"/>
		<path class="st26" d="M171.1,458.3c-0.4,0.8-0.6,1.6-0.6,2.5c0,0.5,0.5,0.8,0.8,1.2c0.9,1.2,5,4.1,5,4.1c1.2-1.2,2.8-1.8,4.5-1.7
			l-3.5-5.1L171.1,458.3z"/>
		<path class="st26" d="M187.1,451.8c-0.1,0.2-0.6,1.9-0.7,2.1c-0.5,0.9-0.2,2.1,0.5,2.8l5.2,4.4l4.6-1.9c-1-1.7-4.2-5.7-4.2-5.7
			L187.1,451.8z"/>
		<path class="st26" d="M195.9,405.9l1,9.7c1.6-0.7,2.1-1,2.5-3.7s-0.5-7.9-0.5-7.9L195.9,405.9z"/>
		<path class="st27" d="M171.1,458.1c0.1-7,0-8.1,0.5-13.7c0.2-1.6,0.4-3,0.7-5.4c0.5-6-0.9-14.4-0.9-18.1c0-5.1,2-8.5,2.3-8.6
			c16.5-2.6,23,14.8,23.1,14.8c-0.3,4.9-4.1,26.3-4.1,26.3c-1.1,2.3-4.5,1.1-4.5,1.1c-1.2-0.7-1.8-2-1.6-3.3c0,0,0.7-10.7,0.7-14.5
			c0.1-1.9-0.2-3.9-0.8-5.7c0,0-3.9-2.3-4.4-0.3c-0.2,0.9-0.2,3.7-1,7.4c-0.9,4.6-2.5,10.4-2.7,13c-0.2,2.8-0.6,5.5-1.2,8.2
			c-0.9,0.9-2.2,1.3-3.5,1.1C172.4,460.1,171.1,459,171.1,458.1z"/>
		<path class="st28" d="M196.5,430c0,0-5.4,3.3-9.3,4l0.1,1.4c0,0,5.3,0.1,8.8-2.7L196.5,430z"/>
		<path class="st28" d="M174.6,414.8c0,0,2.5,10.8,0.4,20.6c0,0,3.9,1.8,6.3,1.1c0.3-1.8,0.5-3.7,0.6-5.5
			C181.9,430,176.8,413,174.6,414.8z"/>
		<path class="st29" d="M167.8,414.4c-0.9,1.8-2.3,10.2-2.5,14.6s3.2,5.1,3.2,5.1c-0.2-1.5-0.2-2.9,0.1-4.4
			c0.6-6.9,5.1-14.7,5.1-14.7l1.2-7.7l1,8.5c0.6,3.3,0.9,6.6,0.8,10c-0.2,3.2-0.6,6.4-1.3,9.5c2.5,0.5,10.2-0.3,16.6-2.6
			s7.4-4.8,7.4-4.8c0.1-1.9,0-3.7-0.2-5.6c-0.3-2.4-2.4-16.4-2.4-16.4c3-1.2,3.4-2.5,3.3-4.6s-1.3-10-1.6-16.2s-1.6-13.7-2.9-17.3
			s-3.9-3.3-3.9-3.3c-0.1,1.6-0.6,3.2-1.2,4.7c1.1,3.2,1.7,6.5,1.7,9.8c-0.9,2.9-4.4,3.2-6.4,3.3s-4.1-2.9-5.7-6.7
			c-1-2.3-3.1-3.9-5.6-4.3c-2.8,1.4-4.4,5.3-5.8,8.8s-3.2,15-3.5,19.9C165.1,404.8,167.9,414.4,167.8,414.4z M172.8,400.2
			c0,0,0.6-7.9,2.1-10.7c0.8,1.6,0.9,3.4,0.3,5.1C174.5,396.5,173.7,398.4,172.8,400.2L172.8,400.2z"/>
		<path class="st30" d="M174.4,358.1c-1.3,0-1.8-1.3-1.9-3.8s1.5-2,1.5-2L174.4,358.1z"/>
		<path class="st26" d="M190.5,368.7c0.9,2.1,2.3,8.8,1.8,10.5s-4.4,3.7-7,3s-4.6-5.2-5.7-7.5s-5.1-3.6-5.1-3.6
			c0.3-0.4,1.7-1,3.1-2.2s0.7-4.4,0.7-4.4c0.4,0.5,1.1,0.8,1.7,0.6C182.3,367.4,190.6,368.6,190.5,368.7z"/>
		<path class="st26" d="M178.6,350.1c-5.7,2.6-1.2,12.5-1.2,12.5c-0.1,2.4,1.1,3.7,1.7,3.6c0,0,4.6,5.1,7.9,5.1s4.6-2.6,5.5-8.5
			c0.1-0.5-0.2-1.3-0.1-1.8c0.2-0.6,0.3-1.1,0.4-1.7c0.1-2.2-0.1-4.3-0.7-6.4C189.2,346.1,184.2,347.5,178.6,350.1z"/>
		<path class="st31" d="M169.5,400.2l3,12.7c0,0,5.5,5.1,6.2,5.1s5.1-2.4,5.5-3.5s-1.7-10.1-2.1-11.4s-10-7.4-10-7.4L169.5,400.2z"
			/>
		<path class="st32" d="M192.6,350.8c-0.5-1.1-1.2-2-2.2-2.7c-1.9-1.7-4.3-2.9-6.9-3.3c-2.5-0.2-8.4,2.1-9.4,4.5
			c-0.3,1.7-0.5,3.5-0.4,5.2c0.4,2-0.3,2.4,0.5,5.1c0.3,1,0.7,2,1.2,2.9c0.7,0.5,1.6,0.6,2.3,0.2c0.7,0,1.3-0.3,1.8-0.8
			c0.3,0.8-0.6,2.2,1,3c0.6,0.4,1.3,0.2,1.7-0.3c0.1-0.2,0.2-0.4,0.2-0.6c-0.7,1.3-2.3,0.6-1.9-1s2-1.2,2.5-3.7s1-2.4,4.8-3.2
			s3.9-3.4,3.9-3.4c0.3,0.5,0.5,1,0.6,1.6C193.1,353.3,193.2,351.9,192.6,350.8z"/>
		<path class="st33" d="M192.6,360.1c-2.3,1.5-5.5,2.9-6.1,2.6c-0.8,0.1-1.6,0-2.4-0.1c0.3-0.5,1.1-0.3,3-0.5s5.7-2.5,5.7-2.5
			L192.6,360.1z"/>
		<path class="st33" d="M188.7,366c0.7,0.3,1.3-0.2,1.1-0.6c-0.4-0.8-0.5-1.7-0.4-2.6c0.2-0.6,0.4-0.3,0.4-0.3
			c-0.2,0.9-0.1,1.9,0.3,2.8c0.6,1.7-1.8,1.7-2,0.8C188.2,365.6,188.7,366,188.7,366z"/>
		<path class="st33" d="M190.5,370.9c-0.8,1.2-3.2,1.4-3.2,1.4s-6.1,0.2-6.7-5.6c1,2,2.8,3.5,4.9,4.1c3.8,0.9,5.2-1.6,5.2-1.6
			l0.4,1.1c0,0,2.2,8.3,1.1,9.5C192.2,376.8,191.6,373.7,190.5,370.9z"/>
		<path class="st34" d="M194.9,374.9c1.3,1.4,2.1,3.2,2.5,5.1c0.5,3-1.1,5.9-2.6,8.2s-1.2,3.5,0.7,8.7c1.1,2.9,1.6,5.9,1.4,9
			c-0.4-8.2-3.5-9-3.7-12.9s1-4.7,3-9s-1.5-7.8-1.8-9.1c-0.1-1.3,0-2.6,0.3-3.9C194.6,372.3,194.7,373.6,194.9,374.9z"/>
		<path class="st34" d="M180.8,389.4c3.7,1.9,7.4-0.3,7.4-0.3C184.5,393.2,180.8,389.4,180.8,389.4z"/>
		<path class="st33" d="M197.9,413.3l-0.1-1.2c0,0,0.5-1.3,0.6-1.6s0.1-3.1,0.1-3.1C199.5,410.1,197.8,413.3,197.9,413.3z"/>
		<path class="st33" d="M179,368.8c-0.4,1.2-1.4,2.1-2.6,2.3c3.5,1.3,4.4,4.4,5.7,7c0.9,1.7,2.2,3.1,3.8,4.2
			c-2.7,0.1-4.6-4.3-4.6-4.3c-0.8-1.5-1.6-3-2.6-4.4c-0.9-1.2-4.1-2.4-4.1-2.4l3.1-2.2c0.9-1,1.1-2.4,0.5-3.6c1,1.1,1.8,0.2,1.8,0.2
			C180.9,367.6,179.4,366.9,179,368.8z"/>
		<path class="st8" d="M168.8,416c-0.5,2.1-0.6,4.3-0.3,6.5c0.3,2,1.3,2.4,2,3.1s1.5,1.3,2.1,0.3c0.3-0.4-0.1-2.5-0.1-3.9
			c0-0.9,0.1-1.8,0.3-2.6c0.2,0.9,0,4.7,1.1,4.4s0.8-1.4,0.9-4c0-1.7-0.2-3.3-0.7-4.9C172.1,417.3,168.8,416,168.8,416z"/>
		<path class="st35" d="M192,459.6c-2.9-1.2-5.7-5.2-5.7-5.2c-0.3,0.5-0.4,1-0.3,1.5c2,2.6,6.2,6.2,9.5,7.3s3.3-0.9,3.3-0.9
			c-0.4-1.7-1.3-3.3-2.6-4.5C194.6,457.7,193,458.3,192,459.6z"/>
		<path class="st35" d="M176.3,465.4c-2.9-1.2-5.7-5-5.7-5c-0.3,0.4-0.4,0.8-0.4,1.3c1,1.6,6.3,6.1,9.6,7.2s3.3-0.9,3.3-0.9
			c-0.3-1.7-1.3-3.2-2.6-4.3C178.9,463.4,177.3,464.1,176.3,465.4z"/>
		<path class="st29" d="M165.3,400.9c-0.3,2.9,2,10.7,2,10.7l1.1,4.3c1.9,0.9,4.2,0.3,5.5-1.3c-1.4-5.2-1-19.4-1-19.4L165.3,400.9z"
			/>
		<polygon class="st36" points="179.3,404.6 173,399.7 172.8,400.2 178.9,404.8 178.3,417.8 178.7,418.1 179.2,404.9 		"/>
		<path class="st36" d="M178.9,402.6l-5.7-4.3C174.8,400.1,176.7,401.5,178.9,402.6z"/>
		<path class="st36" d="M180.4,407c-0.2-1.6-1.5-13.8-1.5-13.8c-0.9-15.5-2.4-17.2-2.4-17.2c-0.6-1.8-2.5-2.9-4.4-2.6
			c0.2-0.8,0.9-1.4,1.7-1.6c3.3-0.8,5,4.9,4.9,4.5c1.7,4.2,3.2,30.5,3.2,30.5C181.9,408.5,180.6,408.6,180.4,407z"/>
		<path class="st34" d="M175,387.4l0.3-1.1c1.2-0.7,2.3-3.4,2.3-3.4C177.5,384.7,176.5,386.4,175,387.4z"/>
		<path class="st34" d="M175.1,385.2c-1.5,3-2.6,11.2-3,14.8s1.9,14.5,1.9,14.5c-0.8,2.1-5.5,1.3-5.5,1.3c5.1,1.8,6.2-1,6.2-1
			s-1.4-9.4-1.8-11.8s1.3-13.8,3.1-17.8s0.9-6.5,0.9-6.5C176.7,381,176.1,383.2,175.1,385.2z"/>
		<polygon class="st37" points="190,381.5 189.2,379.4 189.2,381.8 		"/>
		<path class="st37" d="M178,362.7c0,0-0.2,2.1,0.5,2.3s1.2-0.5,0.9-0.8s-0.9-0.6-0.3-1.5S178,362.7,178,362.7z"/>
		<path class="st36" d="M178.9,404.8l1-1.4l2.2-0.2c0,0,2.7,9.9,2,11.7c-1.6,1.4-3.4,2.5-5.4,3.3l-0.2-0.8c0,0,3.5-0.9,5.3-3.1
			c-0.3-3.6-0.9-7.2-1.9-10.7l-1.6,0.1l-1.4,1.7"/>
		<path class="st38" d="M189.3,371.8c0,0,1.1,3.3,0,4.5s-3,1.6-6-1.4c-1.9-1.9-3.9-3.7-6.1-5.3c0,0-0.2-1.2,1.1,0s6.6,6.6,7.9,6.9
			s4,0.7,2.5-4.5L189.3,371.8z"/>
		<circle class="st38" cx="188.4" cy="377.1" r="0.7"/>
		<circle class="st38" cx="179.2" cy="365.8" r="0.5"/>
		<path class="st33" d="M172.9,418.5c-0.1,0.9-0.2,1.7-0.4,2.6c-0.1,1.5,0,3,0.3,4.5c0,0-0.1-5,0.3-5.5v1.6
			C173.1,421.8,173.8,419.6,172.9,418.5z"/>
		<path class="st33" d="M174.3,415.3c0,0-0.9,1.8-5.5,0.7c-0.5,1.7-0.6,3.5-0.4,5.2c0,0,0.5-3.8,2-3.6s4-1.6,4.3,0.8l0.2,1.6
			C175.1,418.4,174.9,416.8,174.3,415.3z"/>
		<path class="st33" d="M199.1,404.7c-0.7,0.5-1.4,0.9-2.2,1.2l0.4,2.6c0,0,1-2.2,1.6-1.4c0.5,0.8,0.7,1.7,0.7,2.6
			C199.6,408,199.5,406.3,199.1,404.7z"/>
		<path class="st33" d="M192.7,453.4c0,0-0.5,2-4.1,1.2c0,0-1.5-0.5-1.7-1.7c-0.2,0.5-0.4,1.1-0.6,1.6c0,0,0.2-0.8,0.9-0.2
			c1.7,1.7,4.4,1.8,6.3,0.3L192.7,453.4z"/>
		<path class="st33" d="M177.3,459.3c0,0-2.4,2.3-4.9,0.5c0,0-1.3-0.7-1.3-1.5s-0.4,1-0.4,1c1.9,2.2,4.9,2.8,7.5,1.6L177.3,459.3z"
			/>
		<path class="st34" d="M195.5,372.3l-0.9,2.8l0.7,0.9C195.5,374.8,195.5,373.5,195.5,372.3z"/>
		<path class="st32" d="M177.4,362.7c-0.2,1.1,0.1,2.2,0.8,3c0.1,0.4,0.2,0.7,0.3,1.1c0,0-1.8,0.7-4-6.3L177.4,362.7z"/>
		<path class="st39" d="M191.4,350.2c0.9,1.9,0.1,4.2-1.8,5.1c-0.1,0.1-0.3,0.1-0.4,0.2C190.9,354.3,191.8,352.2,191.4,350.2z"/>
		<path class="st39" d="M180.4,359.8c0,0-0.4,3-3,2.7C177.3,362.5,179.9,361.5,180.4,359.8z"/>
		<path class="st40" d="M154,356.1c0,0,3.8,1.9,5.9,3.3c0,0,1.3,0.6,1,1.7c0,0-0.3,2.1-3.2,1.7c-1.3-0.2-3.3-0.1-7.8-3.4
			c-0.9-0.5-1.5-1.4-1.6-2.4C148.4,355.3,152.1,355.2,154,356.1"/>
		<path class="st41" d="M149.6,359.2c0,0,4.4,4,9.2,3.7c0,0-6.4-1.4-7.5-3.6c-0.8-1.2,0.2-1.6,0.2-1.6l-1-0.9l-0.7-0.2l-0.5,0.2
			C149.3,357.6,149.4,358.4,149.6,359.2z"/>
		<path class="st40" d="M144.8,356.9l-0.1,0.7c0,0-0.8,7.2,0.1,9c0.5,1.1,1.7,1.8,2.9,1.7c0.8,0,3.1-1.4,2.5-6
			c-0.2-1.9-0.5-3.8-0.9-5.6L144.8,356.9z"/>
		<path class="st41" d="M144.7,357.7c1.6,0.6,3.3,0.4,4.7-0.5l0.3,1.2c0,0-0.3,2.3-5.1,0.6L144.7,357.7z"/>
		<path class="st42" d="M145.8,357.6c-0.2,1.3-0.2,2.7,0,4c0.3,1,1.7,2.5,2.7,0.4c0.8-1.7-0.2-5.3-0.2-5.3L145.8,357.6z"/>
		<path class="st42" d="M153.2,355c0,0,0.3,0.9,2.2,1.9c1.2,0.6,2,1.3,2,2.1s-3.6,1-7-2.4L153.2,355z"/>
		<path class="st43" d="M149.5,356.6c0,0,2.8,1.2,3.7-1.5c0,0,0.3-14.1,2.5-24.3s4.6-25.9,4.4-27.4l-11.5,4.3L149.5,356.6z"/>
		<path class="st42" d="M166.2,286.5c0.4,0.4,0.9,0.7,1.5,0.8c1.2,0.1,2.2,0.7,3,1.6c0.9,1,1.1,1.7,2,2.2s0.7,0.9,0.3,1.3
			s-2.1,0.1-2.7-1.4c0.2,0.9,0.6,1.7,1.1,2.4c0.7,0.8,1.7,2.4,1.2,3.4s-2.1,1.1-3.9,0.5s-4.5-1.9-5.3-5.9c0-0.7-0.3-1.4-0.8-2
			C162.6,289.5,162.8,286.7,166.2,286.5z"/>
		<path class="st43" d="M135.9,307.1c0,0,3.5,25,7.9,48.2c0,0,0.1,2.6,2,2.8c2.6,0.3,4.4-1.2,4.2-2.6c0,0-0.4-35.7,1.2-46.7
			C151.3,308.8,144.3,299.6,135.9,307.1z"/>
		<path class="st44" d="M137.7,271.9l-2.7,26.7c-0.9,0.1-1.6,1-1.6,1.9c0,0,3.2-26,2.4-30.7L137.7,271.9z"/>
		<path class="st45" d="M166.3,285.8c0,0-3.3-8.4-4.1-10.2s-0.7-8.2-0.7-8.2c-1-15.9-6.1-15.9-6.1-15.9c-0.5,2.5-3.6,4.9-3.6,4.9
			c4.4,7.3,1,9.8,1,9.8c0.5,1.7-0.3,6.4-0.3,6.4c-0.7-3.9-2.1-5.1-2.1-5.1c-3.1,0-4.9-3.7-4.9-3.7c-2.7-5.1-5.1-6.1-5.1-6.1
			c-1.8,0.5-3.5,1.3-4.9,2.5c-4.9,5-6.5,20.9-6.4,24.2s4.3,10.3,4.3,10.3c-0.6,2.1-0.6,4.3-0.1,6.4l11.2,9.6
			c6.3,0.9,12.7-1.5,16.8-6.4l0.3-3.4c0.1-1.8,0-3.6-0.4-5.3c-0.6-2.9-3-12.9-3-12.9l4.3,7.2c0.7-3.1,4.1-3.2,4.1-3.2
			C166.6,286.4,166.5,286.1,166.3,285.8z M138,284.6l-1.1,3.1l-1.3-5.4c0.5-1.9,1.1-3.7,1.8-5.5C138.4,279.3,138.6,282,138,284.6z"
			/>
		<path class="st42" d="M143.2,253c0,0,0.6,2.7-2.4,4.8c1.9,1.9,3.6,4.1,5,6.4c2.8,4.4,4.7,3.3,4.7,3.3l2.1,5.1l0.5-6.4
			c0,0,3-2.3-1.3-9.8C148.6,256.5,145.4,255.3,143.2,253z"/>
		<path class="st42" d="M141,250.1c0,0-2,5.3,2.2,3.1c0,0,4,5.3,9.4,3.1c0,0,2.6-1.1,3.3-7.6c0,0,1.4-8.6-0.6-10.5
			c0,0-10.9-7-13.9-0.3C139.5,241.7,139.3,246.2,141,250.1z"/>
		<path class="st21" d="M142.6,232.7c0,0-7,0.7-7,10.9c-0.1,1.8-0.5,3.6-1.1,5.3c-0.9,2.4-0.7,7.8,7.6,7.8c1.1-0.9,1.5-2.4,1.1-3.7
			c0,0-1.7,0.7-1.7-1.7c1.2-0.8,2.3-1.8,3.2-2.9c0.6-0.3,1.6-0.6,2.4-4c0,0,6.2,0.9,8.3-4.1c0.3,1.9,0.5,3.8,0.4,5.7
			c0,0.3-0.6,1.6-0.6,2c-0.1,1.2,0.5,2.1,0.2,3.3c0,0,2,1,2.2-5.1s-1.6-7.4-3.5-10C154.1,236,148.7,229.4,142.6,232.7z"/>
		<path class="st46" d="M143.9,278.6c0,0,4.5,0.5,7.1-1.7C150.8,277.1,149.2,280.2,143.9,278.6z"/>
		<path class="st47" d="M153.1,266.3c1.5-4-1.6-8.7-1.6-8.7c-1.3,0-2.4-0.1-2.4-0.1c-1.2-0.2-2.3-0.6-3.3-1.3
			c-2.5-1.7-2.4-3-2.4-3.8c0,0,2.5,4,6.2,4.3c0.8,0.1,1.5,0.1,2.3,0C151.9,256.6,156.1,263.1,153.1,266.3"/>
		<path class="st47" d="M155.9,246.1c0,0-4.7,3.7-8,2.6c0,0,1,1.8,5.1-0.3l2.6-1.6L155.9,246.1z"/>
		<path class="st43" d="M137.4,284c0.5,0.9,1.1,1.7,1.8,2.4c1.4,1.5,6,2.4,8.9,1.5c-0.7-2.5-1-5.2-0.9-7.8c0.1-1.8,0.2-3.5,0.2-4.8
			c0.3-3.1,0-6.2-1-9.2c0,0-0.6,0-2.5-3.5c-2-3.7-2.9-4.6-4.2-4.9c0,0-2.3,0.5-2.9,1.5c0,0,4.5,1.9,4.4,8.9
			c-0.1,7.3-3.7,9.3-3.7,9.3c0,0.8,0.1,1.7,0.3,2.5C138.3,281.6,137.4,281.6,137.4,284z"/>
		<path class="st44" d="M135.6,260.1c0,0,4.2-0.8,5.7,10.4l1.6,27.4l0.7,4.5l1.1,0.8c0,0-1-9.6-1.2-16.2s-0.8-18.8-1.5-21.1
			s-1.6-5.4-5.1-6.8c-0.6-0.1-1.1,0.2-1.3,0.8C135.6,260,135.6,260,135.6,260.1z"/>
		<path class="st46" d="M139.6,267.2c0.1,3.3-0.6,6.6-2.2,9.6C137.4,276.8,141.5,270.9,139.6,267.2z"/>
		<path class="st46" d="M139.3,272.2c0.7-0.5,1.2-1.3,1.3-2.2c0.2,1.2-0.4,2.5-1.5,3.1L139.3,272.2z"/>
		<path class="st43" d="M153,256.1c0,0,3.7,5.1,2.9,19.1c0,0,0,4.3-0.3,7c-0.2,1.7-0.1,3.4,0.2,5c1.3-0.2,2.5-0.9,3.3-2
			c0.2-0.3,0.4-0.5,0.7-0.7c0,0-0.6-11.6-0.3-12.6c0.6-1.2,0.9-2.5,0.9-3.9c-0.2-1.6-2.3-4.5-3.3-7.4s-2.6-6.5-2.6-6.5
			C154.2,254.9,153.7,255.6,153,256.1z"/>
		<path class="st21" d="M146.5,246.3c0,0-1.7,5.1-4.9,5L146.5,246.3z"/>
		<path class="st48" d="M159.5,272c-0.7,1.1-1.6,2-2.6,2.7c1-0.4,1.9-1,2.6-1.8V272z"/>
		<polygon class="st46" points="150.3,267.6 152.6,272.6 153.4,266 153.1,266.2 152.5,271.6 150.5,267.5 		"/>
		<path class="st44" d="M133.6,294.8l1.1,1.5l-0.1,2.2c0,0-1.2,0.4-1.2,1.2C133.3,298.1,133.4,296.4,133.6,294.8z"/>
		<path class="st46" d="M136.9,287.7l2.8,6.7l1.3,1.8c-1,1.5-2.6,2.6-4.4,3c0,0-2.2-3.4-3-4.6l3.1,4c1.4-0.3,2.7-1.1,3.6-2.3l-1-1.7
			c-1.2,1-2.6,1.7-4.1,1.9c1.3-0.6,2.7-1.3,3.9-2.1C139.1,294.3,137,289.8,136.9,287.7z"/>
		<path class="st44" d="M133.3,301c0,0-0.1,6.6,0.9,8.5c0,0,1.2,1.9,6.7,3.9c1,0.5,2,0.7,3.1,0.7c1-0.1,1.8-0.8,2.1-1.8
			c0,0,0-6.2-0.3-6.9c0,0-0.3-0.9-2-1.2S133.2,298.2,133.3,301z"/>
		<path class="st49" d="M135,298.4c0,0-1.6-0.1-1.7,2.1c0,1.5,0.2,2.9,0.7,4.3c0,0,2.6,2.8,4.6,3.6s4.3,1.2,5.2,0.5
			c0.2-0.4,0.2-0.9,0.2-1.4c0-0.4,0.4-0.8,0.8-0.9c0,0,0.9-0.1,0.9-0.6l0.1-0.7C145.8,305.3,137.2,299.4,135,298.4z"/>
		<path class="st50" d="M133.6,300.8c0,0,9.1,5.8,10.3,6.2C144,306.9,137.7,304.3,133.6,300.8z"/>
		
			<ellipse transform="matrix(0.9328 -0.3603 0.3603 0.9328 -100.9427 70.3102)" class="st51" cx="138.1" cy="305.9" rx="0.6" ry="0.8"/>
		<path class="st50" d="M133.3,304.1c2.4,3.2,6.3,5.1,10.3,5c0,0-0.1-2,1.2-2.5c-0.7,0.7-1.1,1.7-0.9,2.7
			C139.7,309.6,135.6,307.6,133.3,304.1z"/>
		<path class="st43" d="M151.5,310.2c0,0-0.1,16.8-1.2,24.1c0,0,0.1,4.1,0.1,7.2s-0.4,15-0.4,15l-0.3,0.5c0,0,0.4-13.1,0.1-15.6
			c-0.2-2.4-0.2-4.9-0.1-7.3c0.1-1.1,0.9-22.2,1.1-23.7L151.5,310.2z"/>
		<path class="st46" d="M165.4,284.5c-1.9,0.1-3.5,1.4-3.9,3.3c-0.1-1.8,1.3-3.3,3.1-3.4C164.9,284.4,165.1,284.4,165.4,284.5z"/>
		<path class="st42" d="M140.7,296.5c0.4,0.5,1.1,0.8,1.7,0.8c0.9,0,1.8,0.9,2.5,2s1.2,1.3,1.3,1.7s-0.2,0.9-1.3,0.5
			c-0.7-0.2-1.3-0.5-1.9-0.9c0.6,0.6,1.1,1.3,1.5,2.1c0.5,1.2,1.7,1.1,2.1,2c0.2,0.5-0.1,1.1-0.6,1.3c-0.1,0-0.3,0.1-0.5,0
			c-0.8,0.4-1.8,0.5-2.7,0.4c0,0-3.1-0.7-4.7-4.9c-0.2-0.9-0.5-1.8-0.9-2.6C138.6,298.5,139.8,297.7,140.7,296.5z"/>
		<path class="st52" d="M159.9,305.8c0,0-3.8,4.8-13.8,4.9v1.7c4.9-0.3,9.7-2,13.6-5L159.9,305.8z"/>
		<path class="st47" d="M153.4,248.7c0,0,0.7,2.8,0.1,4.4c-0.2,0.4-0.7,0.7-1.2,0.6c0,0,1-0.3,1.1-2.1c0-0.9-0.1-1.8-0.4-2.7
			L153.4,248.7z"/>
		<path class="st53" d="M141.5,251.3c0,0,0,2.3,1.8,1.7c0,0,0.5,2.4-1.1,3.7c-1.2,0.1-2.4,0-3.6-0.4c0,0,4.3,0.7,4.1-1.8l-0.1-0.9
			C142.6,253.6,141.3,253.5,141.5,251.3z"/>
		<circle class="st54" cx="142.7" cy="252.7" r="0.5"/>
		<path class="st54" d="M143.1,254c0,0.3-0.2,0.5-0.5,0.5s-0.5-0.2-0.5-0.5c0-0.3,0.2-0.9,0.5-0.9S143.1,253.8,143.1,254z"/>
		<path class="st47" d="M143.3,253c0,0,0.9,2.5-2.4,4.8c1.3,1.3,2.4,2.7,3.5,4.2c0,0-2.2-3.3-1.3-4.4c0.6-0.9,1.1-1.9,1.3-2.9
			L143.3,253z"/>
		<path class="st47" d="M144.4,262c0,0,3.5,6.3,6.1,5.4l2,4.1l0.6-5.3l-0.8,3.7c-0.1-1.3-0.5-2.5-1-3.7l0.3,3l-1.1-2.2
			c0,0-2.6,0.9-7.2-6.8L144.4,262z"/>
		<polygon class="st47" points="151.2,257.1 150.9,259.6 151.6,258.6 151.5,257 		"/>
		<path class="st54" d="M142.2,256.7c0,0,3.8,6,8.5,6c0,0,2.2,0.1,0.9-4.6c0,0,2.2,4.4-0.4,5.1C151.1,263.3,146.7,264.8,142.2,256.7
			z"/>
		<path class="st54" d="M150.4,263.3c0,0,1.2,1.2,1.3-0.4L150.4,263.3z"/>
		<polygon class="st46" points="150.2,277.9 147.1,281 147.3,278.9 		"/>
		<path class="st46" d="M138.2,275.3l0.2,1.4l-0.8,0.6l-0.2-0.6C137.8,276.3,138,275.8,138.2,275.3z"/>
		<path class="st46" d="M129.2,284.9c0,0,2.6,8.1,5.8,11.9l2.3-0.9l-2,0.5C132.8,292.8,130.7,289,129.2,284.9z"/>
		<path class="st46" d="M135.5,282.5c-0.3-1-1.1-1.8-2.1-2.1C133.4,280.4,136.1,280,135.5,282.5z"/>
		<path class="st46" d="M153.8,274.4l-2.4,5.7C151.4,280.1,153.2,278.4,153.8,274.4z"/>
		
			<ellipse transform="matrix(0.8333 -0.5528 0.5528 0.8333 -123.4254 127.8057)" class="st43" cx="150.2" cy="268.6" rx="0.6" ry="0.3"/>
		
			<ellipse transform="matrix(0.8298 -0.558 0.558 0.8298 -126.4579 131.8268)" class="st43" cx="152.9" cy="273.2" rx="0.6" ry="0.3"/>
		<path class="st52" d="M151.5,310.2c0,0-0.7,18.1-1.4,24.8c0,0-0.2,20.1-0.4,21.1c0,0-1.8,3.2-5.4,0.7c0.5,1.2,1.8,1.8,3,1.4
			c1.2,0,2.3-0.6,2.8-1.7l0.4-21.8l3.2-25L151.5,310.2z"/>
		<path class="st47" d="M142.9,300c0,0-0.1,0.2,0.4,0.8s1.1,2.1,1.6,2.7s2.1,0.5,1.7,1.8c0,0,0.4-0.6-1.6-1.4
			C143.7,303.1,143.4,301.1,142.9,300z"/>
		<path class="st47" d="M170.3,291c-0.2-0.7-1-1-1.7-0.8c0,0-0.1,0-0.1,0.1c-0.9,0.3-1.8,0.2-2.6-0.3c0,0,0.4,1.2,2.4,0.9
			C168.9,290.4,169.7,290.5,170.3,291z"/>
		<path class="st47" d="M166.2,286.5c0,0-2.9,0.6-3.6,3c0.4,0.6,0.7,1.3,0.8,2c0.3,1.4,1.4,4.5,4.5,5.6c-2.2-1.3-3.7-3.5-4.1-6.1
			c-0.7-4.3,3.6-3.7,3.6-3.7L166.2,286.5z"/>
		<path class="st47" d="M169.7,292.8l-2.8,2C166.9,294.8,168,292.9,169.7,292.8z"/>
		<polygon class="st48" points="147.3,278.9 143.7,280.3 144.5,281.4 144.6,282.7 147.1,281 		"/>
		<path class="st47" d="M145.7,359.3c1,0.3,2.1,0.3,3.1,0l-0.2-1.5c0,0-0.7,0.5-2.8,0.3L145.7,359.3z"/>
		<path class="st47" d="M140.7,296.5c-0.8,1.2-2.1,2.1-3.5,2.4c0.3,0.8,0.6,1.7,0.9,2.6c0.5,1.4,1.3,2.6,2.4,3.5c0,0-2.6-3.4-2-4.9
			c0.6-1.2,1.7-1.9,3-2c0.6,0,1.2-0.1,1.8-0.2C142.5,297.4,141.6,296.9,140.7,296.5z"/>
		<path class="st47" d="M150.5,356.9l1,0.9c0,0,3-0.5,1.7-2.7C152.8,356.2,151.7,357,150.5,356.9z"/>
		<path class="st42" d="M342.2,274.7l0.5,10.8c3.4,0,2.6-5.1,2.6-5.1s-0.2,1.4,1.6,1.3s0.9-0.9,0.9-0.9c-0.6-1.2-0.7-3.3-1-4.6
			c-0.3-1-0.7-2-1.2-3C344.6,273.9,343.4,274.4,342.2,274.7z"/>
		<path class="st55" d="M341.9,245.3c0.1,1.7-0.1,3.3,0,5s0.2,3.3,0.3,5s0.2,3.2,0.3,4.9c0.2,1.7,0.3,3.3,0.3,5l0.3,5
			c0.1,1.7,0.2,3.3,0.2,5c-0.3-1.7-0.4-3.3-0.6-5l-0.5-5c-0.2-1.7-0.3-3.3-0.4-5s-0.3-3.3-0.4-5s-0.2-3.3-0.2-5s0.2-3.3,0.2-5
			s0-3.3,0-5s-0.1-3.3-0.1-5C341.7,238.6,341.9,241.9,341.9,245.3z"/>
		<path class="st55" d="M343,239.9c0,1,0,2-0.2,3c-0.1,0.5-0.2,1-0.3,1.5c-0.2,0.5-0.5,0.9-0.8,1.3h-0.1c-0.1-0.5-0.1-1.1,0-1.6
			c0.1-0.4,0.3-1,0.4-1.4L343,239.9z"/>
		<path class="st55" d="M342.9,271.1l-0.1-0.4c2.2-0.5,2.8-1.5,2.8-1.5C345.2,270.3,344.1,271.1,342.9,271.1z"/>
		<path class="st47" d="M348,281.1c0.1,0.3-0.5,0.5-0.5,0.5c-0.7,0.2-1.4,0.1-2-0.3c-0.3-0.3-0.6-0.7-0.8-1.1
			c-0.2-0.6-0.2-1.3,0.1-1.9c0,0.3,0,0.7,0.1,1c0.1,0.4,0.3,0.8,0.5,1.2c1.2,1.9,2.4,0.4,2.4,0.4L348,281.1z"/>
		<path class="st47" d="M344.7,278.8c-1,0.1-1.3-0.3-1.3-0.3v-0.9c0.2,0.7,1.3,0.6,1.3,0.6V278.8z"/>
		<path class="st56" d="M315.5,337.3c0,0-1.1,2.1-0.8,3s8.4,9.4,10.8,8.6s2.8-1.6,2.5-2.5s-5.3-7.8-5.3-7.8
			C319.2,341.2,315.5,337.3,315.5,337.3z"/>
		<path class="st57" d="M323.7,340.1c0,0-4.4,2.8-8.6-1.6l0.4-1.2c0,0,4.7,3.2,7.2,1.3L323.7,340.1z"/>
		<path class="st56" d="M329.2,330.9c0,0-1,2.4-0.7,3s8.5,8.4,10.3,8.3c1.4-0.1,2.6-1.2,2.9-2.6c0-0.9-5.2-6.8-5.2-6.8L329.2,330.9z
			"/>
		<path class="st57" d="M336.9,333.5c0,0-4.9,2.2-8.1-0.7l0.4-1.9c1.9,1.6,4.5,2.1,6.9,1.3L336.9,333.5z"/>
		<path class="st58" d="M337.9,274.8c-4.4,2.9-19.4,5.9-19.4,5.9c-0.3,3.1,0.3,36,0.3,36c0.7,5.2-3.5,18.9-3.5,18.9s-0.9,3,3.3,4.1
			s4.8-1.9,4.8-1.9s4.8-17.7,5.5-20.3s1.6-20.3,1.6-20.3c1.6,5.4,2.4,11.2,2.2,14.5s-4.4,18.3-4.4,18.3c1.2,3.9,5.7,3.5,7.1,3
			c1-0.3,1.7-1.3,1.5-2.4c0.6-2.6,5.2-17.8,5.2-19.8s-0.8-24.4-0.8-24.4C341.3,276.6,337.9,274.8,337.9,274.8z"/>
		<path class="st59" d="M323.8,233.8l-0.4,1.4c0.6,3.8,4.1,10,5,13.2s-0.3,12,0.3,17.1c0.3,3.7,0.1,7.5-0.6,11.2
			c4.5,0.2,9.8-3.8,9.8-3.8s0.3-3.2,0.3-5.1s-0.3-16.7,0-23.5s-2.3-9.8-2.3-9.8L323.8,233.8z"/>
		<path class="st60" d="M333.3,238.8l-1.7,2.1l1.5,2.1c0.5,0.4,1.1,0.3,1.5-0.2c0,0,0.1-0.1,0.1-0.1c0.7-1,1.3-2.7,1.1-2.9
			C335,239.3,334.2,239,333.3,238.8z"/>
		<path class="st60" d="M333.4,242.8c0,0-2.2,19-2.3,19.3c1,1.4,2,2.8,3.2,4.1c1-1.8,1.9-3.7,2.7-5.7c0.2-2.6-2.4-18.1-2.4-18.1
			L333.4,242.8z"/>
		<path class="st61" d="M324.2,231.3c-1.9,0.8-2.4,3.8-2.4,3.8s-5.8,4-7.4,6.3s-1,4.3-1.3,7.8s-2.4,12.5-2.3,17.2s2.9,14,2.9,14
			c-0.6,1.6-1.1,3.2-1.3,4.9c3.4,4,9.5,3.9,9.5,3.9c2.3,0.5,4.7,0.2,6.8-0.9c-0.2-1.9-0.1-3.8,0.1-5.7c0.4-2.5-0.6-5.8,0-9.9
			s0-11.5,0.3-18.6s-2.7-12.1-4.6-16s-0.3-5.1-0.3-5.1L324.2,231.3z"/>
		<path class="st61" d="M335.8,234.2c2.3,2.7,2.5,12,2.2,15.6s0,8.4,0,13.5s0.3,16.5,0.4,19s-0.6,5.2,0.1,5.6s1.5-0.4,2.9-1.3
			c0.9-0.7,1.7-1.6,2.2-2.7c0.2-2.6-0.3-9.1-0.3-9.1c0.6-0.2,2.3-1.1,2.4-1.6c0.1-1,0.1-2.1,0.1-3.1c0-1-0.3-1.6-0.4-3.5
			s-0.8-14.6-0.9-17.5s-0.1-15.3-0.1-15.3c-0.1-3-2.6-5.3-5.6-5.2c-0.1,0-0.2,0-0.3,0C337.4,230.4,336.5,232.2,335.8,234.2z"/>
		<path class="st62" d="M331.3,242.7c-3.1-2.1-5.8-4.6-8-7.6c0.1-1.7,0.7-2,0.7-2c2.7,2.5,5.9,4.4,9.4,5.7
			C332.6,240,331.9,241.3,331.3,242.7z"/>
		<path class="st62" d="M336,234.5c1,1.9,1.4,4.1,1.1,6.2c-1.3-0.4-2.5-1-3.6-1.7c0.7-0.9,1.1-2,1.1-3.2
			C335.1,235.4,335.6,235,336,234.5z"/>
		<path class="st42" d="M316,287.2c-0.8,1.2-1,5.5-0.6,7.1c0.5,1.7,1.5,3.1,3,4c1.7,1.2,2.3,0.2,2.4-0.3s-0.6-3-0.7-3.6
			c-0.2-0.9-0.7-3.5,0.3-3.4s0.4,2,0.6,3s1.4,0.7,1.6,0.3s0.1-0.9,0.4-1.7s-0.5-3.1-0.5-3.1c-0.8-2.6-1.5-3.2-1.5-3.2
			C318.6,288.9,316,287.3,316,287.2z"/>
		<path class="st63" d="M322.5,251.4c-0.2,0.8-0.3,1.6-0.5,2.4c-0.7,3-1.4,6.1-2,9.2c-0.2,0.8-0.3,1.5-0.3,2.3c0,0.8,0,1.6,0,2.4
			l0.2,4.8c0.2,3.1,0.3,6.4,0.5,9.5v-0.2c0.3,1.4,0.5,2.9,0.5,4.4v0.1l0,0c-0.3,0.6-1,1.1-1.7,1.2c-0.6,0.2-1.3,0.3-1.9,0.3
			c-0.6,0-1.3-0.2-1.8-0.6c-0.5-0.4-0.9-1-1-1.7l0,0c-0.4-2.2-0.9-4.4-1.3-6.5c0.6,2.2,1.1,4.3,1.7,6.4l0,0c0.2,0.6,0.5,1,1,1.4
			c0.5,0.3,1,0.4,1.6,0.4c0.6,0,1.2-0.1,1.7-0.3c0.3-0.1,0.5-0.2,0.8-0.3c0.2-0.1,0.4-0.3,0.5-0.5v0.1c-0.1-1.4-0.3-2.8-0.6-4.2l0,0
			c-0.3-3.1-0.4-6.4-0.6-9.5c-0.1-1.6-0.2-3.2-0.2-4.8v-2.4c0.1-0.9,0.2-1.7,0.3-2.4c0.4-3.2,1.1-6.3,1.9-9.4c1-3.5,1.7-6,1-9.2
			C323.7,247.1,322.6,250.7,322.5,251.4z"/>
		<path class="st63" d="M319.2,283.2c-0.5,0.3-1,0.5-1.6,0.6c-0.6,0.1-1.2,0.1-1.7-0.1c-0.5-0.2-1-0.5-1.5-0.8c0.5,0,1,0.1,1.6,0.1
			c0.5,0,1,0,1.5-0.1c0.5-0.1,0.9-0.2,1.4-0.3c0.5-0.2,1-0.4,1.5-0.6C320.1,282.5,319.7,282.9,319.2,283.2z"/>
		<path class="st64" d="M338.1,276.3c-3,2.9-9.3,3.7-9.3,3.7l-0.3-3.8c6.3-0.9,9.3-4,9.3-4L338.1,276.3z"/>
		<path class="st65" d="M331.5,275.5l0.1,4.2c1.5-0.4,2.9-1,4.2-1.7c0.7-2.9-0.1-4.3-0.1-4.3C334.6,274.7,331.5,275.5,331.5,275.5z"
			/>
		<path class="st66" d="M334.1,288.5c-3.9,2.9-3.7,9.4-3.7,9.4v-2c-0.1-2.2,0.4-4.4,1.5-6.3l-2.6,0.7l4.2-2.8l1.7-7.2L334.1,288.5z"
			/>
		<ellipse class="st67" cx="334.2" cy="269.1" rx="0.5" ry="0.7"/>
		<path class="st63" d="M327.9,270.8c-0.1-1.1-0.2-2.3-0.3-3.3s-0.3-2.2-0.5-3.2c-0.4-2.2-1-4.3-1.6-6.4l-0.8-1.5l-0.1-0.4l-0.1-0.2
			v-0.3l0.3-0.9c0.3-1,0.7-2.1,1-3.1l0.3,0.5c-0.4-0.1-0.8-0.2-1.2-0.3c-0.2,0-0.4-0.2-0.6-0.3c-0.2-0.2-0.4-0.4-0.5-0.6
			c-0.1-0.4-0.2-0.9-0.1-1.3l0.1-1.1c0.1-1.5,0-3-0.5-4.4c-0.5-1.4-1.1-2.9-1.5-4.4c-0.3-1.5-0.4-3.1-0.2-4.6
			c-0.1,1.5,0.1,3,0.5,4.5c0.5,1.5,1,2.9,1.7,4.3c0.6,1.5,0.8,3,0.8,4.6v1.1c0,0.3,0,0.7,0.1,1c0.1,0.1,0.2,0.1,0.3,0.2
			c0.1,0.1,0.3,0.1,0.4,0.2c0.3,0.1,0.7,0.2,1,0.2h0.5l-0.2,0.5c-0.3,1-0.6,2.1-1,3.1c-0.1,0.2-0.1,0.5-0.2,0.7l0.2,0.6l0.4,1.6
			c0.6,2.1,1.1,4.3,1.5,6.4c0.2,1.1,0.3,2.2,0.3,3.3c0.1,1.1,0.1,2.2,0.2,3.3c0.1,2.2,0.2,4.4,0.3,6.5
			C328.3,275,328,272.9,327.9,270.8z"/>
		<path class="st42" d="M334.7,235.7c0.4-0.2,3.6-3.4,3.8-7.1c0.1-1,0-2-0.2-3c-0.1-0.5-0.1-1,0.1-1.5c0.1-0.5,0.2-0.9,0.1-1.4
			c0,0,0.3-3.5-0.7-4.4s-6.8-8.8-13.1-5.1c-1,0.9-1.5,2.3-1.3,3.7c0.1,0.3-0.2,7.6-0.2,7.6s-1.8-0.6-1.9,1.6s0.4,4.2,1,4.6
			s1.2,0.8,1.7,0.6l-0.2,1.9c2.6,2.6,5.8,4.5,9.3,5.7C334,238.1,334.6,236.9,334.7,235.7z"/>
		<path class="st21" d="M327.3,216.6c2.9,1.9,6.3,2.6,9.7,2.1c1.4,0,5-2.2,2.3-6.4c0,0-1.8-2.8-5.2-0.7c-1.6-0.6-3.5-2.3-5.7-1.7
			s-5.7,2.3-6.1,3.4c-0.2,0.8-0.2,1.6,0,2.4c0,0-1.3,0.4-1.3,2.6s0,6.4,0.4,7.8c0,0,0.5-2.2,2.4-1c0.7,0.8,1,1.8,1,2.8l0.1,1.6
			l1.6,0.7l-0.2-1.7c0-0.5,0.2-1,0.5-1.4c0.7-0.6,1.1-1.5,1.3-2.4c0.4-1.7-2.7-5.1-2.7-5.1C325.4,216.8,327.3,216.6,327.3,216.6z"/>
		<path class="st47" d="M333.5,238.8c0.1-1-0.1-1.7-0.6-2c-1-0.6-2.1-0.5-3.5-1.2c-3.4-1.7-3-3.9-3-3.9c0.6,1.2,1.6,2.3,2.8,3
			c3.6,2,5.4,1,5.4,1C334.6,236.8,334.2,237.9,333.5,238.8z"/>
		<path class="st47" d="M338.1,224.8c-1.9,1.5-4.1,2.6-6.5,3c-2.7,0.5-3-1-3-1s0.5,0.5,3,0.3c1.4-0.3,2.7-0.8,4-1.5
			c1.1-0.3,2.2-1,3-1.8C338.3,224.1,338.1,224.4,338.1,224.8z"/>
		<path class="st47" d="M324,233.1c1.2,1.1,2.4,2.1,3.7,3c-2.3-1.9-2.1-5.8-2.1-5.8c-0.3,0.1-0.5,0.6-0.7,0.7
			c-0.2,0.2-0.4,0.3-0.7,0.3L324,233.1z"/>
		<path class="st47" d="M323.9,227.6c0.3,0.6-0.4,0.8-0.7,0.6s-0.1-2.2-0.4-1.5s0.2,2.3,0.7,2.4s-0.1-0.8,0.5-0.7s0.6,0.8,0.6,0.8
			c0,0.5-0.5,0.9-1,0.9c-0.2,0-0.4-0.1-0.6-0.3c-0.7-0.6-1.2-3.7-0.3-4.1s1.7,1.1,1.7,1.1C324.1,226.8,323.8,227,323.9,227.6z"/>
		<path class="st63" d="M338.2,283c0,0-0.1-4.4,0-5.3c0.3-3.4,1.1-11.5,1.7-14.6c0.8-4.1-0.2-8.6-0.5-10.6s1.5-2.3,1.6-3.9
			s-1.4-6.1-1.4-6.1c-0.3-7.9-2.4-9.9-2.4-9.9l-1.4,2l1.4,3.5c1,4.4,0.4,11.5,0.3,15.2c-0.2,2.6-0.1,21.3,0.5,28.6L338.2,283z"/>
		<path class="st63" d="M324.2,231.3l-0.2,1.8c0,0-1.2,1.8,0.6,5.2c2.5,4.1,4,8.7,4.5,13.5c0.4,5.4-0.7,23.2-0.4,25.1
			c0,0-0.5-9.7-1.4-13.1s-2.5-8.2-2.1-8.9c0.4-1.1,0.7-2.2,0.9-3.3c0,0-1.6-0.5-1.8-1.2s0.3-4.6-0.7-6.7s-3-7.2-1.5-10.2
			C322.2,233.6,322.8,231.9,324.2,231.3z"/>
		<path class="st63" d="M343.5,236.1c0,0-0.9,3.3-1.2,4.9c0,0,0.7,30.9,1,33.8c0,0-1.6-16.7-1.6-33.2c0.1-1.5,0-2.9-0.1-4.4l0.5,2.3
			C342.7,238.4,343.1,237.3,343.5,236.1z"/>
		<path class="st63" d="M321.8,247.4c0,0,0.8,3.5,0.1,5.8l-0.5,1.4C321.4,252.2,321.5,249.8,321.8,247.4z"/>
		<path class="st66" d="M333.5,287.6l4-1.5c-1.4,1.2-2.8,2.2-4.4,3L333.5,287.6z"/>
		<path class="st67" d="M337.6,272.6c0,0-2.6,2.8-9.1,3.6c0,0,0.7-19.1,0.7-20.6s0.3-7.6-2.8-13.8s-2.5-5.5-2.7-6.2
			c0,0,3.6,4.9,7.6,7.2l0.6-1.4c0.4,0.7,0.9,1.3,1.5,1.9l-1.2-0.6l-0.8,1.4c-1.7-1.1-3.4-2.3-5-3.6c0,0,3,1.5,3.6,12.2
			c0.5,7.1,0.2,14.2-0.7,21.3c0,0-0.1,0.7-0.3,1.5c6.2-0.5,8.7-3.9,8.7-3.9L337.6,272.6z"/>
		<path class="st47" d="M335.7,227.4c0,0,1,2.8,0.3,4.1c0,0-0.3,0.4-1.3,0.4s-1.1-0.3-1.1-0.3c0.8,0,1.5-0.3,2.1-0.8V227.4z"/>
		<path class="st67" d="M337,237.2c0,0,0.9,1,0.9,8.2l-0.3,26.7l-0.6,0.7c0,0,0.5-20.2,0.2-23.2s-0.3-8.2-0.3-8.2l-1.2-0.8l0.1-0.5
			l1.2,0.6C337,240.8,337.5,239.9,337,237.2z"/>
		<path class="st47" d="M316,287.2c0,0,2.3,1.7,5-1c0,0,0.9,0.6,2,5.1c0,0-1.4-4-2.3-3.2c-1.5,1.1-3.4,1.3-5.1,0.5
			C315.5,288.7,315.5,287.9,316,287.2z"/>
		<path class="st47" d="M345.7,273.2c-0.6,0.8-1.4,1.3-2.4,1.6v0.8c1-0.4,2-0.9,2.9-1.4L345.7,273.2z"/>
		<path class="st8" d="M212.4,294.6c-0.9,2.7-1.3,5.6-1,8.4c0,0,0.9,4.1,4.1,4.6c0,0-0.5-6.6,0.5-8.3s-0.5-3.9-0.5-3.9L212.4,294.6z
			"/>
		<path class="st68" d="M212.2,295.4c1,1.1,2.7,1.4,4.1,0.7v0.9l-1.4,1.8c0,0,0.1-1-1.3-1.2c-0.7-0.1-1.3-0.2-2-0.4
			C211.7,296.6,211.9,296,212.2,295.4z"/>
		<path class="st68" d="M213.6,298.8c-0.1,1.5-0.2,3-0.1,4.5c0.2,0.9,1.2,0.7,1.3-0.3c0-1,0.1-2,0.4-2.9c0.3-0.4,0.5-0.8,0.6-1.3
			c0,0,0.4,0.4-0.5,1.9l-0.2,2.3c0,0-0.1,1.2-1,1.1s-1-1.3-1-2C213.1,301.7,213.1,298.6,213.6,298.8z"/>
		<path class="st69" d="M227,354.7c0,0-3.4,3-4.9,4.6s-0.1,3.6,2.4,2.6c2.9-1.2,5.6-2.7,8.1-4.6l0.3,1c0,0,0.7,0.6,0.9-0.6
			s1-4.9-0.2-5.9C233.6,351.9,230.7,356.2,227,354.7z"/>
		<path class="st8" d="M228.3,334.6c0,0,1.2,14.4,0.3,17c-0.6,1.6-1.5,3.1-2.7,4.4c0,0-2.3,2.5,0.7,1.9c2.6-0.6,5-2,6.7-4.1
			c0.8-1.2-0.6-2.7,0.2-6s2.8-8.9,3-13.9L228.3,334.6z"/>
		<path class="st68" d="M228.5,336.7c0,0,5.2,0.9,7.9-0.9l0.3-2.1l-8.4,0.9L228.5,336.7z"/>
		<path class="st69" d="M216.3,349.3c-1.8,1.3-3.5,2.9-4.9,4.6c-1.3,1.8-0.1,3.6,2.4,2.6c2.9-1.2,5.6-2.7,8.1-4.6l0.3,1
			c0,0,0.7,0.6,0.9-0.6s1-4.9-0.2-5.9C222.9,346.5,220.1,350.8,216.3,349.3z"/>
		<path class="st8" d="M217.7,329.1c0,0,1.2,14.4,0.3,17c-0.6,1.6-1.5,3.1-2.7,4.4c0,0-2.3,2.5,0.7,1.9c2.6-0.6,5-2,6.7-4.1
			c0.8-1.2-0.6-2.7,0.2-6s2.8-8.9,3-13.9L217.7,329.1z"/>
		<path class="st68" d="M218,333.6c0,0,2.9,3.2,6.7,2.1l0.4-1.4l-7.3-2.8L218,333.6z"/>
		<path class="st70" d="M217,296c-1.4,1-2.3,2.6-2.5,4.3c-0.3,2.8-1.9,24.2-1.9,24.2c-0.5,1.2-0.4,2.5,0.4,3.5
			c1.2,1.8,11,10.2,23.3,6.5c0,0,6.9-2.2,7.3-7l-2.1-22.2L217,296z"/>
		<path class="st8" d="M238.6,267.6c0,0-4.2-1.4-6.4,4.9c-1,1.7-1.4,3.6-1.3,5.5c0,0,9.9,1.5,10.6-5.2
			C241.5,272.9,241,268.4,238.6,267.6z"/>
		<polygon class="st71" points="232.8,319.8 232,330.2 247.3,322 247.5,311.8 		"/>
		<path class="st68" d="M234.7,273.7l1.1,4.7l0.4-0.1C236.3,278.4,236,274.7,234.7,273.7z"/>
		<path class="st72" d="M217.9,249.4c0,0,0.7,4.1,0,6.7s-0.8,4.7,2.2,5.6l1.6,0.2c0,0-1.5-9.8-0.8-13.1
			C220.9,248.8,218,246.6,217.9,249.4z"/>
		<path class="st8" d="M236.5,308.2c-0.9,1.2-1.3,2.7-1.3,4.2c0,1.8-0.2,3.6-0.6,5.3c0,0,0.1,0.7,1.1,0.3s1-1.5,1.1-2.5
			s0.2-1.5,0.2-1.5c0.2,1.6,0.2,3.2,0,4.8c-0.4,2.2,1.9,1.4,3.1,0.4s2.7-6.2,1.5-9.9C241.6,309.2,238.1,309.6,236.5,308.2z"/>
		<path class="st68" d="M236.3,308.4c0,0,3.2,1.6,5.2,0.7c0.3,0.7,0.4,1.5,0.4,2.3c-0.4-0.9-1.4-1.3-2.3-1.1
			c-2.7,0.2-3.6,0.3-3.8,2.3c-0.1,1.7-0.5,3.3-1.2,4.8c0,0,0.5-4.5,0.4-5.4S235.5,308.8,236.3,308.4z"/>
		<path class="st72" d="M217.9,249.7c-0.6-3.6,1.4-7.1,4.8-8.5c0,0,4-2.2,6.7-1.5s7.4,2.3,8,5.8s-0.8,5.5,1,9.8s4,8.7,0.1,12.4
			c0,0-4-1.4-5.1-2.3c-2.1-1.9-1.6-3.5-1.8-5.4c-1.3-1.4-2.1-3.2-2.2-5.1v-2.8C229.5,251.9,221,254.1,217.9,249.7z"/>
		<path class="st73" d="M219.4,259.2c0,0-5,1.1-5.8,7.5s-1.5,15.4-2,18.1s-2.4,7.9,0,10.3s4.4,1,4.4,1l-0.6-0.7c0,0,1.7,3.7,4.7,4.6
			s4.2,0.8,7.4,4.2s6.6,3.2,8.7,2.1c-0.1,0.4-0.2,0.9-0.2,1.3c0,0.4-0.5,1.1,2.2,1.7s4.3-0.4,4.5-1.4s2.1-10.8,2.5-12.6s1-2.6,0-8.6
			c-1-5.4-2.5-10.8-4.4-16c0.6,1.6,0.2,3.3-0.9,4.6c-1.9,2-8.4,2.6-9.8,2.3c-2.2-0.6-8.8-2.3-9.9-12c-0.2-1.1,0-2.2,0.5-3.1
			C220.1,261.5,219.7,260.4,219.4,259.2z"/>
		<path class="st8" d="M231.8,260.3c-0.2,1.9,0.6,3.7,2.1,4.8c0,0,1.2,0.7,1.5,0.8c-2.7,3.6-5.2,7.4-7.4,11.3
			c-3.5-1.4-6.1-4.3-7.1-7.9c0,0-1.6-4.1-0.1-6.9c0,0,3.5,2.6,6.6,1.6s4.1-4.4,4.1-4.4L231.8,260.3z"/>
		<path class="st68" d="M220.7,262.5c-0.4,2.6-0.1,5.3,0.9,7.8c0,0,1.6,5,5.1,6.3l-1.8-1.5l0.3-1.1l-0.9,0.5c0,0-4-6.9-3.2-11.5
			L220.7,262.5z"/>
		<path class="st8" d="M218.9,250.7c-0.1,2.8,0.1,5.7,0.5,8.5c0.7,3.2,2.3,5.5,5.7,5.5c2.9,0,5.7-0.9,6.4-4.5
			c0.6,0.4,1.4,0.3,1.8-0.3c0,0,0.1-0.1,0.1-0.1c0.1-0.2,0.1-0.4,0-0.6c0,0-3.3-1.8-3.5-4.1c-0.1-1.3-0.1-2.5,0.1-3.8
			C230,251.3,222.8,254,218.9,250.7z"/>
		<path class="st74" d="M231.2,277.7c0-1.4,0.2-2.7,0.6-4c2.3-7.1,6.8-6.2,6.8-6.2c-0.8-1.9-3.2-1.7-3.2-1.7
			c-1.3,0.4-2.4,1.2-3.4,2.1c-3.4,3.2-2.1,8.3-5.3,8.5C226.6,276.6,230.4,278.1,231.2,277.7z"/>
		<path class="st68" d="M220.8,262.5c1.5,1.8,3.9,2.5,6.1,2c1.5-0.3,2.9-1.1,3.8-2.3c-0.7,1.9-2.6,3.1-4.6,3
			C223,265.3,222.1,264.1,220.8,262.5z"/>
		<path class="st68" d="M231.9,263.9c0.7,0.9,1.7,1.5,2.8,1.7c-2.4-1.5-1.9-5.3-1.9-5.3c-0.3,0.2-0.7,0.2-1,0c0,0.3-0.2-0.8-0.8,1.2
			c0,0,0,2.1-4.4,3.7C228.4,264.9,230.2,264.5,231.9,263.9z"/>
		<path class="st75" d="M237.1,316l-5.9,3.2l-0.7,10.4l1.5,0.6l0.7-10.4l4.4-2.3C237.1,317.5,237.3,316.2,237.1,316z"/>
		<polygon class="st75" points="242,313.5 241.8,315 247.5,311.8 246.2,311.2 		"/>
		<path class="st76" d="M216.9,268.3c0.5,1.9,0.3,3.9-0.4,5.7c-1.2,2.7-2.2,7.4,1.6,9.9c0,0-4.8-1.9-2.8-8.5
			C216.6,272.1,216.8,271.6,216.9,268.3z"/>
		<path class="st76" d="M220.7,262.5c0,0-1.9,8.4,6.3,14.3C226.9,276.8,217.2,271.8,220.7,262.5z"/>
		<path class="st76" d="M219.6,272.2c0,0,2.6,11.6,12,12.8C231.6,285,221.4,284,219.6,272.2z"/>
		<path class="st76" d="M222,272.3c0,0,1.5,10.3,10.7,8.9c0,0-7.9,0.8-10.1-8.1L222,272.3z"/>
		<path class="st76" d="M222.8,273.5c0,0,2.8,5.2,7,5.9c0,0-4.5-0.1-7.1-5.3L222.8,273.5z"/>
		<path class="st76" d="M216.9,283.3c0,0,1.5,4.9,1,7.2l-0.9-4.9c-0.1,2.8-0.5,5.6-1,8.4c-0.3,1-0.1,2.1,0.5,3c0,0-0.6,0-1-1
			c0-1.2,0.1-2.3,0.3-3.5c0.4-2,1.1-9,0.7-9.7L216.9,283.3z"/>
		<path class="st76" d="M221.3,289.3c0,0,5.7,10,13.4,5.1C234.7,294.3,228.6,298,221.3,289.3z"/>
		<path class="st76" d="M237.1,279.4c0,0,1.4,9.7,1.5,11.4s-1.9,14.6-1.9,15.8s0.7,2.2,2.9,2.3s2.2-0.2,3-1.1c0,0-0.2,1.8-3,1.5
			c0,0-3.1,0.1-3.6-1.2c0,0-0.3-0.5,0.3-2.9c0.9-4.7,1.5-9.5,1.9-14.3C238.2,291,236.1,279.8,237.1,279.4z"/>
		<path class="st76" d="M237.5,286.4c0,0,0.5,5.7-3.4,6.8c0,0,3.4-1,3.7-5.5L237.5,286.4z"/>
		<path class="st76" d="M239,285.3c0,0,2.9,2.8,4.3-0.4C243.3,284.9,242.3,289.1,239,285.3z"/>
		<path class="st76" d="M243.3,285.7c0,0-0.9,4.1-3.5,2.7c0,0,2.2,0.8,3.4-3.3L243.3,285.7z"/>
		<path class="st76" d="M243.7,293.5c0,0-1.1,4.1-4.2,4.7c1.5-0.2,2.8-1.1,3.4-2.4c0,0-1,4.1-3.5,4.2
			C239.4,300,242.9,300.1,243.7,293.5z"/>
		<path class="st76" d="M223.3,299.5c1.7,1,3,2.3,4,4c2.1,3.2,6.8,3.4,6.8,3.4c-3.1,0.3-6.1-1.2-7.7-3.8c-2.8-4.5-3.5-3.7-3.5-3.7"
			/>
		<path class="st76" d="M212.7,281.4c0,0-0.2,4.2,2.9,4.4C215.6,285.7,213.5,285.2,212.7,281.4z"/>
		<path class="st68" d="M219.4,254.6c0,0,2.6,3,8.9,2.1C228.3,256.6,221.2,258.7,219.4,254.6z"/>
		<path class="st68" d="M221.9,257.4l-0.1,2.6c0,0,0.5,0.9,2.1,0.7l0.2-0.3c-0.7,0.1-1.4-0.1-1.9-0.5
			C222.2,259.8,222.4,256.6,221.9,257.4z"/>
		<path class="st68" d="M236.3,312.4c0.1,0.6,0.3,1.2,0.6,1.7c0.5,1.1,0.1,4.2,0.1,4.2s-0.5,2,0.6,1.9c0,0-0.7-0.1-0.3-1.9
			S237.8,313.5,236.3,312.4z"/>
		<polygon class="st68" points="234.2,275.2 235.6,276.6 235.4,275.6 		"/>
		<path class="st68" d="M238.6,267.6c0,0-6.5-0.9-7.4,10.1c1.4,0,2.9-0.2,4.3-0.5l-3.6-0.1C231.8,277.2,231.9,268.6,238.6,267.6z"/>
		<polygon class="st68" points="222.8,264.2 223.1,265.8 223.6,265.8 223.8,264.9 		"/>
		<polygon class="st71" points="237.1,317.1 232.3,319.7 231.7,330 232.1,319.5 237.1,316.9 		"/>
		<polygon class="st71" points="236.8,316.6 231.8,319.5 231.2,329.9 230.8,329.6 231.5,319.3 237.1,316.3 		"/>
		<polygon class="st71" points="242.1,313.6 246.4,311.5 246.7,311.7 241.9,314.1 		"/>
		<polygon class="st71" points="242.1,314.3 246.9,311.8 242,314.7 		"/>
		<path class="st77" d="M218.5,308.8c0,0,1.4,17.8,7.5,19.7C221.7,322.8,219.1,315.9,218.5,308.8z"/>
		<path class="st78" d="M216.3,349.3c0,0-6.2,4.1-5.5,6.5s5.3,0.8,11.1-3.9c0,0-7.6,6-10.4,4.1C211.5,356.1,209.4,354.5,216.3,349.3
			z"/>
		<path class="st78" d="M226.9,354.9c0,0-6.2,4.1-5.5,6.5s5.3,0.8,11.1-3.9c0,0-7.9,5.7-10.4,4.1
			C222.1,361.6,220.2,360.3,226.9,354.9z"/>
		<path class="st79" d="M338.5,401c-0.9,2.7-1.3,5.6-1,8.4c0,0,0.9,4.1,4.1,4.6c0,0-0.5-6.6,0.5-8.3s-0.5-3.9-0.5-3.9L338.5,401z"/>
		<path class="st68" d="M338.2,401.8c1,1.1,2.7,1.4,4.1,0.7v0.9l-1.4,1.8c0,0,0.1-1-1.3-1.2c-0.7-0.1-1.3-0.2-2-0.4
			C337.8,403,338,402.4,338.2,401.8z"/>
		<path class="st80" d="M339.7,405.1c-0.1,1.5-0.2,3-0.1,4.5c0.2,0.9,1.2,0.7,1.3-0.3c0-1,0.1-2,0.4-2.9c0.3-0.4,0.5-0.8,0.6-1.3
			c0,0,0.4,0.4-0.5,1.9l-0.2,2.3c0,0-0.1,1.2-1,1.1s-1-1.3-1-2C339.2,408,339.2,404.9,339.7,405.1z"/>
		<path class="st56" d="M353.1,461.1c0,0-3.4,3-4.9,4.6s-0.1,3.6,2.4,2.6c2.9-1.2,5.6-2.7,8.1-4.6l0.3,1c0,0,0.7,0.6,0.9-0.6
			s1-4.9-0.2-5.9C359.7,458.2,356.8,462.5,353.1,461.1z"/>
		<path class="st79" d="M354.4,440.9c0,0,1.2,14.4,0.3,17c-0.6,1.6-1.5,3.1-2.7,4.4c0,0-2.3,2.5,0.7,1.9c2.6-0.6,5-2,6.7-4.1
			c0.8-1.2-0.6-2.7,0.2-6s2.8-8.9,3-13.9L354.4,440.9z"/>
		<path class="st80" d="M354.6,443c0,0,5.2,0.9,7.9-0.9l0.3-2.1l-8.4,0.9L354.6,443z"/>
		<path class="st56" d="M342.4,455.6c-1.8,1.3-3.5,2.9-4.9,4.6c-1.3,1.8-0.1,3.6,2.4,2.6c2.9-1.2,5.6-2.7,8.1-4.6l0.3,1
			c0,0,0.7,0.6,0.9-0.6s1-4.9-0.2-5.9C349,452.8,346.2,457.1,342.4,455.6z"/>
		<path class="st79" d="M343.8,435.4c0,0,1.2,14.4,0.3,17c-0.6,1.6-1.5,3.1-2.7,4.4c0,0-2.3,2.5,0.7,1.9c2.6-0.6,5-2,6.7-4.1
			c0.8-1.2-0.6-2.7,0.2-6s2.8-8.9,3-13.9L343.8,435.4z"/>
		<path class="st80" d="M344.1,439.9c0,0,2.9,3.2,6.7,2.1l0.4-1.4l-7.3-2.8L344.1,439.9z"/>
		<path class="st81" d="M343.1,402.3c-1.4,1-2.3,2.6-2.5,4.3c-0.3,2.8-1.9,24.2-1.9,24.2c-0.5,1.2-0.4,2.5,0.4,3.5
			c1.2,1.8,11,10.2,23.3,6.5c0,0,6.9-2.2,7.3-7l-2.1-22.2L343.1,402.3z"/>
		<path class="st79" d="M364.7,373.9c0,0-4.2-1.4-6.4,4.9c-1,1.7-1.4,3.6-1.3,5.5c0,0,9.9,1.5,10.6-5.2
			C367.6,379.2,367.1,374.7,364.7,373.9z"/>
		<polygon class="st71" points="358.8,426.1 358.1,436.5 373.4,428.3 373.6,418.2 		"/>
		<path class="st80" d="M360.8,380.1l1.1,4.7l0.4-0.1C362.4,384.7,362.1,381,360.8,380.1z"/>
		<path class="st82" d="M344,355.7c0,0,0.7,4.1,0,6.7s-0.8,4.7,2.2,5.6l1.6,0.2c0,0-1.5-9.8-0.8-13.1
			C347,355.1,344.1,352.9,344,355.7z"/>
		<path class="st79" d="M362.6,414.5c-0.9,1.2-1.3,2.7-1.3,4.2c0,1.8-0.2,3.6-0.6,5.3c0,0,0.1,0.7,1.1,0.3s1-1.5,1.1-2.5
			s0.2-1.5,0.2-1.5c0.2,1.6,0.2,3.2,0,4.8c-0.4,2.2,1.9,1.4,3.1,0.4s2.7-6.2,1.5-9.9C367.6,415.5,364.2,415.9,362.6,414.5z"/>
		<path class="st80" d="M362.4,414.7c0,0,3.2,1.6,5.2,0.7c0.3,0.7,0.4,1.5,0.4,2.3c-0.4-0.8-1.3-1.3-2.2-1.1
			c-2.7,0.2-3.6,0.3-3.8,2.3c-0.1,1.7-0.5,3.3-1.2,4.8c0,0,0.5-4.5,0.4-5.4S361.6,415.1,362.4,414.7z"/>
		<path class="st82" d="M344,356c-0.6-3.6,1.4-7.1,4.8-8.5c0,0,4-2.2,6.7-1.5s7.4,2.3,8,5.8s-0.8,5.5,1,9.8s4,8.7,0.1,12.4
			c0,0-4-1.4-5.1-2.3c-2.1-1.9-1.6-3.5-1.8-5.4c-1.3-1.4-2.1-3.2-2.2-5.1v-2.8C355.6,358.2,347.1,360.4,344,356z"/>
		<path class="st83" d="M345.5,365.5c0,0-5,1.1-5.8,7.5s-1.5,15.4-2,18.1s-2.4,7.9,0,10.3s4.4,1,4.4,1l-0.6-0.7c0,0,1.7,3.7,4.7,4.6
			s4.2,0.8,7.4,4.2s6.6,3.2,8.7,2.1c-0.1,0.4-0.2,0.9-0.2,1.3c0,0.4-0.5,1.1,2.2,1.7s4.3-0.4,4.5-1.4s2.1-10.8,2.5-12.6s1-2.6,0-8.6
			c-1-5.4-2.5-10.8-4.4-16c0.6,1.6,0.2,3.3-0.9,4.6c-1.9,2-8.4,2.6-9.8,2.3c-2.3-0.6-8.8-2.3-9.9-12c-0.2-1.1,0-2.2,0.5-3.1
			C346.2,367.8,345.8,366.7,345.5,365.5z"/>
		<path class="st79" d="M357.9,366.6c-0.2,1.9,0.6,3.7,2.1,4.8c0,0,1.2,0.7,1.5,0.8c-2.7,3.6-5.2,7.4-7.4,11.3
			c-3.5-1.4-6.1-4.3-7.1-7.9c0,0-1.6-4.1-0.1-6.9c0,0,3.5,2.6,6.6,1.6s4.1-4.4,4.1-4.4L357.9,366.6z"/>
		<path class="st80" d="M346.8,368.8c-0.4,2.6-0.1,5.3,0.9,7.8c0,0,1.6,5,5.1,6.3l-1.8-1.5l0.3-1.1l-0.9,0.5c0,0-4-6.9-3.2-11.5
			L346.8,368.8z"/>
		<path class="st79" d="M345,357.1c-0.1,2.8,0.1,5.7,0.5,8.5c0.7,3.1,2.3,5.5,5.7,5.5c2.9,0,5.7-0.9,6.4-4.5
			c0.6,0.4,1.4,0.3,1.8-0.3c0,0,0.1-0.1,0.1-0.1c0.1-0.2,0.1-0.4,0-0.6c0,0-3.3-1.8-3.5-4.1c-0.1-1.3-0.1-2.5,0.1-3.8
			C356.1,357.7,348.9,360.3,345,357.1z"/>
		<path class="st84" d="M357.2,384.1c0-1.4,0.2-2.7,0.6-4c2.3-7.1,6.8-6.2,6.8-6.2c-0.8-1.9-3.2-1.7-3.2-1.7
			c-1.3,0.4-2.4,1.2-3.4,2.1c-3.4,3.2-2.1,8.3-5.3,8.5C352.7,382.9,356.5,384.4,357.2,384.1z"/>
		<path class="st80" d="M346.9,368.8c1.5,1.8,3.9,2.5,6.1,2c1.5-0.3,2.9-1.1,3.8-2.3c-0.7,1.9-2.6,3.1-4.6,3
			C349.1,371.6,348.2,370.4,346.9,368.8z"/>
		<path class="st80" d="M358,370.2c0.7,0.9,1.7,1.5,2.8,1.7c-2.4-1.5-1.9-5.3-1.9-5.3c-0.3,0.2-0.7,0.2-1,0c0,0.3-0.2-0.8-0.8,1.2
			c0,0,0,2.1-4.4,3.7C354.5,371.2,356.3,370.8,358,370.2z"/>
		<path class="st75" d="M363.2,422.3l-5.9,3.2l-0.7,10.4l1.5,0.6l0.7-10.4l4.4-2.3C363.2,423.8,363.4,422.6,363.2,422.3z"/>
		<polygon class="st75" points="368,419.8 367.9,421.3 373.6,418.2 372.3,417.5 		"/>
		<path class="st85" d="M343,374.6c0.5,1.9,0.3,3.9-0.4,5.7c-1.2,2.7-2.2,7.4,1.6,9.9c0,0-4.8-1.9-2.8-8.5
			C342.7,378.5,342.9,377.9,343,374.6z"/>
		<path class="st85" d="M346.8,368.8c0,0-1.9,8.4,6.3,14.3C353,383.1,343.3,378.1,346.8,368.8z"/>
		<path class="st85" d="M345.7,378.5c0,0,2.6,11.6,12,12.8C357.7,391.3,347.5,390.4,345.7,378.5z"/>
		<path class="st85" d="M348.1,378.6c0,0,1.5,10.3,10.7,8.9c0,0-7.9,0.8-10.1-8.1L348.1,378.6z"/>
		<path class="st85" d="M348.9,379.8c0,0,2.8,5.2,7,5.9c0,0-4.5-0.1-7.1-5.3L348.9,379.8z"/>
		<path class="st85" d="M343,389.6c0,0,1.5,4.9,1,7.2l-0.9-4.9c-0.1,2.8-0.5,5.6-1,8.4c-0.3,1-0.1,2.1,0.5,3c0,0-0.6,0-1-1
			c0-1.2,0.1-2.3,0.3-3.5c0.4-2.1,1.1-9,0.7-9.7L343,389.6z"/>
		<path class="st85" d="M347.4,395.6c0,0,5.7,10,13.4,5.1C360.8,400.6,354.7,404.3,347.4,395.6z"/>
		<path class="st85" d="M363.1,385.7c0,0,1.4,9.7,1.5,11.4s-1.9,14.6-1.9,15.8s0.7,2.2,2.9,2.3s2.2-0.2,3-1.1c0,0-0.2,1.8-3,1.5
			c0,0-3.1,0.1-3.6-1.2c0,0-0.3-0.5,0.3-2.9c0.9-4.7,1.5-9.5,1.9-14.3C364.3,397.3,362.2,386.2,363.1,385.7z"/>
		<path class="st85" d="M363.6,392.7c0,0,2,5.8-3.4,6.8c0,0,3.4-1,3.7-5.5L363.6,392.7z"/>
		<path class="st85" d="M365.1,391.7c0,0,2.9,2.8,4.3-0.4C369.4,391.2,368.4,395.5,365.1,391.7z"/>
		<path class="st85" d="M369.4,392c0,0-0.9,4.1-3.5,2.7c0,0,2.2,0.8,3.4-3.3L369.4,392z"/>
		<path class="st85" d="M369.8,399.8c0,0-1.1,4.1-4.2,4.7c1.5-0.2,2.8-1.1,3.4-2.4c0,0-1,4.1-3.5,4.2
			C365.5,406.4,369,406.5,369.8,399.8z"/>
		<path class="st85" d="M349.4,405.9c1.7,1,3,2.3,4,4c2.1,3.2,6.8,3.4,6.8,3.4c-3.1,0.3-6.1-1.2-7.7-3.8c-2.8-4.5-3.5-3.7-3.5-3.7"
			/>
		<path class="st85" d="M338.8,387.7c0,0-0.2,4.2,2.9,4.4C341.7,392,339.6,391.5,338.8,387.7z"/>
		<path class="st80" d="M345.5,360.9c0,0,2.6,3,8.9,2.1C354.4,363,347.3,365,345.5,360.9z"/>
		<path class="st80" d="M348,363.7l-0.1,2.6c0,0,0.5,0.9,2.1,0.7l0.2-0.3c-0.7,0.1-1.4-0.1-1.9-0.5C348.3,366.1,348.5,363,348,363.7
			z"/>
		<path class="st80" d="M362.4,418.7c0.1,0.6,0.3,1.2,0.6,1.7c0.5,1.1,0.1,4.2,0.1,4.2s-0.5,2,0.6,1.9c0,0-0.7-0.1-0.3-1.9
			S363.9,419.8,362.4,418.7z"/>
		<polygon class="st80" points="360.3,381.5 361.7,383 361.5,382 		"/>
		<path class="st80" d="M364.7,373.9c0,0-6.5-0.9-7.4,10.1c1.4,0,2.9-0.2,4.3-0.5l-3.6-0.1C357.9,383.5,358,374.9,364.7,373.9z"/>
		<polygon class="st80" points="348.9,370.5 349.2,372.1 349.7,372.2 349.9,371.2 		"/>
		<polygon class="st71" points="363.1,423.4 358.4,426 357.8,436.4 358.2,425.8 363.2,423.2 		"/>
		<polygon class="st71" points="362.9,422.9 357.9,425.8 357.3,436.2 356.9,435.9 357.6,425.6 363.1,422.6 		"/>
		<polygon class="st71" points="368.2,420 372.5,417.8 372.8,418 368,420.4 		"/>
		<polygon class="st71" points="368.2,420.6 373,418.2 368.1,421 		"/>
		<path class="st86" d="M344.6,415.1c0,0,1.4,17.8,7.5,19.7C347.8,429.1,345.2,422.2,344.6,415.1z"/>
		<path class="st57" d="M342.4,455.6c0,0-6.2,4.1-5.5,6.5s5.3,0.8,11.1-3.9c0,0-7.6,6-10.4,4.1C337.6,462.4,335.5,460.9,342.4,455.6
			z"/>
		<path class="st57" d="M353,461.2c0,0-6.2,4.1-5.5,6.5s5.3,0.8,11.1-3.9c0,0-7.9,5.7-10.4,4.1C348.2,467.9,346.3,466.6,353,461.2z"
			/>
		<g>
			<defs>
				<polygon id="SVGID_2_" points="238.9,483 279.4,483 278.4,434 262.9,413.5 245.4,417 232.4,462 				"/>
			</defs>
			<clipPath id="SVGID_3_">
				<use xlink:href="#SVGID_2_"  style="overflow:visible;"/>
			</clipPath>
			<g class="st87">
				<path class="st88" d="M265.5,551c0,0-5.2,6.8-5.5,7.8s0.1,1.7,2.5,2.5s10.5-7.8,10.8-8.6s-0.9-3.1-0.9-3.1S269,553.6,265.5,551z
					"/>
				<path class="st88" d="M251.9,544.7c0,0-5.5,6.3-5.5,7.2c0.3,1.4,1.5,2.5,2.9,2.6c1.7,0.2,10-7.7,10.3-8.3s-0.7-3-0.7-3
					L251.9,544.7z"/>
				<path class="st89" d="M246.8,498.8c0,0-0.8,22.4-0.8,24.4s4.6,17.2,5.2,19.8c-0.1,1.1,0.5,2.1,1.5,2.4c1.5,0.5,5.9,0.9,7.1-3
					c0,0-4.2-15-4.4-18.3s0.6-9.1,2.2-14.5c0,0,0.9,17.7,1.6,20.3s5.5,20.3,5.5,20.3s0.6,3,4.8,1.9s3.3-4.1,3.3-4.1
					s-4.2-13.7-3.5-18.9c0,0,0.6-32.8,0.3-36c0,0-15.1-3-19.4-5.9C250.1,487.2,246.8,489,246.8,498.8z"/>
				<path class="st8" d="M242.4,485.6c-0.5,0.9-1,1.9-1.2,3c-0.3,1.3-0.3,3.4-1,4.6c0,0-0.9,0.8,0.9,0.9s1.6-1.3,1.6-1.3
					s-0.8,5.1,2.6,5.1l0.8-0.1l-0.3-10.7C244.6,486.7,243.5,486.2,242.4,485.6z"/>
				<path class="st9" d="M242.4,485.5c0.7,0.7,1.4,1.2,2.3,1.6v1c-0.6-0.9-1.6-1.6-2.7-1.7L242.4,485.5z"/>
				<path class="st90" d="M256.8,513.8c-0.3,0-1,0.6-0.9,2.3s-0.3,15.1-0.3,15.1c-0.4,0.8,0,1.7,0.8,2.1c0.1,0,0.2,0.1,0.3,0.1
					c1.8,0.6,3.4,1.6,4.6,0.9s19.5-11.7,19.5-11.7c0.7-0.2,1.2-0.9,1.2-1.7c0-1.4,0.1-16.6,0.1-16.6l-5.7,0.4L256.8,513.8z"/>
				<path class="st91" d="M252.1,446.8c0,0-2.5,3-2.3,9.8s-0.1,21.7,0,23.5s0.3,5.1,0.3,5.1s5.3,4,9.8,3.8
					c-0.7-3.7-0.9-7.5-0.6-11.2c0.6-5.1-0.5-13.8,0.3-17.1s4.4-9.4,5-13.2l-0.4-1.4L252.1,446.8z"/>
				<path class="st92" d="M252.2,452.1c-0.2,0.2,0.4,1.9,1.1,2.9c0.3,0.5,0.9,0.7,1.5,0.4c0,0,0.1-0.1,0.1-0.1l1.5-2.1l-1.7-2.1
					C253.8,451.3,253,451.7,252.2,452.1z"/>
				<path class="st92" d="M253.3,454.7c0,0-1.3,8.6-2.4,16.6c0.7,2.5,1.7,4.9,2.8,7.2c0,0,2.5-4.3,3.2-5.7
					c-0.1-0.3-2.3-17.8-2.3-17.8L253.3,454.7z"/>
				<path class="st93" d="M264,445.4c0,0,1.6,1.1-0.3,5.1s-4.9,9-4.6,16s0.1,13.7,0.3,18.5c0.2,4.1-0.5,7.5-0.1,10
					c0.2,1.9,0.3,3.8,0.1,5.7c2.1,1,4.5,1.3,6.8,0.9c0,0,6.1-0.2,9.5-4.2c-0.3-1.6-0.7-3.1-1.3-4.6c0,0,2.7-9.3,2.9-14
					s-1.9-13.8-2.3-17.2s0.3-5.4-1.3-7.8s-7.4-6.3-7.4-6.3s-0.4-3-2.4-3.8L264,445.4z"/>
				<path class="st93" d="M249.5,440.8c-3-0.2-5.7,2.1-5.9,5.1c0,0,0,0.1,0,0.1c0,0,0,12.5-0.1,15.3s-0.8,15.6-0.9,17.5
					c0,0.8-0.1,1.7-0.2,2.5c-0.2,0.6-0.4,1.3-0.4,1.9c0,0.7,0.1,1.5,0.2,2.2c0.7,0.7,1.5,1.2,2.4,1.6c0,0-0.4,6.4-0.3,9.1
					c0.5,1.1,1.3,2,2.2,2.7c1.4,0.9,2.2,1.7,2.9,1.3s-0.1-3,0.1-5.6s0.4-13.8,0.4-19s0.3-9.9,0-13.5s-0.4-12.5,1.8-15.1
					C251.9,447.1,249.5,445.5,249.5,440.8z"/>
				<path class="st94" d="M246.8,447.5c0,1.7-0.1,3.3-0.1,5s-0.1,3.3,0,5s0.2,3.3,0.2,5s-0.1,3.3-0.2,5s-0.3,3.3-0.4,5
					s-0.3,3.3-0.4,5l-0.5,5c-0.2,1.7-0.3,3.3-0.6,5c0-1.7,0.1-3.3,0.2-5l0.3-5c0.1-1.7,0.2-3.3,0.3-5c0.2-1.6,0.3-3.3,0.3-4.9
					c0.1-1.7,0.2-3.3,0.3-5s-0.1-3.3,0-5C246.1,454.2,246.3,450.8,246.8,447.5z"/>
				<path class="st95" d="M254.6,451.2c3.5-1.2,6.7-3.2,9.4-5.7c0,0,0.6,0.3,0.7,2c-2.4,2.8-5.2,5.2-8.3,7.1
					C256,453.4,255.4,452.2,254.6,451.2z"/>
				<path class="st95" d="M253.5,448c0,0,0.1,2.3,1.1,3.2c-1.1,0.7-2.3,1.3-3.6,1.7c0,0-0.1-4.5,0.8-6
					C252.2,447.4,252.8,447.8,253.5,448z"/>
				<path class="st94" d="M245,452.1l0.9,2.9c0.2,0.5,0.3,0.9,0.4,1.4c0.1,0.5,0.1,1.1,0,1.6h-0.1c-0.3-0.4-0.6-0.8-0.8-1.3
					c-0.2-0.5-0.3-1-0.3-1.5C245.1,454.1,244.9,453.2,245,452.1L245,452.1z"/>
				<path class="st94" d="M249.6,494.3c0.6-7.3,0.7-26,0.5-28.6c-0.2-3.7-0.7-10.9,0.3-15.2l1.4-3.5l-1.4-2c0,0-1.9,2.6-2.2,10.6
					c0,0-0.7,6.2-1,7.2c0,0,2,3.2,1.7,5.2s-1.9,3.5-1.1,7.6c0.6,3.1,1.4,11.2,1.7,14.6c0.1,1,0,5.3,0,5.3L249.6,494.3z"/>
				<path class="st8" d="M254.7,451.2c3.5-1.2,6.7-3.1,9.3-5.7l-0.2-1.9c0.5,0.2,1.1-0.2,1.7-0.6s1.1-2.4,1-4.6s-1.9-1.6-1.9-1.6
					s-0.3-7.3-0.2-7.7c0.2-1.4-0.3-2.8-1.3-3.7c-6.3-3.7-9.2,0.2-11.7,0.5s-2,4.1-2,4.1v4.9c-0.1,0.5,0,0.9,0.1,1.4
					c0.2,0.5,0.2,1,0.1,1.5c-0.3,1-0.3,2-0.2,3c-0.1,5.9,3.4,7,3.8,7.1S253.3,449.9,254.7,451.2z"/>
				<path class="st96" d="M248.8,424.4c0.7,0.6,1.7,0.8,2.6,0.4c1.6-0.6,5.4-3.7,7.6-3s6.5,2.4,6.9,3.5c0.2,0.8,0.2,1.6,0,2.4
					c0,0,1.3,0.4,1.3,2.6s-0.2,6.6-0.7,8.1c0,0-0.6-2.2-2.4-1c-0.7,0.8-1,1.8-1,2.8l-0.1,1.6l-1.6,0.7l0.2-1.7c0-0.5-0.2-1-0.5-1.4
					c-0.8-0.8-1.3-1.8-1.6-2.9c-0.2-0.9,0.1-1.9,0.8-2.5l2.3-2.2l-3.6,2.1c-1.3,0.7-2.9,0.7-4.2,0.1l-5.5-3.1
					C249.3,430.8,246.2,428.9,248.8,424.4z"/>
				<path class="st9" d="M253.5,448c1.9,0.6,3.9,0.3,5.6-0.7c1.1-0.9,2-2,2.6-3.3c0,0,0.4,2.2-3,3.9c-1.4,0.7-2.5,0.6-3.5,1.2
					c-0.5,0.3-0.7,1-0.6,2C253.9,450.2,253.5,449.1,253.5,448z"/>
				<path class="st9" d="M249.5,436.1c0.8,0.8,1.9,1.5,3,1.8c1.3,0.6,2.6,1.1,4,1.5c2.4,0.3,3-0.3,3-0.3s-0.3,1.5-3,1
					c-2.4-0.5-4.6-1.5-6.5-3C249.9,436.7,249.7,436.4,249.5,436.1z"/>
				<path class="st9" d="M263.8,443.6c-0.3,0-0.5-0.1-0.7-0.3c-0.2-0.1-0.4-0.6-0.7-0.7c0,0,0.2,3.9-2.1,5.8c1.3-0.9,2.6-1.9,3.7-3
					L263.8,443.6z"/>
				<path class="st90" d="M256.6,514.7l3.9,2.2c0.3,0.2,0.6,0.2,0.9,0l20.5-12.2c0.2-0.2,0.3-0.5,0.1-0.8c0,0-0.1-0.1-0.1-0.1
					l-3.8-2.1c-0.4-0.2-0.8-0.2-1.2,0c-1.8,1-7.3,4.3-12.2,7.1c-3.5,2.1-6.7,3.9-8.1,4.9c-0.2,0.2-0.2,0.6,0,0.9
					C256.6,514.6,256.6,514.6,256.6,514.7z"/>
				<path class="st9" d="M263.6,439.3c0,0,0.8-1.6,1.7-1.1s0.4,3.5-0.3,4.1c-0.4,0.4-1,0.4-1.3,0c-0.2-0.2-0.3-0.4-0.3-0.6
					c0,0,0-0.7,0.6-0.8s0,0.9,0.5,0.7c0.6-0.6,0.9-1.5,0.7-2.4c-0.3-0.6-0.3,1.3-0.4,1.5s-1,0-0.7-0.6
					C264.3,439.3,264,439.1,263.6,439.3z"/>
				<path class="st94" d="M242.4,481.6c0,0,0.6,1,2.8,1.5l-0.1,0.4C245,483.5,242.8,483.2,242.4,481.6z"/>
				<path class="st8" d="M267,498.6c-0.7,1.2-1.3,2.5-1.7,3.9c0,0-0.8,1.8-0.4,2.7s0.5,1.4,0.5,1.4l1.6-1.1c0,0-0.4-1.6,0.5-1.6
					s1.4,2.2,1.6,2.7s-1.6,1.7-1.4,2.2s0.7,1.6,2.4,0.3c0,0,2.5-1.3,3.3-2.9s-0.7-5.7-1.4-6.9C272,499.6,269.4,501.2,267,498.6z"/>
				<path class="st94" d="M267,456.5c-0.7,1.6-1.2,3.3-1.3,5c-0.1,1.6,0.2,3.2,0.8,4.7c0.8,2.9,1.5,5.9,2,8.9
					c0.2,0.8,0.3,1.6,0.3,2.4v2.4c0,1.6-0.1,3.2-0.2,4.8c-0.2,3.2-0.3,6.4-0.6,9.6l0,0c-0.3,1.4-0.5,2.8-0.6,4.2v-0.1
					c0.1,0.2,0.3,0.3,0.5,0.5c0.2,0.2,0.5,0.3,0.8,0.3c0.5,0.2,1.1,0.3,1.7,0.3c0.6,0,1.1-0.2,1.6-0.4c0.5-0.4,0.8-0.8,1-1.4l0,0
					c0.6-2.2,1.1-4.3,1.7-6.4c-0.4,2.2-0.9,4.4-1.3,6.5l0,0c-0.2,0.6-0.5,1.2-1,1.7c-0.5,0.4-1.2,0.6-1.8,0.6
					c-0.6,0-1.3-0.1-1.9-0.3c-0.7-0.2-1.3-0.6-1.7-1.2l0,0v-0.1c0-1.5,0.2-3,0.5-4.4v0.1c0.3-3.1,0.3-6.4,0.5-9.6
					c0.1-1.6,0.2-3.2,0.2-4.8c0-0.8,0-1.6,0-2.4c-0.1-0.8-0.2-1.6-0.3-2.4c-0.6-3.1-1.3-6.3-2.1-9.3
					C264.8,462.6,265.3,459.2,267,456.5z"/>
				<path class="st94" d="M267.7,494.3c0.5,0.2,1,0.4,1.5,0.6c0.5,0.2,1,0.3,1.5,0.3c0.5,0,1,0.1,1.5,0.1s1-0.1,1.6-0.1
					c-0.5,0.3-1,0.6-1.5,0.8c-0.5,0.2-1.1,0.2-1.7,0.1c-0.6-0.1-1.2-0.3-1.7-0.6C268.4,495.3,267.9,494.8,267.7,494.3z"/>
				<path class="st97" d="M250,484.5c2.7,2.2,5.9,3.6,9.4,4l-0.2,2v1.8c0,0-6.3-0.9-9.3-3.7L250,484.5z"/>
				<path class="st98" d="M252.4,486.2c-0.4,1.4-0.4,2.8,0,4.2c1.2,0.9,2.7,1.4,4.2,1.4l0.1-3.9C255.2,487.6,253.7,487,252.4,486.2z
					"/>
				<path class="st99" d="M252.8,492.6l1.7,7.2l4.2,2.8l-2.6-0.7c1.1,1.9,1.6,4.1,1.5,6.3v2c0,0,0.3-6.5-3.7-9.4L252.8,492.6z"/>
				<path class="st9" d="M240.2,493.3c0,0,1.1,1.2,2.3-0.7c0.2-0.4,0.4-0.8,0.5-1.3c0.1-0.5,0.2-0.9,0.2-0.9s0.6,0.2,0.1,1.4
					c-0.2,0.6-0.5,1.2-0.8,1.7c-0.5,0.5-1.3,0.7-2,0.5c0,0-0.6-0.2-0.5-0.5L240.2,493.3z"/>
				<path class="st100" d="M268.4,504.7l-3.3,2.3c0,0-0.8,0.3-0.8,1.9v2.6l1.6,0.6l1.3-0.7v-1.7c0,0-0.1-1,0.3-1.4s1.1-0.7,1.7-1.2
					C269.1,506.3,268.8,505.4,268.4,504.7z"/>
				<ellipse class="st101" cx="253.8" cy="481.5" rx="0.5" ry="0.7"/>
				<path class="st9" d="M243.3,490.6c0,0,1.1,0.1,1.3-0.6v0.9c0,0-0.3,0.3-1.3,0.3V490.6z"/>
				<path class="st94" d="M259.3,489.5c0,0,0.4-2.7,0.7-8.6s2.7-12.9,2.7-13.2s-1.2-4-1.2-4s1.5-0.1,2-0.7s-0.5-3.7,0.9-7.2
					s2.2-5.5,1.8-8.6c0,0-0.6-3-2.4-3.6l0.2,1.9c0,0,2,1.1-1,6.3c0,0-4.3,6.9-4.1,14.2c0,0,0.3,8,0.1,10.2S259.6,487,259.3,489.5z"
					/>
				<path class="st102" d="M265.7,512l1.3-0.7v-2.1c0-0.6,0.3-1.1,0.8-1.4l1.3-1c-0.1-0.5-0.2-0.9-0.3-1.4c-0.8,0.7-1.6,1.3-2.4,1.9
					C265.4,508.2,265.7,512,265.7,512z"/>
				<path class="st94" d="M264.3,459.5c0,1.1,0.2,2.1,0.6,3.1l0.7,0.9c0.1,0.5,0.1,1,0.1,1.5c-0.7-0.7-1.2-1.5-1.5-2.5
					c-0.1-0.5-0.2-1-0.2-1.5C264,460.5,264.1,460,264.3,459.5z"/>
				<path class="st103" d="M250,484.5c0,0,2.9,3.1,9.4,4c0,0-0.3-6.2-0.4-8.4s0.1-10.2,0-10.9c-0.4-4.4,0.3-8.9,1.9-13
					c0,0,1.4-3.3,2.5-5.2c0.5-1.1,0.9-2.2,1.2-3.3c0,0-4.6,5.2-8.2,7c2.6-1.2,5-2.9,6.9-5c0,0-3.7,5.5-4.4,10.2s-0.4,19.5-0.4,21.6
					s0.3,6.1,0.3,6.1S255.3,487.6,250,484.5z"/>
				<path class="st103" d="M251.3,448.2c-0.2,1.6-0.3,3.2-0.3,4.8c0.4-0.1,0.8-0.2,1.2-0.4c0.2,0.9,0.5,1.7,1,2.4
					c0,0-1.3,8.5-1.6,10.5l1.3-10.3l-1-1.8c-0.5,0.1-0.9,0.2-1.4,0.2c-0.2,2.5-0.3,4.9-0.2,7.4c0.4,7.9,0.3,15.8-0.4,23.7
					c0,0,0.1-13.6,0.2-15.4c0.1-2.9,0-5.8-0.3-8.7c0,0-0.2-7,0.5-9.9C250.6,449.8,250.9,449,251.3,448.2z"/>
				<path class="st104" d="M252.5,453c0,0,1.6-0.9,2.1-1.3l1,2.2c-0.2,0.5-0.5,1-0.9,1.5l-1.3-0.5l1.3,0.8l1.9,16.8
					c0,0-2,4.3-2.8,5.9c0,0,2.6-3.6,3.2-5.7c0,0-2.2-16.7-1.9-17.5c0.4-0.5,0.8-1,1.1-1.6c-0.4-0.9-0.8-1.7-1.4-2.5l-2.3,1.3
					C252.3,452.5,252.2,452.7,252.5,453z"/>
				<polygon class="st105" points="252.8,458.1 255.1,460.5 255.3,462.8 252.4,460.5 				"/>
				<polygon class="st105" points="252,463 255.7,466.1 256.1,468.9 251.7,465.4 				"/>
				<polygon class="st105" points="251.3,467.8 256.4,471.7 256.5,472.6 255.8,474.2 251,470.3 				"/>
				<path class="st105" d="M251.7,473.8l3.2,2.1l-1.3,2.6C252.8,477,252.2,475.4,251.7,473.8z"/>
				<path class="st99" d="M254.1,501c0,0-2.8-0.7-3.6-2c0,0,2.5,0.9,3.6,1.2V501z"/>
				<path class="st9" d="M267,498.6c0,0,0.4,1.4,3.7,1.5c0,0,1.1,0,1.4-0.5c0.8,1.5,1.3,3.2,1.5,4.9c0,0-1.2-2.6-2.5-3.1
					c-1.8,0-3.4-0.9-4.4-2.4L267,498.6z"/>
				<path class="st9" d="M269.2,507c0,0-0.5-2.8-1.7-3.1c0,0,1.8-0.8,1.7,3.3"/>
			</g>
		</g>
		<rect class="st106" width="514.5" height="516.1"/>
	</g>
</g>
</svg>
