<svg xmlns="http://www.w3.org/2000/svg" xmlns:xlink="http://www.w3.org/1999/xlink" viewBox="0 0 514.5 871.35"><defs><style>.cls-1{fill:#4e3136;}.cls-2{fill:#024e6c;}.cls-3{fill:#fed4af;}.cls-4{fill:#fbbd92;}.cls-5{fill:#ca9e6f;}.cls-6{fill:#f2e094;}.cls-7{fill:#f2738e;}.cls-8{fill:#73a7be;}.cls-9{fill:#197daa;}.cls-10{fill:#f7eb98;}.cls-11{fill:#bc734f;}.cls-12{fill:#252a3d;}.cls-13{fill:#c0ccdd;}.cls-14{fill:#1f2746;}.cls-15{fill:#6d5539;}.cls-16{fill:#fff;}.cls-17{fill:#4e3c25;}.cls-18{fill:#f0c776;}.cls-19{fill:#da587c;}.cls-20{fill:#f7a8a7;}.cls-21{fill:#f3f3f3;}.cls-22{fill:#31aaba;}.cls-23{fill:#010101;opacity:0.1;isolation:isolate;}.cls-24{fill:#35b7ae;}.cls-25{fill:url(#linear-gradient);}.cls-26{fill:none;}</style><linearGradient id="linear-gradient" x1="431.23" y1="261.82" x2="431.24" y2="261.86" gradientTransform="matrix(160, 0, 0, -91, -68826.01, 24527.27)" gradientUnits="userSpaceOnUse"><stop offset="0" stop-color="#fff" stop-opacity="0.1"/><stop offset="1" stop-color="#fff" stop-opacity="0"/></linearGradient></defs><title>Asset 11</title><g id="Layer_2" data-name="Layer 2"><g id="Layer_1-2" data-name="Layer 1"><path class="cls-1" d="M261.6,861s-5.2,6.8-5.5,7.8.1,1.7,2.5,2.5,10.5-7.8,10.8-8.6-.9-3.1-.9-3.1S265.1,863.6,261.6,861Z"/><path class="cls-1" d="M248.1,854.7s-5.5,6.3-5.5,7.2a3.19,3.19,0,0,0,2.9,2.6c1.7.2,10-7.7,10.3-8.3s-.7-3-.7-3Z"/><path class="cls-2" d="M242.9,808.8s-.8,22.4-.8,24.4,4.6,17.2,5.2,19.8a2.21,2.21,0,0,0,1.5,2.4c1.5.5,5.9.9,7.1-3,0,0-4.2-15-4.4-18.3s.6-9.1,2.2-14.5c0,0,.9,17.7,1.6,20.3s5.5,20.3,5.5,20.3.6,3,4.8,1.9,3.3-4.1,3.3-4.1-4.2-13.7-3.5-18.9c0,0,.6-32.8.3-36,0,0-15.1-3-19.4-5.9C246.3,797.2,242.9,799,242.9,808.8Z"/><path class="cls-3" d="M238.6,795.6a10.74,10.74,0,0,0-1.2,3c-.3,1.3-.3,3.4-1,4.6,0,0-.9.8.9.9s1.6-1.3,1.6-1.3-.8,5.1,2.6,5.1l.8-.1-.3-10.7C241.9,797,239.5,796.4,238.6,795.6Z"/><path class="cls-4" d="M238.6,795.5a8,8,0,0,0,2.3,1.6v1a3.82,3.82,0,0,0-2.7-1.7Z"/><path class="cls-5" d="M252.9,823.8c-.3,0-1,.6-.9,2.3s-.3,15.1-.3,15.1a1.59,1.59,0,0,0,1.1,2.2c1.8.6,3.4,1.6,4.6.9s19.5-11.7,19.5-11.7a1.69,1.69,0,0,0,1.2-1.7c0-1.4.1-16.6.1-16.6l-5.7.4Z"/><path class="cls-6" d="M248.2,756.8s-2.5,3-2.3,9.8-.1,21.7,0,23.5.3,5.1.3,5.1,5.3,4,9.8,3.8a43.27,43.27,0,0,1-.6-11.2c.6-5.1-.5-13.8.3-17.1s4.4-9.4,5-13.2l-.4-1.4Z"/><path class="cls-7" d="M248.4,762.1c-.2.2.4,1.9,1.1,2.9a1.07,1.07,0,0,0,1.6.3l1.5-2.1-1.7-2.1A10,10,0,0,0,248.4,762.1Z"/><path class="cls-7" d="M249.5,764.7s-1.3,8.6-2.4,16.6a42.59,42.59,0,0,0,2.8,7.2s2.5-4.3,3.2-5.7c-.1-.3-2.3-17.8-2.3-17.8Z"/><path class="cls-8" d="M260.2,755.4s1.6,1.1-.3,5.1-4.9,9-4.6,16,.1,13.7.3,18.5c.2,4.1-.5,7.5-.1,10a27.2,27.2,0,0,1,.1,5.7,11.13,11.13,0,0,0,6.8.9s6.1-.2,9.5-4.2a27,27,0,0,0-1.3-4.6s2.7-9.3,2.9-14-1.9-13.8-2.3-17.2.3-5.4-1.3-7.8-7.4-6.3-7.4-6.3-.4-3-2.4-3.8Z"/><path class="cls-8" d="M245.7,750.8a5.51,5.51,0,0,0-5.9,5.2s0,12.5-.1,15.3-.8,15.6-.9,17.5a13.8,13.8,0,0,1-.2,2.5,7,7,0,0,0-.4,1.9,11,11,0,0,0,.2,2.2,7.19,7.19,0,0,0,2.4,1.6s-.4,6.4-.3,9.1a7,7,0,0,0,2.2,2.7c1.4.9,2.2,1.7,2.9,1.3s-.1-3,.1-5.6.4-13.8.4-19,.3-9.9,0-13.5-.4-12.5,1.8-15.1C248.1,757.1,245.6,755.5,245.7,750.8Z"/><path class="cls-9" d="M243,757.5c0,1.7-.1,3.3-.1,5s-.1,3.3,0,5,.2,3.3.2,5-.1,3.3-.2,5-.3,3.3-.4,5-.3,3.3-.4,5l-.5,5c-.2,1.7-.3,3.3-.6,5,0-1.7.1-3.3.2-5l.3-5c.1-1.7.2-3.3.3-5a41.54,41.54,0,0,0,.3-4.9c.1-1.7.2-3.3.3-5s-.1-3.3,0-5A66.87,66.87,0,0,1,243,757.5Z"/><path class="cls-10" d="M250.8,761.2a26.93,26.93,0,0,0,9.4-5.7s.6.3.7,2a36.67,36.67,0,0,1-8.3,7.1A14,14,0,0,0,250.8,761.2Z"/><path class="cls-10" d="M249.6,758s.1,2.3,1.1,3.2a13.4,13.4,0,0,1-3.6,1.7s-.1-4.5.8-6A5.15,5.15,0,0,0,249.6,758Z"/><path class="cls-9" d="M241.2,762.1l.9,2.9a7.37,7.37,0,0,1,.4,1.4,4.29,4.29,0,0,1,0,1.6h-.1a9.13,9.13,0,0,1-.8-1.3,6.64,6.64,0,0,1-.3-1.5c0-1.1-.2-2-.1-3.1Z"/><path class="cls-9" d="M245.8,804.3c.6-7.3.7-26,.5-28.6-.2-3.7-.7-10.9.3-15.2L248,757l-1.4-2s-1.9,2.6-2.2,10.6c0,0-.7,6.2-1,7.2,0,0,2,3.2,1.7,5.2s-1.9,3.5-1.1,7.6c.6,3.1,1.4,11.2,1.7,14.6.1,1,0,5.3,0,5.3Z"/><path class="cls-3" d="M250.8,761.2a24.13,24.13,0,0,0,9.3-5.7l-.2-1.9c.5.2,1.1-.2,1.7-.6s1.1-2.4,1-4.6-1.9-1.6-1.9-1.6-.3-7.3-.2-7.7a4.22,4.22,0,0,0-1.3-3.7c-6.3-3.7-9.2.2-11.7.5s-2,4.1-2,4.1v4.9a3.78,3.78,0,0,0,.1,1.4,2.52,2.52,0,0,1,.1,1.5,8.06,8.06,0,0,0-.2,3c-.1,5.9,3.4,7,3.8,7.1S249.5,759.9,250.8,761.2Z"/><path class="cls-11" d="M245,734.4a2.48,2.48,0,0,0,2.6.4c1.6-.6,5.4-3.7,7.6-3s6.5,2.4,6.9,3.5a4.33,4.33,0,0,1,0,2.4s1.3.4,1.3,2.6-.2,6.6-.7,8.1c0,0-.6-2.2-2.4-1a4.14,4.14,0,0,0-1,2.8l-.1,1.6-1.6.7.2-1.7a2.39,2.39,0,0,0-.5-1.4,6.91,6.91,0,0,1-1.6-2.9,2.45,2.45,0,0,1,.8-2.5l2.3-2.2-3.6,2.1a4.63,4.63,0,0,1-4.2.1l-5.5-3.1C245.4,740.8,242.4,738.9,245,734.4Z"/><path class="cls-4" d="M249.6,758a7,7,0,0,0,5.6-.7,8.14,8.14,0,0,0,2.6-3.3s.4,2.2-3,3.9c-1.4.7-2.5.6-3.5,1.2-.5.3-.7,1-.6,2A5.82,5.82,0,0,1,249.6,758Z"/><path class="cls-4" d="M245.7,746.1a7.07,7.07,0,0,0,3,1.8,24.77,24.77,0,0,0,4,1.5c2.4.3,3-.3,3-.3s-.3,1.5-3,1a15,15,0,0,1-6.5-3A2.43,2.43,0,0,0,245.7,746.1Z"/><path class="cls-4" d="M260,753.6a1.69,1.69,0,0,1-.7-.3c-.2-.1-.4-.6-.7-.7,0,0,.2,3.9-2.1,5.8a23.63,23.63,0,0,0,3.7-3Z"/><path class="cls-5" d="M252.8,824.7l3.9,2.2a.75.75,0,0,0,.9,0l20.5-12.2a.56.56,0,0,0,0-.9l-3.8-2.1a1.27,1.27,0,0,0-1.2,0c-1.8,1-7.3,4.3-12.2,7.1-3.5,2.1-6.7,3.9-8.1,4.9A.54.54,0,0,0,252.8,824.7Z"/><path class="cls-4" d="M259.7,749.3s.8-1.6,1.7-1.1.4,3.5-.3,4.1a.94.94,0,0,1-1.6-.6s0-.7.6-.8,0,.9.5.7a2.53,2.53,0,0,0,.7-2.4c-.3-.6-.3,1.3-.4,1.5s-1,0-.7-.6C260.4,749.3,260.2,749.1,259.7,749.3Z"/><path class="cls-9" d="M238.6,791.6s.6,1,2.8,1.5l-.1.4C241.2,793.5,239,793.2,238.6,791.6Z"/><path class="cls-3" d="M263.2,808.6a15.35,15.35,0,0,0-1.7,3.9s-.8,1.8-.4,2.7.5,1.4.5,1.4l1.6-1.1s-.4-1.6.5-1.6,1.4,2.2,1.6,2.7-1.6,1.7-1.4,2.2.7,1.6,2.4.3c0,0,2.5-1.3,3.3-2.9s-.7-5.7-1.4-6.9C268.2,809.6,265.6,811.2,263.2,808.6Z"/><path class="cls-9" d="M263.2,766.5a14.22,14.22,0,0,0-1.3,5,10.85,10.85,0,0,0,.8,4.7,88.22,88.22,0,0,1,2,8.9,9.86,9.86,0,0,1,.3,2.4v2.4c0,1.6-.1,3.2-.2,4.8-.2,3.2-.3,6.4-.6,9.6h0a20.26,20.26,0,0,0-.6,4.2v-.1c.1.2.3.3.5.5a1.33,1.33,0,0,0,.8.3,4.67,4.67,0,0,0,1.7.3,4.19,4.19,0,0,0,1.6-.4,3,3,0,0,0,1-1.4h0c.6-2.2,1.1-4.3,1.7-6.4-.4,2.2-.9,4.4-1.3,6.5h0a4.25,4.25,0,0,1-1,1.7,3,3,0,0,1-1.8.6,6.28,6.28,0,0,1-1.9-.3,2.72,2.72,0,0,1-1.7-1.2h0v-.1a21.18,21.18,0,0,1,.5-4.4v.1c.3-3.1.3-6.4.5-9.6.1-1.6.2-3.2.2-4.8a19.22,19.22,0,0,0,0-2.4,19.67,19.67,0,0,0-.3-2.4c-.6-3.1-1.3-6.3-2.1-9.3A10.72,10.72,0,0,1,263.2,766.5Z"/><path class="cls-9" d="M263.8,804.3a9.38,9.38,0,0,0,1.5.6,4,4,0,0,0,1.5.3c.5,0,1,.1,1.5.1s1-.1,1.6-.1a7.14,7.14,0,0,1-1.5.8,3.22,3.22,0,0,1-1.7.1,5.78,5.78,0,0,1-1.7-.6A2.78,2.78,0,0,1,263.8,804.3Z"/><path class="cls-12" d="M246.2,794.5a17.89,17.89,0,0,0,9.4,4l-.2,2v1.8s-6.3-.9-9.3-3.7Z"/><path class="cls-13" d="M248.6,796.2a6.79,6.79,0,0,0,0,4.2,7.16,7.16,0,0,0,4.2,1.4l.1-3.9A15.4,15.4,0,0,1,248.6,796.2Z"/><path class="cls-14" d="M248.9,802.6l1.7,7.2,4.2,2.8-2.6-.7a12.06,12.06,0,0,1,1.5,6.3v2s.3-6.5-3.7-9.4Z"/><path class="cls-4" d="M236.4,803.3s1.1,1.2,2.3-.7a4.78,4.78,0,0,0,.5-1.3c.1-.5.2-.9.2-.9s.6.2.1,1.4a14.81,14.81,0,0,1-.8,1.7,1.94,1.94,0,0,1-2,.5s-.6-.2-.5-.5Z"/><path class="cls-15" d="M264.5,814.7l-3.3,2.3s-.8.3-.8,1.9v2.6l1.6.6,1.3-.7v-1.7s-.1-1,.3-1.4,1.1-.7,1.7-1.2A5.42,5.42,0,0,0,264.5,814.7Z"/><ellipse class="cls-16" cx="250" cy="791.5" rx="0.5" ry="0.7"/><path class="cls-4" d="M239.4,800.6s1.1.1,1.3-.6v.9s-.3.3-1.3.3Z"/><path class="cls-9" d="M255.5,799.5s.4-2.7.7-8.6,2.7-12.9,2.7-13.2-1.2-4-1.2-4,1.5-.1,2-.7-.5-3.7.9-7.2,2.2-5.5,1.8-8.6c0,0-.6-3-2.4-3.6l.2,1.9s2,1.1-1,6.3c0,0-4.3,6.9-4.1,14.2,0,0,.3,8,.1,10.2S255.8,797,255.5,799.5Z"/><path class="cls-17" d="M261.9,822l1.3-.7v-2.1a1.49,1.49,0,0,1,.8-1.4l1.3-1a8.74,8.74,0,0,0-.3-1.4,30.28,30.28,0,0,1-2.4,1.9C261.6,818.2,261.9,822,261.9,822Z"/><path class="cls-9" d="M260.4,769.5a9,9,0,0,0,.6,3.1l.7.9a7.57,7.57,0,0,1,.1,1.5,5.43,5.43,0,0,1-1.5-2.5,7.72,7.72,0,0,1-.2-1.5A8,8,0,0,1,260.4,769.5Z"/><path class="cls-18" d="M246.2,794.5s2.9,3.1,9.4,4c0,0-.3-6.2-.4-8.4s.1-10.2,0-10.9a28.77,28.77,0,0,1,1.9-13s1.4-3.3,2.5-5.2a20.69,20.69,0,0,0,1.2-3.3s-4.6,5.2-8.2,7a20.18,20.18,0,0,0,6.9-5s-3.7,5.5-4.4,10.2-.4,19.5-.4,21.6.3,6.1.3,6.1S251.5,797.6,246.2,794.5Z"/><path class="cls-18" d="M247.5,758.2a39.3,39.3,0,0,0-.3,4.8,3.14,3.14,0,0,0,1.2-.4,6.18,6.18,0,0,0,1,2.4s-1.3,8.5-1.6,10.5l1.3-10.3-1-1.8a7.1,7.1,0,0,1-1.4.2,51.53,51.53,0,0,0-.2,7.4,180.51,180.51,0,0,1-.4,23.7s.1-13.6.2-15.4a75.21,75.21,0,0,0-.3-8.7s-.2-7,.5-9.9A26,26,0,0,1,247.5,758.2Z"/><path class="cls-19" d="M248.6,763s1.6-.9,2.1-1.3l1,2.2a7.59,7.59,0,0,1-.9,1.5l-1.3-.5,1.3.8,1.9,16.8s-2,4.3-2.8,5.9c0,0,2.6-3.6,3.2-5.7,0,0-2.2-16.7-1.9-17.5a14.17,14.17,0,0,0,1.1-1.6,11.14,11.14,0,0,0-1.4-2.5l-2.3,1.3Q248.3,762.55,248.6,763Z"/><polygon class="cls-20" points="249 768.1 251.2 770.5 251.5 772.8 248.6 770.5 249 768.1"/><polygon class="cls-20" points="248.2 773 251.9 776.1 252.3 778.9 247.9 775.4 248.2 773"/><polygon class="cls-20" points="247.5 777.8 252.5 781.7 252.7 782.6 251.9 784.2 247.2 780.3 247.5 777.8"/><path class="cls-20" d="M247.9,783.8l3.2,2.1-1.3,2.6A33.34,33.34,0,0,1,247.9,783.8Z"/><path class="cls-14" d="M250.3,811s-2.8-.7-3.6-2c0,0,2.5.9,3.6,1.2Z"/><path class="cls-4" d="M263.2,808.6s.4,1.4,3.7,1.5c0,0,1.1,0,1.4-.5a14.24,14.24,0,0,1,1.5,4.9s-1.2-2.6-2.5-3.1a5.23,5.23,0,0,1-4.4-2.4Z"/><path class="cls-4" d="M265.4,817s-.5-2.8-1.7-3.1c0,0,1.8-.8,1.7,3.3"/><path class="cls-21" d="M257.2,444.8c-50.8,0-105.5,8.2-105.5,26.3,0,4,2.8,7.5,7.6,10.6l62.3,74.8a29.88,29.88,0,0,1,6.9,18.6v58.4c0,9.1,14.9,13.2,28.8,13.2s28.8-4.1,28.8-13.2V575.1a28.76,28.76,0,0,1,6.9-18.6l5.3-6.4h30.6c7.9,0,15.1-4.5,18-11.4l5-12.3a13.61,13.61,0,0,0-1.9-13.7,17,17,0,0,0-13.4-6.4h-1.8l20.4-24.5c4.8-3.1,7.6-6.6,7.6-10.6C362.7,453.1,308,444.8,257.2,444.8Zm79.3,70.3a6.93,6.93,0,0,1,5.5,2.6,5.6,5.6,0,0,1,.8,5.7l-5,12.3a9.67,9.67,0,0,1-9,5.7H305.5l21.9-26.3Z"/><path class="cls-22" d="M257.2,454.8c61.8,0,95.5,11.9,95.5,18s-33.7,18-95.5,18-95.5-11.9-95.5-18S195.4,454.8,257.2,454.8Z"/><path class="cls-23" d="M271.6,468c37.2,0,64.2,3.2,79.8,6.7a3.43,3.43,0,0,0,1.4-2.3c0-6-33.7-17.6-95.5-17.6s-95.5,11.6-95.5,17.6c0,2.3,5,5.4,14.5,8.4C178.2,476.2,211.6,468,271.6,468Z"/><path class="cls-24" d="M284.9,551.4a38.54,38.54,0,0,0-8.9,24.1v58.6c-.6,1.3-7.3,4.7-19.3,4.7s-18.7-3.3-19.3-4.4V575.5a37.41,37.41,0,0,0-8.9-24.1l-51.8-62.6c20.7,5.7,51,8.4,80,8.4s59.3-2.7,80-8.4l-51.8,62.6Z"/><path class="cls-25" d="M276,575.3a37.41,37.41,0,0,1,8.9-24.1l51.8-62.4c-20.7,5.7-51,8.4-80,8.4s-59.3-2.7-80-8.4l99.3,91v-4.5Z"/><rect class="cls-26" width="514.5" height="516.1"/></g></g></svg>