<svg xmlns="http://www.w3.org/2000/svg" xmlns:xlink="http://www.w3.org/1999/xlink" viewBox="0 0 514.5 646.7"><defs><style>.cls-1,.cls-72{fill:none;}.cls-2{fill:#f3f3f3;}.cls-3{fill:#31aaba;}.cls-4{fill:#010101;opacity:0.1;}.cls-4,.cls-71{isolation:isolate;}.cls-5{fill:#35b7ae;}.cls-6{fill:url(#linear-gradient);}.cls-7{fill:#a5b2c7;}.cls-8{fill:#6d798b;}.cls-9{fill:#fed4af;}.cls-10{fill:#fbbd92;}.cls-11{fill:#d2d2d2;}.cls-12{fill:#82596b;}.cls-13{fill:#28151a;}.cls-14{fill:#4ec0af;}.cls-15{fill:#ecac67;}.cls-16{fill:#d3e7b9;}.cls-17{fill:#d08245;}.cls-18{fill:#129491;}.cls-19{fill:#e9edf7;}.cls-20{fill:#5c3d50;}.cls-21{fill:#745b52;}.cls-22{fill:#acadae;}.cls-23{fill:#ab6087;}.cls-24{fill:#3cc3d9;}.cls-25{fill:#abddde;}.cls-26{fill:#eaae9d;}.cls-27{fill:#cf8885;}.cls-28{fill:#2d9fb2;}.cls-29{fill:#884b6c;}.cls-30{fill:#454043;}.cls-31{fill:#4e3136;}.cls-32{fill:#024e6c;}.cls-33{fill:#ca9e6f;}.cls-34{fill:#f2e094;}.cls-35{fill:#f2738e;}.cls-36{fill:#73a7be;}.cls-37{fill:#197daa;}.cls-38{fill:#f7eb98;}.cls-39{fill:#bc734f;}.cls-40{fill:#252a3d;}.cls-41{fill:#c0ccdd;}.cls-42{fill:#1f2746;}.cls-43{fill:#6d5539;}.cls-44,.cls-71{fill:#fff;}.cls-45{fill:#4e3c25;}.cls-46{fill:#f0c776;}.cls-47{fill:#da587c;}.cls-48{fill:#f7a8a7;}.cls-49{fill:#c45c7a;}.cls-50{fill:#73452c;}.cls-51{fill:#fccfb7;}.cls-52{fill:#69446b;}.cls-53{fill:#5a395d;}.cls-54{fill:#f38aaa;}.cls-55{fill:#edaa42;}.cls-56{fill:#a76f69;}.cls-57{fill:#a16443;}.cls-58{fill:#fab6a1;}.cls-59{fill:#e96997;}.cls-60{fill:#9c605b;}.cls-61{fill:#fabca4;}.cls-62{fill:#f6ec49;}.cls-63{fill:#9b5e3f;}.cls-64{fill:#aec3e5;}.cls-65{fill:#383958;}.cls-66{fill:#765975;}.cls-67{fill:#59425c;}.cls-68{fill:#a49ccc;}.cls-69{fill:#835d39;}.cls-70{fill:#012f3b;}.cls-71{opacity:0.31;}.cls-72{stroke:#012f3b;stroke-miterlimit:10;stroke-width:0.44px;}.cls-73{fill:#8481be;}.cls-74{fill:#c8c5bd;}.cls-75{fill:#cadaf0;}.cls-76{fill:#745d9e;}.cls-77{fill:#5d4980;}.cls-78{fill:#cd8079;}.cls-79{fill:#056772;}.cls-80{fill:#ef5b79;}.cls-81{fill:#a1d28e;}.cls-82{fill:#81b16d;}.cls-83{fill:#bd6d6a;}.cls-84{fill:#194353;}.cls-85{fill:#f28186;}.cls-86{fill:#da5a7a;}.cls-87{fill:#fabfa0;}.cls-88{fill:#1d4e5e;}.cls-89{fill:#393537;}.cls-90{fill:#fee495;}.cls-91{fill:#b16979;}.cls-92{fill:#606281;}.cls-93{fill:#4e506a;}.cls-94{fill:#7a93a1;}.cls-95{fill:#fccdb0;}.cls-96{fill:#e98b41;}.cls-97{fill:#cfd7b0;}.cls-98{fill:#ffddb8;}.cls-99{fill:#9ea372;}.cls-100{fill:#57585a;}.cls-101{fill:#a2b4bf;}.cls-102{fill:#516780;}.cls-103{fill:#eeb59b;}.cls-104{fill:#fabaa3;}.cls-105{fill:#f27385;}.cls-106{fill:#756f90;}.cls-107{fill:#e8e9f5;}.cls-108{fill:#826e74;}.cls-109{fill:#ffcd64;}.cls-110{fill:#f9e8e3;}.cls-111{fill:#dfdaed;}.cls-112{fill:#fcb238;}.cls-113{fill:#645e7b;}.cls-114{fill:#c65e6f;}.cls-115{fill:#f3b29e;}.cls-116{fill:#e3978b;}.cls-117{fill:#c8c4cc;}.cls-118{fill:#f79058;}.cls-119{fill:#d4dac2;}.cls-120{fill:#e67b50;}.cls-121{fill:#b7b4bc;}.cls-122{clip-path:url(#clip-path);}.cls-123{fill:#c0b773;}.cls-124{fill:#2d292c;}.cls-125{fill:#ce8f6e;}.cls-126{fill:#8db6d9;}.cls-127{fill:#7d9dc9;}.cls-128{fill:#ccd5e4;}.cls-129{fill:#c77966;}.cls-130{fill:#aebbd3;}.cls-131{fill:#debd5b;}</style><linearGradient id="linear-gradient" x1="2723.38" y1="269.39" x2="2723.39" y2="269.34" gradientTransform="translate(-435570.24 -23812.33) scale(160 91)" gradientUnits="userSpaceOnUse"><stop offset="0" stop-color="#fff" stop-opacity="0.1"/><stop offset="1" stop-color="#fff" stop-opacity="0"/></linearGradient><clipPath id="clip-path"><path class="cls-1" d="M238.9,483s42.5,0,48.5-.5L285.9,426l-12-31-27.5,1-17.5,59Z"/></clipPath></defs><title>Asset 3</title><g id="Layer_2" data-name="Layer 2"><g id="Layer_1-2" data-name="Layer 1"><path class="cls-2" d="M257.2,444.8c-50.8,0-105.5,8.2-105.5,26.3,0,4,2.8,7.5,7.6,10.6l62.3,74.8a29.88,29.88,0,0,1,6.9,18.6v58.4c0,9.1,14.9,13.2,28.8,13.2s28.8-4.1,28.8-13.2V575.1a28.76,28.76,0,0,1,6.9-18.6l5.3-6.4h30.6c7.9,0,15.1-4.5,18-11.4l5-12.3a13.61,13.61,0,0,0-1.9-13.7,17,17,0,0,0-13.4-6.4h-1.8l20.4-24.5c4.8-3.1,7.6-6.6,7.6-10.6C362.7,453.1,308,444.8,257.2,444.8Zm79.3,70.3a6.93,6.93,0,0,1,5.5,2.6,5.6,5.6,0,0,1,.8,5.7l-5,12.3a9.77,9.77,0,0,1-9,5.7H305.5l21.9-26.3Z"/><path class="cls-3" d="M257.2,454.8c61.8,0,95.5,11.9,95.5,18s-33.7,18-95.5,18-95.5-11.9-95.5-18S195.4,454.8,257.2,454.8Z"/><path class="cls-4" d="M271.5,468c37.2,0,64.2,3.2,79.8,6.7a3.43,3.43,0,0,0,1.4-2.3c0-6-33.7-17.6-95.5-17.6s-95.5,11.6-95.5,17.6c0,2.3,5,5.4,14.5,8.4C178.2,476.2,211.6,468,271.5,468Z"/><path class="cls-5" d="M284.8,551.4a38.54,38.54,0,0,0-8.9,24.1v58.6c-.7,1.3-7.3,4.7-19.3,4.7s-18.7-3.3-19.3-4.4V575.5a37.41,37.41,0,0,0-8.9-24.1l-51.7-62.6c20.7,5.7,51,8.4,80,8.4s59.3-2.7,80-8.4l-51.9,62.6Z"/><path class="cls-6" d="M276,575.3a37.41,37.41,0,0,1,8.9-24.1l51.9-62.4c-20.7,5.7-51,8.4-80,8.4s-59.3-2.7-80-8.4l99.3,91Z"/><path class="cls-7" d="M186.4,390.4s.8.1.9.5a22.08,22.08,0,0,1,0,2.6c-.1.5-.7.6-.7.6l-.2-.5Z"/><path class="cls-8" d="M186.6,390.6s.5.2.4.4a.78.78,0,0,1-.4.3Z"/><path class="cls-9" d="M186.4,370.9a42,42,0,0,0-.3,8.6c.4,3.7.7,13.8.7,14.5a4.79,4.79,0,0,1,1.7,3.1c.3,2.2.5,4.2-.3,4.6s-1.1.3-1.1.3.4,3.7-2.7,3.4l-1.8-9.8.1-24Z"/><path class="cls-8" d="M186.7,393.9a3.48,3.48,0,0,1-2.9.9l-1.4-.3-.1-2.6s.3.8,2.2.7a2,2,0,0,0,2-1.4s.1-.1.2.3A4.8,4.8,0,0,1,186.7,393.9Z"/><path class="cls-10" d="M183.6,396.2s.7,2.1,2.1,2.3a1.5,1.5,0,0,1,1,1.5l.2,2.1s-.8-.3-.8-2.4c0,0,0-.5-1-.8A2.31,2.31,0,0,1,183.6,396.2Z"/><path class="cls-11" d="M166.4,459.6s5,6.8,5.3,7.8-.1,1.7-2.5,2.5-10.5-7.8-10.8-8.6.7-2.5.7-2.5S162.9,462.2,166.4,459.6Z"/><path class="cls-11" d="M179.8,453.5s5.5,6.1,5.5,7a3.19,3.19,0,0,1-2.9,2.6c-1.7.2-10-7.7-10.3-8.3s.7-3,.7-3Z"/><path class="cls-12" d="M184.7,407.7s.8,22.4.8,24.4-4.6,17.2-5.2,19.8a2.21,2.21,0,0,1-1.5,2.4c-1.5.4-5.9.9-7.1-3,0,0,4.2-15,4.4-18.3s-.6-9.1-2.2-14.5c0,0-.9,17.7-1.6,20.3s-5.5,20.3-5.5,20.3-.6,3-4.8,1.9-3.3-4.1-3.3-4.1,4.2-13.7,3.5-18.9c0,0-.6-32.8-.3-36,0,0,17.1-4.4,21.4-7.2C183.2,394.6,184.7,397.8,184.7,407.7Z"/><path class="cls-13" d="M183,391a11.69,11.69,0,0,1,.3,4.4s-5.3,7.8-16.9,5.1l-2.6-6.4C163.7,394.2,174.5,398.3,183,391Z"/><path class="cls-9" d="M175.8,356.6a11.7,11.7,0,0,1,.9,5.1l-.8,5s-1.4-3.7-2.9-5.2-4.4-3.6-4.9-4.2.6-3.8.6-3.8l3.1-2Z"/><path class="cls-14" d="M166.9,352.7a.75.75,0,0,0,.6.3s-.6,2-.3,2.7c0,0,2.9,3.8,4.9,4.7s3.7,6,3.7,6,.9-4.9.9-5.7l-.9-3.2,2.4-1a75,75,0,0,0,2.8-7.1s5.1,0,5.3,7.4c-.1.3.3,9,.3,9s.8-.4,1,1.1l-.2,3.3a4.64,4.64,0,0,1-3.5,2.4s.3,14.1-.8,18.7c0,0-7.1,10.7-21.2,3.7a14.5,14.5,0,0,1-2.6-7.7c0-4.2,6.7-32.1,6.7-32.1Z"/><path class="cls-15" d="M168.4,396.5c-.2-.1-.3,0-.3.2s-.2.3-.3.5a2,2,0,0,0-.3,1.1c-.1.3-.2.8-.3,1.1l-.4,1.2a4.36,4.36,0,0,1-1.9,1.9,4.85,4.85,0,0,1-2.7.5,6.31,6.31,0,0,1-4.5-2.4,12,12,0,0,1-1.3-2.1,16.88,16.88,0,0,1-.8-2.4h.1a11.78,11.78,0,0,0,2.5,4,6.3,6.3,0,0,0,4.1,2.1,4.34,4.34,0,0,0,4-2c.4-.7.5-1.5.9-2.2.2-.3.3-.7.5-1s.2-.3.3-.5a.28.28,0,0,1,.4,0Z"/><ellipse class="cls-16" cx="176.5" cy="373.7" rx="0.6" ry="0.9"/><path class="cls-15" d="M162.1,392.2s6.4,3.1,6.9,4a13.38,13.38,0,0,1,.2,2c.1,5.2-.3,18.4-.9,19.6-1.1,2.2-3.7.9-4.9.4l-6.8-3.9s-1.7-.8-1.6-5.2c.1-4.2.5-11.8.5-11.8s-.8-1.2-.3-4.4S160.1,390.5,162.1,392.2Z"/><path class="cls-17" d="M168.4,396.5a1.21,1.21,0,0,0-1.7,1.3c0,2-.2,3.7-.9,4.5s-7,3.6-10.3-5a8.18,8.18,0,0,0,4.2,5.8s4.1,2,6.6-.9a5.72,5.72,0,0,0,.7-3.1C166.9,397.1,167.2,396.6,168.4,396.5Z"/><path class="cls-9" d="M156.1,380.4s-1.3,4.1.3,13.7c0,0,3.2,12.6,2.8,14.6a3.74,3.74,0,0,0,4.5-1s-1.9-14.1-1.7-18.9.2-7.2.2-7.2S160.7,377.8,156.1,380.4Z"/><path class="cls-18" d="M176,358s.9,1.4.2,5.9l.8-2.4a28,28,0,0,0-.6-3.8l-.3-.9-.4.5Z"/><path class="cls-14" d="M164.4,364.2c1.7,1.4,1.4,3,1.6,6.4s-3.1,12.5-3.1,12.5l-1.6.3c-5.7.4-6.8-3.1-6.8-3.1s.4-4.1,1-4.2c.4-2.1.8-4.5.9-5.3.3-3.5-.3-5.4,1.3-7.8s7.4-6.3,7.4-6.3.4-3,2.4-3.8l-.2,1.8"/><path class="cls-9" d="M163.6,407.5s1.3.7,2,3.3a9.44,9.44,0,0,1,.4,2.7,6.84,6.84,0,0,1-.3,2.2c-.2.4-1.4.8-1.6-.3s.3-3-.6-3c0,1.5-.4,2.5-.3,3.4.1.5.9,3,.7,3.6s-.7,1.6-2.4.3a10.05,10.05,0,0,1-3-4.6c-.4-1.7.4-5,.7-6.8C159.3,408.5,161.3,410.1,163.6,407.5Z"/><path class="cls-15" d="M167.2,398.5a92.15,92.15,0,0,1,4.3-12.5c3.3-7.7,10.9-29.6,9-33.7l.3-1.7s2.3,1.9.3,10.6-9.1,27.6-9.8,29.5-2.4,7.1-2.8,9S166.7,400.3,167.2,398.5Z"/><path class="cls-18" d="M165.4,365.7a11.56,11.56,0,0,1,.8,4.5,18.76,18.76,0,0,1-.6,4.6c-.9,2.9-2.3,8.3-2.7,8.4s-.7.1-.6-.6c.5.1,1.5-3.1,1.3-3.8.1-.2,0-.2.1-.4.5-1.4.8-2.8,1.1-3.9a21.35,21.35,0,0,0,.8-4.4A22,22,0,0,0,165.4,365.7Z"/><path class="cls-19" d="M178.9,395.2s.8,1.4.1,4.3a12.91,12.91,0,0,1-4.2,1.7l-.1-4.2A9.45,9.45,0,0,0,178.9,395.2Z"/><path class="cls-17" d="M168.2,395.6s-1,2.2-.7,2.8,1,1.2,1.6-1c0,0,.1,0,.1.5,0,0-.3,1.2-1,1.3s-1.2-.8-.7-2.1a5.5,5.5,0,0,0,.5-1.5l-5.7-3.1v-.3C162.1,392.2,167.5,395,168.2,395.6Z"/><path class="cls-18" d="M175.9,366.6s-.3-8.7,4.9-6.2C180.8,360.5,176.9,359.3,175.9,366.6Z"/><polygon class="cls-18" points="178.3 356.5 180.7 360.4 179.7 360.1 177.8 356.6 178.3 356.5"/><path class="cls-20" d="M178.7,401.4l-1.7,7.2-4.2,2.8,2.6-.7a12.06,12.06,0,0,0-1.5,6.3v2s-.3-6.5,3.7-9.4Z"/><path class="cls-9" d="M167.4,354.8l.2-1.8c-.6,0-.8-.3-1.5-.8-.9-.7-1.5-2.4-1.3-4.5s1.9-1.6,1.9-1.6.3-7.3.2-7.7a4.22,4.22,0,0,1,1.3-3.7c6.3-3.7,12,4.1,13.1,5.1s.7,4.4.7,4.4a3.78,3.78,0,0,1-.1,1.4c-.2.4-1.3,1.4-.5,2.3,1,1-1.3,7.3-2,8.2s-3.3,1.5-3.5,1.6"/><path class="cls-21" d="M171.5,331.4c-1.2.3-1.3,1-1.6,1.3a2.12,2.12,0,0,0-2.2,1.6,2.61,2.61,0,0,0-2.2,1.1,2.87,2.87,0,0,0,0,2,1.84,1.84,0,0,0-1.1,2.4,2.27,2.27,0,0,0-.4,2.6,2.67,2.67,0,0,0,.3,3.1,2.08,2.08,0,0,0,.5,2.2s.6-2.2,2.4-1a4.14,4.14,0,0,1,1,2.8l.1,1.6a1.19,1.19,0,0,0,1.4-1c.2-1.1.1-1.1.5-1.4.7-.5,1.1-1,1-2.5,0,0,2.3-1,1.6-2.7l-.7-1.3a1.92,1.92,0,0,0,2,.8s1.1,1.7,2.9.1a1.67,1.67,0,0,0,2.4-.8s1.7.8,2.3-1.3c0,0,1.6.1,1.2-2.1,0,0,.3-1.1-1.7-1.7,0,0,.3-1.7-2.4-2.2a2.15,2.15,0,0,0-2.2-1.7,1.75,1.75,0,0,0-2.6-1.4A3.57,3.57,0,0,0,171.5,331.4Z"/><path class="cls-10" d="M181.7,345.5a7.07,7.07,0,0,1-3,1.8,24.77,24.77,0,0,1-4,1.5c-2.4.3-3-.3-3-.3s1.1,1.2,3.8.7a9.87,9.87,0,0,0,5.3-2.4C181.7,346.1,181.7,345.5,181.7,345.5Z"/><path class="cls-10" d="M170.7,359.5s-3.1-2.3-4-3.8l.3-.7v-2.1a1,1,0,0,0,1.1-.2c.2-.1.4-.6.7-.7a25.58,25.58,0,0,0,.4,4.2l4.7,5.7Z"/><path class="cls-10" d="M167.8,348.6s-.8-1.6-1.7-1.1-.4,3.5.3,4.1a.94.94,0,0,0,1.6-.6s0-.7-.6-.8,0,.9-.5.7a2.53,2.53,0,0,1-.7-2.4c.3-.6.3,1.3.4,1.5s1,0,.7-.6C167,348.6,167.4,348.5,167.8,348.6Z"/><path class="cls-10" d="M179,348v4.4a2.17,2.17,0,0,1-2.4.3l.4-.5,1.2-.1.3-3.9Z"/><path class="cls-18" d="M154.5,380.4s1.8,3.9,8.3,2.8a.83.83,0,0,0,.4-.7s-6,1.1-8.5-3.3A1.84,1.84,0,0,0,154.5,380.4Z"/><path class="cls-18" d="M159.2,378.9a7.56,7.56,0,0,1-2.2-1.1,6.12,6.12,0,0,1-1.5-1.7,9.94,9.94,0,0,0,6.2,2.7,4.51,4.51,0,0,0,2.5-.5l-.3.6C163.9,378.7,163.2,379.7,159.2,378.9Z"/><path class="cls-18" d="M165.3,355.5s-.1,1.6,1.6,4.4,2.4,4.3,2.4,4.3,2.4-3.7,3.4-3.4,1.8,2.1,1.8,2.1l1.4,3.6s-2.9-6.2-3.8-4.9-3,4.3-3,4.3-3.5-6.7-3.8-8A3.34,3.34,0,0,1,165.3,355.5Z"/><path class="cls-18" d="M166.9,353.8a2.75,2.75,0,0,0,.5,2c.2.3.4.5.6.8l.7.7h0c1,.7,2,1.4,3,2.2l1.3,1.3a4.35,4.35,0,0,1,1,1.6,4.89,4.89,0,0,0-1.3-1.2c-.4-.3-1-.7-1.5-1l-3-2.1h0l-.8-.8a4.7,4.7,0,0,1-.6-.9A3.29,3.29,0,0,1,166.9,353.8Z"/><path class="cls-10" d="M175.6,358.5c0-.1-4.4.3-5.9-5.1a13.31,13.31,0,0,0,2.6,2.9c1.3,1,2.2,1.8,3.5,1.4a3.22,3.22,0,0,1,.5,1.6A1.88,1.88,0,0,0,175.6,358.5Z"/><path class="cls-18" d="M183.5,357.3l.4,15.4a4.47,4.47,0,0,0,3.5-2.4s-1.9,1.8-3,1.6C184.4,371.8,184.1,359.7,183.5,357.3Z"/><path class="cls-18" d="M183.9,367.4s1.3.3,2.7-1.6a3.21,3.21,0,0,1-2.5,2.4Z"/><path class="cls-18" d="M179.1,368.8a6.26,6.26,0,0,0,3.7-2.4,1.11,1.11,0,0,1-.5,1.3,6.76,6.76,0,0,1-3.4,1.8Z"/><path class="cls-18" d="M179.1,375.7a3.09,3.09,0,0,0,3.1-2C182.3,373.8,182.3,376.9,179.1,375.7Z"/><ellipse class="cls-16" cx="176.5" cy="382.3" rx="0.6" ry="0.9"/><ellipse class="cls-16" cx="177.1" cy="390.2" rx="0.6" ry="0.9"/><ellipse class="cls-16" cx="175.8" cy="367.8" rx="0.6" ry="0.9"/><path class="cls-12" d="M181.4,393.3s.6,3.3.2,4.4l1.3-1.1-.3-4.4Z"/><polygon class="cls-12" points="170.9 397.4 171 401.3 169.6 401.2 169.7 397.4 170.9 397.4"/><path class="cls-10" d="M174.9,358.3s.8,2.7-.5,4.3l1.5,3.7a19.11,19.11,0,0,1,.3-3.3c.3-1.4.3-5-.4-5.4C175.9,357.7,175.4,358.3,174.9,358.3Z"/><path class="cls-10" d="M184.6,401.1l.1,4.3a.81.81,0,0,0,.8-.1s-.8.4-.7-1.9C185.1,401.1,184.8,400.5,184.6,401.1Z"/><path class="cls-10" d="M155.8,382s1.7,1.7,6.4,1.3a75.89,75.89,0,0,0-.1,8.9s-.8-6.5-.6-7.3a9.46,9.46,0,0,1-4.8-.4s-.8,6.2-.4,8.9C156.3,393.3,155.1,386.3,155.8,382Z"/><path class="cls-10" d="M186.3,371.7l-.2,1.2a2.52,2.52,0,0,0-1.6,2.5c.1,1.9-.8,17.2-.8,17.2l-.5-.1-.2-.9a23.28,23.28,0,0,0,.7-4.8c0-2.1.6-12.4.3-14.1Z"/><path class="cls-18" d="M184.1,372.3s.3,13.2-1,19.2a15.21,15.21,0,0,1-14.1,5.9s10.4-.3,13.6-6.2a55.8,55.8,0,0,0,.9-6.8c.4-5.1.4-12,.4-15.2Z"/><path class="cls-22" d="M178.3,454.8l3.4,4.1A11,11,0,0,1,178.3,454.8Z"/><path class="cls-22" d="M179.8,455.4l-1.7.9A1.47,1.47,0,0,0,179.8,455.4Z"/><path class="cls-22" d="M180.8,456.5l-1.7.9C179.1,457.3,180.4,457.6,180.8,456.5Z"/><path class="cls-22" d="M182,457.6l-1.7.9A1.47,1.47,0,0,0,182,457.6Z"/><path class="cls-22" d="M164.8,461.4l3.4,4.1A10.07,10.07,0,0,1,164.8,461.4Z"/><path class="cls-22" d="M166.2,462.1l-1.7.9A1.53,1.53,0,0,0,166.2,462.1Z"/><path class="cls-22" d="M167.2,463.1l-1.7.9A1.41,1.41,0,0,0,167.2,463.1Z"/><path class="cls-22" d="M168.4,464.3l-1.7.9C166.7,465.1,168,465.4,168.4,464.3Z"/><path class="cls-22" d="M165.7,468.4s-.5-.5.7-1.4c2.8-1.9,4.1-1.6,4.1-1.6s1.8,1.8,1.2,2.9c0,0-1.6,2.2-3.8,1.4Z"/><path class="cls-22" d="M179,461.3s-.2-.3,1-1.1c2.8-1.9,4.1-1.6,4.1-1.6s1.8,1.8,1.2,2.9c0,0-2,2.2-3.8,1.4Z"/><path class="cls-22" d="M158.4,460.1a40.23,40.23,0,0,0,7.8,7.8l-.1.8s-5.4-3.8-7.7-7.4A3.63,3.63,0,0,1,158.4,460.1Z"/><path class="cls-22" d="M172.2,453.8s1.7,3,7.8,7.4l.1.8s-5.6-3.5-7.9-7.1A2.87,2.87,0,0,1,172.2,453.8Z"/><path class="cls-20" d="M177.6,409.6s4.4-2.4,4.3-4l-4.5,3.2Z"/><path class="cls-7" d="M286.9,136.3s-.8.1-.9.5a22.08,22.08,0,0,0,0,2.6c.1.5.7.6.7.6l.2-.5Z"/><path class="cls-8" d="M286.8,136.5s-.5.2-.4.4a.78.78,0,0,0,.4.3Z"/><path class="cls-9" d="M290.8,117.4l.1,24-1.8,9.8c-3.1.3-2.7-3.4-2.7-3.4s-.3.2-1.1-.3-.5-2.4-.3-4.6a4.45,4.45,0,0,1,1.7-3.1c0-.7.3-10.7.7-14.5a51.72,51.72,0,0,0-.3-8.6Z"/><path class="cls-8" d="M286.7,139.8a3.48,3.48,0,0,0,2.9.9l1.4-.3.1-2.6s-.3.8-2.2.7a2,2,0,0,1-2-1.4s-.1-.1-.2.3S286.4,139.7,286.7,139.8Z"/><path class="cls-10" d="M289.7,142.1s-.7,2.1-2.1,2.3a1.5,1.5,0,0,0-1,1.5l-.2,2.1s.8-.3.8-2.4c0,0,0-.5,1-.8A2.37,2.37,0,0,0,289.7,142.1Z"/><path class="cls-11" d="M314.2,204.6s1,1.7.7,2.5-8.4,9.4-10.8,8.6-2.8-1.6-2.5-2.5,5.3-7.8,5.3-7.8C310.4,208.1,314.2,204.6,314.2,204.6Z"/><path class="cls-11" d="M300.5,197.6s1,2.4.7,3-8.5,8.4-10.3,8.3a3.31,3.31,0,0,1-2.9-2.6c0-.9,5.5-7,5.5-7Z"/><path class="cls-23" d="M290,140.5c4.4,2.9,21.4,7.2,21.4,7.2.3,3.1-.3,36-.3,36-.7,5.2,3.5,18.9,3.5,18.9s.9,3-3.3,4.1-4.8-1.9-4.8-1.9-4.8-17.7-5.5-20.3-1.6-20.3-1.6-20.3c-1.6,5.4-2.4,11.2-2.2,14.5s4.4,18.3,4.4,18.3c-1.2,3.9-5.7,3.5-7.1,3a2.11,2.11,0,0,1-1.5-2.4c-.6-2.6-5.2-17.8-5.2-19.8s.8-24.4.8-24.4C288.6,143.6,290.1,140.5,290,140.5Z"/><path class="cls-13" d="M309.6,140l-2.6,6.4c-11.6,2.7-16.9-5.1-16.9-5.1a11.69,11.69,0,0,1,.3-4.4C298.8,144.2,309.6,140.1,309.6,140Z"/><path class="cls-9" d="M301.4,97.2l3.1,2s1.1,3.2.6,3.8-3.3,2.6-4.9,4.2a20.78,20.78,0,0,0-2.9,5.2l-.8-5a11.7,11.7,0,0,1,.9-5.1Z"/><path class="cls-24" d="M307.2,101.2s6.7,28,6.7,32.1a15,15,0,0,1-2.6,7.7c-14.1,7-21.2-3.7-21.2-3.7-1.1-4.6-.8-18.7-.8-18.7a4.64,4.64,0,0,1-3.5-2.4l-.2-3.3c.2-1.6,1-1.1,1-1.1s.3-8.7.3-9c.3-7.4,5.3-7.4,5.3-7.4.3,1.7,2.8,7.1,2.8,7.1l2.4,1-.9,3.2c0,.8.9,5.7.9,5.7s1.7-5.1,3.7-6,4.9-4.7,4.9-4.7c.3-.7-.3-2.7-.3-2.7a.75.75,0,0,0,.6-.3Z"/><path class="cls-15" d="M304.9,142.4c.2-.3.4-.1.4.1.2.2.3.3.3.5.2.3.3.7.5,1a10.2,10.2,0,0,0,.9,2.2,4.34,4.34,0,0,0,4,2,6.54,6.54,0,0,0,4.1-2.1,11.78,11.78,0,0,0,2.5-4h.1a9.68,9.68,0,0,1-.8,2.4,12,12,0,0,1-1.3,2.1,6,6,0,0,1-4.5,2.4,4.85,4.85,0,0,1-2.7-.5,4.36,4.36,0,0,1-1.9-1.9,5.64,5.64,0,0,1-.4-1.2c-.1-.3-.2-.8-.3-1.1s-.2-.8-.3-1.1-.2-.3-.3-.5-.1-.4-.3-.3Z"/><ellipse class="cls-25" cx="296.8" cy="119.6" rx="0.6" ry="0.9"/><path class="cls-26" d="M318.2,138.9c.4,3.1-.3,4.4-.3,4.4s.4,7.6.5,11.8c.1,4.5-1.6,5.2-1.6,5.2l-6.8,3.9c-1.1.5-3.8,1.8-4.9-.4-.6-1.2-1-14.4-.9-19.6a5.9,5.9,0,0,1,.2-2c.4-.9,6.9-4,6.9-4C313.3,136.4,317.7,135.7,318.2,138.9Z"/><path class="cls-27" d="M304.9,142.4a1.21,1.21,0,0,1,1.7,1.3c0,2,.2,3.7.9,4.5s7,3.6,10.3-5a8.18,8.18,0,0,1-4.2,5.8s-4.1,2-6.6-.9a5.72,5.72,0,0,1-.7-3.1C306.4,143,306.2,142.5,304.9,142.4Z"/><path class="cls-9" d="M311.2,127.4s0,2.4.2,7.2-1.7,18.9-1.7,18.9a3.57,3.57,0,0,0,4.5,1c-.4-2,2.8-14.6,2.8-14.6,1.6-9.6.3-13.7.3-13.7C312.6,123.7,311.2,127.4,311.2,127.4Z"/><path class="cls-28" d="M297.7,103.2l-.4-.5-.3.9a30.61,30.61,0,0,0-.6,3.8l.8,2.4c-.7-4.5.2-5.9.2-5.9Z"/><path class="cls-24" d="M306.1,100.5l-.2-1.8c1.9.8,2.4,3.8,2.4,3.8s5.8,3.9,7.4,6.3,1,4.3,1.3,7.8c.1.8.5,3.2.9,5.3.5.2,1,4.2,1,4.2s-1.1,3.5-6.8,3.1l-1.6-.3s-3.3-9.1-3.1-12.5-.1-5,1.6-6.4"/><path class="cls-9" d="M314.1,154.2c.3,1.7,1.1,5.1.7,6.8a10.05,10.05,0,0,1-3,4.6c-1.7,1.2-2.3.2-2.4-.3s.6-3,.7-3.6c.2-.9-.2-1.9-.3-3.4-.9.1-.4,2-.6,3s-1.4.7-1.6.3a12.32,12.32,0,0,1-.3-2.2,10.18,10.18,0,0,1,.4-2.7c.7-2.6,2-3.3,2-3.3C312.1,156,314,154.3,314.1,154.2Z"/><path class="cls-26" d="M304.8,145.6a84.11,84.11,0,0,0-2.8-9c-.7-1.9-7.8-20.8-9.8-29.5s.3-10.6.3-10.6l.3,1.7c-1.9,4.1,5.7,26,9,33.7a92.15,92.15,0,0,1,4.3,12.5C306.6,146.2,305.2,147.4,304.8,145.6Z"/><path class="cls-28" d="M307.8,116.1a16.28,16.28,0,0,0,.8,4.4,39.55,39.55,0,0,0,1.1,3.9c.1.2,0,.2.1.4-.2.7.8,3.8,1.3,3.8.1.6-.2.6-.6.6s-1.8-5.5-2.7-8.4a18.16,18.16,0,0,1-.6-4.6,11.24,11.24,0,0,1,.8-4.5A16.26,16.26,0,0,0,307.8,116.1Z"/><path class="cls-19" d="M298.7,142.9l-.1,4.2a17.62,17.62,0,0,1-4.2-1.7c-.7-2.9.1-4.3.1-4.3C295.5,142.2,298.6,142.9,298.7,142.9Z"/><path class="cls-27" d="M305.2,141.4s1,2.2.7,2.8-1,1.2-1.6-1c0,0-.1,0-.1.5,0,0,.3,1.2,1,1.3s1.2-.8.7-2.1a7.47,7.47,0,0,1-.5-1.5l5.7-3.1V138C311.3,138,305.8,140.8,305.2,141.4Z"/><path class="cls-28" d="M292.6,106.3c5.1-2.5,4.9,6.2,4.9,6.2C296.5,105.2,292.6,106.4,292.6,106.3Z"/><polygon class="cls-28" points="295.5 102.5 293.7 106 292.6 106.3 295.1 102.4 295.5 102.5"/><path class="cls-29" d="M295.8,155.5c3.9,2.9,3.7,9.4,3.7,9.4v-2a11.07,11.07,0,0,0-1.5-6.3l2.6.7-4.2-2.8-1.7-7.2Z"/><path class="cls-9" d="M297.5,103.6c-.2-.1-2.9-.7-3.5-1.6s-3-7.2-2-8.2c.8-.9-.3-1.8-.5-2.3a3.78,3.78,0,0,1-.1-1.4s-.3-3.5.7-4.4,6.8-8.8,13.1-5.1a4.22,4.22,0,0,1,1.3,3.7c-.1.3.2,7.7.2,7.7s1.7-.6,1.9,1.6-.4,3.8-1.3,4.5c-.6.5-.9.8-1.5.8l.2,1.8"/><path class="cls-30" d="M299.3,77.8c-2.4-.9-2.6,1.4-2.6,1.4a2.07,2.07,0,0,0-2.2,1.7c-2.7.4-2.4,2.2-2.4,2.2-1.9.6-1.7,1.7-1.7,1.7-.3,2.2,1.2,2.1,1.2,2.1a1.61,1.61,0,0,0,2.3,1.3,1.67,1.67,0,0,0,2.4.8,1.75,1.75,0,0,0,2.9-.1,1.92,1.92,0,0,0,2-.8l-.7,1.3c-.7,1.7,1.6,2.7,1.6,2.7a2.19,2.19,0,0,0,1,2.5c.4.3.3.3.5,1.4a1.29,1.29,0,0,0,1.4,1l.1-1.6a4.46,4.46,0,0,1,1-2.8c1.8-1.1,2.4,1,2.4,1a2.08,2.08,0,0,0,.5-2.2,2.85,2.85,0,0,0,.3-3.1,2.2,2.2,0,0,0-.4-2.6,1.92,1.92,0,0,0-1.1-2.4,2.87,2.87,0,0,0,0-2,2.61,2.61,0,0,0-2.2-1.1,2,2,0,0,0-2.2-1.6c-.3-.3-.3-1-1.6-1.3A3.57,3.57,0,0,0,299.3,77.8Z"/><path class="cls-10" d="M292.4,92.7a9.87,9.87,0,0,0,5.3,2.4c2.7.5,3.8-.7,3.8-.7s-.5.5-3,.3a18,18,0,0,1-4-1.5,7.07,7.07,0,0,1-3-1.8A3.75,3.75,0,0,0,292.4,92.7Z"/><path class="cls-10" d="M299.4,107.8l4.7-5.7a24.8,24.8,0,0,0,.4-4.2c.3.1.5.6.7.7a1,1,0,0,0,1.1.2v2.1l.3.7c-.9,1.6-4,3.8-4,3.8Z"/><path class="cls-10" d="M306.1,95.2c-.3.6.5.8.7.6s.1-2.1.4-1.5-.2,2.3-.7,2.4.1-.8-.5-.7-.6.8-.6.8a.94.94,0,0,0,1.6.6c.7-.6,1.2-3.7.3-4.1s-1.7,1.1-1.7,1.1C306,94.3,306.3,94.5,306.1,95.2Z"/><path class="cls-10" d="M294.8,94.2l.3,3.9,1.2.1.4.5a2.4,2.4,0,0,1-2.4-.3V94Z"/><path class="cls-28" d="M318.8,125.1c-2.5,4.4-8.5,3.3-8.5,3.3s0,.6.4.7c6.4,1.1,8.3-2.8,8.3-2.8A7.07,7.07,0,0,0,318.8,125.1Z"/><path class="cls-28" d="M309.5,124.6l-.3-.6a4.51,4.51,0,0,0,2.5.5,9.94,9.94,0,0,0,6.2-2.7,6.12,6.12,0,0,1-1.5,1.7,5.7,5.7,0,0,1-2.2,1.1C310.2,125.6,309.5,124.6,309.5,124.6Z"/><path class="cls-28" d="M308.1,103.7c-.3,1.3-3.8,8-3.8,8s-2-3-3-4.3-3.8,4.9-3.8,4.9l1.4-3.6s.9-1.7,1.8-2.1,3.4,3.4,3.4,3.4a37.32,37.32,0,0,1,2.4-4.3c1.7-2.9,1.6-4.4,1.6-4.4A3.42,3.42,0,0,1,308.1,103.7Z"/><path class="cls-28" d="M306.6,102.1a2.84,2.84,0,0,1-.6.9l-.8.8h0l-3,2.1c-.5.3-1,.7-1.5,1a4.89,4.89,0,0,0-1.3,1.2,3.91,3.91,0,0,1,1-1.6l1.3-1.3a33,33,0,0,1,3-2.2h0l.7-.7c.2-.3.4-.5.6-.8a3.32,3.32,0,0,0,.5-2A4.61,4.61,0,0,1,306.6,102.1Z"/><path class="cls-10" d="M297,105.3c.2-1.4.5-1.6.5-1.6,1.3.3,2.2-.4,3.5-1.4a13.31,13.31,0,0,0,2.6-2.9c-1.6,5.3-5.9,5-5.9,5.1C297.7,104.4,297.3,104.7,297,105.3Z"/><path class="cls-28" d="M289,117.7c-1.1.3-3-1.6-3-1.6a4.2,4.2,0,0,0,3.5,2.4l.4-15.4C289.3,105.6,289,117.7,289,117.7Z"/><path class="cls-28" d="M289.3,114.1a3.21,3.21,0,0,1-2.5-2.4c1.4,1.8,2.7,1.6,2.7,1.6Z"/><path class="cls-28" d="M294.5,115.5a6.76,6.76,0,0,1-3.4-1.8,1.11,1.11,0,0,1-.5-1.3,6.9,6.9,0,0,0,3.7,2.4Z"/><path class="cls-28" d="M291.1,119.6a3.09,3.09,0,0,0,3.1,2C291.1,122.7,291.1,119.7,291.1,119.6Z"/><ellipse class="cls-25" cx="296.8" cy="128.2" rx="0.6" ry="0.9"/><ellipse class="cls-25" cx="296.2" cy="136.1" rx="0.6" ry="0.9"/><ellipse class="cls-25" cx="297.5" cy="113.6" rx="0.6" ry="0.9"/><path class="cls-23" d="M290.7,138.1l-.3,4.4,1.3,1.1c-.4-1,.2-4.4.2-4.4Z"/><polygon class="cls-23" points="303.7 143.3 303.7 147 302.3 147.2 302.4 143.3 303.7 143.3"/><path class="cls-10" d="M298.5,104.2s-.8,2.7.5,4.3l-1.5,3.7a19.11,19.11,0,0,0-.3-3.3c-.3-1.4-.3-5,.4-5.4C297.5,103.6,298,104.1,298.5,104.2Z"/><path class="cls-10" d="M288.7,147l-.1,4.3a.81.81,0,0,1-.8-.1s.8.4.7-1.9S288.6,146.4,288.7,147Z"/><path class="cls-10" d="M317.6,127.8s-1.7,1.7-6.4,1.3a75.89,75.89,0,0,1,.1,8.9s.8-6.5.6-7.3a9.46,9.46,0,0,0,4.8-.4s.8,6.2.4,8.9C317,139.2,318.2,132.2,317.6,127.8Z"/><path class="cls-10" d="M287,117.6l.2,1.2a2.52,2.52,0,0,1,1.6,2.5c-.1,1.9.8,17.2.8,17.2l.5-.1.2-.9a23.28,23.28,0,0,1-.7-4.8c0-2.1-.6-12.4-.3-14.1Z"/><path class="cls-18" d="M289.2,118.2s-.3,13.2,1,19.2a15.21,15.21,0,0,0,14.1,5.9s-10.4-.3-13.6-6.2a55.8,55.8,0,0,1-.9-6.8c-.4-5.1-.4-12-.4-15.2Z"/><path class="cls-22" d="M295,200.7l-3.4,4.1A11.06,11.06,0,0,0,295,200.7Z"/><path class="cls-22" d="M293.6,201.3l1.7.9A1.41,1.41,0,0,1,293.6,201.3Z"/><path class="cls-22" d="M292.5,202.3l1.7.9A1.47,1.47,0,0,1,292.5,202.3Z"/><path class="cls-22" d="M291.4,203.5l1.7.9A1.44,1.44,0,0,1,291.4,203.5Z"/><path class="cls-22" d="M308.6,207.3l-3.4,4.1A11,11,0,0,0,308.6,207.3Z"/><path class="cls-22" d="M307.1,208l1.7.9C308.8,208.8,307.6,209.1,307.1,208Z"/><path class="cls-22" d="M306.1,209l1.7.9A1.57,1.57,0,0,1,306.1,209Z"/><path class="cls-22" d="M304.9,210.1l1.7.9A1.47,1.47,0,0,1,304.9,210.1Z"/><path class="cls-22" d="M307.7,214.2s.5-.5-.7-1.4c-2.8-1.9-4.1-1.6-4.1-1.6s-1.8,1.8-1.2,2.9c0,0,1.6,2.2,3.8,1.4Z"/><path class="cls-22" d="M294.4,207.1s.2-.3-1-1.1c-2.8-1.9-4.1-1.6-4.1-1.6s-1.8,1.8-1.2,2.9c0,0,2,2.2,3.8,1.4Z"/><path class="cls-22" d="M314.9,206a40.23,40.23,0,0,1-7.8,7.8l.1.8s5.4-3.8,7.7-7.4A2,2,0,0,0,314.9,206Z"/><path class="cls-22" d="M301.1,199.7s-1.7,3-7.8,7.4l-.1.8s5.6-3.5,7.9-7.1C301.2,200.8,301.3,200.5,301.1,199.7Z"/><path class="cls-29" d="M295.8,155.5s-4.4-2.4-4.3-4l4.5,3.2Z"/><path class="cls-31" d="M255.7,341.4s-5.2,6.8-5.5,7.8.1,1.7,2.5,2.5,10.5-7.8,10.8-8.6-.9-3.1-.9-3.1S259.2,344,255.7,341.4Z"/><path class="cls-31" d="M242.1,335.2s-5.5,6.3-5.5,7.2a3.19,3.19,0,0,0,2.9,2.6c1.7.2,10-7.7,10.3-8.3s-.7-3-.7-3Z"/><path class="cls-32" d="M237,289.2s-.8,22.4-.8,24.4,4.6,17.2,5.2,19.8a2.21,2.21,0,0,0,1.5,2.4c1.5.4,5.9.9,7.1-3,0,0-4.2-15-4.4-18.3s.6-9.1,2.2-14.5c0,0,.9,17.7,1.6,20.3s5.5,20.3,5.5,20.3.6,3,4.8,1.9,3.3-4.1,3.3-4.1-4.2-13.7-3.5-18.9c0,0,.6-32.8.3-36,0,0-15.1-3-19.4-5.9C240.4,277.6,237,279.4,237,289.2Z"/><path class="cls-9" d="M232.6,276a10.74,10.74,0,0,0-1.2,3c-.3,1.3-.3,3.4-1,4.6,0,0-.9.8.9.9s1.6-1.3,1.6-1.3-.8,5.1,2.6,5.1l.8-.1-.3-10.7A15.84,15.84,0,0,1,232.6,276Z"/><path class="cls-10" d="M232.6,275.9a8,8,0,0,0,2.3,1.6v1a3.82,3.82,0,0,0-2.7-1.7Z"/><path class="cls-33" d="M247,304.2c-.3,0-1,.6-.9,2.3s-.3,15.1-.3,15.1a1.59,1.59,0,0,0,1.1,2.2c1.8.6,3.4,1.6,4.6.9S271,313,271,313a1.69,1.69,0,0,0,1.2-1.7c0-1.4.1-16.6.1-16.6l-5.7.4Z"/><path class="cls-34" d="M242.3,237.2s-2.5,3-2.3,9.8-.1,21.7,0,23.5.3,5.1.3,5.1,5.3,4,9.8,3.8a43.27,43.27,0,0,1-.6-11.2c.6-5-.5-13.8.3-17.1s4.4-9.4,5-13.2l-.4-1.4Z"/><path class="cls-35" d="M242.5,242.5c-.2.2.4,1.9,1.1,2.9a1.07,1.07,0,0,0,1.6.3l1.5-2.1-1.7-2.1A11.23,11.23,0,0,0,242.5,242.5Z"/><path class="cls-35" d="M243.5,245.1s-1.3,8.6-2.4,16.6a42.59,42.59,0,0,0,2.8,7.2s2.5-4.3,3.2-5.7c-.1-.3-2.3-17.8-2.3-17.8Z"/><path class="cls-36" d="M254.2,235.8s1.6,1.1-.3,5.1-4.9,9-4.6,16,.1,13.7.3,18.5c.2,4.1-.5,7.5-.1,10a27.2,27.2,0,0,1,.1,5.7,11.13,11.13,0,0,0,6.8.9s6.1-.2,9.5-4.2a27,27,0,0,0-1.3-4.6s2.7-9.3,2.9-14-1.9-13.8-2.3-17.2.3-5.4-1.3-7.8-7.4-6.3-7.4-6.3-.4-3-2.4-3.8Z"/><path class="cls-36" d="M239.8,231.2a5.51,5.51,0,0,0-5.9,5.2s0,12.5-.1,15.3-.8,15.6-.9,17.5a13.8,13.8,0,0,1-.2,2.5,7,7,0,0,0-.4,1.9,11,11,0,0,0,.2,2.2,7.19,7.19,0,0,0,2.4,1.6s-.4,6.4-.3,9.1a7,7,0,0,0,2.2,2.7c1.4.9,2.2,1.7,2.9,1.3s-.1-3,.1-5.6.4-13.8.4-19,.3-9.9,0-13.5-.4-12.5,1.8-15.1C242.1,237.5,239.7,235.9,239.8,231.2Z"/><path class="cls-37" d="M237.1,237.9c0,1.7-.1,3.3-.1,5s-.1,3.3,0,5,.2,3.3.2,5-.1,3.3-.2,5-.3,3.3-.4,5-.3,3.3-.4,5l-.5,5c-.2,1.7-.3,3.3-.6,5,0-1.7.1-3.3.2-5l.3-5c.1-1.7.2-3.3.3-5a41.54,41.54,0,0,0,.3-4.9c.1-1.7.2-3.3.3-5s-.1-3.3,0-5A56.53,56.53,0,0,1,237.1,237.9Z"/><path class="cls-38" d="M244.8,241.6a26.93,26.93,0,0,0,9.4-5.7s.6.3.7,2a36.67,36.67,0,0,1-8.3,7.1A11,11,0,0,0,244.8,241.6Z"/><path class="cls-38" d="M243.7,238.4s.1,2.3,1.1,3.2a13.4,13.4,0,0,1-3.6,1.7s-.1-4.5.8-6A4.12,4.12,0,0,0,243.7,238.4Z"/><path class="cls-37" d="M235.2,242.5l.9,2.9a7.37,7.37,0,0,1,.4,1.4,4.29,4.29,0,0,1,0,1.6h-.1a9.13,9.13,0,0,1-.8-1.3,6.64,6.64,0,0,1-.3-1.5c0-1-.2-2-.1-3.1Z"/><path class="cls-37" d="M239.8,284.7c.6-7.3.7-26,.5-28.6-.2-3.7-.7-10.9.3-15.2l1.4-3.5-1.4-2s-1.9,2.6-2.2,10.6c0,0-.7,6.2-1,7.2,0,0,2,3.2,1.7,5.2s-1.9,3.5-1.1,7.6c.6,3.1,1.4,11.2,1.7,14.6.1,1,0,5.3,0,5.3Z"/><path class="cls-9" d="M244.9,241.6a24.13,24.13,0,0,0,9.3-5.7L254,234c.5.2,1.1-.2,1.7-.6s1.1-2.4,1-4.6-1.9-1.6-1.9-1.6-.3-7.3-.2-7.7a4.22,4.22,0,0,0-1.3-3.7c-6.3-3.7-9.2.2-11.7.5s-2,4.1-2,4.1v4.9a3.78,3.78,0,0,0,.1,1.4,2.52,2.52,0,0,1,.1,1.5,8.06,8.06,0,0,0-.2,3c-.1,5.9,3.4,7,3.8,7.1S243.5,240.3,244.9,241.6Z"/><path class="cls-39" d="M239.1,214.8a2.48,2.48,0,0,0,2.6.4c1.6-.6,5.4-3.7,7.6-3s6.5,2.4,6.9,3.5a4.33,4.33,0,0,1,0,2.4s1.3.4,1.3,2.6-.2,6.6-.7,8.1c0,0-.6-2.2-2.4-1a4.14,4.14,0,0,0-1,2.8l-.1,1.6-1.6.7.2-1.7a2.39,2.39,0,0,0-.5-1.4,6.91,6.91,0,0,1-1.6-2.9,2.45,2.45,0,0,1,.8-2.5l2.3-2.2-3.6,2.1a4.63,4.63,0,0,1-4.2.1l-5.5-3.1C239.5,221.2,236.5,219.3,239.1,214.8Z"/><path class="cls-10" d="M243.7,238.4a7,7,0,0,0,5.6-.7,8.14,8.14,0,0,0,2.6-3.3s.4,2.2-3,3.9c-1.4.7-2.5.6-3.5,1.2-.5.3-.7,1-.6,2A5.1,5.1,0,0,1,243.7,238.4Z"/><path class="cls-10" d="M239.8,226.5a7.07,7.07,0,0,0,3,1.8,24.77,24.77,0,0,0,4,1.5c2.4.3,3-.3,3-.3s-.3,1.5-3,1a15,15,0,0,1-6.5-3A6.91,6.91,0,0,0,239.8,226.5Z"/><path class="cls-10" d="M254,234a1.69,1.69,0,0,1-.7-.3c-.2-.1-.4-.6-.7-.7,0,0,.2,3.9-2.1,5.8a23.63,23.63,0,0,0,3.7-3Z"/><path class="cls-33" d="M246.8,305.1l3.9,2.2a.75.75,0,0,0,.9,0l20.5-12.2a.56.56,0,0,0,0-.9l-3.8-2.1a1.27,1.27,0,0,0-1.2,0c-1.8,1-7.3,4.3-12.2,7.1-3.5,2.1-6.7,3.9-8.1,4.9A.61.61,0,0,0,246.8,305.1Z"/><path class="cls-10" d="M253.8,229.7s.8-1.6,1.7-1.1.4,3.5-.3,4.1a.94.94,0,0,1-1.6-.6s0-.7.6-.8,0,.9.5.7a2.53,2.53,0,0,0,.7-2.4c-.3-.6-.3,1.3-.4,1.5s-1,0-.7-.6C254.5,229.7,254.2,229.5,253.8,229.7Z"/><path class="cls-37" d="M232.6,272s.6,1,2.8,1.5l-.1.4C235.2,273.9,233.1,273.6,232.6,272Z"/><path class="cls-9" d="M257.3,289a15.35,15.35,0,0,0-1.7,3.9s-.8,1.8-.4,2.7.5,1.4.5,1.4l1.6-1.1s-.4-1.6.5-1.6,1.4,2.2,1.6,2.7-1.6,1.7-1.4,2.2.7,1.6,2.4.3c0,0,2.5-1.3,3.3-2.9s-.7-5.7-1.4-6.9C262.2,290,259.6,291.6,257.3,289Z"/><path class="cls-37" d="M257.3,246.9a14.22,14.22,0,0,0-1.3,5,10.85,10.85,0,0,0,.8,4.7,88.22,88.22,0,0,1,2,8.9,9.86,9.86,0,0,1,.3,2.4v2.4c0,1.6-.1,3.2-.2,4.8-.2,3.2-.3,6.4-.6,9.6h0a20.26,20.26,0,0,0-.6,4.2v-.1c.1.2.3.3.5.5a1.33,1.33,0,0,0,.8.3,4.67,4.67,0,0,0,1.7.3,4.19,4.19,0,0,0,1.6-.4,3,3,0,0,0,1-1.4h0c.6-2.2,1.1-4.3,1.7-6.4-.4,2.2-.9,4.4-1.3,6.5h0a4.25,4.25,0,0,1-1,1.7,2.47,2.47,0,0,1-1.8.6,6.28,6.28,0,0,1-1.9-.3,2.72,2.72,0,0,1-1.7-1.2h0v-.1a21.18,21.18,0,0,1,.5-4.4v.1c.3-3.1.3-6.4.5-9.6.1-1.6.2-3.2.2-4.8a19.22,19.22,0,0,0,0-2.4,19.67,19.67,0,0,0-.3-2.4c-.6-3.1-1.3-6.3-2.1-9.3A10.39,10.39,0,0,1,257.3,246.9Z"/><path class="cls-37" d="M257.9,284.7a9.38,9.38,0,0,0,1.5.6,4,4,0,0,0,1.5.3,7.57,7.57,0,0,0,1.5.1c.5,0,1-.1,1.6-.1a7.14,7.14,0,0,1-1.5.8,3.22,3.22,0,0,1-1.7.1,5.78,5.78,0,0,1-1.7-.6A2.34,2.34,0,0,1,257.9,284.7Z"/><path class="cls-40" d="M240.3,274.9a17.89,17.89,0,0,0,9.4,4l-.2,2v1.8s-6.3-.9-9.3-3.7Z"/><path class="cls-41" d="M242.6,276.6a6.79,6.79,0,0,0,0,4.2,7.16,7.16,0,0,0,4.2,1.4l.1-3.9A15.4,15.4,0,0,1,242.6,276.6Z"/><path class="cls-42" d="M243,283.1l1.7,7.2,4.2,2.8-2.6-.7a12.06,12.06,0,0,1,1.5,6.3v2s.3-6.5-3.7-9.4Z"/><path class="cls-10" d="M230.4,283.7s1.1,1.2,2.3-.7a4.78,4.78,0,0,0,.5-1.3c.1-.5.2-.9.2-.9s.6.2.1,1.4a14.81,14.81,0,0,1-.8,1.7,1.94,1.94,0,0,1-2,.5s-.6-.2-.5-.5Z"/><path class="cls-43" d="M258.6,295.1l-3.3,2.3s-.8.3-.8,1.9v2.6l1.6.6,1.3-.7v-1.7s-.1-1,.3-1.4,1.1-.7,1.7-1.2A5.42,5.42,0,0,0,258.6,295.1Z"/><ellipse class="cls-44" cx="244" cy="271.9" rx="0.5" ry="0.7"/><path class="cls-10" d="M233.5,281s1.1.1,1.3-.6v.9s-.3.3-1.3.3Z"/><path class="cls-37" d="M249.5,279.9s.4-2.7.7-8.6,2.7-12.9,2.7-13.2-1.2-4-1.2-4,1.5-.1,2-.7-.5-3.7.9-7.2,2.2-5.5,1.8-8.6c0,0-.6-3-2.4-3.6l.2,1.9s2,1.1-1,6.3c0,0-4.3,6.9-4.1,14.2,0,0,.3,8,.1,10.2S249.9,277.4,249.5,279.9Z"/><path class="cls-45" d="M256,302.4l1.3-.7v-2.1a1.49,1.49,0,0,1,.8-1.4l1.3-1a8.74,8.74,0,0,0-.3-1.4,30.28,30.28,0,0,1-2.4,1.9C255.6,298.6,256,302.4,256,302.4Z"/><path class="cls-37" d="M254.5,250a9,9,0,0,0,.6,3.1l.7.9a7.57,7.57,0,0,1,.1,1.5,5.43,5.43,0,0,1-1.5-2.5,7.72,7.72,0,0,1-.2-1.5A3.34,3.34,0,0,1,254.5,250Z"/><path class="cls-46" d="M240.3,274.9s2.9,3.1,9.4,4c0,0-.3-6.2-.4-8.4s.1-10.2,0-10.9a28.77,28.77,0,0,1,1.9-13s1.4-3.3,2.5-5.2a20.69,20.69,0,0,0,1.2-3.3s-4.6,5.2-8.2,7a20.18,20.18,0,0,0,6.9-5s-3.7,5.5-4.4,10.2-.4,19.5-.4,21.6.3,6.1.3,6.1S245.6,278,240.3,274.9Z"/><path class="cls-46" d="M241.5,238.6a39.3,39.3,0,0,0-.3,4.8,3.14,3.14,0,0,0,1.2-.4,6.18,6.18,0,0,0,1,2.4s-1.3,8.5-1.6,10.5l1.3-10.3-1-1.8a7.1,7.1,0,0,1-1.4.2,51.53,51.53,0,0,0-.2,7.4,180.51,180.51,0,0,1-.4,23.7s.1-13.6.2-15.4a75.21,75.21,0,0,0-.3-8.7s-.2-7,.5-9.9A26,26,0,0,1,241.5,238.6Z"/><path class="cls-47" d="M242.7,243.4s1.6-.9,2.1-1.3l1,2.2a7.59,7.59,0,0,1-.9,1.5l-1.3-.5,1.3.8,1.9,16.8s-2,4.3-2.8,5.9c0,0,2.6-3.6,3.2-5.7,0,0-2.2-16.7-1.9-17.5a14.17,14.17,0,0,0,1.1-1.6,11.14,11.14,0,0,0-1.4-2.5l-2.3,1.3C242.5,242.9,242.4,243.1,242.7,243.4Z"/><polygon class="cls-48" points="243 248.5 245.3 250.9 245.6 253.2 242.6 250.9 243 248.5"/><polygon class="cls-48" points="242.2 253.4 246 256.5 246.3 259.3 241.9 255.9 242.2 253.4"/><polygon class="cls-48" points="241.6 258.2 246.6 262.1 246.7 263 246 264.6 241.2 260.7 241.6 258.2"/><path class="cls-48" d="M242,264.2l3.2,2.1-1.3,2.6A21.24,21.24,0,0,1,242,264.2Z"/><path class="cls-42" d="M244.4,291.4s-2.8-.7-3.6-2c0,0,2.5.9,3.6,1.2Z"/><path class="cls-10" d="M257.3,289s.4,1.4,3.7,1.5c0,0,1.1,0,1.4-.5a14.24,14.24,0,0,1,1.5,4.9s-1.2-2.6-2.5-3.1a5.23,5.23,0,0,1-4.4-2.4Z"/><path class="cls-10" d="M259.4,297.4s-.5-2.8-1.7-3.1c0,0,1.8-.8,1.7,3.3"/><path class="cls-49" d="M116.1,253.1c-3.8,4.6-6.3,19.1-6.3,19.1,1-1.6,5.2-2.3,5.2-2.3C114.8,266.9,116,253.1,116.1,253.1Z"/><path class="cls-50" d="M116.2,194.8s-2.4-1.3-4,2.1-.1,10.5,1,12.7,1.7,4.2,1.7,4.2l3-2a3.73,3.73,0,0,0,1.2-2.4c1.5-1.9.8-6.2.8-6.2Z"/><path class="cls-51" d="M112.9,299.4a5.72,5.72,0,0,0-.6,2.5c0,.5.5.8.8,1.2.9,1.2,5,4.1,5,4.1a5.77,5.77,0,0,1,4.5-1.7l-3.5-5.1Z"/><path class="cls-51" d="M128.9,292.9c-.1.2-.6,1.9-.7,2.1a2.44,2.44,0,0,0,.5,2.8l5.2,4.4,4.6-1.9c-1-1.7-4.2-5.7-4.2-5.7Z"/><path class="cls-51" d="M137.7,247l1,9.7c1.6-.7,2.1-1,2.5-3.7s-.5-7.9-.5-7.9Z"/><path class="cls-52" d="M112.9,299.2c.1-7,0-8.1.5-13.7.2-1.6.4-3,.7-5.4.5-6-.9-14.4-.9-18.1,0-5.1,2-8.5,2.3-8.6,16.5-2.6,23,14.8,23.1,14.8-.3,4.9-4.1,26.3-4.1,26.3-1.1,2.3-4.5,1.1-4.5,1.1a3.18,3.18,0,0,1-1.6-3.3s.7-10.7.7-14.5a16,16,0,0,0-.8-5.7s-3.9-2.3-4.4-.3c-.2.9-.2,3.7-1,7.4-.9,4.6-2.5,10.4-2.7,13a51.38,51.38,0,0,1-1.2,8.2,4,4,0,0,1-3.5,1.1C114.2,301.2,112.9,300.2,112.9,299.2Z"/><path class="cls-53" d="M138.3,271.1s-5.4,3.3-9.3,4l.1,1.4s5.3.1,8.8-2.7Z"/><path class="cls-53" d="M116.4,255.9s2.5,10.8.4,20.6c0,0,3.9,1.8,6.3,1.1a51.08,51.08,0,0,0,.6-5.5C123.7,271.1,118.5,254.1,116.4,255.9Z"/><path class="cls-54" d="M109.6,255.6c-.9,1.8-2.3,10.2-2.5,14.6s3.2,5.1,3.2,5.1a13.38,13.38,0,0,1,.1-4.4c.6-6.9,5.1-14.7,5.1-14.7l1.2-7.7,1,8.5a50.54,50.54,0,0,1,.8,10,60.54,60.54,0,0,1-1.3,9.5c2.5.5,10.2-.3,16.6-2.6s7.4-4.8,7.4-4.8a44.15,44.15,0,0,0-.2-5.6c-.3-2.4-2.4-16.4-2.4-16.4,3-1.2,3.4-2.5,3.3-4.6s-1.3-10-1.6-16.2-1.6-13.7-2.9-17.3-3.9-3.3-3.9-3.3a15.44,15.44,0,0,1-1.2,4.7,31.6,31.6,0,0,1,1.7,9.8c-.9,2.9-4.4,3.2-6.4,3.3s-4.1-2.9-5.7-6.7a7.62,7.62,0,0,0-5.6-4.3c-2.8,1.4-4.4,5.3-5.8,8.8s-3.2,15-3.5,19.9C106.9,245.9,109.7,255.5,109.6,255.6Zm5-14.2s.6-7.9,2.1-10.7a6.11,6.11,0,0,1,.3,5.1A47.62,47.62,0,0,1,114.6,241.4Z"/><path class="cls-55" d="M116.2,199.2c-1.3,0-1.8-1.3-1.9-3.8s1.5-2,1.5-2Z"/><path class="cls-51" d="M132.3,209.8c.9,2.1,2.3,8.8,1.8,10.5s-4.4,3.7-7,3-4.6-5.2-5.7-7.5-5.1-3.6-5.1-3.6c.3-.4,1.7-1,3.1-2.2s.7-4.4.7-4.4a1.63,1.63,0,0,0,1.7.6C124.1,208.5,132.4,209.8,132.3,209.8Z"/><path class="cls-51" d="M120.4,191.2c-5.7,2.6-1.2,12.5-1.2,12.5-.1,2.4,1.1,3.7,1.7,3.6,0,0,4.6,5.1,7.9,5.1s4.6-2.6,5.5-8.5c.1-.5-.2-1.3-.1-1.8a10.46,10.46,0,0,0,.4-1.7,19.82,19.82,0,0,0-.7-6.4C131,187.2,126,188.6,120.4,191.2Z"/><path class="cls-56" d="M111.3,241.4l3,12.7s5.5,5.1,6.2,5.1,5.1-2.4,5.5-3.5-1.7-10.1-2.1-11.4-10-7.4-10-7.4Z"/><path class="cls-57" d="M134.4,191.9a6.64,6.64,0,0,0-2.2-2.7,13.44,13.44,0,0,0-6.9-3.3c-2.5-.2-8.4,2.1-9.4,4.5a22.27,22.27,0,0,0-.4,5.2c.4,2-.3,2.4.5,5.1a15.23,15.23,0,0,0,1.2,2.9,2.14,2.14,0,0,0,2.3.2,2.44,2.44,0,0,0,1.8-.8c.3.8-.6,2.2,1,3a1.22,1.22,0,0,0,1.9-.9c-.7,1.3-2.3.6-1.9-1s2-1.2,2.5-3.7,1-2.4,4.8-3.2,3.9-3.4,3.9-3.4a5.42,5.42,0,0,1,.6,1.6S135.4,194.2,134.4,191.9Z"/><path class="cls-58" d="M134.4,201.2c-2.3,1.5-5.5,2.9-6.1,2.6a9.9,9.9,0,0,1-2.4-.1c.3-.5,1.1-.3,3-.5s5.7-2.5,5.7-2.5Z"/><path class="cls-58" d="M130.5,207.1c.7.3,1.3-.2,1.1-.6a5.29,5.29,0,0,1-.4-2.6c.2-.6.4-.3.4-.3a5.06,5.06,0,0,0,.3,2.8c.6,1.7-1.8,1.7-2,.8C130,206.7,130.5,207.1,130.5,207.1Z"/><path class="cls-58" d="M132.3,212c-.8,1.2-3.2,1.4-3.2,1.4s-6.1.2-6.7-5.6a8.21,8.21,0,0,0,4.9,4.1c3.8.9,5.2-1.6,5.2-1.6l.4,1.1s2.2,8.3,1.1,9.5A24.76,24.76,0,0,0,132.3,212Z"/><path class="cls-59" d="M136.6,216a10.73,10.73,0,0,1,2.5,5.1c.5,3-1.1,5.9-2.6,8.2s-1.2,3.5.7,8.7a20.82,20.82,0,0,1,1.4,9c-.4-8.2-3.5-9-3.7-12.9s1-4.7,3-9-1.5-7.8-1.8-9.1a12.11,12.11,0,0,1,.3-3.9A20.6,20.6,0,0,0,136.6,216Z"/><path class="cls-59" d="M122.6,230.6c3.7,1.9,7.4-.3,7.4-.3C126.3,234.3,122.6,230.6,122.6,230.6Z"/><path class="cls-58" d="M139.7,254.4l-.1-1.2s.5-1.3.6-1.6.1-3.1.1-3.1C141.3,251.2,139.6,254.4,139.7,254.4Z"/><path class="cls-58" d="M120.8,209.9a3.34,3.34,0,0,1-2.6,2.3c3.5,1.3,4.4,4.4,5.7,7a12.09,12.09,0,0,0,3.8,4.2c-2.7.1-4.6-4.3-4.6-4.3a35.25,35.25,0,0,0-2.6-4.4c-.9-1.2-4.1-2.4-4.1-2.4l3.1-2.2a3.09,3.09,0,0,0,.5-3.6c1,1.1,1.8.2,1.8.2C122.7,208.7,121.2,208,120.8,209.9Z"/><path class="cls-9" d="M110.6,257.1a17.5,17.5,0,0,0-.3,6.5c.3,2,1.3,2.4,2,3.1s1.5,1.3,2.1.3c.3-.4-.1-2.5-.1-3.9a9.92,9.92,0,0,1,.3-2.6c.2.9,0,4.7,1.1,4.4s.8-1.4.9-4a15,15,0,0,0-.7-4.9C113.9,258.5,110.6,257.1,110.6,257.1Z"/><path class="cls-12" d="M133.8,300.8c-2.9-1.2-5.7-5.2-5.7-5.2a2.51,2.51,0,0,0-.3,1.5c2,2.6,6.2,6.2,9.5,7.3s3.3-.9,3.3-.9A8.3,8.3,0,0,0,138,299,4.36,4.36,0,0,0,133.8,300.8Z"/><path class="cls-12" d="M118.1,306.5c-2.9-1.2-5.7-5-5.7-5a2.21,2.21,0,0,0-.4,1.3c1,1.6,6.3,6.1,9.6,7.2s3.3-.9,3.3-.9a7.41,7.41,0,0,0-2.6-4.3A4.39,4.39,0,0,0,118.1,306.5Z"/><path class="cls-54" d="M107.1,242c-.3,2.9,2,10.7,2,10.7l1.1,4.3a4.64,4.64,0,0,0,5.5-1.3c-1.4-5.2-1-19.4-1-19.4Z"/><polygon class="cls-60" points="121.1 245.7 114.8 240.9 114.6 241.4 120.7 245.9 120.1 259 120.5 259.2 121 246 121.1 245.7"/><path class="cls-60" d="M120.7,243.7l-5.7-4.3A17,17,0,0,0,120.7,243.7Z"/><path class="cls-60" d="M122.2,248.2c-.2-1.6-1.5-13.8-1.5-13.8-.9-15.5-2.4-17.2-2.4-17.2a3.94,3.94,0,0,0-4.4-2.6,2.32,2.32,0,0,1,1.7-1.6c3.3-.8,5,4.9,4.9,4.5,1.7,4.2,3.2,30.5,3.2,30.5C123.7,249.7,122.4,249.7,122.2,248.2Z"/><path class="cls-59" d="M116.8,228.6l.3-1.1c1.2-.7,2.3-3.4,2.3-3.4A5.91,5.91,0,0,1,116.8,228.6Z"/><path class="cls-59" d="M116.9,226.3c-1.5,3-2.6,11.2-3,14.8s1.9,14.5,1.9,14.5c-.8,2.1-5.5,1.3-5.5,1.3,5.1,1.8,6.2-1,6.2-1s-1.4-9.4-1.8-11.8,1.3-13.8,3.1-17.8.9-6.5.9-6.5A18.32,18.32,0,0,1,116.9,226.3Z"/><polygon class="cls-61" points="131.8 222.7 131 220.5 131 223 131.8 222.7"/><path class="cls-61" d="M119.8,203.8s-.2,2.1.5,2.3,1.2-.5.9-.8-.9-.6-.3-1.5S119.8,203.8,119.8,203.8Z"/><path class="cls-60" d="M120.7,245.9l1-1.4,2.2-.2s2.7,9.9,2,11.7a17,17,0,0,1-5.4,3.3l-.2-.8s3.5-.9,5.3-3.1a57.1,57.1,0,0,0-1.9-10.7l-1.5.1-1.4,1.7"/><path class="cls-62" d="M131.1,212.9s1.1,3.3,0,4.5-3,1.6-6-1.4a51.19,51.19,0,0,0-6.1-5.3s-.2-1.2,1.1,0,6.6,6.6,7.9,6.9,4,.7,2.5-4.5Z"/><circle class="cls-62" cx="130.2" cy="218.2" r="0.7"/><circle class="cls-62" cx="121" cy="206.9" r="0.5"/><path class="cls-58" d="M114.7,259.7a20,20,0,0,1-.4,2.6,16.45,16.45,0,0,0,.3,4.5s-.1-5,.3-5.5v1.6S115.6,260.7,114.7,259.7Z"/><path class="cls-58" d="M116.1,256.4s-.9,1.8-5.5.7a13.25,13.25,0,0,0-.4,5.2s.5-3.8,2-3.6,4-1.6,4.3.8l.2,1.6A9.22,9.22,0,0,0,116.1,256.4Z"/><path class="cls-58" d="M140.9,245.8a7.68,7.68,0,0,1-2.2,1.2l.4,2.6s1-2.2,1.6-1.4a4.9,4.9,0,0,1,.7,2.6A19.84,19.84,0,0,0,140.9,245.8Z"/><path class="cls-58" d="M134.5,294.5s-.5,2-4.1,1.2c0,0-1.5-.5-1.7-1.7a11.32,11.32,0,0,0-.6,1.6s.2-.8.9-.2a4.8,4.8,0,0,0,6.3.3Z"/><path class="cls-58" d="M119.1,300.4s-2.4,2.3-4.9.5c0,0-1.3-.7-1.3-1.5s-.4,1-.4,1A6.31,6.31,0,0,0,120,302Z"/><path class="cls-59" d="M137.3,213.5l-.9,2.8.7.9A25.11,25.11,0,0,0,137.3,213.5Z"/><path class="cls-57" d="M119.2,203.8a3.64,3.64,0,0,0,.8,3,6,6,0,0,1,.3,1.1s-1.8.7-4-6.3Z"/><path class="cls-63" d="M133.2,191.3a3.85,3.85,0,0,1-2.2,5.3A5.31,5.31,0,0,0,133.2,191.3Z"/><path class="cls-63" d="M122.2,200.9s-.4,3-3,2.7C119.1,203.7,121.7,202.7,122.2,200.9Z"/><path class="cls-10" d="M217,189.6s-.9,3.4-.2,4a1.49,1.49,0,0,0,1.6.3S216.6,194.2,217,189.6Z"/><path class="cls-9" d="M367.5,289a69.24,69.24,0,0,0,.4,9.7c.4,3.7-.6,13.5-.6,14.2a4.87,4.87,0,0,1,2.2,3.4c.3,2.2.5,4.2-.3,4.6s-1.1.3-1.1.3.2,4-2.9,3.6l-1.6-10,.1-24Z"/><path class="cls-10" d="M365.2,315.6a6.91,6.91,0,0,0,2.9,1.8s.1,3,.7,3.5c0,0-.7,1-1.2-2.9C367.4,318.2,365.5,317.7,365.2,315.6Z"/><path class="cls-64" d="M346.6,268.2a7.5,7.5,0,0,0-3.6,1.7c-2.1,1.6-5.2,1.6-7,3.7s-2,5.2-2.4,9-3.6,4.6-1.2,13.8c0,0,.8,3.7,1.1,6s1.7,5.2,5.3,5.5L356.1,278Z"/><path class="cls-65" d="M340.2,379.3A1.69,1.69,0,0,0,339,381c.1,1.3,1.7,2.9,3,4.2,1.7,1.7,4.1,3.8,5.9,4.3s4.6-.9,3.6-3l-7.3-7.1h-4Z"/><path class="cls-65" d="M353.4,372a2.16,2.16,0,0,0-1.7,2.1s-.1.6,1.4,2c2,1.9,3.8,3,5.1,4.2,1.1,1.1,3.2,2.6,5.1,2.3s3-2.2,1.8-3.5C365.1,379.1,355.9,370.9,353.4,372Z"/><path class="cls-9" d="M353.2,371.3s-1.6,1.9.6,3.9l7.6,5.9s1.8.7,2.8-.3c1.3-1.3,1.6-2.4-.6-4.5l-3.5-3.9C360,372.4,355.2,368.8,353.2,371.3Z"/><path class="cls-9" d="M340.7,377.8s-1.5,1.9-.4,3.2,5,6.4,7.6,7,4.8-1,3.3-3l-5.1-6.5-4.8-.4"/><path class="cls-66" d="M365.2,327.5s.8,22.4.8,24.4-4.6,17.2-5.2,19.8a2.21,2.21,0,0,1-1.5,2.4c-1.5.4-5.9.9-7.1-3,0,0,4.2-15,4.4-18.3s-.6-9.1-2.2-14.5c0,0-.9,17.7-1.6,20.3s-5.5,20.3-5.5,20.3-.6,3-4.8,1.9-3.3-4.1-3.3-4.1,4.5-15.6,4.5-25.1c0,0-1.6-32.2-1.3-35.5,0,0,17.1,1.2,21.4-1.7C363.8,314.4,365.2,317.6,365.2,327.5Z"/><path class="cls-67" d="M359.1,321.3l-1.7,7.2-4.2,2.8,2.6-.7a12.06,12.06,0,0,0-1.5,6.3v2s-.3-6.5,3.7-9.4Z"/><path class="cls-68" d="M341,300.3l-.3,15.4s2.8,5.8,11.8,4.7c0,0,8.5-1.2,11.6-6.7,0,0,.9-19.7.8-22.4Z"/><path class="cls-68" d="M346.8,275.6l.8-1.1s-1.4-.6-4.9,2.7l-3.4,3s-1.9,1.6-1.9,6.8a58.85,58.85,0,0,1-1.7,12.5c0,.5,3.3,4.5,8,2.4,0,0,14.5.2,20.9-5l.3-5.8s1.7.6,3-2.4l-.7-13.5s-.6-7.3-5.4-7.2Z"/><path class="cls-9" d="M337.2,299.5s-1.3,4.1.3,13.7c0,0,3.2,12.6,2.8,14.6a3.74,3.74,0,0,0,4.5-1s-1.9-14.1-1.7-18.9.2-7.2.2-7.2S341.9,296.9,337.2,299.5Z"/><path class="cls-9" d="M347.6,264.2s-1.7-.3-1.6,1.1.5,4.2,1,4.9,1.6.6,1.6.6a6.57,6.57,0,0,1-.3,3.2l-1.3,1.6a10.26,10.26,0,0,1,4.2,4.5c1.1,2.9,1.7,4.2,3,4s1.1-.1,1.1-.1l1.6,4.9.7-5.9a3.31,3.31,0,0,0,1.6-2.6c.3-1.9-1-6.1-1-6.1Z"/><path class="cls-9" d="M361.6,255.5s1.3-.7,1.1,3.6c0,0,.3,4.8-.1,5.7-.2.3-.3.8-.5,1.1a1.94,1.94,0,0,0-.2,1.5,2,2,0,0,1,0,1.7l-1.9,5.1a1.76,1.76,0,0,1-.9,1l-1.3.8a2.78,2.78,0,0,1-1.8.3,7.14,7.14,0,0,1-5.2-4l-1.7-1.8s-.9,1.3-2.2-.3-1.2-4.9-.8-6.4S352.1,249.3,361.6,255.5Z"/><path class="cls-69" d="M355.2,264.6s7.9-1.6,7.2-7.1l.2,3.3s1.6.3,1.3-3.9a3.72,3.72,0,0,0-3.2-3.7s-.9-2.1-4.1-2.3c0,0-3.6-1.9-6.3.5a3.29,3.29,0,0,0-2.6,1.3,4.89,4.89,0,0,0-2.8,2.5c-.9,1.6-.3,2-1,3.1,0,0-1.5,2,.5,7.1.5,3.2,1.8,3.1,1.8,3.1s-1-4.5.8-4c0,0,1.6.3,1.7,1.3s-.2,2.8.6,3.3l1.1.4s-.3-2.2.6-2.9a3.14,3.14,0,0,0,1-4.2s-1.7-3.3-.1-3.7c0,0-.9.9.2,2.6a5.15,5.15,0,0,1,.9,3.7s1.4-.7.6-2.8,1.2-4,1.2-4-1.5,1.4-1,2.9.8,3.1-.2,4.1c0,0,1.2-.2,1.7-2.8a5.29,5.29,0,0,1,2.4-3.7,5.27,5.27,0,0,0-2,3C355.8,263.3,355.9,264.2,355.2,264.6Z"/><polygon class="cls-70" points="348.9 265.9 355.3 267.8 355.2 268.5 349 266.6 348.9 265.9"/><path class="cls-68" d="M335.8,299.5s1.6,4.1,8.7,2.3c0,0,1.4-7.2,1.7-9.2s1.9-6.6-.1-8.5c0,0-5.3,2.4-8.3-.3a24.42,24.42,0,0,0,0,5.1C338.1,291.3,336.9,297.4,335.8,299.5Z"/><path class="cls-10" d="M354,266.8a9.41,9.41,0,0,0,2.8.1,38,38,0,0,0,6-2.4l-.3.7a40.66,40.66,0,0,1-5.5,2.1C355.4,267.6,354.6,266.8,354,266.8Z"/><ellipse class="cls-71" cx="357.06" cy="268.59" rx="2.1" ry="1.7" transform="translate(27.7 570.5) rotate(-79.46)"/><path class="cls-72" d="M357.1,266.4a2.12,2.12,0,1,1-1.8,2.1A2,2,0,0,1,357.1,266.4Z"/><ellipse class="cls-71" cx="362.1" cy="267.38" rx="2.1" ry="1.7" transform="translate(33 574.47) rotate(-79.46)"/><ellipse class="cls-72" cx="362.1" cy="267.38" rx="2.1" ry="1.7" transform="translate(33 574.47) rotate(-79.46)"/><path class="cls-72" d="M358.8,268s.6-1.2,1.6-.4"/><path class="cls-10" d="M360.1,268a5.36,5.36,0,0,1,.2,3.9l-1.2.6-1.4-.5,1.5.1.7-.5A14.79,14.79,0,0,0,360.1,268Z"/><path class="cls-10" d="M350.8,272s2.2,3.7,5.9,4.2l1.6-.5s2,2.7,1,5.5c0,0-.1,1.2-1.9,1.8l-.7,5.9-.2-6.2s3.1-1.3,1.7-5.2l-2,.4C356.3,277.9,350.3,278.1,350.8,272Z"/><path class="cls-10" d="M348.4,270.8s.4.2.8-.4a28.83,28.83,0,0,1-.3,3.5c-.2.7-.7,1,1,3.7a16.52,16.52,0,0,1,2.2,5.6s-1.2-4-2.2-4.8-3.5-2.6-3.5-2.6a5.69,5.69,0,0,0,1.9-3C348.6,270.9,348.4,270.8,348.4,270.8Z"/><path class="cls-9" d="M344.7,326.7s.5.9,2,3.3a8.62,8.62,0,0,1,.5,3.1,8.51,8.51,0,0,1-.4,1.7c-.2.4-1.4.8-1.6-.3s.3-3-.6-3-.4,2.5-.3,3.4c.1.5.9,3,.7,3.6s-1.3.9-3-.3a11.63,11.63,0,0,1-2.2-4.4c-.4-1.7,0-3.8.5-6.2C340.5,327.8,342.4,328.6,344.7,326.7Z"/><path class="cls-65" d="M357.2,378s1.3-3.6,4.9-3.3a7.85,7.85,0,0,1,1.8,1.9,4.65,4.65,0,0,0-4.1,3.7Z"/><path class="cls-65" d="M343.3,384.8s2.1-4.1,5.5-2.9a4.51,4.51,0,0,1,1.6,2s-2.6-.7-4.6,3C345.4,387,344.1,385.8,343.3,384.8Z"/><path class="cls-73" d="M346.5,275.7s3,1.7,3.7,3,2,5.1,3,5.2a7.39,7.39,0,0,0,1.7,0l1.6,4.8.7-5.8s2.6-.9,2-4.4a4.69,4.69,0,0,0-1.1-2.8l.5-.2a10.67,10.67,0,0,1,1.2,3.8c.1,1.8-1,3.6-2.2,3.9l-.8,7.2-2.3-5.9a2.76,2.76,0,0,1-2.6-1c-.9-1.3-1.6-4.4-2.4-5.1a32.88,32.88,0,0,1-3.2-2.6Z"/><path class="cls-73" d="M358.5,289.5a7.93,7.93,0,0,0,4.4-2.9,5.44,5.44,0,0,1-3.8,3.4s-.3,4.4.3,5.3,3-.3,3.5-1.6l.1-5.7.3,6.2s-2,3.4-4.7,1.4Z"/><ellipse class="cls-74" cx="354.1" cy="285.7" rx="0.5" ry="0.7" transform="translate(-71.09 123.76) rotate(-18.05)"/><ellipse class="cls-74" cx="355.81" cy="290.08" rx="0.5" ry="0.7" transform="matrix(0.95, -0.31, 0.31, 0.95, -72.36, 124.5)"/><path class="cls-73" d="M346.6,284.4s1.6,1.8.3,7.2c0,0-1.1,4.6-1.2,6a29.48,29.48,0,0,1-.8,4.4s-2.2,2.2-7.6-.7c0,0,5.4,1.7,7.1.3,0,0,.4-2,.7-3.7s1.1-6,1.4-7.5S347.2,285.4,346.6,284.4Z"/><path class="cls-64" d="M339,274.3s8.7,2.9,9.6,13.9c0,0,.3,8.5-3.2,11.2l-.4,2.5s4.4-.9,5.7-7.4,0-14.8-7.1-21.6C343.5,273,341.3,271.6,339,274.3Z"/><path class="cls-64" d="M360.4,273.2s2.7,2.6,2.6,12.3c0,0,.1,6,2,8.2,0,0,.1-13.9-.4-17.1-.6-3.4-1.6-4.7-3.3-6C361.3,270.5,360.8,272,360.4,273.2Z"/><path class="cls-10" d="M348.3,266.5a1,1,0,0,0-.6-.9c-.6-.3-1.3-.4-1.1,1.3s.8,2.7,1.4,2.8.9-.9.2-1.4-.3-1.1,0-1.1-1-.7-.9.2.3,1.4.3,1.4a3.11,3.11,0,0,1-.5-2.6C347.3,265,347.7,266.9,348.3,266.5Z"/><path class="cls-67" d="M357.6,328.6a25.55,25.55,0,0,0,2.7-1.6,21,21,0,0,1-3.7,3.6Z"/><path class="cls-75" d="M341.3,276.4s2.6-1.5,6.6,7c0,0,4.1,10.3-2.5,16.1,0,0,6.7-8.5.7-18.2C346.1,281.3,344.6,277.5,341.3,276.4Z"/><path class="cls-75" d="M335,275.4s2.3,1.7,4.1.4,7-4.6,7.8-4.6c0,0-2-.3-7.9,4C339,275.3,337.4,276.4,335,275.4Z"/><path class="cls-75" d="M360.4,273.2s2,1.3,2.3,5.2.5,10.5,1,11.9,1.3,3.4,1.3,3.4-2.2-1.6-2.6-10.2-.8-8.5-2.2-9.8Z"/><path class="cls-75" d="M336,279.4a11.56,11.56,0,0,0-.4,5,9.76,9.76,0,0,1-.9,6.5c-1.2,2.7.4,9.1.4,9.1s-2.1-6.1-.7-10.5.3-4.5.3-5.9S335.1,279,336,279.4Z"/><path class="cls-73" d="M343.8,319s4.3,4.1,14.1-.1c0,0,5-2.1,6.2-5.2l.8-20-1.2,20s-2.6,4.5-9.6,5.9c0,0-7.7,1.4-10.5-1.5Z"/><path class="cls-10" d="M336.9,300.9a10.36,10.36,0,0,0,6.3,1.7l-.1,3.7s-.4-2.3-2.3-2.7-2.8-.6-3.4.1-.6,2.2-.5,3.8A18,18,0,0,1,336.9,300.9Z"/><path class="cls-10" d="M367.3,289.6a2.26,2.26,0,0,1-2.5,1.5s.1,7.2-.2,9.3l-.5,13.4,1.6-20.9a4.45,4.45,0,0,0,1.5-2.1v-1.2Z"/><path class="cls-10" d="M340,379.3a6.3,6.3,0,0,0,5.2,1.5,3,3,0,0,0,1.7-1.2l.7.9a6.18,6.18,0,0,0-1.9,1c-1.1.8-5,.4-5.7-.8A2,2,0,0,1,340,379.3Z"/><path class="cls-10" d="M352.8,372.2s1.3,2.4,5.2,2c0,0,1.9,0,2.5-1.2,0,0,.7,1.7-2.6,2a7.14,7.14,0,0,1-5-1.1S352.4,372.8,352.8,372.2Z"/><polygon class="cls-70" points="363.6 266.7 361.9 266.1 361.8 266.5 363.7 267.1 363.6 266.7"/><path class="cls-76" d="M66,216.4s3.8,1.9,5.9,3.3c0,0,1.3.6,1,1.7,0,0-.3,2.1-3.2,1.7-1.3-.2-3.3-.1-7.8-3.4a3,3,0,0,1-1.6-2.4c0-1.6,3.8-1.8,5.7-.9"/><path class="cls-77" d="M61.6,219.5s4.4,4,9.2,3.7c0,0-6.4-1.4-7.5-3.6-.8-1.2.2-1.6.2-1.6l-1-.9-.7-.2-.5.2A9.22,9.22,0,0,0,61.6,219.5Z"/><path class="cls-76" d="M56.8,217.1l-.1.7s-.8,7.2.1,9a2.83,2.83,0,0,0,2.9,1.7c.8,0,3.1-1.4,2.5-6a48.72,48.72,0,0,0-.9-5.6Z"/><path class="cls-77" d="M56.7,218a5.35,5.35,0,0,0,4.7-.5l.3,1.2s-.3,2.3-5.1.6Z"/><path class="cls-78" d="M57.8,217.9a17.21,17.21,0,0,0,0,4c.3,1,1.7,2.5,2.7.4.8-1.7-.2-5.3-.2-5.3Z"/><path class="cls-78" d="M65.2,215.3s.3.9,2.2,1.9c1.2.6,2,1.3,2,2.1s-3.6,1-7-2.4Z"/><path class="cls-79" d="M61.5,216.9s2.8,1.2,3.7-1.5c0,0,.3-14.1,2.5-24.3s4.6-25.9,4.4-27.4L60.6,168Z"/><path class="cls-78" d="M78.2,146.8a2.78,2.78,0,0,0,1.5.8,4.7,4.7,0,0,1,3,1.6c.9,1,1.1,1.7,2,2.2s.7.9.3,1.3-2.1.1-2.7-1.4a7.09,7.09,0,0,0,1.1,2.4c.7.8,1.7,2.4,1.2,3.4s-2.1,1.1-3.9.5-4.5-1.9-5.3-5.9a3.3,3.3,0,0,0-.8-2S74.7,147,78.2,146.8Z"/><path class="cls-79" d="M47.9,167.4s3.5,25,7.9,48.2c0,0,.1,2.6,2,2.8,2.6.3,4.4-1.2,4.2-2.6,0,0-.4-35.7,1.2-46.7C63.3,169.1,56.3,159.9,47.9,167.4Z"/><path class="cls-80" d="M49.7,132.2,47,158.9a1.86,1.86,0,0,0-1.6,1.9s3.2-26,2.4-30.7Z"/><path class="cls-81" d="M78.3,146.1s-3.3-8.4-4.1-10.2-.7-8.2-.7-8.2c-1-15.9-6.1-15.9-6.1-15.9-.5,2.5-3.6,4.9-3.6,4.9,4.4,7.3,1,9.8,1,9.8.5,1.7-.3,6.4-.3,6.4-.7-3.9-2.1-5.1-2.1-5.1-3.1,0-4.9-3.7-4.9-3.7-2.7-5.1-5.1-6.1-5.1-6.1a12.79,12.79,0,0,0-4.9,2.5c-4.9,5-6.5,20.9-6.4,24.2S45.4,155,45.4,155a12.57,12.57,0,0,0-.1,6.4L56.5,171a18.63,18.63,0,0,0,16.8-6.4l.3-3.4a20.62,20.62,0,0,0-.4-5.3c-.6-2.9-3-12.9-3-12.9l4.3,7.2c.7-3.1,4.1-3.2,4.1-3.2A4,4,0,0,0,78.3,146.1ZM50,144.8l-1.1,3.1-1.3-5.4a53.67,53.67,0,0,1,1.8-5.5A14.94,14.94,0,0,1,50,144.8Z"/><path class="cls-78" d="M55.2,113.3s.6,2.7-2.4,4.8a33.86,33.86,0,0,1,5,6.4c2.8,4.4,4.7,3.3,4.7,3.3l2.1,5.1.5-6.4s3-2.3-1.3-9.8A11.19,11.19,0,0,1,55.2,113.3Z"/><path class="cls-78" d="M53,110.4s-2,5.3,2.2,3.1c0,0,4,5.3,9.4,3.1,0,0,2.6-1.1,3.3-7.6,0,0,1.4-8.6-.6-10.5,0,0-10.9-7-13.9-.3A14.48,14.48,0,0,0,53,110.4Z"/><path class="cls-30" d="M54.6,93s-7,.7-7,10.9a21.86,21.86,0,0,1-1.1,5.3c-.9,2.4-.7,7.8,7.6,7.8a3.48,3.48,0,0,0,1.1-3.7s-1.7.7-1.7-1.7a15.33,15.33,0,0,0,3.2-2.9c.6-.3,1.6-.6,2.4-4,0,0,6.2.9,8.3-4.1a26,26,0,0,1,.4,5.7c0,.3-.6,1.6-.6,2-.1,1.2.5,2.1.2,3.3,0,0,2,1,2.2-5.1s-1.6-7.4-3.5-10C66.1,96.2,60.7,89.7,54.6,93Z"/><path class="cls-82" d="M55.9,138.9s4.5.5,7.1-1.7C62.8,137.4,61.2,140.4,55.9,138.9Z"/><path class="cls-83" d="M65.1,126.6c1.5-4-1.6-8.7-1.6-8.7-1.3,0-2.4-.1-2.4-.1a8.26,8.26,0,0,1-3.3-1.3c-2.5-1.7-2.4-3-2.4-3.8,0,0,2.5,4,6.2,4.3a8.52,8.52,0,0,0,2.3,0c0-.1,4.2,6.4,1.2,9.6"/><path class="cls-83" d="M67.9,106.4s-4.7,3.7-8,2.6c0,0,1,1.8,5.1-.3l2.6-1.6Z"/><path class="cls-79" d="M49.4,144.3a10.16,10.16,0,0,0,1.8,2.4c1.4,1.5,6,2.4,8.9,1.5a27,27,0,0,1-.9-7.8c.1-1.8.2-3.5.2-4.8a22.6,22.6,0,0,0-1-9.2s-.6,0-2.5-3.5c-2-3.7-2.9-4.6-4.2-4.9,0,0-2.3.5-2.9,1.5,0,0,4.5,1.9,4.4,8.9-.1,7.3-3.7,9.3-3.7,9.3a8,8,0,0,0,.3,2.5C50.3,141.9,49.4,141.9,49.4,144.3Z"/><path class="cls-80" d="M47.6,120.4s4.2-.8,5.7,10.4l1.6,27.4.7,4.5,1.1.8s-1-9.6-1.2-16.2-.8-18.8-1.5-21.1-1.6-5.4-5.1-6.8A1.06,1.06,0,0,0,47.6,120.4Z"/><path class="cls-82" d="M51.6,127.5a18.94,18.94,0,0,1-2.2,9.6S53.5,131.2,51.6,127.5Z"/><path class="cls-82" d="M51.3,132.5a3.57,3.57,0,0,0,1.3-2.2,3.06,3.06,0,0,1-1.5,3.1Z"/><path class="cls-79" d="M65,116.4s3.7,5.1,2.9,19.1c0,0,0,4.3-.3,7a17.26,17.26,0,0,0,.2,5,5,5,0,0,0,3.3-2,4.3,4.3,0,0,1,.7-.7s-.6-11.6-.3-12.6a9,9,0,0,0,.9-3.9c-.2-1.7-2.3-4.5-3.3-7.4s-2.6-6.5-2.6-6.5A5.17,5.17,0,0,1,65,116.4Z"/><path class="cls-30" d="M58.5,106.6s-1.7,5.1-4.9,5Z"/><path class="cls-84" d="M71.5,132.3a9.7,9.7,0,0,1-2.6,2.7,5.88,5.88,0,0,0,2.6-1.8Z"/><polygon class="cls-82" points="62.2 127.9 64.6 132.9 65.4 126.3 65.1 126.5 64.5 131.9 62.5 127.8 62.2 127.9"/><path class="cls-80" d="M45.6,155.1l1.1,1.5-.1,2.2s-1.2.4-1.2,1.2A34.37,34.37,0,0,1,45.6,155.1Z"/><path class="cls-82" d="M48.8,148l2.8,6.7,1.3,1.8a7,7,0,0,1-4.4,3s-2.2-3.4-3-4.6l3.1,4a6.35,6.35,0,0,0,3.6-2.3l-1-1.7a8.07,8.07,0,0,1-4.1,1.9,31.8,31.8,0,0,0,3.9-2.1C51.1,154.6,49,150.1,48.8,148Z"/><path class="cls-80" d="M45.3,161.3s-.1,6.6.9,8.5c0,0,1.2,1.9,6.7,3.9a6.91,6.91,0,0,0,3.1.7,2.46,2.46,0,0,0,2.1-1.8s0-6.2-.3-6.9c0,0-.3-.9-2-1.2S45.1,158.5,45.3,161.3Z"/><path class="cls-85" d="M47,158.7s-1.6-.1-1.7,2.1a12.47,12.47,0,0,0,.7,4.3s2.6,2.8,4.6,3.6,4.3,1.2,5.2.5a3,3,0,0,0,.2-1.4,1,1,0,0,1,.8-.9s.9-.1.9-.6l.1-.7S49.1,159.7,47,158.7Z"/><path class="cls-86" d="M45.6,161.1s9.1,5.8,10.3,6.2C56,167.2,49.7,164.6,45.6,161.1Z"/><ellipse class="cls-87" cx="50.18" cy="166.25" rx="0.6" ry="0.8" transform="translate(-56.53 29.25) rotate(-21.12)"/><path class="cls-86" d="M45.3,164.4a12.43,12.43,0,0,0,10.3,5s-.1-2,1.2-2.5a3.09,3.09,0,0,0-.9,2.7A11.59,11.59,0,0,1,45.3,164.4Z"/><path class="cls-79" d="M63.5,170.5s-.1,16.8-1.2,24.1c0,0,.1,4.1.1,7.2s-.4,15-.4,15l-.3.5s.4-13.1.1-15.6a62,62,0,0,1-.1-7.3c.1-1.1.9-22.2,1.1-23.7Z"/><path class="cls-82" d="M77.4,144.8a4.15,4.15,0,0,0-3.9,3.3A3.24,3.24,0,0,1,77.4,144.8Z"/><path class="cls-78" d="M52.7,156.8a2.51,2.51,0,0,0,1.7.8c.9,0,1.8.9,2.5,2s1.2,1.3,1.3,1.7-.2.9-1.3.5a11.08,11.08,0,0,1-1.9-.9,6.67,6.67,0,0,1,1.5,2.1c.5,1.2,1.7,1.1,2.1,2a1,1,0,0,1-1.1,1.3,5,5,0,0,1-2.7.4s-3.1-.7-4.7-4.9a14.2,14.2,0,0,0-.9-2.6A7.17,7.17,0,0,0,52.7,156.8Z"/><path class="cls-88" d="M71.9,166s-3.8,4.8-13.8,4.9v1.7a24.55,24.55,0,0,0,13.6-5Z"/><path class="cls-83" d="M65.4,109s.7,2.8.1,4.4a1.13,1.13,0,0,1-1.2.6s1-.3,1.1-2.1a7.24,7.24,0,0,0-.4-2.7Z"/><path class="cls-89" d="M53.5,111.6s0,2.3,1.8,1.7c0,0,.5,2.4-1.1,3.7a10,10,0,0,1-3.6-.4s4.3.7,4.1-1.8l-.1-.9S53.3,113.8,53.5,111.6Z"/><circle class="cls-90" cx="54.6" cy="113" r="0.5"/><path class="cls-90" d="M55.1,114.3a.5.5,0,0,1-1,0c0-.3.2-.9.5-.9S55.1,114.1,55.1,114.3Z"/><path class="cls-83" d="M55.3,113.3s.9,2.5-2.4,4.8a36.3,36.3,0,0,1,3.5,4.2s-2.2-3.3-1.3-4.4a8.2,8.2,0,0,0,1.3-2.9Z"/><path class="cls-83" d="M56.4,122.3s3.5,6.3,6.1,5.4l2,4.1.6-5.3-.8,3.7a11.29,11.29,0,0,0-1-3.7l.3,3-1.1-2.2s-2.6.9-7.2-6.8Z"/><polygon class="cls-83" points="63.2 117.4 62.9 119.9 63.6 118.9 63.5 117.3 63.2 117.4"/><path class="cls-90" d="M54.1,117s3.8,6,8.5,6c0,0,2.2.1.9-4.6,0,0,2.2,4.4-.4,5.1C63.1,123.6,58.7,125.1,54.1,117Z"/><path class="cls-90" d="M62.4,123.6s1.2,1.2,1.3-.4Z"/><polygon class="cls-82" points="62.2 138.2 59.1 141.3 59.3 139.2 62.2 138.2"/><path class="cls-82" d="M50.2,135.6l.2,1.4-.8.6-.2-.6A3.41,3.41,0,0,0,50.2,135.6Z"/><path class="cls-82" d="M41.2,145.2s2.6,8.1,5.8,11.9l2.3-.9-2,.5A52,52,0,0,1,41.2,145.2Z"/><path class="cls-82" d="M47.5,142.8a3,3,0,0,0-2.1-2.1S48.1,140.3,47.5,142.8Z"/><path class="cls-82" d="M65.8,134.7l-2.4,5.7A11.71,11.71,0,0,0,65.8,134.7Z"/><ellipse class="cls-79" cx="62.15" cy="128.89" rx="0.6" ry="0.3" transform="translate(-60.9 55.85) rotate(-33.56)"/><ellipse class="cls-79" cx="64.83" cy="133.44" rx="0.6" ry="0.3" transform="translate(-63.44 58.9) rotate(-33.92)"/><path class="cls-88" d="M63.5,170.5s-.7,18.1-1.4,24.8c0,0-.2,20.1-.4,21.1,0,0-1.8,3.2-5.4.7a2.39,2.39,0,0,0,3,1.4,3,3,0,0,0,2.8-1.7l.4-21.8,3.2-25Z"/><path class="cls-83" d="M54.9,160.3s-.1.2.4.8,1.1,2.1,1.6,2.7,2.1.5,1.7,1.8c0,0,.4-.6-1.6-1.4C55.7,163.4,55.4,161.4,54.9,160.3Z"/><path class="cls-83" d="M82.3,151.3a1.29,1.29,0,0,0-1.8-.7,3.13,3.13,0,0,1-2.6-.3s.4,1.2,2.4.9A1.54,1.54,0,0,1,82.3,151.3Z"/><path class="cls-83" d="M78.2,146.8s-2.9.6-3.6,3a4.12,4.12,0,0,1,.8,2c.3,1.4,1.4,4.5,4.5,5.6a8.45,8.45,0,0,1-4.1-6.1c-.7-4.3,3.6-3.7,3.6-3.7Z"/><path class="cls-83" d="M81.7,153.1l-2.8,2A3.85,3.85,0,0,1,81.7,153.1Z"/><polygon class="cls-84" points="59.3 139.2 55.7 140.6 56.5 141.7 56.5 143 59.1 141.3 59.3 139.2"/><path class="cls-83" d="M57.7,219.6a5.68,5.68,0,0,0,3.1,0l-.2-1.5s-.7.5-2.8.3Z"/><path class="cls-83" d="M52.7,156.8a6,6,0,0,1-3.5,2.4,24.15,24.15,0,0,1,.9,2.6,8.48,8.48,0,0,0,2.4,3.5s-2.6-3.4-2-4.9a3.5,3.5,0,0,1,3-2,9.52,9.52,0,0,0,1.8-.2A24.1,24.1,0,0,0,52.7,156.8Z"/><path class="cls-83" d="M62.5,217.2l1,.9s3-.5,1.7-2.7A3,3,0,0,1,62.5,217.2Z"/><path class="cls-78" d="M401.6,85.4l.5,10.8c3.4,0,2.6-5.1,2.6-5.1s-.2,1.4,1.6,1.3.9-.9.9-.9c-.6-1.2-.7-3.3-1-4.6a15.49,15.49,0,0,0-1.2-3A11.9,11.9,0,0,1,401.6,85.4Z"/><path class="cls-91" d="M401.2,56c.1,1.7-.1,3.3,0,5s.2,3.3.3,5,.2,3.2.3,4.9a41.93,41.93,0,0,1,.3,5l.3,5c.1,1.7.2,3.3.2,5-.3-1.7-.4-3.3-.6-5l-.5-5c-.2-1.7-.3-3.3-.4-5s-.3-3.3-.4-5-.2-3.3-.2-5,.2-3.3.2-5,0-3.3,0-5-.1-3.3-.1-5A67.66,67.66,0,0,1,401.2,56Z"/><path class="cls-91" d="M402.4,50.6a15.14,15.14,0,0,1-.2,3,8,8,0,0,1-.3,1.5,4.58,4.58,0,0,1-.8,1.3H401a4.3,4.3,0,0,1,0-1.6c.1-.4.3-1,.4-1.4l1-2.8Z"/><path class="cls-91" d="M402.3,81.8l-.1-.4c2.2-.5,2.8-1.5,2.8-1.5A2.92,2.92,0,0,1,402.3,81.8Z"/><path class="cls-83" d="M407.3,91.8c.1.3-.5.5-.5.5a2.48,2.48,0,0,1-2-.3,2.91,2.91,0,0,1-.8-1.1,2.28,2.28,0,0,1,.1-1.9,6.73,6.73,0,0,0,.1,1,5.19,5.19,0,0,0,.5,1.2c1.2,1.9,2.4.4,2.4.4Z"/><path class="cls-83" d="M404.1,89.5c-1,.1-1.3-.3-1.3-.3v-.9c.2.7,1.3.6,1.3.6Z"/><path class="cls-92" d="M374.8,148s-1.1,2.1-.8,3,8.4,9.4,10.8,8.6,2.8-1.6,2.5-2.5-5.3-7.8-5.3-7.8C378.5,151.9,374.8,148,374.8,148Z"/><path class="cls-93" d="M383,150.8s-4.4,2.8-8.6-1.6l.4-1.2s4.7,3.2,7.2,1.3Z"/><path class="cls-92" d="M388.5,141.6s-1,2.4-.7,3,8.5,8.4,10.3,8.3a3.31,3.31,0,0,0,2.9-2.6c0-.9-5.2-6.8-5.2-6.8Z"/><path class="cls-93" d="M396.3,144.2s-4.9,2.2-8.1-.7l.4-1.9a7.32,7.32,0,0,0,6.9,1.3Z"/><path class="cls-94" d="M397.2,85.5c-4.4,2.9-19.4,5.9-19.4,5.9-.3,3.1.3,36,.3,36,.7,5.2-3.5,18.9-3.5,18.9s-.9,3,3.3,4.1,4.8-1.9,4.8-1.9,4.8-17.7,5.5-20.3,1.6-20.3,1.6-20.3c1.6,5.4,2.4,11.2,2.2,14.5s-4.4,18.3-4.4,18.3c1.2,3.9,5.7,3.5,7.1,3a2.11,2.11,0,0,0,1.5-2.4c.6-2.6,5.2-17.8,5.2-19.8s-.8-24.4-.8-24.4C400.6,87.3,397.2,85.5,397.2,85.5Z"/><path class="cls-95" d="M383.1,44.5l-.4,1.4c.6,3.8,4.1,10,5,13.2s-.3,12,.3,17.1a42.79,42.79,0,0,1-.6,11.2c4.5.2,9.8-3.8,9.8-3.8s.3-3.2.3-5.1-.3-16.7,0-23.5-2.3-9.8-2.3-9.8Z"/><path class="cls-96" d="M392.7,49.5,391,51.6l1.5,2.1a1.07,1.07,0,0,0,1.6-.3c.7-1,1.3-2.7,1.1-2.9A7,7,0,0,0,392.7,49.5Z"/><path class="cls-96" d="M392.8,53.5s-2.2,19-2.3,19.3a37.06,37.06,0,0,0,3.2,4.1,49.77,49.77,0,0,0,2.7-5.7c.2-2.6-2.4-18.1-2.4-18.1Z"/><path class="cls-97" d="M383.5,42c-1.9.8-2.4,3.8-2.4,3.8s-5.8,4-7.4,6.3-1,4.3-1.3,7.8-2.4,12.5-2.3,17.2,2.9,14,2.9,14a19.29,19.29,0,0,0-1.3,4.9c3.4,4,9.5,3.9,9.5,3.9A10.38,10.38,0,0,0,388,99a27.2,27.2,0,0,1,.1-5.7c.4-2.5-.6-5.8,0-9.9s0-11.5.3-18.6-2.7-12.1-4.6-16-.3-5.1-.3-5.1Z"/><path class="cls-97" d="M395.1,44.9c2.3,2.7,2.5,12,2.2,15.6s0,8.4,0,13.5.3,16.5.4,19-.6,5.2.1,5.6,1.5-.4,2.9-1.3a7,7,0,0,0,2.2-2.7c.2-2.6-.3-9.1-.3-9.1.6-.2,2.3-1.1,2.4-1.6a14.67,14.67,0,0,0,.1-3.1c0-.9-.3-1.6-.4-3.5s-.8-14.6-.9-17.5-.1-15.3-.1-15.3a5.42,5.42,0,0,0-5.9-5.2A41.2,41.2,0,0,0,395.1,44.9Z"/><path class="cls-98" d="M390.7,53.4a33.19,33.19,0,0,1-8-7.6c.1-1.7.7-2,.7-2a28.88,28.88,0,0,0,9.4,5.7A17.17,17.17,0,0,0,390.7,53.4Z"/><path class="cls-98" d="M395.3,45.2a10,10,0,0,1,1.1,6.2,17.55,17.55,0,0,1-3.6-1.7,5.8,5.8,0,0,0,1.1-3.2A5.85,5.85,0,0,0,395.3,45.2Z"/><path class="cls-78" d="M375.3,97.9c-.8,1.2-1,5.5-.6,7.1a7,7,0,0,0,3,4c1.7,1.2,2.3.2,2.4-.3s-.6-3-.7-3.6c-.2-.9-.7-3.5.3-3.4s.4,2,.6,3,1.4.7,1.6.3.1-.9.4-1.7-.5-3.1-.5-3.1c-.8-2.6-1.5-3.2-1.5-3.2A3.76,3.76,0,0,1,375.3,97.9Z"/><path class="cls-99" d="M381.9,62.1c-.2.8-.3,1.6-.5,2.4-.7,3-1.4,6.1-2,9.2a16,16,0,0,0-.3,2.3,19.22,19.22,0,0,0,0,2.4l.2,4.8c.2,3.1.3,6.4.5,9.5v-.1a21.18,21.18,0,0,1,.5,4.4v.1h0a2.3,2.3,0,0,1-1.7,1.2,6.28,6.28,0,0,1-1.9.3,3,3,0,0,1-1.8-.6,2.7,2.7,0,0,1-1-1.7h0c-.4-2.2-.9-4.4-1.3-6.5.6,2.2,1.1,4.3,1.7,6.4h0a2.81,2.81,0,0,0,1,1.4,2.73,2.73,0,0,0,1.6.4,4.67,4.67,0,0,0,1.7-.3c.3-.1.5-.2.8-.3a.82.82,0,0,0,.5-.5V97a20.26,20.26,0,0,0-.6-4.2h0c-.3-3.1-.4-6.4-.6-9.5-.1-1.6-.2-3.2-.2-4.8V76.1q.15-1.35.3-2.4a78.26,78.26,0,0,1,1.9-9.4c1-3.5,1.7-6,1-9.2C383,57.8,382,61.4,381.9,62.1Z"/><path class="cls-99" d="M378.6,93.9a3.82,3.82,0,0,1-1.6.6,3.22,3.22,0,0,1-1.7-.1,5.48,5.48,0,0,1-1.5-.8c.5,0,1,.1,1.6.1a7.57,7.57,0,0,0,1.5-.1,7,7,0,0,0,1.4-.3,9.38,9.38,0,0,0,1.5-.6A4.53,4.53,0,0,1,378.6,93.9Z"/><path class="cls-100" d="M397.5,87c-3,2.9-9.3,3.7-9.3,3.7l-.3-3.8c6.3-.9,9.3-4,9.3-4Z"/><path class="cls-101" d="M390.9,86.2l.1,4.2a17.62,17.62,0,0,0,4.2-1.7c.7-2.9-.1-4.3-.1-4.3A14.74,14.74,0,0,1,390.9,86.2Z"/><path class="cls-102" d="M393.5,99.2c-3.9,2.9-3.7,9.4-3.7,9.4v-2a11.07,11.07,0,0,1,1.5-6.3l-2.6.7,4.2-2.8,1.7-7.2Z"/><ellipse class="cls-103" cx="393.6" cy="79.8" rx="0.5" ry="0.7"/><path class="cls-99" d="M387.3,81.5c-.1-1.1-.2-2.3-.3-3.3s-.3-2.2-.5-3.2c-.4-2.2-1-4.3-1.6-6.4l-.8-1.5-.1-.4-.1-.2v-.3l.3-.9c.3-1,.7-2.1,1-3.1l.3.5a5.27,5.27,0,0,1-1.2-.3c-.2,0-.4-.2-.6-.3a3.17,3.17,0,0,1-.5-.6,3,3,0,0,1-.1-1.3l.1-1.1a10.87,10.87,0,0,0-.5-4.4c-.5-1.4-1.1-2.9-1.5-4.4a14.24,14.24,0,0,1-.2-4.6,13.55,13.55,0,0,0,.5,4.5,29.44,29.44,0,0,0,1.7,4.3,12.06,12.06,0,0,1,.8,4.6v1.1a2.79,2.79,0,0,0,.1,1,1.44,1.44,0,0,1,.3.2c.1.1.3.1.4.2a3.55,3.55,0,0,0,1,.2h.5l-.2.5c-.3,1-.6,2.1-1,3.1-.1.2-.1.5-.2.7l.2.6.4,1.6c.6,2.1,1.1,4.3,1.5,6.4a18.41,18.41,0,0,1,.3,3.3c.1,1.1.1,2.2.2,3.3.1,2.2.2,4.4.3,6.5C387.6,85.7,387.4,83.6,387.3,81.5Z"/><path class="cls-78" d="M394.1,46.4c.4-.2,3.6-3.4,3.8-7.1a8.3,8.3,0,0,0-.2-3,2.57,2.57,0,0,1,.1-1.5,3.78,3.78,0,0,0,.1-1.4s.3-3.5-.7-4.4-6.8-8.8-13.1-5.1a4.22,4.22,0,0,0-1.3,3.7c.1.3-.2,7.6-.2,7.6s-1.8-.6-1.9,1.6.4,4.2,1,4.6,1.2.8,1.7.6l-.2,1.9a24.13,24.13,0,0,0,9.3,5.7A5.18,5.18,0,0,0,394.1,46.4Z"/><path class="cls-30" d="M386.7,27.3a13.68,13.68,0,0,0,9.7,2.1c1.4,0,5-2.2,2.3-6.4,0,0-1.8-2.8-5.2-.7-1.6-.6-3.5-2.3-5.7-1.7s-5.7,2.3-6.1,3.4a4.22,4.22,0,0,0,0,2.4s-1.3.4-1.3,2.6,0,6.4.4,7.8c0,0,.5-2.2,2.4-1a4.14,4.14,0,0,1,1,2.8l.1,1.6,1.6.7-.2-1.7a2.39,2.39,0,0,1,.5-1.4,4.45,4.45,0,0,0,1.3-2.4c.4-1.7-2.7-5.1-2.7-5.1C384.8,27.5,386.7,27.3,386.7,27.3Z"/><path class="cls-83" d="M392.9,49.5c.1-1-.1-1.7-.6-2-1-.6-2.1-.5-3.5-1.2-3.4-1.7-3-3.9-3-3.9a7.45,7.45,0,0,0,2.8,3c3.6,2,5.4,1,5.4,1A5.1,5.1,0,0,1,392.9,49.5Z"/><path class="cls-83" d="M397.5,35.5a13.94,13.94,0,0,1-6.5,3c-2.7.5-3-1-3-1s.5.5,3,.3a18,18,0,0,0,4-1.5,7.07,7.07,0,0,0,3-1.8A1.55,1.55,0,0,0,397.5,35.5Z"/><path class="cls-83" d="M383.4,43.8a31.91,31.91,0,0,0,3.7,3C384.8,44.9,385,41,385,41c-.3.1-.5.6-.7.7a1.69,1.69,0,0,1-.7.3Z"/><path class="cls-83" d="M383.3,38.3c.3.6-.4.8-.7.6s-.1-2.2-.4-1.5.2,2.3.7,2.4-.1-.8.5-.7.6.8.6.8a.94.94,0,0,1-1.6.6c-.7-.6-1.2-3.7-.3-4.1s1.7,1.1,1.7,1.1C383.4,37.5,383.1,37.7,383.3,38.3Z"/><path class="cls-99" d="M397.5,93.7s-.1-4.4,0-5.3c.3-3.4,1.1-11.5,1.7-14.6.8-4.1-.2-8.6-.5-10.6s1.5-2.3,1.6-3.9-1.4-6.1-1.4-6.1c-.3-7.9-2.4-9.9-2.4-9.9l-1.4,2,1.4,3.5c1,4.4.4,11.5.3,15.2-.2,2.6-.1,21.3.5,28.6Z"/><path class="cls-99" d="M383.5,42l-.2,1.8s-1.2,1.8.6,5.2a33,33,0,0,1,4.5,13.5c.4,5.4-.7,23.2-.4,25.1,0,0-.5-9.7-1.4-13.1s-2.5-8.2-2.1-8.9a18.81,18.81,0,0,0,.9-3.3s-1.6-.5-1.8-1.2.3-4.6-.7-6.7-3-7.2-1.5-10.2C381.6,44.3,382.2,42.6,383.5,42Z"/><path class="cls-99" d="M402.8,46.7s-.9,3.3-1.2,4.9c0,0,.7,30.9,1,33.8,0,0-1.6-16.7-1.6-33.2a36.24,36.24,0,0,0-.1-4.4l.5,2.3A14,14,0,0,0,402.8,46.7Z"/><path class="cls-99" d="M381.2,58.1s.8,3.5.1,5.8l-.5,1.4A33.33,33.33,0,0,1,381.2,58.1Z"/><path class="cls-102" d="M392.9,98.3l4-1.5a25.31,25.31,0,0,1-4.4,3Z"/><path class="cls-103" d="M397,83.3s-2.6,2.8-9.1,3.6c0,0,.7-19.1.7-20.6a29.45,29.45,0,0,0-2.8-13.8c-3.1-6.2-2.5-5.5-2.7-6.2,0,0,3.6,4.9,7.6,7.2l.6-1.4a13,13,0,0,0,1.5,1.9l-1.2-.6-.8,1.4a48.9,48.9,0,0,1-5-3.6s3,1.5,3.6,12.2a108.85,108.85,0,0,1-.7,21.3s-.1.7-.3,1.5c6.2-.5,8.7-3.9,8.7-3.9Z"/><path class="cls-83" d="M395.1,38.1s1,2.8.3,4.1c0,0-.3.4-1.3.4s-1.1-.3-1.1-.3a3.64,3.64,0,0,0,2.1-.8Z"/><path class="cls-103" d="M396.3,47.9s.9,1,.9,8.2l-.3,26.7-.6.7s.5-20.2.2-23.2-.3-8.2-.3-8.2l-1.2-.8.1-.5,1.2.6C396.4,51.5,396.8,50.6,396.3,47.9Z"/><path class="cls-83" d="M375.3,97.9s2.3,1.7,5-1c0,0,.9.6,2,5.1,0,0-1.4-4-2.3-3.2a4.89,4.89,0,0,1-5.1.5A3.13,3.13,0,0,1,375.3,97.9Z"/><path class="cls-83" d="M405.1,83.9a4.49,4.49,0,0,1-2.4,1.6v.8a28.52,28.52,0,0,0,2.9-1.4Z"/><path class="cls-9" d="M164.9,74.5a19.41,19.41,0,0,0-1,8.4s.9,4.1,4.1,4.6c0,0-.5-6.6.5-8.3s-.5-3.9-.5-3.9Z"/><path class="cls-104" d="M164.7,75.3a3.41,3.41,0,0,0,4.1.7v.9l-1.4,1.8s.1-1-1.3-1.2a12.94,12.94,0,0,1-2-.4S164.5,75.8,164.7,75.3Z"/><path class="cls-104" d="M166.1,78.6a30.06,30.06,0,0,0-.1,4.5c.2.9,1.2.7,1.3-.3a10.62,10.62,0,0,1,.4-2.9,3.1,3.1,0,0,0,.6-1.3s.4.4-.5,1.9l-.2,2.3s-.1,1.2-1,1.1-1-1.3-1-2C165.7,81.5,165.6,78.4,166.1,78.6Z"/><path class="cls-105" d="M179.5,134.6s-3.4,3-4.9,4.6-.1,3.6,2.4,2.6a35.5,35.5,0,0,0,8.1-4.6l.3,1s.7.6.9-.6,1-4.9-.2-5.9C186.1,131.8,183.3,136.1,179.5,134.6Z"/><path class="cls-9" d="M180.9,114.4s1.2,14.4.3,17a12.85,12.85,0,0,1-2.7,4.4s-2.3,2.5.7,1.9a11.88,11.88,0,0,0,6.7-4.1c.8-1.3-.6-2.7.2-6s2.8-8.9,3-13.9Z"/><path class="cls-104" d="M181,116.5s5.2.9,7.9-.9l.3-2.1-8.4.9Z"/><path class="cls-105" d="M168.8,129.2a26.56,26.56,0,0,0-4.9,4.6c-1.3,1.8-.1,3.6,2.4,2.6a35.5,35.5,0,0,0,8.1-4.6l.3,1s.7.6.9-.6,1-4.9-.2-5.9C175.4,126.3,172.6,130.6,168.8,129.2Z"/><path class="cls-9" d="M170.2,109s1.2,14.4.3,17a12.85,12.85,0,0,1-2.7,4.4s-2.3,2.5.7,1.9a11.88,11.88,0,0,0,6.7-4.1c.8-1.2-.6-2.7.2-6s2.8-8.9,3-13.9Z"/><path class="cls-104" d="M170.5,113.4s2.9,3.2,6.7,2.1l.4-1.4-7.3-2.8Z"/><path class="cls-106" d="M169.5,75.8a6.39,6.39,0,0,0-2.5,4.3c-.3,2.8-1.9,24.2-1.9,24.2a3.44,3.44,0,0,0,.4,3.5c1.2,1.8,11,10.2,23.3,6.5,0,0,6.9-2.2,7.3-7L194,85.1Z"/><path class="cls-9" d="M191.1,47.4s-4.2-1.4-6.4,4.9a9.67,9.67,0,0,0-1.3,5.5s9.9,1.5,10.6-5.2C194,52.7,193.5,48.3,191.1,47.4Z"/><polygon class="cls-107" points="185.3 99.7 184.6 110.1 199.8 101.9 200 91.7 185.3 99.7"/><path class="cls-104" d="M187.2,53.6l1.1,4.7.4-.1C188.8,58.2,188.5,54.6,187.2,53.6Z"/><path class="cls-108" d="M170.4,29.2s.7,4.1,0,6.7-.8,4.7,2.2,5.6l1.6.2s-1.5-9.8-.8-13.1C173.4,28.7,170.5,26.4,170.4,29.2Z"/><path class="cls-9" d="M189,88.1a6.73,6.73,0,0,0-1.3,4.2,26.86,26.86,0,0,1-.6,5.3s.1.7,1.1.3,1-1.5,1.1-2.5a11.58,11.58,0,0,1,.2-1.5,17,17,0,0,1,0,4.8c-.4,2.2,1.9,1.4,3.1.4s2.7-6.2,1.5-9.9C194.1,89,190.6,89.5,189,88.1Z"/><path class="cls-104" d="M188.9,88.3s3.2,1.6,5.2.7a5.21,5.21,0,0,1,.4,2.3,2.06,2.06,0,0,0-2.3-1.1c-2.7.2-3.6.3-3.8,2.3a13.07,13.07,0,0,1-1.2,4.8s.5-4.5.4-5.4S188,88.7,188.9,88.3Z"/><path class="cls-108" d="M170.4,29.5a7.86,7.86,0,0,1,4.8-8.5s4-2.2,6.7-1.5,7.4,2.3,8,5.8-.8,5.5,1,9.8,4,8.7.1,12.4c0,0-4-1.4-5.1-2.3-2.1-1.9-1.6-3.5-1.8-5.4a7.89,7.89,0,0,1-2.2-5.1V31.9C182.1,31.7,173.5,33.9,170.4,29.5Z"/><path class="cls-109" d="M171.9,39s-5,1.1-5.8,7.5-1.5,15.4-2,18.1-2.4,7.9,0,10.3,4.4,1,4.4,1l-.6-.7s1.7,3.7,4.7,4.6,4.2.8,7.4,4.2,6.6,3.2,8.7,2.1a9,9,0,0,0-.2,1.3c0,.4-.5,1.1,2.2,1.7s4.3-.4,4.5-1.4,2.1-10.8,2.5-12.6,1-2.6,0-8.6a99.83,99.83,0,0,0-4.4-16,4.62,4.62,0,0,1-.9,4.6c-1.9,2-8.4,2.6-9.8,2.3-2.3-.6-8.8-2.3-9.9-12a4.46,4.46,0,0,1,.5-3.1A9.56,9.56,0,0,1,171.9,39Z"/><path class="cls-9" d="M184.3,40.1a5.1,5.1,0,0,0,2.1,4.8s1.2.7,1.5.8A113.23,113.23,0,0,0,180.5,57a12,12,0,0,1-7.1-7.9s-1.6-4.1-.1-6.9c0,0,3.5,2.6,6.6,1.6s4.1-4.4,4.1-4.4Z"/><path class="cls-104" d="M173.2,42.3a14.38,14.38,0,0,0,.9,7.8s1.6,5,5.1,6.3l-1.8-1.5.3-1.1-.9.5s-4-6.9-3.2-11.5Z"/><path class="cls-9" d="M171.4,30.6a43.57,43.57,0,0,0,.5,8.5c.7,3.2,2.3,5.5,5.7,5.5,2.9,0,5.7-.9,6.4-4.5a1.29,1.29,0,0,0,1.9-.4,1.06,1.06,0,0,0,0-.6s-3.3-1.8-3.5-4.1a14.78,14.78,0,0,1,.1-3.8S175.4,33.8,171.4,30.6Z"/><path class="cls-110" d="M183.7,57.6a13.69,13.69,0,0,1,.6-4c2.3-7.1,6.8-6.2,6.8-6.2-.8-1.9-3.2-1.7-3.2-1.7a9.38,9.38,0,0,0-3.4,2.1c-3.4,3.2-2.1,8.3-5.3,8.5C179.1,56.4,182.9,58,183.7,57.6Z"/><path class="cls-104" d="M173.3,42.4a6.19,6.19,0,0,0,6.1,2,6,6,0,0,0,3.8-2.3,4.75,4.75,0,0,1-4.6,3C175.5,45.1,174.6,43.9,173.3,42.4Z"/><path class="cls-104" d="M184.4,43.7a5.14,5.14,0,0,0,2.8,1.7c-2.4-1.5-1.9-5.3-1.9-5.3a1,1,0,0,1-1,0c0,.3-.2-.8-.8,1.2,0,0,0,2.1-4.4,3.7C179.2,45.1,181,44.9,184.4,43.7Z"/><path class="cls-111" d="M189.7,95.9l-5.9,3.2-.7,10.4,1.5.6.7-10.4,4.4-2.3A7.5,7.5,0,0,0,189.7,95.9Z"/><polygon class="cls-111" points="194.5 93.3 194.3 94.9 200 91.7 198.7 91.1 194.5 93.3"/><path class="cls-112" d="M169.4,48.2a9.57,9.57,0,0,1-.4,5.7c-1.2,2.7-2.2,7.4,1.6,9.9,0,0-4.8-1.9-2.8-8.5C169.1,52,169.3,51.4,169.4,48.2Z"/><path class="cls-112" d="M173.2,42.3s-1.9,8.4,6.3,14.3C179.4,56.7,169.8,51.6,173.2,42.3Z"/><path class="cls-112" d="M172.1,52s2.6,11.6,12,12.8C184.1,64.9,173.9,63.9,172.1,52Z"/><path class="cls-112" d="M174.5,52.1S176,62.4,185.2,61c0,0-7.9.8-10.1-8.1Z"/><path class="cls-112" d="M175.3,53.3s2.8,5.2,7,5.9c0,0-4.5-.1-7.1-5.3Z"/><path class="cls-112" d="M169.4,63.1s1.5,4.9,1,7.2l-.9-4.9a58.17,58.17,0,0,1-1,8.4,3.29,3.29,0,0,0,.5,3s-.6,0-1-1a14.74,14.74,0,0,1,.3-3.5c.4-2.1,1.1-9,.7-9.7Z"/><path class="cls-112" d="M173.8,69.1s5.7,10,13.4,5.1C187.2,74.2,181.1,77.9,173.8,69.1Z"/><path class="cls-112" d="M189.6,59.3s1.4,9.7,1.5,11.4-1.9,14.6-1.9,15.8.7,2.2,2.9,2.3,2.2-.2,3-1.1c0,0-.2,1.8-3,1.5,0,0-3.1.1-3.6-1.2,0,0-.3-.5.3-2.9a126,126,0,0,0,1.9-14.3C190.7,70.9,188.6,59.7,189.6,59.3Z"/><path class="cls-112" d="M190.1,66.2s.5,5.7-3.4,6.8c0,0,3.4-1,3.7-5.5Z"/><path class="cls-112" d="M191.5,65.2s2.9,2.8,4.3-.4C195.8,64.8,194.9,69,191.5,65.2Z"/><path class="cls-112" d="M195.8,65.6s-.9,4.1-3.5,2.7c0,0,2.2.8,3.4-3.3Z"/><path class="cls-112" d="M196.2,73.4s-1.1,4.1-4.2,4.7a4.33,4.33,0,0,0,3.4-2.4s-1,4.1-3.5,4.2C191.9,79.9,195.4,80,196.2,73.4Z"/><path class="cls-112" d="M175.9,79.4a10.81,10.81,0,0,1,4,4c2.1,3.2,6.8,3.4,6.8,3.4A8.13,8.13,0,0,1,179,83c-2.8-4.5-3.5-3.7-3.5-3.7"/><path class="cls-112" d="M165.2,61.2s-.2,4.2,2.9,4.4C168.1,65.6,166.1,65,165.2,61.2Z"/><path class="cls-104" d="M171.9,34.4s2.6,3,8.9,2.1C180.9,36.5,173.7,38.6,171.9,34.4Z"/><path class="cls-104" d="M174.4,37.3l-.1,2.6s.5.9,2.1.7l.2-.3a2.36,2.36,0,0,1-1.9-.5C174.7,39.7,174.9,36.5,174.4,37.3Z"/><path class="cls-104" d="M188.9,92.3a7.73,7.73,0,0,0,.6,1.7c.5,1.1.1,4.2.1,4.2s-.5,2,.6,1.9c0,0-.7-.1-.3-1.9S190.4,93.4,188.9,92.3Z"/><polygon class="cls-104" points="186.7 55 188.1 56.5 187.9 55.5 186.7 55"/><path class="cls-104" d="M191.1,47.4s-6.5-.9-7.4,10.1A20.79,20.79,0,0,0,188,57l-3.6-.1C184.3,57.1,184.5,48.5,191.1,47.4Z"/><polygon class="cls-104" points="175.3 44 175.7 45.6 176.2 45.7 176.3 44.7 175.3 44"/><polygon class="cls-107" points="189.6 96.9 184.9 99.5 184.2 109.9 184.6 99.4 189.7 96.7 189.6 96.9"/><polygon class="cls-107" points="189.4 96.4 184.3 99.3 183.7 109.7 183.3 109.5 184 99.1 189.6 96.1 189.4 96.4"/><polygon class="cls-107" points="194.6 93.5 198.9 91.4 199.2 91.5 194.4 93.9 194.6 93.5"/><polygon class="cls-107" points="194.6 94.2 199.5 91.7 194.5 94.5 194.6 94.2"/><path class="cls-113" d="M171,88.7s1.4,17.8,7.5,19.7A39.86,39.86,0,0,1,171,88.7Z"/><path class="cls-114" d="M168.8,129.2s-6.2,4.1-5.5,6.5,5.3.8,11.1-3.9c0,0-7.6,6-10.4,4.1C164,135.9,162,134.4,168.8,129.2Z"/><path class="cls-114" d="M179.4,134.7s-6.2,4.1-5.5,6.5,5.3.8,11.1-3.9c0,0-7.9,5.7-10.4,4.1C174.7,141.5,172.7,140.2,179.4,134.7Z"/><path class="cls-115" d="M438.1,209a19.41,19.41,0,0,0-1,8.4s.9,4.1,4.1,4.6c0,0-.5-6.6.5-8.3s-.5-3.9-.5-3.9Z"/><path class="cls-104" d="M437.9,209.8a3.41,3.41,0,0,0,4.1.7v.9l-1.4,1.8s.1-1-1.3-1.2a12.94,12.94,0,0,1-2-.4A7.35,7.35,0,0,1,437.9,209.8Z"/><path class="cls-116" d="M439.3,213.1a30.06,30.06,0,0,0-.1,4.5c.2.9,1.2.7,1.3-.3a10.62,10.62,0,0,1,.4-2.9,3.1,3.1,0,0,0,.6-1.3s.4.4-.5,1.9l-.2,2.3s-.1,1.2-1,1.1-1-1.3-1-2S438.8,212.9,439.3,213.1Z"/><path class="cls-92" d="M452.7,269.1s-3.4,3-4.9,4.6-.1,3.6,2.4,2.6a35.5,35.5,0,0,0,8.1-4.6l.3,1s.7.6.9-.6,1-4.9-.2-5.9C459.3,266.2,456.4,270.5,452.7,269.1Z"/><path class="cls-115" d="M454,248.9s1.2,14.4.3,17a12.85,12.85,0,0,1-2.7,4.4s-2.3,2.5.7,1.9a11.88,11.88,0,0,0,6.7-4.1c.8-1.2-.6-2.7.2-6s2.8-8.9,3-13.9Z"/><path class="cls-116" d="M454.2,251s5.2.9,7.9-.9l.3-2.1-8.4.9Z"/><path class="cls-92" d="M442,263.6a26.56,26.56,0,0,0-4.9,4.6c-1.3,1.8-.1,3.6,2.4,2.6a35.5,35.5,0,0,0,8.1-4.6l.3,1s.7.6.9-.6,1-4.9-.2-5.9C448.6,260.8,445.8,265.1,442,263.6Z"/><path class="cls-115" d="M443.4,243.4s1.2,14.4.3,17a12.85,12.85,0,0,1-2.7,4.4s-2.3,2.5.7,1.9a11.88,11.88,0,0,0,6.7-4.1c.8-1.2-.6-2.7.2-6s2.8-8.9,3-13.9Z"/><path class="cls-116" d="M443.7,247.9s2.9,3.2,6.7,2.1l.4-1.4-7.3-2.8Z"/><path class="cls-117" d="M442.7,210.3a6.39,6.39,0,0,0-2.5,4.3c-.3,2.8-1.9,24.2-1.9,24.2a3.44,3.44,0,0,0,.4,3.5c1.2,1.8,11,10.2,23.3,6.5,0,0,6.9-2.2,7.3-7l-2.1-22.2Z"/><path class="cls-115" d="M464.3,181.9s-4.2-1.4-6.4,4.9a9.67,9.67,0,0,0-1.3,5.5s9.9,1.5,10.6-5.2C467.2,187.2,466.7,182.7,464.3,181.9Z"/><polygon class="cls-107" points="458.5 234.1 457.7 244.5 473 236.3 473.2 226.2 458.5 234.1"/><path class="cls-116" d="M460.4,188.1l1.1,4.7.4-.1C462,192.7,461.7,189,460.4,188.1Z"/><path class="cls-69" d="M443.6,163.7s.7,4.1,0,6.7-.8,4.7,2.2,5.6l1.6.2s-1.5-9.8-.8-13.1C446.6,163.1,443.7,160.9,443.6,163.7Z"/><path class="cls-115" d="M462.2,222.5a6.73,6.73,0,0,0-1.3,4.2,26.86,26.86,0,0,1-.6,5.3s.1.7,1.1.3,1-1.5,1.1-2.5a11.58,11.58,0,0,1,.2-1.5,17,17,0,0,1,0,4.8c-.4,2.2,1.9,1.4,3.1.4s2.7-6.2,1.5-9.9C467.3,223.5,463.8,223.9,462.2,222.5Z"/><path class="cls-116" d="M462,222.7s3.2,1.6,5.2.7a5.21,5.21,0,0,1,.4,2.3,2.06,2.06,0,0,0-2.3-1.1c-2.7.2-3.6.3-3.8,2.3a13.07,13.07,0,0,1-1.2,4.8s.5-4.5.4-5.4S461.2,223.1,462,222.7Z"/><path class="cls-69" d="M443.6,164a7.86,7.86,0,0,1,4.8-8.5s4-2.2,6.7-1.5,7.4,2.3,8,5.8-.8,5.5,1,9.8,4,8.7.1,12.4c0,0-4-1.4-5.1-2.3-2.1-1.9-1.6-3.5-1.8-5.4a7.89,7.89,0,0,1-2.2-5.1v-2.8C455.2,166.2,446.7,168.4,443.6,164Z"/><path class="cls-118" d="M445.1,173.5s-5,1.1-5.8,7.5-1.5,15.4-2,18.1-2.4,7.9,0,10.3,4.4,1,4.4,1l-.6-.7s1.7,3.7,4.7,4.6,4.2.8,7.4,4.2,6.6,3.2,8.7,2.1a9,9,0,0,0-.2,1.3c0,.4-.5,1.1,2.2,1.7s4.3-.4,4.5-1.4,2.1-10.8,2.5-12.6,1-2.6,0-8.6a99.83,99.83,0,0,0-4.4-16,4.62,4.62,0,0,1-.9,4.6c-1.9,2-8.4,2.6-9.8,2.3-2.3-.6-8.8-2.3-9.9-12a4.46,4.46,0,0,1,.5-3.1A13.35,13.35,0,0,1,445.1,173.5Z"/><path class="cls-115" d="M457.5,174.6a5.1,5.1,0,0,0,2.1,4.8s1.2.7,1.5.8a113.23,113.23,0,0,0-7.4,11.3,12,12,0,0,1-7.1-7.9s-1.6-4.1-.1-6.9c0,0,3.5,2.6,6.6,1.6s4.1-4.4,4.1-4.4Z"/><path class="cls-116" d="M446.4,176.8a14.38,14.38,0,0,0,.9,7.8s1.6,5,5.1,6.3l-1.8-1.5.3-1.1-.9.5s-4-6.9-3.2-11.5Z"/><path class="cls-115" d="M444.6,165.1a43.57,43.57,0,0,0,.5,8.5c.7,3.1,2.3,5.5,5.7,5.5,2.9,0,5.7-.9,6.4-4.5a1.29,1.29,0,0,0,1.9-.4,1.06,1.06,0,0,0,0-.6s-3.3-1.8-3.5-4.1a14.78,14.78,0,0,1,.1-3.8S448.5,168.3,444.6,165.1Z"/><path class="cls-119" d="M456.9,192.1a13.69,13.69,0,0,1,.6-4c2.3-7.1,6.8-6.2,6.8-6.2-.8-1.9-3.2-1.7-3.2-1.7a9.38,9.38,0,0,0-3.4,2.1c-3.4,3.2-2.1,8.3-5.3,8.5C452.3,190.9,456.1,192.4,456.9,192.1Z"/><path class="cls-116" d="M446.5,176.8a6.19,6.19,0,0,0,6.1,2,6,6,0,0,0,3.8-2.3,4.75,4.75,0,0,1-4.6,3C448.7,179.6,447.8,178.4,446.5,176.8Z"/><path class="cls-116" d="M457.6,178.2a5.14,5.14,0,0,0,2.8,1.7c-2.4-1.5-1.9-5.3-1.9-5.3a1,1,0,0,1-1,0c0,.3-.2-.8-.8,1.2,0,0,0,2.1-4.4,3.7A29.28,29.28,0,0,0,457.6,178.2Z"/><path class="cls-111" d="M462.9,230.3l-5.9,3.2-.7,10.4,1.5.6.7-10.4,4.4-2.3C462.8,231.8,463,230.6,462.9,230.3Z"/><polygon class="cls-111" points="467.7 227.8 467.5 229.3 473.2 226.2 471.9 225.5 467.7 227.8"/><path class="cls-120" d="M442.6,182.6a9.57,9.57,0,0,1-.4,5.7c-1.2,2.7-2.2,7.4,1.6,9.9,0,0-4.8-1.9-2.8-8.5C442.3,186.5,442.5,185.9,442.6,182.6Z"/><path class="cls-120" d="M446.4,176.8s-1.9,8.4,6.3,14.3C452.6,191.1,442.9,186.1,446.4,176.8Z"/><path class="cls-120" d="M445.3,186.5s2.6,11.6,12,12.8C457.3,199.3,447.1,198.4,445.3,186.5Z"/><path class="cls-120" d="M447.7,186.6s1.5,10.3,10.7,8.9c0,0-7.9.8-10.1-8.1Z"/><path class="cls-120" d="M448.5,187.8s2.8,5.2,7,5.9c0,0-4.5-.1-7.1-5.3Z"/><path class="cls-120" d="M442.6,197.6s1.5,4.9,1,7.2l-.9-4.9a58.17,58.17,0,0,1-1,8.4,3.29,3.29,0,0,0,.5,3s-.6,0-1-1a14.74,14.74,0,0,1,.3-3.5c.4-2.1,1.1-9,.7-9.7Z"/><path class="cls-120" d="M447,203.6s5.7,10,13.4,5.1C460.4,208.6,454.3,212.3,447,203.6Z"/><path class="cls-120" d="M462.8,193.7s1.4,9.7,1.5,11.4-1.9,14.6-1.9,15.8.7,2.2,2.9,2.3,2.2-.2,3-1.1c0,0-.2,1.8-3,1.5,0,0-3.1.1-3.6-1.2,0,0-.3-.5.3-2.9a126,126,0,0,0,1.9-14.3C463.9,205.3,461.8,194.2,462.8,193.7Z"/><path class="cls-120" d="M463.2,200.7s2,5.8-3.4,6.8c0,0,3.4-1,3.7-5.5Z"/><path class="cls-120" d="M464.7,199.7s2.9,2.8,4.3-.4C469,199.2,468,203.5,464.7,199.7Z"/><path class="cls-120" d="M469,200s-.9,4.1-3.5,2.7c0,0,2.2.8,3.4-3.3Z"/><path class="cls-120" d="M469.4,207.8s-1.1,4.1-4.2,4.7a4.33,4.33,0,0,0,3.4-2.4s-1,4.1-3.5,4.2C465.1,214.4,468.6,214.5,469.4,207.8Z"/><path class="cls-120" d="M449,213.9a10.81,10.81,0,0,1,4,4c2,3.1,6.8,3.4,6.8,3.4a8.13,8.13,0,0,1-7.7-3.8c-2.8-4.5-3.5-3.7-3.5-3.7"/><path class="cls-120" d="M438.4,195.7s-.2,4.2,2.9,4.4C441.3,200,439.2,199.5,438.4,195.7Z"/><path class="cls-116" d="M445.1,168.9s2.6,3,8.9,2.1C454,171,446.9,173,445.1,168.9Z"/><path class="cls-116" d="M447.6,171.7l-.1,2.6s.5.9,2.1.7l.2-.3a2.36,2.36,0,0,1-1.9-.5C447.9,174.1,448.1,171,447.6,171.7Z"/><path class="cls-116" d="M462,226.7a7.73,7.73,0,0,0,.6,1.7c.5,1.1.1,4.2.1,4.2s-.5,2,.6,1.9c0,0-.7-.1-.3-1.9S463.5,227.8,462,226.7Z"/><polygon class="cls-116" points="459.9 189.5 461.3 191 461.1 190 459.9 189.5"/><path class="cls-116" d="M464.3,181.9s-6.5-.9-7.4,10.1a20.79,20.79,0,0,0,4.3-.5l-3.6-.1C457.5,191.5,457.6,182.9,464.3,181.9Z"/><polygon class="cls-116" points="448.5 178.5 448.8 180.1 449.3 180.2 449.5 179.2 448.5 178.5"/><polygon class="cls-107" points="462.8 231.4 458 234 457.4 244.4 457.8 233.8 462.8 231.2 462.8 231.4"/><polygon class="cls-107" points="462.5 230.9 457.5 233.8 456.9 244.2 456.5 243.9 457.2 233.6 462.8 230.6 462.5 230.9"/><polygon class="cls-107" points="467.8 228 472.1 225.8 472.4 226 467.6 228.4 467.8 228"/><polygon class="cls-107" points="467.8 228.6 472.6 226.2 467.7 229 467.8 228.6"/><path class="cls-121" d="M444.2,223.1s1.4,17.8,7.5,19.7A38.81,38.81,0,0,1,444.2,223.1Z"/><path class="cls-93" d="M442,263.6s-6.2,4.1-5.5,6.5,5.3.8,11.1-3.9c0,0-7.6,6-10.4,4.1C437.2,270.4,435.2,268.9,442,263.6Z"/><path class="cls-93" d="M452.6,269.2s-6.2,4.1-5.5,6.5,5.3.8,11.1-3.9c0,0-7.9,5.7-10.4,4.1C447.8,275.9,445.9,274.6,452.6,269.2Z"/><g class="cls-122"><path class="cls-123" d="M271.4,493.2s4.2.7,5.2,2.3c0,0-2.4-14.5-6.3-19.1C270.4,476.4,271.6,490.2,271.4,493.2Z"/><path class="cls-124" d="M266.7,426.4s-.7,4.3.8,6.2a3.54,3.54,0,0,0,1.2,2.4c1.1.8,3,2,3,2a29.48,29.48,0,0,1,1.7-4.2c1.1-2.2,2.6-9.3,1-12.7s-4-2.1-4-2.1Z"/><path class="cls-125" d="M267.4,523.7l-3.5,5.1a5.77,5.77,0,0,1,4.5,1.7s4.1-2.9,5-4.1c.3-.4.7-.7.8-1.2a5.72,5.72,0,0,0-.6-2.5Z"/><path class="cls-125" d="M252,517.9a60.69,60.69,0,0,0-4.2,5.7l4.6,1.9,5.2-4.4a2.44,2.44,0,0,0,.5-2.8c-.1-.2-.6-1.9-.7-2.1Z"/><path class="cls-125" d="M245.7,468.3s-1,5.1-.5,7.9,1,3,2.5,3.7l1-9.7Z"/><path class="cls-126" d="M270.8,524.7a3.71,3.71,0,0,1-3.5-1.1,70,70,0,0,1-1.2-8.2c-.2-2.6-1.8-8.3-2.7-13-.7-3.7-.8-6.5-1-7.4-.4-2-4.4.3-4.4.3a16,16,0,0,0-.8,5.7c0,3.8.7,14.5.7,14.5s.4,2.4-1.6,3.3c0,0-3.4,1.3-4.5-1.1,0,0-3.8-21.4-4.1-26.3.1,0,6.6-17.4,23.1-14.8.3.1,2.3,3.5,2.3,8.6,0,3.7-1.4,12.1-.9,18.1.2,2.4.5,3.8.7,5.4.5,5.6.4,6.8.5,13.7C273.5,523.4,272.2,524.5,270.8,524.7Z"/><path class="cls-127" d="M248.1,494.4s5.4,3.3,9.3,4l-.1,1.4s-5.3.1-8.8-2.7Z"/><path class="cls-127" d="M270,479.2s-2.5,10.8-.4,20.6c0,0-3.9,1.8-6.3,1.1a51.08,51.08,0,0,1-.6-5.5C262.7,494.4,267.9,477.4,270,479.2Z"/><path class="cls-128" d="M279.4,464.3c-.3-4.9-2-16.4-3.5-19.9s-3-7.4-5.8-8.8a7.33,7.33,0,0,0-5.6,4.3c-1.7,3.8-3.7,6.8-5.7,6.7s-5.5-.4-6.4-3.3a31.6,31.6,0,0,1,1.7-9.8,15.44,15.44,0,0,1-1.2-4.7s-2.6-.3-3.9,3.3-2.5,11.1-2.9,17.3-1.5,14.1-1.6,16.2.3,3.4,3.3,4.6c0,0-2,13.9-2.4,16.4a43.84,43.84,0,0,0-.2,5.6s1,2.5,7.4,4.8,14,3.1,16.6,2.6a49.48,49.48,0,0,1-1.3-9.5,74.9,74.9,0,0,1,.8-10l1-8.5,1.2,7.7s4.4,7.8,5.1,14.7a13.38,13.38,0,0,1,.1,4.4s3.4-.7,3.2-5.1-1.7-12.8-2.5-14.6C276.7,478.7,279.5,469.2,279.4,464.3Zm-10-5.2a6.46,6.46,0,0,1,.3-5.1c1.5,2.8,2.1,10.7,2.1,10.7A58.37,58.37,0,0,1,269.4,459.1Z"/><path class="cls-68" d="M270.6,416.7s1.6-.5,1.5,2-.6,3.8-1.9,3.8Z"/><path class="cls-125" d="M264.5,429.7a1.63,1.63,0,0,0,1.7-.6s-.7,3.1.7,4.4,2.8,1.7,3.1,2.2c0,0-4,1.3-5.1,3.6s-3.2,6.8-5.7,7.5-6.5-1.3-7-3,1-8.4,1.8-10.5C254,433,262.3,431.8,264.5,429.7Z"/><path class="cls-125" d="M252.5,417.3a19.82,19.82,0,0,0-.7,6.4,13.64,13.64,0,0,0,.4,1.7,10.28,10.28,0,0,0-.1,1.8c.9,5.9,2.2,8.5,5.5,8.5s7.9-5.1,7.9-5.1c.6.1,1.8-1.2,1.7-3.6,0,0,4.4-9.8-1.2-12.5S255.4,410.5,252.5,417.3Z"/><path class="cls-54" d="M272.5,466.7s-9.6,6.1-10,7.4-2.4,10.4-2.1,11.4,4.8,3.4,5.5,3.5,6.2-5.1,6.2-5.1l3-12.7Z"/><path class="cls-30" d="M252.3,418.5a6.65,6.65,0,0,1,.6-1.6s.1,2.6,3.9,3.4,4.3.7,4.8,3.2,2.2,2.1,2.5,3.7-1.2,2.4-1.9,1a1.22,1.22,0,0,0,1.9.9c1.6-.8.7-2.2,1-3a2.44,2.44,0,0,0,1.8.8,2.14,2.14,0,0,0,2.3-.2,15.23,15.23,0,0,0,1.2-2.9c.9-2.7.1-3,.5-5.1a22.27,22.27,0,0,0-.4-5.2c-1-2.4-6.9-4.7-9.4-4.5a13.44,13.44,0,0,0-6.9,3.3A6.64,6.64,0,0,0,252,415C251,417.4,252.3,418.5,252.3,418.5Z"/><path class="cls-129" d="M251.9,424s3.9,2.3,5.7,2.5,2.6,0,3,.5a9.9,9.9,0,0,1-2.4.1c-.6.3-3.8-1.1-6.1-2.6Z"/><path class="cls-129" d="M256.5,430.4c-.2.9-2.6,1-2-.8a5.09,5.09,0,0,0,.3-2.8s.3-.3.4.3a6.77,6.77,0,0,1-.4,2.6c-.2.4.4,1,1.1.6C255.9,430.4,256.4,430,256.5,430.4Z"/><path class="cls-129" d="M252.5,444.2c-1.1-1.2,1.1-9.5,1.1-9.5l.4-1.1s1.5,2.5,5.2,1.6a8.21,8.21,0,0,0,4.9-4.1c-.7,5.8-6.7,5.6-6.7,5.6s-2.5-.2-3.2-1.4A20.7,20.7,0,0,0,252.5,444.2Z"/><path class="cls-130" d="M249.9,435.5s.7,2.6.3,3.9-3.9,4.8-1.8,9.1,3.3,5.1,3,9-3.3,4.7-3.7,12.9a20.93,20.93,0,0,1,1.4-9c1.9-5.3,2.2-6.4.7-8.7s-3.1-5.1-2.6-8.2a10.73,10.73,0,0,1,2.5-5.1A14.45,14.45,0,0,0,249.9,435.5Z"/><path class="cls-130" d="M256.4,453.6s3.7,2.2,7.4.3C263.8,453.8,260.1,457.6,256.4,453.6Z"/><path class="cls-129" d="M246.2,471.8s0,2.9.1,3.1.6,1.6.6,1.6l-.1,1.2S245.1,474.5,246.2,471.8Z"/><path class="cls-129" d="M264.7,430.1s.8,1,1.8-.2a3.09,3.09,0,0,0,.5,3.6l3.1,2.2s-3.2,1.1-4.1,2.4a28.58,28.58,0,0,0-2.6,4.4s-1.9,4.4-4.6,4.3a12.09,12.09,0,0,0,3.8-4.2c1.2-2.5,2.2-5.7,5.7-7a3.15,3.15,0,0,1-2.6-2.3C265.2,431.3,263.7,432,264.7,430.1Z"/><path class="cls-125" d="M270.4,479.4a15,15,0,0,0-.7,4.9c.1,2.6-.2,3.7.9,4s1-3.5,1.1-4.4a9.92,9.92,0,0,1,.3,2.6c0,1.4-.4,3.4-.1,3.9.6,1,1.4.4,2.1-.3s1.7-1.1,2-3.1a15.62,15.62,0,0,0-.3-6.5C275.8,480.4,272.5,481.7,270.4,479.4Z"/><path class="cls-57" d="M248.4,522.3a8.48,8.48,0,0,0-2.6,4.5s0,2,3.3.9,7.6-4.7,9.5-7.3a3.73,3.73,0,0,0-.3-1.5s-2.8,4-5.7,5.2A4.36,4.36,0,0,0,248.4,522.3Z"/><path class="cls-57" d="M264.1,528.2a7.53,7.53,0,0,0-2.6,4.3s0,2,3.3.9,8.5-5.7,9.6-7.2a2.21,2.21,0,0,0-.4-1.3s-2.8,3.7-5.7,5C268.4,529.7,266.8,527.8,264.1,528.2Z"/><path class="cls-128" d="M271.7,459.5s.3,14.2-1,19.4a4.64,4.64,0,0,0,5.5,1.3l1.1-4.3s2.3-7.8,2-10.7Z"/><polygon class="cls-80" points="265.4 475.9 265.9 489.1 266.3 488.9 265.7 475.8 271.8 471.3 271.6 470.7 265.4 475.6 265.4 475.9"/><path class="cls-80" d="M271.4,469.3l-5.7,4.3A16,16,0,0,0,271.4,469.3Z"/><path class="cls-80" d="M263,476.8s1.3-31.8,3-36c-.1.3,1.6-5.3,4.9-4.5a2.48,2.48,0,0,1,1.7,1.6,3.94,3.94,0,0,0-4.4,2.6s-1.6,1.7-2.4,17.2c0,0-1,17.8-1.2,19.4S263,478.4,263,476.8Z"/><path class="cls-130" d="M267.1,447.3s1,2.7,2.3,3.4l.3,1.1A5.4,5.4,0,0,1,267.1,447.3Z"/><path class="cls-130" d="M267.8,443s-.9,2.6.9,6.5,3.6,15.3,3.1,17.8-1.8,11.8-1.8,11.8,1.1,2.9,6.2,1c0,0-4.7.8-5.5-1.3,0,0,2.4-11,1.9-14.5s-1.6-11.8-3-14.8A17.81,17.81,0,0,1,267.8,443Z"/><polygon class="cls-129" points="254.6 445.9 255.5 443.8 255.4 446.2 254.6 445.9"/><path class="cls-129" d="M266.6,427.1s.2,2.1-.5,2.3-1.2-.5-.9-.8.9-.6.3-1.5S266.6,427.1,266.6,427.1Z"/><path class="cls-80" d="M265.7,475.9l-1-1.4-2.2-.2s-2.7,9.9-2,11.7a17,17,0,0,0,5.4,3.3l.2-.8s-3.5-.9-5.3-3.1a57.1,57.1,0,0,1,1.9-10.7l1.6.1,1.4,1.7"/><path class="cls-131" d="M255.3,436.2s-1.1,3.3,0,4.5,3,1.6,6-1.4a51.19,51.19,0,0,1,6.1-5.3s.2-1.2-1.1,0-6.6,6.6-7.9,6.9-4,.7-2.5-4.5Z"/><circle class="cls-131" cx="256.3" cy="441.5" r="0.7"/><circle class="cls-131" cx="265.4" cy="430.2" r="0.5"/><path class="cls-129" d="M271.7,482.9a20,20,0,0,0,.4,2.6,16.86,16.86,0,0,1-.3,4.5s.1-5-.3-5.5v1.6C271.6,486.2,270.8,484,271.7,482.9Z"/><path class="cls-129" d="M270.3,479.7s.9,1.8,5.5.7a13.25,13.25,0,0,1,.4,5.2s-.5-3.8-2-3.6-4-1.6-4.3.8l-.2,1.6A9.12,9.12,0,0,1,270.3,479.7Z"/><path class="cls-129" d="M245.5,469.1a7.68,7.68,0,0,0,2.2,1.2l-.4,2.6s-1-2.2-1.6-1.4a4.9,4.9,0,0,0-.7,2.6A19.55,19.55,0,0,1,245.5,469.1Z"/><path class="cls-129" d="M251.9,517.8s.5,2,4.1,1.2c0,0,1.5-.5,1.7-1.7a11.32,11.32,0,0,1,.6,1.6s-.2-.8-.9-.2a4.8,4.8,0,0,1-6.3.3Z"/><path class="cls-129" d="M267.3,523.7s2.4,2.3,4.9.5c0,0,1.3-.7,1.3-1.5s.4,1,.4,1a6.31,6.31,0,0,1-7.5,1.6Z"/><path class="cls-130" d="M249.1,436.7l.9,2.8-.7.9A24.06,24.06,0,0,1,249.1,436.7Z"/><path class="cls-30" d="M267.2,427a3.64,3.64,0,0,1-.8,3,6,6,0,0,0-.3,1.1s1.8.7,4-6.3Z"/><path class="cls-124" d="M253.2,414.6a3.85,3.85,0,0,0,2.2,5.3A5.51,5.51,0,0,1,253.2,414.6Z"/><path class="cls-124" d="M264.3,424.2s.4,3,3,2.7C267.3,426.9,264.7,425.9,264.3,424.2Z"/></g><rect class="cls-1" width="514.5" height="516.1"/></g></g></svg>