<svg xmlns="http://www.w3.org/2000/svg" xmlns:xlink="http://www.w3.org/1999/xlink" viewBox="0 0 514.5 641.7"><defs><style>.cls-1{fill:none;}.cls-2{fill:#f3f3f3;}.cls-3{fill:#31aaba;}.cls-4{fill:#010101;opacity:0.1;isolation:isolate;}.cls-5{fill:#35b7ae;}.cls-6{fill:url(#linear-gradient);}.cls-7{fill:#a5b2c7;}.cls-8{fill:#6d798b;}.cls-9{fill:#fed4af;}.cls-10{fill:#fbbd92;}.cls-11{fill:#d2d2d2;}.cls-12{fill:#ab6087;}.cls-13{fill:#28151a;}.cls-14{fill:#3cc3d9;}.cls-15{fill:#ecac67;}.cls-16{fill:#abddde;}.cls-17{fill:#eaae9d;}.cls-18{fill:#cf8885;}.cls-19{fill:#2d9fb2;}.cls-20{fill:#e9edf7;}.cls-21{fill:#884b6c;}.cls-22{fill:#454043;}.cls-23{fill:#129491;}.cls-24{fill:#acadae;}.cls-25{fill:#c45c7a;}.cls-26{fill:#73452c;}.cls-27{fill:#fccfb7;}.cls-28{fill:#69446b;}.cls-29{fill:#5a395d;}.cls-30{fill:#f38aaa;}.cls-31{fill:#edaa42;}.cls-32{fill:#a76f69;}.cls-33{fill:#a16443;}.cls-34{fill:#fab6a1;}.cls-35{fill:#e96997;}.cls-36{fill:#82596b;}.cls-37{fill:#9c605b;}.cls-38{fill:#fabca4;}.cls-39{fill:#f6ec49;}.cls-40{fill:#9b5e3f;}.cls-41{fill:#745d9e;}.cls-42{fill:#5d4980;}.cls-43{fill:#cd8079;}.cls-44{fill:#056772;}.cls-45{fill:#ef5b79;}.cls-46{fill:#a1d28e;}.cls-47{fill:#81b16d;}.cls-48{fill:#bd6d6a;}.cls-49{fill:#194353;}.cls-50{fill:#f28186;}.cls-51{fill:#da5a7a;}.cls-52{fill:#fabfa0;}.cls-53{fill:#1d4e5e;}.cls-54{fill:#393537;}.cls-55{fill:#fee495;}.cls-56{fill:#b16979;}.cls-57{fill:#606281;}.cls-58{fill:#4e506a;}.cls-59{fill:#7a93a1;}.cls-60{fill:#fccdb0;}.cls-61{fill:#e98b41;}.cls-62{fill:#cfd7b0;}.cls-63{fill:#ffddb8;}.cls-64{fill:#9ea372;}.cls-65{fill:#57585a;}.cls-66{fill:#a2b4bf;}.cls-67{fill:#516780;}.cls-68{fill:#eeb59b;}.cls-69{fill:#fabaa3;}.cls-70{fill:#f27385;}.cls-71{fill:#756f90;}.cls-72{fill:#e8e9f5;}.cls-73{fill:#826e74;}.cls-74{fill:#ffcd64;}.cls-75{fill:#f9e8e3;}.cls-76{fill:#dfdaed;}.cls-77{fill:#fcb238;}.cls-78{fill:#645e7b;}.cls-79{fill:#c65e6f;}.cls-80{fill:#f3b29e;}.cls-81{fill:#e3978b;}.cls-82{fill:#c8c4cc;}.cls-83{fill:#835d39;}.cls-84{fill:#f79058;}.cls-85{fill:#d4dac2;}.cls-86{fill:#e67b50;}.cls-87{fill:#b7b4bc;}.cls-88{clip-path:url(#clip-path);}.cls-89{fill:#4e3136;}.cls-90{fill:#024e6c;}.cls-91{fill:#ca9e6f;}.cls-92{fill:#f2e094;}.cls-93{fill:#f2738e;}.cls-94{fill:#73a7be;}.cls-95{fill:#197daa;}.cls-96{fill:#f7eb98;}.cls-97{fill:#bc734f;}.cls-98{fill:#252a3d;}.cls-99{fill:#c0ccdd;}.cls-100{fill:#1f2746;}.cls-101{fill:#6d5539;}.cls-102{fill:#fff;}.cls-103{fill:#4e3c25;}.cls-104{fill:#f0c776;}.cls-105{fill:#da587c;}.cls-106{fill:#f7a8a7;}</style><linearGradient id="linear-gradient" x1="873.91" y1="264.39" x2="873.92" y2="264.34" gradientTransform="translate(-139655.35 -23362.33) scale(160 91)" gradientUnits="userSpaceOnUse"><stop offset="0" stop-color="#fff" stop-opacity="0.1"/><stop offset="1" stop-color="#fff" stop-opacity="0"/></linearGradient><clipPath id="clip-path"><polygon class="cls-1" points="238.9 483 279.4 483 278.4 434 262.9 413.5 245.4 417 232.4 462 238.9 483"/></clipPath></defs><title>Asset 6</title><g id="Layer_2" data-name="Layer 2"><g id="Layer_1-2" data-name="Layer 1"><path class="cls-2" d="M257.2,439.8c-50.8,0-105.5,8.2-105.5,26.3,0,4,2.8,7.5,7.6,10.6l62.3,74.8a29.88,29.88,0,0,1,6.9,18.6v58.4c0,9.1,14.9,13.2,28.8,13.2s28.8-4.1,28.8-13.2V570.1a28.76,28.76,0,0,1,6.9-18.6l5.3-6.4h30.6c7.9,0,15.1-4.5,18-11.4l5-12.3a13.61,13.61,0,0,0-1.9-13.7,17,17,0,0,0-13.4-6.4h-1.8l20.4-24.5c4.8-3.1,7.6-6.6,7.6-10.6C362.7,448.1,308.1,439.8,257.2,439.8Zm79.3,70.3a6.93,6.93,0,0,1,5.5,2.6,5.6,5.6,0,0,1,.8,5.7l-5,12.3a9.67,9.67,0,0,1-9,5.7H305.5l21.9-26.3Z"/><path class="cls-3" d="M257.2,449.8c61.8,0,95.5,11.9,95.5,18s-33.7,18-95.5,18-95.5-11.9-95.5-18S195.4,449.8,257.2,449.8Z"/><path class="cls-4" d="M271.6,463c37.2,0,64.2,3.2,79.8,6.7a3.43,3.43,0,0,0,1.4-2.3c0-6-33.7-17.6-95.5-17.6s-95.5,11.6-95.5,17.6c0,2.3,5,5.4,14.5,8.4C178.3,471.2,211.7,463,271.6,463Z"/><path class="cls-5" d="M284.9,546.4a38.54,38.54,0,0,0-8.9,24.1v58.6c-.7,1.3-7.3,4.7-19.3,4.7s-18.7-3.3-19.3-4.4V570.5a37.41,37.41,0,0,0-8.9-24.1l-51.9-62.6c20.7,5.7,51,8.4,80,8.4s59.3-2.7,80-8.4l-51.7,62.6Z"/><path class="cls-6" d="M276,570.3a37.41,37.41,0,0,1,8.9-24.1l51.9-62.4c-20.7,5.7-51,8.4-80,8.4s-59.3-2.7-80-8.4l99.3,91Z"/><path class="cls-7" d="M264.3,329.3s-.8.1-.9.5a22.08,22.08,0,0,0,0,2.6c.1.5.7.6.7.6l.2-.5Z"/><path class="cls-8" d="M264.2,329.5s-.5.2-.4.4a4,4,0,0,0,.4.3Z"/><path class="cls-9" d="M268.2,310.4l.1,24-1.8,9.8c-3.1.3-2.7-3.4-2.7-3.4s-.3.2-1.1-.3-.5-2.4-.3-4.6a4.45,4.45,0,0,1,1.7-3.1c0-.7.3-10.7.7-14.5a51.72,51.72,0,0,0-.3-8.6Z"/><path class="cls-8" d="M264.1,332.8a3.48,3.48,0,0,0,2.9.9l1.4-.3.1-2.6s-.3.8-2.2.7a2,2,0,0,1-2-1.4s-.1-.1-.2.3S263.8,332.7,264.1,332.8Z"/><path class="cls-10" d="M267.1,335.1s-.7,2.1-2.1,2.3a1.5,1.5,0,0,0-1,1.5l-.2,2.1s.8-.3.8-2.4c0,0,0-.5,1-.8A2.37,2.37,0,0,0,267.1,335.1Z"/><path class="cls-11" d="M291.6,397.6s1,1.7.7,2.5-8.4,9.4-10.8,8.6-2.8-1.6-2.5-2.5,5.3-7.8,5.3-7.8C287.8,401.1,291.6,397.6,291.6,397.6Z"/><path class="cls-11" d="M277.9,390.6s1,2.4.7,3-8.5,8.4-10.3,8.3a3.31,3.31,0,0,1-2.9-2.6c0-.9,5.5-7,5.5-7Z"/><path class="cls-12" d="M267.4,333.5c4.4,2.9,21.4,7.2,21.4,7.2.3,3.1-.3,36-.3,36-.7,5.2,3.5,18.9,3.5,18.9s.9,3-3.3,4.1-4.8-1.9-4.8-1.9-4.8-17.7-5.5-20.3-1.6-20.3-1.6-20.3c-1.6,5.4-2.4,11.2-2.2,14.5S279,390,279,390c-1.2,3.9-5.7,3.5-7.1,3a2.11,2.11,0,0,1-1.5-2.4c-.6-2.6-5.2-17.8-5.2-19.8s.8-24.4.8-24.4C266,336.6,267.5,333.5,267.4,333.5Z"/><path class="cls-13" d="M287,333l-2.6,6.4c-11.6,2.7-16.9-5.1-16.9-5.1a11.69,11.69,0,0,1,.3-4.4C276.2,337.2,287,333.1,287,333Z"/><path class="cls-9" d="M278.8,290.2l3.1,2s1.1,3.2.6,3.8-3.3,2.6-4.9,4.2a20.78,20.78,0,0,0-2.9,5.2l-.8-5a11.7,11.7,0,0,1,.9-5.1Z"/><path class="cls-14" d="M284.6,294.2s6.7,28,6.7,32.1a14.5,14.5,0,0,1-2.6,7.7c-14.1,7-21.2-3.7-21.2-3.7-1.1-4.6-.8-18.7-.8-18.7a4.64,4.64,0,0,1-3.5-2.4l-.2-3.3c.2-1.6,1-1.1,1-1.1s.3-8.7.3-9c.3-7.4,5.3-7.4,5.3-7.4.3,1.7,2.8,7.1,2.8,7.1l2.4,1-.9,3.2c0,.8.9,5.7.9,5.7s1.7-5.1,3.7-6,4.9-4.7,4.9-4.7c.3-.7-.3-2.7-.3-2.7a.75.75,0,0,0,.6-.3Z"/><path class="cls-15" d="M282.3,335.4c.2-.3.4-.1.4.1.2.2.3.3.3.5.2.3.3.7.5,1a10.2,10.2,0,0,0,.9,2.2,4.34,4.34,0,0,0,4,2,6.54,6.54,0,0,0,4.1-2.1,11.78,11.78,0,0,0,2.5-4h.1a9.68,9.68,0,0,1-.8,2.4,12,12,0,0,1-1.3,2.1,6,6,0,0,1-4.5,2.4,4.85,4.85,0,0,1-2.7-.5,4.36,4.36,0,0,1-1.9-1.9,5.64,5.64,0,0,1-.4-1.2c-.1-.3-.2-.8-.3-1.1s-.2-.8-.3-1.1-.2-.3-.3-.5-.1-.4-.3-.3Z"/><ellipse class="cls-16" cx="274.2" cy="312.6" rx="0.6" ry="0.9"/><path class="cls-17" d="M295.6,331.9c.4,3.1-.3,4.4-.3,4.4s.4,7.6.5,11.8c.1,4.5-1.6,5.2-1.6,5.2l-6.8,3.9c-1.1.5-3.8,1.8-4.9-.4-.6-1.2-1-14.4-.9-19.6a5.9,5.9,0,0,1,.2-2c.4-.9,6.9-4,6.9-4C290.7,329.4,295.1,328.7,295.6,331.9Z"/><path class="cls-18" d="M282.3,335.4a1.21,1.21,0,0,1,1.7,1.3c0,2,.2,3.7.9,4.5s7,3.6,10.3-5A8.18,8.18,0,0,1,291,342s-4.1,2-6.6-.9a5.72,5.72,0,0,1-.7-3.1C283.8,336,283.6,335.5,282.3,335.4Z"/><path class="cls-9" d="M288.6,320.4s0,2.4.2,7.2-1.7,18.9-1.7,18.9a3.57,3.57,0,0,0,4.5,1c-.4-2,2.8-14.6,2.8-14.6,1.6-9.6.3-13.7.3-13.7C290,316.7,288.6,320.4,288.6,320.4Z"/><path class="cls-19" d="M275.1,296.2l-.4-.5-.3.9a30.61,30.61,0,0,0-.6,3.8l.8,2.4c-.7-4.5.2-5.9.2-5.9Z"/><path class="cls-14" d="M283.5,293.5l-.2-1.8c1.9.8,2.4,3.8,2.4,3.8s5.8,3.9,7.4,6.3,1,4.3,1.3,7.8c.1.8.5,3.2.9,5.3.5.2,1,4.2,1,4.2s-1.1,3.5-6.8,3.1l-1.6-.3s-3.3-9.1-3.1-12.5-.1-5,1.6-6.4"/><path class="cls-9" d="M291.5,347.2c.3,1.7,1.1,5.1.7,6.8a10.05,10.05,0,0,1-3,4.6c-1.7,1.2-2.3.2-2.4-.3a25.31,25.31,0,0,1,.7-3.6c.2-.9-.2-1.9-.3-3.4-.9.1-.4,2-.6,3s-1.4.7-1.6.3a12.32,12.32,0,0,1-.3-2.2,10.18,10.18,0,0,1,.4-2.7c.7-2.6,2-3.3,2-3.3C289.5,349,291.4,347.3,291.5,347.2Z"/><path class="cls-17" d="M282.2,338.6a84.11,84.11,0,0,0-2.8-9c-.7-1.9-7.8-20.8-9.8-29.5s.3-10.6.3-10.6l.3,1.7c-1.9,4.1,5.7,26,9,33.7a92.15,92.15,0,0,1,4.3,12.5C284,339.2,282.6,340.4,282.2,338.6Z"/><path class="cls-19" d="M285.2,309.1a16.28,16.28,0,0,0,.8,4.4,39.55,39.55,0,0,0,1.1,3.9c.1.2,0,.2.1.4-.2.7.8,3.8,1.3,3.8.1.6-.2.6-.6.6s-1.8-5.5-2.7-8.4a18.16,18.16,0,0,1-.6-4.6,11.24,11.24,0,0,1,.8-4.5A16.26,16.26,0,0,0,285.2,309.1Z"/><path class="cls-20" d="M276,335.9l-.1,4.2a17.62,17.62,0,0,1-4.2-1.7c-.7-2.9.1-4.3.1-4.3C272.9,335.2,276,335.9,276,335.9Z"/><path class="cls-18" d="M282.6,334.4s1,2.2.7,2.8-1,1.2-1.6-1c0,0-.1,0-.1.5,0,0,.3,1.2,1,1.3s1.2-.8.7-2.1a5.5,5.5,0,0,1-.5-1.5l5.7-3.1V331C288.7,331,283.2,333.8,282.6,334.4Z"/><path class="cls-19" d="M270,299.3c5.1-2.5,4.9,6.2,4.9,6.2C273.9,298.2,270,299.4,270,299.3Z"/><polygon class="cls-19" points="272.9 295.5 271.1 299 270 299.3 272.5 295.4 272.9 295.5"/><path class="cls-21" d="M273.2,348.5c3.9,2.9,3.7,9.4,3.7,9.4v-2a11.07,11.07,0,0,0-1.5-6.3l2.6.7-4.2-2.8-1.7-7.2Z"/><path class="cls-9" d="M274.9,296.6c-.2-.1-2.9-.7-3.5-1.6s-3-7.2-2-8.2c.8-.9-.3-1.8-.5-2.3a3.78,3.78,0,0,1-.1-1.4s-.3-3.5.7-4.4,6.8-8.8,13.1-5.1a4.22,4.22,0,0,1,1.3,3.7c-.1.3.2,7.7.2,7.7s1.7-.6,1.9,1.6-.4,3.8-1.3,4.5c-.6.5-.9.8-1.5.8l.2,1.8"/><path class="cls-22" d="M276.7,270.8c-2.4-.9-2.6,1.4-2.6,1.4a2.07,2.07,0,0,0-2.2,1.7c-2.7.4-2.4,2.2-2.4,2.2-1.9.6-1.7,1.7-1.7,1.7-.3,2.2,1.2,2.1,1.2,2.1a1.61,1.61,0,0,0,2.3,1.3,1.67,1.67,0,0,0,2.4.8,1.75,1.75,0,0,0,2.9-.1,1.92,1.92,0,0,0,2-.8l-.7,1.3c-.7,1.7,1.6,2.7,1.6,2.7a2.19,2.19,0,0,0,1,2.5c.4.3.3.3.5,1.4a1.29,1.29,0,0,0,1.4,1l.1-1.6a4.46,4.46,0,0,1,1-2.8c1.8-1.1,2.4,1,2.4,1a2.08,2.08,0,0,0,.5-2.2,2.85,2.85,0,0,0,.3-3.1,2.2,2.2,0,0,0-.4-2.6,1.92,1.92,0,0,0-1.1-2.4,2.87,2.87,0,0,0,0-2,2.61,2.61,0,0,0-2.2-1.1,2,2,0,0,0-2.2-1.6c-.3-.3-.3-1-1.6-1.3A3.57,3.57,0,0,0,276.7,270.8Z"/><path class="cls-10" d="M269.8,285.7a9.87,9.87,0,0,0,5.3,2.4c2.7.5,3.8-.7,3.8-.7s-.5.5-3,.3a18,18,0,0,1-4-1.5,7.07,7.07,0,0,1-3-1.8A3.75,3.75,0,0,0,269.8,285.7Z"/><path class="cls-10" d="M276.8,300.8l4.7-5.7a24.8,24.8,0,0,0,.4-4.2c.3.1.5.6.7.7a1,1,0,0,0,1.1.2v2.1l.3.7c-.9,1.6-4,3.8-4,3.8Z"/><path class="cls-10" d="M283.5,288.2c-.3.6.5.8.7.6s.1-2.1.4-1.5-.2,2.3-.7,2.4.1-.8-.5-.7-.6.8-.6.8a.94.94,0,0,0,1.6.6c.7-.6,1.2-3.7.3-4.1s-1.7,1.1-1.7,1.1C283.4,287.3,283.7,287.5,283.5,288.2Z"/><path class="cls-10" d="M272.2,287.2l.3,3.9,1.2.1.4.5a2.4,2.4,0,0,1-2.4-.3V287Z"/><path class="cls-19" d="M296.2,318.1c-2.5,4.4-8.5,3.3-8.5,3.3s0,.6.4.7c6.4,1.1,8.3-2.8,8.3-2.8C296.3,318.8,296.2,318.2,296.2,318.1Z"/><path class="cls-19" d="M286.8,317.6l-.3-.6a4.51,4.51,0,0,0,2.5.5,9.94,9.94,0,0,0,6.2-2.7,6.12,6.12,0,0,1-1.5,1.7,5.7,5.7,0,0,1-2.2,1.1C287.6,318.6,286.8,317.6,286.8,317.6Z"/><path class="cls-19" d="M285.5,296.7c-.3,1.3-3.8,8-3.8,8s-2-3-3-4.3-3.8,4.9-3.8,4.9l1.4-3.6s.9-1.7,1.8-2.1,3.4,3.4,3.4,3.4a37.32,37.32,0,0,1,2.4-4.3c1.7-2.9,1.6-4.4,1.6-4.4A3.42,3.42,0,0,1,285.5,296.7Z"/><path class="cls-19" d="M284,295.1a2.84,2.84,0,0,1-.6.9l-.8.8h0l-3,2.1c-.5.3-1,.7-1.5,1a4.89,4.89,0,0,0-1.3,1.2,3.91,3.91,0,0,1,1-1.6l1.3-1.3a33,33,0,0,1,3-2.2h0l.7-.7c.2-.3.4-.5.6-.8a3.32,3.32,0,0,0,.5-2A4.61,4.61,0,0,1,284,295.1Z"/><path class="cls-10" d="M274.4,298.3c.2-1.4.5-1.6.5-1.6,1.3.3,2.2-.4,3.5-1.4a13.31,13.31,0,0,0,2.6-2.9c-1.6,5.3-5.9,5-5.9,5.1C275.1,297.4,274.7,297.7,274.4,298.3Z"/><path class="cls-19" d="M266.4,310.7c-1.1.3-3-1.6-3-1.6a4.2,4.2,0,0,0,3.5,2.4l.4-15.4C266.6,298.6,266.4,310.7,266.4,310.7Z"/><path class="cls-19" d="M266.6,307.1a3.21,3.21,0,0,1-2.5-2.4c1.4,1.8,2.7,1.6,2.7,1.6Z"/><path class="cls-19" d="M271.9,308.5a6.76,6.76,0,0,1-3.4-1.8,1.11,1.11,0,0,1-.5-1.3,6.9,6.9,0,0,0,3.7,2.4Z"/><path class="cls-19" d="M268.5,312.6a3.09,3.09,0,0,0,3.1,2C268.5,315.7,268.5,312.7,268.5,312.6Z"/><ellipse class="cls-16" cx="274.2" cy="321.2" rx="0.6" ry="0.9"/><ellipse class="cls-16" cx="273.6" cy="329.1" rx="0.6" ry="0.9"/><ellipse class="cls-16" cx="274.9" cy="306.6" rx="0.6" ry="0.9"/><path class="cls-12" d="M268.1,331.1l-.3,4.4,1.3,1.1c-.4-1,.2-4.4.2-4.4Z"/><polygon class="cls-12" points="281.1 336.3 281.1 340 279.7 340.2 279.8 336.3 281.1 336.3"/><path class="cls-10" d="M275.9,297.2s-.8,2.7.5,4.3l-1.5,3.7a19.11,19.11,0,0,0-.3-3.3c-.3-1.4-.3-5,.4-5.4C274.9,296.6,275.4,297.1,275.9,297.2Z"/><path class="cls-10" d="M266.1,340l-.1,4.3a.81.81,0,0,1-.8-.1s.8.4.7-1.9S265.9,339.4,266.1,340Z"/><path class="cls-10" d="M295,320.8s-1.7,1.7-6.4,1.3a75.89,75.89,0,0,1,.1,8.9s.8-6.5.6-7.3a9.46,9.46,0,0,0,4.8-.4s.8,6.2.4,8.9C294.4,332.2,295.6,325.2,295,320.8Z"/><path class="cls-10" d="M264.4,310.6l.2,1.2a2.52,2.52,0,0,1,1.6,2.5c-.1,1.9.8,17.2.8,17.2l.5-.1.2-.9a23.28,23.28,0,0,1-.7-4.8c0-2.1-.6-12.4-.3-14.1Z"/><path class="cls-23" d="M266.6,311.2s-.3,13.2,1,19.2a15.21,15.21,0,0,0,14.1,5.9s-10.4-.3-13.6-6.2a55.8,55.8,0,0,1-.9-6.8c-.4-5.1-.4-12-.4-15.2Z"/><path class="cls-24" d="M272.4,393.7l-3.4,4.1A11.06,11.06,0,0,0,272.4,393.7Z"/><path class="cls-24" d="M271,394.3l1.7.9A1.41,1.41,0,0,1,271,394.3Z"/><path class="cls-24" d="M269.9,395.3l1.7.9A1.47,1.47,0,0,1,269.9,395.3Z"/><path class="cls-24" d="M268.8,396.5l1.7.9A1.41,1.41,0,0,1,268.8,396.5Z"/><path class="cls-24" d="M286,400.3l-3.4,4.1A12.24,12.24,0,0,0,286,400.3Z"/><path class="cls-24" d="M284.5,401l1.7.9C286.2,401.8,284.9,402.1,284.5,401Z"/><path class="cls-24" d="M283.5,402l1.7.9A1.57,1.57,0,0,1,283.5,402Z"/><path class="cls-24" d="M282.3,403.1l1.7.9A1.47,1.47,0,0,1,282.3,403.1Z"/><path class="cls-24" d="M285.1,407.2s.5-.5-.7-1.4c-2.8-1.9-4.1-1.6-4.1-1.6s-1.8,1.8-1.2,2.9c0,0,1.6,2.2,3.8,1.4Z"/><path class="cls-24" d="M271.7,400.1s.2-.3-1-1.1c-2.8-1.9-4.1-1.6-4.1-1.6s-1.8,1.8-1.2,2.9c0,0,2,2.2,3.8,1.4Z"/><path class="cls-24" d="M292.3,399a40.23,40.23,0,0,1-7.8,7.8l.1.8s5.4-3.8,7.7-7.4A2,2,0,0,0,292.3,399Z"/><path class="cls-24" d="M278.5,392.7s-1.7,3-7.8,7.4l-.1.8s5.6-3.5,7.9-7.1C278.6,393.8,278.7,393.5,278.5,392.7Z"/><path class="cls-21" d="M273.2,348.5s-4.4-2.4-4.3-4l4.5,3.2Z"/><path class="cls-25" d="M174.3,412c-3.8,4.6-6.3,19.1-6.3,19.1,1-1.6,5.2-2.3,5.2-2.3C173,425.8,174.2,412,174.3,412Z"/><path class="cls-26" d="M174.4,353.6s-2.4-1.3-4,2.1-.1,10.5,1,12.7,1.7,4.2,1.7,4.2l3-2a3.73,3.73,0,0,0,1.2-2.4c1.5-1.9.8-6.2.8-6.2Z"/><path class="cls-27" d="M171.1,458.3a5.72,5.72,0,0,0-.6,2.5c0,.5.5.8.8,1.2.9,1.2,5,4.1,5,4.1a5.77,5.77,0,0,1,4.5-1.7l-3.5-5.1Z"/><path class="cls-27" d="M187.1,451.8c-.1.2-.6,1.9-.7,2.1a2.44,2.44,0,0,0,.5,2.8l5.2,4.4,4.6-1.9c-1-1.7-4.2-5.7-4.2-5.7Z"/><path class="cls-27" d="M195.9,405.9l1,9.7c1.6-.7,2.1-1,2.5-3.7s-.5-7.9-.5-7.9Z"/><path class="cls-28" d="M171.1,458.1c.1-7,0-8.1.5-13.7.2-1.6.4-3,.7-5.4.5-6-.9-14.4-.9-18.1,0-5.1,2-8.5,2.3-8.6,16.5-2.6,23,14.8,23.1,14.8-.3,4.9-4.1,26.3-4.1,26.3-1.1,2.3-4.5,1.1-4.5,1.1a3.18,3.18,0,0,1-1.6-3.3s.7-10.7.7-14.5a16,16,0,0,0-.8-5.7s-3.9-2.3-4.4-.3c-.2.9-.2,3.7-1,7.4-.9,4.6-2.5,10.4-2.7,13a51.38,51.38,0,0,1-1.2,8.2,4,4,0,0,1-3.5,1.1C172.4,460.1,171.1,459,171.1,458.1Z"/><path class="cls-29" d="M196.5,430s-5.4,3.3-9.3,4l.1,1.4s5.3.1,8.8-2.7Z"/><path class="cls-29" d="M174.6,414.8s2.5,10.8.4,20.6c0,0,3.9,1.8,6.3,1.1a51.08,51.08,0,0,0,.6-5.5C181.9,430,176.8,413,174.6,414.8Z"/><path class="cls-30" d="M167.8,414.4c-.9,1.8-2.3,10.2-2.5,14.6s3.2,5.1,3.2,5.1a13.38,13.38,0,0,1,.1-4.4c.6-6.9,5.1-14.7,5.1-14.7l1.2-7.7,1,8.5a50.54,50.54,0,0,1,.8,10,60.54,60.54,0,0,1-1.3,9.5c2.5.5,10.2-.3,16.6-2.6s7.4-4.8,7.4-4.8a44.15,44.15,0,0,0-.2-5.6c-.3-2.4-2.4-16.4-2.4-16.4,3-1.2,3.4-2.5,3.3-4.6s-1.3-10-1.6-16.2-1.6-13.7-2.9-17.3-3.9-3.3-3.9-3.3a15.44,15.44,0,0,1-1.2,4.7,31.6,31.6,0,0,1,1.7,9.8c-.9,2.9-4.4,3.2-6.4,3.3s-4.1-2.9-5.7-6.7a7.62,7.62,0,0,0-5.6-4.3c-2.8,1.4-4.4,5.3-5.8,8.8s-3.2,15-3.5,19.9C165.1,404.8,167.9,414.4,167.8,414.4Zm5-14.2s.6-7.9,2.1-10.7a6.11,6.11,0,0,1,.3,5.1A47.62,47.62,0,0,1,172.8,400.2Z"/><path class="cls-31" d="M174.4,358.1c-1.3,0-1.8-1.3-1.9-3.8s1.5-2,1.5-2Z"/><path class="cls-27" d="M190.5,368.7c.9,2.1,2.3,8.8,1.8,10.5s-4.4,3.7-7,3-4.6-5.2-5.7-7.5-5.1-3.6-5.1-3.6c.3-.4,1.7-1,3.1-2.2s.7-4.4.7-4.4a1.63,1.63,0,0,0,1.7.6C182.3,367.4,190.6,368.6,190.5,368.7Z"/><path class="cls-27" d="M178.6,350.1c-5.7,2.6-1.2,12.5-1.2,12.5-.1,2.4,1.1,3.7,1.7,3.6,0,0,4.6,5.1,7.9,5.1s4.6-2.6,5.5-8.5c.1-.5-.2-1.3-.1-1.8a10.46,10.46,0,0,0,.4-1.7,19.82,19.82,0,0,0-.7-6.4C189.2,346.1,184.2,347.5,178.6,350.1Z"/><path class="cls-32" d="M169.5,400.2l3,12.7s5.5,5.1,6.2,5.1,5.1-2.4,5.5-3.5-1.7-10.1-2.1-11.4-10-7.4-10-7.4Z"/><path class="cls-33" d="M192.6,350.8a6.64,6.64,0,0,0-2.2-2.7,13.44,13.44,0,0,0-6.9-3.3c-2.5-.2-8.4,2.1-9.4,4.5a22.27,22.27,0,0,0-.4,5.2c.4,2-.3,2.4.5,5.1a15.23,15.23,0,0,0,1.2,2.9,2.14,2.14,0,0,0,2.3.2,2.44,2.44,0,0,0,1.8-.8c.3.8-.6,2.2,1,3a1.22,1.22,0,0,0,1.9-.9c-.7,1.3-2.3.6-1.9-1s2-1.2,2.5-3.7,1-2.4,4.8-3.2,3.9-3.4,3.9-3.4a5.42,5.42,0,0,1,.6,1.6A3.1,3.1,0,0,0,192.6,350.8Z"/><path class="cls-34" d="M192.6,360.1c-2.3,1.5-5.5,2.9-6.1,2.6a9.9,9.9,0,0,1-2.4-.1c.3-.5,1.1-.3,3-.5s5.7-2.5,5.7-2.5Z"/><path class="cls-34" d="M188.7,366c.7.3,1.3-.2,1.1-.6a5.29,5.29,0,0,1-.4-2.6c.2-.6.4-.3.4-.3a5.06,5.06,0,0,0,.3,2.8c.6,1.7-1.8,1.7-2,.8C188.2,365.6,188.7,366,188.7,366Z"/><path class="cls-34" d="M190.5,370.9c-.8,1.2-3.2,1.4-3.2,1.4s-6.1.2-6.7-5.6a8.21,8.21,0,0,0,4.9,4.1c3.8.9,5.2-1.6,5.2-1.6l.4,1.1s2.2,8.3,1.1,9.5A24.76,24.76,0,0,0,190.5,370.9Z"/><path class="cls-35" d="M194.9,374.9a10.73,10.73,0,0,1,2.5,5.1c.5,3-1.1,5.9-2.6,8.2s-1.2,3.5.7,8.7a20.82,20.82,0,0,1,1.4,9c-.4-8.2-3.5-9-3.7-12.9s1-4.7,3-9-1.5-7.8-1.8-9.1a12.11,12.11,0,0,1,.3-3.9A14,14,0,0,0,194.9,374.9Z"/><path class="cls-35" d="M180.8,389.4c3.7,1.9,7.4-.3,7.4-.3C184.5,393.2,180.8,389.4,180.8,389.4Z"/><path class="cls-34" d="M197.9,413.3l-.1-1.2s.5-1.3.6-1.6.1-3.1.1-3.1C199.5,410.1,197.8,413.3,197.9,413.3Z"/><path class="cls-34" d="M179,368.8a3.34,3.34,0,0,1-2.6,2.3c3.5,1.3,4.4,4.4,5.7,7a12.09,12.09,0,0,0,3.8,4.2c-2.7.1-4.6-4.3-4.6-4.3a35.25,35.25,0,0,0-2.6-4.4c-.9-1.2-4.1-2.4-4.1-2.4l3.1-2.2a3.09,3.09,0,0,0,.5-3.6c1,1.1,1.8.2,1.8.2C180.9,367.6,179.4,366.9,179,368.8Z"/><path class="cls-9" d="M168.8,416a17.5,17.5,0,0,0-.3,6.5c.3,2,1.3,2.4,2,3.1s1.5,1.3,2.1.3c.3-.4-.1-2.5-.1-3.9a9.92,9.92,0,0,1,.3-2.6c.2.9,0,4.7,1.1,4.4s.8-1.4.9-4a15,15,0,0,0-.7-4.9C172.1,417.3,168.8,416,168.8,416Z"/><path class="cls-36" d="M192,459.6c-2.9-1.2-5.7-5.2-5.7-5.2a2.51,2.51,0,0,0-.3,1.5c2,2.6,6.2,6.2,9.5,7.3s3.3-.9,3.3-.9a8.3,8.3,0,0,0-2.6-4.5A4.83,4.83,0,0,0,192,459.6Z"/><path class="cls-36" d="M176.3,465.4c-2.9-1.2-5.7-5-5.7-5a2.21,2.21,0,0,0-.4,1.3c1,1.6,6.3,6.1,9.6,7.2s3.3-.9,3.3-.9a7.41,7.41,0,0,0-2.6-4.3A4.39,4.39,0,0,0,176.3,465.4Z"/><path class="cls-30" d="M165.3,400.9c-.3,2.9,2,10.7,2,10.7l1.1,4.3a4.64,4.64,0,0,0,5.5-1.3c-1.4-5.2-1-19.4-1-19.4Z"/><polygon class="cls-37" points="179.3 404.6 173 399.7 172.8 400.2 178.9 404.8 178.3 417.8 178.7 418.1 179.2 404.9 179.3 404.6"/><path class="cls-37" d="M178.9,402.6l-5.7-4.3A18.72,18.72,0,0,0,178.9,402.6Z"/><path class="cls-37" d="M180.4,407c-.2-1.6-1.5-13.8-1.5-13.8-.9-15.5-2.4-17.2-2.4-17.2a3.94,3.94,0,0,0-4.4-2.6,2.32,2.32,0,0,1,1.7-1.6c3.3-.8,5,4.9,4.9,4.5,1.7,4.2,3.2,30.5,3.2,30.5C181.9,408.5,180.6,408.6,180.4,407Z"/><path class="cls-35" d="M175,387.4l.3-1.1c1.2-.7,2.3-3.4,2.3-3.4A5.66,5.66,0,0,1,175,387.4Z"/><path class="cls-35" d="M175.1,385.2c-1.5,3-2.6,11.2-3,14.8s1.9,14.5,1.9,14.5c-.8,2.1-5.5,1.3-5.5,1.3,5.1,1.8,6.2-1,6.2-1s-1.4-9.4-1.8-11.8,1.3-13.8,3.1-17.8.9-6.5.9-6.5A18.86,18.86,0,0,1,175.1,385.2Z"/><polygon class="cls-38" points="190 381.5 189.2 379.4 189.2 381.8 190 381.5"/><path class="cls-38" d="M178,362.7s-.2,2.1.5,2.3,1.2-.5.9-.8-.9-.6-.3-1.5S178,362.7,178,362.7Z"/><path class="cls-37" d="M178.9,404.8l1-1.4,2.2-.2s2.7,9.9,2,11.7a17,17,0,0,1-5.4,3.3l-.2-.8s3.5-.9,5.3-3.1a57.1,57.1,0,0,0-1.9-10.7l-1.6.1-1.4,1.7"/><path class="cls-39" d="M189.3,371.8s1.1,3.3,0,4.5-3,1.6-6-1.4a51.19,51.19,0,0,0-6.1-5.3s-.2-1.2,1.1,0,6.6,6.6,7.9,6.9,4,.7,2.5-4.5Z"/><circle class="cls-39" cx="188.4" cy="377.1" r="0.7"/><circle class="cls-39" cx="179.2" cy="365.8" r="0.5"/><path class="cls-34" d="M172.9,418.5a20,20,0,0,1-.4,2.6,16.45,16.45,0,0,0,.3,4.5s-.1-5,.3-5.5v1.6C173.1,421.8,173.8,419.6,172.9,418.5Z"/><path class="cls-34" d="M174.3,415.3s-.9,1.8-5.5.7a13.25,13.25,0,0,0-.4,5.2s.5-3.8,2-3.6,4-1.6,4.3.8l.2,1.6A9.12,9.12,0,0,0,174.3,415.3Z"/><path class="cls-34" d="M199.1,404.7a7.68,7.68,0,0,1-2.2,1.2l.4,2.6s1-2.2,1.6-1.4a4.9,4.9,0,0,1,.7,2.6A19.55,19.55,0,0,0,199.1,404.7Z"/><path class="cls-34" d="M192.7,453.4s-.5,2-4.1,1.2c0,0-1.5-.5-1.7-1.7a11.32,11.32,0,0,0-.6,1.6s.2-.8.9-.2a4.8,4.8,0,0,0,6.3.3Z"/><path class="cls-34" d="M177.3,459.3s-2.4,2.3-4.9.5c0,0-1.3-.7-1.3-1.5s-.4,1-.4,1a6.31,6.31,0,0,0,7.5,1.6Z"/><path class="cls-35" d="M195.5,372.3l-.9,2.8.7.9A24.06,24.06,0,0,0,195.5,372.3Z"/><path class="cls-33" d="M177.4,362.7a3.64,3.64,0,0,0,.8,3,6,6,0,0,1,.3,1.1s-1.8.7-4-6.3Z"/><path class="cls-40" d="M191.4,350.2a3.85,3.85,0,0,1-2.2,5.3A5.31,5.31,0,0,0,191.4,350.2Z"/><path class="cls-40" d="M180.4,359.8s-.4,3-3,2.7C177.3,362.5,179.9,361.5,180.4,359.8Z"/><path class="cls-41" d="M154,356.1s3.8,1.9,5.9,3.3c0,0,1.3.6,1,1.7,0,0-.3,2.1-3.2,1.7-1.3-.2-3.3-.1-7.8-3.4a3,3,0,0,1-1.6-2.4c.1-1.7,3.8-1.8,5.7-.9"/><path class="cls-42" d="M149.6,359.2s4.4,4,9.2,3.7c0,0-6.4-1.4-7.5-3.6-.8-1.2.2-1.6.2-1.6l-1-.9-.7-.2-.5.2A9.22,9.22,0,0,0,149.6,359.2Z"/><path class="cls-41" d="M144.8,356.9l-.1.7s-.8,7.2.1,9a2.83,2.83,0,0,0,2.9,1.7c.8,0,3.1-1.4,2.5-6a48.72,48.72,0,0,0-.9-5.6Z"/><path class="cls-42" d="M144.7,357.7a5.35,5.35,0,0,0,4.7-.5l.3,1.2s-.3,2.3-5.1.6Z"/><path class="cls-43" d="M145.8,357.6a17.21,17.21,0,0,0,0,4c.3,1,1.7,2.5,2.7.4.8-1.7-.2-5.3-.2-5.3Z"/><path class="cls-43" d="M153.2,355s.3.9,2.2,1.9c1.2.6,2,1.3,2,2.1s-3.6,1-7-2.4Z"/><path class="cls-44" d="M149.5,356.6s2.8,1.2,3.7-1.5c0,0,.3-14.1,2.5-24.3s4.6-25.9,4.4-27.4l-11.5,4.3Z"/><path class="cls-43" d="M166.2,286.5a2.78,2.78,0,0,0,1.5.8,4.7,4.7,0,0,1,3,1.6c.9,1,1.1,1.7,2,2.2s.7.9.3,1.3-2.1.1-2.7-1.4a7.09,7.09,0,0,0,1.1,2.4c.7.8,1.7,2.4,1.2,3.4s-2.1,1.1-3.9.5-4.5-1.9-5.3-5.9a3.3,3.3,0,0,0-.8-2C162.6,289.5,162.8,286.7,166.2,286.5Z"/><path class="cls-44" d="M135.9,307.1s3.5,25,7.9,48.2c0,0,.1,2.6,2,2.8,2.6.3,4.4-1.2,4.2-2.6,0,0-.4-35.7,1.2-46.7C151.3,308.8,144.3,299.6,135.9,307.1Z"/><path class="cls-45" d="M137.7,271.9,135,298.6a1.86,1.86,0,0,0-1.6,1.9s3.2-26,2.4-30.7Z"/><path class="cls-46" d="M166.3,285.8s-3.3-8.4-4.1-10.2-.7-8.2-.7-8.2c-1-15.9-6.1-15.9-6.1-15.9-.5,2.5-3.6,4.9-3.6,4.9,4.4,7.3,1,9.8,1,9.8.5,1.7-.3,6.4-.3,6.4-.7-3.9-2.1-5.1-2.1-5.1-3.1,0-4.9-3.7-4.9-3.7-2.7-5.1-5.1-6.1-5.1-6.1a12.79,12.79,0,0,0-4.9,2.5c-4.9,5-6.5,20.9-6.4,24.2s4.3,10.3,4.3,10.3a12.57,12.57,0,0,0-.1,6.4l11.2,9.6a18.63,18.63,0,0,0,16.8-6.4l.3-3.4a20.62,20.62,0,0,0-.4-5.3c-.6-2.9-3-12.9-3-12.9l4.3,7.2c.7-3.1,4.1-3.2,4.1-3.2A1.67,1.67,0,0,0,166.3,285.8ZM138,284.6l-1.1,3.1-1.3-5.4a53.67,53.67,0,0,1,1.8-5.5A13.39,13.39,0,0,1,138,284.6Z"/><path class="cls-43" d="M143.2,253s.6,2.7-2.4,4.8a33.86,33.86,0,0,1,5,6.4c2.8,4.4,4.7,3.3,4.7,3.3l2.1,5.1.5-6.4s3-2.3-1.3-9.8A11.28,11.28,0,0,1,143.2,253Z"/><path class="cls-43" d="M141,250.1s-2,5.3,2.2,3.1c0,0,4,5.3,9.4,3.1,0,0,2.6-1.1,3.3-7.6,0,0,1.4-8.6-.6-10.5,0,0-10.9-7-13.9-.3A14.48,14.48,0,0,0,141,250.1Z"/><path class="cls-22" d="M142.6,232.7s-7,.7-7,10.9a21.86,21.86,0,0,1-1.1,5.3c-.9,2.4-.7,7.8,7.6,7.8a3.48,3.48,0,0,0,1.1-3.7s-1.7.7-1.7-1.7a15.33,15.33,0,0,0,3.2-2.9c.6-.3,1.6-.6,2.4-4,0,0,6.2.9,8.3-4.1a26,26,0,0,1,.4,5.7c0,.3-.6,1.6-.6,2-.1,1.2.5,2.1.2,3.3,0,0,2,1,2.2-5.1s-1.6-7.4-3.5-10C154.1,236,148.7,229.4,142.6,232.7Z"/><path class="cls-47" d="M143.9,278.6s4.5.5,7.1-1.7C150.8,277.1,149.2,280.2,143.9,278.6Z"/><path class="cls-48" d="M153.1,266.3c1.5-4-1.6-8.7-1.6-8.7-1.3,0-2.4-.1-2.4-.1a8.26,8.26,0,0,1-3.3-1.3c-2.5-1.7-2.4-3-2.4-3.8,0,0,2.5,4,6.2,4.3a8.52,8.52,0,0,0,2.3,0c0-.1,4.2,6.4,1.2,9.6"/><path class="cls-48" d="M155.9,246.1s-4.7,3.7-8,2.6c0,0,1,1.8,5.1-.3l2.6-1.6Z"/><path class="cls-44" d="M137.4,284a10.16,10.16,0,0,0,1.8,2.4c1.4,1.5,6,2.4,8.9,1.5a27,27,0,0,1-.9-7.8c.1-1.8.2-3.5.2-4.8a22.6,22.6,0,0,0-1-9.2s-.6,0-2.5-3.5c-2-3.7-2.9-4.6-4.2-4.9,0,0-2.3.5-2.9,1.5,0,0,4.5,1.9,4.4,8.9-.1,7.3-3.7,9.3-3.7,9.3a8,8,0,0,0,.3,2.5C138.3,281.6,137.4,281.6,137.4,284Z"/><path class="cls-45" d="M135.6,260.1s4.2-.8,5.7,10.4l1.6,27.4.7,4.5,1.1.8s-1-9.6-1.2-16.2-.8-18.8-1.5-21.1-1.6-5.4-5.1-6.8A1.06,1.06,0,0,0,135.6,260.1Z"/><path class="cls-47" d="M139.6,267.2a18.94,18.94,0,0,1-2.2,9.6S141.5,270.9,139.6,267.2Z"/><path class="cls-47" d="M139.3,272.2a3.57,3.57,0,0,0,1.3-2.2,3.06,3.06,0,0,1-1.5,3.1Z"/><path class="cls-44" d="M153,256.1s3.7,5.1,2.9,19.1c0,0,0,4.3-.3,7a17.26,17.26,0,0,0,.2,5,5,5,0,0,0,3.3-2,4.3,4.3,0,0,1,.7-.7s-.6-11.6-.3-12.6a9,9,0,0,0,.9-3.9c-.2-1.6-2.3-4.5-3.3-7.4s-2.6-6.5-2.6-6.5A4.15,4.15,0,0,1,153,256.1Z"/><path class="cls-22" d="M146.5,246.3s-1.7,5.1-4.9,5Z"/><path class="cls-49" d="M159.5,272a9.7,9.7,0,0,1-2.6,2.7,5.88,5.88,0,0,0,2.6-1.8Z"/><polygon class="cls-47" points="150.3 267.6 152.6 272.6 153.4 266 153.1 266.2 152.5 271.6 150.5 267.5 150.3 267.6"/><path class="cls-45" d="M133.6,294.8l1.1,1.5-.1,2.2s-1.2.4-1.2,1.2A34.37,34.37,0,0,1,133.6,294.8Z"/><path class="cls-47" d="M136.9,287.7l2.8,6.7,1.3,1.8a7,7,0,0,1-4.4,3s-2.2-3.4-3-4.6l3.1,4a6.35,6.35,0,0,0,3.6-2.3l-1-1.7a8.07,8.07,0,0,1-4.1,1.9,31.8,31.8,0,0,0,3.9-2.1C139.1,294.3,137,289.8,136.9,287.7Z"/><path class="cls-45" d="M133.3,301s-.1,6.6.9,8.5c0,0,1.2,1.9,6.7,3.9a6.91,6.91,0,0,0,3.1.7,2.46,2.46,0,0,0,2.1-1.8s0-6.2-.3-6.9c0,0-.3-.9-2-1.2S133.2,298.2,133.3,301Z"/><path class="cls-50" d="M135,298.4s-1.6-.1-1.7,2.1a12.47,12.47,0,0,0,.7,4.3s2.6,2.8,4.6,3.6,4.3,1.2,5.2.5a3,3,0,0,0,.2-1.4,1,1,0,0,1,.8-.9s.9-.1.9-.6l.1-.7S137.2,299.4,135,298.4Z"/><path class="cls-51" d="M133.6,300.8s9.1,5.8,10.3,6.2C144,306.9,137.7,304.3,133.6,300.8Z"/><ellipse class="cls-52" cx="138.1" cy="305.9" rx="0.6" ry="0.8" transform="translate(-100.94 70.3) rotate(-21.12)"/><path class="cls-51" d="M133.3,304.1a12.43,12.43,0,0,0,10.3,5s-.1-2,1.2-2.5a3.09,3.09,0,0,0-.9,2.7A11.59,11.59,0,0,1,133.3,304.1Z"/><path class="cls-44" d="M151.5,310.2s-.1,16.8-1.2,24.1c0,0,.1,4.1.1,7.2s-.4,15-.4,15l-.3.5s.4-13.1.1-15.6a62,62,0,0,1-.1-7.3c.1-1.1.9-22.2,1.1-23.7Z"/><path class="cls-47" d="M165.4,284.5a4.15,4.15,0,0,0-3.9,3.3A3.24,3.24,0,0,1,165.4,284.5Z"/><path class="cls-43" d="M140.7,296.5a2.51,2.51,0,0,0,1.7.8c.9,0,1.8.9,2.5,2s1.2,1.3,1.3,1.7-.2.9-1.3.5a11.08,11.08,0,0,1-1.9-.9,6.67,6.67,0,0,1,1.5,2.1c.5,1.2,1.7,1.1,2.1,2a1,1,0,0,1-1.1,1.3,5,5,0,0,1-2.7.4s-3.1-.7-4.7-4.9a14.2,14.2,0,0,0-.9-2.6A6.74,6.74,0,0,0,140.7,296.5Z"/><path class="cls-53" d="M159.9,305.8s-3.8,4.8-13.8,4.9v1.7a24.55,24.55,0,0,0,13.6-5Z"/><path class="cls-48" d="M153.4,248.7s.7,2.8.1,4.4a1.13,1.13,0,0,1-1.2.6s1-.3,1.1-2.1a7.24,7.24,0,0,0-.4-2.7Z"/><path class="cls-54" d="M141.5,251.3s0,2.3,1.8,1.7c0,0,.5,2.4-1.1,3.7a10,10,0,0,1-3.6-.4s4.3.7,4.1-1.8l-.1-.9S141.3,253.5,141.5,251.3Z"/><circle class="cls-55" cx="142.7" cy="252.7" r="0.5"/><path class="cls-55" d="M143.1,254a.5.5,0,0,1-1,0c0-.3.2-.9.5-.9S143.1,253.8,143.1,254Z"/><path class="cls-48" d="M143.3,253s.9,2.5-2.4,4.8a36.3,36.3,0,0,1,3.5,4.2s-2.2-3.3-1.3-4.4a8.2,8.2,0,0,0,1.3-2.9Z"/><path class="cls-48" d="M144.4,262s3.5,6.3,6.1,5.4l2,4.1.6-5.3-.8,3.7a11.29,11.29,0,0,0-1-3.7l.3,3-1.1-2.2s-2.6.9-7.2-6.8Z"/><polygon class="cls-48" points="151.2 257.1 150.9 259.6 151.6 258.6 151.5 257 151.2 257.1"/><path class="cls-55" d="M142.2,256.7s3.8,6,8.5,6c0,0,2.2.1.9-4.6,0,0,2.2,4.4-.4,5.1C151.1,263.3,146.7,264.8,142.2,256.7Z"/><path class="cls-55" d="M150.4,263.3s1.2,1.2,1.3-.4Z"/><polygon class="cls-47" points="150.2 277.9 147.1 281 147.3 278.9 150.2 277.9"/><path class="cls-47" d="M138.2,275.3l.2,1.4-.8.6-.2-.6A3.41,3.41,0,0,0,138.2,275.3Z"/><path class="cls-47" d="M129.2,284.9s2.6,8.1,5.8,11.9l2.3-.9-2,.5A52,52,0,0,1,129.2,284.9Z"/><path class="cls-47" d="M135.5,282.5a3,3,0,0,0-2.1-2.1S136.1,280,135.5,282.5Z"/><path class="cls-47" d="M153.8,274.4l-2.4,5.7S153.2,278.4,153.8,274.4Z"/><ellipse class="cls-44" cx="150.22" cy="268.54" rx="0.6" ry="0.3" transform="translate(-123.42 127.83) rotate(-33.56)"/><ellipse class="cls-44" cx="152.91" cy="273.22" rx="0.6" ry="0.3" transform="translate(-126.45 131.85) rotate(-33.92)"/><path class="cls-53" d="M151.5,310.2s-.7,18.1-1.4,24.8c0,0-.2,20.1-.4,21.1,0,0-1.8,3.2-5.4.7a2.39,2.39,0,0,0,3,1.4,3,3,0,0,0,2.8-1.7l.4-21.8,3.2-25Z"/><path class="cls-48" d="M142.9,300s-.1.2.4.8,1.1,2.1,1.6,2.7,2.1.5,1.7,1.8c0,0,.4-.6-1.6-1.4C143.7,303.1,143.4,301.1,142.9,300Z"/><path class="cls-48" d="M170.3,291a1.29,1.29,0,0,0-1.8-.7,3.13,3.13,0,0,1-2.6-.3s.4,1.2,2.4.9A1.57,1.57,0,0,1,170.3,291Z"/><path class="cls-48" d="M166.2,286.5s-2.9.6-3.6,3a4.12,4.12,0,0,1,.8,2c.3,1.4,1.4,4.5,4.5,5.6a8.45,8.45,0,0,1-4.1-6.1c-.7-4.3,3.6-3.7,3.6-3.7Z"/><path class="cls-48" d="M169.7,292.8l-2.8,2S168,292.9,169.7,292.8Z"/><polygon class="cls-49" points="147.3 278.9 143.7 280.3 144.5 281.4 144.6 282.7 147.1 281 147.3 278.9"/><path class="cls-48" d="M145.7,359.3a5.68,5.68,0,0,0,3.1,0l-.2-1.5s-.7.5-2.8.3Z"/><path class="cls-48" d="M140.7,296.5a6,6,0,0,1-3.5,2.4,24.15,24.15,0,0,1,.9,2.6,8.48,8.48,0,0,0,2.4,3.5s-2.6-3.4-2-4.9a3.5,3.5,0,0,1,3-2,11.05,11.05,0,0,0,1.8-.2A24.1,24.1,0,0,0,140.7,296.5Z"/><path class="cls-48" d="M150.5,356.9l1,.9s3-.5,1.7-2.7A2.66,2.66,0,0,1,150.5,356.9Z"/><path class="cls-43" d="M342.2,274.7l.5,10.8c3.4,0,2.6-5.1,2.6-5.1s-.2,1.4,1.6,1.3.9-.9.9-.9c-.6-1.2-.7-3.3-1-4.6a15.49,15.49,0,0,0-1.2-3A10.83,10.83,0,0,1,342.2,274.7Z"/><path class="cls-56" d="M341.9,245.3c.1,1.7-.1,3.3,0,5s.2,3.3.3,5,.2,3.2.3,4.9a41.93,41.93,0,0,1,.3,5l.3,5c.1,1.7.2,3.3.2,5-.3-1.7-.4-3.3-.6-5l-.5-5c-.2-1.7-.3-3.3-.4-5s-.3-3.3-.4-5-.2-3.3-.2-5,.2-3.3.2-5,0-3.3,0-5-.1-3.3-.1-5A84.28,84.28,0,0,1,341.9,245.3Z"/><path class="cls-56" d="M343,239.9a15.14,15.14,0,0,1-.2,3,8,8,0,0,1-.3,1.5,4.58,4.58,0,0,1-.8,1.3h-.1a4.3,4.3,0,0,1,0-1.6c.1-.4.3-1,.4-1.4l1-2.8Z"/><path class="cls-56" d="M342.9,271.1l-.1-.4c2.2-.5,2.8-1.5,2.8-1.5A2.84,2.84,0,0,1,342.9,271.1Z"/><path class="cls-48" d="M348,281.1c.1.3-.5.5-.5.5a2.48,2.48,0,0,1-2-.3,2.91,2.91,0,0,1-.8-1.1,2.28,2.28,0,0,1,.1-1.9,6.73,6.73,0,0,0,.1,1,5.19,5.19,0,0,0,.5,1.2c1.2,1.9,2.4.4,2.4.4Z"/><path class="cls-48" d="M344.7,278.8c-1,.1-1.3-.3-1.3-.3v-.9c.2.7,1.3.6,1.3.6Z"/><path class="cls-57" d="M315.5,337.3s-1.1,2.1-.8,3,8.4,9.4,10.8,8.6,2.8-1.6,2.5-2.5-5.3-7.8-5.3-7.8C319.2,341.2,315.5,337.3,315.5,337.3Z"/><path class="cls-58" d="M323.7,340.1s-4.4,2.8-8.6-1.6l.4-1.2s4.7,3.2,7.2,1.3Z"/><path class="cls-57" d="M329.2,330.9s-1,2.4-.7,3,8.5,8.4,10.3,8.3a3.31,3.31,0,0,0,2.9-2.6c0-.9-5.2-6.8-5.2-6.8Z"/><path class="cls-58" d="M336.9,333.5s-4.9,2.2-8.1-.7l.4-1.9a7.32,7.32,0,0,0,6.9,1.3Z"/><path class="cls-59" d="M337.9,274.8c-4.4,2.9-19.4,5.9-19.4,5.9-.3,3.1.3,36,.3,36,.7,5.2-3.5,18.9-3.5,18.9s-.9,3,3.3,4.1,4.8-1.9,4.8-1.9,4.8-17.7,5.5-20.3,1.6-20.3,1.6-20.3c1.6,5.4,2.4,11.2,2.2,14.5s-4.4,18.3-4.4,18.3c1.2,3.9,5.7,3.5,7.1,3a2.11,2.11,0,0,0,1.5-2.4c.6-2.6,5.2-17.8,5.2-19.8s-.8-24.4-.8-24.4C341.3,276.6,337.9,274.8,337.9,274.8Z"/><path class="cls-60" d="M323.8,233.8l-.4,1.4c.6,3.8,4.1,10,5,13.2s-.3,12,.3,17.1a42.79,42.79,0,0,1-.6,11.2c4.5.2,9.8-3.8,9.8-3.8s.3-3.2.3-5.1-.3-16.7,0-23.5-2.3-9.8-2.3-9.8Z"/><path class="cls-61" d="M333.3,238.8l-1.7,2.1,1.5,2.1a1.07,1.07,0,0,0,1.6-.3c.7-1,1.3-2.7,1.1-2.9A7,7,0,0,0,333.3,238.8Z"/><path class="cls-61" d="M333.4,242.8s-2.2,19-2.3,19.3a37.06,37.06,0,0,0,3.2,4.1,49.77,49.77,0,0,0,2.7-5.7c.2-2.6-2.4-18.1-2.4-18.1Z"/><path class="cls-62" d="M324.2,231.3c-1.9.8-2.4,3.8-2.4,3.8s-5.8,4-7.4,6.3-1,4.3-1.3,7.8-2.4,12.5-2.3,17.2,2.9,14,2.9,14a19.29,19.29,0,0,0-1.3,4.9c3.4,4,9.5,3.9,9.5,3.9a10.38,10.38,0,0,0,6.8-.9,27.2,27.2,0,0,1,.1-5.7c.4-2.5-.6-5.8,0-9.9s0-11.5.3-18.6-2.7-12.1-4.6-16-.3-5.1-.3-5.1Z"/><path class="cls-62" d="M335.8,234.2c2.3,2.7,2.5,12,2.2,15.6s0,8.4,0,13.5.3,16.5.4,19-.6,5.2.1,5.6,1.5-.4,2.9-1.3a7,7,0,0,0,2.2-2.7c.2-2.6-.3-9.1-.3-9.1.6-.2,2.3-1.1,2.4-1.6a28.18,28.18,0,0,0,.1-3.1c0-1-.3-1.6-.4-3.5s-.8-14.6-.9-17.5-.1-15.3-.1-15.3a5.42,5.42,0,0,0-5.9-5.2A30.75,30.75,0,0,0,335.8,234.2Z"/><path class="cls-63" d="M331.3,242.7a33.19,33.19,0,0,1-8-7.6c.1-1.7.7-2,.7-2a28.88,28.88,0,0,0,9.4,5.7A23,23,0,0,0,331.3,242.7Z"/><path class="cls-63" d="M336,234.5a10,10,0,0,1,1.1,6.2,17.55,17.55,0,0,1-3.6-1.7,5.8,5.8,0,0,0,1.1-3.2A9.88,9.88,0,0,0,336,234.5Z"/><path class="cls-43" d="M316,287.2c-.8,1.2-1,5.5-.6,7.1a7,7,0,0,0,3,4c1.7,1.2,2.3.2,2.4-.3s-.6-3-.7-3.6c-.2-.9-.7-3.5.3-3.4s.4,2,.6,3,1.4.7,1.6.3.1-.9.4-1.7-.5-3.1-.5-3.1c-.8-2.6-1.5-3.2-1.5-3.2C318.6,288.9,316,287.3,316,287.2Z"/><path class="cls-64" d="M322.5,251.4c-.2.8-.3,1.6-.5,2.4-.7,3-1.4,6.1-2,9.2a16,16,0,0,0-.3,2.3,19.22,19.22,0,0,0,0,2.4l.2,4.8c.2,3.1.3,6.4.5,9.5v-.2a21.18,21.18,0,0,1,.5,4.4v.1h0a2.3,2.3,0,0,1-1.7,1.2,6.28,6.28,0,0,1-1.9.3,3,3,0,0,1-1.8-.6,2.7,2.7,0,0,1-1-1.7h0c-.4-2.2-.9-4.4-1.3-6.5.6,2.2,1.1,4.3,1.7,6.4h0a2.81,2.81,0,0,0,1,1.4,2.73,2.73,0,0,0,1.6.4,4.67,4.67,0,0,0,1.7-.3c.3-.1.5-.2.8-.3a1.18,1.18,0,0,0,.5-.5v.1a20.26,20.26,0,0,0-.6-4.2h0c-.3-3.1-.4-6.4-.6-9.5-.1-1.6-.2-3.2-.2-4.8v-2.4q.15-1.35.3-2.4a78.26,78.26,0,0,1,1.9-9.4c1-3.5,1.7-6,1-9.2C323.7,247.1,322.6,250.7,322.5,251.4Z"/><path class="cls-64" d="M319.2,283.2a3.82,3.82,0,0,1-1.6.6,3.22,3.22,0,0,1-1.7-.1,5.48,5.48,0,0,1-1.5-.8c.5,0,1,.1,1.6.1a7.57,7.57,0,0,0,1.5-.1,7,7,0,0,0,1.4-.3,9.38,9.38,0,0,0,1.5-.6A2.78,2.78,0,0,1,319.2,283.2Z"/><path class="cls-65" d="M338.1,276.3c-3,2.9-9.3,3.7-9.3,3.7l-.3-3.8c6.3-.9,9.3-4,9.3-4Z"/><path class="cls-66" d="M331.5,275.5l.1,4.2a17.62,17.62,0,0,0,4.2-1.7c.7-2.9-.1-4.3-.1-4.3C334.6,274.7,331.5,275.5,331.5,275.5Z"/><path class="cls-67" d="M334.1,288.5c-3.9,2.9-3.7,9.4-3.7,9.4v-2a11.07,11.07,0,0,1,1.5-6.3l-2.6.7,4.2-2.8,1.7-7.2Z"/><ellipse class="cls-68" cx="334.2" cy="269.1" rx="0.5" ry="0.7"/><path class="cls-64" d="M327.9,270.8c-.1-1.1-.2-2.3-.3-3.3s-.3-2.2-.5-3.2c-.4-2.2-1-4.3-1.6-6.4l-.8-1.5-.1-.4-.1-.2v-.3l.3-.9c.3-1,.7-2.1,1-3.1l.3.5a5.27,5.27,0,0,1-1.2-.3c-.2,0-.4-.2-.6-.3a3.17,3.17,0,0,1-.5-.6,3,3,0,0,1-.1-1.3l.1-1.1a10.87,10.87,0,0,0-.5-4.4c-.5-1.4-1.1-2.9-1.5-4.4a14.24,14.24,0,0,1-.2-4.6,13.55,13.55,0,0,0,.5,4.5,29.44,29.44,0,0,0,1.7,4.3,12.06,12.06,0,0,1,.8,4.6v1.1a2.79,2.79,0,0,0,.1,1,1.44,1.44,0,0,1,.3.2c.1.1.3.1.4.2a3.55,3.55,0,0,0,1,.2h.5l-.2.5c-.3,1-.6,2.1-1,3.1-.1.2-.1.5-.2.7l.2.6.4,1.6c.6,2.1,1.1,4.3,1.5,6.4a18.41,18.41,0,0,1,.3,3.3c.1,1.1.1,2.2.2,3.3.1,2.2.2,4.4.3,6.5C328.3,275,328,272.9,327.9,270.8Z"/><path class="cls-43" d="M334.7,235.7c.4-.2,3.6-3.4,3.8-7.1a8.3,8.3,0,0,0-.2-3,2.57,2.57,0,0,1,.1-1.5,3.78,3.78,0,0,0,.1-1.4s.3-3.5-.7-4.4-6.8-8.8-13.1-5.1a4.22,4.22,0,0,0-1.3,3.7c.1.3-.2,7.6-.2,7.6s-1.8-.6-1.9,1.6.4,4.2,1,4.6,1.2.8,1.7.6l-.2,1.9a24.13,24.13,0,0,0,9.3,5.7A5.18,5.18,0,0,0,334.7,235.7Z"/><path class="cls-22" d="M327.3,216.6a13.68,13.68,0,0,0,9.7,2.1c1.4,0,5-2.2,2.3-6.4,0,0-1.8-2.8-5.2-.7-1.6-.6-3.5-2.3-5.7-1.7s-5.7,2.3-6.1,3.4a4.22,4.22,0,0,0,0,2.4s-1.3.4-1.3,2.6,0,6.4.4,7.8c0,0,.5-2.2,2.4-1a4.14,4.14,0,0,1,1,2.8l.1,1.6,1.6.7-.2-1.7a2.39,2.39,0,0,1,.5-1.4,4.45,4.45,0,0,0,1.3-2.4c.4-1.7-2.7-5.1-2.7-5.1C325.4,216.8,327.3,216.6,327.3,216.6Z"/><path class="cls-48" d="M333.5,238.8c.1-1-.1-1.7-.6-2-1-.6-2.1-.5-3.5-1.2-3.4-1.7-3-3.9-3-3.9a7.45,7.45,0,0,0,2.8,3c3.6,2,5.4,1,5.4,1A5.1,5.1,0,0,1,333.5,238.8Z"/><path class="cls-48" d="M338.1,224.8a13.94,13.94,0,0,1-6.5,3c-2.7.5-3-1-3-1s.5.5,3,.3a18,18,0,0,0,4-1.5,7.07,7.07,0,0,0,3-1.8A1.55,1.55,0,0,0,338.1,224.8Z"/><path class="cls-48" d="M324,233.1a31.91,31.91,0,0,0,3.7,3c-2.3-1.9-2.1-5.8-2.1-5.8-.3.1-.5.6-.7.7a1.69,1.69,0,0,1-.7.3Z"/><path class="cls-48" d="M323.9,227.6c.3.6-.4.8-.7.6s-.1-2.2-.4-1.5.2,2.3.7,2.4-.1-.8.5-.7.6.8.6.8a.94.94,0,0,1-1.6.6c-.7-.6-1.2-3.7-.3-4.1s1.7,1.1,1.7,1.1C324.1,226.8,323.8,227,323.9,227.6Z"/><path class="cls-64" d="M338.2,283s-.1-4.4,0-5.3c.3-3.4,1.1-11.5,1.7-14.6.8-4.1-.2-8.6-.5-10.6s1.5-2.3,1.6-3.9-1.4-6.1-1.4-6.1c-.3-7.9-2.4-9.9-2.4-9.9l-1.4,2,1.4,3.5c1,4.4.4,11.5.3,15.2-.2,2.6-.1,21.3.5,28.6Z"/><path class="cls-64" d="M324.2,231.3l-.2,1.8s-1.2,1.8.6,5.2a33,33,0,0,1,4.5,13.5c.4,5.4-.7,23.2-.4,25.1,0,0-.5-9.7-1.4-13.1s-2.5-8.2-2.1-8.9a18.81,18.81,0,0,0,.9-3.3s-1.6-.5-1.8-1.2.3-4.6-.7-6.7-3-7.2-1.5-10.2C322.2,233.6,322.8,231.9,324.2,231.3Z"/><path class="cls-64" d="M343.5,236.1s-.9,3.3-1.2,4.9c0,0,.7,30.9,1,33.8,0,0-1.6-16.7-1.6-33.2a36.24,36.24,0,0,0-.1-4.4l.5,2.3A19.27,19.27,0,0,0,343.5,236.1Z"/><path class="cls-64" d="M321.8,247.4s.8,3.5.1,5.8l-.5,1.4A55.06,55.06,0,0,1,321.8,247.4Z"/><path class="cls-67" d="M333.5,287.6l4-1.5a25.31,25.31,0,0,1-4.4,3Z"/><path class="cls-68" d="M337.6,272.6s-2.6,2.8-9.1,3.6c0,0,.7-19.1.7-20.6s.3-7.6-2.8-13.8-2.5-5.5-2.7-6.2c0,0,3.6,4.9,7.6,7.2l.6-1.4a13,13,0,0,0,1.5,1.9l-1.2-.6-.8,1.4a48.9,48.9,0,0,1-5-3.6s3,1.5,3.6,12.2a108.85,108.85,0,0,1-.7,21.3s-.1.7-.3,1.5c6.2-.5,8.7-3.9,8.7-3.9Z"/><path class="cls-48" d="M335.7,227.4s1,2.8.3,4.1c0,0-.3.4-1.3.4s-1.1-.3-1.1-.3a3.64,3.64,0,0,0,2.1-.8Z"/><path class="cls-68" d="M337,237.2s.9,1,.9,8.2l-.3,26.7-.6.7s.5-20.2.2-23.2-.3-8.2-.3-8.2l-1.2-.8.1-.5,1.2.6C337,240.8,337.5,239.9,337,237.2Z"/><path class="cls-48" d="M316,287.2s2.3,1.7,5-1c0,0,.9.6,2,5.1,0,0-1.4-4-2.3-3.2a4.86,4.86,0,0,1-5.1.5C315.5,288.7,315.5,287.9,316,287.2Z"/><path class="cls-48" d="M345.7,273.2a4.49,4.49,0,0,1-2.4,1.6v.8a28.52,28.52,0,0,0,2.9-1.4Z"/><path class="cls-9" d="M212.4,294.6a19.41,19.41,0,0,0-1,8.4s.9,4.1,4.1,4.6c0,0-.5-6.6.5-8.3s-.5-3.9-.5-3.9Z"/><path class="cls-69" d="M212.2,295.4a3.41,3.41,0,0,0,4.1.7v.9l-1.4,1.8s.1-1-1.3-1.2a12.94,12.94,0,0,1-2-.4A9,9,0,0,1,212.2,295.4Z"/><path class="cls-69" d="M213.6,298.8a30.06,30.06,0,0,0-.1,4.5c.2.9,1.2.7,1.3-.3a10.62,10.62,0,0,1,.4-2.9,3.1,3.1,0,0,0,.6-1.3s.4.4-.5,1.9l-.2,2.3s-.1,1.2-1,1.1-1-1.3-1-2C213.1,301.7,213.1,298.6,213.6,298.8Z"/><path class="cls-70" d="M227,354.7s-3.4,3-4.9,4.6-.1,3.6,2.4,2.6a35.5,35.5,0,0,0,8.1-4.6l.3,1s.7.6.9-.6,1-4.9-.2-5.9C233.6,351.9,230.7,356.2,227,354.7Z"/><path class="cls-9" d="M228.3,334.6s1.2,14.4.3,17a12.85,12.85,0,0,1-2.7,4.4s-2.3,2.5.7,1.9a11.88,11.88,0,0,0,6.7-4.1c.8-1.2-.6-2.7.2-6s2.8-8.9,3-13.9Z"/><path class="cls-69" d="M228.5,336.7s5.2.9,7.9-.9l.3-2.1-8.4.9Z"/><path class="cls-70" d="M216.3,349.3a26.56,26.56,0,0,0-4.9,4.6c-1.3,1.8-.1,3.6,2.4,2.6a35.5,35.5,0,0,0,8.1-4.6l.3,1s.7.6.9-.6,1-4.9-.2-5.9C222.9,346.5,220.1,350.8,216.3,349.3Z"/><path class="cls-9" d="M217.7,329.1s1.2,14.4.3,17a12.85,12.85,0,0,1-2.7,4.4s-2.3,2.5.7,1.9a11.88,11.88,0,0,0,6.7-4.1c.8-1.2-.6-2.7.2-6s2.8-8.9,3-13.9Z"/><path class="cls-69" d="M218,333.6s2.9,3.2,6.7,2.1l.4-1.4-7.3-2.8Z"/><path class="cls-71" d="M217,296a6.39,6.39,0,0,0-2.5,4.3c-.3,2.8-1.9,24.2-1.9,24.2a3.44,3.44,0,0,0,.4,3.5c1.2,1.8,11,10.2,23.3,6.5,0,0,6.9-2.2,7.3-7l-2.1-22.2Z"/><path class="cls-9" d="M238.6,267.6s-4.2-1.4-6.4,4.9a9.67,9.67,0,0,0-1.3,5.5s9.9,1.5,10.6-5.2C241.5,272.9,241,268.4,238.6,267.6Z"/><polygon class="cls-72" points="232.8 319.8 232 330.2 247.3 322 247.5 311.8 232.8 319.8"/><path class="cls-69" d="M234.7,273.7l1.1,4.7.4-.1C236.3,278.4,236,274.7,234.7,273.7Z"/><path class="cls-73" d="M217.9,249.4s.7,4.1,0,6.7-.8,4.7,2.2,5.6l1.6.2s-1.5-9.8-.8-13.1C220.9,248.8,218,246.6,217.9,249.4Z"/><path class="cls-9" d="M236.5,308.2a6.73,6.73,0,0,0-1.3,4.2,26.86,26.86,0,0,1-.6,5.3s.1.7,1.1.3,1-1.5,1.1-2.5.2-1.5.2-1.5a17,17,0,0,1,0,4.8c-.4,2.2,1.9,1.4,3.1.4s2.7-6.2,1.5-9.9C241.6,309.2,238.1,309.6,236.5,308.2Z"/><path class="cls-69" d="M236.3,308.4s3.2,1.6,5.2.7a5.21,5.21,0,0,1,.4,2.3,2.06,2.06,0,0,0-2.3-1.1c-2.7.2-3.6.3-3.8,2.3a13.07,13.07,0,0,1-1.2,4.8s.5-4.5.4-5.4S235.5,308.8,236.3,308.4Z"/><path class="cls-73" d="M217.9,249.7a7.86,7.86,0,0,1,4.8-8.5s4-2.2,6.7-1.5,7.4,2.3,8,5.8-.8,5.5,1,9.8,4,8.7.1,12.4c0,0-4-1.4-5.1-2.3-2.1-1.9-1.6-3.5-1.8-5.4a7.89,7.89,0,0,1-2.2-5.1v-2.8C229.5,251.9,221,254.1,217.9,249.7Z"/><path class="cls-74" d="M219.4,259.2s-5,1.1-5.8,7.5-1.5,15.4-2,18.1-2.4,7.9,0,10.3,4.4,1,4.4,1l-.6-.7s1.7,3.7,4.7,4.6,4.2.8,7.4,4.2,6.6,3.2,8.7,2.1a9,9,0,0,0-.2,1.3c0,.4-.5,1.1,2.2,1.7s4.3-.4,4.5-1.4,2.1-10.8,2.5-12.6,1-2.6,0-8.6a99.83,99.83,0,0,0-4.4-16,4.62,4.62,0,0,1-.9,4.6c-1.9,2-8.4,2.6-9.8,2.3-2.2-.6-8.8-2.3-9.9-12a4.46,4.46,0,0,1,.5-3.1A13.35,13.35,0,0,1,219.4,259.2Z"/><path class="cls-9" d="M231.8,260.3a5.1,5.1,0,0,0,2.1,4.8s1.2.7,1.5.8a113.23,113.23,0,0,0-7.4,11.3,12,12,0,0,1-7.1-7.9s-1.6-4.1-.1-6.9c0,0,3.5,2.6,6.6,1.6s4.1-4.4,4.1-4.4Z"/><path class="cls-69" d="M220.7,262.5a14.38,14.38,0,0,0,.9,7.8s1.6,5,5.1,6.3l-1.8-1.5.3-1.1-.9.5s-4-6.9-3.2-11.5Z"/><path class="cls-9" d="M218.9,250.7a43.57,43.57,0,0,0,.5,8.5c.7,3.2,2.3,5.5,5.7,5.5,2.9,0,5.7-.9,6.4-4.5a1.29,1.29,0,0,0,1.9-.4,1.06,1.06,0,0,0,0-.6s-3.3-1.8-3.5-4.1a14.78,14.78,0,0,1,.1-3.8S222.8,254,218.9,250.7Z"/><path class="cls-75" d="M231.2,277.7a13.69,13.69,0,0,1,.6-4c2.3-7.1,6.8-6.2,6.8-6.2-.8-1.9-3.2-1.7-3.2-1.7a9.38,9.38,0,0,0-3.4,2.1c-3.4,3.2-2.1,8.3-5.3,8.5C226.6,276.6,230.4,278.1,231.2,277.7Z"/><path class="cls-69" d="M220.8,262.5a6.19,6.19,0,0,0,6.1,2,6,6,0,0,0,3.8-2.3,4.75,4.75,0,0,1-4.6,3C223,265.3,222.1,264.1,220.8,262.5Z"/><path class="cls-69" d="M231.9,263.9a5.14,5.14,0,0,0,2.8,1.7c-2.4-1.5-1.9-5.3-1.9-5.3a1,1,0,0,1-1,0c0,.3-.2-.8-.8,1.2,0,0,0,2.1-4.4,3.7A29.28,29.28,0,0,0,231.9,263.9Z"/><path class="cls-76" d="M237.1,316l-5.9,3.2-.7,10.4,1.5.6.7-10.4,4.4-2.3S237.3,316.2,237.1,316Z"/><polygon class="cls-76" points="242 313.5 241.8 315 247.5 311.8 246.2 311.2 242 313.5"/><path class="cls-77" d="M216.9,268.3a9.57,9.57,0,0,1-.4,5.7c-1.2,2.7-2.2,7.4,1.6,9.9,0,0-4.8-1.9-2.8-8.5C216.6,272.1,216.8,271.6,216.9,268.3Z"/><path class="cls-77" d="M220.7,262.5s-1.9,8.4,6.3,14.3C226.9,276.8,217.2,271.8,220.7,262.5Z"/><path class="cls-77" d="M219.6,272.2s2.6,11.6,12,12.8C231.6,285,221.4,284,219.6,272.2Z"/><path class="cls-77" d="M222,272.3s1.5,10.3,10.7,8.9c0,0-7.9.8-10.1-8.1Z"/><path class="cls-77" d="M222.8,273.5s2.8,5.2,7,5.9c0,0-4.5-.1-7.1-5.3Z"/><path class="cls-77" d="M216.9,283.3s1.5,4.9,1,7.2l-.9-4.9a58.17,58.17,0,0,1-1,8.4,3.29,3.29,0,0,0,.5,3s-.6,0-1-1a14.74,14.74,0,0,1,.3-3.5c.4-2,1.1-9,.7-9.7Z"/><path class="cls-77" d="M221.3,289.3s5.7,10,13.4,5.1C234.7,294.3,228.6,298,221.3,289.3Z"/><path class="cls-77" d="M237.1,279.4s1.4,9.7,1.5,11.4-1.9,14.6-1.9,15.8.7,2.2,2.9,2.3,2.2-.2,3-1.1c0,0-.2,1.8-3,1.5,0,0-3.1.1-3.6-1.2,0,0-.3-.5.3-2.9a126,126,0,0,0,1.9-14.3C238.2,291,236.1,279.8,237.1,279.4Z"/><path class="cls-77" d="M237.5,286.4s.5,5.7-3.4,6.8c0,0,3.4-1,3.7-5.5Z"/><path class="cls-77" d="M239,285.3s2.9,2.8,4.3-.4C243.3,284.9,242.3,289.1,239,285.3Z"/><path class="cls-77" d="M243.3,285.7s-.9,4.1-3.5,2.7c0,0,2.2.8,3.4-3.3Z"/><path class="cls-77" d="M243.7,293.5s-1.1,4.1-4.2,4.7a4.33,4.33,0,0,0,3.4-2.4s-1,4.1-3.5,4.2C239.4,300,242.9,300.1,243.7,293.5Z"/><path class="cls-77" d="M223.3,299.5a10.81,10.81,0,0,1,4,4c2.1,3.2,6.8,3.4,6.8,3.4a8.13,8.13,0,0,1-7.7-3.8c-2.8-4.5-3.5-3.7-3.5-3.7"/><path class="cls-77" d="M212.7,281.4s-.2,4.2,2.9,4.4C215.6,285.7,213.5,285.2,212.7,281.4Z"/><path class="cls-69" d="M219.4,254.6s2.6,3,8.9,2.1C228.3,256.6,221.2,258.7,219.4,254.6Z"/><path class="cls-69" d="M221.9,257.4l-.1,2.6s.5.9,2.1.7l.2-.3a2.36,2.36,0,0,1-1.9-.5C222.2,259.8,222.4,256.6,221.9,257.4Z"/><path class="cls-69" d="M236.3,312.4a7.73,7.73,0,0,0,.6,1.7c.5,1.1.1,4.2.1,4.2s-.5,2,.6,1.9c0,0-.7-.1-.3-1.9S237.8,313.5,236.3,312.4Z"/><polygon class="cls-69" points="234.2 275.2 235.6 276.6 235.4 275.6 234.2 275.2"/><path class="cls-69" d="M238.6,267.6s-6.5-.9-7.4,10.1a20.79,20.79,0,0,0,4.3-.5l-3.6-.1C231.8,277.2,231.9,268.6,238.6,267.6Z"/><polygon class="cls-69" points="222.8 264.2 223.1 265.8 223.6 265.8 223.8 264.9 222.8 264.2"/><polygon class="cls-72" points="237.1 317.1 232.3 319.7 231.7 330 232.1 319.5 237.1 316.9 237.1 317.1"/><polygon class="cls-72" points="236.8 316.6 231.8 319.5 231.2 329.9 230.8 329.6 231.5 319.3 237.1 316.3 236.8 316.6"/><polygon class="cls-72" points="242.1 313.6 246.4 311.5 246.7 311.7 241.9 314.1 242.1 313.6"/><polygon class="cls-72" points="242.1 314.3 246.9 311.8 242 314.7 242.1 314.3"/><path class="cls-78" d="M218.5,308.8s1.4,17.8,7.5,19.7A38.32,38.32,0,0,1,218.5,308.8Z"/><path class="cls-79" d="M216.3,349.3s-6.2,4.1-5.5,6.5,5.3.8,11.1-3.9c0,0-7.6,6-10.4,4.1C211.5,356.1,209.4,354.5,216.3,349.3Z"/><path class="cls-79" d="M226.9,354.9s-6.2,4.1-5.5,6.5,5.3.8,11.1-3.9c0,0-7.9,5.7-10.4,4.1C222.1,361.6,220.2,360.3,226.9,354.9Z"/><path class="cls-80" d="M338.5,401a19.41,19.41,0,0,0-1,8.4s.9,4.1,4.1,4.6c0,0-.5-6.6.5-8.3s-.5-3.9-.5-3.9Z"/><path class="cls-69" d="M338.2,401.8a3.41,3.41,0,0,0,4.1.7v.9l-1.4,1.8s.1-1-1.3-1.2a12.94,12.94,0,0,1-2-.4A18.41,18.41,0,0,1,338.2,401.8Z"/><path class="cls-81" d="M339.7,405.1a30.06,30.06,0,0,0-.1,4.5c.2.9,1.2.7,1.3-.3a10.62,10.62,0,0,1,.4-2.9,3.1,3.1,0,0,0,.6-1.3s.4.4-.5,1.9l-.2,2.3s-.1,1.2-1,1.1-1-1.3-1-2C339.2,408,339.2,404.9,339.7,405.1Z"/><path class="cls-57" d="M353.1,461.1s-3.4,3-4.9,4.6-.1,3.6,2.4,2.6a35.5,35.5,0,0,0,8.1-4.6l.3,1s.7.6.9-.6,1-4.9-.2-5.9C359.7,458.2,356.8,462.5,353.1,461.1Z"/><path class="cls-80" d="M354.4,440.9s1.2,14.4.3,17a12.85,12.85,0,0,1-2.7,4.4s-2.3,2.5.7,1.9a11.88,11.88,0,0,0,6.7-4.1c.8-1.2-.6-2.7.2-6s2.8-8.9,3-13.9Z"/><path class="cls-81" d="M354.6,443s5.2.9,7.9-.9l.3-2.1-8.4.9Z"/><path class="cls-57" d="M342.4,455.6a26.56,26.56,0,0,0-4.9,4.6c-1.3,1.8-.1,3.6,2.4,2.6a35.5,35.5,0,0,0,8.1-4.6l.3,1s.7.6.9-.6,1-4.9-.2-5.9C349,452.8,346.2,457.1,342.4,455.6Z"/><path class="cls-80" d="M343.8,435.4s1.2,14.4.3,17a12.85,12.85,0,0,1-2.7,4.4s-2.3,2.5.7,1.9a11.88,11.88,0,0,0,6.7-4.1c.8-1.2-.6-2.7.2-6s2.8-8.9,3-13.9Z"/><path class="cls-81" d="M344.1,439.9s2.9,3.2,6.7,2.1l.4-1.4-7.3-2.8Z"/><path class="cls-82" d="M343.1,402.3a6.39,6.39,0,0,0-2.5,4.3c-.3,2.8-1.9,24.2-1.9,24.2a3.44,3.44,0,0,0,.4,3.5c1.2,1.8,11,10.2,23.3,6.5,0,0,6.9-2.2,7.3-7l-2.1-22.2Z"/><path class="cls-80" d="M364.7,373.9s-4.2-1.4-6.4,4.9a9.67,9.67,0,0,0-1.3,5.5s9.9,1.5,10.6-5.2C367.6,379.2,367.1,374.7,364.7,373.9Z"/><polygon class="cls-72" points="358.8 426.1 358.1 436.5 373.4 428.3 373.6 418.2 358.8 426.1"/><path class="cls-81" d="M360.8,380.1l1.1,4.7.4-.1C362.4,384.7,362.1,381,360.8,380.1Z"/><path class="cls-83" d="M344,355.7s.7,4.1,0,6.7-.8,4.7,2.2,5.6l1.6.2s-1.5-9.8-.8-13.1C347,355.1,344.1,352.9,344,355.7Z"/><path class="cls-80" d="M362.6,414.5a6.73,6.73,0,0,0-1.3,4.2,26.86,26.86,0,0,1-.6,5.3s.1.7,1.1.3,1-1.5,1.1-2.5.2-1.5.2-1.5a17,17,0,0,1,0,4.8c-.4,2.2,1.9,1.4,3.1.4s2.7-6.2,1.5-9.9C367.6,415.5,364.2,415.9,362.6,414.5Z"/><path class="cls-81" d="M362.4,414.7s3.2,1.6,5.2.7a5.21,5.21,0,0,1,.4,2.3,2,2,0,0,0-2.2-1.1c-2.7.2-3.6.3-3.8,2.3a13.07,13.07,0,0,1-1.2,4.8s.5-4.5.4-5.4S361.6,415.1,362.4,414.7Z"/><path class="cls-83" d="M344,356a7.86,7.86,0,0,1,4.8-8.5s4-2.2,6.7-1.5,7.4,2.3,8,5.8-.8,5.5,1,9.8,4,8.7.1,12.4c0,0-4-1.4-5.1-2.3-2.1-1.9-1.6-3.5-1.8-5.4a7.89,7.89,0,0,1-2.2-5.1v-2.8C355.6,358.2,347.1,360.4,344,356Z"/><path class="cls-84" d="M345.5,365.5s-5,1.1-5.8,7.5-1.5,15.4-2,18.1-2.4,7.9,0,10.3,4.4,1,4.4,1l-.6-.7s1.7,3.7,4.7,4.6,4.2.8,7.4,4.2,6.6,3.2,8.7,2.1a9,9,0,0,0-.2,1.3c0,.4-.5,1.1,2.2,1.7s4.3-.4,4.5-1.4,2.1-10.8,2.5-12.6,1-2.6,0-8.6a99.83,99.83,0,0,0-4.4-16,4.62,4.62,0,0,1-.9,4.6c-1.9,2-8.4,2.6-9.8,2.3-2.3-.6-8.8-2.3-9.9-12a4.46,4.46,0,0,1,.5-3.1A13.35,13.35,0,0,1,345.5,365.5Z"/><path class="cls-80" d="M357.9,366.6a5.1,5.1,0,0,0,2.1,4.8s1.2.7,1.5.8a113.23,113.23,0,0,0-7.4,11.3,12,12,0,0,1-7.1-7.9s-1.6-4.1-.1-6.9c0,0,3.5,2.6,6.6,1.6s4.1-4.4,4.1-4.4Z"/><path class="cls-81" d="M346.8,368.8a14.38,14.38,0,0,0,.9,7.8s1.6,5,5.1,6.3l-1.8-1.5.3-1.1-.9.5s-4-6.9-3.2-11.5Z"/><path class="cls-80" d="M345,357.1a43.57,43.57,0,0,0,.5,8.5c.7,3.1,2.3,5.5,5.7,5.5,2.9,0,5.7-.9,6.4-4.5a1.29,1.29,0,0,0,1.9-.4,1.06,1.06,0,0,0,0-.6s-3.3-1.8-3.5-4.1a14.78,14.78,0,0,1,.1-3.8S348.9,360.3,345,357.1Z"/><path class="cls-85" d="M357.2,384.1a13.69,13.69,0,0,1,.6-4c2.3-7.1,6.8-6.2,6.8-6.2-.8-1.9-3.2-1.7-3.2-1.7a9.38,9.38,0,0,0-3.4,2.1c-3.4,3.2-2.1,8.3-5.3,8.5C352.7,382.9,356.5,384.4,357.2,384.1Z"/><path class="cls-81" d="M346.9,368.8a6.19,6.19,0,0,0,6.1,2,6,6,0,0,0,3.8-2.3,4.75,4.75,0,0,1-4.6,3C349.1,371.6,348.2,370.4,346.9,368.8Z"/><path class="cls-81" d="M358,370.2a5.14,5.14,0,0,0,2.8,1.7c-2.4-1.5-1.9-5.3-1.9-5.3a1,1,0,0,1-1,0c0,.3-.2-.8-.8,1.2,0,0,0,2.1-4.4,3.7A29.28,29.28,0,0,0,358,370.2Z"/><path class="cls-76" d="M363.2,422.3l-5.9,3.2-.7,10.4,1.5.6.7-10.4,4.4-2.3S363.4,422.6,363.2,422.3Z"/><polygon class="cls-76" points="368 419.8 367.9 421.3 373.6 418.2 372.3 417.5 368 419.8"/><path class="cls-86" d="M343,374.6a9.57,9.57,0,0,1-.4,5.7c-1.2,2.7-2.2,7.4,1.6,9.9,0,0-4.8-1.9-2.8-8.5C342.7,378.5,342.9,377.9,343,374.6Z"/><path class="cls-86" d="M346.8,368.8s-1.9,8.4,6.3,14.3C353,383.1,343.3,378.1,346.8,368.8Z"/><path class="cls-86" d="M345.7,378.5s2.6,11.6,12,12.8C357.7,391.3,347.5,390.4,345.7,378.5Z"/><path class="cls-86" d="M348.1,378.6s1.5,10.3,10.7,8.9c0,0-7.9.8-10.1-8.1Z"/><path class="cls-86" d="M348.9,379.8s2.8,5.2,7,5.9c0,0-4.5-.1-7.1-5.3Z"/><path class="cls-86" d="M343,389.6s1.5,4.9,1,7.2l-.9-4.9a58.17,58.17,0,0,1-1,8.4,3.29,3.29,0,0,0,.5,3s-.6,0-1-1a14.74,14.74,0,0,1,.3-3.5c.4-2.1,1.1-9,.7-9.7Z"/><path class="cls-86" d="M347.4,395.6s5.7,10,13.4,5.1C360.8,400.6,354.7,404.3,347.4,395.6Z"/><path class="cls-86" d="M363.1,385.7s1.4,9.7,1.5,11.4-1.9,14.6-1.9,15.8.7,2.2,2.9,2.3,2.2-.2,3-1.1c0,0-.2,1.8-3,1.5,0,0-3.1.1-3.6-1.2,0,0-.3-.5.3-2.9a126,126,0,0,0,1.9-14.3C364.3,397.3,362.2,386.2,363.1,385.7Z"/><path class="cls-86" d="M363.6,392.7s2,5.8-3.4,6.8c0,0,3.4-1,3.7-5.5Z"/><path class="cls-86" d="M365.1,391.7s2.9,2.8,4.3-.4C369.4,391.2,368.4,395.5,365.1,391.7Z"/><path class="cls-86" d="M369.4,392s-.9,4.1-3.5,2.7c0,0,2.2.8,3.4-3.3Z"/><path class="cls-86" d="M369.8,399.8s-1.1,4.1-4.2,4.7a4.33,4.33,0,0,0,3.4-2.4s-1,4.1-3.5,4.2C365.5,406.4,369,406.5,369.8,399.8Z"/><path class="cls-86" d="M349.4,405.9a10.81,10.81,0,0,1,4,4c2.1,3.2,6.8,3.4,6.8,3.4a8.13,8.13,0,0,1-7.7-3.8c-2.8-4.5-3.5-3.7-3.5-3.7"/><path class="cls-86" d="M338.8,387.7s-.2,4.2,2.9,4.4C341.7,392,339.6,391.5,338.8,387.7Z"/><path class="cls-81" d="M345.5,360.9s2.6,3,8.9,2.1C354.4,363,347.3,365,345.5,360.9Z"/><path class="cls-81" d="M348,363.7l-.1,2.6s.5.9,2.1.7l.2-.3a2.36,2.36,0,0,1-1.9-.5C348.3,366.1,348.5,363,348,363.7Z"/><path class="cls-81" d="M362.4,418.7a7.73,7.73,0,0,0,.6,1.7c.5,1.1.1,4.2.1,4.2s-.5,2,.6,1.9c0,0-.7-.1-.3-1.9S363.9,419.8,362.4,418.7Z"/><polygon class="cls-81" points="360.3 381.5 361.7 383 361.5 382 360.3 381.5"/><path class="cls-81" d="M364.7,373.9s-6.5-.9-7.4,10.1a20.79,20.79,0,0,0,4.3-.5l-3.6-.1C357.9,383.5,358,374.9,364.7,373.9Z"/><polygon class="cls-81" points="348.9 370.5 349.2 372.1 349.7 372.2 349.9 371.2 348.9 370.5"/><polygon class="cls-72" points="363.1 423.4 358.4 426 357.8 436.4 358.2 425.8 363.2 423.2 363.1 423.4"/><polygon class="cls-72" points="362.9 422.9 357.9 425.8 357.3 436.2 356.9 435.9 357.6 425.6 363.1 422.6 362.9 422.9"/><polygon class="cls-72" points="368.2 420 372.5 417.8 372.8 418 368 420.4 368.2 420"/><polygon class="cls-72" points="368.2 420.6 373 418.2 368.1 421 368.2 420.6"/><path class="cls-87" d="M344.6,415.1s1.4,17.8,7.5,19.7A37.82,37.82,0,0,1,344.6,415.1Z"/><path class="cls-58" d="M342.4,455.6s-6.2,4.1-5.5,6.5,5.3.8,11.1-3.9c0,0-7.6,6-10.4,4.1C337.6,462.4,335.5,460.9,342.4,455.6Z"/><path class="cls-58" d="M353,461.2s-6.2,4.1-5.5,6.5,5.3.8,11.1-3.9c0,0-7.9,5.7-10.4,4.1C348.2,467.9,346.3,466.6,353,461.2Z"/><g class="cls-88"><path class="cls-89" d="M265.5,551s-5.2,6.8-5.5,7.8.1,1.7,2.5,2.5,10.5-7.8,10.8-8.6-.9-3.1-.9-3.1S269,553.6,265.5,551Z"/><path class="cls-89" d="M251.9,544.7s-5.5,6.3-5.5,7.2a3.19,3.19,0,0,0,2.9,2.6c1.7.2,10-7.7,10.3-8.3s-.7-3-.7-3Z"/><path class="cls-90" d="M246.8,498.8s-.8,22.4-.8,24.4,4.6,17.2,5.2,19.8a2.21,2.21,0,0,0,1.5,2.4c1.5.5,5.9.9,7.1-3,0,0-4.2-15-4.4-18.3s.6-9.1,2.2-14.5c0,0,.9,17.7,1.6,20.3s5.5,20.3,5.5,20.3.6,3,4.8,1.9,3.3-4.1,3.3-4.1-4.2-13.7-3.5-18.9c0,0,.6-32.8.3-36,0,0-15.1-3-19.4-5.9C250.1,487.2,246.8,489,246.8,498.8Z"/><path class="cls-9" d="M242.4,485.6a10.74,10.74,0,0,0-1.2,3c-.3,1.3-.3,3.4-1,4.6,0,0-.9.8.9.9s1.6-1.3,1.6-1.3-.8,5.1,2.6,5.1l.8-.1-.3-10.7A15.84,15.84,0,0,1,242.4,485.6Z"/><path class="cls-10" d="M242.4,485.5a8,8,0,0,0,2.3,1.6v1a3.82,3.82,0,0,0-2.7-1.7Z"/><path class="cls-91" d="M256.8,513.8c-.3,0-1,.6-.9,2.3s-.3,15.1-.3,15.1a1.59,1.59,0,0,0,1.1,2.2c1.8.6,3.4,1.6,4.6.9s19.5-11.7,19.5-11.7a1.69,1.69,0,0,0,1.2-1.7c0-1.4.1-16.6.1-16.6l-5.7.4Z"/><path class="cls-92" d="M252.1,446.8s-2.5,3-2.3,9.8-.1,21.7,0,23.5.3,5.1.3,5.1,5.3,4,9.8,3.8a43.27,43.27,0,0,1-.6-11.2c.6-5.1-.5-13.8.3-17.1s4.4-9.4,5-13.2l-.4-1.4Z"/><path class="cls-93" d="M252.2,452.1c-.2.2.4,1.9,1.1,2.9a1.07,1.07,0,0,0,1.6.3l1.5-2.1-1.7-2.1A10,10,0,0,0,252.2,452.1Z"/><path class="cls-93" d="M253.3,454.7s-1.3,8.6-2.4,16.6a42.59,42.59,0,0,0,2.8,7.2s2.5-4.3,3.2-5.7c-.1-.3-2.3-17.8-2.3-17.8Z"/><path class="cls-94" d="M264,445.4s1.6,1.1-.3,5.1-4.9,9-4.6,16,.1,13.7.3,18.5c.2,4.1-.5,7.5-.1,10a27.2,27.2,0,0,1,.1,5.7,11.13,11.13,0,0,0,6.8.9s6.1-.2,9.5-4.2a27,27,0,0,0-1.3-4.6s2.7-9.3,2.9-14-1.9-13.8-2.3-17.2.3-5.4-1.3-7.8-7.4-6.3-7.4-6.3-.4-3-2.4-3.8Z"/><path class="cls-94" d="M249.5,440.8a5.51,5.51,0,0,0-5.9,5.2s0,12.5-.1,15.3-.8,15.6-.9,17.5a13.8,13.8,0,0,1-.2,2.5,7,7,0,0,0-.4,1.9,11,11,0,0,0,.2,2.2,7.19,7.19,0,0,0,2.4,1.6s-.4,6.4-.3,9.1a7,7,0,0,0,2.2,2.7c1.4.9,2.2,1.7,2.9,1.3s-.1-3,.1-5.6.4-13.8.4-19,.3-9.9,0-13.5-.4-12.5,1.8-15.1C251.9,447.1,249.5,445.5,249.5,440.8Z"/><path class="cls-95" d="M246.8,447.5c0,1.7-.1,3.3-.1,5s-.1,3.3,0,5,.2,3.3.2,5-.1,3.3-.2,5-.3,3.3-.4,5-.3,3.3-.4,5l-.5,5c-.2,1.7-.3,3.3-.6,5,0-1.7.1-3.3.2-5l.3-5c.1-1.7.2-3.3.3-5a41.54,41.54,0,0,0,.3-4.9c.1-1.7.2-3.3.3-5s-.1-3.3,0-5A66.87,66.87,0,0,1,246.8,447.5Z"/><path class="cls-96" d="M254.6,451.2a26.93,26.93,0,0,0,9.4-5.7s.6.3.7,2a36.67,36.67,0,0,1-8.3,7.1A14,14,0,0,0,254.6,451.2Z"/><path class="cls-96" d="M253.5,448s.1,2.3,1.1,3.2a13.4,13.4,0,0,1-3.6,1.7s-.1-4.5.8-6A3.4,3.4,0,0,0,253.5,448Z"/><path class="cls-95" d="M245,452.1l.9,2.9a7.37,7.37,0,0,1,.4,1.4,4.29,4.29,0,0,1,0,1.6h-.1a9.13,9.13,0,0,1-.8-1.3,6.64,6.64,0,0,1-.3-1.5c0-1.1-.2-2-.1-3.1Z"/><path class="cls-95" d="M249.6,494.3c.6-7.3.7-26,.5-28.6-.2-3.7-.7-10.9.3-15.2l1.4-3.5-1.4-2s-1.9,2.6-2.2,10.6c0,0-.7,6.2-1,7.2,0,0,2,3.2,1.7,5.2s-1.9,3.5-1.1,7.6c.6,3.1,1.4,11.2,1.7,14.6.1,1,0,5.3,0,5.3Z"/><path class="cls-9" d="M254.7,451.2a24.13,24.13,0,0,0,9.3-5.7l-.2-1.9c.5.2,1.1-.2,1.7-.6s1.1-2.4,1-4.6-1.9-1.6-1.9-1.6-.3-7.3-.2-7.7a4.22,4.22,0,0,0-1.3-3.7c-6.3-3.7-9.2.2-11.7.5s-2,4.1-2,4.1v4.9a3.78,3.78,0,0,0,.1,1.4,2.52,2.52,0,0,1,.1,1.5,8.06,8.06,0,0,0-.2,3c-.1,5.9,3.4,7,3.8,7.1S253.3,449.9,254.7,451.2Z"/><path class="cls-97" d="M248.8,424.4a2.48,2.48,0,0,0,2.6.4c1.6-.6,5.4-3.7,7.6-3s6.5,2.4,6.9,3.5a4.33,4.33,0,0,1,0,2.4s1.3.4,1.3,2.6-.2,6.6-.7,8.1c0,0-.6-2.2-2.4-1a4.14,4.14,0,0,0-1,2.8l-.1,1.6-1.6.7.2-1.7a2.39,2.39,0,0,0-.5-1.4,6.91,6.91,0,0,1-1.6-2.9,2.45,2.45,0,0,1,.8-2.5l2.3-2.2-3.6,2.1a4.63,4.63,0,0,1-4.2.1l-5.5-3.1C249.3,430.8,246.2,428.9,248.8,424.4Z"/><path class="cls-10" d="M253.5,448a7,7,0,0,0,5.6-.7,8.14,8.14,0,0,0,2.6-3.3s.4,2.2-3,3.9c-1.4.7-2.5.6-3.5,1.2-.5.3-.7,1-.6,2A5.1,5.1,0,0,1,253.5,448Z"/><path class="cls-10" d="M249.5,436.1a7.07,7.07,0,0,0,3,1.8,24.77,24.77,0,0,0,4,1.5c2.4.3,3-.3,3-.3s-.3,1.5-3,1a15,15,0,0,1-6.5-3A2.43,2.43,0,0,0,249.5,436.1Z"/><path class="cls-10" d="M263.8,443.6a1.69,1.69,0,0,1-.7-.3c-.2-.1-.4-.6-.7-.7,0,0,.2,3.9-2.1,5.8a23.63,23.63,0,0,0,3.7-3Z"/><path class="cls-91" d="M256.6,514.7l3.9,2.2a.75.75,0,0,0,.9,0l20.5-12.2a.56.56,0,0,0,0-.9l-3.8-2.1a1.27,1.27,0,0,0-1.2,0c-1.8,1-7.3,4.3-12.2,7.1-3.5,2.1-6.7,3.9-8.1,4.9A.57.57,0,0,0,256.6,514.7Z"/><path class="cls-10" d="M263.6,439.3s.8-1.6,1.7-1.1.4,3.5-.3,4.1a.94.94,0,0,1-1.6-.6s0-.7.6-.8,0,.9.5.7a2.53,2.53,0,0,0,.7-2.4c-.3-.6-.3,1.3-.4,1.5s-1,0-.7-.6C264.3,439.3,264,439.1,263.6,439.3Z"/><path class="cls-95" d="M242.4,481.6s.6,1,2.8,1.5l-.1.4C245,483.5,242.8,483.2,242.4,481.6Z"/><path class="cls-9" d="M267,498.6a15.35,15.35,0,0,0-1.7,3.9s-.8,1.8-.4,2.7.5,1.4.5,1.4l1.6-1.1s-.4-1.6.5-1.6,1.4,2.2,1.6,2.7-1.6,1.7-1.4,2.2.7,1.6,2.4.3c0,0,2.5-1.3,3.3-2.9s-.7-5.7-1.4-6.9C272,499.6,269.4,501.2,267,498.6Z"/><path class="cls-95" d="M267,456.5a14.22,14.22,0,0,0-1.3,5,10.85,10.85,0,0,0,.8,4.7,88.22,88.22,0,0,1,2,8.9,9.86,9.86,0,0,1,.3,2.4v2.4c0,1.6-.1,3.2-.2,4.8-.2,3.2-.3,6.4-.6,9.6h0a20.26,20.26,0,0,0-.6,4.2v-.1c.1.2.3.3.5.5a1.33,1.33,0,0,0,.8.3,4.67,4.67,0,0,0,1.7.3,4.19,4.19,0,0,0,1.6-.4,3,3,0,0,0,1-1.4h0c.6-2.2,1.1-4.3,1.7-6.4-.4,2.2-.9,4.4-1.3,6.5h0a4.25,4.25,0,0,1-1,1.7,3,3,0,0,1-1.8.6,6.28,6.28,0,0,1-1.9-.3,2.72,2.72,0,0,1-1.7-1.2h0v-.1a21.18,21.18,0,0,1,.5-4.4v.1c.3-3.1.3-6.4.5-9.6.1-1.6.2-3.2.2-4.8a19.22,19.22,0,0,0,0-2.4,19.67,19.67,0,0,0-.3-2.4c-.6-3.1-1.3-6.3-2.1-9.3A11.07,11.07,0,0,1,267,456.5Z"/><path class="cls-95" d="M267.7,494.3a9.38,9.38,0,0,0,1.5.6,4,4,0,0,0,1.5.3c.5,0,1,.1,1.5.1s1-.1,1.6-.1a7.14,7.14,0,0,1-1.5.8,3.22,3.22,0,0,1-1.7.1,5.78,5.78,0,0,1-1.7-.6A2.34,2.34,0,0,1,267.7,494.3Z"/><path class="cls-98" d="M250,484.5a17.89,17.89,0,0,0,9.4,4l-.2,2v1.8s-6.3-.9-9.3-3.7Z"/><path class="cls-99" d="M252.4,486.2a6.79,6.79,0,0,0,0,4.2,7.16,7.16,0,0,0,4.2,1.4l.1-3.9A15.4,15.4,0,0,1,252.4,486.2Z"/><path class="cls-100" d="M252.8,492.6l1.7,7.2,4.2,2.8-2.6-.7a12.06,12.06,0,0,1,1.5,6.3v2s.3-6.5-3.7-9.4Z"/><path class="cls-10" d="M240.2,493.3s1.1,1.2,2.3-.7a4.78,4.78,0,0,0,.5-1.3c.1-.5.2-.9.2-.9s.6.2.1,1.4a14.81,14.81,0,0,1-.8,1.7,1.94,1.94,0,0,1-2,.5s-.6-.2-.5-.5Z"/><path class="cls-101" d="M268.4,504.7l-3.3,2.3s-.8.3-.8,1.9v2.6l1.6.6,1.3-.7v-1.7s-.1-1,.3-1.4,1.1-.7,1.7-1.2A7.21,7.21,0,0,0,268.4,504.7Z"/><ellipse class="cls-102" cx="253.8" cy="481.5" rx="0.5" ry="0.7"/><path class="cls-10" d="M243.3,490.6s1.1.1,1.3-.6v.9s-.3.3-1.3.3Z"/><path class="cls-95" d="M259.3,489.5s.4-2.7.7-8.6,2.7-12.9,2.7-13.2-1.2-4-1.2-4,1.5-.1,2-.7-.5-3.7.9-7.2,2.2-5.5,1.8-8.6c0,0-.6-3-2.4-3.6l.2,1.9s2,1.1-1,6.3c0,0-4.3,6.9-4.1,14.2,0,0,.3,8,.1,10.2S259.6,487,259.3,489.5Z"/><path class="cls-103" d="M265.7,512l1.3-.7v-2.1a1.49,1.49,0,0,1,.8-1.4l1.3-1a8.74,8.74,0,0,0-.3-1.4,30.28,30.28,0,0,1-2.4,1.9C265.4,508.2,265.7,512,265.7,512Z"/><path class="cls-95" d="M264.3,459.5a9,9,0,0,0,.6,3.1l.7.9a7.57,7.57,0,0,1,.1,1.5,5.43,5.43,0,0,1-1.5-2.5,7.72,7.72,0,0,1-.2-1.5A4,4,0,0,1,264.3,459.5Z"/><path class="cls-104" d="M250,484.5s2.9,3.1,9.4,4c0,0-.3-6.2-.4-8.4s.1-10.2,0-10.9a28.77,28.77,0,0,1,1.9-13s1.4-3.3,2.5-5.2a20.69,20.69,0,0,0,1.2-3.3s-4.6,5.2-8.2,7a20.18,20.18,0,0,0,6.9-5s-3.7,5.5-4.4,10.2-.4,19.5-.4,21.6.3,6.1.3,6.1S255.3,487.6,250,484.5Z"/><path class="cls-104" d="M251.3,448.2a39.3,39.3,0,0,0-.3,4.8,3.14,3.14,0,0,0,1.2-.4,6.18,6.18,0,0,0,1,2.4s-1.3,8.5-1.6,10.5l1.3-10.3-1-1.8a7.1,7.1,0,0,1-1.4.2,51.53,51.53,0,0,0-.2,7.4,180.51,180.51,0,0,1-.4,23.7s.1-13.6.2-15.4a75.21,75.21,0,0,0-.3-8.7s-.2-7,.5-9.9A26,26,0,0,1,251.3,448.2Z"/><path class="cls-105" d="M252.5,453s1.6-.9,2.1-1.3l1,2.2a7.59,7.59,0,0,1-.9,1.5l-1.3-.5,1.3.8,1.9,16.8s-2,4.3-2.8,5.9c0,0,2.6-3.6,3.2-5.7,0,0-2.2-16.7-1.9-17.5a14.17,14.17,0,0,0,1.1-1.6,11.14,11.14,0,0,0-1.4-2.5l-2.3,1.3C252.3,452.5,252.2,452.7,252.5,453Z"/><polygon class="cls-106" points="252.8 458.1 255.1 460.5 255.3 462.8 252.4 460.5 252.8 458.1"/><polygon class="cls-106" points="252 463 255.7 466.1 256.1 468.9 251.7 465.4 252 463"/><polygon class="cls-106" points="251.3 467.8 256.4 471.7 256.5 472.6 255.8 474.2 251 470.3 251.3 467.8"/><path class="cls-106" d="M251.7,473.8l3.2,2.1-1.3,2.6A33.34,33.34,0,0,1,251.7,473.8Z"/><path class="cls-100" d="M254.1,501s-2.8-.7-3.6-2c0,0,2.5.9,3.6,1.2Z"/><path class="cls-10" d="M267,498.6s.4,1.4,3.7,1.5c0,0,1.1,0,1.4-.5a14.24,14.24,0,0,1,1.5,4.9s-1.2-2.6-2.5-3.1a5.23,5.23,0,0,1-4.4-2.4Z"/><path class="cls-10" d="M269.2,507s-.5-2.8-1.7-3.1c0,0,1.8-.8,1.7,3.3"/></g><rect class="cls-1" width="514.5" height="516.1"/></g></g></svg>