<svg xmlns="http://www.w3.org/2000/svg" xmlns:xlink="http://www.w3.org/1999/xlink" viewBox="0 0 514.5 646.7"><defs><style>.cls-1{fill:none;}.cls-2{fill:#f3f3f3;}.cls-3{fill:#31aaba;}.cls-4{fill:#010101;opacity:0.1;isolation:isolate;}.cls-5{fill:#35b7ae;}.cls-6{fill:url(#linear-gradient);}.cls-7{clip-path:url(#clip-path);}.cls-8{fill:#cd8079;}.cls-9{fill:#b16979;}.cls-10{fill:#bd6d6a;}.cls-11{fill:#606281;}.cls-12{fill:#4e506a;}.cls-13{fill:#7a93a1;}.cls-14{fill:#fccdb0;}.cls-15{fill:#e98b41;}.cls-16{fill:#cfd7b0;}.cls-17{fill:#ffddb8;}.cls-18{fill:#9ea372;}.cls-19{fill:#57585a;}.cls-20{fill:#a2b4bf;}.cls-21{fill:#516780;}.cls-22{fill:#eeb59b;}.cls-23{fill:#454043;}</style><linearGradient id="linear-gradient" x1="-350.84" y1="269.39" x2="-350.83" y2="269.34" gradientTransform="translate(56306 -23812.33) scale(160 91)" gradientUnits="userSpaceOnUse"><stop offset="0" stop-color="#fff" stop-opacity="0.1"/><stop offset="1" stop-color="#fff" stop-opacity="0"/></linearGradient><clipPath id="clip-path"><rect class="cls-1" x="226.64" y="369.46" width="80" height="119"/></clipPath></defs><title>Asset 8</title><g id="Layer_2" data-name="Layer 2"><g id="Layer_1-2" data-name="Layer 1"><path class="cls-2" d="M257.2,444.8c-50.8,0-105.5,8.2-105.5,26.3,0,4,2.8,7.5,7.6,10.6l62.3,74.8a29.88,29.88,0,0,1,6.9,18.6v58.4c0,9.1,14.9,13.2,28.8,13.2s28.8-4.1,28.8-13.2V575.1a28.76,28.76,0,0,1,6.9-18.6l5.3-6.4h30.6c7.9,0,15.1-4.5,18-11.4l5-12.3a13.61,13.61,0,0,0-1.9-13.7,17,17,0,0,0-13.4-6.4h-1.8l20.4-24.5c4.8-3.1,7.6-6.6,7.6-10.6C362.7,453.1,308,444.8,257.2,444.8Zm79.3,70.3a6.93,6.93,0,0,1,5.5,2.6,5.6,5.6,0,0,1,.8,5.7l-5,12.3a9.67,9.67,0,0,1-9,5.7H305.5l21.9-26.3Z"/><path class="cls-3" d="M257.2,454.8c61.8,0,95.5,11.9,95.5,18s-33.7,18-95.5,18-95.5-11.9-95.5-18S195.4,454.8,257.2,454.8Z"/><path class="cls-4" d="M271.6,468c37.2,0,64.2,3.2,79.8,6.7a3.43,3.43,0,0,0,1.4-2.3c0-6-33.7-17.6-95.5-17.6s-95.5,11.6-95.5,17.6c0,2.3,5,5.4,14.5,8.4C178.2,476.2,211.6,468,271.6,468Z"/><path class="cls-5" d="M284.9,551.4a38.54,38.54,0,0,0-8.9,24.1v58.6c-.6,1.3-7.3,4.7-19.3,4.7s-18.7-3.3-19.3-4.4V575.5a37.41,37.41,0,0,0-8.9-24.1l-51.8-62.6c20.7,5.7,51,8.4,80,8.4s59.3-2.7,80-8.4l-51.8,62.6Z"/><path class="cls-6" d="M276,575.3a37.41,37.41,0,0,1,8.9-24.1l51.8-62.4c-20.7,5.7-51,8.4-80,8.4s-59.3-2.7-80-8.4l99.3,91Z"/><rect class="cls-1" width="514.5" height="516.1"/><g class="cls-7"><path class="cls-8" d="M277.8,456.9l.5,10.8c3.4,0,2.6-5.1,2.6-5.1s-.2,1.4,1.6,1.3.9-.9.9-.9c-.6-1.2-.7-3.3-1-4.6a15.49,15.49,0,0,0-1.2-3A11.9,11.9,0,0,1,277.8,456.9Z"/><path class="cls-9" d="M277.5,427.5c.1,1.7-.1,3.3,0,5s.2,3.3.3,5,.2,3.2.3,4.9a41.93,41.93,0,0,1,.3,5l.3,5c.1,1.7.2,3.3.2,5-.3-1.7-.4-3.3-.6-5l-.5-5c-.2-1.7-.3-3.3-.4-5s-.3-3.3-.4-5-.2-3.3-.2-5,.2-3.3.2-5,0-3.3,0-5-.1-3.3-.1-5C277.2,420.8,277.5,424.1,277.5,427.5Z"/><path class="cls-9" d="M278.6,422.1a15.14,15.14,0,0,1-.2,3,8,8,0,0,1-.3,1.5,4.58,4.58,0,0,1-.8,1.3h-.1a4.3,4.3,0,0,1,0-1.6c.1-.4.3-1,.4-1.4l1-2.8Z"/><path class="cls-9" d="M278.5,453.3l-.1-.4c2.2-.5,2.8-1.5,2.8-1.5A2.84,2.84,0,0,1,278.5,453.3Z"/><path class="cls-10" d="M283.6,463.3c.1.3-.5.5-.5.5a2.48,2.48,0,0,1-2-.3,2.91,2.91,0,0,1-.8-1.1,2.28,2.28,0,0,1,.1-1.9,6.73,6.73,0,0,0,.1,1,5.19,5.19,0,0,0,.5,1.2c1.2,1.9,2.4.4,2.4.4Z"/><path class="cls-10" d="M280.3,461c-1,.1-1.3-.3-1.3-.3v-.9c.2.7,1.3.6,1.3.6Z"/><path class="cls-11" d="M251.1,519.5s-1.1,2.1-.8,3,8.4,9.4,10.8,8.6,2.8-1.6,2.5-2.5-5.3-7.8-5.3-7.8C254.8,523.4,251.1,519.5,251.1,519.5Z"/><path class="cls-12" d="M259.3,522.3s-4.4,2.8-8.6-1.6l.4-1.2s4.7,3.2,7.2,1.3Z"/><path class="cls-11" d="M264.7,513.1s-1,2.4-.7,3,8.5,8.4,10.3,8.3a3.31,3.31,0,0,0,2.9-2.6c0-.9-5.2-6.8-5.2-6.8Z"/><path class="cls-12" d="M272.5,515.7s-4.9,2.2-8.1-.7l.4-1.9a7.32,7.32,0,0,0,6.9,1.3Z"/><path class="cls-13" d="M273.4,457c-4.4,2.9-19.4,5.9-19.4,5.9-.3,3.1.3,36,.3,36,.7,5.2-3.5,18.9-3.5,18.9s-.9,3,3.3,4.1,4.8-1.9,4.8-1.9,4.8-17.7,5.5-20.3,1.6-20.3,1.6-20.3c1.6,5.4,2.4,11.2,2.2,14.5s-4.4,18.3-4.4,18.3c1.2,3.9,5.7,3.5,7.1,3a2.27,2.27,0,0,0,1.5-2.4c.6-2.6,5.2-17.8,5.2-19.8s-.8-24.4-.8-24.4C276.8,458.8,273.4,457,273.4,457Z"/><path class="cls-14" d="M259.3,416l-.4,1.4c.6,3.8,4.1,10,5,13.2s-.3,12,.3,17.1a42.79,42.79,0,0,1-.6,11.2c4.5.2,9.8-3.8,9.8-3.8s.3-3.2.3-5.1-.3-16.7,0-23.5-2.3-9.8-2.3-9.8Z"/><path class="cls-15" d="M268.9,421l-1.7,2.1,1.5,2.1a1.07,1.07,0,0,0,1.6-.3c.7-1,1.3-2.7,1.1-2.9A7,7,0,0,0,268.9,421Z"/><path class="cls-15" d="M269,425s-2.2,19-2.3,19.3a37.06,37.06,0,0,0,3.2,4.1,49.77,49.77,0,0,0,2.7-5.7c.2-2.6-2.4-18.1-2.4-18.1Z"/><path class="cls-16" d="M259.8,413.5c-1.9.8-2.4,3.8-2.4,3.8s-5.8,4-7.4,6.3-1,4.3-1.3,7.8-2.4,12.5-2.3,17.2,2.9,14,2.9,14a19.29,19.29,0,0,0-1.3,4.9c3.4,4,9.5,3.9,9.5,3.9a10.38,10.38,0,0,0,6.8-.9,27.2,27.2,0,0,1,.1-5.7c.4-2.5-.6-5.8,0-9.9s0-11.5.3-18.6-2.7-12.1-4.6-16-.3-5.1-.3-5.1Z"/><path class="cls-16" d="M271.4,416.4c2.3,2.7,2.5,12,2.2,15.6s0,8.4,0,13.5.3,16.5.4,19-.6,5.2.1,5.6,1.5-.4,2.9-1.3a7,7,0,0,0,2.2-2.7c.2-2.6-.3-9.1-.3-9.1.6-.2,2.3-1.1,2.4-1.6a14.67,14.67,0,0,0,.1-3.1c0-1-.3-1.6-.4-3.5s-.8-14.6-.9-17.5S280,416,280,416a5.42,5.42,0,0,0-5.9-5.2A30.75,30.75,0,0,0,271.4,416.4Z"/><path class="cls-17" d="M266.9,424.9a33.19,33.19,0,0,1-8-7.6c.1-1.7.7-2,.7-2A28.88,28.88,0,0,0,269,421,27.7,27.7,0,0,0,266.9,424.9Z"/><path class="cls-17" d="M271.5,416.7a10,10,0,0,1,1.1,6.2,17.55,17.55,0,0,1-3.6-1.7,5.8,5.8,0,0,0,1.1-3.2A4.25,4.25,0,0,0,271.5,416.7Z"/><path class="cls-8" d="M251.6,469.5c-.8,1.2-1,5.5-.6,7.1a7,7,0,0,0,3,4c1.7,1.2,2.3.2,2.4-.3s-.6-3-.7-3.6c-.2-.9-.7-3.5.3-3.4s.4,2,.6,3,1.4.7,1.6.3.1-.9.4-1.7-.5-3.1-.5-3.1c-.8-2.6-1.5-3.2-1.5-3.2A4,4,0,0,1,251.6,469.5Z"/><path class="cls-18" d="M258.1,433.7c-.2.8-.3,1.6-.5,2.4-.7,3-1.4,6.1-2,9.2a16,16,0,0,0-.3,2.3,19.22,19.22,0,0,0,0,2.4l.2,4.8c.2,3.1.3,6.4.5,9.5v-.1a21.18,21.18,0,0,1,.5,4.4v.1h0a2.3,2.3,0,0,1-1.7,1.2,6.28,6.28,0,0,1-1.9.3,3,3,0,0,1-1.8-.6,2.7,2.7,0,0,1-1-1.7h0c-.4-2.2-.9-4.4-1.3-6.5.6,2.2,1.1,4.3,1.7,6.4h0a2.81,2.81,0,0,0,1,1.4,2.73,2.73,0,0,0,1.6.4,4.67,4.67,0,0,0,1.7-.3c.3-.1.5-.2.8-.3a1.18,1.18,0,0,0,.5-.5v.1a20.26,20.26,0,0,0-.6-4.2h0c-.3-3.1-.4-6.4-.6-9.5-.1-1.6-.2-3.2-.2-4.8v-2.4q.15-1.35.3-2.4a78.26,78.26,0,0,1,1.9-9.4c1-3.5,1.7-6,1-9.2C259.2,429.3,258.2,432.9,258.1,433.7Z"/><path class="cls-18" d="M254.8,465.4a3.82,3.82,0,0,1-1.6.6,3.22,3.22,0,0,1-1.7-.1,5.48,5.48,0,0,1-1.5-.8c.5,0,1,.1,1.6.1a7.57,7.57,0,0,0,1.5-.1,7,7,0,0,0,1.4-.3,9.38,9.38,0,0,0,1.5-.6A2.76,2.76,0,0,1,254.8,465.4Z"/><path class="cls-19" d="M273.7,458.5c-3,2.9-9.3,3.7-9.3,3.7l-.3-3.8c6.3-.9,9.3-4,9.3-4Z"/><path class="cls-20" d="M267.1,457.7l.1,4.2a17.62,17.62,0,0,0,4.2-1.7c.7-2.9-.1-4.3-.1-4.3A14.74,14.74,0,0,1,267.1,457.7Z"/><path class="cls-21" d="M269.7,470.8c-3.9,2.9-3.7,9.4-3.7,9.4v-2a11.07,11.07,0,0,1,1.5-6.3l-2.6.7,4.2-2.8,1.7-7.2Z"/><ellipse class="cls-22" cx="269.8" cy="451.3" rx="0.5" ry="0.7"/><path class="cls-18" d="M263.5,453c-.1-1.1-.2-2.3-.3-3.3s-.3-2.2-.5-3.2c-.4-2.2-1-4.3-1.6-6.4l-.8-1.5-.1-.4-.1-.2v-.3l.3-.9c.3-1,.7-2.1,1-3.1l.3.5a5.27,5.27,0,0,1-1.2-.3c-.2,0-.4-.2-.6-.3a3.17,3.17,0,0,1-.5-.6,3,3,0,0,1-.1-1.3l.1-1.1a10.87,10.87,0,0,0-.5-4.4c-.5-1.4-1.1-2.9-1.5-4.4a14.24,14.24,0,0,1-.2-4.6,13.55,13.55,0,0,0,.5,4.5,29.44,29.44,0,0,0,1.7,4.3,12.06,12.06,0,0,1,.8,4.6v1.1a2.79,2.79,0,0,0,.1,1,1.44,1.44,0,0,1,.3.2c.1.1.3.1.4.2a3.55,3.55,0,0,0,1,.2h.5l-.2.5c-.3,1-.6,2.1-1,3.1-.1.2-.1.5-.2.7l.2.6.4,1.6c.6,2.1,1.1,4.3,1.5,6.4a18.41,18.41,0,0,1,.3,3.3c.1,1.1.1,2.2.2,3.3.1,2.2.2,4.4.3,6.5C263.9,457.3,263.6,455.1,263.5,453Z"/><path class="cls-8" d="M270.3,417.9c.4-.2,3.6-3.4,3.8-7.1a8.3,8.3,0,0,0-.2-3,2.57,2.57,0,0,1,.1-1.5,3.78,3.78,0,0,0,.1-1.4s.3-3.5-.7-4.4-6.8-8.8-13.1-5.1a4.22,4.22,0,0,0-1.3,3.7c.1.3-.2,7.6-.2,7.6s-1.8-.6-1.9,1.6.4,4.2,1,4.6,1.2.8,1.7.6l-.2,1.9a24.13,24.13,0,0,0,9.3,5.7A5.18,5.18,0,0,0,270.3,417.9Z"/><path class="cls-23" d="M262.9,398.8a13.68,13.68,0,0,0,9.7,2.1c1.4,0,5-2.2,2.3-6.4,0,0-1.8-2.8-5.2-.7-1.6-.6-3.5-2.3-5.7-1.7s-5.7,2.3-6.1,3.4a4.22,4.22,0,0,0,0,2.4s-1.3.4-1.3,2.6,0,6.4.4,7.8c0,0,.5-2.2,2.4-1a4.14,4.14,0,0,1,1,2.8l.1,1.6,1.6.7-.2-1.7a2.39,2.39,0,0,1,.5-1.4,4.45,4.45,0,0,0,1.3-2.4c.4-1.7-2.7-5.1-2.7-5.1C261,399,262.9,398.8,262.9,398.8Z"/><path class="cls-10" d="M269.1,421c.1-1-.1-1.7-.6-2-1-.6-2.1-.5-3.5-1.2-3.4-1.7-3-3.9-3-3.9a7.45,7.45,0,0,0,2.8,3c3.6,2,5.4,1,5.4,1A4.89,4.89,0,0,1,269.1,421Z"/><path class="cls-10" d="M273.7,407a13.94,13.94,0,0,1-6.5,3c-2.7.5-3-1-3-1s.5.5,3,.3a18,18,0,0,0,4-1.5,7.07,7.07,0,0,0,3-1.8A1.55,1.55,0,0,0,273.7,407Z"/><path class="cls-10" d="M259.6,415.4a31.91,31.91,0,0,0,3.7,3c-2.3-1.9-2.1-5.8-2.1-5.8-.3.1-.5.6-.7.7a1.69,1.69,0,0,1-.7.3Z"/><path class="cls-10" d="M259.5,409.8c.3.6-.4.8-.7.6s-.1-2.2-.4-1.5.2,2.3.7,2.4-.1-.8.5-.7.6.8.6.8a.94.94,0,0,1-1.6.6c-.7-.6-1.2-3.7-.3-4.1S260,409,260,409C259.7,409,259.3,409.2,259.5,409.8Z"/><path class="cls-18" d="M273.7,465.3s-.1-4.4,0-5.3c.3-3.4,1.1-11.5,1.7-14.6.8-4.1-.2-8.6-.5-10.6s1.5-2.3,1.6-3.9-1.4-6.1-1.4-6.1c-.3-7.9-2.4-9.9-2.4-9.9l-1.4,2,1.4,3.5c1,4.4.4,11.5.3,15.2-.2,2.6-.1,21.3.5,28.6Z"/><path class="cls-18" d="M259.8,413.5l-.2,1.8s-1.2,1.8.6,5.2a33,33,0,0,1,4.5,13.5c.3,5.4-.7,23.2-.4,25.1,0,0-.5-9.7-1.4-13.1s-2.5-8.2-2.1-8.9a18.81,18.81,0,0,0,.9-3.3s-1.6-.5-1.8-1.2.3-4.6-.7-6.7-3-7.2-1.5-10.2C257.8,415.8,258.4,414.1,259.8,413.5Z"/><path class="cls-18" d="M279.1,418.3s-.9,3.3-1.2,4.9c0,0,.7,30.9,1,33.8,0,0-1.6-16.7-1.6-33.2a36.24,36.24,0,0,0-.1-4.4l.5,2.3C277.6,421.8,278.7,419.6,279.1,418.3Z"/><path class="cls-18" d="M257.4,429.6s.8,3.5.1,5.8l-.5,1.4A55.06,55.06,0,0,1,257.4,429.6Z"/><path class="cls-21" d="M269.1,469.8l4-1.5a25.31,25.31,0,0,1-4.4,3Z"/><path class="cls-22" d="M273.2,454.8s-2.6,2.8-9.1,3.6c0,0,.7-19.1.7-20.6s.3-7.6-2.8-13.8-2.5-5.5-2.7-6.2c0,0,3.6,4.9,7.6,7.2l.6-1.4a13,13,0,0,0,1.5,1.9l-1.2-.6-.8,1.4a48.9,48.9,0,0,1-5-3.6s3,1.5,3.6,12.2a108.85,108.85,0,0,1-.7,21.3s-.1.7-.3,1.5c6.2-.5,8.7-3.9,8.7-3.9Z"/><path class="cls-10" d="M271.3,409.7s1,2.8.3,4.1c0,0-.3.4-1.3.4s-1.1-.3-1.1-.3a3.64,3.64,0,0,0,2.1-.8Z"/><path class="cls-22" d="M272.6,419.4s.9,1,.9,8.2l-.3,26.7-.6.7s.5-20.2.2-23.2-.3-8.2-.3-8.2l-1.2-.8.1-.5,1.2.6C272.6,423,273,422.1,272.6,419.4Z"/><path class="cls-10" d="M251.6,469.5s2.3,1.7,5-1c0,0,.9.6,2,5.1,0,0-1.4-4-2.3-3.2a4.89,4.89,0,0,1-5.1.5C251.1,470.9,251.1,470.1,251.6,469.5Z"/><path class="cls-10" d="M281.3,455.4a4.49,4.49,0,0,1-2.4,1.6v.8a28.52,28.52,0,0,0,2.9-1.4Z"/></g></g></g></svg>