<svg xmlns="http://www.w3.org/2000/svg" xmlns:xlink="http://www.w3.org/1999/xlink" viewBox="0 0 514.5 726.7"><defs><style>.cls-1,.cls-114{fill:none;}.cls-2{fill:#f3f3f3;}.cls-3{fill:#31aaba;}.cls-4{fill:#010101;opacity:0.1;}.cls-113,.cls-4{isolation:isolate;}.cls-5{fill:#35b7ae;}.cls-6{fill:url(#linear-gradient);}.cls-7{fill:#a5b2c7;}.cls-8{fill:#6d798b;}.cls-9{fill:#fed4af;}.cls-10{fill:#fbbd92;}.cls-11{fill:#d2d2d2;}.cls-12{fill:#ab6087;}.cls-13{fill:#28151a;}.cls-14{fill:#3cc3d9;}.cls-15{fill:#ecac67;}.cls-16{fill:#abddde;}.cls-17{fill:#eaae9d;}.cls-18{fill:#cf8885;}.cls-19{fill:#2d9fb2;}.cls-20{fill:#e9edf7;}.cls-21{fill:#884b6c;}.cls-22{fill:#454043;}.cls-23{fill:#129491;}.cls-24{fill:#acadae;}.cls-25{fill:#4e3136;}.cls-26{fill:#024e6c;}.cls-27{fill:#ca9e6f;}.cls-28{fill:#f2e094;}.cls-29{fill:#f2738e;}.cls-30{fill:#73a7be;}.cls-31{fill:#197daa;}.cls-32{fill:#f7eb98;}.cls-33{fill:#bc734f;}.cls-34{fill:#252a3d;}.cls-35{fill:#c0ccdd;}.cls-36{fill:#1f2746;}.cls-37{fill:#6d5539;}.cls-113,.cls-38{fill:#fff;}.cls-39{fill:#4e3c25;}.cls-40{fill:#f0c776;}.cls-41{fill:#da587c;}.cls-42{fill:#f7a8a7;}.cls-43{fill:#c45c7a;}.cls-44{fill:#73452c;}.cls-45{fill:#fccfb7;}.cls-46{fill:#69446b;}.cls-47{fill:#5a395d;}.cls-48{fill:#f38aaa;}.cls-49{fill:#edaa42;}.cls-50{fill:#a76f69;}.cls-51{fill:#a16443;}.cls-52{fill:#fab6a1;}.cls-53{fill:#e96997;}.cls-54{fill:#82596b;}.cls-55{fill:#9c605b;}.cls-56{fill:#fabca4;}.cls-57{fill:#f6ec49;}.cls-58{fill:#9b5e3f;}.cls-59{fill:#745d9e;}.cls-60{fill:#5d4980;}.cls-61{fill:#cd8079;}.cls-62{fill:#056772;}.cls-63{fill:#ef5b79;}.cls-64{fill:#a1d28e;}.cls-65{fill:#81b16d;}.cls-66{fill:#bd6d6a;}.cls-67{fill:#194353;}.cls-68{fill:#f28186;}.cls-69{fill:#da5a7a;}.cls-70{fill:#fabfa0;}.cls-71{fill:#1d4e5e;}.cls-72{fill:#393537;}.cls-73{fill:#fee495;}.cls-74{fill:#b16979;}.cls-75{fill:#606281;}.cls-76{fill:#4e506a;}.cls-77{fill:#7a93a1;}.cls-78{fill:#fccdb0;}.cls-79{fill:#e98b41;}.cls-80{fill:#cfd7b0;}.cls-81{fill:#ffddb8;}.cls-82{fill:#9ea372;}.cls-83{fill:#57585a;}.cls-84{fill:#a2b4bf;}.cls-85{fill:#516780;}.cls-86{fill:#eeb59b;}.cls-87{fill:#fabaa3;}.cls-88{fill:#f27385;}.cls-89{fill:#756f90;}.cls-90{fill:#e8e9f5;}.cls-91{fill:#826e74;}.cls-92{fill:#ffcd64;}.cls-93{fill:#f9e8e3;}.cls-94{fill:#dfdaed;}.cls-95{fill:#fcb238;}.cls-96{fill:#645e7b;}.cls-97{fill:#c65e6f;}.cls-98{fill:#f3b29e;}.cls-99{fill:#e3978b;}.cls-100{fill:#c8c4cc;}.cls-101{fill:#835d39;}.cls-102{fill:#f79058;}.cls-103{fill:#d4dac2;}.cls-104{fill:#e67b50;}.cls-105{fill:#b7b4bc;}.cls-106{clip-path:url(#clip-path);}.cls-107{fill:#aec3e5;}.cls-108{fill:#383958;}.cls-109{fill:#765975;}.cls-110{fill:#59425c;}.cls-111{fill:#a49ccc;}.cls-112{fill:#012f3b;}.cls-113{opacity:0.31;}.cls-114{stroke:#012f3b;stroke-miterlimit:10;stroke-width:0.44px;}.cls-115{fill:#8481be;}.cls-116{fill:#c8c5bd;}.cls-117{fill:#cadaf0;}</style><linearGradient id="linear-gradient" x1="1490.38" y1="349.39" x2="1490.39" y2="349.34" gradientTransform="translate(-238298.94 -31012.33) scale(160 91)" gradientUnits="userSpaceOnUse"><stop offset="0" stop-color="#fff" stop-opacity="0.1"/><stop offset="1" stop-color="#fff" stop-opacity="0"/></linearGradient><clipPath id="clip-path"><path class="cls-1" d="M254.7,566.7s40,0,50-.7L300,535.3,280,516l-13.3,12.7L266,548l-12,9.3Z"/></clipPath></defs><title>Asset 5</title><g id="Layer_2" data-name="Layer 2"><g id="Layer_1-2" data-name="Layer 1"><path class="cls-2" d="M248.5,524.8c-50.8,0-105.5,8.2-105.5,26.3,0,4,2.8,7.5,7.6,10.6l62.3,74.8a29.88,29.88,0,0,1,6.9,18.6v58.4c0,9.1,14.9,13.2,28.8,13.2s28.8-4.1,28.8-13.2V655.1a28.76,28.76,0,0,1,6.9-18.6l5.3-6.4h30.6c7.9,0,15.1-4.5,18-11.4l5-12.3a13.61,13.61,0,0,0-1.9-13.7,17,17,0,0,0-13.4-6.4h-1.8l20.4-24.5c4.8-3.1,7.6-6.6,7.6-10.6C354,533.1,299.3,524.8,248.5,524.8Zm79.3,70.3a6.93,6.93,0,0,1,5.5,2.6,5.6,5.6,0,0,1,.8,5.7l-5,12.3a9.67,9.67,0,0,1-9,5.7H296.8l21.9-26.3Z"/><path class="cls-3" d="M248.5,534.8c61.8,0,95.5,11.9,95.5,18s-33.7,18-95.5,18-95.5-11.9-95.5-18S186.7,534.8,248.5,534.8Z"/><path class="cls-4" d="M262.9,548c37.2,0,64.2,3.2,79.8,6.7a3.43,3.43,0,0,0,1.4-2.3c0-6-33.7-17.6-95.5-17.6s-95.5,11.6-95.5,17.6c0,2.3,5,5.4,14.5,8.4C169.5,556.2,202.9,548,262.9,548Z"/><path class="cls-5" d="M276.2,631.4a38.54,38.54,0,0,0-8.9,24.1v58.6c-.7,1.3-7.3,4.7-19.3,4.7s-18.7-3.3-19.3-4.4V655.5a37.41,37.41,0,0,0-8.9-24.1l-51.9-62.6c20.7,5.7,51,8.4,80,8.4s59.3-2.7,80-8.4l-51.7,62.6Z"/><path class="cls-6" d="M267.3,655.3a37.41,37.41,0,0,1,8.9-24.1l51.9-62.4c-20.7,5.7-51,8.4-80,8.4s-59.3-2.7-80-8.4l99.3,91Z"/><rect class="cls-1" width="514.5" height="516.1"/><path class="cls-7" d="M279.6,375.3s-.8.1-.9.5a22.08,22.08,0,0,0,0,2.6c.1.5.7.6.7.6l.2-.5Z"/><path class="cls-8" d="M279.4,375.5s-.5.2-.4.4a4,4,0,0,0,.4.3Z"/><path class="cls-9" d="M283.5,356.4l.1,24-1.8,9.8c-3.1.3-2.7-3.4-2.7-3.4s-.3.2-1.1-.3-.5-2.4-.3-4.6a4.45,4.45,0,0,1,1.7-3.1c0-.7.3-10.7.7-14.5a51.72,51.72,0,0,0-.3-8.6Z"/><path class="cls-8" d="M279.3,378.8a3.48,3.48,0,0,0,2.9.9l1.4-.3.1-2.6s-.3.8-2.2.7a2,2,0,0,1-2-1.4s-.1-.1-.2.3A4.8,4.8,0,0,0,279.3,378.8Z"/><path class="cls-10" d="M282.4,381.1s-.7,2.1-2.1,2.3a1.5,1.5,0,0,0-1,1.5l-.2,2.1s.8-.3.8-2.4c0,0,0-.5,1-.8A2.37,2.37,0,0,0,282.4,381.1Z"/><path class="cls-11" d="M306.9,443.6s1,1.7.7,2.5-8.4,9.4-10.8,8.6-2.8-1.6-2.5-2.5,5.3-7.8,5.3-7.8C303.1,447.1,306.9,443.6,306.9,443.6Z"/><path class="cls-11" d="M293.1,436.6s1,2.4.7,3-8.5,8.4-10.3,8.3a3.31,3.31,0,0,1-2.9-2.6c0-.9,5.5-7,5.5-7Z"/><path class="cls-12" d="M282.7,379.5c4.4,2.9,21.4,7.2,21.4,7.2.3,3.1-.3,36-.3,36-.7,5.2,3.5,18.9,3.5,18.9s.9,3-3.3,4.1-4.8-1.9-4.8-1.9-4.8-17.7-5.5-20.3-1.6-20.3-1.6-20.3c-1.6,5.4-2.4,11.2-2.2,14.5s4.4,18.3,4.4,18.3c-1.2,3.9-5.7,3.5-7.1,3a2.11,2.11,0,0,1-1.5-2.4c-.6-2.6-5.2-17.8-5.2-19.8s.8-24.4.8-24.4C281.3,382.6,282.8,379.5,282.7,379.5Z"/><path class="cls-13" d="M302.3,379l-2.6,6.4c-11.6,2.7-16.9-5.1-16.9-5.1a11.69,11.69,0,0,1,.3-4.4C291.5,383.2,302.3,379.1,302.3,379Z"/><path class="cls-9" d="M294.1,336.2l3.1,2s1.1,3.2.6,3.8-3.3,2.6-4.9,4.2a20.78,20.78,0,0,0-2.9,5.2l-.8-5a11.7,11.7,0,0,1,.9-5.1Z"/><path class="cls-14" d="M299.9,340.2s6.7,28,6.7,32.1A14.5,14.5,0,0,1,304,380c-14.1,7-21.2-3.7-21.2-3.7-1.1-4.6-.8-18.7-.8-18.7a4.64,4.64,0,0,1-3.5-2.4l-.2-3.3c.2-1.6,1-1.1,1-1.1s.3-8.7.3-9c.3-7.4,5.3-7.4,5.3-7.4.3,1.7,2.8,7.1,2.8,7.1l2.4,1-.9,3.2c0,.8.9,5.7.9,5.7s1.7-5.1,3.7-6,4.9-4.7,4.9-4.7c.3-.7-.3-2.7-.3-2.7a.75.75,0,0,0,.6-.3Z"/><path class="cls-15" d="M297.6,381.4c.2-.3.4-.1.4.1.2.2.3.3.3.5.2.3.3.7.5,1a10.2,10.2,0,0,0,.9,2.2,4.34,4.34,0,0,0,4,2,6.54,6.54,0,0,0,4.1-2.1,11.78,11.78,0,0,0,2.5-4h.1a9.68,9.68,0,0,1-.8,2.4,12,12,0,0,1-1.3,2.1,6,6,0,0,1-4.5,2.4,4.85,4.85,0,0,1-2.7-.5,4.36,4.36,0,0,1-1.9-1.9,5.64,5.64,0,0,1-.4-1.2c-.1-.3-.2-.8-.3-1.1s-.2-.8-.3-1.1-.2-.3-.3-.5-.1-.4-.3-.3Z"/><ellipse class="cls-16" cx="289.5" cy="358.6" rx="0.6" ry="0.9"/><path class="cls-17" d="M310.8,377.9c.4,3.1-.3,4.4-.3,4.4s.4,7.6.5,11.8c.1,4.5-1.6,5.2-1.6,5.2l-6.8,3.9c-1.1.5-3.8,1.8-4.9-.4-.6-1.2-1-14.4-.9-19.6a5.9,5.9,0,0,1,.2-2c.4-.9,6.9-4,6.9-4C305.9,375.4,310.4,374.7,310.8,377.9Z"/><path class="cls-18" d="M297.6,381.4a1.21,1.21,0,0,1,1.7,1.3c0,2,.2,3.7.9,4.5s7,3.6,10.3-5a8.18,8.18,0,0,1-4.2,5.8s-4.1,2-6.6-.9a5.72,5.72,0,0,1-.7-3.1C299.1,382,298.8,381.5,297.6,381.4Z"/><path class="cls-9" d="M303.9,366.4s0,2.4.2,7.2-1.7,18.9-1.7,18.9a3.57,3.57,0,0,0,4.5,1c-.4-2,2.8-14.6,2.8-14.6,1.6-9.6.3-13.7.3-13.7C305.3,362.7,303.9,366.4,303.9,366.4Z"/><path class="cls-19" d="M290.4,342.2l-.4-.5-.3.9a30.61,30.61,0,0,0-.6,3.8l.8,2.4c-.7-4.5.2-5.9.2-5.9Z"/><path class="cls-14" d="M298.8,339.5l-.2-1.8c1.9.8,2.4,3.8,2.4,3.8s5.8,3.9,7.4,6.3,1,4.3,1.3,7.8c.1.8.5,3.2.9,5.3.5.2,1,4.2,1,4.2s-1.1,3.5-6.8,3.1l-1.6-.3s-3.3-9.1-3.1-12.5-.1-5,1.6-6.4"/><path class="cls-9" d="M306.8,393.2c.3,1.7,1.1,5.1.7,6.8a10.05,10.05,0,0,1-3,4.6c-1.7,1.2-2.3.2-2.4-.3a25.31,25.31,0,0,1,.7-3.6c.2-.9-.2-1.9-.3-3.4-.9.1-.4,2-.6,3s-1.4.7-1.6.3a12.32,12.32,0,0,1-.3-2.2,10.18,10.18,0,0,1,.4-2.7c.7-2.6,2-3.3,2-3.3C304.7,395,306.7,393.3,306.8,393.2Z"/><path class="cls-17" d="M297.5,384.6a84.11,84.11,0,0,0-2.8-9c-.7-1.9-7.8-20.8-9.8-29.5s.3-10.6.3-10.6l.3,1.7c-1.9,4.1,5.7,26,9,33.7a92.15,92.15,0,0,1,4.3,12.5C299.3,385.2,297.8,386.4,297.5,384.6Z"/><path class="cls-19" d="M300.5,355.1a16.28,16.28,0,0,0,.8,4.4,39.55,39.55,0,0,0,1.1,3.9c.1.2,0,.2.1.4-.2.7.8,3.8,1.3,3.8.1.6-.2.6-.6.6s-1.8-5.5-2.7-8.4a18.16,18.16,0,0,1-.6-4.6,11.24,11.24,0,0,1,.8-4.5A16.26,16.26,0,0,0,300.5,355.1Z"/><path class="cls-20" d="M291.3,381.9l-.1,4.2a17.62,17.62,0,0,1-4.2-1.7c-.7-2.9.1-4.3.1-4.3C288.2,381.2,291.2,381.9,291.3,381.9Z"/><path class="cls-18" d="M297.8,380.4s1,2.2.7,2.8-1,1.2-1.6-1c0,0-.1,0-.1.5,0,0,.3,1.2,1,1.3s1.2-.8.7-2.1a5.5,5.5,0,0,1-.5-1.5l5.7-3.1V377C303.9,377,298.5,379.8,297.8,380.4Z"/><path class="cls-19" d="M285.2,345.3c5.1-2.5,4.9,6.2,4.9,6.2C289.1,344.2,285.2,345.4,285.2,345.3Z"/><polygon class="cls-19" points="288.2 341.5 286.4 345 285.3 345.3 287.7 341.4 288.2 341.5"/><path class="cls-21" d="M288.4,394.5c3.9,2.9,3.7,9.4,3.7,9.4v-2a11.07,11.07,0,0,0-1.5-6.3l2.6.7-4.2-2.8-1.7-7.2Z"/><path class="cls-9" d="M290.2,342.6c-.2-.1-2.9-.7-3.5-1.6s-3-7.2-2-8.2c.8-.9-.3-1.8-.5-2.3a3.78,3.78,0,0,1-.1-1.4s-.3-3.5.7-4.4,6.8-8.8,13.1-5.1a4.22,4.22,0,0,1,1.3,3.7c-.1.3.2,7.7.2,7.7s1.7-.6,1.9,1.6-.4,3.8-1.3,4.5c-.6.5-.9.8-1.5.8l.2,1.8"/><path class="cls-22" d="M291.9,316.8c-2.4-.9-2.6,1.4-2.6,1.4a2.07,2.07,0,0,0-2.2,1.7c-2.7.4-2.4,2.2-2.4,2.2-1.9.6-1.7,1.7-1.7,1.7-.3,2.2,1.2,2.1,1.2,2.1a1.61,1.61,0,0,0,2.3,1.3,1.67,1.67,0,0,0,2.4.8,1.75,1.75,0,0,0,2.9-.1,1.92,1.92,0,0,0,2-.8l-.7,1.3c-.7,1.7,1.6,2.7,1.6,2.7a2.19,2.19,0,0,0,1,2.5c.4.3.3.3.5,1.4a1.29,1.29,0,0,0,1.4,1l.1-1.6a4.46,4.46,0,0,1,1-2.8c1.8-1.1,2.4,1,2.4,1a2.08,2.08,0,0,0,.5-2.2,2.85,2.85,0,0,0,.3-3.1,2.2,2.2,0,0,0-.4-2.6,1.92,1.92,0,0,0-1.1-2.4,2.87,2.87,0,0,0,0-2,2.61,2.61,0,0,0-2.2-1.1,2,2,0,0,0-2.2-1.6c-.3-.3-.3-1-1.6-1.3A4,4,0,0,0,291.9,316.8Z"/><path class="cls-10" d="M285,331.7a9.87,9.87,0,0,0,5.3,2.4c2.7.5,3.8-.7,3.8-.7s-.5.5-3,.3a18,18,0,0,1-4-1.5,7.07,7.07,0,0,1-3-1.8A3.75,3.75,0,0,0,285,331.7Z"/><path class="cls-10" d="M292,346.8l4.7-5.7a24.8,24.8,0,0,0,.4-4.2c.3.1.5.6.7.7a1,1,0,0,0,1.1.2v2.1l.3.7c-.9,1.6-4,3.8-4,3.8Z"/><path class="cls-10" d="M298.8,334.2c-.3.6.5.8.7.6s.1-2.1.4-1.5-.2,2.3-.7,2.4.1-.8-.5-.7-.6.8-.6.8a.94.94,0,0,0,1.6.6c.7-.6,1.2-3.7.3-4.1s-1.7,1.1-1.7,1.1C298.6,333.3,299,333.5,298.8,334.2Z"/><path class="cls-10" d="M287.5,333.2l.3,3.9,1.2.1.4.5a2.4,2.4,0,0,1-2.4-.3V333Z"/><path class="cls-19" d="M311.4,364.1c-2.5,4.4-8.5,3.3-8.5,3.3s0,.6.4.7c6.4,1.1,8.3-2.8,8.3-2.8A7.07,7.07,0,0,0,311.4,364.1Z"/><path class="cls-19" d="M302.1,363.6l-.3-.6a4.51,4.51,0,0,0,2.5.5,9.94,9.94,0,0,0,6.2-2.7,6.12,6.12,0,0,1-1.5,1.7,5.7,5.7,0,0,1-2.2,1.1C302.8,364.6,302.1,363.6,302.1,363.6Z"/><path class="cls-19" d="M300.8,342.7c-.3,1.3-3.8,8-3.8,8s-2-3-3-4.3-3.8,4.9-3.8,4.9l1.4-3.6s.9-1.7,1.8-2.1,3.4,3.4,3.4,3.4a37.32,37.32,0,0,1,2.4-4.3c1.7-2.9,1.6-4.4,1.6-4.4A4.22,4.22,0,0,1,300.8,342.7Z"/><path class="cls-19" d="M299.2,341.1a2.84,2.84,0,0,1-.6.9l-.8.8h0l-3,2.1c-.5.3-1,.7-1.5,1a4.89,4.89,0,0,0-1.3,1.2,3.91,3.91,0,0,1,1-1.6l1.3-1.3a33,33,0,0,1,3-2.2h0l.7-.7c.2-.3.4-.5.6-.8a3.32,3.32,0,0,0,.5-2A3.36,3.36,0,0,1,299.2,341.1Z"/><path class="cls-10" d="M289.6,344.3c.2-1.4.5-1.6.5-1.6,1.3.3,2.2-.4,3.5-1.4a13.31,13.31,0,0,0,2.6-2.9c-1.6,5.3-5.9,5-5.9,5.1A1.68,1.68,0,0,0,289.6,344.3Z"/><path class="cls-19" d="M281.6,356.7c-1.1.3-3-1.6-3-1.6a4.2,4.2,0,0,0,3.5,2.4l.4-15.4C281.9,344.6,281.6,356.7,281.6,356.7Z"/><path class="cls-19" d="M281.9,353.1a3.21,3.21,0,0,1-2.5-2.4c1.4,1.8,2.7,1.6,2.7,1.6Z"/><path class="cls-19" d="M287.1,354.5a6.76,6.76,0,0,1-3.4-1.8,1.11,1.11,0,0,1-.5-1.3,6.9,6.9,0,0,0,3.7,2.4Z"/><path class="cls-19" d="M283.7,358.6a3.09,3.09,0,0,0,3.1,2C283.7,361.7,283.7,358.7,283.7,358.6Z"/><ellipse class="cls-16" cx="289.5" cy="367.2" rx="0.6" ry="0.9"/><ellipse class="cls-16" cx="288.9" cy="375.1" rx="0.6" ry="0.9"/><ellipse class="cls-16" cx="290.2" cy="352.6" rx="0.6" ry="0.9"/><path class="cls-12" d="M283.4,377.1l-.3,4.4,1.3,1.1c-.4-1,.2-4.4.2-4.4Z"/><polygon class="cls-12" points="296.3 382.3 296.4 386 295 386.2 295.1 382.3 296.3 382.3"/><path class="cls-10" d="M291.1,343.2s-.8,2.7.5,4.3l-1.5,3.7a19.11,19.11,0,0,0-.3-3.3c-.3-1.4-.3-5,.4-5.4C290.1,342.6,290.6,343.1,291.1,343.2Z"/><path class="cls-10" d="M281.4,386l-.1,4.3a.81.81,0,0,1-.8-.1s.8.4.7-1.9C280.9,386,281.2,385.4,281.4,386Z"/><path class="cls-10" d="M310.2,366.8s-1.7,1.7-6.4,1.3a75.89,75.89,0,0,1,.1,8.9s.8-6.5.6-7.3a9.46,9.46,0,0,0,4.8-.4s.8,6.2.4,8.9C309.7,378.2,310.9,371.2,310.2,366.8Z"/><path class="cls-10" d="M279.7,356.6l.2,1.2a2.52,2.52,0,0,1,1.6,2.5c-.1,1.9.8,17.2.8,17.2l.5-.1.2-.9a23.28,23.28,0,0,1-.7-4.8c0-2.1-.6-12.4-.3-14.1Z"/><path class="cls-23" d="M281.9,357.2s-.3,13.2,1,19.2a15.21,15.21,0,0,0,14.1,5.9s-10.4-.3-13.6-6.2a55.8,55.8,0,0,1-.9-6.8c-.4-5.1-.4-12-.4-15.2Z"/><path class="cls-24" d="M287.7,439.7l-3.4,4.1A12.25,12.25,0,0,0,287.7,439.7Z"/><path class="cls-24" d="M286.2,440.3l1.7.9A1.47,1.47,0,0,1,286.2,440.3Z"/><path class="cls-24" d="M285.2,441.3l1.7.9A1.44,1.44,0,0,1,285.2,441.3Z"/><path class="cls-24" d="M284,442.5l1.7.9A1.47,1.47,0,0,1,284,442.5Z"/><path class="cls-24" d="M301.2,446.3l-3.4,4.1A10.07,10.07,0,0,0,301.2,446.3Z"/><path class="cls-24" d="M299.8,447l1.7.9C301.4,447.8,300.2,448.1,299.8,447Z"/><path class="cls-24" d="M298.8,448l1.7.9A1.53,1.53,0,0,1,298.8,448Z"/><path class="cls-24" d="M297.6,449.1l1.7.9A1.44,1.44,0,0,1,297.6,449.1Z"/><path class="cls-24" d="M300.3,453.2s.5-.5-.7-1.4c-2.8-1.9-4.1-1.6-4.1-1.6s-1.8,1.8-1.2,2.9c0,0,1.6,2.2,3.8,1.4Z"/><path class="cls-24" d="M287,446.1s.2-.3-1-1.1c-2.8-1.9-4.1-1.6-4.1-1.6s-1.8,1.8-1.2,2.9c0,0,2,2.2,3.8,1.4Z"/><path class="cls-24" d="M307.6,445a40.23,40.23,0,0,1-7.8,7.8l.1.8s5.4-3.8,7.7-7.4A3.91,3.91,0,0,0,307.6,445Z"/><path class="cls-24" d="M293.8,438.7s-1.7,3-7.8,7.4l-.1.8s5.6-3.5,7.9-7.1A2.87,2.87,0,0,0,293.8,438.7Z"/><path class="cls-21" d="M288.4,394.5s-4.4-2.4-4.3-4l4.5,3.2Z"/><path class="cls-25" d="M256.7,543s-5.2,6.8-5.5,7.8.1,1.7,2.5,2.5,10.5-7.8,10.8-8.6-.9-3.1-.9-3.1S260.2,545.6,256.7,543Z"/><path class="cls-25" d="M243.2,536.7s-5.5,6.3-5.5,7.2a3.19,3.19,0,0,0,2.9,2.6c1.7.2,10-7.7,10.3-8.3s-.7-3-.7-3Z"/><path class="cls-26" d="M238,490.8s-.8,22.4-.8,24.4,4.6,17.2,5.2,19.8a2.21,2.21,0,0,0,1.5,2.4c1.5.5,5.9.9,7.1-3,0,0-4.2-15-4.4-18.3s.6-9.1,2.2-14.5c0,0,.9,17.7,1.6,20.3s5.5,20.3,5.5,20.3.6,3,4.8,1.9S264,540,264,540s-4.2-13.7-3.5-18.9c0,0,.6-32.8.3-36,0,0-15.1-3-19.4-5.9C241.4,479.2,238,481,238,490.8Z"/><path class="cls-9" d="M233.7,477.6a10.74,10.74,0,0,0-1.2,3c-.3,1.3-.3,3.4-1,4.6,0,0-.9.8.9.9s1.6-1.3,1.6-1.3-.8,5.1,2.6,5.1l.8-.1-.3-10.7C237,479,234.6,478.4,233.7,477.6Z"/><path class="cls-10" d="M233.7,477.5a8,8,0,0,0,2.3,1.6v1a3.82,3.82,0,0,0-2.7-1.7Z"/><path class="cls-27" d="M248,505.8c-.3,0-1,.6-.9,2.3s-.3,15.1-.3,15.1a1.59,1.59,0,0,0,1.1,2.2c1.8.6,3.4,1.6,4.6.9S272,514.6,272,514.6a1.69,1.69,0,0,0,1.2-1.7c0-1.4.1-16.6.1-16.6l-5.7.4Z"/><path class="cls-28" d="M243.3,438.8s-2.5,3-2.3,9.8-.1,21.7,0,23.5.3,5.1.3,5.1,5.3,4,9.8,3.8a43.27,43.27,0,0,1-.6-11.2c.6-5.1-.5-13.8.3-17.1s4.4-9.4,5-13.2l-.4-1.4Z"/><path class="cls-29" d="M243.5,444.1c-.2.2.4,1.9,1.1,2.9a1.07,1.07,0,0,0,1.6.3l1.5-2.1-1.7-2.1A10,10,0,0,0,243.5,444.1Z"/><path class="cls-29" d="M244.6,446.7s-1.3,8.6-2.4,16.6a42.59,42.59,0,0,0,2.8,7.2s2.5-4.3,3.2-5.7c-.1-.3-2.3-17.8-2.3-17.8Z"/><path class="cls-30" d="M255.3,437.4s1.6,1.1-.3,5.1-4.9,9-4.6,16,.1,13.7.3,18.5c.2,4.1-.5,7.5-.1,10a27.2,27.2,0,0,1,.1,5.7,11.13,11.13,0,0,0,6.8.9s6.1-.2,9.5-4.2a27,27,0,0,0-1.3-4.6s2.7-9.3,2.9-14-1.9-13.8-2.3-17.2.3-5.4-1.3-7.8-7.4-6.3-7.4-6.3-.4-3-2.4-3.8Z"/><path class="cls-30" d="M240.8,432.8a5.51,5.51,0,0,0-5.9,5.2s0,12.5-.1,15.3-.8,15.6-.9,17.5a13.8,13.8,0,0,1-.2,2.5,7,7,0,0,0-.4,1.9,11,11,0,0,0,.2,2.2,7.19,7.19,0,0,0,2.4,1.6s-.4,6.4-.3,9.1a7,7,0,0,0,2.2,2.7c1.4.9,2.2,1.7,2.9,1.3s-.1-3,.1-5.6.4-13.8.4-19,.3-9.9,0-13.5-.4-12.5,1.8-15.1C243.2,439.1,240.7,437.5,240.8,432.8Z"/><path class="cls-31" d="M238.1,439.5c0,1.7-.1,3.3-.1,5s-.1,3.3,0,5,.2,3.3.2,5-.1,3.3-.2,5-.3,3.3-.4,5-.3,3.3-.4,5l-.5,5c-.2,1.7-.3,3.3-.6,5,0-1.7.1-3.3.2-5l.3-5c.1-1.7.2-3.3.3-5a41.54,41.54,0,0,0,.3-4.9c.1-1.7.2-3.3.3-5s-.1-3.3,0-5A66.87,66.87,0,0,1,238.1,439.5Z"/><path class="cls-32" d="M245.9,443.2a26.93,26.93,0,0,0,9.4-5.7s.6.3.7,2a36.67,36.67,0,0,1-8.3,7.1A14,14,0,0,0,245.9,443.2Z"/><path class="cls-32" d="M244.7,440s.1,2.3,1.1,3.2a13.4,13.4,0,0,1-3.6,1.7s-.1-4.5.8-6A5.15,5.15,0,0,0,244.7,440Z"/><path class="cls-31" d="M236.3,444.1l.9,2.9a7.37,7.37,0,0,1,.4,1.4,4.29,4.29,0,0,1,0,1.6h-.1a9.13,9.13,0,0,1-.8-1.3,6.64,6.64,0,0,1-.3-1.5c0-1.1-.2-2-.1-3.1Z"/><path class="cls-31" d="M240.9,486.3c.6-7.3.7-26,.5-28.6-.2-3.7-.7-10.9.3-15.2l1.4-3.5-1.4-2s-1.9,2.6-2.2,10.6c0,0-.7,6.2-1,7.2,0,0,2,3.2,1.7,5.2s-1.9,3.5-1.1,7.6c.6,3.1,1.4,11.2,1.7,14.6.1,1,0,5.3,0,5.3Z"/><path class="cls-9" d="M245.9,443.2a24.13,24.13,0,0,0,9.3-5.7l-.2-1.9c.5.2,1.1-.2,1.7-.6s1.1-2.4,1-4.6-1.9-1.6-1.9-1.6-.3-7.3-.2-7.7a4.22,4.22,0,0,0-1.3-3.7c-6.3-3.7-9.2.2-11.7.5s-2,4.1-2,4.1v4.9a3.78,3.78,0,0,0,.1,1.4,2.52,2.52,0,0,1,.1,1.5,8.06,8.06,0,0,0-.2,3c-.1,5.9,3.4,7,3.8,7.1S244.6,441.9,245.9,443.2Z"/><path class="cls-33" d="M240.1,416.4a2.48,2.48,0,0,0,2.6.4c1.6-.6,5.4-3.7,7.6-3s6.5,2.4,6.9,3.5a4.33,4.33,0,0,1,0,2.4s1.3.4,1.3,2.6-.2,6.6-.7,8.1c0,0-.6-2.2-2.4-1a4.14,4.14,0,0,0-1,2.8l-.1,1.6-1.6.7.2-1.7a2.39,2.39,0,0,0-.5-1.4,6.91,6.91,0,0,1-1.6-2.9,2.45,2.45,0,0,1,.8-2.5l2.3-2.2-3.6,2.1a4.63,4.63,0,0,1-4.2.1l-5.5-3.1C240.5,422.8,237.5,420.9,240.1,416.4Z"/><path class="cls-10" d="M244.7,440a7,7,0,0,0,5.6-.7,8.14,8.14,0,0,0,2.6-3.3s.4,2.2-3,3.9c-1.4.7-2.5.6-3.5,1.2-.5.3-.7,1-.6,2A5.82,5.82,0,0,1,244.7,440Z"/><path class="cls-10" d="M240.8,428.1a7.07,7.07,0,0,0,3,1.8,24.77,24.77,0,0,0,4,1.5c2.4.3,3-.3,3-.3s-.3,1.5-3,1a15,15,0,0,1-6.5-3A2.43,2.43,0,0,0,240.8,428.1Z"/><path class="cls-10" d="M255.1,435.6a1.69,1.69,0,0,1-.7-.3c-.2-.1-.4-.6-.7-.7,0,0,.2,3.9-2.1,5.8a23.63,23.63,0,0,0,3.7-3Z"/><path class="cls-27" d="M247.9,506.7l3.9,2.2a.75.75,0,0,0,.9,0l20.5-12.2a.56.56,0,0,0,0-.9l-3.8-2.1a1.27,1.27,0,0,0-1.2,0c-1.8,1-7.3,4.3-12.2,7.1-3.5,2.1-6.7,3.9-8.1,4.9A.54.54,0,0,0,247.9,506.7Z"/><path class="cls-10" d="M254.8,431.3s.8-1.6,1.7-1.1.4,3.5-.3,4.1a.94.94,0,0,1-1.6-.6s0-.7.6-.8,0,.9.5.7a2.53,2.53,0,0,0,.7-2.4c-.3-.6-.3,1.3-.4,1.5s-1,0-.7-.6C255.5,431.3,255.3,431.1,254.8,431.3Z"/><path class="cls-31" d="M233.7,473.6s.6,1,2.8,1.5l-.1.4C236.3,475.5,234.1,475.2,233.7,473.6Z"/><path class="cls-9" d="M258.3,490.6a15.35,15.35,0,0,0-1.7,3.9s-.8,1.8-.4,2.7.5,1.4.5,1.4l1.6-1.1s-.4-1.6.5-1.6,1.4,2.2,1.6,2.7-1.6,1.7-1.4,2.2.7,1.6,2.4.3c0,0,2.5-1.3,3.3-2.9s-.7-5.7-1.4-6.9C263.3,491.6,260.7,493.2,258.3,490.6Z"/><path class="cls-31" d="M258.3,448.5a14.22,14.22,0,0,0-1.3,5,10.85,10.85,0,0,0,.8,4.7,88.22,88.22,0,0,1,2,8.9,9.86,9.86,0,0,1,.3,2.4v2.4c0,1.6-.1,3.2-.2,4.8-.2,3.2-.3,6.4-.6,9.6h0a20.26,20.26,0,0,0-.6,4.2v-.1c.1.2.3.3.5.5a1.33,1.33,0,0,0,.8.3,4.67,4.67,0,0,0,1.7.3,4.19,4.19,0,0,0,1.6-.4,3,3,0,0,0,1-1.4h0c.6-2.2,1.1-4.3,1.7-6.4-.4,2.2-.9,4.4-1.3,6.5h0a4.25,4.25,0,0,1-1,1.7,3,3,0,0,1-1.8.6,6.28,6.28,0,0,1-1.9-.3,2.72,2.72,0,0,1-1.7-1.2h0v-.1a21.18,21.18,0,0,1,.5-4.4v.1c.3-3.1.3-6.4.5-9.6.1-1.6.2-3.2.2-4.8a19.22,19.22,0,0,0,0-2.4,19.67,19.67,0,0,0-.3-2.4c-.6-3.1-1.3-6.3-2.1-9.3A10.72,10.72,0,0,1,258.3,448.5Z"/><path class="cls-31" d="M258.9,486.3a9.38,9.38,0,0,0,1.5.6,4,4,0,0,0,1.5.3c.5,0,1,.1,1.5.1s1-.1,1.6-.1a7.14,7.14,0,0,1-1.5.8,3.22,3.22,0,0,1-1.7.1,5.78,5.78,0,0,1-1.7-.6A2.78,2.78,0,0,1,258.9,486.3Z"/><path class="cls-34" d="M241.3,476.5a17.89,17.89,0,0,0,9.4,4l-.2,2v1.8s-6.3-.9-9.3-3.7Z"/><path class="cls-35" d="M243.7,478.2a6.79,6.79,0,0,0,0,4.2,7.16,7.16,0,0,0,4.2,1.4l.1-3.9A15.4,15.4,0,0,1,243.7,478.2Z"/><path class="cls-36" d="M244,484.6l1.7,7.2,4.2,2.8-2.6-.7a12.06,12.06,0,0,1,1.5,6.3v2s.3-6.5-3.7-9.4Z"/><path class="cls-10" d="M231.5,485.3s1.1,1.2,2.3-.7a4.78,4.78,0,0,0,.5-1.3c.1-.5.2-.9.2-.9s.6.2.1,1.4a14.81,14.81,0,0,1-.8,1.7,1.94,1.94,0,0,1-2,.5s-.6-.2-.5-.5Z"/><path class="cls-37" d="M259.6,496.7l-3.3,2.3s-.8.3-.8,1.9v2.6l1.6.6,1.3-.7v-1.7s-.1-1,.3-1.4,1.1-.7,1.7-1.2A5.42,5.42,0,0,0,259.6,496.7Z"/><ellipse class="cls-38" cx="245.1" cy="473.5" rx="0.5" ry="0.7"/><path class="cls-10" d="M234.5,482.6s1.1.1,1.3-.6v.9s-.3.3-1.3.3Z"/><path class="cls-31" d="M250.6,481.5s.4-2.7.7-8.6S254,460,254,459.7s-1.2-4-1.2-4,1.5-.1,2-.7-.5-3.7.9-7.2,2.2-5.5,1.8-8.6c0,0-.6-3-2.4-3.6l.2,1.9s2,1.1-1,6.3c0,0-4.3,6.9-4.1,14.2,0,0,.3,8,.1,10.2S250.9,479,250.6,481.5Z"/><path class="cls-39" d="M257,504l1.3-.7v-2.1a1.49,1.49,0,0,1,.8-1.4l1.3-1a8.74,8.74,0,0,0-.3-1.4,30.28,30.28,0,0,1-2.4,1.9C256.7,500.2,257,504,257,504Z"/><path class="cls-31" d="M255.5,451.5a9,9,0,0,0,.6,3.1l.7.9a7.57,7.57,0,0,1,.1,1.5,5.43,5.43,0,0,1-1.5-2.5,7.72,7.72,0,0,1-.2-1.5A8,8,0,0,1,255.5,451.5Z"/><path class="cls-40" d="M241.3,476.5s2.9,3.1,9.4,4c0,0-.3-6.2-.4-8.4s.1-10.2,0-10.9a28.77,28.77,0,0,1,1.9-13s1.4-3.3,2.5-5.2a20.69,20.69,0,0,0,1.2-3.3s-4.6,5.2-8.2,7a20.18,20.18,0,0,0,6.9-5s-3.7,5.5-4.4,10.2-.4,19.5-.4,21.6.3,6.1.3,6.1S246.6,479.6,241.3,476.5Z"/><path class="cls-40" d="M242.6,440.2a39.3,39.3,0,0,0-.3,4.8,3.14,3.14,0,0,0,1.2-.4,6.18,6.18,0,0,0,1,2.4s-1.3,8.5-1.6,10.5l1.3-10.3-1-1.8a7.1,7.1,0,0,1-1.4.2,51.53,51.53,0,0,0-.2,7.4,180.51,180.51,0,0,1-.4,23.7s.1-13.6.2-15.4a75.21,75.21,0,0,0-.3-8.7s-.2-7,.5-9.9A26,26,0,0,1,242.6,440.2Z"/><path class="cls-41" d="M243.7,445s1.6-.9,2.1-1.3l1,2.2a7.59,7.59,0,0,1-.9,1.5l-1.3-.5,1.3.8,1.9,16.8s-2,4.3-2.8,5.9c0,0,2.6-3.6,3.2-5.7,0,0-2.2-16.7-1.9-17.5a14.17,14.17,0,0,0,1.1-1.6,11.14,11.14,0,0,0-1.4-2.5l-2.3,1.3Q243.4,444.55,243.7,445Z"/><polygon class="cls-42" points="244.1 450.1 246.3 452.5 246.6 454.8 243.7 452.5 244.1 450.1"/><polygon class="cls-42" points="243.3 455 247 458.1 247.4 460.9 243 457.4 243.3 455"/><polygon class="cls-42" points="242.6 459.8 247.6 463.7 247.8 464.6 247 466.2 242.3 462.3 242.6 459.8"/><path class="cls-42" d="M243,465.8l3.2,2.1-1.3,2.6A33.34,33.34,0,0,1,243,465.8Z"/><path class="cls-36" d="M245.4,493s-2.8-.7-3.6-2c0,0,2.5.9,3.6,1.2Z"/><path class="cls-10" d="M258.3,490.6s.4,1.4,3.7,1.5c0,0,1.1,0,1.4-.5a14.24,14.24,0,0,1,1.5,4.9s-1.2-2.6-2.5-3.1A5.23,5.23,0,0,1,258,491Z"/><path class="cls-10" d="M260.5,499s-.5-2.8-1.7-3.1c0,0,1.8-.8,1.7,3.3"/><path class="cls-43" d="M147.7,446.1c-3.8,4.6-6.3,19.1-6.3,19.1,1-1.6,5.2-2.3,5.2-2.3C146.4,459.9,147.7,446.1,147.7,446.1Z"/><path class="cls-44" d="M147.8,387.8s-2.4-1.3-4,2.1-.1,10.5,1,12.7,1.7,4.2,1.7,4.2l3-2a3.73,3.73,0,0,0,1.2-2.4c1.5-1.9.8-6.2.8-6.2Z"/><path class="cls-45" d="M144.5,492.4a5.72,5.72,0,0,0-.6,2.5c0,.5.5.8.8,1.2.9,1.2,5,4.1,5,4.1a5.77,5.77,0,0,1,4.5-1.7l-3.5-5.1Z"/><path class="cls-45" d="M160.6,485.9c-.1.2-.6,1.9-.7,2.1a2.44,2.44,0,0,0,.5,2.8l5.2,4.4,4.6-1.9c-1-1.7-4.2-5.7-4.2-5.7Z"/><path class="cls-45" d="M169.4,440l1,9.7c1.6-.7,2.1-1,2.5-3.7s-.5-7.9-.5-7.9Z"/><path class="cls-46" d="M144.6,492.2c.1-7,0-8.1.5-13.7.2-1.6.4-3,.7-5.4.5-6-.9-14.4-.9-18.1,0-5.1,2-8.5,2.3-8.6,16.5-2.6,23,14.8,23.1,14.8-.3,4.9-4.1,26.3-4.1,26.3-1.1,2.3-4.5,1.1-4.5,1.1a3.18,3.18,0,0,1-1.6-3.3s.7-10.7.7-14.5a16,16,0,0,0-.8-5.7s-3.9-2.3-4.4-.3c-.2.9-.2,3.7-1,7.4-.9,4.6-2.5,10.4-2.7,13a51.38,51.38,0,0,1-1.2,8.2,4,4,0,0,1-3.5,1.1C145.8,494.2,144.6,493.2,144.6,492.2Z"/><path class="cls-47" d="M170,464.1s-5.4,3.3-9.3,4l.1,1.4s5.3.1,8.8-2.7Z"/><path class="cls-47" d="M148.1,448.9s2.5,10.8.4,20.6c0,0,3.9,1.8,6.3,1.1a51.08,51.08,0,0,0,.6-5.5C155.4,464.1,150.2,447.1,148.1,448.9Z"/><path class="cls-48" d="M141.3,448.6c-.9,1.8-2.3,10.2-2.5,14.6s3.2,5.1,3.2,5.1a13.38,13.38,0,0,1,.1-4.4c.6-6.9,5.1-14.7,5.1-14.7l1.2-7.7,1,8.5a50.54,50.54,0,0,1,.8,10,49.48,49.48,0,0,1-1.3,9.5c2.5.5,10.2-.3,16.6-2.6s7.4-4.8,7.4-4.8a44.15,44.15,0,0,0-.2-5.6c-.3-2.4-2.4-16.4-2.4-16.4,3-1.2,3.4-2.5,3.3-4.6s-1.3-10-1.6-16.2-1.6-13.7-2.9-17.3-3.9-3.3-3.9-3.3a15.44,15.44,0,0,1-1.2,4.7,31.6,31.6,0,0,1,1.7,9.8c-.9,2.9-4.4,3.2-6.4,3.3s-4.1-2.9-5.7-6.7a7.62,7.62,0,0,0-5.6-4.3c-2.8,1.4-4.4,5.3-5.8,8.8s-3.2,15-3.5,19.9C138.5,438.9,141.4,448.5,141.3,448.6Zm5-14.2s.6-7.9,2.1-10.7a6.11,6.11,0,0,1,.3,5.1A47.62,47.62,0,0,1,146.3,434.4Z"/><path class="cls-49" d="M147.8,392.2c-1.3,0-1.8-1.3-1.9-3.8s1.5-2,1.5-2Z"/><path class="cls-45" d="M164,402.8c.9,2.1,2.3,8.8,1.8,10.5s-4.4,3.7-7,3-4.6-5.2-5.7-7.5-5.1-3.6-5.1-3.6c.3-.4,1.7-1,3.1-2.2s.7-4.4.7-4.4a1.63,1.63,0,0,0,1.7.6C155.8,401.5,164,402.8,164,402.8Z"/><path class="cls-45" d="M152,384.2c-5.7,2.6-1.2,12.5-1.2,12.5-.1,2.4,1.1,3.7,1.7,3.6,0,0,4.6,5.1,7.9,5.1s4.6-2.6,5.5-8.5c.1-.5-.2-1.3-.1-1.8a10.46,10.46,0,0,0,.4-1.7,19.82,19.82,0,0,0-.7-6.4C162.6,380.2,157.7,381.6,152,384.2Z"/><path class="cls-50" d="M143,434.4l3,12.7s5.5,5.1,6.2,5.1,5.1-2.4,5.5-3.5-1.7-10.1-2.1-11.4-10-7.4-10-7.4Z"/><path class="cls-51" d="M166,384.9a6.64,6.64,0,0,0-2.2-2.7,13.44,13.44,0,0,0-6.9-3.3c-2.5-.2-8.4,2.1-9.4,4.5a22.27,22.27,0,0,0-.4,5.2c.4,2-.3,2.4.5,5.1a15.23,15.23,0,0,0,1.2,2.9,2.14,2.14,0,0,0,2.3.2,2.44,2.44,0,0,0,1.8-.8c.3.8-.6,2.2,1,3a1.22,1.22,0,0,0,1.9-.9c-.7,1.3-2.3.6-1.9-1s2-1.2,2.5-3.7,1-2.4,4.8-3.2,3.9-3.4,3.9-3.4a5.42,5.42,0,0,1,.6,1.6S167.1,387.2,166,384.9Z"/><path class="cls-52" d="M166,394.2c-2.3,1.5-5.5,2.9-6.1,2.6a9.9,9.9,0,0,1-2.4-.1c.3-.5,1.1-.3,3-.5s5.7-2.5,5.7-2.5Z"/><path class="cls-52" d="M162.1,400.1c.7.3,1.3-.2,1.1-.6a5.29,5.29,0,0,1-.4-2.6c.2-.6.4-.3.4-.3a5.06,5.06,0,0,0,.3,2.8c.6,1.7-1.8,1.7-2,.8C161.7,399.7,162.1,400.1,162.1,400.1Z"/><path class="cls-52" d="M164,405c-.8,1.2-3.2,1.4-3.2,1.4s-6.1.2-6.7-5.6a8.21,8.21,0,0,0,4.9,4.1c3.8.9,5.2-1.6,5.2-1.6l.4,1.1s2.2,8.3,1.1,9.5A24.76,24.76,0,0,0,164,405Z"/><path class="cls-53" d="M168.3,409a10.73,10.73,0,0,1,2.5,5.1c.5,3-1.1,5.9-2.6,8.2s-1.2,3.5.7,8.7a20.82,20.82,0,0,1,1.4,9c-.4-8.2-3.5-9-3.7-12.9s1-4.7,3-9-1.5-7.8-1.8-9.1a12.11,12.11,0,0,1,.3-3.9A20.6,20.6,0,0,0,168.3,409Z"/><path class="cls-53" d="M154.3,423.6c3.7,1.9,7.4-.3,7.4-.3A4.94,4.94,0,0,1,154.3,423.6Z"/><path class="cls-52" d="M171.4,447.4l-.1-1.2s.5-1.3.6-1.6.1-3.1.1-3.1C172.9,444.2,171.3,447.4,171.4,447.4Z"/><path class="cls-52" d="M152.5,402.9a3.34,3.34,0,0,1-2.6,2.3c3.5,1.3,4.4,4.4,5.7,7a12.09,12.09,0,0,0,3.8,4.2c-2.7.1-4.6-4.3-4.6-4.3a35.25,35.25,0,0,0-2.6-4.4c-.9-1.2-4.1-2.4-4.1-2.4l3.1-2.2a3.09,3.09,0,0,0,.5-3.6c1,1.1,1.8.2,1.8.2C154.3,401.7,152.9,401,152.5,402.9Z"/><path class="cls-9" d="M142.3,450.1a17.5,17.5,0,0,0-.3,6.5c.2,2,1.3,2.4,2,3.1s1.5,1.3,2.1.3c.3-.4-.1-2.5-.1-3.9a9.92,9.92,0,0,1,.3-2.6c.2.9,0,4.7,1.1,4.4s.8-1.4.9-4a15,15,0,0,0-.7-4.9C145.6,451.5,142.3,450.1,142.3,450.1Z"/><path class="cls-54" d="M165.4,493.8c-2.9-1.2-5.7-5.2-5.7-5.2a2.51,2.51,0,0,0-.3,1.5c2,2.6,6.2,6.2,9.5,7.3s3.3-.9,3.3-.9a8.3,8.3,0,0,0-2.6-4.5A4.51,4.51,0,0,0,165.4,493.8Z"/><path class="cls-54" d="M149.8,499.5c-2.9-1.2-5.7-5-5.7-5a2.21,2.21,0,0,0-.4,1.3c1,1.6,6.3,6.1,9.6,7.2s3.3-.9,3.3-.9a7.41,7.41,0,0,0-2.6-4.3A4.39,4.39,0,0,0,149.8,499.5Z"/><path class="cls-48" d="M138.8,435c-.3,2.9,2,10.7,2,10.7l1.1,4.3a4.64,4.64,0,0,0,5.5-1.3c-1.4-5.2-1-19.4-1-19.4Z"/><polygon class="cls-55" points="152.7 438.7 146.4 433.9 146.3 434.4 152.4 438.9 151.8 452 152.2 452.2 152.6 439 152.7 438.7"/><path class="cls-55" d="M152.4,436.7l-5.7-4.3A16,16,0,0,0,152.4,436.7Z"/><path class="cls-55" d="M153.8,441.2c-.2-1.6-1.5-13.8-1.5-13.8-.9-15.5-2.4-17.2-2.4-17.2a3.94,3.94,0,0,0-4.4-2.6,2.32,2.32,0,0,1,1.7-1.6c3.3-.8,5,4.9,4.9,4.5,1.7,4.2,3.2,30.5,3.2,30.5C155.3,442.7,154,442.7,153.8,441.2Z"/><path class="cls-53" d="M148.4,421.6l.3-1.1c1.2-.7,2.3-3.4,2.3-3.4A5.63,5.63,0,0,1,148.4,421.6Z"/><path class="cls-53" d="M148.5,419.3c-1.5,3-2.6,11.2-3,14.8s1.9,14.5,1.9,14.5c-.8,2.1-5.5,1.3-5.5,1.3,5.1,1.8,6.2-1,6.2-1s-1.4-9.4-1.8-11.8,1.3-13.8,3.1-17.8.9-6.5.9-6.5A18.32,18.32,0,0,1,148.5,419.3Z"/><polygon class="cls-56" points="163.5 415.7 162.6 413.5 162.7 416 163.5 415.7"/><path class="cls-56" d="M151.4,396.8s-.2,2.1.5,2.3,1.2-.5.9-.8-.9-.6-.3-1.5S151.4,396.8,151.4,396.8Z"/><path class="cls-55" d="M152.4,438.9l1-1.4,2.2-.2s2.7,9.9,2,11.7a17,17,0,0,1-5.4,3.3l-.2-.8s3.5-.9,5.3-3.1a57.1,57.1,0,0,0-1.9-10.7l-1.6.1-1.4,1.7"/><path class="cls-57" d="M162.8,405.9s1.1,3.3,0,4.5-3,1.6-6-1.4a51.19,51.19,0,0,0-6.1-5.3s-.2-1.2,1.1,0,6.6,6.6,7.9,6.9,4,.7,2.5-4.5Z"/><circle class="cls-57" cx="161.8" cy="411.2" r="0.7"/><circle class="cls-57" cx="152.6" cy="399.9" r="0.5"/><path class="cls-52" d="M146.4,452.7a20,20,0,0,1-.4,2.6,16.86,16.86,0,0,0,.3,4.5s-.1-5,.3-5.5v1.6C146.5,455.9,147.3,453.7,146.4,452.7Z"/><path class="cls-52" d="M147.8,449.4s-.9,1.8-5.5.7a13.25,13.25,0,0,0-.4,5.2s.5-3.8,2-3.6,4-1.6,4.3.8l.2,1.6A10.64,10.64,0,0,0,147.8,449.4Z"/><path class="cls-52" d="M172.6,438.8a7.68,7.68,0,0,1-2.2,1.2l.4,2.6s1-2.2,1.6-1.4a4.9,4.9,0,0,1,.7,2.6A26.9,26.9,0,0,0,172.6,438.8Z"/><path class="cls-52" d="M166.1,487.5s-.5,2-4.1,1.2c0,0-1.5-.5-1.7-1.7a11.32,11.32,0,0,0-.6,1.6s.2-.8.9-.2a4.8,4.8,0,0,0,6.3.3Z"/><path class="cls-52" d="M150.8,493.4s-2.4,2.3-4.9.5c0,0-1.3-.7-1.3-1.5s-.4,1-.4,1a6.31,6.31,0,0,0,7.5,1.6Z"/><path class="cls-53" d="M169,406.5l-.9,2.8.7.9A25.11,25.11,0,0,0,169,406.5Z"/><path class="cls-51" d="M150.9,396.8a3.64,3.64,0,0,0,.8,3,6,6,0,0,1,.3,1.1s-1.8.7-4-6.3Z"/><path class="cls-58" d="M164.9,384.3a3.85,3.85,0,0,1-2.2,5.3C162.6,389.6,165.5,387.7,164.9,384.3Z"/><path class="cls-58" d="M153.8,393.9s-.4,3-3,2.7A4.81,4.81,0,0,0,153.8,393.9Z"/><path class="cls-10" d="M226.6,272.6s-.9,3.4-.2,4a1.49,1.49,0,0,0,1.6.3S226.3,277.2,226.6,272.6Z"/><path class="cls-59" d="M128.5,397.1s3.8,1.9,5.9,3.3c0,0,1.3.6,1,1.7,0,0-.3,2.1-3.2,1.7-1.3-.2-3.3-.1-7.8-3.4a3,3,0,0,1-1.6-2.4c0-1.6,3.7-1.8,5.7-.9"/><path class="cls-60" d="M124.1,400.2s4.4,4,9.2,3.7c0,0-6.4-1.4-7.5-3.6-.8-1.2.2-1.6.2-1.6l-1-.9-.7-.2-.5.2A4.59,4.59,0,0,0,124.1,400.2Z"/><path class="cls-59" d="M119.2,397.9l-.1.7s-.8,7.2.1,9a2.83,2.83,0,0,0,2.9,1.7c.8,0,3.1-1.4,2.5-6a48.72,48.72,0,0,0-.9-5.6Z"/><path class="cls-60" d="M119.2,398.8a5.35,5.35,0,0,0,4.7-.5l.3,1.2s-.3,2.3-5.1.6Z"/><path class="cls-61" d="M120.2,398.6a17.21,17.21,0,0,0,0,4c.3,1,1.7,2.5,2.7.4.8-1.7-.2-5.3-.2-5.3Z"/><path class="cls-61" d="M127.7,396.1s.3.9,2.2,1.9c1.2.6,2,1.3,2,2.1s-3.6,1-7-2.4Z"/><path class="cls-62" d="M124,397.6s2.8,1.2,3.7-1.5c0,0,.3-14.1,2.5-24.3s4.6-25.9,4.4-27.4l-11.5,4.3Z"/><path class="cls-61" d="M140.7,327.5a2.78,2.78,0,0,0,1.5.8,4.94,4.94,0,0,1,3,1.6c.9,1,1.1,1.7,2,2.2s.7.9.3,1.3-2.1.1-2.7-1.4a7.09,7.09,0,0,0,1.1,2.4c.7.8,1.7,2.4,1.2,3.4s-2.1,1.1-3.9.5-4.5-1.9-5.3-5.9a3.3,3.3,0,0,0-.8-2C137,330.5,137.2,327.8,140.7,327.5Z"/><path class="cls-62" d="M110.4,348.1s3.5,25,7.9,48.2c0,0,.1,2.6,2,2.8,2.6.3,4.4-1.2,4.2-2.6,0,0-.4-35.7,1.2-46.7C125.7,349.9,118.8,340.6,110.4,348.1Z"/><path class="cls-63" d="M112.2,313l-2.7,26.7a1.86,1.86,0,0,0-1.6,1.9s3.2-26,2.4-30.7Z"/><path class="cls-64" d="M140.8,326.8s-3.3-8.4-4.1-10.2-.7-8.2-.7-8.2c-1-15.9-6.1-15.9-6.1-15.9-.5,2.5-3.6,4.9-3.6,4.9,4.4,7.3,1,9.8,1,9.8.5,1.7-.3,6.4-.3,6.4-.7-3.9-2.1-5.1-2.1-5.1-3.1,0-4.9-3.7-4.9-3.7-2.7-5.1-5.1-6.1-5.1-6.1a12.79,12.79,0,0,0-4.9,2.5c-4.9,5-6.5,20.9-6.4,24.2s4.3,10.3,4.3,10.3a12.57,12.57,0,0,0-.1,6.4l11.2,9.6a18.63,18.63,0,0,0,16.8-6.4l.3-3.4a20.62,20.62,0,0,0-.4-5.3c-.6-2.9-3-12.9-3-12.9l4.3,7.2c.7-3.1,4.1-3.2,4.1-3.2A4,4,0,0,0,140.8,326.8Zm-28.4-1.2-1.1,3.1-1.3-5.4a53.67,53.67,0,0,1,1.8-5.5A13.6,13.6,0,0,1,112.4,325.6Z"/><path class="cls-61" d="M117.7,294.1s.6,2.7-2.4,4.8a33.86,33.86,0,0,1,5,6.4c2.8,4.4,4.7,3.3,4.7,3.3l2.1,5.1.5-6.4s3-2.3-1.3-9.8A11.19,11.19,0,0,1,117.7,294.1Z"/><path class="cls-61" d="M115.5,291.2s-2,5.3,2.2,3.1c0,0,4,5.3,9.4,3.1,0,0,2.6-1.1,3.3-7.6,0,0,1.4-8.6-.6-10.5,0,0-10.9-7-13.9-.3A14.55,14.55,0,0,0,115.5,291.2Z"/><path class="cls-22" d="M117.1,273.8s-7,.7-7,10.9A21.86,21.86,0,0,1,109,290c-.9,2.4-.7,7.8,7.6,7.8a3.48,3.48,0,0,0,1.1-3.7s-1.7.7-1.7-1.7a15.33,15.33,0,0,0,3.2-2.9c.6-.3,1.6-.6,2.4-4,0,0,6.2.9,8.3-4.1a26,26,0,0,1,.4,5.7c0,.3-.6,1.6-.6,2-.1,1.2.5,2.1.2,3.3,0,0,2,1,2.2-5.1s-1.6-7.4-3.5-10C128.6,277,123.2,270.5,117.1,273.8Z"/><path class="cls-65" d="M118.3,319.7s4.5.5,7.1-1.7C125.3,318.1,123.6,321.2,118.3,319.7Z"/><path class="cls-66" d="M127.6,307.3c1.5-4-1.6-8.7-1.6-8.7-1.3,0-2.4-.1-2.4-.1a8.26,8.26,0,0,1-3.3-1.3c-2.5-1.7-2.4-3-2.4-3.8,0,0,2.5,4,6.2,4.3a8.52,8.52,0,0,0,2.3,0c0-.1,4.2,6.4,1.2,9.6"/><path class="cls-66" d="M130.3,287.1s-4.7,3.7-8,2.6c0,0,1,1.8,5.1-.3l2.6-1.6Z"/><path class="cls-62" d="M111.8,325a10.16,10.16,0,0,0,1.8,2.4c1.4,1.5,6,2.4,8.9,1.5a27,27,0,0,1-.9-7.8c.1-1.8.2-3.5.2-4.8a22.6,22.6,0,0,0-1-9.2s-.6,0-2.5-3.5c-2-3.7-2.9-4.6-4.2-4.9,0,0-2.3.5-2.9,1.5,0,0,4.5,1.9,4.4,8.9-.1,7.3-3.7,9.3-3.7,9.3a8,8,0,0,0,.3,2.5C112.8,322.6,111.9,322.6,111.8,325Z"/><path class="cls-63" d="M110.1,301.1s4.2-.8,5.7,10.4l1.6,27.4.7,4.5,1.1.8s-1-9.6-1.2-16.2-.8-18.8-1.5-21.1-1.6-5.4-5.1-6.8A1.14,1.14,0,0,0,110.1,301.1Z"/><path class="cls-65" d="M114,308.2a18.94,18.94,0,0,1-2.2,9.6S115.9,312,114,308.2Z"/><path class="cls-65" d="M113.8,313.2a3.57,3.57,0,0,0,1.3-2.2,3.06,3.06,0,0,1-1.5,3.1Z"/><path class="cls-62" d="M127.4,297.2s3.7,5.1,2.9,19.1c0,0,0,4.3-.3,7a17.26,17.26,0,0,0,.2,5,5,5,0,0,0,3.3-2,4.3,4.3,0,0,1,.7-.7s-.6-11.6-.3-12.6a9,9,0,0,0,.9-3.9c-.2-1.7-2.3-4.5-3.3-7.4s-2.6-6.5-2.6-6.5A4.15,4.15,0,0,1,127.4,297.2Z"/><path class="cls-22" d="M120.9,287.3s-1.7,5.1-4.9,5Z"/><path class="cls-67" d="M133.9,313a9.7,9.7,0,0,1-2.6,2.7,5.88,5.88,0,0,0,2.6-1.8Z"/><polygon class="cls-65" points="124.7 308.6 127.1 313.6 127.9 307 127.6 307.3 127 312.6 125 308.5 124.7 308.6"/><path class="cls-63" d="M108.1,335.9l1.1,1.5-.1,2.2s-1.2.4-1.2,1.2A23,23,0,0,1,108.1,335.9Z"/><path class="cls-65" d="M111.3,328.7l2.8,6.7,1.3,1.8a7,7,0,0,1-4.4,3s-2.2-3.4-3-4.6l3.1,4a6.35,6.35,0,0,0,3.6-2.3l-1-1.7a8.07,8.07,0,0,1-4.1,1.9,31.8,31.8,0,0,0,3.9-2.1C113.6,335.4,111.4,330.8,111.3,328.7Z"/><path class="cls-63" d="M107.7,342s-.1,6.6.9,8.5c0,0,1.2,1.9,6.7,3.9a6.91,6.91,0,0,0,3.1.7,2.46,2.46,0,0,0,2.1-1.8s0-6.2-.3-6.9c0,0-.3-.9-2-1.2S107.6,339.3,107.7,342Z"/><path class="cls-68" d="M109.4,339.5s-1.6-.1-1.7,2.1a12.47,12.47,0,0,0,.7,4.3s2.6,2.8,4.6,3.6,4.3,1.2,5.2.5a3,3,0,0,0,.2-1.4,1,1,0,0,1,.8-.9s.9-.1.9-.6l.1-.7C120.2,346.3,111.6,340.4,109.4,339.5Z"/><path class="cls-69" d="M108.1,341.8s9.1,5.8,10.3,6.2A48.7,48.7,0,0,1,108.1,341.8Z"/><ellipse class="cls-70" cx="112.52" cy="346.94" rx="0.6" ry="0.8" transform="translate(-117.45 63.84) rotate(-21.12)"/><path class="cls-69" d="M107.8,345.2a12.43,12.43,0,0,0,10.3,5s-.1-2,1.2-2.5a3.09,3.09,0,0,0-.9,2.7A12.16,12.16,0,0,1,107.8,345.2Z"/><path class="cls-62" d="M125.9,351.2s-.1,16.8-1.2,24.1c0,0,.1,4.1.1,7.2s-.4,15-.4,15l-.3.5s.4-13.1.1-15.6a62,62,0,0,1-.1-7.3c.1-1.1.9-22.2,1.1-23.7Z"/><path class="cls-65" d="M139.9,325.5a4.15,4.15,0,0,0-3.9,3.3C136,328.9,136,325,139.9,325.5Z"/><path class="cls-61" d="M115.1,337.6a2.51,2.51,0,0,0,1.7.8c1,0,1.8.9,2.5,2s1.2,1.3,1.3,1.7-.2.9-1.3.5a11.08,11.08,0,0,1-1.9-.9,6.67,6.67,0,0,1,1.5,2.1c.5,1.2,1.7,1.1,2.1,2a1,1,0,0,1-1.1,1.3,5,5,0,0,1-2.7.4s-3.1-.7-4.7-4.9a14.2,14.2,0,0,0-.9-2.6A8.18,8.18,0,0,0,115.1,337.6Z"/><path class="cls-71" d="M134.4,346.8s-3.8,4.8-13.8,4.9v1.7a24.55,24.55,0,0,0,13.6-5Z"/><path class="cls-66" d="M127.8,289.7s.7,2.8.1,4.4a1.13,1.13,0,0,1-1.2.6s1-.3,1.1-2.1a5.34,5.34,0,0,0-.4-2.7Z"/><path class="cls-72" d="M116,292.3s0,2.3,1.8,1.7c0,0,.5,2.4-1.1,3.7a10,10,0,0,1-3.6-.4s4.3.7,4.1-1.8l-.1-.9C117,294.6,115.7,294.5,116,292.3Z"/><circle class="cls-73" cx="117.1" cy="293.7" r="0.5"/><path class="cls-73" d="M117.6,295a.5.5,0,0,1-1,0c0-.3.2-.9.5-.9S117.6,294.8,117.6,295Z"/><path class="cls-66" d="M117.8,294.1s.9,2.5-2.4,4.8a36.3,36.3,0,0,1,3.5,4.2s-2.2-3.3-1.3-4.4a8.2,8.2,0,0,0,1.3-2.9Z"/><path class="cls-66" d="M118.8,303.1s3.5,6.3,6.1,5.4l2,4.1.6-5.3-.8,3.7a11.29,11.29,0,0,0-1-3.7l.3,3-1.1-2.2s-2.6.9-7.2-6.8Z"/><polygon class="cls-66" points="125.7 298.2 125.4 300.6 126.1 299.6 125.9 298.1 125.7 298.2"/><path class="cls-73" d="M116.6,297.8s3.8,6,8.5,6c0,0,2.2.1.9-4.6,0,0,2.2,4.4-.4,5.1C125.5,304.3,121.2,305.9,116.6,297.8Z"/><path class="cls-73" d="M124.9,304.3s1.2,1.2,1.3-.4Z"/><polygon class="cls-65" points="124.6 318.9 121.6 322 121.7 319.9 124.6 318.9"/><path class="cls-65" d="M112.6,316.4l.2,1.4-.8.6-.2-.6A4.49,4.49,0,0,0,112.6,316.4Z"/><path class="cls-65" d="M103.7,326s2.6,8.1,5.8,11.9l2.3-.9-2,.5A50.2,50.2,0,0,1,103.7,326Z"/><path class="cls-65" d="M110,323.5a3,3,0,0,0-2.1-2.1C107.9,321.5,110.5,321,110,323.5Z"/><path class="cls-65" d="M128.3,315.4l-2.4,5.7S127.6,319.5,128.3,315.4Z"/><ellipse class="cls-62" cx="124.67" cy="309.54" rx="0.6" ry="0.3" transform="translate(-150.35 120.54) rotate(-33.56)"/><ellipse class="cls-62" cx="127.36" cy="314.18" rx="0.6" ry="0.3" transform="translate(-153.66 124.56) rotate(-33.92)"/><path class="cls-71" d="M125.9,351.2s-.7,18.1-1.4,24.8c0,0-.2,20.1-.4,21.1,0,0-1.8,3.2-5.4.7a2.39,2.39,0,0,0,3,1.4,3,3,0,0,0,2.8-1.7l.4-21.8,3.2-25Z"/><path class="cls-66" d="M117.4,341s-.1.2.4.8,1.1,2.1,1.6,2.7,2.1.5,1.7,1.8c0,0,.4-.6-1.6-1.4C118.1,344.1,117.9,342.2,117.4,341Z"/><path class="cls-66" d="M144.7,332a1.29,1.29,0,0,0-1.8-.7,3.13,3.13,0,0,1-2.6-.3s.4,1.2,2.4.9A1.73,1.73,0,0,1,144.7,332Z"/><path class="cls-66" d="M140.7,327.5s-2.9.6-3.6,3a4.12,4.12,0,0,1,.8,2c.3,1.4,1.4,4.5,4.5,5.6a8.45,8.45,0,0,1-4.1-6.1c-.6-4.3,3.6-3.7,3.6-3.7Z"/><path class="cls-66" d="M144.2,333.8l-2.8,2A3.63,3.63,0,0,1,144.2,333.8Z"/><polygon class="cls-67" points="121.7 319.9 118.1 321.3 119 322.4 119 323.7 121.6 322 121.7 319.9"/><path class="cls-66" d="M120.1,400.4a5.68,5.68,0,0,0,3.1,0l-.2-1.5s-.7.5-2.8.3Z"/><path class="cls-66" d="M115.1,337.6a6,6,0,0,1-3.5,2.4,24.15,24.15,0,0,1,.9,2.6,8.48,8.48,0,0,0,2.4,3.5s-2.6-3.4-2-4.9a3.5,3.5,0,0,1,3-2,11.05,11.05,0,0,0,1.8-.2A24.1,24.1,0,0,0,115.1,337.6Z"/><path class="cls-66" d="M124.9,397.9l1,.9s3-.5,1.7-2.7C127.7,396.1,127.2,397.9,124.9,397.9Z"/><path class="cls-61" d="M371,329.3l.5,10.8c3.4,0,2.6-5.1,2.6-5.1s-.2,1.4,1.6,1.3.9-.9.9-.9c-.6-1.2-.7-3.3-1-4.6a15.49,15.49,0,0,0-1.2-3A10.83,10.83,0,0,1,371,329.3Z"/><path class="cls-74" d="M370.7,299.9c.1,1.7-.1,3.3,0,5s.2,3.3.3,5,.2,3.2.3,4.9a41.93,41.93,0,0,1,.3,5l.3,5c.1,1.7.2,3.3.2,5-.3-1.7-.4-3.3-.6-5l-.5-5c-.2-1.7-.3-3.3-.4-5s-.3-3.3-.4-5-.2-3.3-.2-5,.2-3.3.2-5,0-3.3,0-5-.1-3.3-.1-5A85.53,85.53,0,0,1,370.7,299.9Z"/><path class="cls-74" d="M371.8,294.5a15.14,15.14,0,0,1-.2,3,8,8,0,0,1-.3,1.5,4.58,4.58,0,0,1-.8,1.3h-.1a4.3,4.3,0,0,1,0-1.6c.1-.4.3-1,.4-1.4l1-2.8Z"/><path class="cls-74" d="M371.7,325.7l-.1-.4c2.2-.5,2.8-1.5,2.8-1.5A2.84,2.84,0,0,1,371.7,325.7Z"/><path class="cls-66" d="M376.8,335.7c.1.3-.5.5-.5.5a2.48,2.48,0,0,1-2-.3,2.91,2.91,0,0,1-.8-1.1,2.28,2.28,0,0,1,.1-1.9,6.73,6.73,0,0,0,.1,1,5.19,5.19,0,0,0,.5,1.2c1.2,1.9,2.4.4,2.4.4Z"/><path class="cls-66" d="M373.6,333.4c-1,.1-1.3-.3-1.3-.3v-.9c.2.7,1.3.6,1.3.6Z"/><path class="cls-75" d="M344.3,391.9s-1.1,2.1-.8,3,8.4,9.4,10.8,8.6,2.8-1.6,2.5-2.5-5.3-7.8-5.3-7.8C348,395.8,344.3,391.9,344.3,391.9Z"/><path class="cls-76" d="M352.5,394.7s-4.4,2.8-8.6-1.6l.4-1.2s4.7,3.2,7.2,1.3Z"/><path class="cls-75" d="M358,385.5s-1,2.4-.7,3,8.5,8.4,10.3,8.3a3.31,3.31,0,0,0,2.9-2.6c0-.9-5.2-6.8-5.2-6.8Z"/><path class="cls-76" d="M365.7,388.1s-4.9,2.2-8.1-.7l.4-1.9a7.32,7.32,0,0,0,6.9,1.3Z"/><path class="cls-77" d="M366.7,329.4c-4.4,2.9-19.4,5.9-19.4,5.9-.3,3.1.3,36,.3,36,.7,5.2-3.5,18.9-3.5,18.9s-.9,3,3.3,4.1,4.8-1.9,4.8-1.9,4.8-17.7,5.5-20.3,1.6-20.3,1.6-20.3c1.6,5.4,2.4,11.2,2.2,14.5s-4.4,18.3-4.4,18.3c1.2,3.9,5.7,3.5,7.1,3a2.11,2.11,0,0,0,1.5-2.4c.6-2.6,5.2-17.8,5.2-19.8s-.8-24.4-.8-24.4C370.1,331.2,366.7,329.4,366.7,329.4Z"/><path class="cls-78" d="M352.6,288.4l-.4,1.4c.6,3.8,4.1,10,5,13.2s-.3,12,.3,17.1a42.79,42.79,0,0,1-.6,11.2c4.5.2,9.8-3.8,9.8-3.8s.3-3.2.3-5.1-.3-16.7,0-23.5-2.3-9.8-2.3-9.8Z"/><path class="cls-79" d="M362.1,293.4l-1.7,2.1,1.5,2.1a1.07,1.07,0,0,0,1.6-.3c.7-1,1.3-2.7,1.1-2.9A7,7,0,0,0,362.1,293.4Z"/><path class="cls-79" d="M362.2,297.4s-2.2,19-2.3,19.3a37.06,37.06,0,0,0,3.2,4.1,49.77,49.77,0,0,0,2.7-5.7c.2-2.6-2.4-18.1-2.4-18.1Z"/><path class="cls-80" d="M353,285.9c-1.9.8-2.4,3.8-2.4,3.8s-5.8,4-7.4,6.3-1,4.3-1.3,7.8-2.4,12.5-2.3,17.2,2.9,14,2.9,14a19.29,19.29,0,0,0-1.3,4.9c3.4,4,9.5,3.9,9.5,3.9a10.38,10.38,0,0,0,6.8-.9,27.2,27.2,0,0,1,.1-5.7c.4-2.5-.6-5.8,0-9.9s0-11.5.3-18.6-2.7-12.1-4.6-16-.3-5.1-.3-5.1Z"/><path class="cls-80" d="M364.6,288.8c2.3,2.7,2.5,12,2.2,15.6s0,8.4,0,13.5.3,16.5.4,19-.6,5.2.1,5.6,1.5-.4,2.9-1.3a7,7,0,0,0,2.2-2.7c.2-2.6-.3-9.1-.3-9.1.6-.2,2.3-1.1,2.4-1.6a14.67,14.67,0,0,0,.1-3.1c0-1-.3-1.6-.4-3.5s-.8-14.6-.9-17.5-.1-15.3-.1-15.3a5.42,5.42,0,0,0-5.9-5.2A30.75,30.75,0,0,0,364.6,288.8Z"/><path class="cls-81" d="M360.1,297.3a33.19,33.19,0,0,1-8-7.6c.1-1.7.7-2,.7-2a28.88,28.88,0,0,0,9.4,5.7A27.7,27.7,0,0,0,360.1,297.3Z"/><path class="cls-81" d="M364.8,289.1a10,10,0,0,1,1.1,6.2,17.55,17.55,0,0,1-3.6-1.7,5.8,5.8,0,0,0,1.1-3.2A9.88,9.88,0,0,0,364.8,289.1Z"/><path class="cls-61" d="M344.8,341.9c-.8,1.2-1,5.5-.6,7.1a7,7,0,0,0,3,4c1.7,1.2,2.3.2,2.4-.3s-.6-3-.7-3.6c-.2-.9-.7-3.5.3-3.4s.4,2,.6,3,1.4.7,1.6.3.1-.9.4-1.7-.5-3.1-.5-3.1c-.8-2.6-1.5-3.2-1.5-3.2A4,4,0,0,1,344.8,341.9Z"/><path class="cls-82" d="M351.3,306c-.2.8-.3,1.6-.5,2.4-.7,3-1.4,6.1-2,9.2a16,16,0,0,0-.3,2.3,19.22,19.22,0,0,0,0,2.4l.2,4.8c.2,3.1.3,6.4.5,9.5v-.1a21.18,21.18,0,0,1,.5,4.4v.1h0a2.3,2.3,0,0,1-1.7,1.2,6.28,6.28,0,0,1-1.9.3,3,3,0,0,1-1.8-.6,2.7,2.7,0,0,1-1-1.7h0c-.4-2.2-.9-4.4-1.3-6.5.6,2.2,1.1,4.3,1.7,6.4h0a2.81,2.81,0,0,0,1,1.4,2.73,2.73,0,0,0,1.6.4,4.67,4.67,0,0,0,1.7-.3c.3-.1.5-.2.8-.3a1.18,1.18,0,0,0,.5-.5v.1a20.26,20.26,0,0,0-.6-4.2h0c-.3-3.1-.4-6.4-.6-9.5-.1-1.6-.2-3.2-.2-4.8V320q.15-1.35.3-2.4a78.26,78.26,0,0,1,1.9-9.4c1-3.5,1.7-6,1-9.2C352.5,301.7,351.4,305.3,351.3,306Z"/><path class="cls-82" d="M348,337.8a3.82,3.82,0,0,1-1.6.6,3.22,3.22,0,0,1-1.7-.1,5.48,5.48,0,0,1-1.5-.8c.5,0,1,.1,1.6.1a7.57,7.57,0,0,0,1.5-.1,7,7,0,0,0,1.4-.3,9.38,9.38,0,0,0,1.5-.6A2.78,2.78,0,0,1,348,337.8Z"/><path class="cls-83" d="M366.9,330.9c-3,2.9-9.3,3.7-9.3,3.7l-.3-3.8c6.3-.9,9.3-4,9.3-4Z"/><path class="cls-84" d="M360.3,330.1l.1,4.2a17.62,17.62,0,0,0,4.2-1.7c.7-2.9-.1-4.3-.1-4.3C363.4,329.3,360.3,330.1,360.3,330.1Z"/><path class="cls-85" d="M362.9,343.2c-3.9,2.9-3.7,9.4-3.7,9.4v-2a11.07,11.07,0,0,1,1.5-6.3l-2.6.7,4.2-2.8L364,335Z"/><ellipse class="cls-86" cx="363" cy="323.7" rx="0.5" ry="0.7"/><path class="cls-82" d="M356.7,325.4c-.1-1.1-.2-2.3-.3-3.3s-.3-2.2-.5-3.2c-.4-2.2-1-4.3-1.6-6.4l-.8-1.5-.1-.4-.1-.2v-.3l.3-.9c.3-1,.7-2.1,1-3.1l.3.5a5.27,5.27,0,0,1-1.2-.3c-.2,0-.4-.2-.6-.3a3.17,3.17,0,0,1-.5-.6,3,3,0,0,1-.1-1.3l.1-1.1a10.87,10.87,0,0,0-.5-4.4c-.5-1.4-1.1-2.9-1.5-4.4a14.24,14.24,0,0,1-.2-4.6,13.55,13.55,0,0,0,.5,4.5,29.44,29.44,0,0,0,1.7,4.3,12.06,12.06,0,0,1,.8,4.6v1.1a2.79,2.79,0,0,0,.1,1,1.44,1.44,0,0,1,.3.2c.1.1.3.1.4.2a3.55,3.55,0,0,0,1,.2h.5l-.2.5c-.3,1-.6,2.1-1,3.1-.1.2-.1.5-.2.7l.2.6.4,1.6c.6,2.1,1.1,4.3,1.5,6.4a18.41,18.41,0,0,1,.3,3.3c.1,1.1.1,2.2.2,3.3.1,2.2.2,4.4.3,6.5C357.1,329.7,356.8,327.5,356.7,325.4Z"/><path class="cls-61" d="M363.5,290.3c.4-.2,3.6-3.4,3.8-7.1a8.3,8.3,0,0,0-.2-3,2.57,2.57,0,0,1,.1-1.5,3.78,3.78,0,0,0,.1-1.4s.3-3.5-.7-4.4-6.8-8.8-13.1-5.1a4.22,4.22,0,0,0-1.3,3.7c.1.3-.2,7.6-.2,7.6s-1.8-.6-1.9,1.6.4,4.2,1,4.6,1.2.8,1.7.6l-.2,1.9a24.13,24.13,0,0,0,9.3,5.7A4.61,4.61,0,0,0,363.5,290.3Z"/><path class="cls-22" d="M356.1,271.2a13.68,13.68,0,0,0,9.7,2.1c1.4,0,5-2.2,2.3-6.4,0,0-1.8-2.8-5.2-.7-1.6-.6-3.5-2.3-5.7-1.7s-5.7,2.3-6.1,3.4a4.22,4.22,0,0,0,0,2.4s-1.3.4-1.3,2.6,0,6.4.4,7.8c0,0,.5-2.2,2.4-1a4.14,4.14,0,0,1,1,2.8l.1,1.6,1.6.7-.2-1.7a2.39,2.39,0,0,1,.5-1.4,4.45,4.45,0,0,0,1.3-2.4c.4-1.7-2.7-5.1-2.7-5.1C354.2,271.4,356.1,271.2,356.1,271.2Z"/><path class="cls-66" d="M362.3,293.4c.1-1-.1-1.7-.6-2-1-.6-2.1-.5-3.5-1.2-3.4-1.7-3-3.9-3-3.9a7.45,7.45,0,0,0,2.8,3c3.6,2,5.4,1,5.4,1A4.38,4.38,0,0,1,362.3,293.4Z"/><path class="cls-66" d="M366.9,279.4a13.94,13.94,0,0,1-6.5,3c-2.7.5-3-1-3-1s.5.5,3,.3a18,18,0,0,0,4-1.5,7.07,7.07,0,0,0,3-1.8A1.55,1.55,0,0,0,366.9,279.4Z"/><path class="cls-66" d="M352.8,287.8a31.91,31.91,0,0,0,3.7,3c-2.3-1.9-2.1-5.8-2.1-5.8-.3.1-.5.6-.7.7a1.69,1.69,0,0,1-.7.3Z"/><path class="cls-66" d="M352.7,282.2c.3.6-.4.8-.7.6s-.1-2.2-.4-1.5.2,2.3.7,2.4-.1-.8.5-.7.6.8.6.8a.94.94,0,0,1-1.6.6c-.7-.6-1.2-3.7-.3-4.1s1.7,1.1,1.7,1.1C352.9,281.4,352.6,281.6,352.7,282.2Z"/><path class="cls-82" d="M367,337.6s-.1-4.4,0-5.3c.3-3.4,1.1-11.5,1.7-14.6.8-4.1-.2-8.6-.5-10.6s1.5-2.3,1.6-3.9-1.4-6.1-1.4-6.1c-.3-7.9-2.4-9.9-2.4-9.9l-1.4,2,1.4,3.5c1,4.4.4,11.5.3,15.2-.2,2.6-.1,21.3.5,28.6Z"/><path class="cls-82" d="M353,285.9l-.2,1.8s-1.2,1.8.6,5.2a33,33,0,0,1,4.5,13.5c.4,5.4-.7,23.2-.4,25.1,0,0-.5-9.7-1.4-13.1s-2.5-8.2-2.1-8.9a18.81,18.81,0,0,0,.9-3.3s-1.6-.5-1.8-1.2.3-4.6-.7-6.7-3-7.2-1.5-10.2C351,288.2,351.6,286.5,353,285.9Z"/><path class="cls-82" d="M372.3,290.7s-.9,3.3-1.2,4.9c0,0,.7,30.9,1,33.8,0,0-1.6-16.7-1.6-33.2a36.24,36.24,0,0,0-.1-4.4l.5,2.3A19.27,19.27,0,0,0,372.3,290.7Z"/><path class="cls-82" d="M350.6,302s.8,3.5.1,5.8l-.5,1.4A55.06,55.06,0,0,1,350.6,302Z"/><path class="cls-85" d="M362.3,342.2l4-1.5a25.31,25.31,0,0,1-4.4,3Z"/><path class="cls-86" d="M366.4,327.2s-2.6,2.8-9.1,3.6c0,0,.7-19.1.7-20.6s.3-7.6-2.8-13.8-2.5-5.5-2.7-6.2c0,0,3.6,4.9,7.6,7.2l.6-1.4a13,13,0,0,0,1.5,1.9l-1.2-.6-.8,1.4a48.9,48.9,0,0,1-5-3.6s3,1.5,3.6,12.2a108.85,108.85,0,0,1-.7,21.3s-.1.7-.3,1.5c6.2-.5,8.7-3.9,8.7-3.9Z"/><path class="cls-66" d="M364.6,282.1s1,2.8.3,4.1c0,0-.3.4-1.3.4s-1.1-.3-1.1-.3a3.64,3.64,0,0,0,2.1-.8Z"/><path class="cls-86" d="M365.8,291.8s.9,1,.9,8.2l-.3,26.7-.6.7s.5-20.2.2-23.2-.3-8.2-.3-8.2l-1.2-.8.1-.5,1.2.6C365.8,295.4,366.3,294.5,365.8,291.8Z"/><path class="cls-66" d="M344.8,341.9s2.3,1.7,5-1c0,0,.9.6,2,5.1,0,0-1.4-4-2.3-3.2a4.89,4.89,0,0,1-5.1.5A2,2,0,0,1,344.8,341.9Z"/><path class="cls-66" d="M374.5,327.8a4.49,4.49,0,0,1-2.4,1.6v.8a28.52,28.52,0,0,0,2.9-1.4Z"/><path class="cls-9" d="M205.5,317.6a19.41,19.41,0,0,0-1,8.4s.9,4.1,4.1,4.6c0,0-.5-6.6.5-8.3s-.5-3.9-.5-3.9Z"/><path class="cls-87" d="M205.2,318.4a3.41,3.41,0,0,0,4.1.7v.9l-1.4,1.8s.1-1-1.3-1.2a12.94,12.94,0,0,1-2-.4S205,318.9,205.2,318.4Z"/><path class="cls-87" d="M206.6,321.7a30.06,30.06,0,0,0-.1,4.5c.2.9,1.2.7,1.3-.3a10.62,10.62,0,0,1,.4-2.9,3.1,3.1,0,0,0,.6-1.3s.4.4-.5,1.9l-.2,2.3s-.1,1.2-1,1.1-1-1.3-1-2C206.2,324.6,206.1,321.5,206.6,321.7Z"/><path class="cls-88" d="M220,377.7s-3.4,3-4.9,4.6-.1,3.6,2.4,2.6a35.5,35.5,0,0,0,8.1-4.6l.3,1s.7.6.9-.6,1-4.9-.2-5.9C226.6,374.9,223.8,379.1,220,377.7Z"/><path class="cls-9" d="M221.4,357.5s1.2,14.4.3,17a12.85,12.85,0,0,1-2.7,4.4s-2.3,2.5.7,1.9a11.88,11.88,0,0,0,6.7-4.1c.8-1.2-.6-2.7.2-6s2.8-8.9,3-13.9Z"/><path class="cls-87" d="M221.6,359.6s5.2.9,7.9-.9l.3-2.1-8.4.9Z"/><path class="cls-88" d="M209.3,372.2a26.56,26.56,0,0,0-4.9,4.6c-1.3,1.8-.1,3.6,2.4,2.6a39.68,39.68,0,0,0,8.1-4.6l.3,1s.7.6.9-.6,1-4.9-.2-5.9C216,369.4,213.1,373.7,209.3,372.2Z"/><path class="cls-9" d="M210.7,352.1s1.2,14.4.3,17a12.85,12.85,0,0,1-2.7,4.4s-2.3,2.5.7,1.9a11.88,11.88,0,0,0,6.7-4.1c.8-1.2-.6-2.7.2-6s2.8-8.9,3-13.9Z"/><path class="cls-87" d="M211,356.5s2.9,3.2,6.7,2.1l.4-1.4-7.3-2.8Z"/><path class="cls-89" d="M210,318.9a6.39,6.39,0,0,0-2.5,4.3c-.3,2.8-1.9,24.2-1.9,24.2a3.44,3.44,0,0,0,.4,3.5c1.2,1.8,11,10.2,23.3,6.5,0,0,6.9-2.2,7.3-7l-2.1-22.2Z"/><path class="cls-9" d="M231.6,290.5s-4.2-1.4-6.4,4.9a9.67,9.67,0,0,0-1.3,5.5s9.9,1.5,10.6-5.2C234.5,295.8,234,291.3,231.6,290.5Z"/><polygon class="cls-90" points="225.8 342.7 225.1 353.1 240.4 344.9 240.6 334.8 225.8 342.7"/><path class="cls-87" d="M227.8,296.7l1.1,4.7.4-.1S229.1,297.7,227.8,296.7Z"/><path class="cls-91" d="M210.9,272.3s.7,4.1,0,6.7-.8,4.7,2.2,5.6l1.6.2s-1.5-9.8-.8-13.1C213.9,271.7,211,269.5,210.9,272.3Z"/><path class="cls-9" d="M229.5,331.2a6.73,6.73,0,0,0-1.3,4.2,26.86,26.86,0,0,1-.6,5.3s.1.7,1.1.3,1-1.5,1.1-2.5a11.58,11.58,0,0,1,.2-1.5,17,17,0,0,1,0,4.8c-.4,2.2,1.9,1.4,3.1.4s2.7-6.2,1.5-9.9C234.6,332.1,231.1,332.5,229.5,331.2Z"/><path class="cls-87" d="M229.4,331.4s3.2,1.6,5.2.7a5.21,5.21,0,0,1,.4,2.3,2.06,2.06,0,0,0-2.3-1.1c-2.7.2-3.6.3-3.8,2.3a13.07,13.07,0,0,1-1.2,4.8s.5-4.5.4-5.4S228.6,331.7,229.4,331.4Z"/><path class="cls-91" d="M211,272.6a7.86,7.86,0,0,1,4.8-8.5s4-2.2,6.7-1.5,7.4,2.3,8,5.8-.8,5.5,1,9.8,4,8.7.1,12.4c0,0-4-1.4-5.1-2.3-2.1-1.9-1.6-3.5-1.8-5.4a7.89,7.89,0,0,1-2.2-5.1v-3C222.6,274.8,214.1,277,211,272.6Z"/><path class="cls-92" d="M212.5,282.1s-5,1.1-5.8,7.5-1.5,15.4-2,18.1-2.4,7.9,0,10.3,4.4,1,4.4,1l-.6-.7s1.7,3.7,4.7,4.6,4.2.8,7.4,4.2,6.6,3.2,8.7,2.1a9,9,0,0,0-.2,1.3c0,.4-.5,1.1,2.2,1.7s4.3-.4,4.5-1.4,2.1-10.8,2.5-12.6,1-2.6,0-8.6a99.83,99.83,0,0,0-4.4-16,4.62,4.62,0,0,1-.9,4.6c-1.9,1.9-8.4,2.6-9.8,2.3-2.3-.6-8.8-2.3-9.9-12a4.46,4.46,0,0,1,.5-3.1A9.56,9.56,0,0,1,212.5,282.1Z"/><path class="cls-9" d="M224.8,283.2a5.1,5.1,0,0,0,2.1,4.8s1.2.7,1.5.8a113.23,113.23,0,0,0-7.4,11.3,12,12,0,0,1-7.1-7.9s-1.6-4.1-.1-6.9c0,0,3.5,2.6,6.6,1.6s4.1-4.4,4.1-4.4Z"/><path class="cls-87" d="M213.7,285.4a14.38,14.38,0,0,0,.9,7.8s1.6,5,5.1,6.3l-1.8-1.5.3-1.1-.9.5s-4-6.9-3.2-11.5Z"/><path class="cls-9" d="M212,273.7a43.57,43.57,0,0,0,.5,8.5c.7,3.1,2.3,5.5,5.7,5.5,2.9,0,5.7-.9,6.4-4.5a1.29,1.29,0,0,0,1.9-.4,1.06,1.06,0,0,0,0-.6s-3.3-1.8-3.5-4.1a14.78,14.78,0,0,1,.1-3.8S215.9,276.9,212,273.7Z"/><path class="cls-93" d="M224.2,300.7a13.69,13.69,0,0,1,.6-4c2.3-7.1,6.8-6.2,6.8-6.2-.8-1.9-3.2-1.7-3.2-1.7a9.38,9.38,0,0,0-3.4,2.1c-3.4,3.2-2.1,8.3-5.3,8.5C219.7,299.5,223.5,301,224.2,300.7Z"/><path class="cls-87" d="M213.9,285.5a6.19,6.19,0,0,0,6.1,2,6,6,0,0,0,3.8-2.3,4.75,4.75,0,0,1-4.6,3C216.1,288.2,215.1,287,213.9,285.5Z"/><path class="cls-87" d="M224.9,286.8a5.14,5.14,0,0,0,2.8,1.7c-2.4-1.5-1.9-5.3-1.9-5.3a1,1,0,0,1-1,0c0,.3-.2-.8-.8,1.2,0,0,0,2.1-4.4,3.7A27.27,27.27,0,0,0,224.9,286.8Z"/><path class="cls-94" d="M230.2,339l-5.9,3.2-.7,10.4,1.5.6.7-10.4,4.4-2.3A7.5,7.5,0,0,0,230.2,339Z"/><polygon class="cls-94" points="235 336.4 234.8 337.9 240.6 334.8 239.2 334.1 235 336.4"/><path class="cls-95" d="M210,291.2a9.57,9.57,0,0,1-.4,5.7c-1.2,2.7-2.2,7.4,1.6,9.9,0,0-4.8-1.9-2.8-8.5C209.6,295.1,209.9,294.5,210,291.2Z"/><path class="cls-95" d="M213.7,285.4s-1.9,8.4,6.3,14.3C220,299.7,210.3,294.7,213.7,285.4Z"/><path class="cls-95" d="M212.6,295.1s2.6,11.6,12,12.8C224.7,307.9,214.4,307,212.6,295.1Z"/><path class="cls-95" d="M215,295.2s1.5,10.3,10.7,8.9c0,0-7.9.8-10.1-8.1Z"/><path class="cls-95" d="M215.8,296.4s2.8,5.2,7,5.9c0,0-4.5-.1-7.1-5.3Z"/><path class="cls-95" d="M210,306.2s1.5,4.9,1,7.2l-.9-4.9a58.17,58.17,0,0,1-1,8.4,3.29,3.29,0,0,0,.5,3s-.6,0-1-1a14.74,14.74,0,0,1,.3-3.5c.4-2.1,1.1-9,.7-9.7Z"/><path class="cls-95" d="M214.4,312.2s5.7,10,13.4,5.1C227.8,317.3,221.7,321,214.4,312.2Z"/><path class="cls-95" d="M230.1,302.3s1.4,9.7,1.5,11.4-1.9,14.6-1.9,15.8.7,2.2,2.9,2.3,2.2-.2,3-1.1c0,0-.2,1.8-3,1.5,0,0-3.1.1-3.6-1.2,0,0-.3-.5.3-2.9a126,126,0,0,0,1.9-14.3C231.3,313.9,229.2,302.8,230.1,302.3Z"/><path class="cls-95" d="M230.6,309.3s.5,5.7-3.4,6.8c0,0,3.4-1,3.7-5.5Z"/><path class="cls-95" d="M232,308.3s2.9,2.8,4.3-.4C236.3,307.8,235.4,312.1,232,308.3Z"/><path class="cls-95" d="M236.4,308.7s-.9,4.1-3.5,2.7c0,0,2.2.8,3.4-3.3Z"/><path class="cls-95" d="M236.8,316.4s-1.1,4.1-4.2,4.7a4.33,4.33,0,0,0,3.4-2.4s-1,4.1-3.5,4.2C232.4,323,235.9,323.1,236.8,316.4Z"/><path class="cls-95" d="M216.4,322.5a10.81,10.81,0,0,1,4,4c2.1,3.2,6.8,3.4,6.8,3.4a8.13,8.13,0,0,1-7.7-3.8c-2.8-4.5-3.5-3.7-3.5-3.7"/><path class="cls-95" d="M205.7,304.3s-.2,4.2,2.9,4.4C208.7,308.7,206.6,308.1,205.7,304.3Z"/><path class="cls-87" d="M212.5,277.5s2.6,3,8.9,2.1C221.4,279.6,214.2,281.7,212.5,277.5Z"/><path class="cls-87" d="M215,280.3l-.1,2.6s.5.9,2.1.7l.2-.3a2.36,2.36,0,0,1-1.9-.5C215.2,282.7,215.5,279.6,215,280.3Z"/><path class="cls-87" d="M229.4,335.3a7.73,7.73,0,0,0,.6,1.7c.5,1.1.1,4.2.1,4.2s-.5,2,.6,1.9c0,0-.7-.1-.3-1.9S230.9,336.5,229.4,335.3Z"/><polygon class="cls-87" points="227.3 298.1 228.6 299.6 228.4 298.6 227.3 298.1"/><path class="cls-87" d="M231.6,290.5s-6.5-.9-7.4,10.1a20.79,20.79,0,0,0,4.3-.5l-3.6-.1C224.9,300.2,225,291.6,231.6,290.5Z"/><polygon class="cls-87" points="215.8 287.1 216.2 288.7 216.7 288.8 216.8 287.8 215.8 287.1"/><polygon class="cls-90" points="230.1 340 225.4 342.6 224.8 353 225.2 342.4 230.2 339.8 230.1 340"/><polygon class="cls-90" points="229.9 339.5 224.8 342.4 224.2 352.8 223.8 352.5 224.6 342.2 230.1 339.2 229.9 339.5"/><polygon class="cls-90" points="235.1 336.6 239.5 334.5 239.7 334.6 235 337 235.1 336.6"/><polygon class="cls-90" points="235.1 337.3 240 334.8 235.1 337.6 235.1 337.3"/><path class="cls-96" d="M211.5,331.7s1.4,17.8,7.5,19.7A38.81,38.81,0,0,1,211.5,331.7Z"/><path class="cls-97" d="M209.3,372.2s-6.2,4.1-5.5,6.5,5.3.8,11.1-3.9c0,0-7.6,6-10.4,4.1C204.6,379,202.5,377.5,209.3,372.2Z"/><path class="cls-97" d="M220,377.8s-6.2,4.1-5.5,6.5,5.3.8,11.1-3.9c0,0-7.9,5.7-10.4,4.1C215.2,384.5,213.2,383.2,220,377.8Z"/><path class="cls-98" d="M375.8,435a19.41,19.41,0,0,0-1,8.4s.9,4.1,4.1,4.6c0,0-.5-6.6.5-8.3s-.5-3.9-.5-3.9Z"/><path class="cls-87" d="M375.5,435.8a3.41,3.41,0,0,0,4.1.7v.9l-1.4,1.8s.1-1-1.3-1.2a12.94,12.94,0,0,1-2-.4A18.41,18.41,0,0,1,375.5,435.8Z"/><path class="cls-99" d="M376.9,439.1a30.06,30.06,0,0,0-.1,4.5c.2.9,1.2.7,1.3-.3a10.62,10.62,0,0,1,.4-2.9,3.1,3.1,0,0,0,.6-1.3s.4.4-.5,1.9l-.2,2.3s-.1,1.2-1,1.1-1-1.3-1-2C376.5,442,376.5,438.9,376.9,439.1Z"/><path class="cls-75" d="M390.3,495.1s-3.4,3-4.9,4.6-.1,3.6,2.4,2.6a35.5,35.5,0,0,0,8.1-4.6l.3,1s.7.6.9-.6,1-4.9-.2-5.9C396.9,492.2,394.1,496.5,390.3,495.1Z"/><path class="cls-98" d="M391.7,474.9s1.2,14.4.3,17a12.85,12.85,0,0,1-2.7,4.4s-2.3,2.5.7,1.9a11.88,11.88,0,0,0,6.7-4.1c.8-1.2-.6-2.7.2-6s2.8-8.9,3-13.9Z"/><path class="cls-99" d="M391.9,477s5.2.9,7.9-.9l.3-2.1-8.4.9Z"/><path class="cls-75" d="M379.7,489.6a26.56,26.56,0,0,0-4.9,4.6c-1.3,1.8-.1,3.6,2.4,2.6a35.5,35.5,0,0,0,8.1-4.6l.3,1s.7.6.9-.6,1-4.9-.2-5.9C386.3,486.8,383.4,491.1,379.7,489.6Z"/><path class="cls-98" d="M381,469.4s1.2,14.4.3,17a12.85,12.85,0,0,1-2.7,4.4s-2.3,2.5.7,1.9a11.88,11.88,0,0,0,6.7-4.1c.8-1.2-.6-2.7.2-6s2.8-8.9,3-13.9Z"/><path class="cls-99" d="M381.3,473.9s2.9,3.2,6.7,2.1l.4-1.4-7.3-2.8Z"/><path class="cls-100" d="M380.3,436.3a6.39,6.39,0,0,0-2.5,4.3c-.3,2.8-1.9,24.2-1.9,24.2a3.44,3.44,0,0,0,.4,3.5c1.2,1.8,11,10.2,23.3,6.5,0,0,6.9-2.2,7.3-7l-2.1-22.2Z"/><path class="cls-98" d="M401.9,407.9s-4.2-1.4-6.4,4.9a9.67,9.67,0,0,0-1.3,5.5s9.9,1.5,10.6-5.2C404.8,413.2,404.3,408.7,401.9,407.9Z"/><polygon class="cls-90" points="396.1 460.1 395.4 470.5 410.7 462.3 410.9 452.2 396.1 460.1"/><path class="cls-99" d="M398.1,414.1l1.1,4.7.4-.1C399.7,418.7,399.4,415,398.1,414.1Z"/><path class="cls-101" d="M381.3,389.7s.7,4.1,0,6.7-.8,4.7,2.2,5.6l1.6.2s-1.5-9.8-.8-13.1C384.2,389.1,381.3,386.9,381.3,389.7Z"/><path class="cls-98" d="M399.8,448.5a6.73,6.73,0,0,0-1.3,4.2,26.86,26.86,0,0,1-.6,5.3s.1.7,1.1.3,1-1.5,1.1-2.5.2-1.5.2-1.5a17,17,0,0,1,0,4.8c-.4,2.2,1.9,1.4,3.1.4s2.7-6.2,1.5-9.9C404.9,449.5,401.4,449.9,399.8,448.5Z"/><path class="cls-99" d="M399.7,448.7s3.2,1.6,5.2.7a5.21,5.21,0,0,1,.4,2.3,2,2,0,0,0-2.2-1.1c-2.7.2-3.6.3-3.8,2.3a13.07,13.07,0,0,1-1.2,4.8s.5-4.5.4-5.4S398.9,449.1,399.7,448.7Z"/><path class="cls-101" d="M381.3,390a7.86,7.86,0,0,1,4.8-8.5s4-2.2,6.7-1.5,7.4,2.3,8,5.8-.8,5.5,1,9.8,4,8.7.1,12.4c0,0-4-1.4-5.1-2.3-2.1-1.9-1.6-3.5-1.8-5.4a7.89,7.89,0,0,1-2.2-5.1v-2.8C392.9,392.2,384.4,394.4,381.3,390Z"/><path class="cls-102" d="M382.8,399.5s-5,1.1-5.8,7.5-1.5,15.4-2,18.1-2.4,7.9,0,10.3,4.4,1,4.4,1l-.6-.7s1.7,3.7,4.7,4.6,4.2.8,7.4,4.2,6.6,3.2,8.7,2.1a9,9,0,0,0-.2,1.3c0,.4-.5,1.1,2.2,1.7s4.3-.4,4.5-1.4,2.1-10.8,2.5-12.6,1-2.6,0-8.6a99.83,99.83,0,0,0-4.4-16,4.62,4.62,0,0,1-.9,4.6c-1.9,2-8.4,2.6-9.8,2.3-2.3-.6-8.8-2.3-9.9-12a4.46,4.46,0,0,1,.5-3.1A13.35,13.35,0,0,1,382.8,399.5Z"/><path class="cls-98" d="M395.2,400.6a5.1,5.1,0,0,0,2.1,4.8s1.2.7,1.5.8a113.23,113.23,0,0,0-7.4,11.3,12,12,0,0,1-7.1-7.9s-1.6-4.1-.1-6.9c0,0,3.5,2.6,6.6,1.6s4.1-4.4,4.1-4.4Z"/><path class="cls-99" d="M384,402.8a14.38,14.38,0,0,0,.9,7.8s1.6,5,5.1,6.3l-1.8-1.5.3-1.1-.9.5s-4-6.9-3.2-11.5Z"/><path class="cls-98" d="M382.3,391.1a43.57,43.57,0,0,0,.5,8.5c.7,3.1,2.3,5.5,5.7,5.5,2.9,0,5.7-.9,6.4-4.5a1.29,1.29,0,0,0,1.9-.4,1.06,1.06,0,0,0,0-.6s-3.3-1.8-3.5-4.1a14.78,14.78,0,0,1,.1-3.8S386.2,394.3,382.3,391.1Z"/><path class="cls-103" d="M394.5,418.1a13.69,13.69,0,0,1,.6-4c2.3-7.1,6.8-6.2,6.8-6.2-.8-1.9-3.2-1.7-3.2-1.7a9.38,9.38,0,0,0-3.4,2.1c-3.4,3.2-2.1,8.3-5.3,8.5C390,416.9,393.8,418.4,394.5,418.1Z"/><path class="cls-99" d="M384.2,402.8a6.19,6.19,0,0,0,6.1,2,6,6,0,0,0,3.8-2.3,4.75,4.75,0,0,1-4.6,3C386.4,405.6,385.4,404.4,384.2,402.8Z"/><path class="cls-99" d="M395.2,404.2a5.14,5.14,0,0,0,2.8,1.7c-2.4-1.5-1.9-5.3-1.9-5.3a1,1,0,0,1-1,0c0,.3-.2-.8-.8,1.2,0,0,0,2.1-4.4,3.7A27.27,27.27,0,0,0,395.2,404.2Z"/><path class="cls-94" d="M400.5,456.3l-5.9,3.2-.7,10.4,1.5.6.7-10.4,4.4-2.3A7.35,7.35,0,0,0,400.5,456.3Z"/><polygon class="cls-94" points="405.3 453.8 405.1 455.3 410.9 452.2 409.5 451.5 405.3 453.8"/><path class="cls-104" d="M380.3,408.6a9.57,9.57,0,0,1-.4,5.7c-1.2,2.7-2.2,7.4,1.6,9.9,0,0-4.8-1.9-2.8-8.5C379.9,412.5,380.2,411.9,380.3,408.6Z"/><path class="cls-104" d="M384,402.8s-1.9,8.4,6.3,14.3C390.3,417.1,380.6,412.1,384,402.8Z"/><path class="cls-104" d="M382.9,412.5s2.6,11.6,12,12.8C395,425.3,384.7,424.4,382.9,412.5Z"/><path class="cls-104" d="M385.3,412.6s1.5,10.3,10.7,8.9c0,0-7.9.8-10.1-8.1Z"/><path class="cls-104" d="M386.2,413.8s2.8,5.2,7,5.9c0,0-4.5-.1-7.1-5.3Z"/><path class="cls-104" d="M380.3,423.6s1.5,4.9,1,7.2l-.9-4.9a58.17,58.17,0,0,1-1,8.4,3.29,3.29,0,0,0,.5,3s-.6,0-1-1a14.74,14.74,0,0,1,.3-3.5c.4-2.1,1.1-9,.7-9.7Z"/><path class="cls-104" d="M384.7,429.6s5.7,10,13.4,5.1C398.1,434.6,392,438.3,384.7,429.6Z"/><path class="cls-104" d="M400.4,419.7s1.4,9.7,1.5,11.4-1.9,14.6-1.9,15.8.7,2.2,2.9,2.3,2.2-.2,3-1.1c0,0-.2,1.8-3,1.5,0,0-3.1.1-3.6-1.2,0,0-.3-.5.3-2.9a126,126,0,0,0,1.9-14.3C401.6,431.3,399.5,420.2,400.4,419.7Z"/><path class="cls-104" d="M400.9,426.7s2,5.8-3.4,6.8c0,0,3.4-1,3.7-5.5Z"/><path class="cls-104" d="M402.3,425.7s2.9,2.8,4.3-.4C406.6,425.2,405.7,429.5,402.3,425.7Z"/><path class="cls-104" d="M406.7,426s-.9,4.1-3.5,2.7c0,0,2.2.8,3.4-3.3Z"/><path class="cls-104" d="M407.1,433.8s-1.1,4.1-4.2,4.7a4.33,4.33,0,0,0,3.4-2.4s-1,4.1-3.5,4.2C402.8,440.4,406.2,440.5,407.1,433.8Z"/><path class="cls-104" d="M386.7,439.9a10.81,10.81,0,0,1,4,4c2.1,3.2,6.8,3.4,6.8,3.4a8.13,8.13,0,0,1-7.7-3.8c-2.8-4.5-3.5-3.7-3.5-3.7"/><path class="cls-104" d="M376,421.7s-.2,4.2,2.9,4.4C379,426,376.9,425.5,376,421.7Z"/><path class="cls-99" d="M382.8,394.9s2.6,3,8.9,2.1C391.7,397,384.5,399,382.8,394.9Z"/><path class="cls-99" d="M385.3,397.7l-.1,2.6s.5.9,2.1.7l.2-.3a2.36,2.36,0,0,1-1.9-.5C385.6,400.1,385.8,397,385.3,397.7Z"/><path class="cls-99" d="M399.7,452.7a7.73,7.73,0,0,0,.6,1.7c.5,1.1.1,4.2.1,4.2s-.5,2,.6,1.9c0,0-.7-.1-.3-1.9S401.2,453.8,399.7,452.7Z"/><polygon class="cls-99" points="397.6 415.5 398.9 417 398.7 416 397.6 415.5"/><path class="cls-99" d="M401.9,407.9s-6.5-.9-7.4,10.1a20.79,20.79,0,0,0,4.3-.5l-3.6-.1C395.2,417.5,395.3,408.9,401.9,407.9Z"/><polygon class="cls-99" points="386.1 404.5 386.5 406.1 387 406.2 387.1 405.2 386.1 404.5"/><polygon class="cls-90" points="400.4 457.4 395.7 460 395.1 470.4 395.5 459.8 400.5 457.2 400.4 457.4"/><polygon class="cls-90" points="400.2 456.9 395.1 459.8 394.5 470.2 394.2 469.9 394.9 459.6 400.4 456.6 400.2 456.9"/><polygon class="cls-90" points="405.4 454 409.8 451.8 410.1 452 405.3 454.4 405.4 454"/><polygon class="cls-90" points="405.4 454.6 410.3 452.2 405.4 455 405.4 454.6"/><path class="cls-105" d="M381.9,449.1s1.4,17.8,7.5,19.7A36.89,36.89,0,0,1,381.9,449.1Z"/><path class="cls-76" d="M379.7,489.6s-6.2,4.1-5.5,6.5,5.3.8,11.1-3.9c0,0-7.6,6-10.4,4.1C374.9,496.4,372.8,494.9,379.7,489.6Z"/><path class="cls-76" d="M390.3,495.2s-6.2,4.1-5.5,6.5,5.3.8,11.1-3.9c0,0-7.9,5.7-10.4,4.1C385.5,501.9,383.5,500.6,390.3,495.2Z"/><g class="cls-106"><path class="cls-9" d="M292.1,571a69.24,69.24,0,0,0,.4,9.7c.4,3.7-.6,13.5-.6,14.2a4.87,4.87,0,0,1,2.2,3.4c.3,2.2.5,4.2-.3,4.6s-1.1.3-1.1.3.2,4-2.9,3.6l-1.6-10,.1-24Z"/><path class="cls-10" d="M289.8,597.6a6.91,6.91,0,0,0,2.9,1.8s.1,3,.7,3.5c0,0-.7,1-1.2-2.9C292.1,600.2,290.2,599.7,289.8,597.6Z"/><path class="cls-107" d="M271.3,550.2a7.5,7.5,0,0,0-3.6,1.7c-2.1,1.6-5.2,1.6-7,3.7s-2,5.2-2.4,9-3.6,4.6-1.2,13.8c0,0,.8,3.7,1.1,6s1.7,5.2,5.3,5.5L280.8,560Z"/><path class="cls-108" d="M264.9,661.3a1.69,1.69,0,0,0-1.2,1.7c.1,1.3,1.7,2.9,3,4.2,1.7,1.7,4.1,3.8,5.9,4.3s4.6-.9,3.6-3l-7.3-7.1h-4Z"/><path class="cls-108" d="M278.1,654a2.16,2.16,0,0,0-1.7,2.1s-.1.6,1.4,2c2,1.9,3.8,3,5.1,4.2,1.1,1.1,3.2,2.6,5.1,2.3s3-2.2,1.8-3.5C289.7,661.1,280.6,652.9,278.1,654Z"/><path class="cls-9" d="M277.9,653.3s-1.6,1.9.6,3.9l7.6,5.9s1.8.7,2.8-.3c1.3-1.3,1.6-2.4-.6-4.5l-3.5-3.9C284.7,654.4,279.9,650.8,277.9,653.3Z"/><path class="cls-9" d="M265.3,659.8s-1.5,1.9-.4,3.2,5,6.4,7.6,7,4.8-1,3.3-3l-5.1-6.5-4.8-.4"/><path class="cls-109" d="M289.9,609.5s.8,22.4.8,24.4-4.6,17.2-5.2,19.8a2.21,2.21,0,0,1-1.5,2.4c-1.5.4-5.9.9-7.1-3,0,0,4.2-15,4.4-18.3s-.6-9.1-2.2-14.5c0,0-.9,17.7-1.6,20.3s-5.5,20.3-5.5,20.3-.6,3-4.8,1.9-3.3-4.1-3.3-4.1,4.5-15.6,4.5-25.1c0,0-1.6-32.2-1.3-35.5,0,0,17.1,1.2,21.4-1.7C288.4,596.4,289.8,599.6,289.9,609.5Z"/><path class="cls-110" d="M283.8,603.3l-1.7,7.2-4.2,2.8,2.6-.7a12.06,12.06,0,0,0-1.5,6.3v2s-.3-6.5,3.7-9.4Z"/><path class="cls-111" d="M265.7,582.3l-.3,15.4s2.8,5.8,11.8,4.7c0,0,8.5-1.2,11.6-6.7,0,0,.9-19.7.8-22.4Z"/><path class="cls-111" d="M271.4,557.6l.8-1.1s-1.4-.6-4.9,2.7l-3.4,3s-1.9,1.6-1.9,6.8a58.85,58.85,0,0,1-1.7,12.5c0,.5,3.3,4.5,8,2.4,0,0,14.5.2,20.9-5l.3-5.8s1.7.6,3-2.4l-.7-13.5s-.6-7.3-5.4-7.2Z"/><path class="cls-9" d="M261.8,581.5s-1.3,4.1.3,13.7c0,0,3.2,12.6,2.8,14.6a3.74,3.74,0,0,0,4.5-1s-1.9-14.1-1.7-18.9.2-7.2.2-7.2S266.6,578.9,261.8,581.5Z"/><path class="cls-9" d="M272.2,546.2s-1.7-.3-1.6,1.1.5,4.2,1,4.9a1.94,1.94,0,0,0,1.6.6,6.57,6.57,0,0,1-.3,3.2l-1.3,1.6a10.26,10.26,0,0,1,4.2,4.5c1.1,2.9,1.7,4.2,3,4s1.1-.1,1.1-.1l1.6,4.9.7-5.9a3.31,3.31,0,0,0,1.6-2.6c.3-1.9-1-6.1-1-6.1Z"/><path class="cls-9" d="M286.2,537.5s1.3-.7,1.1,3.6c0,0,.3,4.8-.1,5.7-.2.3-.3.8-.5,1.1a1.94,1.94,0,0,0-.2,1.5,2,2,0,0,1,0,1.7l-1.9,5.1a1.76,1.76,0,0,1-.9,1l-1.3.8a2.78,2.78,0,0,1-1.8.3,7.14,7.14,0,0,1-5.2-4l-1.7-1.8s-.9,1.3-2.2-.3-1.2-4.9-.8-6.4C271.3,544.2,276.7,531.3,286.2,537.5Z"/><path class="cls-101" d="M279.9,546.6s7.9-1.6,7.2-7.1l.2,3.3s1.6.3,1.3-3.9a3.72,3.72,0,0,0-3.2-3.7s-.9-2.1-4.1-2.3c0,0-3.6-1.9-6.3.5a3.29,3.29,0,0,0-2.6,1.3,4.89,4.89,0,0,0-2.8,2.5c-.9,1.6-.3,2-1,3.1,0,0-1.5,2,.5,7.1.5,3.2,1.8,3.1,1.8,3.1s-1-4.5.8-4c0,0,1.6.3,1.7,1.3s-.2,2.8.6,3.3l1.1.4s-.3-2.2.6-2.9a3.14,3.14,0,0,0,1-4.2s-1.7-3.3-.1-3.7c0,0-.9.9.2,2.6a5.15,5.15,0,0,1,.9,3.7s1.4-.7.6-2.8,1.2-4,1.2-4-1.5,1.4-1,2.9.8,3.1-.2,4.1c0,0,1.2-.2,1.7-2.8a5.64,5.64,0,0,1,2.4-3.7,5.27,5.27,0,0,0-2,3C280.5,545.3,280.6,546.2,279.9,546.6Z"/><polygon class="cls-112" points="273.5 547.9 280 549.8 279.9 550.5 273.7 548.6 273.5 547.9"/><path class="cls-111" d="M260.5,581.5s1.6,4.1,8.7,2.3c0,0,1.4-7.2,1.7-9.2s1.9-6.6-.1-8.5c0,0-5.3,2.4-8.3-.3a24.42,24.42,0,0,0,0,5.1C262.8,573.3,261.6,579.4,260.5,581.5Z"/><path class="cls-10" d="M278.7,548.8a9.41,9.41,0,0,0,2.8.1,38,38,0,0,0,6-2.4l-.3.7a40.66,40.66,0,0,1-5.5,2.1C280.1,549.6,279.3,548.8,278.7,548.8Z"/><ellipse class="cls-113" cx="281.69" cy="550.68" rx="2.1" ry="1.7" transform="translate(-311.22 726.9) rotate(-79.46)"/><ellipse class="cls-114" cx="281.7" cy="550.5" rx="1.8" ry="2.1"/><ellipse class="cls-113" cx="286.75" cy="549.37" rx="2.1" ry="1.7" transform="translate(-305.8 730.8) rotate(-79.46)"/><ellipse class="cls-114" cx="286.75" cy="549.37" rx="2.1" ry="1.7" transform="translate(-305.8 730.8) rotate(-79.46)"/><path class="cls-114" d="M283.5,550s.6-1.2,1.6-.4"/><path class="cls-10" d="M284.8,550a5.36,5.36,0,0,1,.2,3.9l-1.2.6-1.4-.5,1.5.1.7-.5A26.25,26.25,0,0,0,284.8,550Z"/><path class="cls-10" d="M275.4,554s2.2,3.7,5.9,4.2l1.6-.5s2,2.7,1,5.5c0,0-.1,1.2-1.9,1.8l-.7,5.9-.2-6.2s3.1-1.3,1.7-5.2l-2,.4C280.9,559.9,275,560.1,275.4,554Z"/><path class="cls-10" d="M273.1,552.8s.4.2.8-.4a28.83,28.83,0,0,1-.3,3.5c-.2.7-.7,1,1,3.7a16.52,16.52,0,0,1,2.2,5.6s-1.2-4-2.2-4.8-3.5-2.6-3.5-2.6a5.69,5.69,0,0,0,1.9-3C273.3,552.9,273.1,552.8,273.1,552.8Z"/><path class="cls-9" d="M269.3,608.7s.5.9,2,3.3a8.62,8.62,0,0,1,.5,3.1,8.51,8.51,0,0,1-.4,1.7c-.2.4-1.4.8-1.6-.3s.3-3-.6-3-.4,2.5-.3,3.4c.1.5.9,3,.7,3.6s-1.3.9-3-.3a11.63,11.63,0,0,1-2.2-4.4c-.4-1.7,0-3.8.5-6.2C265.1,609.8,267.1,610.6,269.3,608.7Z"/><path class="cls-108" d="M281.8,660s1.3-3.6,4.9-3.3a7.85,7.85,0,0,1,1.8,1.9,4.65,4.65,0,0,0-4.1,3.7Z"/><path class="cls-108" d="M267.9,666.8s2.1-4.1,5.5-2.9a4.51,4.51,0,0,1,1.6,2s-2.6-.7-4.6,3C270.1,669,268.8,667.8,267.9,666.8Z"/><path class="cls-115" d="M271.2,557.7s3,1.7,3.7,3,2,5.1,3,5.2a7.39,7.39,0,0,0,1.7,0l1.6,4.8.7-5.8s2.6-.9,2-4.4a4.69,4.69,0,0,0-1.1-2.8l.5-.2a10.67,10.67,0,0,1,1.2,3.8c.1,1.8-1,3.6-2.2,3.9l-.8,7.2-2.3-5.9a2.76,2.76,0,0,1-2.6-1c-.9-1.3-1.6-4.4-2.4-5.1a32.88,32.88,0,0,1-3.2-2.6Z"/><path class="cls-115" d="M283.2,571.5a7.93,7.93,0,0,0,4.4-2.9,5.44,5.44,0,0,1-3.8,3.4s-.3,4.4.3,5.3,3-.3,3.5-1.6l.1-5.7.3,6.2s-2,3.4-4.7,1.4Z"/><ellipse class="cls-116" cx="278.71" cy="567.71" rx="0.5" ry="0.7" transform="matrix(0.95, -0.31, 0.31, 0.95, -162.17, 114.27)"/><ellipse class="cls-116" cx="280.41" cy="572.1" rx="0.5" ry="0.7" transform="matrix(0.95, -0.31, 0.31, 0.95, -163.44, 115.02)"/><path class="cls-115" d="M271.3,566.4s1.6,1.8.3,7.2c0,0-1.1,4.6-1.2,6a29.48,29.48,0,0,1-.8,4.4s-2.2,2.2-7.6-.7c0,0,5.4,1.7,7.1.3,0,0,.4-2,.7-3.7s1.1-6,1.4-7.5S271.9,567.4,271.3,566.4Z"/><path class="cls-107" d="M263.7,556.3s8.7,2.9,9.6,13.9c0,0,.3,8.5-3.2,11.2l-.4,2.5s4.4-.9,5.7-7.4,0-14.8-7.1-21.6A3.83,3.83,0,0,0,263.7,556.3Z"/><path class="cls-107" d="M285,555.2s2.7,2.6,2.6,12.3c0,0,.1,6,2,8.2,0,0,.1-13.9-.4-17.1-.6-3.4-1.6-4.7-3.3-6A15.15,15.15,0,0,1,285,555.2Z"/><path class="cls-10" d="M272.9,548.5a1,1,0,0,0-.6-.9c-.6-.3-1.3-.4-1.1,1.3s.8,2.7,1.4,2.8.9-.9.2-1.4-.3-1.1,0-1.1-1-.7-.9.2a5.88,5.88,0,0,0,.3,1.4,3.11,3.11,0,0,1-.5-2.6C272.2,547,272.4,548.9,272.9,548.5Z"/><path class="cls-110" d="M282.3,610.6A25.55,25.55,0,0,0,285,609a21,21,0,0,1-3.7,3.6Z"/><path class="cls-117" d="M265.9,558.4s2.6-1.5,6.6,7c0,0,4.1,10.3-2.5,16.1,0,0,6.7-8.5.7-18.2C270.7,563.3,269.2,559.5,265.9,558.4Z"/><path class="cls-117" d="M259.6,557.4s2.3,1.7,4.1.4,7-4.6,7.8-4.6c0,0-2-.3-7.9,4C263.7,557.3,262,558.4,259.6,557.4Z"/><path class="cls-117" d="M285,555.2s2,1.3,2.3,5.2.5,10.5,1,11.9,1.3,3.4,1.3,3.4-2.2-1.6-2.6-10.2-.8-8.5-2.2-9.8Z"/><path class="cls-117" d="M260.6,561.4a11.56,11.56,0,0,0-.4,5c.5,2.1.3,3.8-.9,6.5s.4,9.1.4,9.1-2.1-6.1-.7-10.5.3-4.5.3-5.9S259.7,561,260.6,561.4Z"/><path class="cls-115" d="M268.5,601s4.3,4.1,14.1-.1c0,0,5-2.1,6.2-5.2l.8-20-1.2,20s-2.6,4.5-9.6,5.9c0,0-7.7,1.4-10.5-1.5Z"/><path class="cls-10" d="M261.5,582.9a10.36,10.36,0,0,0,6.3,1.7l-.1,3.7s-.4-2.3-2.3-2.7-2.8-.6-3.4.1-.6,2.2-.5,3.8A25.08,25.08,0,0,1,261.5,582.9Z"/><path class="cls-10" d="M292,571.6a2.26,2.26,0,0,1-2.5,1.5s.1,7.2-.2,9.3l-.5,13.4,1.6-20.9a4.45,4.45,0,0,0,1.5-2.1v-1.2Z"/><path class="cls-10" d="M264.6,661.3a6.3,6.3,0,0,0,5.2,1.5,3,3,0,0,0,1.7-1.2l.7.9a6.18,6.18,0,0,0-1.9,1c-1.1.8-5,.4-5.7-.8C264.7,662.7,264.3,662,264.6,661.3Z"/><path class="cls-10" d="M277.4,654.2s1.3,2.4,5.2,2c0,0,1.9,0,2.5-1.2,0,0,.7,1.7-2.6,2a7.14,7.14,0,0,1-5-1.1A2.77,2.77,0,0,1,277.4,654.2Z"/><polygon class="cls-112" points="288.3 548.7 286.6 548.1 286.5 548.5 288.4 549.1 288.3 548.7"/></g></g></g></svg>