<svg xmlns="http://www.w3.org/2000/svg" xmlns:xlink="http://www.w3.org/1999/xlink" viewBox="0 0 514.5 643.7"><defs><style>.cls-1,.cls-67{fill:none;}.cls-2{fill:#f3f3f3;}.cls-3{fill:#31aaba;}.cls-4{fill:#010101;opacity:0.1;}.cls-4,.cls-66{isolation:isolate;}.cls-5{fill:#35b7ae;}.cls-6{fill:url(#linear-gradient);}.cls-7{fill:#a5b2c7;}.cls-8{fill:#6d798b;}.cls-9{fill:#fed4af;}.cls-10{fill:#fbbd92;}.cls-11{fill:#d2d2d2;}.cls-12{fill:#ab6087;}.cls-13{fill:#28151a;}.cls-14{fill:#3cc3d9;}.cls-15{fill:#ecac67;}.cls-16{fill:#abddde;}.cls-17{fill:#eaae9d;}.cls-18{fill:#cf8885;}.cls-19{fill:#2d9fb2;}.cls-20{fill:#e9edf7;}.cls-21{fill:#884b6c;}.cls-22{fill:#454043;}.cls-23{fill:#129491;}.cls-24{fill:#acadae;}.cls-25{fill:#4e3136;}.cls-26{fill:#024e6c;}.cls-27{fill:#ca9e6f;}.cls-28{fill:#f2e094;}.cls-29{fill:#f2738e;}.cls-30{fill:#73a7be;}.cls-31{fill:#197daa;}.cls-32{fill:#f7eb98;}.cls-33{fill:#bc734f;}.cls-34{fill:#252a3d;}.cls-35{fill:#c0ccdd;}.cls-36{fill:#1f2746;}.cls-37{fill:#6d5539;}.cls-38,.cls-66{fill:#fff;}.cls-39{fill:#4e3c25;}.cls-40{fill:#f0c776;}.cls-41{fill:#da587c;}.cls-42{fill:#f7a8a7;}.cls-43{fill:#c45c7a;}.cls-44{fill:#73452c;}.cls-45{fill:#fccfb7;}.cls-46{fill:#69446b;}.cls-47{fill:#5a395d;}.cls-48{fill:#f38aaa;}.cls-49{fill:#edaa42;}.cls-50{fill:#a76f69;}.cls-51{fill:#a16443;}.cls-52{fill:#fab6a1;}.cls-53{fill:#e96997;}.cls-54{fill:#82596b;}.cls-55{fill:#9c605b;}.cls-56{fill:#fabca4;}.cls-57{fill:#f6ec49;}.cls-58{fill:#9b5e3f;}.cls-59{fill:#aec3e5;}.cls-60{fill:#383958;}.cls-61{fill:#765975;}.cls-62{fill:#59425c;}.cls-63{fill:#a49ccc;}.cls-64{fill:#835d39;}.cls-65{fill:#012f3b;}.cls-66{opacity:0.31;}.cls-67{stroke:#012f3b;stroke-miterlimit:10;stroke-width:0.44px;}.cls-68{fill:#8481be;}.cls-69{fill:#c8c5bd;}.cls-70{fill:#cadaf0;}.cls-71{fill:#745d9e;}.cls-72{fill:#5d4980;}.cls-73{fill:#cd8079;}.cls-74{fill:#056772;}.cls-75{fill:#ef5b79;}.cls-76{fill:#a1d28e;}.cls-77{fill:#81b16d;}.cls-78{fill:#bd6d6a;}.cls-79{fill:#194353;}.cls-80{fill:#f28186;}.cls-81{fill:#da5a7a;}.cls-82{fill:#fabfa0;}.cls-83{fill:#1d4e5e;}.cls-84{fill:#393537;}.cls-85{fill:#fee495;}.cls-86{fill:#b16979;}.cls-87{fill:#606281;}.cls-88{fill:#4e506a;}.cls-89{fill:#7a93a1;}.cls-90{fill:#fccdb0;}.cls-91{fill:#e98b41;}.cls-92{fill:#cfd7b0;}.cls-93{fill:#ffddb8;}.cls-94{fill:#9ea372;}.cls-95{fill:#57585a;}.cls-96{fill:#a2b4bf;}.cls-97{fill:#516780;}.cls-98{fill:#eeb59b;}.cls-99{fill:#fabaa3;}.cls-100{fill:#f27385;}.cls-101{fill:#756f90;}.cls-102{fill:#e8e9f5;}.cls-103{fill:#826e74;}.cls-104{fill:#ffcd64;}.cls-105{fill:#f9e8e3;}.cls-106{fill:#dfdaed;}.cls-107{fill:#fcb238;}.cls-108{fill:#645e7b;}.cls-109{fill:#c65e6f;}.cls-110{fill:#f3b29e;}.cls-111{fill:#e3978b;}.cls-112{fill:#c8c4cc;}.cls-113{fill:#f79058;}.cls-114{fill:#d4dac2;}.cls-115{fill:#e67b50;}.cls-116{fill:#b7b4bc;}.cls-117{clip-path:url(#clip-path);}.cls-118{fill:#4ec0af;}.cls-119{fill:#d3e7b9;}.cls-120{fill:#d08245;}.cls-121{fill:#5c3d50;}.cls-122{fill:#745b52;}.cls-123{fill:#c0b773;}.cls-124{fill:#2d292c;}.cls-125{fill:#ce8f6e;}.cls-126{fill:#8db6d9;}.cls-127{fill:#7d9dc9;}.cls-128{fill:#ccd5e4;}.cls-129{fill:#c77966;}.cls-130{fill:#aebbd3;}.cls-131{fill:#debd5b;}</style><linearGradient id="linear-gradient" x1="2106.85" y1="266.39" x2="2106.87" y2="266.34" gradientTransform="translate(-336926.65 -23542.33) scale(160 91)" gradientUnits="userSpaceOnUse"><stop offset="0" stop-color="#fff" stop-opacity="0.1"/><stop offset="1" stop-color="#fff" stop-opacity="0"/></linearGradient><clipPath id="clip-path"><polygon class="cls-1" points="220.1 482.4 182.1 480.4 149.4 447 170.8 381.7 205.4 370.4 226.8 402.4 234.8 473.7 220.1 482.4"/></clipPath></defs><title>Asset 4</title><g id="Layer_2" data-name="Layer 2"><g id="Layer_1-2" data-name="Layer 1"><path class="cls-2" d="M257.2,441.8c-50.8,0-105.5,8.2-105.5,26.3,0,4,2.8,7.5,7.6,10.6l62.3,74.8a29.88,29.88,0,0,1,6.9,18.6v58.4c0,9.1,14.9,13.2,28.8,13.2s28.8-4.1,28.8-13.2V572.1a28.76,28.76,0,0,1,6.9-18.6l5.3-6.4h30.6c7.9,0,15.1-4.5,18-11.4l5-12.3a13.61,13.61,0,0,0-1.9-13.7,17,17,0,0,0-13.4-6.4h-1.8l20.4-24.5c4.8-3.1,7.6-6.6,7.6-10.6C362.7,450.1,308,441.8,257.2,441.8Zm79.3,70.3a6.93,6.93,0,0,1,5.5,2.6,5.6,5.6,0,0,1,.8,5.7l-5,12.3a9.67,9.67,0,0,1-9,5.7H305.5l21.9-26.3Z"/><path class="cls-3" d="M257.2,451.8c61.8,0,95.5,11.9,95.5,18s-33.7,18-95.5,18-95.5-11.9-95.5-18S195.4,451.8,257.2,451.8Z"/><path class="cls-4" d="M271.5,465c37.2,0,64.2,3.2,79.8,6.7a3.43,3.43,0,0,0,1.4-2.3c0-6-33.7-17.6-95.5-17.6s-95.5,11.6-95.5,17.6c0,2.3,5,5.4,14.5,8.4C178.2,473.2,211.6,465,271.5,465Z"/><path class="cls-5" d="M284.8,548.4a38.54,38.54,0,0,0-8.9,24.1v58.6c-.6,1.3-7.3,4.7-19.3,4.7s-18.7-3.3-19.3-4.4V572.5a37.41,37.41,0,0,0-8.9-24.1l-51.9-62.6c20.7,5.7,51,8.4,80,8.4s59.3-2.7,80-8.4l-51.7,62.6Z"/><path class="cls-6" d="M275.9,572.3a37.41,37.41,0,0,1,8.9-24.1l51.9-62.4c-20.7,5.7-51,8.4-80,8.4s-59.3-2.7-80-8.4l99.3,91Z"/><path class="cls-7" d="M276.9,166.3s-.8.1-.9.5a22.08,22.08,0,0,0,0,2.6c.1.5.7.6.7.6l.2-.5v-3.2Z"/><path class="cls-8" d="M276.8,166.5s-.5.2-.4.4a.78.78,0,0,0,.4.3Z"/><path class="cls-9" d="M280.8,147.4l.1,24-1.8,9.8c-3.1.3-2.7-3.4-2.7-3.4s-.3.2-1.1-.3-.5-2.4-.3-4.6a4.45,4.45,0,0,1,1.7-3.1c0-.7.3-10.7.7-14.5a51.72,51.72,0,0,0-.3-8.6Z"/><path class="cls-8" d="M276.7,169.8a3.48,3.48,0,0,0,2.9.9l1.4-.3.1-2.6s-.3.8-2.2.7a2,2,0,0,1-2-1.4s-.1-.1-.2.3S276.4,169.7,276.7,169.8Z"/><path class="cls-10" d="M279.7,172.1s-.7,2.1-2.1,2.3a1.5,1.5,0,0,0-1,1.5l-.2,2.1s.8-.3.8-2.4c0,0,0-.5,1-.8A2.37,2.37,0,0,0,279.7,172.1Z"/><path class="cls-11" d="M304.2,234.6s1,1.7.7,2.5-8.4,9.4-10.8,8.6-2.8-1.6-2.5-2.5,5.3-7.8,5.3-7.8C300.4,238.1,304.2,234.6,304.2,234.6Z"/><path class="cls-11" d="M290.5,227.6s1,2.4.7,3-8.5,8.4-10.3,8.3a3.31,3.31,0,0,1-2.9-2.6c0-.9,5.5-7,5.5-7Z"/><path class="cls-12" d="M280,170.5c4.4,2.9,21.4,7.2,21.4,7.2.3,3.1-.3,36-.3,36-.7,5.2,3.5,18.9,3.5,18.9s.9,3-3.3,4.1-4.8-1.9-4.8-1.9-4.8-17.7-5.5-20.3-1.6-20.3-1.6-20.3c-1.6,5.4-2.4,11.2-2.2,14.5s4.4,18.3,4.4,18.3c-1.2,3.9-5.7,3.5-7.1,3a2.11,2.11,0,0,1-1.5-2.4c-.6-2.6-5.2-17.8-5.2-19.8s.8-24.4.8-24.4C278.6,173.6,280.1,170.5,280,170.5Z"/><path class="cls-13" d="M299.6,170l-2.6,6.4c-11.6,2.7-16.9-5.1-16.9-5.1a11.69,11.69,0,0,1,.3-4.4C288.8,174.2,299.6,170.1,299.6,170Z"/><path class="cls-9" d="M291.4,127.2l3.1,2s1.1,3.2.6,3.8-3.3,2.6-4.9,4.2a20.78,20.78,0,0,0-2.9,5.2l-.8-5a11.7,11.7,0,0,1,.9-5.1Z"/><path class="cls-14" d="M297.2,131.2s6.7,28,6.7,32.1a15,15,0,0,1-2.6,7.7c-14.1,7-21.2-3.7-21.2-3.7-1.1-4.6-.8-18.7-.8-18.7a4.64,4.64,0,0,1-3.5-2.4l-.2-3.3c.2-1.6,1-1.1,1-1.1s.3-8.7.3-9c.3-7.4,5.3-7.4,5.3-7.4.3,1.7,2.8,7.1,2.8,7.1l2.4,1-.9,3.2c0,.8.9,5.7.9,5.7s1.7-5.1,3.7-6,4.9-4.7,4.9-4.7c.3-.7-.3-2.7-.3-2.7a.75.75,0,0,0,.6-.3Z"/><path class="cls-15" d="M294.9,172.4c.2-.3.4-.1.4.1.2.2.3.3.3.5.2.3.3.7.5,1a10.2,10.2,0,0,0,.9,2.2,4.34,4.34,0,0,0,4,2,6.54,6.54,0,0,0,4.1-2.1,11.78,11.78,0,0,0,2.5-4h.1a9.68,9.68,0,0,1-.8,2.4,12,12,0,0,1-1.3,2.1,6,6,0,0,1-4.5,2.4,4.85,4.85,0,0,1-2.7-.5,4.36,4.36,0,0,1-1.9-1.9,5.64,5.64,0,0,1-.4-1.2c-.1-.3-.2-.8-.3-1.1s-.2-.8-.3-1.1-.2-.3-.3-.5-.1-.4-.3-.3Z"/><ellipse class="cls-16" cx="286.8" cy="149.6" rx="0.6" ry="0.9"/><path class="cls-17" d="M308.2,168.9c.4,3.1-.3,4.4-.3,4.4s.4,7.6.5,11.8c.1,4.5-1.6,5.2-1.6,5.2l-6.8,3.9c-1.1.5-3.8,1.8-4.9-.4-.6-1.2-1-14.4-.9-19.6a5.9,5.9,0,0,1,.2-2c.4-.9,6.9-4,6.9-4C303.3,166.4,307.7,165.7,308.2,168.9Z"/><path class="cls-18" d="M294.9,172.4a1.21,1.21,0,0,1,1.7,1.3c0,2,.2,3.7.9,4.5s7,3.6,10.3-5a8.18,8.18,0,0,1-4.2,5.8s-4.1,2-6.6-.9a5.72,5.72,0,0,1-.7-3.1C296.4,173,296.2,172.5,294.9,172.4Z"/><path class="cls-9" d="M301.2,157.4s0,2.4.2,7.2-1.7,18.9-1.7,18.9a3.57,3.57,0,0,0,4.5,1c-.4-2,2.8-14.6,2.8-14.6,1.6-9.6.3-13.7.3-13.7C302.6,153.7,301.2,157.4,301.2,157.4Z"/><path class="cls-19" d="M287.7,133.2l-.4-.5-.3.9a30.61,30.61,0,0,0-.6,3.8l.8,2.4c-.7-4.5.2-5.9.2-5.9Z"/><path class="cls-14" d="M296.1,130.5l-.2-1.8c1.9.8,2.4,3.8,2.4,3.8s5.8,3.9,7.4,6.3,1,4.3,1.3,7.8c.1.8.5,3.2.9,5.3.5.2,1,4.2,1,4.2s-1.1,3.5-6.8,3.1l-1.6-.3s-3.3-9.1-3.1-12.5-.1-5,1.6-6.4"/><path class="cls-9" d="M304.1,184.2c.3,1.7,1.1,5.1.7,6.8a10.05,10.05,0,0,1-3,4.6c-1.7,1.2-2.3.2-2.4-.3s.6-3,.7-3.6c.2-.9-.2-1.9-.3-3.4-.9.1-.4,2-.6,3s-1.4.7-1.6.3a12.32,12.32,0,0,1-.3-2.2,10.18,10.18,0,0,1,.4-2.7c.7-2.6,2-3.3,2-3.3C302.1,186,304,184.3,304.1,184.2Z"/><path class="cls-17" d="M294.8,175.6a84.11,84.11,0,0,0-2.8-9c-.7-1.9-7.8-20.8-9.8-29.5s.3-10.6.3-10.6l.3,1.7c-1.9,4.1,5.7,26,9,33.7a92.15,92.15,0,0,1,4.3,12.5C296.6,176.2,295.2,177.4,294.8,175.6Z"/><path class="cls-19" d="M297.8,146.1a16.28,16.28,0,0,0,.8,4.4,39.55,39.55,0,0,0,1.1,3.9c.1.2,0,.2.1.4-.2.7.8,3.8,1.3,3.8.1.6-.2.6-.6.6s-1.8-5.5-2.7-8.4a18.16,18.16,0,0,1-.6-4.6,11.24,11.24,0,0,1,.8-4.5A16.26,16.26,0,0,0,297.8,146.1Z"/><path class="cls-20" d="M288.6,172.9l-.1,4.2a17.62,17.62,0,0,1-4.2-1.7c-.7-2.9.1-4.3.1-4.3C285.5,172.2,288.6,172.9,288.6,172.9Z"/><path class="cls-18" d="M295.2,171.4s1,2.2.7,2.8-1,1.2-1.6-1c0,0-.1,0-.1.5,0,0,.3,1.2,1,1.3s1.2-.8.7-2.1a7.47,7.47,0,0,1-.5-1.5l5.7-3.1V168C301.3,168,295.8,170.8,295.2,171.4Z"/><path class="cls-19" d="M282.5,136.3c5.1-2.5,4.9,6.2,4.9,6.2C286.5,135.2,282.5,136.4,282.5,136.3Z"/><polygon class="cls-19" points="285.5 132.5 283.7 136 282.6 136.3 285.1 132.4 285.5 132.5"/><path class="cls-21" d="M285.8,185.5c3.9,2.9,3.7,9.4,3.7,9.4v-2a11.07,11.07,0,0,0-1.5-6.3l2.6.7-4.2-2.8-1.7-7.2Z"/><path class="cls-9" d="M287.5,133.6c-.2-.1-2.9-.7-3.5-1.6s-3-7.2-2-8.2c.8-.9-.3-1.8-.5-2.3a3.78,3.78,0,0,1-.1-1.4s-.3-3.5.7-4.4,6.8-8.8,13.1-5.1a4.22,4.22,0,0,1,1.3,3.7c-.1.3.2,7.7.2,7.7s1.7-.6,1.9,1.6-.4,3.8-1.3,4.5c-.6.5-.9.8-1.5.8l.2,1.8"/><path class="cls-22" d="M289.2,107.8c-2.4-.9-2.6,1.4-2.6,1.4a2.07,2.07,0,0,0-2.2,1.7c-2.7.4-2.4,2.2-2.4,2.2-1.9.6-1.7,1.7-1.7,1.7-.3,2.2,1.2,2.1,1.2,2.1a1.61,1.61,0,0,0,2.3,1.3,1.67,1.67,0,0,0,2.4.8,1.75,1.75,0,0,0,2.9-.1,1.92,1.92,0,0,0,2-.8l-.7,1.3c-.7,1.7,1.6,2.7,1.6,2.7a2.19,2.19,0,0,0,1,2.5c.4.3.3.3.5,1.4a1.29,1.29,0,0,0,1.4,1l.1-1.6a4.46,4.46,0,0,1,1-2.8c1.8-1.1,2.4,1,2.4,1a2.08,2.08,0,0,0,.5-2.2,2.85,2.85,0,0,0,.3-3.1,2.2,2.2,0,0,0-.4-2.6,1.92,1.92,0,0,0-1.1-2.4,2.87,2.87,0,0,0,0-2,2.61,2.61,0,0,0-2.2-1.1,2,2,0,0,0-2.2-1.6c-.3-.3-.3-1-1.6-1.3A4,4,0,0,0,289.2,107.8Z"/><path class="cls-10" d="M282.4,122.7a9.87,9.87,0,0,0,5.3,2.4c2.7.5,3.8-.7,3.8-.7s-.5.5-3,.3a18,18,0,0,1-4-1.5,7.07,7.07,0,0,1-3-1.8A3.75,3.75,0,0,0,282.4,122.7Z"/><path class="cls-10" d="M289.4,137.8l4.7-5.7a24.8,24.8,0,0,0,.4-4.2c.3.1.5.6.7.7a1,1,0,0,0,1.1.2v2.1l.3.7c-.9,1.6-4,3.8-4,3.8Z"/><path class="cls-10" d="M296.1,125.2c-.3.6.5.8.7.6s.1-2.1.4-1.5-.2,2.3-.7,2.4.1-.8-.5-.7-.6.8-.6.8a.94.94,0,0,0,1.6.6c.7-.6,1.2-3.7.3-4.1s-1.7,1.1-1.7,1.1C296,124.3,296.3,124.5,296.1,125.2Z"/><path class="cls-10" d="M284.8,124.2l.3,3.9,1.2.1.4.5a2.4,2.4,0,0,1-2.4-.3V124Z"/><path class="cls-19" d="M308.7,155.1c-2.5,4.4-8.5,3.3-8.5,3.3s0,.6.4.7c6.4,1.1,8.3-2.8,8.3-2.8A7.07,7.07,0,0,0,308.7,155.1Z"/><path class="cls-19" d="M299.4,154.6l-.3-.6a4.51,4.51,0,0,0,2.5.5,9.94,9.94,0,0,0,6.2-2.7,6.12,6.12,0,0,1-1.5,1.7,5.7,5.7,0,0,1-2.2,1.1C300.2,155.6,299.4,154.6,299.4,154.6Z"/><path class="cls-19" d="M298.1,133.7c-.3,1.3-3.8,8-3.8,8s-2-3-3-4.3-3.8,4.9-3.8,4.9l1.4-3.6s.9-1.7,1.8-2.1,3.4,3.4,3.4,3.4a37.32,37.32,0,0,1,2.4-4.3c1.7-2.9,1.6-4.4,1.6-4.4A3.42,3.42,0,0,1,298.1,133.7Z"/><path class="cls-19" d="M296.6,132.1a2.84,2.84,0,0,1-.6.9l-.8.8h0l-3,2.1c-.5.3-1,.7-1.5,1a4.89,4.89,0,0,0-1.3,1.2,3.91,3.91,0,0,1,1-1.6l1.3-1.3a33,33,0,0,1,3-2.2h0l.7-.7c.2-.3.4-.5.6-.8a3.32,3.32,0,0,0,.5-2A4.61,4.61,0,0,1,296.6,132.1Z"/><path class="cls-10" d="M287,135.3c.2-1.4.5-1.6.5-1.6,1.3.3,2.2-.4,3.5-1.4a13.31,13.31,0,0,0,2.6-2.9c-1.6,5.3-5.9,5-5.9,5.1C287.7,134.4,287.2,134.7,287,135.3Z"/><path class="cls-19" d="M279,147.7c-1.1.3-3-1.6-3-1.6a4.2,4.2,0,0,0,3.5,2.4l.4-15.4C279.2,135.6,279,147.7,279,147.7Z"/><path class="cls-19" d="M279.2,144.1a3.21,3.21,0,0,1-2.5-2.4c1.4,1.8,2.7,1.6,2.7,1.6Z"/><path class="cls-19" d="M284.5,145.5a6.76,6.76,0,0,1-3.4-1.8,1.11,1.11,0,0,1-.5-1.3,6.9,6.9,0,0,0,3.7,2.4Z"/><path class="cls-19" d="M281.1,149.6a3.09,3.09,0,0,0,3.1,2C281.1,152.7,281.1,149.7,281.1,149.6Z"/><ellipse class="cls-16" cx="286.8" cy="158.2" rx="0.6" ry="0.9"/><ellipse class="cls-16" cx="286.2" cy="166.1" rx="0.6" ry="0.9"/><ellipse class="cls-16" cx="287.5" cy="143.6" rx="0.6" ry="0.9"/><path class="cls-12" d="M280.7,168.1l-.3,4.4,1.3,1.1c-.4-1,.2-4.4.2-4.4Z"/><polygon class="cls-12" points="293.7 173.3 293.7 177 292.3 177.2 292.4 173.3 293.7 173.3"/><path class="cls-10" d="M288.4,134.2s-.8,2.7.5,4.3l-1.5,3.7a19.11,19.11,0,0,0-.3-3.3c-.3-1.4-.3-5,.4-5.4A1.74,1.74,0,0,0,288.4,134.2Z"/><path class="cls-10" d="M278.7,177l-.1,4.3a.81.81,0,0,1-.8-.1s.8.4.7-1.9C278.2,177,278.5,176.4,278.7,177Z"/><path class="cls-10" d="M307.6,157.8s-1.7,1.7-6.4,1.3a75.89,75.89,0,0,1,.1,8.9s.8-6.5.6-7.3a9.46,9.46,0,0,0,4.8-.4s.8,6.2.4,8.9C307,169.2,308.2,162.2,307.6,157.8Z"/><path class="cls-10" d="M277,147.6l.2,1.2a2.52,2.52,0,0,1,1.6,2.5c-.1,1.9.8,17.2.8,17.2l.5-.1.2-.9a23.28,23.28,0,0,1-.7-4.8c0-2.1-.6-12.4-.3-14.1Z"/><path class="cls-23" d="M279.2,148.2s-.3,13.2,1,19.2a15.21,15.21,0,0,0,14.1,5.9s-10.4-.3-13.6-6.2a55.8,55.8,0,0,1-.9-6.8c-.4-5.1-.4-12-.4-15.2Z"/><path class="cls-24" d="M285,230.7l-3.4,4.1A12.25,12.25,0,0,0,285,230.7Z"/><path class="cls-24" d="M283.5,231.3l1.7.9A1.47,1.47,0,0,1,283.5,231.3Z"/><path class="cls-24" d="M282.5,232.3l1.7.9A1.47,1.47,0,0,1,282.5,232.3Z"/><path class="cls-24" d="M281.4,233.5l1.7.9A1.41,1.41,0,0,1,281.4,233.5Z"/><path class="cls-24" d="M298.6,237.3l-3.4,4.1A12.24,12.24,0,0,0,298.6,237.3Z"/><path class="cls-24" d="M297.1,238l1.7.9C298.8,238.8,297.5,239.1,297.1,238Z"/><path class="cls-24" d="M296.1,239l1.7.9A1.57,1.57,0,0,1,296.1,239Z"/><path class="cls-24" d="M294.9,240.1l1.7.9A1.47,1.47,0,0,1,294.9,240.1Z"/><path class="cls-24" d="M297.6,244.2s.5-.5-.7-1.4c-2.8-1.9-4.1-1.6-4.1-1.6s-1.8,1.8-1.2,2.9c0,0,1.6,2.2,3.8,1.4Z"/><path class="cls-24" d="M284.3,237.1s.2-.3-1-1.1c-2.8-1.9-4.1-1.6-4.1-1.6s-1.8,1.8-1.2,2.9c0,0,2,2.2,3.8,1.4Z"/><path class="cls-24" d="M304.9,236a40.23,40.23,0,0,1-7.8,7.8l.1.8s5.4-3.8,7.7-7.4A3.91,3.91,0,0,0,304.9,236Z"/><path class="cls-24" d="M291.1,229.7s-1.7,3-7.8,7.4l-.1.8s5.6-3.5,7.9-7.1C291.2,230.8,291.3,230.5,291.1,229.7Z"/><path class="cls-21" d="M285.8,185.5s-4.4-2.4-4.3-4l4.5,3.2Z"/><path class="cls-25" d="M262.7,403.4s-5.2,6.8-5.5,7.8.1,1.7,2.5,2.5,10.5-7.8,10.8-8.6-.9-3.1-.9-3.1S266.2,406,262.7,403.4Z"/><path class="cls-25" d="M249.1,397.2s-5.5,6.3-5.5,7.2a3.19,3.19,0,0,0,2.9,2.6c1.7.2,10-7.7,10.3-8.3s-.7-3-.7-3Z"/><path class="cls-26" d="M244,351.2s-.8,22.4-.8,24.4,4.6,17.2,5.2,19.8a2.21,2.21,0,0,0,1.5,2.4c1.5.4,5.9.9,7.1-3,0,0-4.2-15-4.4-18.3s.6-9.1,2.2-14.5c0,0,.9,17.7,1.6,20.3s5.5,20.3,5.5,20.3.6,3,4.8,1.9,3.3-4.1,3.3-4.1-4.2-13.7-3.5-18.9c0,0,.6-32.8.3-36,0,0-15.1-3-19.4-5.9C247.4,339.6,244,341.4,244,351.2Z"/><path class="cls-9" d="M239.6,338a10.74,10.74,0,0,0-1.2,3c-.2,1.3-.3,3.4-1,4.6,0,0-.9.8.9.9s1.6-1.3,1.6-1.3-.8,5.1,2.6,5.1l.8-.1-.3-10.7A15.84,15.84,0,0,1,239.6,338Z"/><path class="cls-10" d="M239.6,337.9a8,8,0,0,0,2.3,1.6v1a3.82,3.82,0,0,0-2.7-1.7Z"/><path class="cls-27" d="M254,366.2c-.3,0-1,.6-.9,2.3s-.3,15.1-.3,15.1a1.59,1.59,0,0,0,1.1,2.2c1.8.6,3.4,1.6,4.6.9S278,375,278,375a1.69,1.69,0,0,0,1.2-1.7c0-1.4.1-16.6.1-16.6l-5.7.4Z"/><path class="cls-28" d="M249.3,299.2s-2.5,3-2.3,9.8-.1,21.7,0,23.5.3,5.1.3,5.1,5.3,4,9.8,3.8a43.27,43.27,0,0,1-.6-11.2c.6-5-.5-13.8.3-17.1s4.4-9.4,5-13.2l-.4-1.4Z"/><path class="cls-29" d="M249.4,304.5c-.2.2.4,1.9,1.1,2.9a1.07,1.07,0,0,0,1.6.3l1.5-2.1-1.7-2.1A17.12,17.12,0,0,0,249.4,304.5Z"/><path class="cls-29" d="M250.5,307.1s-1.3,8.6-2.4,16.6a42.59,42.59,0,0,0,2.8,7.2s2.5-4.3,3.2-5.7c-.1-.3-2.3-17.8-2.3-17.8Z"/><path class="cls-30" d="M261.2,297.8s1.6,1.1-.3,5.1-4.9,9-4.6,16,.1,13.7.3,18.5c.2,4.1-.5,7.5-.1,10a27.2,27.2,0,0,1,.1,5.7,11.13,11.13,0,0,0,6.8.9s6.1-.2,9.5-4.2a27,27,0,0,0-1.3-4.6s2.7-9.3,2.9-14-1.9-13.8-2.3-17.2.3-5.4-1.3-7.8-7.4-6.3-7.4-6.3-.4-3-2.4-3.8Z"/><path class="cls-30" d="M246.7,293.2a5.51,5.51,0,0,0-5.9,5.2s0,12.5-.1,15.3-.8,15.6-.9,17.5a13.8,13.8,0,0,1-.2,2.5,7,7,0,0,0-.4,1.9,11,11,0,0,0,.2,2.2,7.19,7.19,0,0,0,2.4,1.6s-.4,6.4-.3,9.1a7,7,0,0,0,2.2,2.7c1.4.9,2.2,1.7,2.9,1.3s-.1-3,.1-5.6.4-13.8.4-19,.3-9.9,0-13.5-.4-12.5,1.8-15.1C249.1,299.5,246.7,297.9,246.7,293.2Z"/><path class="cls-31" d="M244,299.9c0,1.7-.1,3.3-.1,5s-.1,3.3,0,5,.2,3.3.2,5-.1,3.3-.2,5-.3,3.3-.4,5-.3,3.3-.4,5l-.5,5c-.2,1.7-.3,3.3-.6,5,0-1.7.1-3.3.2-5l.3-5c.1-1.7.2-3.3.3-5s.3-3.3.3-4.9.2-3.3.3-5-.1-3.3,0-5A67.66,67.66,0,0,1,244,299.9Z"/><path class="cls-32" d="M251.8,303.6a26.93,26.93,0,0,0,9.4-5.7s.6.3.7,2a36.67,36.67,0,0,1-8.3,7.1A14,14,0,0,0,251.8,303.6Z"/><path class="cls-32" d="M250.7,300.4s.1,2.3,1.1,3.2a13.4,13.4,0,0,1-3.6,1.7s-.1-4.5.8-6A3.4,3.4,0,0,0,250.7,300.4Z"/><path class="cls-31" d="M242.2,304.5l.9,2.9a7.37,7.37,0,0,1,.4,1.4,4.29,4.29,0,0,1,0,1.6h-.1a9.13,9.13,0,0,1-.8-1.3,6.64,6.64,0,0,1-.3-1.5c0-1-.2-2-.1-3.1Z"/><path class="cls-31" d="M246.8,346.7c.6-7.3.7-26,.5-28.6-.2-3.7-.7-10.9.3-15.2l1.4-3.5-1.4-2s-1.9,2.6-2.2,10.6c0,0-.7,6.2-1,7.2,0,0,2,3.2,1.7,5.2s-1.9,3.5-1.1,7.6c.6,3.1,1.4,11.2,1.7,14.6.1,1,0,5.3,0,5.3Z"/><path class="cls-9" d="M251.9,303.6a24.13,24.13,0,0,0,9.3-5.7L261,296c.5.2,1.1-.2,1.7-.6s1.1-2.4,1-4.6-1.9-1.6-1.9-1.6-.3-7.3-.2-7.7a4.22,4.22,0,0,0-1.3-3.7c-6.3-3.7-9.2.2-11.7.5s-2,4.1-2,4.1v4.9a3.78,3.78,0,0,0,.1,1.4,2.52,2.52,0,0,1,.1,1.5,8.06,8.06,0,0,0-.2,3c-.1,5.9,3.4,7,3.8,7.1S250.5,302.3,251.9,303.6Z"/><path class="cls-33" d="M246,276.8a2.48,2.48,0,0,0,2.6.4c1.6-.6,5.4-3.7,7.6-3s6.5,2.4,6.9,3.5a4.33,4.33,0,0,1,0,2.4s1.3.4,1.3,2.6-.2,6.6-.7,8.1c0,0-.6-2.2-2.4-1a4.14,4.14,0,0,0-1,2.8l-.1,1.6-1.6.7.2-1.7a2.39,2.39,0,0,0-.5-1.4,6.91,6.91,0,0,1-1.6-2.9,2.45,2.45,0,0,1,.8-2.5l2.3-2.2-3.6,2.1a4.63,4.63,0,0,1-4.2.1l-5.5-3.1C246.5,283.2,243.4,281.3,246,276.8Z"/><path class="cls-10" d="M250.7,300.4a7,7,0,0,0,5.6-.7,8.14,8.14,0,0,0,2.6-3.3s.4,2.2-3,3.9c-1.4.7-2.5.6-3.5,1.2-.5.3-.7,1-.6,2A5.1,5.1,0,0,1,250.7,300.4Z"/><path class="cls-10" d="M246.7,288.5a7.07,7.07,0,0,0,3,1.8,24.77,24.77,0,0,0,4,1.5c2.4.3,3-.3,3-.3s-.3,1.5-3,1a15,15,0,0,1-6.5-3A2.43,2.43,0,0,0,246.7,288.5Z"/><path class="cls-10" d="M261,296a1.69,1.69,0,0,1-.7-.3c-.2-.1-.4-.6-.7-.7,0,0,.2,3.9-2.1,5.8a23.63,23.63,0,0,0,3.7-3Z"/><path class="cls-27" d="M253.8,367.1l3.9,2.2a.75.75,0,0,0,.9,0l20.5-12.2a.56.56,0,0,0,0-.9l-3.8-2.1a1.28,1.28,0,0,0-1.2,0c-1.8,1-7.3,4.3-12.2,7.1-3.5,2.1-6.7,3.9-8.1,4.9A.61.61,0,0,0,253.8,367.1Z"/><path class="cls-10" d="M260.8,291.7s.8-1.6,1.7-1.1.4,3.5-.3,4.1a.94.94,0,0,1-1.6-.6s0-.7.6-.8,0,.9.5.7a2.53,2.53,0,0,0,.7-2.4c-.3-.6-.3,1.3-.4,1.5s-1,0-.7-.6C261.5,291.7,261.2,291.5,260.8,291.7Z"/><path class="cls-31" d="M239.6,334s.6,1,2.8,1.5l-.1.4C242.2,335.9,240,335.6,239.6,334Z"/><path class="cls-9" d="M264.3,351a15.35,15.35,0,0,0-1.7,3.9s-.8,1.8-.4,2.7.5,1.4.5,1.4l1.6-1.1s-.4-1.6.5-1.6,1.4,2.2,1.6,2.7-1.6,1.7-1.4,2.2.7,1.6,2.4.3c0,0,2.5-1.3,3.3-2.9s-.7-5.7-1.4-6.9C269.2,352,266.6,353.6,264.3,351Z"/><path class="cls-31" d="M264.3,308.9a14.22,14.22,0,0,0-1.3,5,10.85,10.85,0,0,0,.8,4.7,88.22,88.22,0,0,1,2,8.9,9.86,9.86,0,0,1,.3,2.4v2.4c0,1.6-.1,3.2-.2,4.8-.2,3.2-.3,6.4-.6,9.6h0a20.26,20.26,0,0,0-.6,4.2v-.1c.1.2.3.3.5.5a1.33,1.33,0,0,0,.8.3,4.67,4.67,0,0,0,1.7.3,4.19,4.19,0,0,0,1.6-.4,3,3,0,0,0,1-1.4h0c.6-2.2,1.1-4.3,1.7-6.4-.4,2.2-.9,4.4-1.3,6.5h0a4.25,4.25,0,0,1-1,1.7,3,3,0,0,1-1.8.6,6.28,6.28,0,0,1-1.9-.3,2.72,2.72,0,0,1-1.7-1.2h0v-.1a21.18,21.18,0,0,1,.5-4.4v.1c.3-3.1.3-6.4.5-9.6.1-1.6.2-3.2.2-4.8a19.22,19.22,0,0,0,0-2.4,19.67,19.67,0,0,0-.3-2.4c-.6-3.1-1.3-6.3-2.1-9.3A10.39,10.39,0,0,1,264.3,308.9Z"/><path class="cls-31" d="M264.9,346.7a9.38,9.38,0,0,0,1.5.6,4,4,0,0,0,1.5.3,7.57,7.57,0,0,0,1.5.1c.5,0,1-.1,1.6-.1a7.14,7.14,0,0,1-1.5.8,3.22,3.22,0,0,1-1.7.1,5.78,5.78,0,0,1-1.7-.6A2.34,2.34,0,0,1,264.9,346.7Z"/><path class="cls-34" d="M247.2,336.9a17.89,17.89,0,0,0,9.4,4l-.2,2v1.8s-6.3-.9-9.3-3.7Z"/><path class="cls-35" d="M249.6,338.6a6.79,6.79,0,0,0,0,4.2,7.16,7.16,0,0,0,4.2,1.4l.1-3.9A15.4,15.4,0,0,1,249.6,338.6Z"/><path class="cls-36" d="M250,345.1l1.7,7.2,4.2,2.8-2.6-.7a12.06,12.06,0,0,1,1.5,6.3v2s.3-6.5-3.7-9.4Z"/><path class="cls-10" d="M237.4,345.7s1.1,1.2,2.3-.7a4.78,4.78,0,0,0,.5-1.3c.1-.5.2-.9.2-.9s.6.2.1,1.4a14.81,14.81,0,0,1-.8,1.7,1.94,1.94,0,0,1-2,.5s-.6-.2-.5-.5Z"/><path class="cls-37" d="M265.6,357.1l-3.3,2.3s-.8.3-.8,1.9v2.6l1.6.6,1.3-.7v-1.7s-.1-1,.3-1.4,1.1-.7,1.7-1.2A7.21,7.21,0,0,0,265.6,357.1Z"/><ellipse class="cls-38" cx="251" cy="333.9" rx="0.5" ry="0.7"/><path class="cls-10" d="M240.5,343s1.1.1,1.3-.6v.9s-.3.3-1.3.3Z"/><path class="cls-31" d="M256.5,341.9s.4-2.7.7-8.6,2.7-12.9,2.7-13.2-1.2-4-1.2-4,1.5-.1,2-.7-.5-3.7.9-7.2,2.2-5.5,1.8-8.6c0,0-.6-3-2.4-3.6l.2,1.9s2,1.1-1,6.3c0,0-4.3,6.9-4.1,14.2,0,0,.3,8,.1,10.2S256.8,339.4,256.5,341.9Z"/><path class="cls-39" d="M262.9,364.4l1.3-.7v-2.1a1.49,1.49,0,0,1,.8-1.4l1.3-1a8.74,8.74,0,0,0-.3-1.4,30.28,30.28,0,0,1-2.4,1.9C262.6,360.6,262.9,364.4,262.9,364.4Z"/><path class="cls-31" d="M261.5,312a9,9,0,0,0,.6,3.1l.7.9a7.57,7.57,0,0,1,.1,1.5,5.43,5.43,0,0,1-1.5-2.5,7.72,7.72,0,0,1-.2-1.5A3.34,3.34,0,0,1,261.5,312Z"/><path class="cls-40" d="M247.2,336.9s2.9,3.1,9.4,4c0,0-.3-6.2-.4-8.4s.1-10.2,0-10.9a28.77,28.77,0,0,1,1.9-13s1.4-3.3,2.5-5.2a20.69,20.69,0,0,0,1.2-3.3s-4.6,5.2-8.2,7a20.18,20.18,0,0,0,6.9-5s-3.7,5.5-4.4,10.2-.4,19.5-.4,21.6.3,6.1.3,6.1S252.5,340,247.2,336.9Z"/><path class="cls-40" d="M248.5,300.6a39.3,39.3,0,0,0-.3,4.8,3.14,3.14,0,0,0,1.2-.4,6.18,6.18,0,0,0,1,2.4s-1.3,8.5-1.6,10.5l1.3-10.3-1-1.8a7.1,7.1,0,0,1-1.4.2,51.53,51.53,0,0,0-.2,7.4,180.51,180.51,0,0,1-.4,23.7s.1-13.6.2-15.4a75.21,75.21,0,0,0-.3-8.7s-.2-7,.5-9.9A26,26,0,0,1,248.5,300.6Z"/><path class="cls-41" d="M249.7,305.4s1.6-.9,2.1-1.3l1,2.2a7.59,7.59,0,0,1-.9,1.5l-1.3-.5,1.3.8,1.9,16.8s-2,4.3-2.8,5.9c0,0,2.6-3.6,3.2-5.7,0,0-2.2-16.7-1.9-17.5a14.17,14.17,0,0,0,1.1-1.6,11.14,11.14,0,0,0-1.4-2.5l-2.3,1.3C249.5,304.9,249.4,305.1,249.7,305.4Z"/><polygon class="cls-42" points="250 310.5 252.3 312.9 252.5 315.2 249.6 312.9 250 310.5"/><polygon class="cls-42" points="249.2 315.4 252.9 318.5 253.3 321.3 248.9 317.9 249.2 315.4"/><polygon class="cls-42" points="248.5 320.2 253.6 324.1 253.7 325 253 326.6 248.2 322.7 248.5 320.2"/><path class="cls-42" d="M248.9,326.2l3.2,2.1-1.3,2.6A28.41,28.41,0,0,1,248.9,326.2Z"/><path class="cls-36" d="M251.3,353.4s-2.8-.7-3.6-2c0,0,2.5.9,3.6,1.2Z"/><path class="cls-10" d="M264.3,351s.4,1.4,3.7,1.5c0,0,1.1,0,1.4-.5a14.24,14.24,0,0,1,1.5,4.9s-1.2-2.6-2.5-3.1a5.23,5.23,0,0,1-4.4-2.4Z"/><path class="cls-10" d="M266.4,359.4s-.5-2.8-1.7-3.1c0,0,1.8-.8,1.7,3.3"/><path class="cls-43" d="M138.1,329.1c-3.8,4.6-6.3,19.1-6.3,19.1,1-1.6,5.2-2.3,5.2-2.3C136.8,342.9,138,329.1,138.1,329.1Z"/><path class="cls-44" d="M138.2,270.8s-2.4-1.3-4,2.1-.1,10.5,1,12.7,1.7,4.2,1.7,4.2l3-2a3.73,3.73,0,0,0,1.2-2.4c1.5-1.9.8-6.2.8-6.2Z"/><path class="cls-45" d="M134.9,375.4a5.72,5.72,0,0,0-.6,2.5c0,.5.5.8.8,1.2.9,1.2,5,4.1,5,4.1a5.77,5.77,0,0,1,4.5-1.7l-3.5-5.1Z"/><path class="cls-45" d="M150.9,368.9c-.1.2-.6,1.9-.7,2.1a2.44,2.44,0,0,0,.5,2.8l5.2,4.4,4.6-1.9c-1-1.7-4.2-5.7-4.2-5.7Z"/><path class="cls-45" d="M159.7,323l1,9.7c1.6-.7,2.1-1,2.5-3.7s-.5-7.9-.5-7.9Z"/><path class="cls-46" d="M134.9,375.2c.1-7,0-8.1.5-13.7.2-1.6.4-3,.7-5.4.5-6-.9-14.4-.9-18.1,0-5.1,2-8.5,2.3-8.6,16.5-2.6,23,14.8,23.1,14.8-.3,4.9-4.1,26.3-4.1,26.3-1.1,2.3-4.5,1.1-4.5,1.1a3.18,3.18,0,0,1-1.6-3.3s.7-10.7.7-14.5a16,16,0,0,0-.8-5.7s-3.9-2.3-4.4-.3c-.2.9-.2,3.7-1,7.4-.9,4.6-2.5,10.4-2.7,13a51.38,51.38,0,0,1-1.2,8.2,4,4,0,0,1-3.5,1.1C136.2,377.2,134.9,376.2,134.9,375.2Z"/><path class="cls-47" d="M160.3,347.1s-5.4,3.3-9.3,4l.1,1.4s5.3.1,8.8-2.7Z"/><path class="cls-47" d="M138.4,331.9s2.5,10.8.4,20.6c0,0,3.9,1.8,6.3,1.1a51.08,51.08,0,0,0,.6-5.5C145.7,347.1,140.5,330.1,138.4,331.9Z"/><path class="cls-48" d="M131.6,331.6c-.9,1.8-2.3,10.2-2.5,14.6s3.2,5.1,3.2,5.1a13.38,13.38,0,0,1,.1-4.4c.6-6.9,5.1-14.7,5.1-14.7l1.2-7.7,1,8.5a50.54,50.54,0,0,1,.8,10,49.48,49.48,0,0,1-1.3,9.5c2.5.5,10.2-.3,16.6-2.6s7.4-4.8,7.4-4.8a44.15,44.15,0,0,0-.2-5.6c-.3-2.4-2.4-16.4-2.4-16.4,3-1.2,3.4-2.5,3.3-4.6s-1.3-10-1.6-16.2-1.6-13.7-2.9-17.3-3.9-3.3-3.9-3.3a15.44,15.44,0,0,1-1.2,4.7,31.6,31.6,0,0,1,1.7,9.8c-.9,2.9-4.4,3.2-6.4,3.3s-4.1-2.9-5.7-6.7a7.62,7.62,0,0,0-5.6-4.3c-2.8,1.4-4.4,5.3-5.8,8.8s-3.2,15-3.5,19.9C128.8,321.9,131.7,331.5,131.6,331.6Zm5-14.2s.6-7.9,2.1-10.7a6.11,6.11,0,0,1,.3,5.1A47.62,47.62,0,0,1,136.6,317.4Z"/><path class="cls-49" d="M138.2,275.2c-1.3,0-1.8-1.3-1.9-3.8s1.5-2,1.5-2Z"/><path class="cls-45" d="M154.3,285.8c.9,2.1,2.3,8.8,1.8,10.5s-4.4,3.7-7,3-4.6-5.2-5.7-7.5-5.1-3.6-5.1-3.6c.3-.4,1.7-1,3.1-2.2s.7-4.4.7-4.4a1.63,1.63,0,0,0,1.7.6C146.1,284.5,154.4,285.8,154.3,285.8Z"/><path class="cls-45" d="M142.3,267.2c-5.7,2.6-1.2,12.5-1.2,12.5-.1,2.4,1.1,3.7,1.7,3.6,0,0,4.6,5.1,7.9,5.1s4.6-2.6,5.5-8.5c.1-.5-.2-1.3-.1-1.8a10.46,10.46,0,0,0,.4-1.7,19.82,19.82,0,0,0-.7-6.4C153,263.2,148,264.6,142.3,267.2Z"/><path class="cls-50" d="M133.3,317.4l3,12.7s5.5,5.1,6.2,5.1,5.1-2.4,5.5-3.5-1.7-10.1-2.1-11.4-10-7.4-10-7.4Z"/><path class="cls-51" d="M156.4,267.9a6.64,6.64,0,0,0-2.2-2.7,13.44,13.44,0,0,0-6.9-3.3c-2.5-.2-8.4,2.1-9.4,4.5a22.27,22.27,0,0,0-.4,5.2c.4,2-.3,2.4.5,5.1a15.23,15.23,0,0,0,1.2,2.9,2.14,2.14,0,0,0,2.3.2,2.44,2.44,0,0,0,1.8-.8c.3.8-.6,2.2,1,3a1.22,1.22,0,0,0,1.9-.9c-.7,1.3-2.3.6-1.9-1s2-1.2,2.5-3.7,1-2.4,4.8-3.2,3.9-3.4,3.9-3.4a5.42,5.42,0,0,1,.6,1.6S157.4,270.2,156.4,267.9Z"/><path class="cls-52" d="M156.4,277.2c-2.3,1.5-5.5,2.9-6.1,2.6a9.9,9.9,0,0,1-2.4-.1c.3-.5,1.1-.3,3-.5s5.7-2.5,5.7-2.5Z"/><path class="cls-52" d="M152.4,283.1c.7.3,1.3-.2,1.1-.6a5.29,5.29,0,0,1-.4-2.6c.2-.6.4-.3.4-.3a5.06,5.06,0,0,0,.3,2.8c.6,1.7-1.8,1.7-2,.8C152,282.7,152.4,283.1,152.4,283.1Z"/><path class="cls-52" d="M154.3,288c-.8,1.2-3.2,1.4-3.2,1.4s-6.1.2-6.7-5.6a8.21,8.21,0,0,0,4.9,4.1c3.8.9,5.2-1.6,5.2-1.6l.4,1.1s2.2,8.3,1.1,9.5A24.76,24.76,0,0,0,154.3,288Z"/><path class="cls-53" d="M158.6,292a10.73,10.73,0,0,1,2.5,5.1c.5,3-1.1,5.9-2.6,8.2s-1.2,3.5.7,8.7a20.82,20.82,0,0,1,1.4,9c-.4-8.2-3.5-9-3.7-12.9s1-4.7,3-9-1.5-7.8-1.8-9.1a12.11,12.11,0,0,1,.3-3.9A20.6,20.6,0,0,0,158.6,292Z"/><path class="cls-53" d="M144.6,306.6c3.7,1.9,7.4-.3,7.4-.3C148.3,310.3,144.6,306.6,144.6,306.6Z"/><path class="cls-52" d="M161.7,330.4l-.1-1.2s.5-1.3.6-1.6.1-3.1.1-3.1C163.2,327.2,161.6,330.4,161.7,330.4Z"/><path class="cls-52" d="M142.8,285.9a3.34,3.34,0,0,1-2.6,2.3c3.5,1.3,4.4,4.4,5.7,7a12.09,12.09,0,0,0,3.8,4.2c-2.7.1-4.6-4.3-4.6-4.3a35.25,35.25,0,0,0-2.6-4.4c-.9-1.2-4.1-2.4-4.1-2.4l3.1-2.2a3.09,3.09,0,0,0,.5-3.6c1,1.1,1.8.2,1.8.2C144.7,284.7,143.2,284,142.8,285.9Z"/><path class="cls-9" d="M132.6,333.1a17.5,17.5,0,0,0-.3,6.5c.2,2,1.3,2.4,2,3.1s1.5,1.3,2.1.3c.3-.4-.1-2.5-.1-3.9a9.92,9.92,0,0,1,.3-2.6c.2.9,0,4.7,1.1,4.4s.8-1.4.9-4a15,15,0,0,0-.7-4.9C135.9,334.5,132.6,333.1,132.6,333.1Z"/><path class="cls-54" d="M155.8,376.8c-2.9-1.2-5.7-5.2-5.7-5.2a2.51,2.51,0,0,0-.3,1.5c2,2.6,6.2,6.2,9.5,7.3s3.3-.9,3.3-.9A8.3,8.3,0,0,0,160,375,4.36,4.36,0,0,0,155.8,376.8Z"/><path class="cls-54" d="M140.1,382.5c-2.9-1.2-5.7-5-5.7-5a2.21,2.21,0,0,0-.4,1.3c1,1.6,6.3,6.1,9.6,7.2s3.3-.9,3.3-.9a7.41,7.41,0,0,0-2.6-4.3A4.39,4.39,0,0,0,140.1,382.5Z"/><path class="cls-48" d="M129.1,318c-.3,2.9,2,10.7,2,10.7l1.1,4.3a4.64,4.64,0,0,0,5.5-1.3c-1.4-5.2-1-19.4-1-19.4Z"/><polygon class="cls-55" points="143 321.7 136.8 316.9 136.6 317.4 142.7 321.9 142.1 335 142.5 335.2 143 322 143 321.7"/><path class="cls-55" d="M142.7,319.7l-5.7-4.3A16,16,0,0,0,142.7,319.7Z"/><path class="cls-55" d="M144.2,324.2c-.2-1.6-1.5-13.8-1.5-13.8-.9-15.5-2.4-17.2-2.4-17.2a3.94,3.94,0,0,0-4.4-2.6,2.32,2.32,0,0,1,1.7-1.6c3.3-.8,5,4.9,4.9,4.5,1.7,4.2,3.2,30.5,3.2,30.5C145.7,325.7,144.3,325.7,144.2,324.2Z"/><path class="cls-53" d="M138.8,304.6l.3-1.1c1.2-.7,2.3-3.4,2.3-3.4A6.24,6.24,0,0,1,138.8,304.6Z"/><path class="cls-53" d="M138.9,302.3c-1.5,3-2.6,11.2-3,14.8s1.9,14.5,1.9,14.5c-.8,2.1-5.5,1.3-5.5,1.3,5.1,1.8,6.2-1,6.2-1s-1.4-9.4-1.8-11.8,1.3-13.8,3.1-17.8.9-6.5.9-6.5C140.3,297.4,140.3,299.4,138.9,302.3Z"/><polygon class="cls-56" points="153.8 298.7 152.9 296.5 153 299 153.8 298.7"/><path class="cls-56" d="M141.8,279.8s-.2,2.1.5,2.3,1.2-.5.9-.8-.9-.6-.3-1.5S141.8,279.8,141.8,279.8Z"/><path class="cls-55" d="M142.7,321.9l1-1.4,2.2-.2s2.7,9.9,2,11.7a17,17,0,0,1-5.4,3.3l-.2-.8s3.5-.9,5.3-3.1a57.1,57.1,0,0,0-1.9-10.7l-1.6.1-1.4,1.7"/><path class="cls-57" d="M153.1,288.9s1.1,3.3,0,4.5-3,1.6-6-1.4a51.19,51.19,0,0,0-6.1-5.3s-.2-1.2,1.1,0,6.6,6.6,7.9,6.9,4,.7,2.5-4.5Z"/><circle class="cls-57" cx="152.1" cy="294.2" r="0.7"/><circle class="cls-57" cx="143" cy="282.9" r="0.5"/><path class="cls-52" d="M136.7,335.7a20,20,0,0,1-.4,2.6,16.86,16.86,0,0,0,.3,4.5s-.1-5,.3-5.5v1.6C136.8,338.9,137.6,336.7,136.7,335.7Z"/><path class="cls-52" d="M138.1,332.4s-.9,1.8-5.5.7a13.25,13.25,0,0,0-.4,5.2s.5-3.8,2-3.6,4-1.6,4.3.8l.2,1.6A9.22,9.22,0,0,0,138.1,332.4Z"/><path class="cls-52" d="M162.9,321.8a7.68,7.68,0,0,1-2.2,1.2l.4,2.6s1-2.2,1.6-1.4a4.9,4.9,0,0,1,.7,2.6A26.9,26.9,0,0,0,162.9,321.8Z"/><path class="cls-52" d="M156.5,370.5s-.5,2-4.1,1.2c0,0-1.5-.5-1.7-1.7a11.32,11.32,0,0,0-.6,1.6s.2-.8.9-.2a4.8,4.8,0,0,0,6.3.3Z"/><path class="cls-52" d="M141.1,376.4s-2.4,2.3-4.9.5c0,0-1.3-.7-1.3-1.5s-.4,1-.4,1A6.31,6.31,0,0,0,142,378Z"/><path class="cls-53" d="M159.3,289.5l-.9,2.8.7.9A25.11,25.11,0,0,0,159.3,289.5Z"/><path class="cls-51" d="M141.2,279.8a3.64,3.64,0,0,0,.8,3,6,6,0,0,1,.3,1.1s-1.8.7-4-6.3Z"/><path class="cls-58" d="M155.2,267.3a3.85,3.85,0,0,1-2.2,5.3A5.51,5.51,0,0,0,155.2,267.3Z"/><path class="cls-58" d="M144.1,276.9s-.4,3-3,2.7A4.81,4.81,0,0,0,144.1,276.9Z"/><path class="cls-10" d="M221.9,189.6s-.9,3.4-.2,4a1.77,1.77,0,0,0,1.6.3S221.6,194.2,221.9,189.6Z"/><path class="cls-9" d="M341.5,361a69.24,69.24,0,0,0,.4,9.7c.4,3.7-.6,13.5-.6,14.2a4.87,4.87,0,0,1,2.2,3.4c.3,2.2.5,4.2-.3,4.6s-1.1.3-1.1.3.2,4-2.9,3.6l-1.6-10,.1-24Z"/><path class="cls-10" d="M339.1,387.6a6.91,6.91,0,0,0,2.9,1.8s.1,3,.7,3.5c0,0-.7,1-1.2-2.9C341.4,390.2,339.5,389.7,339.1,387.6Z"/><path class="cls-59" d="M320.6,340.2a7.5,7.5,0,0,0-3.6,1.7c-2.1,1.6-5.2,1.6-7,3.7s-2,5.2-2.4,9-3.6,4.6-1.2,13.8c0,0,.8,3.7,1.1,6s1.7,5.2,5.3,5.5L330.1,350Z"/><path class="cls-60" d="M314.2,451.3A1.69,1.69,0,0,0,313,453c.1,1.3,1.7,2.9,3,4.2,1.7,1.7,4.1,3.8,5.9,4.3s4.6-.9,3.6-3l-7.3-7.1h-4Z"/><path class="cls-60" d="M327.4,444a2.16,2.16,0,0,0-1.7,2.1s-.1.6,1.4,2c2,1.9,3.8,3,5.1,4.2,1.1,1.1,3.2,2.6,5.1,2.3s3-2.2,1.8-3.5C339,451.1,329.9,442.9,327.4,444Z"/><path class="cls-9" d="M327.2,443.3s-1.6,1.9.6,3.9l7.6,5.9s1.8.7,2.8-.3c1.3-1.3,1.6-2.4-.6-4.5l-3.5-3.9C334,444.4,329.2,440.8,327.2,443.3Z"/><path class="cls-9" d="M314.7,449.8s-1.5,1.9-.4,3.2,5,6.4,7.6,7,4.8-1,3.3-3l-5.1-6.5-4.8-.4"/><path class="cls-61" d="M339.2,399.5s.8,22.4.8,24.4-4.6,17.2-5.2,19.8a2.21,2.21,0,0,1-1.5,2.4c-1.5.4-5.9.9-7.1-3,0,0,4.2-15,4.4-18.3s-.6-9.1-2.2-14.5c0,0-.9,17.7-1.6,20.3s-5.5,20.3-5.5,20.3-.6,3-4.8,1.9-3.3-4.1-3.3-4.1,4.5-15.6,4.5-25.1c0,0-1.6-32.2-1.3-35.5,0,0,17.1,1.2,21.4-1.7C337.7,386.4,339.1,389.6,339.2,399.5Z"/><path class="cls-62" d="M333.1,393.3l-1.7,7.2-4.2,2.8,2.6-.7a12.06,12.06,0,0,0-1.5,6.3v2s-.3-6.5,3.7-9.4Z"/><path class="cls-63" d="M315,372.3l-.3,15.4s2.8,5.8,11.8,4.7c0,0,8.5-1.2,11.6-6.7,0,0,.9-19.7.8-22.4Z"/><path class="cls-63" d="M320.8,347.6l.8-1.1s-1.4-.6-4.9,2.7l-3.4,3s-1.9,1.6-1.9,6.8a58.85,58.85,0,0,1-1.7,12.5c0,.5,3.3,4.5,8,2.4,0,0,14.5.2,20.9-5l.3-5.8s1.7.6,3-2.4l-.7-13.5s-.6-7.3-5.4-7.2Z"/><path class="cls-9" d="M311.2,371.5s-1.3,4.1.3,13.7c0,0,3.2,12.6,2.8,14.6a3.74,3.74,0,0,0,4.5-1s-1.9-14.1-1.7-18.9.2-7.2.2-7.2S315.9,368.9,311.2,371.5Z"/><path class="cls-9" d="M321.5,336.2s-1.7-.3-1.6,1.1.5,4.2,1,4.9a1.94,1.94,0,0,0,1.6.6,6.57,6.57,0,0,1-.3,3.2l-1.3,1.6a10.26,10.26,0,0,1,4.2,4.5c1.1,2.9,1.7,4.2,3,4s1.1-.1,1.1-.1l1.6,4.9.7-5.9a3.31,3.31,0,0,0,1.6-2.6c.3-1.9-1-6.1-1-6.1Z"/><path class="cls-9" d="M335.6,327.5s1.3-.7,1.1,3.6c0,0,.3,4.8-.1,5.7-.2.3-.3.8-.5,1.1a1.94,1.94,0,0,0-.2,1.5,2.47,2.47,0,0,1,0,1.7l-1.9,5.1a1.76,1.76,0,0,1-.9,1l-1.3.8a2.78,2.78,0,0,1-1.8.3,7.14,7.14,0,0,1-5.2-4l-1.7-1.8s-.9,1.3-2.2-.3-1.2-4.9-.8-6.4S326.1,321.3,335.6,327.5Z"/><path class="cls-64" d="M329.2,336.6s7.9-1.6,7.2-7.1l.2,3.3s1.6.3,1.3-3.9a3.72,3.72,0,0,0-3.2-3.7s-.9-2.1-4.1-2.3c0,0-3.6-1.9-6.3.5a3.29,3.29,0,0,0-2.6,1.3,4.89,4.89,0,0,0-2.8,2.5c-.9,1.6-.3,2-1,3.1,0,0-1.5,2,.5,7.1.5,3.2,1.8,3.1,1.8,3.1s-1-4.5.8-4c0,0,1.6.3,1.7,1.3s-.2,2.8.6,3.3l1.1.4s-.3-2.2.6-2.9a3.14,3.14,0,0,0,1-4.2s-1.7-3.3-.1-3.7c0,0-.9.9.2,2.6a5.15,5.15,0,0,1,.9,3.7s1.4-.7.6-2.8,1.2-4,1.2-4-1.5,1.4-1,2.9.8,3.1-.2,4.1c0,0,1.2-.2,1.7-2.8a5.29,5.29,0,0,1,2.4-3.7,5.27,5.27,0,0,0-2,3C329.8,335.3,329.9,336.2,329.2,336.6Z"/><polygon class="cls-65" points="322.8 337.9 329.3 339.8 329.2 340.5 323 338.6 322.8 337.9"/><path class="cls-63" d="M309.8,371.5s1.6,4.1,8.7,2.3c0,0,1.4-7.2,1.7-9.2s1.9-6.6-.1-8.5c0,0-5.3,2.4-8.3-.3a24.42,24.42,0,0,0,0,5.1C312.1,363.3,310.9,369.4,309.8,371.5Z"/><path class="cls-10" d="M328,338.8a9.41,9.41,0,0,0,2.8.1,38,38,0,0,0,6-2.4l-.3.7a40.66,40.66,0,0,1-5.5,2.1C329.4,339.6,328.6,338.8,328,338.8Z"/><ellipse class="cls-66" cx="331.02" cy="340.68" rx="2.1" ry="1.7" transform="translate(-64.46 603.81) rotate(-79.46)"/><ellipse class="cls-67" cx="331" cy="340.5" rx="1.8" ry="2.1"/><ellipse class="cls-66" cx="336.08" cy="339.38" rx="2.1" ry="1.7" transform="translate(-59.04 607.71) rotate(-79.46)"/><ellipse class="cls-67" cx="336.08" cy="339.38" rx="2.1" ry="1.7" transform="translate(-59.04 607.71) rotate(-79.46)"/><path class="cls-67" d="M332.8,340s.6-1.2,1.6-.4"/><path class="cls-10" d="M334.1,340a5.36,5.36,0,0,1,.2,3.9l-1.2.6-1.4-.5,1.5.1.7-.5A14.79,14.79,0,0,0,334.1,340Z"/><path class="cls-10" d="M324.8,344s2.2,3.7,5.9,4.2l1.6-.5s2,2.7,1,5.5c0,0-.1,1.2-1.9,1.8l-.7,5.9-.2-6.2s3.1-1.3,1.7-5.2l-2,.4S324.3,350.1,324.8,344Z"/><path class="cls-10" d="M322.4,342.8s.4.2.8-.4a28.83,28.83,0,0,1-.3,3.5c-.2.7-.7,1,1,3.7a16.52,16.52,0,0,1,2.2,5.6s-1.2-4-2.2-4.8-3.5-2.6-3.5-2.6a5.69,5.69,0,0,0,1.9-3C322.6,342.9,322.4,342.8,322.4,342.8Z"/><path class="cls-9" d="M318.7,398.7s.5.9,2,3.3a8.62,8.62,0,0,1,.5,3.1,8.51,8.51,0,0,1-.4,1.7c-.2.4-1.4.8-1.6-.3s.3-3-.6-3-.4,2.5-.3,3.4c.1.5.9,3,.7,3.6s-1.3.9-3-.3a11.63,11.63,0,0,1-2.2-4.4c-.4-1.7,0-3.8.5-6.2C314.5,399.8,316.4,400.6,318.7,398.7Z"/><path class="cls-60" d="M331.2,450s1.3-3.6,4.9-3.3a7.85,7.85,0,0,1,1.8,1.9,4.65,4.65,0,0,0-4.1,3.7Z"/><path class="cls-60" d="M317.3,456.8s2.1-4.1,5.5-2.9a4.51,4.51,0,0,1,1.6,2s-2.6-.7-4.6,3C319.4,459,318.1,457.8,317.3,456.8Z"/><path class="cls-68" d="M320.5,347.7s3,1.7,3.7,3,2,5.1,3,5.2a7.39,7.39,0,0,0,1.7,0l1.6,4.8.7-5.8s2.6-.9,2-4.4a4.69,4.69,0,0,0-1.1-2.8l.5-.2a10.67,10.67,0,0,1,1.2,3.8c.1,1.8-1,3.6-2.2,3.9l-.8,7.2-2.3-5.9a2.76,2.76,0,0,1-2.6-1c-.9-1.3-1.6-4.4-2.4-5.1a32.88,32.88,0,0,1-3.2-2.6Z"/><path class="cls-68" d="M332.5,361.5a7.93,7.93,0,0,0,4.4-2.9,5.44,5.44,0,0,1-3.8,3.4s-.3,4.4.3,5.3,3-.3,3.5-1.6l.1-5.7.3,6.2s-2,3.4-4.7,1.4Z"/><ellipse class="cls-69" cx="328.1" cy="357.69" rx="0.5" ry="0.7" transform="matrix(0.95, -0.31, 0.31, 0.95, -94.67, 119.24)"/><ellipse class="cls-69" cx="329.71" cy="362.11" rx="0.5" ry="0.7" transform="matrix(0.95, -0.31, 0.31, 0.95, -95.96, 119.96)"/><path class="cls-68" d="M320.6,356.4s1.6,1.8.3,7.2c0,0-1.1,4.6-1.2,6a29.48,29.48,0,0,1-.8,4.4s-2.2,2.2-7.6-.7c0,0,5.4,1.7,7.1.3,0,0,.4-2,.7-3.7s1.1-6,1.4-7.5S321.2,357.4,320.6,356.4Z"/><path class="cls-59" d="M313,346.3s8.7,2.9,9.6,13.9c0,0,.3,8.5-3.2,11.2l-.4,2.5s4.4-.9,5.7-7.4,0-14.8-7.1-21.6C317.4,345,315.3,343.6,313,346.3Z"/><path class="cls-59" d="M334.3,345.2s2.7,2.6,2.6,12.3c0,0,.1,6,2,8.2,0,0,.1-13.9-.4-17.1-.6-3.4-1.6-4.7-3.3-6A15.15,15.15,0,0,1,334.3,345.2Z"/><path class="cls-10" d="M322.2,338.5a1,1,0,0,0-.6-.9c-.6-.3-1.3-.4-1.1,1.3s.8,2.7,1.4,2.8.9-.9.2-1.4-.3-1.1,0-1.1-1-.7-.9.2a5.88,5.88,0,0,0,.3,1.4,3.11,3.11,0,0,1-.5-2.6C321.5,337,321.7,338.9,322.2,338.5Z"/><path class="cls-62" d="M331.6,400.6a25.55,25.55,0,0,0,2.7-1.6,21,21,0,0,1-3.7,3.6Z"/><path class="cls-70" d="M315.3,348.4s2.6-1.5,6.6,7c0,0,4.1,10.3-2.5,16.1,0,0,6.7-8.5.7-18.2C320.1,353.3,318.5,349.5,315.3,348.4Z"/><path class="cls-70" d="M309,347.4s2.3,1.7,4.1.4,7-4.6,7.8-4.6c0,0-2-.3-7.9,4A4,4,0,0,1,309,347.4Z"/><path class="cls-70" d="M334.3,345.2s2,1.3,2.3,5.2.5,10.5,1,11.9,1.3,3.4,1.3,3.4-2.2-1.6-2.6-10.2-.8-8.5-2.2-9.8Z"/><path class="cls-70" d="M309.9,351.4a11.56,11.56,0,0,0-.4,5,9.76,9.76,0,0,1-.9,6.5c-1.2,2.7.4,9.1.4,9.1s-2.1-6.1-.7-10.5.3-4.5.3-5.9S309.1,351,309.9,351.4Z"/><path class="cls-68" d="M317.8,391s4.3,4.1,14.1-.1c0,0,5-2.1,6.2-5.2l.8-20-1.2,20s-2.6,4.5-9.6,5.9c0,0-7.7,1.4-10.5-1.5Z"/><path class="cls-10" d="M310.9,372.9a10.36,10.36,0,0,0,6.3,1.7l-.1,3.7s-.4-2.3-2.3-2.7-2.8-.6-3.4.1-.6,2.2-.5,3.8A18,18,0,0,1,310.9,372.9Z"/><path class="cls-10" d="M341.3,361.6a2.26,2.26,0,0,1-2.5,1.5s.1,7.2-.2,9.3l-.5,13.4,1.6-20.9a4.45,4.45,0,0,0,1.5-2.1v-1.2Z"/><path class="cls-10" d="M313.9,451.3a6.3,6.3,0,0,0,5.2,1.5,3,3,0,0,0,1.7-1.2l.7.9a6.18,6.18,0,0,0-1.9,1c-1.1.8-5,.4-5.7-.8C314,452.7,313.7,452,313.9,451.3Z"/><path class="cls-10" d="M326.7,444.2s1.3,2.4,5.2,2c0,0,1.9,0,2.5-1.2,0,0,.7,1.7-2.6,2a7.14,7.14,0,0,1-5-1.1A2.77,2.77,0,0,1,326.7,444.2Z"/><polygon class="cls-65" points="337.6 338.7 335.9 338.1 335.8 338.5 337.7 339.1 337.6 338.7"/><path class="cls-71" d="M95,270.4s3.8,1.9,5.9,3.3c0,0,1.3.6,1,1.7,0,0-.3,2.1-3.2,1.7-1.3-.2-3.3-.1-7.8-3.4a3,3,0,0,1-1.6-2.4c0-1.6,3.8-1.8,5.7-.9"/><path class="cls-72" d="M90.6,273.5s4.4,4,9.2,3.7c0,0-6.4-1.4-7.5-3.6-.8-1.2.2-1.6.2-1.6l-1-.9-.7-.2-.5.2A9.22,9.22,0,0,0,90.6,273.5Z"/><path class="cls-71" d="M85.8,271.1l-.1.7s-.8,7.2.1,9a2.83,2.83,0,0,0,2.9,1.7c.8,0,3.1-1.4,2.5-6a48.72,48.72,0,0,0-.9-5.6Z"/><path class="cls-72" d="M85.7,272a5.35,5.35,0,0,0,4.7-.5l.3,1.2s-.3,2.3-5.1.6Z"/><path class="cls-73" d="M86.7,271.9a17.21,17.21,0,0,0,0,4c.3,1,1.7,2.5,2.7.4.8-1.7-.2-5.3-.2-5.3Z"/><path class="cls-73" d="M94.2,269.3s.3.9,2.2,1.9c1.2.6,2,1.3,2,2.1s-3.6,1-7-2.4Z"/><path class="cls-74" d="M90.5,270.9s2.8,1.2,3.7-1.5c0,0,.3-14.1,2.5-24.3s4.6-25.9,4.4-27.4L89.6,222Z"/><path class="cls-73" d="M107.2,200.8a2.78,2.78,0,0,0,1.5.8,4.7,4.7,0,0,1,3,1.6c.9,1,1.1,1.7,2,2.2s.7.9.3,1.3-2.1.1-2.7-1.4a7.09,7.09,0,0,0,1.1,2.4c.7.8,1.7,2.4,1.2,3.4s-2.1,1.1-3.9.5-4.5-1.9-5.3-5.9a3.3,3.3,0,0,0-.8-2S103.7,201,107.2,200.8Z"/><path class="cls-74" d="M76.9,221.4s3.5,25,7.9,48.2c0,0,.1,2.6,2,2.8,2.6.3,4.4-1.2,4.2-2.6,0,0-.4-35.7,1.2-46.7C92.2,223.1,85.3,213.9,76.9,221.4Z"/><path class="cls-75" d="M78.7,186.2,76,212.9a1.86,1.86,0,0,0-1.6,1.9s3.2-26,2.4-30.7Z"/><path class="cls-76" d="M107.3,200.1s-3.3-8.4-4.1-10.2-.7-8.2-.7-8.2c-1-15.9-6.1-15.9-6.1-15.9-.5,2.5-3.6,4.9-3.6,4.9,4.4,7.3,1,9.8,1,9.8.5,1.7-.3,6.4-.3,6.4-.7-3.9-2.1-5.1-2.1-5.1-3.1,0-4.9-3.7-4.9-3.7-2.7-5.1-5.1-6.1-5.1-6.1a12.79,12.79,0,0,0-4.9,2.5c-4.9,5-6.5,20.9-6.4,24.2S74.4,209,74.4,209a12.57,12.57,0,0,0-.1,6.4L85.5,225a18.63,18.63,0,0,0,16.8-6.4l.3-3.4a20.62,20.62,0,0,0-.4-5.3c-.6-2.9-3-12.9-3-12.9l4.3,7.2c.7-3.1,4.1-3.2,4.1-3.2A4,4,0,0,0,107.3,200.1ZM79,198.8l-1.1,3.1-1.3-5.4a53.67,53.67,0,0,1,1.8-5.5A16.31,16.31,0,0,1,79,198.8Z"/><path class="cls-73" d="M84.2,167.3s.6,2.7-2.4,4.8a33.86,33.86,0,0,1,5,6.4c2.8,4.4,4.7,3.3,4.7,3.3l2.1,5.1.5-6.4s3-2.3-1.3-9.8A11.19,11.19,0,0,1,84.2,167.3Z"/><path class="cls-73" d="M82,164.4s-2,5.3,2.2,3.1c0,0,4,5.3,9.4,3.1,0,0,2.6-1.1,3.3-7.6,0,0,1.4-8.6-.6-10.5,0,0-10.9-7-13.9-.3A14.48,14.48,0,0,0,82,164.4Z"/><path class="cls-22" d="M83.6,147s-7,.7-7,10.9a21.86,21.86,0,0,1-1.1,5.3c-.9,2.4-.7,7.8,7.6,7.8a3.48,3.48,0,0,0,1.1-3.7s-1.7.7-1.7-1.7a15.33,15.33,0,0,0,3.2-2.9c.6-.3,1.6-.6,2.4-4,0,0,6.2.9,8.3-4.1a26,26,0,0,1,.4,5.7c0,.3-.6,1.6-.6,2-.1,1.2.5,2.1.2,3.3,0,0,2,1,2.2-5.1s-1.6-7.4-3.5-10C95.1,150.2,89.7,143.7,83.6,147Z"/><path class="cls-77" d="M84.9,192.9s4.5.5,7.1-1.7C91.8,191.4,90.1,194.4,84.9,192.9Z"/><path class="cls-78" d="M94.1,180.6c1.5-4-1.6-8.7-1.6-8.7-1.3,0-2.4-.1-2.4-.1a8.26,8.26,0,0,1-3.3-1.3c-2.5-1.7-2.4-3-2.4-3.8,0,0,2.5,4,6.2,4.3a8.52,8.52,0,0,0,2.3,0c0-.1,4.2,6.4,1.2,9.6"/><path class="cls-78" d="M96.8,160.4s-4.7,3.7-8,2.6c0,0,1,1.8,5.1-.3l2.6-1.6Z"/><path class="cls-74" d="M78.4,198.3a10.16,10.16,0,0,0,1.8,2.4c1.4,1.5,6,2.4,8.9,1.5a27,27,0,0,1-.9-7.8c.1-1.8.2-3.5.2-4.8a22.6,22.6,0,0,0-1-9.2s-.6,0-2.5-3.5c-2-3.7-2.9-4.6-4.2-4.9,0,0-2.3.5-2.9,1.5,0,0,4.5,1.9,4.4,8.9-.1,7.3-3.7,9.3-3.7,9.3a8,8,0,0,0,.3,2.5C79.3,195.9,78.4,195.9,78.4,198.3Z"/><path class="cls-75" d="M76.6,174.4s4.2-.8,5.7,10.4l1.6,27.4.7,4.5,1.1.8s-1-9.6-1.2-16.2-.8-18.8-1.5-21.1-1.6-5.4-5.1-6.8A1.06,1.06,0,0,0,76.6,174.4Z"/><path class="cls-77" d="M80.5,181.5a18.94,18.94,0,0,1-2.2,9.6S82.4,185.2,80.5,181.5Z"/><path class="cls-77" d="M80.3,186.5a3.57,3.57,0,0,0,1.3-2.2,3.06,3.06,0,0,1-1.5,3.1Z"/><path class="cls-74" d="M94,170.4s3.7,5.1,2.9,19.1c0,0,0,4.3-.3,7a17.26,17.26,0,0,0,.2,5,5,5,0,0,0,3.3-2,4.3,4.3,0,0,1,.7-.7s-.6-11.6-.3-12.6a9,9,0,0,0,.9-3.9c-.2-1.7-2.3-4.5-3.3-7.4s-2.6-6.5-2.6-6.5A5.17,5.17,0,0,1,94,170.4Z"/><path class="cls-22" d="M87.4,160.6s-1.7,5.1-4.9,5Z"/><path class="cls-79" d="M100.4,186.3a9.7,9.7,0,0,1-2.6,2.7,5.88,5.88,0,0,0,2.6-1.8Z"/><polygon class="cls-77" points="91.2 181.9 93.6 186.9 94.4 180.3 94.1 180.5 93.5 185.9 91.5 181.8 91.2 181.9"/><path class="cls-75" d="M74.6,209.1l1.1,1.5-.1,2.2s-1.2.4-1.2,1.2A23,23,0,0,1,74.6,209.1Z"/><path class="cls-77" d="M77.8,202l2.8,6.7,1.3,1.8a7,7,0,0,1-4.4,3s-2.2-3.4-3-4.6l3.1,4a6.35,6.35,0,0,0,3.6-2.3l-1-1.7a8.07,8.07,0,0,1-4.1,1.9,31.8,31.8,0,0,0,3.9-2.1C80.1,208.6,78,204.1,77.8,202Z"/><path class="cls-75" d="M74.2,215.3s-.1,6.6.9,8.5c0,0,1.2,1.9,6.7,3.9a6.91,6.91,0,0,0,3.1.7,2.46,2.46,0,0,0,2.1-1.8s0-6.2-.3-6.9c0,0-.3-.9-2-1.2S74.1,212.5,74.2,215.3Z"/><path class="cls-80" d="M75.9,212.7s-1.6-.1-1.7,2.1a12.47,12.47,0,0,0,.7,4.3s2.6,2.8,4.6,3.6,4.3,1.2,5.2.5a3,3,0,0,0,.2-1.4,1,1,0,0,1,.8-.9s.9-.1.9-.6l.1-.7C86.8,219.6,78.1,213.7,75.9,212.7Z"/><path class="cls-81" d="M74.6,215.1s9.1,5.8,10.3,6.2C84.9,221.2,78.7,218.6,74.6,215.1Z"/><ellipse class="cls-82" cx="79.06" cy="220.26" rx="0.6" ry="0.8" transform="translate(-74.05 43.28) rotate(-21.12)"/><path class="cls-81" d="M74.3,218.4a12.43,12.43,0,0,0,10.3,5s-.1-2,1.2-2.5a3.09,3.09,0,0,0-.9,2.7A11.59,11.59,0,0,1,74.3,218.4Z"/><path class="cls-74" d="M92.5,224.5s-.1,16.8-1.2,24.1c0,0,.1,4.1.1,7.2s-.4,15-.4,15l-.3.5s.4-13.1.1-15.6a62,62,0,0,1-.1-7.3c.1-1.1.9-22.2,1.1-23.7Z"/><path class="cls-77" d="M106.4,198.8a4.15,4.15,0,0,0-3.9,3.3A3.24,3.24,0,0,1,106.4,198.8Z"/><path class="cls-73" d="M81.6,210.8a2.51,2.51,0,0,0,1.7.8c1,0,1.8.9,2.5,2s1.2,1.3,1.3,1.7-.2.9-1.3.5a11.08,11.08,0,0,1-1.9-.9,6.67,6.67,0,0,1,1.5,2.1c.5,1.2,1.7,1.1,2.1,2a1,1,0,0,1-1.1,1.3,5,5,0,0,1-2.7.4s-3.1-.7-4.7-4.9a14.2,14.2,0,0,0-.9-2.6A6.38,6.38,0,0,0,81.6,210.8Z"/><path class="cls-83" d="M100.9,220s-3.8,4.8-13.8,4.9v1.7a24.55,24.55,0,0,0,13.6-5Z"/><path class="cls-78" d="M94.3,163s.7,2.8.1,4.4a1.13,1.13,0,0,1-1.2.6s1-.3,1.1-2.1a7.24,7.24,0,0,0-.4-2.7Z"/><path class="cls-84" d="M82.5,165.6s0,2.3,1.8,1.7c0,0,.5,2.4-1.1,3.7a10,10,0,0,1-3.6-.4s4.3.7,4.1-1.8l-.1-.9C83.5,167.9,82.3,167.8,82.5,165.6Z"/><circle class="cls-85" cx="83.6" cy="167" r="0.5"/><path class="cls-85" d="M84.1,168.3a.5.5,0,0,1-1,0c0-.3.2-.9.5-.9S84.1,168.1,84.1,168.3Z"/><path class="cls-78" d="M84.3,167.3s.9,2.5-2.4,4.8a36.3,36.3,0,0,1,3.5,4.2s-2.2-3.3-1.3-4.4a8.2,8.2,0,0,0,1.3-2.9Z"/><path class="cls-78" d="M85.4,176.3s3.5,6.3,6.1,5.4l2,4.1.6-5.3-.8,3.7a11.29,11.29,0,0,0-1-3.7l.3,3-1.1-2.2s-2.6.9-7.2-6.8Z"/><polygon class="cls-78" points="92.2 171.4 91.9 173.9 92.6 172.9 92.5 171.3 92.2 171.4"/><path class="cls-85" d="M83.1,171s3.8,6,8.5,6c0,0,2.2.1.9-4.6,0,0,2.2,4.4-.4,5.1C92.1,177.6,87.7,179.1,83.1,171Z"/><path class="cls-85" d="M91.4,177.6s1.2,1.2,1.3-.4Z"/><polygon class="cls-77" points="91.2 192.2 88.1 195.3 88.2 193.2 91.2 192.2"/><path class="cls-77" d="M79.2,189.6l.2,1.4-.8.6-.2-.6A14.47,14.47,0,0,0,79.2,189.6Z"/><path class="cls-77" d="M70.2,199.2s2.6,8.1,5.8,11.9l2.3-.9-2,.5A47.86,47.86,0,0,1,70.2,199.2Z"/><path class="cls-77" d="M76.5,196.8a3,3,0,0,0-2.1-2.1S77,194.3,76.5,196.8Z"/><path class="cls-77" d="M94.8,188.7l-2.4,5.7A11.71,11.71,0,0,0,94.8,188.7Z"/><ellipse class="cls-74" cx="91.17" cy="182.86" rx="0.6" ry="0.3" transform="translate(-85.9 80.9) rotate(-33.56)"/><ellipse class="cls-74" cx="93.86" cy="187.46" rx="0.6" ry="0.3" transform="translate(-88.64 84.29) rotate(-33.92)"/><path class="cls-83" d="M92.5,224.5s-.7,18.1-1.4,24.8c0,0-.2,20.1-.4,21.1,0,0-1.8,3.2-5.4.7a2.39,2.39,0,0,0,3,1.4,3,3,0,0,0,2.8-1.7l.4-21.8,3.2-25Z"/><path class="cls-78" d="M83.9,214.3s-.1.2.4.8,1.1,2.1,1.6,2.7,2.1.5,1.7,1.8c0,0,.4-.6-1.6-1.4C84.7,217.4,84.4,215.4,83.9,214.3Z"/><path class="cls-78" d="M111.2,205.3a1.29,1.29,0,0,0-1.8-.7,3.13,3.13,0,0,1-2.6-.3s.4,1.2,2.4.9A1.57,1.57,0,0,1,111.2,205.3Z"/><path class="cls-78" d="M107.2,200.8s-2.9.6-3.6,3a4.12,4.12,0,0,1,.8,2c.3,1.4,1.4,4.5,4.5,5.6a8.45,8.45,0,0,1-4.1-6.1c-.6-4.3,3.6-3.7,3.6-3.7Z"/><path class="cls-78" d="M110.7,207.1l-2.8,2A3.42,3.42,0,0,1,110.7,207.1Z"/><polygon class="cls-79" points="88.2 193.2 84.7 194.6 85.5 195.7 85.5 197 88.1 195.3 88.2 193.2"/><path class="cls-78" d="M86.6,273.6a5.68,5.68,0,0,0,3.1,0l-.2-1.5s-.7.5-2.8.3Z"/><path class="cls-78" d="M81.6,210.8a6,6,0,0,1-3.5,2.4,24.15,24.15,0,0,1,.9,2.6,8.48,8.48,0,0,0,2.4,3.5s-2.6-3.4-2-4.9a3.5,3.5,0,0,1,3-2,9.52,9.52,0,0,0,1.8-.2A24.1,24.1,0,0,0,81.6,210.8Z"/><path class="cls-78" d="M91.5,271.2l1,.9s3-.5,1.7-2.7A3,3,0,0,1,91.5,271.2Z"/><path class="cls-73" d="M384.5,163.4l.5,10.8c3.4,0,2.6-5.1,2.6-5.1s-.2,1.4,1.6,1.3.9-.9.9-.9c-.6-1.2-.7-3.3-1-4.6a15.49,15.49,0,0,0-1.2-3A10.83,10.83,0,0,1,384.5,163.4Z"/><path class="cls-86" d="M384.2,134c.1,1.7-.1,3.3,0,5s.2,3.3.3,5,.2,3.2.3,4.9a41.93,41.93,0,0,1,.3,5l.3,5c.1,1.7.2,3.3.2,5-.3-1.7-.4-3.3-.6-5l-.5-5c-.2-1.7-.3-3.3-.4-5s-.3-3.3-.4-5-.2-3.3-.2-5,.2-3.3.2-5,0-3.3,0-5-.1-3.3-.1-5A84.28,84.28,0,0,1,384.2,134Z"/><path class="cls-86" d="M385.3,128.6a15.14,15.14,0,0,1-.2,3,8,8,0,0,1-.3,1.5,4.58,4.58,0,0,1-.8,1.3h-.1a4.3,4.3,0,0,1,0-1.6c.1-.4.3-1,.4-1.4l1-2.8Z"/><path class="cls-86" d="M385.2,159.8l-.1-.4c2.2-.5,2.8-1.5,2.8-1.5A2.84,2.84,0,0,1,385.2,159.8Z"/><path class="cls-78" d="M390.3,169.8c.1.3-.5.5-.5.5a2.48,2.48,0,0,1-2-.3,2.91,2.91,0,0,1-.8-1.1,2.28,2.28,0,0,1,.1-1.9,6.73,6.73,0,0,0,.1,1,5.19,5.19,0,0,0,.5,1.2c1.2,1.9,2.4.4,2.4.4Z"/><path class="cls-78" d="M387.1,167.5c-1,.1-1.3-.3-1.3-.3v-.9c.2.7,1.3.6,1.3.6Z"/><path class="cls-87" d="M357.8,226s-1.1,2.1-.8,3,8.4,9.4,10.8,8.6,2.8-1.6,2.5-2.5-5.3-7.8-5.3-7.8C361.5,229.9,357.8,226,357.8,226Z"/><path class="cls-88" d="M366,228.8s-4.4,2.8-8.6-1.6l.4-1.2s4.7,3.2,7.2,1.3Z"/><path class="cls-87" d="M371.5,219.6s-1,2.4-.7,3,8.5,8.4,10.3,8.3a3.1,3.1,0,0,0,2.9-2.6c0-.9-5.2-6.8-5.2-6.8Z"/><path class="cls-88" d="M379.2,222.2s-4.9,2.2-8.1-.7l.4-1.9a7.32,7.32,0,0,0,6.9,1.3Z"/><path class="cls-89" d="M380.2,163.5c-4.4,2.9-19.4,5.9-19.4,5.9-.3,3.1.3,36,.3,36,.7,5.2-3.5,18.9-3.5,18.9s-.9,3,3.3,4.1,4.8-1.9,4.8-1.9,4.8-17.7,5.5-20.3,1.6-20.3,1.6-20.3c1.6,5.4,2.4,11.2,2.2,14.5s-4.4,18.3-4.4,18.3c1.2,3.9,5.7,3.5,7.1,3a2.11,2.11,0,0,0,1.5-2.4c.6-2.6,5.2-17.8,5.2-19.8s-.8-24.4-.8-24.4C383.6,165.3,380.2,163.5,380.2,163.5Z"/><path class="cls-90" d="M366.1,122.5l-.4,1.4c.6,3.8,4.1,10,5,13.2s-.3,12,.3,17.1a42.79,42.79,0,0,1-.6,11.2c4.5.2,9.8-3.8,9.8-3.8s.3-3.2.3-5.1-.3-16.7,0-23.5-2.3-9.8-2.3-9.8Z"/><path class="cls-91" d="M375.7,127.5l-1.7,2.1,1.5,2.1a1.07,1.07,0,0,0,1.6-.3c.7-1,1.3-2.7,1.1-2.9A7.79,7.79,0,0,0,375.7,127.5Z"/><path class="cls-91" d="M375.8,131.5s-2.2,19-2.3,19.3a37.06,37.06,0,0,0,3.2,4.1,49.77,49.77,0,0,0,2.7-5.7c.2-2.6-2.4-18.1-2.4-18.1Z"/><path class="cls-92" d="M366.5,120c-1.9.8-2.4,3.8-2.4,3.8s-5.8,4-7.4,6.3-1,4.3-1.3,7.8-2.4,12.5-2.3,17.2,2.9,14,2.9,14a19.29,19.29,0,0,0-1.3,4.9c3.4,4,9.5,3.9,9.5,3.9a10.38,10.38,0,0,0,6.8-.9,27.2,27.2,0,0,1,.1-5.7c.4-2.5-.6-5.8,0-9.9s0-11.5.3-18.6-2.7-12.1-4.6-16-.3-5.1-.3-5.1Z"/><path class="cls-92" d="M378.1,122.9c2.3,2.7,2.5,12,2.2,15.6s0,8.4,0,13.5.3,16.5.4,19-.6,5.2.1,5.6,1.5-.4,2.9-1.3a7,7,0,0,0,2.2-2.7c.2-2.6-.3-9.1-.3-9.1.6-.2,2.3-1.1,2.4-1.6a14.67,14.67,0,0,0,.1-3.1c0-.9-.3-1.6-.4-3.5s-.8-14.6-.9-17.5-.1-15.3-.1-15.3a5.42,5.42,0,0,0-5.9-5.2A30.75,30.75,0,0,0,378.1,122.9Z"/><path class="cls-93" d="M373.7,131.4a33.19,33.19,0,0,1-8-7.6c.1-1.7.7-2,.7-2a28.88,28.88,0,0,0,9.4,5.7A13.7,13.7,0,0,0,373.7,131.4Z"/><path class="cls-93" d="M378.3,123.2a10,10,0,0,1,1.1,6.2,17.55,17.55,0,0,1-3.6-1.7,5.8,5.8,0,0,0,1.1-3.2A9.88,9.88,0,0,0,378.3,123.2Z"/><path class="cls-73" d="M358.3,175.9c-.8,1.2-1,5.5-.6,7.1a7,7,0,0,0,3,4c1.7,1.2,2.3.2,2.4-.3s-.6-3-.7-3.6c-.2-.9-.7-3.5.3-3.4s.4,2,.6,3,1.4.7,1.6.3.1-.9.4-1.7-.5-3.1-.5-3.1c-.8-2.6-1.5-3.2-1.5-3.2C360.9,177.6,358.3,176,358.3,175.9Z"/><path class="cls-94" d="M364.9,140.1c-.2.8-.3,1.6-.5,2.4-.7,3-1.4,6.1-2,9.2a16,16,0,0,0-.3,2.3,19.22,19.22,0,0,0,0,2.4l.2,4.8c.2,3.1.3,6.4.5,9.5v-.1a21.18,21.18,0,0,1,.5,4.4v.1h0a2.3,2.3,0,0,1-1.7,1.2,6.28,6.28,0,0,1-1.9.3,3,3,0,0,1-1.8-.6,2.7,2.7,0,0,1-1-1.7h0c-.4-2.2-.9-4.4-1.3-6.5.6,2.2,1.1,4.3,1.7,6.4h0a2.81,2.81,0,0,0,1,1.4,2.73,2.73,0,0,0,1.6.4,4.67,4.67,0,0,0,1.7-.3c.3-.1.5-.2.8-.3a1.18,1.18,0,0,0,.5-.5v.1a20.26,20.26,0,0,0-.6-4.2h0c-.3-3.1-.4-6.4-.6-9.5-.1-1.6-.2-3.2-.2-4.8v-2.4q.15-1.35.3-2.4a78.26,78.26,0,0,1,1.9-9.4c1-3.5,1.7-6,1-9.2C366,135.8,365,139.4,364.9,140.1Z"/><path class="cls-94" d="M361.6,171.9a3.82,3.82,0,0,1-1.6.6,3.22,3.22,0,0,1-1.7-.1,5.48,5.48,0,0,1-1.5-.8c.5,0,1,.1,1.6.1a7.57,7.57,0,0,0,1.5-.1,7,7,0,0,0,1.4-.3,9.38,9.38,0,0,0,1.5-.6A4.53,4.53,0,0,1,361.6,171.9Z"/><path class="cls-95" d="M380.5,165c-3,2.9-9.3,3.7-9.3,3.7l-.3-3.8c6.3-.9,9.3-4,9.3-4Z"/><path class="cls-96" d="M373.8,164.2l.1,4.2a17.62,17.62,0,0,0,4.2-1.7c.7-2.9-.1-4.3-.1-4.3C376.9,163.4,373.8,164.2,373.8,164.2Z"/><path class="cls-97" d="M376.4,177.2c-3.9,2.9-3.7,9.4-3.7,9.4v-2a11.07,11.07,0,0,1,1.5-6.3l-2.6.7,4.2-2.8,1.7-7.2Z"/><ellipse class="cls-98" cx="376.5" cy="157.8" rx="0.5" ry="0.7"/><path class="cls-94" d="M370.3,159.5c-.1-1.1-.2-2.3-.3-3.3s-.3-2.2-.5-3.2c-.4-2.2-1-4.3-1.6-6.4l-.8-1.5-.1-.4-.1-.2v-.3l.3-.9c.3-1,.7-2.1,1-3.1l.3.5a5.27,5.27,0,0,1-1.2-.3c-.2,0-.4-.2-.6-.3a3.17,3.17,0,0,1-.5-.6,3,3,0,0,1-.1-1.3l.1-1.1a10.87,10.87,0,0,0-.5-4.4c-.5-1.4-1.1-2.9-1.5-4.4a14.24,14.24,0,0,1-.2-4.6,13.55,13.55,0,0,0,.5,4.5,29.44,29.44,0,0,0,1.7,4.3,12.06,12.06,0,0,1,.8,4.6v1.1a2.79,2.79,0,0,0,.1,1,1.44,1.44,0,0,1,.3.2c.1.1.3.1.4.2a3.55,3.55,0,0,0,1,.2h.5l-.2.5c-.3,1-.6,2.1-1,3.1-.1.2-.1.5-.2.7l.2.6.4,1.6c.6,2.1,1.1,4.3,1.5,6.4a18.41,18.41,0,0,1,.3,3.3c.1,1.1.1,2.2.2,3.3.1,2.2.2,4.4.3,6.5C370.6,163.7,370.4,161.6,370.3,159.5Z"/><path class="cls-73" d="M377.1,124.4c.4-.2,3.6-3.4,3.8-7.1a8.3,8.3,0,0,0-.2-3,2.57,2.57,0,0,1,.1-1.5,3.78,3.78,0,0,0,.1-1.4s.3-3.5-.7-4.4-6.8-8.8-13.1-5.1a4.22,4.22,0,0,0-1.3,3.7c.1.3-.2,7.6-.2,7.6s-1.8-.6-1.9,1.6.4,4.2,1,4.6,1.2.8,1.7.6l-.2,1.9a24.13,24.13,0,0,0,9.3,5.7A5.18,5.18,0,0,0,377.1,124.4Z"/><path class="cls-22" d="M369.7,105.3a13.68,13.68,0,0,0,9.7,2.1c1.4,0,5-2.2,2.3-6.4,0,0-1.8-2.8-5.2-.7-1.6-.6-3.5-2.3-5.7-1.7s-5.7,2.3-6.1,3.4a4.22,4.22,0,0,0,0,2.4s-1.3.4-1.3,2.6,0,6.4.4,7.8c0,0,.5-2.2,2.4-1a4.14,4.14,0,0,1,1,2.8l.1,1.6,1.6.7-.2-1.7a2.39,2.39,0,0,1,.5-1.4,4.45,4.45,0,0,0,1.3-2.4c.4-1.7-2.7-5.1-2.7-5.1C367.7,105.5,369.7,105.3,369.7,105.3Z"/><path class="cls-78" d="M375.8,127.5c.1-1-.1-1.7-.6-2-1-.6-2.1-.5-3.5-1.2-3.4-1.7-3-3.9-3-3.9a7.45,7.45,0,0,0,2.8,3c3.6,2,5.4,1,5.4,1A4.55,4.55,0,0,1,375.8,127.5Z"/><path class="cls-78" d="M380.5,113.5a13.94,13.94,0,0,1-6.5,3c-2.7.5-3-1-3-1s.5.5,3,.3a18,18,0,0,0,4-1.5,7.07,7.07,0,0,0,3-1.8A1.18,1.18,0,0,0,380.5,113.5Z"/><path class="cls-78" d="M366.3,121.8a31.91,31.91,0,0,0,3.7,3c-2.3-1.9-2.1-5.8-2.1-5.8-.3.1-.5.6-.7.7a1.69,1.69,0,0,1-.7.3Z"/><path class="cls-78" d="M366.3,116.3c.3.6-.4.8-.7.6s-.1-2.2-.4-1.5.2,2.3.7,2.4-.1-.8.5-.7.6.8.6.8a.94.94,0,0,1-1.6.6c-.7-.6-1.2-3.7-.3-4.1s1.7,1.1,1.7,1.1C366.4,115.5,366.1,115.7,366.3,116.3Z"/><path class="cls-94" d="M380.5,171.7s-.1-4.4,0-5.3c.3-3.4,1.1-11.5,1.7-14.6.8-4.1-.2-8.6-.5-10.6s1.5-2.3,1.6-3.9-1.4-6.1-1.4-6.1c-.3-7.9-2.4-9.9-2.4-9.9l-1.4,2,1.4,3.5c1,4.4.4,11.5.3,15.2-.2,2.6-.1,21.3.5,28.6Z"/><path class="cls-94" d="M366.5,120l-.2,1.8s-1.2,1.8.6,5.2a33,33,0,0,1,4.5,13.5c.3,5.4-.7,23.2-.4,25.1,0,0-.5-9.7-1.4-13.1s-2.5-8.2-2.1-8.9a18.81,18.81,0,0,0,.9-3.3s-1.6-.5-1.8-1.2.3-4.6-.7-6.7-3-7.2-1.5-10.2C364.5,122.3,365.2,120.6,366.5,120Z"/><path class="cls-94" d="M385.8,124.7s-.9,3.3-1.2,4.9c0,0,.7,30.9,1,33.8,0,0-1.6-16.7-1.6-33.2a36.24,36.24,0,0,0-.1-4.4l.5,2.3A14,14,0,0,0,385.8,124.7Z"/><path class="cls-94" d="M364.1,136.1s.8,3.5.1,5.8l-.5,1.4A55.06,55.06,0,0,1,364.1,136.1Z"/><path class="cls-97" d="M375.8,176.3l4-1.5a25.31,25.31,0,0,1-4.4,3Z"/><path class="cls-98" d="M380,161.3s-2.6,2.8-9.1,3.6c0,0,.7-19.1.7-20.6s.3-7.6-2.8-13.8-2.5-5.5-2.7-6.2c0,0,3.6,4.9,7.6,7.2l.6-1.4a13,13,0,0,0,1.5,1.9l-1.2-.6-.8,1.4a48.9,48.9,0,0,1-5-3.6s3,1.5,3.6,12.2a108.85,108.85,0,0,1-.7,21.3s-.1.7-.3,1.5c6.2-.5,8.7-3.9,8.7-3.9Z"/><path class="cls-78" d="M378.1,116.1s1,2.8.3,4.1c0,0-.3.4-1.3.4s-1.1-.3-1.1-.3a3.64,3.64,0,0,0,2.1-.8Z"/><path class="cls-98" d="M379.3,125.9s.9,1,.9,8.2l-.3,26.7-.6.7s.5-20.2.2-23.2-.3-8.2-.3-8.2l-1.2-.8.1-.5,1.2.6C379.3,129.5,379.8,128.6,379.3,125.9Z"/><path class="cls-78" d="M358.3,175.9s2.3,1.7,5-1c0,0,.9.6,2,5.1,0,0-1.4-4-2.3-3.2a4.89,4.89,0,0,1-5.1.5A3.13,3.13,0,0,1,358.3,175.9Z"/><path class="cls-78" d="M388,161.9a4.49,4.49,0,0,1-2.4,1.6v.8a28.52,28.52,0,0,0,2.9-1.4Z"/><path class="cls-9" d="M168.9,133.5a19.41,19.41,0,0,0-1,8.4s.9,4.1,4.1,4.6c0,0-.5-6.6.5-8.3s-.5-3.9-.5-3.9Z"/><path class="cls-99" d="M168.7,134.3a3.41,3.41,0,0,0,4.1.7v.9l-1.4,1.8s.1-1-1.3-1.2a12.94,12.94,0,0,1-2-.4A9,9,0,0,1,168.7,134.3Z"/><path class="cls-99" d="M170.1,137.6a30.06,30.06,0,0,0-.1,4.5c.2.9,1.2.7,1.3-.3a10.62,10.62,0,0,1,.4-2.9,3.1,3.1,0,0,0,.6-1.3s.4.4-.5,1.9l-.2,2.3s-.1,1.2-1,1.1-1-1.3-1-2C169.7,140.5,169.6,137.4,170.1,137.6Z"/><path class="cls-100" d="M183.5,193.6s-3.4,3-4.9,4.6-.1,3.6,2.4,2.6a39.68,39.68,0,0,0,8.1-4.6l.3,1s.7.6.9-.6,1-4.9-.2-5.9C190.1,190.8,187.2,195.1,183.5,193.6Z"/><path class="cls-9" d="M184.8,173.4s1.2,14.4.3,17a12.85,12.85,0,0,1-2.7,4.4s-2.3,2.5.7,1.9a11.88,11.88,0,0,0,6.7-4.1c.8-1.3-.6-2.7.2-6s2.8-8.9,3-13.9Z"/><path class="cls-99" d="M185,175.5s5.2.9,7.9-.9l.3-2.1-8.4.9Z"/><path class="cls-100" d="M172.8,188.2a26.56,26.56,0,0,0-4.9,4.6c-1.3,1.8-.1,3.6,2.4,2.6a35.5,35.5,0,0,0,8.1-4.6l.3,1s.7.6.9-.6,1-4.9-.2-5.9C179.4,185.3,176.6,189.6,172.8,188.2Z"/><path class="cls-9" d="M174.2,168s1.2,14.4.3,17a12.85,12.85,0,0,1-2.7,4.4s-2.3,2.5.7,1.9a11.88,11.88,0,0,0,6.7-4.1c.8-1.3-.6-2.7.2-6s2.8-8.9,3-13.9Z"/><path class="cls-99" d="M174.5,172.4s2.9,3.2,6.7,2.1l.4-1.4-7.3-2.8Z"/><path class="cls-101" d="M173.5,134.8a6.39,6.39,0,0,0-2.5,4.3c-.3,2.8-1.9,24.2-1.9,24.2a3.44,3.44,0,0,0,.4,3.5c1.3,1.8,11,10.2,23.3,6.5,0,0,6.9-2.2,7.3-7L198,144.1Z"/><path class="cls-9" d="M195.1,106.4s-4.2-1.4-6.4,4.9a9.67,9.67,0,0,0-1.3,5.5s9.9,1.5,10.6-5.2C198,111.7,197.5,107.3,195.1,106.4Z"/><polygon class="cls-102" points="189.3 158.7 188.5 169.1 203.8 160.9 204 150.7 189.3 158.7"/><path class="cls-99" d="M191.2,112.6l1.1,4.7.4-.1C192.8,117.2,192.5,113.6,191.2,112.6Z"/><path class="cls-103" d="M174.4,88.2s.7,4.1,0,6.7-.8,4.7,2.2,5.6l1.6.2s-1.5-9.8-.8-13.1C177.4,87.7,174.5,85.4,174.4,88.2Z"/><path class="cls-9" d="M193,147.1a6.73,6.73,0,0,0-1.3,4.2,26.86,26.86,0,0,1-.6,5.3s.1.7,1.1.3,1-1.5,1.1-2.5a11.58,11.58,0,0,1,.2-1.5,17,17,0,0,1,0,4.8c-.4,2.2,1.9,1.4,3.1.4s2.7-6.2,1.5-9.9C198.1,148,194.6,148.5,193,147.1Z"/><path class="cls-99" d="M192.8,147.3s3.2,1.6,5.2.7a5.21,5.21,0,0,1,.4,2.3,2.06,2.06,0,0,0-2.3-1.1c-2.7.2-3.6.3-3.8,2.3a13.07,13.07,0,0,1-1.2,4.8s.5-4.5.4-5.4S192,147.7,192.8,147.3Z"/><path class="cls-103" d="M174.4,88.5a7.86,7.86,0,0,1,4.8-8.5s4-2.2,6.7-1.5,7.4,2.3,8,5.8-.8,5.5,1,9.8,4,8.7.1,12.4c0,0-4-1.4-5.1-2.3-2.1-1.9-1.6-3.5-1.8-5.4a7.89,7.89,0,0,1-2.2-5.1V90.9C186,90.7,177.5,92.9,174.4,88.5Z"/><path class="cls-104" d="M175.9,98s-5,1.1-5.8,7.5-1.5,15.4-2,18.1-2.4,7.9,0,10.3,4.4,1,4.4,1l-.6-.7s1.7,3.7,4.7,4.6,4.2.8,7.4,4.2,6.6,3.2,8.7,2.1a9,9,0,0,0-.2,1.3c0,.4-.5,1.1,2.2,1.7s4.3-.4,4.5-1.4,2.1-10.8,2.5-12.6,1-2.6,0-8.6a99.83,99.83,0,0,0-4.4-16,4.62,4.62,0,0,1-.9,4.6c-1.9,2-8.4,2.6-9.8,2.3-2.3-.6-8.8-2.3-9.9-12a4.46,4.46,0,0,1,.5-3.1A9.56,9.56,0,0,1,175.9,98Z"/><path class="cls-9" d="M188.3,99.1a5.1,5.1,0,0,0,2.1,4.8s1.2.7,1.5.8a113.23,113.23,0,0,0-7.4,11.3,12,12,0,0,1-7.1-7.9s-1.6-4.1-.1-6.9c0,0,3.5,2.6,6.6,1.6s4.1-4.4,4.1-4.4Z"/><path class="cls-99" d="M177.2,101.3a14.38,14.38,0,0,0,.9,7.8s1.6,5,5.1,6.3l-1.8-1.5.3-1.1-.9.5s-4-6.9-3.2-11.5Z"/><path class="cls-9" d="M175.4,89.6a43.57,43.57,0,0,0,.5,8.5c.7,3.1,2.3,5.5,5.7,5.5,2.9,0,5.7-.9,6.4-4.5a1.29,1.29,0,0,0,1.9-.4,1.06,1.06,0,0,0,0-.6s-3.3-1.8-3.5-4.1a14.78,14.78,0,0,1,.1-3.8S179.3,92.8,175.4,89.6Z"/><path class="cls-105" d="M187.7,116.6a13.69,13.69,0,0,1,.6-4c2.3-7.1,6.8-6.2,6.8-6.2-.8-1.9-3.2-1.7-3.2-1.7a9.38,9.38,0,0,0-3.4,2.1c-3.4,3.2-2.1,8.3-5.3,8.5C183.1,115.4,186.9,117,187.7,116.6Z"/><path class="cls-99" d="M177.3,101.4a6.19,6.19,0,0,0,6.1,2,6,6,0,0,0,3.8-2.3,4.75,4.75,0,0,1-4.6,3C179.5,104.1,178.6,102.9,177.3,101.4Z"/><path class="cls-99" d="M188.4,102.7a5.14,5.14,0,0,0,2.8,1.7c-2.4-1.5-1.9-5.3-1.9-5.3a1,1,0,0,1-1,0c0,.3-.2-.8-.8,1.2,0,0,0,2.1-4.4,3.7C183.1,104.1,185,103.9,188.4,102.7Z"/><path class="cls-106" d="M193.6,154.9l-5.9,3.2-.7,10.4,1.5.6.7-10.4,4.4-2.3C193.6,156.3,193.8,155.1,193.6,154.9Z"/><polygon class="cls-106" points="198.5 152.3 198.3 153.9 204 150.7 202.7 150.1 198.5 152.3"/><path class="cls-107" d="M173.4,107.2a9.57,9.57,0,0,1-.4,5.7c-1.2,2.7-2.2,7.4,1.6,9.9,0,0-4.8-1.9-2.8-8.5C173.1,111,173.3,110.4,173.4,107.2Z"/><path class="cls-107" d="M177.2,101.3s-1.9,8.4,6.3,14.3C183.4,115.7,173.7,110.6,177.2,101.3Z"/><path class="cls-107" d="M176.1,111s2.6,11.6,12,12.8C188.1,123.9,177.9,122.9,176.1,111Z"/><path class="cls-107" d="M178.5,111.1s1.5,10.3,10.7,8.9c0,0-7.9.8-10.1-8.1Z"/><path class="cls-107" d="M179.3,112.3s2.8,5.2,7,5.9c0,0-4.5-.1-7.1-5.3Z"/><path class="cls-107" d="M173.4,122.1s1.5,4.9,1,7.2l-.9-4.9a58.17,58.17,0,0,1-1,8.4,3.29,3.29,0,0,0,.5,3s-.6,0-1-1a14.74,14.74,0,0,1,.3-3.5c.4-2.1,1.1-9,.7-9.7Z"/><path class="cls-107" d="M177.8,128.1s5.7,10,13.4,5.1C191.2,133.2,185.1,136.9,177.8,128.1Z"/><path class="cls-107" d="M193.6,118.3s1.4,9.7,1.5,11.4-1.9,14.6-1.9,15.8.7,2.2,2.9,2.3,2.2-.2,3-1.1c0,0-.2,1.8-3,1.5,0,0-3.1.1-3.6-1.2,0,0-.3-.5.3-2.9a126,126,0,0,0,1.9-14.3C194.7,129.9,192.6,118.7,193.6,118.3Z"/><path class="cls-107" d="M194,125.2s.5,5.7-3.4,6.8c0,0,3.4-1,3.7-5.5Z"/><path class="cls-107" d="M195.5,124.2s2.9,2.8,4.3-.4C199.8,123.8,198.8,128,195.5,124.2Z"/><path class="cls-107" d="M199.8,124.6s-.9,4.1-3.5,2.7c0,0,2.2.8,3.4-3.3Z"/><path class="cls-107" d="M200.2,132.4s-1.1,4.1-4.2,4.7a4.33,4.33,0,0,0,3.4-2.4s-1,4.1-3.5,4.2C195.9,138.9,199.4,139,200.2,132.4Z"/><path class="cls-107" d="M179.8,138.4a10.81,10.81,0,0,1,4,4c2,3.1,6.8,3.4,6.8,3.4a8.13,8.13,0,0,1-7.7-3.8c-2.8-4.5-3.5-3.7-3.5-3.7"/><path class="cls-107" d="M169.2,120.2s-.2,4.2,2.9,4.4C172.1,124.6,170,124,169.2,120.2Z"/><path class="cls-99" d="M175.9,93.4s2.6,3,8.9,2.1C184.8,95.5,177.7,97.6,175.9,93.4Z"/><path class="cls-99" d="M178.4,96.3l-.1,2.6s.5.9,2.1.7l.2-.3a2.36,2.36,0,0,1-1.9-.5C178.7,98.7,178.9,95.5,178.4,96.3Z"/><path class="cls-99" d="M192.8,151.3a7.73,7.73,0,0,0,.6,1.7c.5,1.1.1,4.2.1,4.2s-.5,2,.6,1.9c0,0-.7-.1-.3-1.9S194.3,152.4,192.8,151.3Z"/><polygon class="cls-99" points="190.7 114 192.1 115.5 191.9 114.5 190.7 114"/><path class="cls-99" d="M195.1,106.4s-6.5-.9-7.4,10.1a20.79,20.79,0,0,0,4.3-.5l-3.6-.1C188.3,116.1,188.4,107.5,195.1,106.4Z"/><polygon class="cls-99" points="179.3 103 179.6 104.6 180.1 104.7 180.3 103.7 179.3 103"/><polygon class="cls-102" points="193.6 155.9 188.8 158.5 188.2 168.9 188.6 158.4 193.6 155.7 193.6 155.9"/><polygon class="cls-102" points="193.3 155.4 188.3 158.3 187.7 168.7 187.3 168.5 188 158.1 193.6 155.1 193.3 155.4"/><polygon class="cls-102" points="198.6 152.5 202.9 150.4 203.2 150.5 198.4 152.9 198.6 152.5"/><polygon class="cls-102" points="198.6 153.2 203.4 150.7 198.5 153.5 198.6 153.2"/><path class="cls-108" d="M175,147.7s1.4,17.8,7.5,19.7A38.82,38.82,0,0,1,175,147.7Z"/><path class="cls-109" d="M172.8,188.2s-6.2,4.1-5.5,6.5,5.3.8,11.1-3.9c0,0-7.6,6-10.4,4.1C168,194.9,166,193.4,172.8,188.2Z"/><path class="cls-109" d="M183.4,193.7s-6.2,4.1-5.5,6.5,5.3.8,11.1-3.9c0,0-7.9,5.7-10.4,4.1C178.6,200.5,176.7,199.2,183.4,193.7Z"/><path class="cls-110" d="M409.1,275a19.41,19.41,0,0,0-1,8.4s.9,4.1,4.1,4.6c0,0-.5-6.6.5-8.3s-.5-3.9-.5-3.9Z"/><path class="cls-99" d="M408.8,275.8a3.41,3.41,0,0,0,4.1.7v.9l-1.4,1.8s.1-1-1.3-1.2a12.94,12.94,0,0,1-2-.4A18.41,18.41,0,0,1,408.8,275.8Z"/><path class="cls-111" d="M410.3,279.1a30.06,30.06,0,0,0-.1,4.5c.2.9,1.2.7,1.3-.3a10.62,10.62,0,0,1,.4-2.9,3.1,3.1,0,0,0,.6-1.3s.4.4-.5,1.9l-.2,2.3s-.1,1.2-1,1.1-1-1.3-1-2C409.8,282,409.8,278.9,410.3,279.1Z"/><path class="cls-87" d="M423.6,335.1s-3.4,3-4.9,4.6-.1,3.6,2.4,2.6a35.5,35.5,0,0,0,8.1-4.6l.3,1s.7.6.9-.6,1-4.9-.2-5.9C430.3,332.2,427.4,336.5,423.6,335.1Z"/><path class="cls-110" d="M425,314.9s1.2,14.4.3,17a12.85,12.85,0,0,1-2.7,4.4s-2.3,2.5.7,1.9a11.88,11.88,0,0,0,6.7-4.1c.8-1.3-.6-2.7.2-6s2.8-8.9,3-13.9Z"/><path class="cls-111" d="M425.2,317s5.2.9,7.9-.9l.3-2.1-8.4.9Z"/><path class="cls-87" d="M413,329.6a26.56,26.56,0,0,0-4.9,4.6c-1.3,1.8-.1,3.6,2.4,2.6a35.5,35.5,0,0,0,8.1-4.6l.3,1s.7.6.9-.6,1-4.9-.2-5.9C419.6,326.8,416.8,331.1,413,329.6Z"/><path class="cls-110" d="M414.4,309.4s1.2,14.4.3,17a12.85,12.85,0,0,1-2.7,4.4s-2.3,2.5.7,1.9a11.88,11.88,0,0,0,6.7-4.1c.8-1.2-.6-2.7.2-6s2.8-8.9,3-13.9Z"/><path class="cls-111" d="M414.7,313.9s2.9,3.2,6.7,2.1l.4-1.4-7.3-2.8Z"/><path class="cls-112" d="M413.6,276.3a6.39,6.39,0,0,0-2.5,4.3c-.3,2.8-1.9,24.2-1.9,24.2a3.44,3.44,0,0,0,.4,3.5c1.2,1.8,11,10.2,23.3,6.5,0,0,6.9-2.2,7.3-7l-2.1-22.2Z"/><path class="cls-110" d="M435.3,247.9s-4.2-1.4-6.4,4.9a9.67,9.67,0,0,0-1.3,5.5s9.9,1.5,10.6-5.2C438.2,253.2,437.7,248.7,435.3,247.9Z"/><polygon class="cls-102" points="429.4 300.1 428.7 310.5 444 302.3 444.2 292.2 429.4 300.1"/><path class="cls-111" d="M431.4,254.1l1.1,4.7.4-.1C433,258.7,432.7,255,431.4,254.1Z"/><path class="cls-64" d="M414.6,229.7s.7,4.1,0,6.7-.8,4.7,2.2,5.6l1.6.2s-1.5-9.8-.8-13.1C417.6,229.1,414.6,226.9,414.6,229.7Z"/><path class="cls-110" d="M433.2,288.5a6.73,6.73,0,0,0-1.3,4.2,26.86,26.86,0,0,1-.6,5.3s.1.7,1.1.3,1-1.5,1.1-2.5a11.58,11.58,0,0,1,.2-1.5,17,17,0,0,1,0,4.8c-.4,2.2,1.9,1.4,3.1.4s2.7-6.2,1.5-9.9C438.2,289.5,434.8,289.9,433.2,288.5Z"/><path class="cls-111" d="M433,288.7s3.2,1.6,5.2.7a5.21,5.21,0,0,1,.4,2.3,2.06,2.06,0,0,0-2.3-1.1c-2.7.2-3.6.3-3.8,2.3a13.07,13.07,0,0,1-1.2,4.8s.5-4.5.4-5.4S432.2,289.1,433,288.7Z"/><path class="cls-64" d="M414.6,230a7.86,7.86,0,0,1,4.8-8.5s4-2.2,6.7-1.5,7.4,2.3,8,5.8-.8,5.5,1,9.8,4,8.7.1,12.4c0,0-4-1.4-5.1-2.3-2.1-1.9-1.6-3.5-1.8-5.4a7.89,7.89,0,0,1-2.2-5.1v-2.8C426.2,232.2,417.7,234.4,414.6,230Z"/><path class="cls-113" d="M416.1,239.5s-5,1.1-5.8,7.5-1.5,15.4-2,18.1-2.4,7.9,0,10.3,4.4,1,4.4,1l-.6-.7s1.7,3.7,4.7,4.6,4.2.8,7.4,4.2,6.6,3.2,8.7,2.1a9,9,0,0,0-.2,1.3c0,.4-.5,1.1,2.2,1.7s4.3-.4,4.5-1.4,2.1-10.8,2.5-12.6,1-2.6,0-8.6a99.83,99.83,0,0,0-4.4-16,4.62,4.62,0,0,1-.9,4.6c-1.9,2-8.4,2.6-9.8,2.3-2.3-.6-8.8-2.3-9.9-12a4.46,4.46,0,0,1,.5-3.1A13.35,13.35,0,0,1,416.1,239.5Z"/><path class="cls-110" d="M428.5,240.6a5.1,5.1,0,0,0,2.1,4.8s1.2.7,1.5.8a113.23,113.23,0,0,0-7.4,11.3,12,12,0,0,1-7.1-7.9s-1.6-4.1-.1-6.9c0,0,3.5,2.6,6.6,1.6s4.1-4.4,4.1-4.4Z"/><path class="cls-111" d="M417.4,242.8a14.38,14.38,0,0,0,.9,7.8s1.6,5,5.1,6.3l-1.8-1.5.3-1.1-.9.5s-4-6.9-3.2-11.5Z"/><path class="cls-110" d="M415.6,231.1a43.57,43.57,0,0,0,.5,8.5c.7,3.1,2.3,5.5,5.7,5.5,2.9,0,5.7-.9,6.4-4.5a1.29,1.29,0,0,0,1.9-.4,1.06,1.06,0,0,0,0-.6s-3.3-1.8-3.5-4.1a14.78,14.78,0,0,1,.1-3.8S419.5,234.3,415.6,231.1Z"/><path class="cls-114" d="M427.8,258.1a13.69,13.69,0,0,1,.6-4c2.3-7.1,6.8-6.2,6.8-6.2-.8-1.9-3.2-1.7-3.2-1.7a9.38,9.38,0,0,0-3.4,2.1c-3.4,3.2-2.1,8.3-5.3,8.5C423.3,256.9,427.1,258.4,427.8,258.1Z"/><path class="cls-111" d="M417.5,242.8a6.19,6.19,0,0,0,6.1,2,6,6,0,0,0,3.8-2.3,4.75,4.75,0,0,1-4.6,3C419.7,245.6,418.7,244.4,417.5,242.8Z"/><path class="cls-111" d="M428.5,244.2a5.14,5.14,0,0,0,2.8,1.7c-2.4-1.5-1.9-5.3-1.9-5.3a1,1,0,0,1-1,0c0,.3-.2-.8-.8,1.2,0,0,0,2.1-4.4,3.7A25.57,25.57,0,0,0,428.5,244.2Z"/><path class="cls-106" d="M433.8,296.3l-5.9,3.2-.7,10.4,1.5.6.7-10.4,4.4-2.3A7.35,7.35,0,0,0,433.8,296.3Z"/><polygon class="cls-106" points="438.6 293.8 438.4 295.3 444.2 292.2 442.9 291.5 438.6 293.8"/><path class="cls-115" d="M413.6,248.6a9.57,9.57,0,0,1-.4,5.7c-1.2,2.7-2.2,7.4,1.6,9.9,0,0-4.8-1.9-2.8-8.5C413.3,252.5,413.5,251.9,413.6,248.6Z"/><path class="cls-115" d="M417.4,242.8s-1.9,8.4,6.3,14.3C423.6,257.1,413.9,252.1,417.4,242.8Z"/><path class="cls-115" d="M416.3,252.5s2.6,11.6,12,12.8C428.3,265.3,418.1,264.4,416.3,252.5Z"/><path class="cls-115" d="M418.7,252.6s1.5,10.3,10.7,8.9c0,0-7.9.8-10.1-8.1Z"/><path class="cls-115" d="M419.5,253.8s2.8,5.2,7,5.9c0,0-4.5-.1-7.1-5.3Z"/><path class="cls-115" d="M413.6,263.6s1.5,4.9,1,7.2l-.9-4.9a58.17,58.17,0,0,1-1,8.4,3.29,3.29,0,0,0,.5,3s-.6,0-1-1a14.74,14.74,0,0,1,.3-3.5c.4-2,1.1-9,.7-9.7Z"/><path class="cls-115" d="M418,269.6s5.7,10,13.4,5.1C431.4,274.6,425.3,278.3,418,269.6Z"/><path class="cls-115" d="M433.7,259.7s1.4,9.7,1.5,11.4-1.9,14.6-1.9,15.8.7,2.2,2.9,2.3,2.2-.2,3-1.1c0,0-.2,1.8-3,1.5,0,0-3.1.1-3.6-1.2,0,0-.3-.5.3-2.9a126,126,0,0,0,1.9-14.3C434.9,271.3,432.8,260.2,433.7,259.7Z"/><path class="cls-115" d="M434.2,266.7s2,5.8-3.4,6.8c0,0,3.4-1,3.7-5.5Z"/><path class="cls-115" d="M435.6,265.7s2.9,2.8,4.3-.4C439.9,265.2,439,269.5,435.6,265.7Z"/><path class="cls-115" d="M440,266s-.9,4.1-3.5,2.7c0,0,2.2.8,3.4-3.3Z"/><path class="cls-115" d="M440.4,273.8s-1.1,4.1-4.2,4.7a4.33,4.33,0,0,0,3.4-2.4s-1,4.1-3.5,4.2C436.1,280.4,439.6,280.5,440.4,273.8Z"/><path class="cls-115" d="M420,279.9a10.81,10.81,0,0,1,4,4c2,3.1,6.8,3.4,6.8,3.4a8.13,8.13,0,0,1-7.7-3.8c-2.8-4.5-3.5-3.7-3.5-3.7"/><path class="cls-115" d="M409.3,261.7s-.2,4.2,2.9,4.4C412.3,266,410.2,265.5,409.3,261.7Z"/><path class="cls-111" d="M416.1,234.9s2.6,3,8.9,2.1C425,237,417.8,239,416.1,234.9Z"/><path class="cls-111" d="M418.6,237.7l-.1,2.6s.5.9,2.1.7l.2-.3a2.36,2.36,0,0,1-1.9-.5C418.9,240.1,419.1,237,418.6,237.7Z"/><path class="cls-111" d="M433,292.7a7.73,7.73,0,0,0,.6,1.7c.5,1.1.1,4.2.1,4.2s-.5,2,.6,1.9c0,0-.7-.1-.3-1.9S434.5,293.8,433,292.7Z"/><polygon class="cls-111" points="430.9 255.5 432.3 257 432.1 256 430.9 255.5"/><path class="cls-111" d="M435.3,247.9s-6.5-.9-7.4,10.1a20.79,20.79,0,0,0,4.3-.5l-3.6-.1C428.5,257.5,428.6,248.9,435.3,247.9Z"/><polygon class="cls-111" points="419.5 244.5 419.8 246.1 420.3 246.2 420.5 245.2 419.5 244.5"/><polygon class="cls-102" points="433.7 297.4 429 300 428.4 310.4 428.8 299.8 433.8 297.2 433.7 297.4"/><polygon class="cls-102" points="433.5 296.9 428.5 299.8 427.9 310.2 427.5 309.9 428.2 299.6 433.7 296.6 433.5 296.9"/><polygon class="cls-102" points="438.7 294 443.1 291.8 443.4 292 438.6 294.4 438.7 294"/><polygon class="cls-102" points="438.8 294.6 443.6 292.2 438.7 295 438.8 294.6"/><path class="cls-116" d="M415.2,289.1s1.4,17.8,7.5,19.7A36.89,36.89,0,0,1,415.2,289.1Z"/><path class="cls-88" d="M413,329.6s-6.2,4.1-5.5,6.5,5.3.8,11.1-3.9c0,0-7.6,6-10.4,4.1C408.2,336.4,406.1,334.9,413,329.6Z"/><path class="cls-88" d="M423.6,335.2s-6.2,4.1-5.5,6.5,5.3.8,11.1-3.9c0,0-7.9,5.7-10.4,4.1C418.8,341.9,416.9,340.6,423.6,335.2Z"/><g class="cls-117"><path class="cls-7" d="M218.8,448.1s.8.1.9.5a22.08,22.08,0,0,1,0,2.6c-.1.5-.7.6-.7.6l-.2-.5v-3.2Z"/><path class="cls-8" d="M218.9,448.3s.5.2.4.4a.78.78,0,0,1-.4.3Z"/><path class="cls-9" d="M218.7,428.6a42,42,0,0,0-.3,8.6c.3,3.7.7,13.8.7,14.5a4.79,4.79,0,0,1,1.7,3.1c.3,2.2.5,4.2-.3,4.6s-1.1.3-1.1.3.4,3.7-2.7,3.4l-1.8-9.8.1-24Z"/><path class="cls-8" d="M219.1,451.6a3.48,3.48,0,0,1-2.9.9l-1.4-.3-.1-2.6s.3.8,2.2.7a2,2,0,0,0,2-1.4s.1-.1.2.3A4.83,4.83,0,0,1,219.1,451.6Z"/><path class="cls-10" d="M216,453.9s.7,2.1,2.1,2.3a1.5,1.5,0,0,1,1,1.5l.2,2.1s-.8-.3-.8-2.4c0,0,0-.5-1-.8A2.37,2.37,0,0,1,216,453.9Z"/><path class="cls-11" d="M198.8,517.2s5,6.8,5.3,7.8-.1,1.7-2.5,2.5-10.5-7.8-10.8-8.6.7-2.5.7-2.5S195.3,519.9,198.8,517.2Z"/><path class="cls-11" d="M212.2,511.2s5.5,6.1,5.5,7a3.19,3.19,0,0,1-2.9,2.6c-1.8.2-10-7.7-10.3-8.3s.7-3,.7-3Z"/><path class="cls-54" d="M217.1,465.4s.8,22.4.8,24.4-4.6,17.2-5.2,19.8a2.21,2.21,0,0,1-1.5,2.4c-1.5.4-5.9.9-7.1-3,0,0,4.2-15,4.4-18.3s-.6-9.1-2.2-14.5c0,0-.9,17.7-1.6,20.3s-5.5,20.3-5.5,20.3-.6,3-4.8,1.9-3.3-4.1-3.3-4.1,4.2-13.7,3.5-18.9c0,0-.6-32.8-.3-36,0,0,17.1-4.4,21.4-7.2C215.6,452.3,217.1,455.4,217.1,465.4Z"/><path class="cls-13" d="M215.3,448.6a11.69,11.69,0,0,1,.3,4.4s-5.3,7.8-16.9,5.1l-2.6-6.4C196.1,451.9,206.9,456,215.3,448.6Z"/><path class="cls-9" d="M208.2,414.2a11.7,11.7,0,0,1,.9,5.1l-.8,5s-1.4-3.7-2.9-5.2-4.4-3.6-4.9-4.2.6-3.8.6-3.8l3.1-2Z"/><path class="cls-118" d="M199.3,410.4a.75.75,0,0,0,.6.3s-.6,2-.3,2.7c0,0,2.9,3.8,4.9,4.7s3.7,6,3.7,6,.9-4.9.9-5.7l-.9-3.2,2.4-1a75,75,0,0,0,2.8-7.1s5.1,0,5.3,7.4c-.1.3.3,9,.3,9s.8-.4,1,1.1l-.2,3.3a4.64,4.64,0,0,1-3.5,2.4s.3,14.1-.8,18.7c0,0-7.1,10.7-21.2,3.7a14.5,14.5,0,0,1-2.6-7.7c0-4.2,6.7-32.1,6.7-32.1Z"/><path class="cls-15" d="M200.8,454.2c-.2-.1-.3,0-.3.2s-.2.3-.3.5a2,2,0,0,0-.3,1.1c-.1.3-.2.8-.3,1.1l-.4,1.2a4.36,4.36,0,0,1-1.9,1.9,4.85,4.85,0,0,1-2.7.5,6.31,6.31,0,0,1-4.5-2.4,12,12,0,0,1-1.3-2.1,16.88,16.88,0,0,1-.8-2.4h.1a11.78,11.78,0,0,0,2.5,4,6.3,6.3,0,0,0,4.1,2.1,4.34,4.34,0,0,0,4-2c.4-.7.5-1.5.9-2.2.2-.3.3-.7.5-1s.2-.3.3-.5.2-.3.4,0Z"/><ellipse class="cls-119" cx="208.9" cy="431.4" rx="0.6" ry="0.9"/><path class="cls-15" d="M194.4,449.9s6.4,3.1,6.9,4a13.38,13.38,0,0,1,.2,2c.1,5.2-.3,18.4-.9,19.6-1.1,2.2-3.7.9-4.9.4l-6.8-3.9s-1.7-.8-1.6-5.2c.1-4.2.5-11.8.5-11.8s-.8-1.2-.3-4.4S192.4,448.2,194.4,449.9Z"/><path class="cls-120" d="M200.8,454.2a1.21,1.21,0,0,0-1.7,1.3c0,2-.2,3.7-.9,4.5s-7,3.6-10.3-5a8.18,8.18,0,0,0,4.2,5.8s4.1,2,6.6-.9a5.72,5.72,0,0,0,.7-3.1C199.3,454.8,199.6,454.3,200.8,454.2Z"/><path class="cls-9" d="M188.5,438.1s-1.3,4.1.3,13.7c0,0,3.2,12.6,2.8,14.6a3.74,3.74,0,0,0,4.5-1s-1.9-14.1-1.7-18.9.2-7.2.2-7.2S193.1,435.5,188.5,438.1Z"/><path class="cls-23" d="M208.4,415.6s.9,1.4.2,5.9l.8-2.4a28,28,0,0,0-.6-3.8l-.3-.9-.4.5Z"/><path class="cls-118" d="M196.8,421.9c1.7,1.4,1.4,3,1.6,6.4s-3.1,12.5-3.1,12.5l-1.6.3c-5.7.4-6.8-3.1-6.8-3.1s.4-4.1,1-4.2c.4-2.1.8-4.5.9-5.3.3-3.5-.3-5.4,1.3-7.8s7.4-6.3,7.4-6.3.4-3,2.4-3.8l-.2,1.8"/><path class="cls-9" d="M196,465.2s1.3.7,2,3.3a9.44,9.44,0,0,1,.4,2.7,6.84,6.84,0,0,1-.3,2.2c-.2.4-1.4.8-1.6-.3s.3-3-.6-3c0,1.5-.4,2.5-.3,3.4.1.5.9,3,.7,3.6s-.7,1.6-2.4.3a10.05,10.05,0,0,1-3-4.6c-.4-1.7.4-5,.7-6.8C191.7,466.1,193.7,467.8,196,465.2Z"/><path class="cls-15" d="M199.6,456.1a92.15,92.15,0,0,1,4.3-12.5c3.3-7.7,10.9-29.6,9-33.7l.3-1.7s2.3,1.9.3,10.6-9.1,27.6-9.8,29.5-2.4,7.1-2.8,9S199.1,458,199.6,456.1Z"/><path class="cls-23" d="M197.7,423.4a11.56,11.56,0,0,1,.8,4.5,18.16,18.16,0,0,1-.6,4.6c-.9,2.9-2.3,8.3-2.7,8.4s-.7.1-.6-.6c.5.1,1.5-3.1,1.3-3.8.1-.2,0-.2.1-.4.5-1.4.8-2.8,1.1-3.9a21.35,21.35,0,0,0,.8-4.4A16.44,16.44,0,0,0,197.7,423.4Z"/><path class="cls-20" d="M211.2,452.9s.8,1.4.1,4.3a12.91,12.91,0,0,1-4.2,1.7l-.1-4.2C207.2,454.7,210.2,453.9,211.2,452.9Z"/><path class="cls-120" d="M200.6,453.2s-1,2.2-.7,2.8,1,1.2,1.6-1c0,0,.1,0,.1.5,0,0-.3,1.2-1,1.3s-1.2-.8-.7-2.1a5.5,5.5,0,0,0,.5-1.5l-5.7-3.1v-.3C194.4,449.8,199.9,452.6,200.6,453.2Z"/><path class="cls-23" d="M208.3,424.3s-.3-8.7,4.9-6.2C213.2,418.2,209.2,417,208.3,424.3Z"/><polygon class="cls-23" points="210.6 414.1 213.1 418.1 212 417.8 210.2 414.3 210.6 414.1"/><path class="cls-121" d="M211.1,459.1l-1.7,7.2-4.2,2.8,2.6-.7a12.06,12.06,0,0,0-1.5,6.3v2s-.3-6.5,3.7-9.4Z"/><path class="cls-9" d="M199.8,412.5l.2-1.8c-.6,0-.8-.3-1.5-.8-.9-.7-1.5-2.4-1.3-4.5s1.9-1.6,1.9-1.6.3-7.3.2-7.7a4.22,4.22,0,0,1,1.3-3.7c6.3-3.7,12,4.1,13.1,5.1s.7,4.4.7,4.4a3.78,3.78,0,0,1-.1,1.4c-.2.4-1.3,1.4-.5,2.3,1,1-1.3,7.3-2,8.2s-3.3,1.5-3.5,1.6"/><path class="cls-122" d="M203.9,389.1c-1.2.3-1.3,1-1.6,1.3a2.12,2.12,0,0,0-2.2,1.6,2.61,2.61,0,0,0-2.2,1.1,2.87,2.87,0,0,0,0,2,1.84,1.84,0,0,0-1.1,2.4,2.27,2.27,0,0,0-.4,2.6,2.67,2.67,0,0,0,.3,3.1,2.08,2.08,0,0,0,.5,2.2s.6-2.2,2.4-1a4.14,4.14,0,0,1,1,2.8l.1,1.6a1.19,1.19,0,0,0,1.4-1c.2-1.1.1-1.1.5-1.4.7-.5,1.1-1,1-2.5,0,0,2.3-1,1.6-2.7l-.7-1.3a1.92,1.92,0,0,0,2,.8s1.1,1.7,2.9.1a1.67,1.67,0,0,0,2.4-.8s1.7.8,2.3-1.3c0,0,1.6.1,1.2-2.1,0,0,.3-1.1-1.7-1.7,0,0,.3-1.7-2.4-2.2A2.15,2.15,0,0,0,209,391a1.75,1.75,0,0,0-2.6-1.4A3.57,3.57,0,0,0,203.9,389.1Z"/><path class="cls-10" d="M214.1,403.2a7.07,7.07,0,0,1-3,1.8,24.77,24.77,0,0,1-4,1.5c-2.4.3-3-.3-3-.3s1.1,1.2,3.8.7a9.87,9.87,0,0,0,5.3-2.4A2.52,2.52,0,0,0,214.1,403.2Z"/><path class="cls-10" d="M203.1,417.2s-3.1-2.3-4-3.8l.3-.7v-2.1a1,1,0,0,0,1.1-.2c.2-.1.4-.6.7-.7a25.58,25.58,0,0,0,.4,4.2l4.7,5.7Z"/><path class="cls-10" d="M200.2,406.3s-.8-1.6-1.7-1.1-.4,3.5.3,4.1a.94.94,0,0,0,1.6-.6s0-.7-.6-.8,0,.9-.5.7a2.53,2.53,0,0,1-.7-2.4c.3-.6.3,1.3.4,1.5s1,0,.7-.6C199.4,406.3,199.8,406.1,200.2,406.3Z"/><path class="cls-10" d="M211.4,405.7v4.4a2.17,2.17,0,0,1-2.4.3l.4-.5,1.2-.1.3-3.9Z"/><path class="cls-23" d="M186.9,438.1s1.8,3.9,8.3,2.8a.83.83,0,0,0,.4-.7s-6,1.1-8.5-3.3A1.84,1.84,0,0,0,186.9,438.1Z"/><path class="cls-23" d="M191.6,436.5a7.56,7.56,0,0,1-2.2-1.1,6.12,6.12,0,0,1-1.5-1.7,9.94,9.94,0,0,0,6.2,2.7,4.51,4.51,0,0,0,2.5-.5l-.3.6C196.3,436.4,195.5,437.4,191.6,436.5Z"/><path class="cls-23" d="M197.7,413.2s-.1,1.6,1.6,4.4,2.4,4.3,2.4,4.3,2.4-3.7,3.4-3.4,1.8,2.1,1.8,2.1l1.4,3.6s-2.9-6.2-3.8-4.9-3,4.3-3,4.3-3.5-6.7-3.8-8A3.34,3.34,0,0,1,197.7,413.2Z"/><path class="cls-23" d="M199.3,411.4a2.75,2.75,0,0,0,.5,2c.2.3.4.5.6.8l.7.7h0c1,.7,2,1.4,3,2.2l1.3,1.3a4.35,4.35,0,0,1,1,1.6,4.89,4.89,0,0,0-1.3-1.2c-.4-.3-1-.7-1.5-1l-3-2.1h0l-.8-.8a4.7,4.7,0,0,1-.6-.9A3.32,3.32,0,0,1,199.3,411.4Z"/><path class="cls-10" d="M208,416.1c0-.1-4.4.3-5.9-5.1a13.31,13.31,0,0,0,2.6,2.9c1.3,1,2.2,1.8,3.5,1.4a3.22,3.22,0,0,1,.5,1.6A3.05,3.05,0,0,0,208,416.1Z"/><path class="cls-23" d="M215.9,414.9l.4,15.4a4.47,4.47,0,0,0,3.5-2.4s-1.9,1.8-3,1.6C216.7,429.5,216.5,417.4,215.9,414.9Z"/><path class="cls-23" d="M216.3,425s1.3.3,2.7-1.6a3.21,3.21,0,0,1-2.5,2.4Z"/><path class="cls-23" d="M211.5,426.5a6.26,6.26,0,0,0,3.7-2.4,1.11,1.11,0,0,1-.5,1.3,6.76,6.76,0,0,1-3.4,1.8Z"/><path class="cls-23" d="M211.5,433.4a3.09,3.09,0,0,0,3.1-2C214.6,431.5,214.6,434.5,211.5,433.4Z"/><ellipse class="cls-119" cx="208.9" cy="440" rx="0.6" ry="0.9"/><ellipse class="cls-119" cx="209.5" cy="447.8" rx="0.6" ry="0.9"/><ellipse class="cls-119" cx="208.2" cy="425.4" rx="0.6" ry="0.9"/><path class="cls-54" d="M213.8,451s.6,3.3.2,4.4l1.3-1.1-.3-4.4Z"/><polygon class="cls-54" points="203.3 455.1 203.4 459 202 458.8 202 455 203.3 455.1"/><path class="cls-10" d="M207.3,416s.8,2.7-.5,4.3l1.5,3.7a19.11,19.11,0,0,1,.3-3.3c.3-1.4.3-5-.4-5.4A1.38,1.38,0,0,1,207.3,416Z"/><path class="cls-10" d="M217,458.7l.1,4.3a.81.81,0,0,0,.8-.1s-.8.4-.7-1.9C217.5,458.7,217.2,458.2,217,458.7Z"/><path class="cls-10" d="M188.2,439.6s1.7,1.7,6.4,1.3a75.89,75.89,0,0,0-.1,8.9s-.8-6.5-.6-7.3a9.46,9.46,0,0,1-4.8-.4s-.8,6.2-.4,8.9C188.7,451,187.5,444,188.2,439.6Z"/><path class="cls-10" d="M218.7,429.3l-.2,1.2a2.52,2.52,0,0,0-1.6,2.5c.1,1.9-.8,17.2-.8,17.2l-.5-.1-.2-.9a23.28,23.28,0,0,0,.7-4.8c0-2.1.6-12.4.3-14.1Z"/><path class="cls-23" d="M216.5,430s.3,13.2-1,19.2a15.21,15.21,0,0,1-14.1,5.9s10.4-.3,13.6-6.2a55.8,55.8,0,0,0,.9-6.8c.4-5.1.4-12,.4-15.2Z"/><path class="cls-24" d="M210.7,512.5l3.4,4.1A12.25,12.25,0,0,1,210.7,512.5Z"/><path class="cls-24" d="M212.2,513.1l-1.7.9A1.47,1.47,0,0,0,212.2,513.1Z"/><path class="cls-24" d="M213.2,514.1l-1.7.9A1.47,1.47,0,0,0,213.2,514.1Z"/><path class="cls-24" d="M214.3,515.3l-1.7.9A1.53,1.53,0,0,0,214.3,515.3Z"/><path class="cls-24" d="M197.2,519.1l3.4,4.1A10.07,10.07,0,0,1,197.2,519.1Z"/><path class="cls-24" d="M198.6,519.7l-1.7.9A1.44,1.44,0,0,0,198.6,519.7Z"/><path class="cls-24" d="M199.6,520.8l-1.7.9C198,521.6,199.2,521.9,199.6,520.8Z"/><path class="cls-24" d="M200.8,521.9l-1.7.9A1.44,1.44,0,0,0,200.8,521.9Z"/><path class="cls-24" d="M198.1,526s-.5-.5.7-1.4c2.8-1.9,4.1-1.6,4.1-1.6s1.8,1.8,1.2,2.9c0,0-1.6,2.2-3.8,1.4Z"/><path class="cls-24" d="M211.4,518.9s-.2-.3,1-1.1c2.8-1.9,4.1-1.6,4.1-1.6s1.8,1.8,1.2,2.9c0,0-2,2.2-3.8,1.4Z"/><path class="cls-24" d="M190.8,517.8a40.23,40.23,0,0,0,7.8,7.8l-.1.8s-5.4-3.8-7.7-7.4A3.91,3.91,0,0,1,190.8,517.8Z"/><path class="cls-24" d="M204.6,511.4s1.7,3,7.8,7.4l.1.8s-5.6-3.5-7.9-7.1C204.5,512.6,204.5,512.3,204.6,511.4Z"/><path class="cls-121" d="M209.9,467.3s4.4-2.4,4.3-4l-4.5,3.2Z"/><path class="cls-123" d="M276.3,586.2s4.2.7,5.2,2.3c0,0-2.4-14.5-6.3-19.1C275.4,569.4,276.6,583.2,276.3,586.2Z"/><path class="cls-124" d="M271.6,519.4s-.7,4.3.8,6.2a3.54,3.54,0,0,0,1.2,2.4c1.1.8,3,2,3,2a29.48,29.48,0,0,1,1.7-4.2c1.1-2.2,2.6-9.3,1-12.7s-4-2.1-4-2.1Z"/><path class="cls-125" d="M272.4,616.7l-3.5,5.1a5.77,5.77,0,0,1,4.5,1.7s4.1-2.9,5-4.1c.3-.4.7-.7.8-1.2a5.72,5.72,0,0,0-.6-2.5Z"/><path class="cls-125" d="M257,610.9a60.69,60.69,0,0,0-4.2,5.7l4.6,1.9,5.2-4.4a2.44,2.44,0,0,0,.5-2.8c-.1-.2-.6-1.9-.7-2.1Z"/><path class="cls-125" d="M250.6,561.3s-1,5.1-.5,7.9,1,3,2.5,3.7l1-9.7Z"/><path class="cls-126" d="M275.8,617.7a3.71,3.71,0,0,1-3.5-1.1,70,70,0,0,1-1.2-8.2c-.2-2.6-1.8-8.3-2.7-13-.7-3.7-.8-6.5-1-7.4-.4-2-4.4.3-4.4.3a16,16,0,0,0-.8,5.7c0,3.8.7,14.5.7,14.5s.4,2.4-1.6,3.3c0,0-3.4,1.3-4.5-1.1,0,0-3.8-21.4-4.1-26.3.1,0,6.6-17.4,23.1-14.8.3.1,2.3,3.5,2.3,8.6,0,3.7-1.4,12.1-.9,18.1.2,2.4.5,3.8.7,5.4.5,5.6.4,6.8.5,13.7C278.5,616.4,277.2,617.5,275.8,617.7Z"/><path class="cls-127" d="M253.1,587.4s5.4,3.3,9.3,4l-.1,1.4s-5.3.1-8.8-2.7Z"/><path class="cls-127" d="M275,572.2s-2.5,10.8-.4,20.6c0,0-3.9,1.8-6.3,1.1a51.08,51.08,0,0,1-.6-5.5C267.6,587.4,272.8,570.4,275,572.2Z"/><path class="cls-128" d="M284.4,557.3c-.3-4.9-2-16.4-3.5-19.9s-3-7.4-5.8-8.8a7.33,7.33,0,0,0-5.6,4.3c-1.7,3.8-3.7,6.8-5.7,6.7s-5.5-.4-6.4-3.3a31.6,31.6,0,0,1,1.7-9.8,15.44,15.44,0,0,1-1.2-4.7s-2.6-.3-3.9,3.3-2.5,11.1-2.9,17.3-1.5,14.1-1.6,16.2.3,3.4,3.3,4.6c0,0-2,13.9-2.4,16.4a43.84,43.84,0,0,0-.2,5.6s1,2.5,7.4,4.8,14,3.1,16.6,2.6a49.48,49.48,0,0,1-1.3-9.5,74.9,74.9,0,0,1,.8-10l1-8.5,1.2,7.7s4.4,7.8,5.1,14.7a13.38,13.38,0,0,1,.1,4.4s3.4-.7,3.2-5.1-1.7-12.8-2.5-14.6C281.7,571.7,284.5,562.2,284.4,557.3Zm-10.1-5.2a6.46,6.46,0,0,1,.3-5.1c1.5,2.8,2.1,10.7,2.1,10.7S275.4,554.9,274.3,552.1Z"/><path class="cls-63" d="M275.6,509.7s1.6-.5,1.5,2-.6,3.8-1.9,3.8Z"/><path class="cls-125" d="M269.5,522.7a1.63,1.63,0,0,0,1.7-.6s-.7,3.1.7,4.4,2.8,1.7,3.1,2.2c0,0-4,1.3-5.1,3.6s-3.2,6.8-5.7,7.5-6.5-1.3-7-3,1-8.4,1.8-10.5C259,526,267.3,524.8,269.5,522.7Z"/><path class="cls-125" d="M257.5,510.3a19.82,19.82,0,0,0-.7,6.4,13.64,13.64,0,0,0,.4,1.7,10.28,10.28,0,0,0-.1,1.8c.9,5.9,2.2,8.5,5.5,8.5s7.9-5.1,7.9-5.1c.6.1,1.8-1.2,1.7-3.6,0,0,4.4-9.8-1.2-12.5S260.4,503.5,257.5,510.3Z"/><path class="cls-48" d="M277.5,559.7s-9.6,6.1-10,7.4-2.4,10.4-2.1,11.4,4.8,3.4,5.5,3.5,6.2-5.1,6.2-5.1l3-12.7Z"/><path class="cls-22" d="M257.3,511.5a6.65,6.65,0,0,1,.6-1.6s.1,2.6,3.9,3.4,4.3.7,4.8,3.2,2.2,2.1,2.5,3.7-1.2,2.4-1.9,1a1.22,1.22,0,0,0,1.9.9c1.6-.8.7-2.2,1-3a2.44,2.44,0,0,0,1.8.8,2.14,2.14,0,0,0,2.3-.2,15.23,15.23,0,0,0,1.2-2.9c.9-2.7.1-3,.5-5.1a22.27,22.27,0,0,0-.4-5.2c-1-2.4-6.9-4.7-9.4-4.5a13.44,13.44,0,0,0-6.9,3.3A6.64,6.64,0,0,0,257,508C256,510.4,257.3,511.5,257.3,511.5Z"/><path class="cls-129" d="M256.9,517s3.9,2.3,5.7,2.5,2.6,0,3,.5a9.9,9.9,0,0,1-2.4.1c-.6.3-3.8-1.1-6.1-2.6Z"/><path class="cls-129" d="M261.4,523.4c-.2.9-2.6,1-2-.8a5.09,5.09,0,0,0,.3-2.8s.3-.3.4.3a6.77,6.77,0,0,1-.4,2.6.68.68,0,0,0,1.1.6C260.9,523.4,261.4,523,261.4,523.4Z"/><path class="cls-129" d="M257.5,537.2c-1.1-1.2,1.1-9.5,1.1-9.5l.4-1.1s1.5,2.5,5.2,1.6a8.21,8.21,0,0,0,4.9-4.1c-.7,5.8-6.7,5.6-6.7,5.6s-2.5-.2-3.2-1.4A20.7,20.7,0,0,0,257.5,537.2Z"/><path class="cls-130" d="M254.9,528.5s.7,2.6.3,3.9-3.9,4.8-1.8,9.1,3.3,5.1,3,9-3.3,4.7-3.7,12.9a20.93,20.93,0,0,1,1.4-9c1.9-5.2,2.2-6.4.7-8.7s-3.1-5.1-2.6-8.2a10.73,10.73,0,0,1,2.5-5.1A14.45,14.45,0,0,0,254.9,528.5Z"/><path class="cls-130" d="M261.4,546.6s3.7,2.2,7.4.3C268.8,546.8,265.1,550.6,261.4,546.6Z"/><path class="cls-129" d="M251.2,564.8s0,2.9.1,3.1.6,1.6.6,1.6l-.1,1.2S250.1,567.5,251.2,564.8Z"/><path class="cls-129" d="M269.6,523.1s.8,1,1.8-.2a3.09,3.09,0,0,0,.5,3.6l3.1,2.2s-3.2,1.1-4.1,2.4a28.58,28.58,0,0,0-2.6,4.4s-1.9,4.4-4.6,4.3a12.09,12.09,0,0,0,3.8-4.2c1.2-2.5,2.2-5.7,5.7-7a3.15,3.15,0,0,1-2.6-2.3C270.2,524.3,268.7,525,269.6,523.1Z"/><path class="cls-125" d="M275.4,572.4a15,15,0,0,0-.7,4.9c.1,2.6-.2,3.7.9,4s1-3.5,1.1-4.4a9.92,9.92,0,0,1,.3,2.6c0,1.4-.4,3.4-.1,3.9.6,1,1.4.4,2.1-.3s1.7-1.1,2-3.1a15.62,15.62,0,0,0-.3-6.5C280.8,573.4,277.5,574.7,275.4,572.4Z"/><path class="cls-51" d="M253.4,615.3a8.48,8.48,0,0,0-2.6,4.5s0,2,3.3.9,7.6-4.7,9.5-7.3a3.73,3.73,0,0,0-.3-1.5s-2.8,4-5.7,5.2A4.36,4.36,0,0,0,253.4,615.3Z"/><path class="cls-51" d="M269.1,621.2a7.53,7.53,0,0,0-2.6,4.3s0,2,3.3.9,8.5-5.7,9.6-7.2a2.21,2.21,0,0,0-.4-1.3s-2.8,3.7-5.7,5C273.4,622.7,271.8,620.8,269.1,621.2Z"/><path class="cls-128" d="M276.7,552.5s.3,14.2-1,19.4a4.64,4.64,0,0,0,5.5,1.3l1.1-4.3s2.3-7.8,2-10.7Z"/><polygon class="cls-75" points="270.4 568.9 270.9 582.1 271.3 581.9 270.7 568.8 276.8 564.3 276.6 563.7 270.3 568.6 270.4 568.9"/><path class="cls-75" d="M276.4,562.3l-5.7,4.3A17,17,0,0,0,276.4,562.3Z"/><path class="cls-75" d="M268,569.8s1.3-31.8,3-36c-.1.3,1.6-5.3,4.9-4.5a2.48,2.48,0,0,1,1.7,1.6,3.94,3.94,0,0,0-4.4,2.6s-1.6,1.7-2.4,17.2c0,0-1,17.8-1.2,19.4C269.3,571.5,268,571.4,268,569.8Z"/><path class="cls-130" d="M272.1,540.3s1,2.7,2.3,3.4l.3,1.1A5.17,5.17,0,0,1,272.1,540.3Z"/><path class="cls-130" d="M272.8,536s-.9,2.6.9,6.5,3.6,15.3,3.1,17.8-1.8,11.8-1.8,11.8,1.1,2.9,6.2,1c0,0-4.7.8-5.5-1.3,0,0,2.4-11,1.9-14.5s-1.6-11.8-3-14.8A14.51,14.51,0,0,1,272.8,536Z"/><polygon class="cls-129" points="259.6 538.9 260.4 536.8 260.4 539.2 259.6 538.9"/><path class="cls-129" d="M271.6,520.1s.2,2.1-.5,2.3-1.2-.5-.9-.8.9-.6.3-1.5S271.6,520.1,271.6,520.1Z"/><path class="cls-75" d="M270.7,568.9l-1-1.4-2.2-.2s-2.7,9.9-2,11.7a17,17,0,0,0,5.4,3.3l.2-.8s-3.5-.9-5.3-3.1a57.1,57.1,0,0,1,1.9-10.7l1.6.1,1.4,1.7"/><path class="cls-131" d="M260.3,529.2s-1.1,3.3,0,4.5,3,1.6,6-1.4a51.19,51.19,0,0,1,6.1-5.3s.2-1.2-1.1,0-6.6,6.6-7.9,6.9-4,.7-2.5-4.5Z"/><circle class="cls-131" cx="261.2" cy="534.5" r="0.7"/><circle class="cls-131" cx="270.4" cy="523.2" r="0.5"/><path class="cls-129" d="M276.7,575.9a20,20,0,0,0,.4,2.6,16.86,16.86,0,0,1-.3,4.5s.1-5-.3-5.5v1.6C276.5,579.2,275.8,577,276.7,575.9Z"/><path class="cls-129" d="M275.3,572.7s.9,1.8,5.5.7a13.25,13.25,0,0,1,.4,5.2s-.5-3.8-2-3.6-4-1.6-4.3.8l-.2,1.6A9.12,9.12,0,0,1,275.3,572.7Z"/><path class="cls-129" d="M250.5,562.1a7.68,7.68,0,0,0,2.2,1.2l-.4,2.6s-1-2.2-1.6-1.4a4.9,4.9,0,0,0-.7,2.6A19.55,19.55,0,0,1,250.5,562.1Z"/><path class="cls-129" d="M256.9,610.8s.5,2,4.1,1.2c0,0,1.5-.5,1.7-1.7a11.32,11.32,0,0,1,.6,1.6s-.2-.8-.9-.2a4.93,4.93,0,0,1-6.3.3Z"/><path class="cls-129" d="M272.3,616.7s2.4,2.3,4.9.5c0,0,1.3-.7,1.3-1.5s.4,1,.4,1a6.31,6.31,0,0,1-7.5,1.6Z"/><path class="cls-130" d="M254,529.7l.9,2.8-.7.9C254.3,533.4,254,531.1,254,529.7Z"/><path class="cls-22" d="M272.1,520a3.64,3.64,0,0,1-.8,3,6,6,0,0,0-.3,1.1s1.8.7,4-6.3Z"/><path class="cls-124" d="M258.2,507.6a3.85,3.85,0,0,0,2.2,5.3A5.31,5.31,0,0,1,258.2,507.6Z"/><path class="cls-124" d="M269.2,517.2s.4,3,3,2.7C272.2,519.9,269.7,518.9,269.2,517.2Z"/></g><rect class="cls-1" width="514.5" height="516.1"/></g></g></svg>