<?xml version="1.0" encoding="utf-8"?>
<!-- Generator: Adobe Illustrator 21.1.0, SVG Export Plug-In . SVG Version: 6.00 Build 0)  -->
<svg version="1.1" id="Layer_1" xmlns="http://www.w3.org/2000/svg" xmlns:xlink="http://www.w3.org/1999/xlink" x="0px" y="0px"
	 viewBox="0 0 514.5 646.7" style="enable-background:new 0 0 514.5 646.7;" xml:space="preserve">
<style type="text/css">
	.st0{opacity:0.5;}
	.st1{fill:#F3F3F3;}
	.st2{fill:#31AABA;}
	.st3{opacity:0.1;fill:#010101;enable-background:new    ;}
	.st4{fill:#35B7AE;}
	.st5{fill:url(#SVGID_1_);}
	.st6{fill:#A5B2C7;}
	.st7{fill:#6D798B;}
	.st8{fill:#FED4AF;}
	.st9{fill:#FBBD92;}
	.st10{fill:#D2D2D2;}
	.st11{fill:#82596B;}
	.st12{fill:#28151A;}
	.st13{fill:#4EC0AF;}
	.st14{fill:#ECAC67;}
	.st15{fill:#D3E7B9;}
	.st16{fill:#D08245;}
	.st17{fill:#129491;}
	.st18{fill:#E9EDF7;}
	.st19{fill:#5C3D50;}
	.st20{fill:#745B52;}
	.st21{fill:#ACADAE;}
	.st22{fill:#AB6087;}
	.st23{fill:#3CC3D9;}
	.st24{fill:#ABDDDE;}
	.st25{fill:#EAAE9D;}
	.st26{fill:#CF8885;}
	.st27{fill:#2D9FB2;}
	.st28{fill:#884B6C;}
	.st29{fill:#454043;}
	.st30{fill:#4E3136;}
	.st31{fill:#024E6C;}
	.st32{fill:#CA9E6F;}
	.st33{fill:#F2E094;}
	.st34{fill:#F2738E;}
	.st35{fill:#73A7BE;}
	.st36{fill:#197DAA;}
	.st37{fill:#F7EB98;}
	.st38{fill:#BC734F;}
	.st39{fill:#252A3D;}
	.st40{fill:#C0CCDD;}
	.st41{fill:#1F2746;}
	.st42{fill:#6D5539;}
	.st43{fill:#FFFFFF;}
	.st44{fill:#4E3C25;}
	.st45{fill:#F0C776;}
	.st46{fill:#DA587C;}
	.st47{fill:#F7A8A7;}
	.st48{fill:#C45C7A;}
	.st49{fill:#73452C;}
	.st50{fill:#FCCFB7;}
	.st51{fill:#69446B;}
	.st52{fill:#5A395D;}
	.st53{fill:#F38AAA;}
	.st54{fill:#EDAA42;}
	.st55{fill:#A76F69;}
	.st56{fill:#A16443;}
	.st57{fill:#FAB6A1;}
	.st58{fill:#E96997;}
	.st59{fill:#9C605B;}
	.st60{fill:#FABCA4;}
	.st61{fill:#F6EC49;}
	.st62{fill:#9B5E3F;}
	.st63{fill:#AEC3E5;}
	.st64{fill:#383958;}
	.st65{fill:#765975;}
	.st66{fill:#59425C;}
	.st67{fill:#A49CCC;}
	.st68{fill:#835D39;}
	.st69{fill:#012F3B;}
	.st70{opacity:0.31;fill:#FFFFFF;enable-background:new    ;}
	.st71{fill:none;stroke:#012F3B;stroke-width:0.44;stroke-miterlimit:10;}
	.st72{fill:#8481BE;}
	.st73{fill:#C8C5BD;}
	.st74{fill:#CADAF0;}
	.st75{fill:#745D9E;}
	.st76{fill:#5D4980;}
	.st77{fill:#CD8079;}
	.st78{fill:#056772;}
	.st79{fill:#EF5B79;}
	.st80{fill:#A1D28E;}
	.st81{fill:#81B16D;}
	.st82{fill:#BD6D6A;}
	.st83{fill:#194353;}
	.st84{fill:#F28186;}
	.st85{fill:#DA5A7A;}
	.st86{fill:#FABFA0;}
	.st87{fill:#1D4E5E;}
	.st88{fill:#393537;}
	.st89{fill:#FEE495;}
	.st90{fill:#B16979;}
	.st91{fill:#606281;}
	.st92{fill:#4E506A;}
	.st93{fill:#7A93A1;}
	.st94{fill:#FCCDB0;}
	.st95{fill:#E98B41;}
	.st96{fill:#CFD7B0;}
	.st97{fill:#FFDDB8;}
	.st98{fill:#9EA372;}
	.st99{fill:#57585A;}
	.st100{fill:#A2B4BF;}
	.st101{fill:#516780;}
	.st102{fill:#EEB59B;}
	.st103{fill:#FABAA3;}
	.st104{fill:#F27385;}
	.st105{fill:#756F90;}
	.st106{fill:#E8E9F5;}
	.st107{fill:#826E74;}
	.st108{fill:#FFCD64;}
	.st109{fill:#F9E8E3;}
	.st110{fill:#DFDAED;}
	.st111{fill:#FCB238;}
	.st112{fill:#645E7B;}
	.st113{fill:#C65E6F;}
	.st114{fill:#F3B29E;}
	.st115{fill:#E3978B;}
	.st116{fill:#C8C4CC;}
	.st117{fill:#F79058;}
	.st118{fill:#D4DAC2;}
	.st119{fill:#E67B50;}
	.st120{fill:#B7B4BC;}
	.st121{clip-path:url(#SVGID_3_);}
	.st122{fill:#C0B773;}
	.st123{fill:#2D292C;}
	.st124{fill:#CE8F6E;}
	.st125{fill:#8DB6D9;}
	.st126{fill:#7D9DC9;}
	.st127{fill:#CCD5E4;}
	.st128{fill:#C77966;}
	.st129{fill:#AEBBD3;}
	.st130{fill:#DEBD5B;}
	.st131{fill:none;}
</style>
<title>Asset 3</title>
<g id="Layer_2" class="st0">
	<g id="Layer_1-2">
		<path class="st1" d="M257.2,444.8c-50.8,0-105.5,8.2-105.5,26.3c0,4,2.8,7.5,7.6,10.6l62.3,74.8c4.4,5.2,6.8,11.8,6.9,18.6v58.4
			c0,9.1,14.9,13.2,28.8,13.2c13.9,0,28.8-4.1,28.8-13.2v-58.4c0-6.8,2.5-13.4,6.9-18.6l5.3-6.4h30.6c7.9,0,15.1-4.5,18-11.4l5-12.3
			c1.9-4.6,1.2-9.8-1.9-13.7c-3.2-4.1-8.2-6.4-13.4-6.4h-1.8l20.4-24.5c4.8-3.1,7.6-6.6,7.6-10.6C362.7,453.1,308,444.8,257.2,444.8
			z M336.5,515.1c2.1,0,4.2,0.9,5.5,2.6c1.3,1.6,1.6,3.8,0.8,5.7l-5,12.3c-1.6,3.5-5.1,5.7-9,5.7h-23.3l21.9-26.3H336.5z"/>
		<path class="st2" d="M257.2,454.8c61.8,0,95.5,11.9,95.5,18s-33.7,18-95.5,18s-95.5-11.9-95.5-18S195.4,454.8,257.2,454.8z"/>
		<path class="st3" d="M271.5,468c37.2,0,64.2,3.2,79.8,6.7c0.8-0.5,1.3-1.4,1.4-2.3c0-6-33.7-17.6-95.5-17.6s-95.5,11.6-95.5,17.6
			c0,2.3,5,5.4,14.5,8.4C178.2,476.2,211.6,468,271.5,468z"/>
		<path class="st4" d="M284.8,551.4c-5.6,6.8-8.8,15.3-8.9,24.1v58.6c-0.7,1.3-7.3,4.7-19.3,4.7s-18.7-3.3-19.3-4.4v-58.9
			c0-8.8-3.2-17.4-8.9-24.1l-51.7-62.6c20.7,5.7,51,8.4,80,8.4s59.3-2.7,80-8.4L284.8,551.4L284.8,551.4z"/>
		
			<linearGradient id="SVGID_1_" gradientUnits="userSpaceOnUse" x1="2853.6284" y1="128.3548" x2="2853.6384" y2="128.4048" gradientTransform="matrix(160 0 0 -91 -456399.25 12383.6699)">
			<stop  offset="0" style="stop-color:#FFFFFF;stop-opacity:0.1"/>
			<stop  offset="1" style="stop-color:#FFFFFF;stop-opacity:0"/>
		</linearGradient>
		<path class="st5" d="M276,575.3c0-8.8,3.2-17.4,8.9-24.1l51.9-62.4c-20.7,5.7-51,8.4-80,8.4s-59.3-2.7-80-8.4l99.3,91L276,575.3z"
			/>
		<path class="st6" d="M186.4,390.4c0,0,0.8,0.1,0.9,0.5c0.1,0.9,0.1,1.7,0,2.6c-0.1,0.5-0.7,0.6-0.7,0.6l-0.2-0.5V390.4z"/>
		<path class="st7" d="M186.6,390.6c0,0,0.5,0.2,0.4,0.4c-0.1,0.1-0.2,0.2-0.4,0.3V390.6z"/>
		<path class="st8" d="M186.4,370.9c-0.4,2.8-0.5,5.7-0.3,8.6c0.4,3.7,0.7,13.8,0.7,14.5c0.9,0.8,1.5,1.9,1.7,3.1
			c0.3,2.2,0.5,4.2-0.3,4.6s-1.1,0.3-1.1,0.3s0.4,3.7-2.7,3.4l-1.8-9.8l0.1-24L186.4,370.9z"/>
		<path class="st7" d="M186.7,393.9c-0.8,0.7-1.8,1.1-2.9,0.9l-1.4-0.3l-0.1-2.6c0,0,0.3,0.8,2.2,0.7c0.9,0,1.7-0.5,2-1.4
			c0,0,0.1-0.1,0.2,0.3C186.9,392.3,186.9,393.1,186.7,393.9z"/>
		<path class="st9" d="M183.6,396.2c0,0,0.7,2.1,2.1,2.3c0.6,0.2,1,0.8,1,1.5l0.2,2.1c0,0-0.8-0.3-0.8-2.4c0,0,0-0.5-1-0.8
			C184,398.5,183.3,397.4,183.6,396.2z"/>
		<path class="st10" d="M166.4,459.6c0,0,5,6.8,5.3,7.8s-0.1,1.7-2.5,2.5s-10.5-7.8-10.8-8.6s0.7-2.5,0.7-2.5
			S162.9,462.2,166.4,459.6z"/>
		<path class="st10" d="M179.8,453.5c0,0,5.5,6.1,5.5,7c-0.3,1.4-1.5,2.5-2.9,2.6c-1.7,0.2-10-7.7-10.3-8.3s0.7-3,0.7-3L179.8,453.5
			z"/>
		<path class="st11" d="M184.7,407.7c0,0,0.8,22.4,0.8,24.4s-4.6,17.2-5.2,19.8c0.1,1.1-0.5,2.1-1.5,2.4c-1.5,0.4-5.9,0.9-7.1-3
			c0,0,4.2-15,4.4-18.3s-0.6-9.1-2.2-14.5c0,0-0.9,17.7-1.6,20.3s-5.5,20.3-5.5,20.3s-0.6,3-4.8,1.9s-3.3-4.1-3.3-4.1
			s4.2-13.7,3.5-18.9c0,0-0.6-32.8-0.3-36c0,0,17.1-4.4,21.4-7.2C183.2,394.6,184.7,397.8,184.7,407.7z"/>
		<path class="st12" d="M183,391c0.4,1.4,0.5,2.9,0.3,4.4c0,0-5.3,7.8-16.9,5.1l-2.6-6.4C163.7,394.2,174.5,398.3,183,391z"/>
		<path class="st8" d="M175.8,356.6c0.7,1.6,1,3.4,0.9,5.1l-0.8,5c0,0-1.4-3.7-2.9-5.2s-4.4-3.6-4.9-4.2s0.6-3.8,0.6-3.8l3.1-2
			L175.8,356.6z"/>
		<path class="st13" d="M166.9,352.7c0.1,0.2,0.4,0.3,0.6,0.3c0,0-0.6,2-0.3,2.7c0,0,2.9,3.8,4.9,4.7s3.7,6,3.7,6s0.9-4.9,0.9-5.7
			l-0.9-3.2l2.4-1c1.1-2.3,2-4.7,2.8-7.1c0,0,5.1,0,5.3,7.4c-0.1,0.3,0.3,9,0.3,9s0.8-0.4,1,1.1l-0.2,3.3c-0.7,1.3-2,2.2-3.5,2.4
			c0,0,0.3,14.1-0.8,18.7c0,0-7.1,10.7-21.2,3.7c-1.6-2.3-2.5-4.9-2.6-7.7c0-4.2,6.7-32.1,6.7-32.1L166.9,352.7z"/>
		<path class="st14" d="M168.4,396.5c-0.2-0.1-0.3,0-0.3,0.2s-0.2,0.3-0.3,0.5c-0.2,0.3-0.3,0.7-0.3,1.1c-0.1,0.3-0.2,0.8-0.3,1.1
			l-0.4,1.2c-0.4,0.8-1.1,1.5-1.9,1.9c-0.8,0.4-1.8,0.6-2.7,0.5c-1.8-0.1-3.4-1-4.5-2.4c-0.5-0.7-0.9-1.4-1.3-2.1
			c-0.3-0.8-0.6-1.6-0.8-2.4h0.1c0.6,1.5,1.4,2.8,2.5,4c1.1,1.2,2.5,1.9,4.1,2.1c1.6,0.1,3.1-0.6,4-2c0.4-0.7,0.5-1.5,0.9-2.2
			c0.2-0.3,0.3-0.7,0.5-1s0.2-0.3,0.3-0.5C168.1,396.4,168.3,396.4,168.4,396.5C168.4,396.5,168.4,396.5,168.4,396.5L168.4,396.5z"
			/>
		<ellipse class="st15" cx="176.5" cy="373.7" rx="0.6" ry="0.9"/>
		<path class="st14" d="M162.1,392.2c0,0,6.4,3.1,6.9,4c0.1,0.7,0.2,1.3,0.2,2c0.1,5.2-0.3,18.4-0.9,19.6c-1.1,2.2-3.7,0.9-4.9,0.4
			l-6.8-3.9c0,0-1.7-0.8-1.6-5.2c0.1-4.2,0.5-11.8,0.5-11.8s-0.8-1.2-0.3-4.4S160.1,390.5,162.1,392.2z"/>
		<path class="st16" d="M168.4,396.5c-0.6-0.3-1.3,0-1.6,0.6c-0.1,0.2-0.1,0.5-0.1,0.7c0,2-0.2,3.7-0.9,4.5s-7,3.6-10.3-5
			c0.4,2.5,2,4.6,4.2,5.8c0,0,4.1,2,6.6-0.9c0.5-0.9,0.8-2,0.7-3.1C166.9,397.1,167.2,396.6,168.4,396.5z"/>
		<path class="st8" d="M156.1,380.4c0,0-1.3,4.1,0.3,13.7c0,0,3.2,12.6,2.8,14.6c1.6,0.7,3.4,0.3,4.5-1c0,0-1.9-14.1-1.7-18.9
			s0.2-7.2,0.2-7.2S160.7,377.8,156.1,380.4z"/>
		<path class="st17" d="M176,358c0,0,0.9,1.4,0.2,5.9l0.8-2.4c-0.1-1.3-0.3-2.5-0.6-3.8l-0.3-0.9l-0.4,0.5L176,358z"/>
		<path class="st13" d="M164.4,364.2c1.7,1.4,1.4,3,1.6,6.4s-3.1,12.5-3.1,12.5l-1.6,0.3c-5.7,0.4-6.8-3.1-6.8-3.1s0.4-4.1,1-4.2
			c0.4-2.1,0.8-4.5,0.9-5.3c0.3-3.5-0.3-5.4,1.3-7.8s7.4-6.3,7.4-6.3s0.4-3,2.4-3.8l-0.2,1.8"/>
		<path class="st8" d="M163.6,407.5c0,0,1.3,0.7,2,3.3c0.3,0.9,0.4,1.8,0.4,2.7c0,0.7-0.1,1.5-0.3,2.2c-0.2,0.4-1.4,0.8-1.6-0.3
			s0.3-3-0.6-3c0,1.5-0.4,2.5-0.3,3.4c0.1,0.5,0.9,3,0.7,3.6s-0.7,1.6-2.4,0.3c-1.4-1.2-2.4-2.8-3-4.6c-0.4-1.7,0.4-5,0.7-6.8
			C159.3,408.5,161.3,410.1,163.6,407.5z"/>
		<path class="st14" d="M167.2,398.5c1.1-4.3,2.6-8.4,4.3-12.5c3.3-7.7,10.9-29.6,9-33.7l0.3-1.7c0,0,2.3,1.9,0.3,10.6
			s-9.1,27.6-9.8,29.5s-2.4,7.1-2.8,9S166.7,400.3,167.2,398.5z"/>
		<path class="st17" d="M165.4,365.7c0.6,1.4,0.8,3,0.8,4.5c0,1.6-0.2,3.1-0.6,4.6c-0.9,2.9-2.3,8.3-2.7,8.4s-0.7,0.1-0.6-0.6
			c0.5,0.1,1.5-3.1,1.3-3.8c0.1-0.2,0-0.2,0.1-0.4c0.5-1.4,0.8-2.8,1.1-3.9c0.4-1.4,0.7-2.9,0.8-4.4
			C165.7,368.6,165.6,367.2,165.4,365.7z"/>
		<path class="st18" d="M178.9,395.2c0,0,0.8,1.4,0.1,4.3c-1.3,0.8-2.7,1.4-4.2,1.7l-0.1-4.2C176.2,396.8,177.7,396.1,178.9,395.2z"
			/>
		<path class="st16" d="M168.2,395.6c0,0-1,2.2-0.7,2.8s1,1.2,1.6-1c0,0,0.1,0,0.1,0.5c0,0-0.3,1.2-1,1.3s-1.2-0.8-0.7-2.1
			c0.2-0.5,0.4-1,0.5-1.5l-5.7-3.1v-0.3C162.1,392.2,167.5,395,168.2,395.6z"/>
		<path class="st17" d="M175.9,366.6c0,0-0.3-8.7,4.9-6.2C180.8,360.5,176.9,359.3,175.9,366.6z"/>
		<polygon class="st17" points="178.3,356.5 180.7,360.4 179.7,360.1 177.8,356.6 		"/>
		<path class="st19" d="M178.7,401.4l-1.7,7.2l-4.2,2.8l2.6-0.7c-1.1,1.9-1.6,4.1-1.5,6.3v2c0,0-0.3-6.5,3.7-9.4L178.7,401.4z"/>
		<path class="st8" d="M167.4,354.8l0.2-1.8c-0.6,0-0.8-0.3-1.5-0.8c-0.9-0.7-1.5-2.4-1.3-4.5s1.9-1.6,1.9-1.6s0.3-7.3,0.2-7.7
			c-0.2-1.4,0.3-2.8,1.3-3.7c6.3-3.7,12,4.1,13.1,5.1s0.7,4.4,0.7,4.4c0.1,0.5,0,0.9-0.1,1.4c-0.2,0.4-1.3,1.4-0.5,2.3
			c1,1-1.3,7.3-2,8.2s-3.3,1.5-3.5,1.6"/>
		<path class="st20" d="M171.5,331.4c-1.2,0.3-1.3,1-1.6,1.3c-1-0.1-2,0.6-2.2,1.6c-0.9,0-1.7,0.4-2.2,1.1c-0.2,0.6-0.2,1.4,0,2
			c-1,0.3-1.5,1.4-1.1,2.3c0,0,0,0,0,0.1c-0.7,0.7-0.8,1.7-0.4,2.6c-0.6,1-0.5,2.2,0.3,3.1c-0.3,0.8-0.1,1.6,0.5,2.2
			c0,0,0.6-2.2,2.4-1c0.7,0.8,1,1.8,1,2.8l0.1,1.6c0.6,0.1,1.3-0.3,1.4-0.9c0,0,0,0,0-0.1c0.2-1.1,0.1-1.1,0.5-1.4
			c0.7-0.5,1.1-1,1-2.5c0,0,2.3-1,1.6-2.7l-0.7-1.3c0.4,0.7,1.2,1,2,0.8c0,0,1.1,1.7,2.9,0.1c0.8,0.5,1.8,0.2,2.3-0.6
			c0-0.1,0.1-0.1,0.1-0.2c0,0,1.7,0.8,2.3-1.3c0,0,1.6,0.1,1.2-2.1c0,0,0.3-1.1-1.7-1.7c0,0,0.3-1.7-2.4-2.2c-0.2-1-1.1-1.7-2.2-1.7
			c-0.1-1-0.9-1.7-1.9-1.6c-0.3,0-0.5,0.1-0.7,0.2C173.3,331.4,172.4,331.3,171.5,331.4z"/>
		<path class="st9" d="M181.7,345.5c-0.8,0.8-1.9,1.5-3,1.8c-1.3,0.6-2.6,1.1-4,1.5c-2.4,0.3-3-0.3-3-0.3s1.1,1.2,3.8,0.7
			c2-0.2,3.8-1.1,5.3-2.4C181.7,346.1,181.7,345.5,181.7,345.5z"/>
		<path class="st9" d="M170.7,359.5c0,0-3.1-2.3-4-3.8l0.3-0.7v-2.1c0.4,0.2,0.8,0.1,1.1-0.2c0.2-0.1,0.4-0.6,0.7-0.7
			c0,1.4,0.2,2.8,0.4,4.2l4.7,5.7L170.7,359.5z"/>
		<path class="st9" d="M167.8,348.6c0,0-0.8-1.6-1.7-1.1s-0.4,3.5,0.3,4.1c0.4,0.4,1,0.4,1.3,0c0.2-0.2,0.3-0.4,0.3-0.6
			c0,0,0-0.7-0.6-0.8s0,0.9-0.5,0.7c-0.6-0.6-0.9-1.5-0.7-2.4c0.3-0.6,0.3,1.3,0.4,1.5s1,0,0.7-0.6
			C167,348.6,167.4,348.5,167.8,348.6z"/>
		<path class="st9" d="M179,348v4.4c-0.7,0.6-1.6,0.7-2.4,0.3l0.4-0.5l1.2-0.1l0.3-3.9L179,348z"/>
		<path class="st17" d="M154.5,380.4c0,0,1.8,3.9,8.3,2.8c0.2-0.1,0.4-0.4,0.4-0.7c0,0-6,1.1-8.5-3.3
			C154.5,379.6,154.4,380,154.5,380.4z"/>
		<path class="st17" d="M159.2,378.9c-0.8-0.2-1.5-0.6-2.2-1.1c-0.6-0.5-1.1-1-1.5-1.7c1.7,1.6,3.9,2.6,6.2,2.7
			c0.9,0.1,1.7-0.1,2.5-0.5l-0.3,0.6C163.9,378.7,163.2,379.7,159.2,378.9z"/>
		<path class="st17" d="M165.3,355.5c0,0-0.1,1.6,1.6,4.4s2.4,4.3,2.4,4.3s2.4-3.7,3.4-3.4s1.8,2.1,1.8,2.1l1.4,3.6
			c0,0-2.9-6.2-3.8-4.9s-3,4.3-3,4.3s-3.5-6.7-3.8-8C165,357.1,165,356.3,165.3,355.5z"/>
		<path class="st17" d="M166.9,353.8c-0.1,0.7,0.1,1.4,0.5,2c0.2,0.3,0.4,0.5,0.6,0.8l0.7,0.7l0,0c1,0.7,2,1.4,3,2.2l1.3,1.3
			c0.4,0.5,0.8,1,1,1.6c-0.4-0.5-0.8-0.9-1.3-1.2c-0.4-0.3-1-0.7-1.5-1l-3-2.1l0,0l-0.8-0.8c-0.2-0.3-0.4-0.6-0.6-0.9
			C166.5,355.6,166.5,354.6,166.9,353.8z"/>
		<path class="st9" d="M175.6,358.5c0-0.1-4.4,0.3-5.9-5.1c0.7,1.1,1.6,2.1,2.6,2.9c1.3,1,2.2,1.8,3.5,1.4c0.3,0.5,0.5,1,0.5,1.6
			C176.1,359,175.9,358.7,175.6,358.5z"/>
		<path class="st17" d="M183.5,357.3l0.4,15.4c1.5-0.2,2.8-1.1,3.5-2.4c0,0-1.9,1.8-3,1.6C184.4,371.8,184.1,359.7,183.5,357.3z"/>
		<path class="st17" d="M183.9,367.4c0,0,1.3,0.3,2.7-1.6c-0.3,1.2-1.3,2.2-2.5,2.4L183.9,367.4z"/>
		<path class="st17" d="M179.1,368.8c1.5-0.3,2.8-1.2,3.7-2.4c0.2,0.5,0,1-0.5,1.3c-0.9,0.9-2.1,1.5-3.4,1.8L179.1,368.8z"/>
		<path class="st17" d="M179.1,375.7c1.4,0.1,2.6-0.7,3.1-2C182.3,373.8,182.3,376.9,179.1,375.7z"/>
		<ellipse class="st15" cx="176.5" cy="382.3" rx="0.6" ry="0.9"/>
		<ellipse class="st15" cx="177.1" cy="390.2" rx="0.6" ry="0.9"/>
		<ellipse class="st15" cx="175.8" cy="367.8" rx="0.6" ry="0.9"/>
		<path class="st11" d="M181.4,393.3c0,0,0.6,3.3,0.2,4.4l1.3-1.1l-0.3-4.4L181.4,393.3z"/>
		<polygon class="st11" points="170.9,397.4 171,401.3 169.6,401.2 169.7,397.4 		"/>
		<path class="st9" d="M174.9,358.3c0,0,0.8,2.7-0.5,4.3l1.5,3.7c0-1.1,0.1-2.2,0.3-3.3c0.3-1.4,0.3-5-0.4-5.4
			C175.9,357.7,175.4,358.3,174.9,358.3z"/>
		<path class="st9" d="M184.6,401.1l0.1,4.3c0.3,0.1,0.6,0.1,0.8-0.1c0,0-0.8,0.4-0.7-1.9C185.1,401.1,184.8,400.5,184.6,401.1z"/>
		<path class="st9" d="M155.8,382c0,0,1.7,1.7,6.4,1.3c-0.2,3-0.2,5.9-0.1,8.9c0,0-0.8-6.5-0.6-7.3c-1.6,0.3-3.3,0.1-4.8-0.4
			c0,0-0.8,6.2-0.4,8.9C156.3,393.3,155.1,386.3,155.8,382z"/>
		<path class="st9" d="M186.3,371.7l-0.2,1.2c-1,0.4-1.7,1.4-1.6,2.5c0.1,1.9-0.8,17.2-0.8,17.2l-0.5-0.1l-0.2-0.9
			c0.4-1.6,0.6-3.2,0.7-4.8c0-2.1,0.6-12.4,0.3-14.1L186.3,371.7z"/>
		<path class="st17" d="M184.1,372.3c0,0,0.3,13.2-1,19.2c-3.3,4.4-8.7,6.6-14.1,5.9c0,0,10.4-0.3,13.6-6.2c0.4-2.2,0.7-4.5,0.9-6.8
			c0.4-5.1,0.4-12,0.4-15.2L184.1,372.3z"/>
		<path class="st21" d="M178.3,454.8l3.4,4.1C180.2,457.8,179.1,456.4,178.3,454.8z"/>
		<path class="st21" d="M179.8,455.4l-1.7,0.9C178.8,456.5,179.5,456.1,179.8,455.4z"/>
		<path class="st21" d="M180.8,456.5l-1.7,0.9C179.1,457.3,180.4,457.6,180.8,456.5z"/>
		<path class="st21" d="M182,457.6l-1.7,0.9C181,458.7,181.7,458.3,182,457.6z"/>
		<path class="st21" d="M164.8,461.4l3.4,4.1C166.7,464.5,165.5,463,164.8,461.4z"/>
		<path class="st21" d="M166.2,462.1l-1.7,0.9C165.2,463.1,165.9,462.8,166.2,462.1z"/>
		<path class="st21" d="M167.2,463.1l-1.7,0.9C166.2,464.2,167,463.8,167.2,463.1z"/>
		<path class="st21" d="M168.4,464.3l-1.7,0.9C166.7,465.1,168,465.4,168.4,464.3z"/>
		<path class="st21" d="M165.7,468.4c0,0-0.5-0.5,0.7-1.4c2.8-1.9,4.1-1.6,4.1-1.6s1.8,1.8,1.2,2.9c0,0-1.6,2.2-3.8,1.4L165.7,468.4
			z"/>
		<path class="st21" d="M179,461.3c0,0-0.2-0.3,1-1.1c2.8-1.9,4.1-1.6,4.1-1.6s1.8,1.8,1.2,2.9c0,0-2,2.2-3.8,1.4L179,461.3z"/>
		<path class="st21" d="M158.4,460.1c2.2,2.9,4.9,5.6,7.8,7.8l-0.1,0.8c0,0-5.4-3.8-7.7-7.4C158.3,460.9,158.3,460.5,158.4,460.1z"
			/>
		<path class="st21" d="M172.2,453.8c0,0,1.7,3,7.8,7.4l0.1,0.8c0,0-5.6-3.5-7.9-7.1C172.1,454.5,172.1,454.2,172.2,453.8z"/>
		<path class="st19" d="M177.6,409.6c0,0,4.4-2.4,4.3-4l-4.5,3.2L177.6,409.6z"/>
		<path class="st6" d="M286.9,136.3c0,0-0.8,0.1-0.9,0.5c-0.1,0.9-0.1,1.7,0,2.6c0.1,0.5,0.7,0.6,0.7,0.6l0.2-0.5L286.9,136.3z"/>
		<path class="st7" d="M286.8,136.5c0,0-0.5,0.2-0.4,0.4c0.1,0.1,0.2,0.2,0.4,0.3V136.5z"/>
		<path class="st8" d="M290.8,117.4l0.1,24l-1.8,9.8c-3.1,0.3-2.7-3.4-2.7-3.4s-0.3,0.2-1.1-0.3s-0.5-2.4-0.3-4.6
			c0.1-1.2,0.7-2.3,1.7-3.1c0-0.7,0.3-10.7,0.7-14.5c0.1-2.9,0-5.7-0.3-8.6L290.8,117.4z"/>
		<path class="st7" d="M286.7,139.8c0.8,0.7,1.8,1.1,2.9,0.9l1.4-0.3l0.1-2.6c0,0-0.3,0.8-2.2,0.7c-0.9,0-1.7-0.5-2-1.4
			c0,0-0.1-0.1-0.2,0.3S286.4,139.7,286.7,139.8z"/>
		<path class="st9" d="M289.7,142.1c0,0-0.7,2.1-2.1,2.3c-0.6,0.2-1,0.8-1,1.5l-0.2,2.1c0,0,0.8-0.3,0.8-2.4c0,0,0-0.5,1-0.8
			C289.3,144.4,289.9,143.2,289.7,142.1z"/>
		<path class="st10" d="M314.2,204.6c0,0,1,1.7,0.7,2.5s-8.4,9.4-10.8,8.6s-2.8-1.6-2.5-2.5s5.3-7.8,5.3-7.8
			C310.4,208.1,314.2,204.6,314.2,204.6z"/>
		<path class="st10" d="M300.5,197.6c0,0,1,2.4,0.7,3s-8.5,8.4-10.3,8.3c-1.4-0.1-2.6-1.2-2.9-2.6c0-0.9,5.5-7,5.5-7L300.5,197.6z"
			/>
		<path class="st22" d="M290,140.5c4.4,2.9,21.4,7.2,21.4,7.2c0.3,3.1-0.3,36-0.3,36c-0.7,5.2,3.5,18.9,3.5,18.9s0.9,3-3.3,4.1
			s-4.8-1.9-4.8-1.9s-4.8-17.7-5.5-20.3s-1.6-20.3-1.6-20.3c-1.6,5.4-2.4,11.2-2.2,14.5s4.4,18.3,4.4,18.3c-1.2,3.9-5.7,3.5-7.1,3
			c-1-0.3-1.7-1.3-1.5-2.4c-0.6-2.6-5.2-17.8-5.2-19.8s0.8-24.4,0.8-24.4C288.6,143.6,290.1,140.5,290,140.5z"/>
		<path class="st12" d="M309.6,140l-2.6,6.4c-11.6,2.7-16.9-5.1-16.9-5.1c-0.2-1.5-0.1-3,0.3-4.4C298.8,144.2,309.6,140.1,309.6,140
			z"/>
		<path class="st8" d="M301.4,97.2l3.1,2c0,0,1.1,3.2,0.6,3.8s-3.3,2.6-4.9,4.2c-1.2,1.6-2.2,3.3-2.9,5.2l-0.8-5
			c-0.1-1.7,0.2-3.5,0.9-5.1L301.4,97.2z"/>
		<path class="st23" d="M307.2,101.2c0,0,6.7,28,6.7,32.1c-0.1,2.8-1,5.4-2.6,7.7c-14.1,7-21.2-3.7-21.2-3.7
			c-1.1-4.6-0.8-18.7-0.8-18.7c-1.5-0.2-2.8-1.1-3.5-2.4l-0.2-3.3c0.2-1.6,1-1.1,1-1.1s0.3-8.7,0.3-9c0.3-7.4,5.3-7.4,5.3-7.4
			c0.3,1.7,2.8,7.1,2.8,7.1l2.4,1l-0.9,3.2c0,0.8,0.9,5.7,0.9,5.7s1.7-5.1,3.7-6s4.9-4.7,4.9-4.7c0.3-0.7-0.3-2.7-0.3-2.7
			c0.2,0,0.5-0.1,0.6-0.3L307.2,101.2z"/>
		<path class="st14" d="M304.9,142.4c0.2-0.3,0.4-0.1,0.4,0.1c0.2,0.2,0.3,0.3,0.3,0.5c0.2,0.3,0.3,0.7,0.5,1
			c0.2,0.8,0.5,1.5,0.9,2.2c0.9,1.4,2.4,2.1,4,2c1.6-0.2,3-0.9,4.1-2.1c1.1-1.2,1.9-2.5,2.5-4h0.1c-0.2,0.8-0.4,1.6-0.8,2.4
			c-0.4,0.7-0.8,1.4-1.3,2.1c-1.1,1.4-2.7,2.3-4.5,2.4c-0.9,0.1-1.9-0.1-2.7-0.5c-0.8-0.4-1.5-1.1-1.9-1.9c-0.2-0.4-0.3-0.8-0.4-1.2
			c-0.1-0.3-0.2-0.8-0.3-1.1s-0.2-0.8-0.3-1.1s-0.2-0.3-0.3-0.5S305.1,142.3,304.9,142.4L304.9,142.4z"/>
		<ellipse class="st24" cx="296.8" cy="119.6" rx="0.6" ry="0.9"/>
		<path class="st25" d="M318.2,138.9c0.4,3.1-0.3,4.4-0.3,4.4s0.4,7.6,0.5,11.8c0.1,4.5-1.6,5.2-1.6,5.2l-6.8,3.9
			c-1.1,0.5-3.8,1.8-4.9-0.4c-0.6-1.2-1-14.4-0.9-19.6c0-0.7,0-1.3,0.2-2c0.4-0.9,6.9-4,6.9-4C313.3,136.4,317.7,135.7,318.2,138.9z
			"/>
		<path class="st26" d="M304.9,142.4c0.6-0.3,1.3,0,1.6,0.6c0.1,0.2,0.1,0.5,0.1,0.7c0,2,0.2,3.7,0.9,4.5s7,3.6,10.3-5
			c-0.4,2.5-2,4.6-4.2,5.8c0,0-4.1,2-6.6-0.9c-0.5-0.9-0.8-2-0.7-3.1C306.4,143,306.2,142.5,304.9,142.4z"/>
		<path class="st8" d="M311.2,127.4c0,0,0,2.4,0.2,7.2s-1.7,18.9-1.7,18.9c1.1,1.4,3,1.8,4.5,1c-0.4-2,2.8-14.6,2.8-14.6
			c1.6-9.6,0.3-13.7,0.3-13.7C312.6,123.7,311.2,127.4,311.2,127.4z"/>
		<path class="st27" d="M297.7,103.2l-0.4-0.5l-0.3,0.9c-0.3,1.3-0.5,2.5-0.6,3.8l0.8,2.4c-0.7-4.5,0.2-5.9,0.2-5.9L297.7,103.2z"/>
		<path class="st23" d="M306.1,100.5l-0.2-1.8c1.9,0.8,2.4,3.8,2.4,3.8s5.8,3.9,7.4,6.3s1,4.3,1.3,7.8c0.1,0.8,0.5,3.2,0.9,5.3
			c0.5,0.2,1,4.2,1,4.2s-1.1,3.5-6.8,3.1l-1.6-0.3c0,0-3.3-9.1-3.1-12.5s-0.1-5,1.6-6.4"/>
		<path class="st8" d="M314.1,154.2c0.3,1.7,1.1,5.1,0.7,6.8c-0.6,1.8-1.6,3.4-3,4.6c-1.7,1.2-2.3,0.2-2.4-0.3s0.6-3,0.7-3.6
			c0.2-0.9-0.2-1.9-0.3-3.4c-0.9,0.1-0.4,2-0.6,3s-1.4,0.7-1.6,0.3c-0.2-0.7-0.3-1.5-0.3-2.2c0-0.9,0.1-1.8,0.4-2.7
			c0.7-2.6,2-3.3,2-3.3C312.1,156,314,154.3,314.1,154.2z"/>
		<path class="st25" d="M304.8,145.6c-0.8-3-1.7-6.1-2.8-9c-0.7-1.9-7.8-20.8-9.8-29.5s0.3-10.6,0.3-10.6l0.3,1.7
			c-1.9,4.1,5.7,26,9,33.7c1.7,4.1,3.2,8.2,4.3,12.5C306.6,146.2,305.2,147.4,304.8,145.6z"/>
		<path class="st27" d="M307.8,116.1c0.1,1.5,0.3,3,0.8,4.4c0.3,1.3,0.7,2.6,1.1,3.9c0.1,0.2,0,0.2,0.1,0.4
			c-0.2,0.7,0.8,3.8,1.3,3.8c0.1,0.6-0.2,0.6-0.6,0.6s-1.8-5.5-2.7-8.4c-0.4-1.5-0.6-3-0.6-4.6c0-1.5,0.2-3.1,0.8-4.5
			C307.7,113.2,307.7,114.6,307.8,116.1z"/>
		<path class="st18" d="M298.7,142.9l-0.1,4.2c-1.5-0.4-2.9-1-4.2-1.7c-0.7-2.9,0.1-4.3,0.1-4.3
			C295.5,142.2,298.6,142.9,298.7,142.9z"/>
		<path class="st26" d="M305.2,141.4c0,0,1,2.2,0.7,2.8s-1,1.2-1.6-1c0,0-0.1,0-0.1,0.5c0,0,0.3,1.2,1,1.3s1.2-0.8,0.7-2.1
			c-0.2-0.5-0.4-1-0.5-1.5l5.7-3.1V138C311.3,138,305.8,140.8,305.2,141.4z"/>
		<path class="st27" d="M292.6,106.3c5.1-2.5,4.9,6.2,4.9,6.2C296.5,105.2,292.6,106.4,292.6,106.3z"/>
		<polygon class="st27" points="295.5,102.5 293.7,106 292.6,106.3 295.1,102.4 		"/>
		<path class="st28" d="M295.8,155.5c3.9,2.9,3.7,9.4,3.7,9.4v-2c0.1-2.2-0.4-4.4-1.5-6.3l2.6,0.7l-4.2-2.8l-1.7-7.2L295.8,155.5z"
			/>
		<path class="st8" d="M297.5,103.6c-0.2-0.1-2.9-0.7-3.5-1.6s-3-7.2-2-8.2c0.8-0.9-0.3-1.8-0.5-2.3c-0.1-0.5-0.2-0.9-0.1-1.4
			c0,0-0.3-3.5,0.7-4.4s6.8-8.8,13.1-5.1c1,0.9,1.5,2.3,1.3,3.7c-0.1,0.3,0.2,7.7,0.2,7.7s1.7-0.6,1.9,1.6s-0.4,3.8-1.3,4.5
			c-0.6,0.5-0.9,0.8-1.5,0.8l0.2,1.8"/>
		<path class="st29" d="M299.3,77.8c-2.4-0.9-2.6,1.4-2.6,1.4c-1.1-0.1-2,0.7-2.2,1.7c-2.7,0.4-2.4,2.2-2.4,2.2
			c-1.9,0.6-1.7,1.7-1.7,1.7c-0.3,2.2,1.2,2.1,1.2,2.1c0.1,0.9,0.9,1.5,1.8,1.5c0.2,0,0.4-0.1,0.5-0.2c0.4,0.9,1.3,1.3,2.2,0.9
			c0.1,0,0.1-0.1,0.2-0.1c0.6,0.8,1.7,1,2.4,0.4c0.2-0.1,0.3-0.3,0.5-0.5c0.8,0.2,1.6-0.1,2-0.8l-0.7,1.3c-0.7,1.7,1.6,2.7,1.6,2.7
			c-0.3,1,0.1,2,1,2.5c0.4,0.3,0.3,0.3,0.5,1.4c0.1,0.6,0.7,1.1,1.4,1l0.1-1.6c0-1,0.4-2,1-2.8c1.8-1.1,2.4,1,2.4,1
			c0.6-0.6,0.8-1.4,0.5-2.2c0.7-0.9,0.8-2.1,0.3-3.1c0.5-0.9,0.3-1.9-0.4-2.6c0.3-1-0.2-2-1.1-2.4c0.2-0.6,0.2-1.4,0-2
			c-0.5-0.7-1.3-1.1-2.2-1.1c-0.2-1-1.2-1.7-2.2-1.6c-0.3-0.3-0.3-1-1.6-1.3C300.9,77.2,300,77.3,299.3,77.8z"/>
		<path class="st9" d="M292.4,92.7c1.5,1.3,3.3,2.2,5.3,2.4c2.7,0.5,3.8-0.7,3.8-0.7s-0.5,0.5-3,0.3c-1.4-0.3-2.7-0.8-4-1.5
			c-1.1-0.3-2.2-1-3-1.8C291.7,91.9,292,92.3,292.4,92.7z"/>
		<path class="st9" d="M299.4,107.8l4.7-5.7c0.3-1.4,0.4-2.8,0.4-4.2c0.3,0.1,0.5,0.6,0.7,0.7c0.3,0.3,0.7,0.4,1.1,0.2v2.1l0.3,0.7
			c-0.9,1.6-4,3.8-4,3.8L299.4,107.8z"/>
		<path class="st9" d="M306.1,95.2c-0.3,0.6,0.5,0.8,0.7,0.6s0.1-2.1,0.4-1.5s-0.2,2.3-0.7,2.4s0.1-0.8-0.5-0.7s-0.6,0.8-0.6,0.8
			c0,0.5,0.5,0.9,1,0.9c0.2,0,0.4-0.1,0.6-0.3c0.7-0.6,1.2-3.7,0.3-4.1s-1.7,1.1-1.7,1.1C306,94.3,306.3,94.5,306.1,95.2z"/>
		<path class="st9" d="M294.8,94.2l0.3,3.9l1.2,0.1l0.4,0.5c-0.8,0.3-1.7,0.2-2.4-0.3V94L294.8,94.2z"/>
		<path class="st27" d="M318.8,125.1c-2.5,4.4-8.5,3.3-8.5,3.3s0,0.6,0.4,0.7c6.4,1.1,8.3-2.8,8.3-2.8
			C319,125.9,318.9,125.5,318.8,125.1z"/>
		<path class="st27" d="M309.5,124.6l-0.3-0.6c0.8,0.4,1.6,0.6,2.5,0.5c2.3-0.1,4.5-1.1,6.2-2.7c-0.4,0.7-0.9,1.2-1.5,1.7
			c-0.6,0.5-1.4,0.9-2.2,1.1C310.2,125.6,309.5,124.6,309.5,124.6z"/>
		<path class="st27" d="M308.1,103.7c-0.3,1.3-3.8,8-3.8,8s-2-3-3-4.3s-3.8,4.9-3.8,4.9l1.4-3.6c0,0,0.9-1.7,1.8-2.1
			s3.4,3.4,3.4,3.4c0.7-1.5,1.5-2.9,2.4-4.3c1.7-2.9,1.6-4.4,1.6-4.4C308.4,102.1,308.4,102.9,308.1,103.7z"/>
		<path class="st27" d="M306.6,102.1c-0.1,0.3-0.3,0.6-0.6,0.9l-0.8,0.8l0,0l-3,2.1c-0.5,0.3-1,0.7-1.5,1c-0.5,0.3-0.9,0.7-1.3,1.2
			c0.2-0.6,0.5-1.2,1-1.6l1.3-1.3c1-0.8,2-1.5,3-2.2l0,0l0.7-0.7c0.2-0.3,0.4-0.5,0.6-0.8c0.4-0.6,0.5-1.3,0.5-2
			C306.8,100.3,306.8,101.2,306.6,102.1z"/>
		<path class="st9" d="M297,105.3c0.2-1.4,0.5-1.6,0.5-1.6c1.3,0.3,2.2-0.4,3.5-1.4c1-0.8,1.9-1.8,2.6-2.9c-1.6,5.3-5.9,5-5.9,5.1
			C297.7,104.4,297.3,104.7,297,105.3z"/>
		<path class="st27" d="M289,117.7c-1.1,0.3-3-1.6-3-1.6c0.6,1.4,2,2.3,3.5,2.4l0.4-15.4C289.3,105.6,289,117.7,289,117.7z"/>
		<path class="st27" d="M289.3,114.1c-1.2-0.2-2.2-1.2-2.5-2.4c1.4,1.8,2.7,1.6,2.7,1.6L289.3,114.1z"/>
		<path class="st27" d="M294.5,115.5c-1.3-0.3-2.5-0.9-3.4-1.8c-0.5-0.3-0.7-0.8-0.5-1.3c0.9,1.2,2.2,2,3.7,2.4L294.5,115.5z"/>
		<path class="st27" d="M291.1,119.6c0.5,1.3,1.7,2.1,3.1,2C291.1,122.7,291.1,119.7,291.1,119.6z"/>
		<ellipse class="st24" cx="296.8" cy="128.2" rx="0.6" ry="0.9"/>
		<ellipse class="st24" cx="296.2" cy="136.1" rx="0.6" ry="0.9"/>
		<ellipse class="st24" cx="297.5" cy="113.6" rx="0.6" ry="0.9"/>
		<path class="st22" d="M290.7,138.1l-0.3,4.4l1.3,1.1c-0.4-1,0.2-4.4,0.2-4.4L290.7,138.1z"/>
		<polygon class="st22" points="303.7,143.3 303.7,147 302.3,147.2 302.4,143.3 		"/>
		<path class="st9" d="M298.5,104.2c0,0-0.8,2.7,0.5,4.3l-1.5,3.7c0-1.1-0.1-2.2-0.3-3.3c-0.3-1.4-0.3-5,0.4-5.4
			C297.5,103.6,298,104.1,298.5,104.2z"/>
		<path class="st9" d="M288.7,147l-0.1,4.3c-0.3,0.1-0.6,0.1-0.8-0.1c0,0,0.8,0.4,0.7-1.9S288.6,146.4,288.7,147z"/>
		<path class="st9" d="M317.6,127.8c0,0-1.7,1.7-6.4,1.3c0.2,3,0.2,5.9,0.1,8.9c0,0,0.8-6.5,0.6-7.3c1.6,0.3,3.3,0.1,4.8-0.4
			c0,0,0.8,6.2,0.4,8.9C317,139.2,318.2,132.2,317.6,127.8z"/>
		<path class="st9" d="M287,117.6l0.2,1.2c1,0.4,1.7,1.4,1.6,2.5c-0.1,1.9,0.8,17.2,0.8,17.2l0.5-0.1l0.2-0.9
			c-0.4-1.6-0.6-3.2-0.7-4.8c0-2.1-0.6-12.4-0.3-14.1L287,117.6z"/>
		<path class="st17" d="M289.2,118.2c0,0-0.3,13.2,1,19.2c3.3,4.4,8.7,6.6,14.1,5.9c0,0-10.4-0.3-13.6-6.2c-0.4-2.2-0.7-4.5-0.9-6.8
			c-0.4-5.1-0.4-12-0.4-15.2L289.2,118.2z"/>
		<path class="st21" d="M295,200.7l-3.4,4.1C293.1,203.7,294.2,202.3,295,200.7z"/>
		<path class="st21" d="M293.6,201.3l1.7,0.9C294.6,202.4,293.8,202,293.6,201.3z"/>
		<path class="st21" d="M292.5,202.3l1.7,0.9C293.5,203.4,292.8,203,292.5,202.3z"/>
		<path class="st21" d="M291.4,203.5l1.7,0.9C292.4,204.6,291.7,204.2,291.4,203.5z"/>
		<path class="st21" d="M308.6,207.3l-3.4,4.1C306.7,210.3,307.8,208.9,308.6,207.3z"/>
		<path class="st21" d="M307.1,208l1.7,0.9C308.8,208.8,307.6,209.1,307.1,208z"/>
		<path class="st21" d="M306.1,209l1.7,0.9C307.1,210,306.4,209.7,306.1,209z"/>
		<path class="st21" d="M304.9,210.1l1.7,0.9C305.9,211.2,305.2,210.8,304.9,210.1z"/>
		<path class="st21" d="M307.7,214.2c0,0,0.5-0.5-0.7-1.4c-2.8-1.9-4.1-1.6-4.1-1.6s-1.8,1.8-1.2,2.9c0,0,1.6,2.2,3.8,1.4
			L307.7,214.2z"/>
		<path class="st21" d="M294.4,207.1c0,0,0.2-0.3-1-1.1c-2.8-1.9-4.1-1.6-4.1-1.6s-1.8,1.8-1.2,2.9c0,0,2,2.2,3.8,1.4L294.4,207.1z"
			/>
		<path class="st21" d="M314.9,206c-2.2,2.9-4.9,5.6-7.8,7.8l0.1,0.8c0,0,5.4-3.8,7.7-7.4C315,206.8,315,206.4,314.9,206z"/>
		<path class="st21" d="M301.1,199.7c0,0-1.7,3-7.8,7.4l-0.1,0.8c0,0,5.6-3.5,7.9-7.1C301.2,200.8,301.3,200.5,301.1,199.7z"/>
		<path class="st28" d="M295.8,155.5c0,0-4.4-2.4-4.3-4l4.5,3.2L295.8,155.5z"/>
		<path class="st30" d="M255.7,341.4c0,0-5.2,6.8-5.5,7.8s0.1,1.7,2.5,2.5s10.5-7.8,10.8-8.6s-0.9-3.1-0.9-3.1
			S259.2,344,255.7,341.4z"/>
		<path class="st30" d="M242.1,335.2c0,0-5.5,6.3-5.5,7.2c0.3,1.4,1.5,2.5,2.9,2.6c1.7,0.2,10-7.7,10.3-8.3s-0.7-3-0.7-3
			L242.1,335.2z"/>
		<path class="st31" d="M237,289.2c0,0-0.8,22.4-0.8,24.4s4.6,17.2,5.2,19.8c-0.1,1.1,0.5,2.1,1.5,2.4c1.5,0.4,5.9,0.9,7.1-3
			c0,0-4.2-15-4.4-18.3s0.6-9.1,2.2-14.5c0,0,0.9,17.7,1.6,20.3s5.5,20.3,5.5,20.3s0.6,3,4.8,1.9c4.2-1.1,3.3-4.1,3.3-4.1
			s-4.2-13.7-3.5-18.9c0,0,0.6-32.8,0.3-36c0,0-15.1-3-19.4-5.9C240.4,277.6,237,279.4,237,289.2z"/>
		<path class="st8" d="M232.6,276c-0.5,0.9-1,1.9-1.2,3c-0.3,1.3-0.3,3.4-1,4.6c0,0-0.9,0.8,0.9,0.9s1.6-1.3,1.6-1.3
			s-0.8,5.1,2.6,5.1l0.8-0.1l-0.3-10.7C234.8,277.1,233.7,276.6,232.6,276z"/>
		<path class="st9" d="M232.6,275.9c0.7,0.7,1.4,1.2,2.3,1.6v1c-0.6-0.9-1.6-1.6-2.7-1.7L232.6,275.9z"/>
		<path class="st32" d="M247,304.2c-0.3,0-1,0.6-0.9,2.3s-0.3,15.1-0.3,15.1c-0.4,0.8,0,1.7,0.8,2.1c0.1,0,0.2,0.1,0.3,0.1
			c1.8,0.6,3.4,1.6,4.6,0.9S271,313,271,313c0.7-0.2,1.2-0.9,1.2-1.7c0-1.4,0.1-16.6,0.1-16.6l-5.7,0.4L247,304.2z"/>
		<path class="st33" d="M242.3,237.2c0,0-2.5,3-2.3,9.8s-0.1,21.7,0,23.5s0.3,5.1,0.3,5.1s5.3,4,9.8,3.8c-0.7-3.7-0.9-7.5-0.6-11.2
			c0.6-5-0.5-13.8,0.3-17.1s4.4-9.4,5-13.2l-0.4-1.4L242.3,237.2z"/>
		<path class="st34" d="M242.5,242.5c-0.2,0.2,0.4,1.9,1.1,2.9c0.3,0.5,0.9,0.7,1.5,0.4c0,0,0.1-0.1,0.1-0.1l1.5-2.1l-1.7-2.1
			C244.1,241.7,243.3,242.1,242.5,242.5z"/>
		<path class="st34" d="M243.5,245.1c0,0-1.3,8.6-2.4,16.6c0.7,2.5,1.7,4.9,2.8,7.2c0,0,2.5-4.3,3.2-5.7c-0.1-0.3-2.3-17.8-2.3-17.8
			L243.5,245.1z"/>
		<path class="st35" d="M254.2,235.8c0,0,1.6,1.1-0.3,5.1s-4.9,9-4.6,16c0.3,7,0.1,13.7,0.3,18.5c0.2,4.1-0.5,7.5-0.1,10
			c0.2,1.9,0.3,3.8,0.1,5.7c2.1,1,4.5,1.3,6.8,0.9c0,0,6.1-0.2,9.5-4.2c-0.3-1.6-0.7-3.1-1.3-4.6c0,0,2.7-9.3,2.9-14
			s-1.9-13.8-2.3-17.2s0.3-5.4-1.3-7.8s-7.4-6.3-7.4-6.3s-0.4-3-2.4-3.8L254.2,235.8z"/>
		<path class="st35" d="M239.8,231.2c-3-0.2-5.7,2.1-5.9,5.1c0,0,0,0.1,0,0.1c0,0,0,12.5-0.1,15.3s-0.8,15.6-0.9,17.5
			c0,0.8-0.1,1.7-0.2,2.5c-0.2,0.6-0.4,1.3-0.4,1.9c0,0.7,0.1,1.5,0.2,2.2c0.7,0.7,1.5,1.2,2.4,1.6c0,0-0.4,6.4-0.3,9.1
			c0.5,1.1,1.3,2,2.2,2.7c1.4,0.9,2.2,1.7,2.9,1.3s-0.1-3,0.1-5.6s0.4-13.8,0.4-19s0.3-9.9,0-13.5s-0.4-12.5,1.8-15.1
			C242.1,237.5,239.7,235.9,239.8,231.2z"/>
		<path class="st36" d="M237.1,237.9c0,1.7-0.1,3.3-0.1,5s-0.1,3.3,0,5s0.2,3.3,0.2,5s-0.1,3.3-0.2,5s-0.3,3.3-0.4,5s-0.3,3.3-0.4,5
			l-0.5,5c-0.2,1.7-0.3,3.3-0.6,5c0-1.7,0.1-3.3,0.2-5l0.3-5c0.1-1.7,0.2-3.3,0.3-5c0.2-1.6,0.3-3.3,0.3-4.9c0.1-1.7,0.2-3.3,0.3-5
			s-0.1-3.3,0-5C236.4,244.6,236.6,241.2,237.1,237.9z"/>
		<path class="st37" d="M244.8,241.6c3.5-1.2,6.7-3.2,9.4-5.7c0,0,0.6,0.3,0.7,2c-2.4,2.8-5.2,5.2-8.3,7.1
			C246.2,243.8,245.6,242.6,244.8,241.6z"/>
		<path class="st37" d="M243.7,238.4c0,0,0.1,2.3,1.1,3.2c-1.1,0.7-2.3,1.3-3.6,1.7c0,0-0.1-4.5,0.8-6
			C242.5,237.8,243.1,238.2,243.7,238.4z"/>
		<path class="st36" d="M235.2,242.5l0.9,2.9c0.2,0.5,0.3,0.9,0.4,1.4c0.1,0.5,0.1,1.1,0,1.6h-0.1c-0.3-0.4-0.6-0.8-0.8-1.3
			c-0.2-0.5-0.3-1-0.3-1.5C235.3,244.6,235.1,243.6,235.2,242.5L235.2,242.5z"/>
		<path class="st36" d="M239.8,284.7c0.6-7.3,0.7-26,0.5-28.6c-0.2-3.7-0.7-10.9,0.3-15.2l1.4-3.5l-1.4-2c0,0-1.9,2.6-2.2,10.6
			c0,0-0.7,6.2-1,7.2c0,0,2,3.2,1.7,5.2s-1.9,3.5-1.1,7.6c0.6,3.1,1.4,11.2,1.7,14.6c0.1,1,0,5.3,0,5.3L239.8,284.7z"/>
		<path class="st8" d="M244.9,241.6c3.5-1.2,6.7-3.1,9.3-5.7L254,234c0.5,0.2,1.1-0.2,1.7-0.6s1.1-2.4,1-4.6s-1.9-1.6-1.9-1.6
			s-0.3-7.3-0.2-7.7c0.2-1.4-0.3-2.8-1.3-3.7c-6.3-3.7-9.2,0.2-11.7,0.5s-2,4.1-2,4.1v4.9c-0.1,0.5,0,0.9,0.1,1.4
			c0.2,0.5,0.2,1,0.1,1.5c-0.3,1-0.3,2-0.2,3c-0.1,5.9,3.4,7,3.8,7.1S243.5,240.3,244.9,241.6z"/>
		<path class="st38" d="M239.1,214.8c0.7,0.6,1.7,0.8,2.6,0.4c1.6-0.6,5.4-3.7,7.6-3s6.5,2.4,6.9,3.5c0.2,0.8,0.2,1.6,0,2.4
			c0,0,1.3,0.4,1.3,2.6s-0.2,6.6-0.7,8.1c0,0-0.6-2.2-2.4-1c-0.7,0.8-1,1.8-1,2.8l-0.1,1.6l-1.6,0.7l0.2-1.7c0-0.5-0.2-1-0.5-1.4
			c-0.8-0.8-1.3-1.8-1.6-2.9c-0.2-0.9,0.1-1.9,0.8-2.5l2.3-2.2l-3.6,2.1c-1.3,0.7-2.9,0.7-4.2,0.1l-5.5-3.1
			C239.5,221.2,236.5,219.3,239.1,214.8z"/>
		<path class="st9" d="M243.7,238.4c1.9,0.6,3.9,0.3,5.6-0.7c1.1-0.9,2-2,2.6-3.3c0,0,0.4,2.2-3,3.9c-1.4,0.7-2.5,0.6-3.5,1.2
			c-0.5,0.3-0.7,1-0.6,2C244.1,240.6,243.7,239.5,243.7,238.4z"/>
		<path class="st9" d="M239.8,226.5c0.8,0.8,1.9,1.5,3,1.8c1.3,0.6,2.6,1.1,4,1.5c2.4,0.3,3-0.3,3-0.3s-0.3,1.5-3,1
			c-2.4-0.5-4.6-1.5-6.5-3C240.2,227.2,240,226.8,239.8,226.5z"/>
		<path class="st9" d="M254,234c-0.3,0-0.5-0.1-0.7-0.3c-0.2-0.1-0.4-0.6-0.7-0.7c0,0,0.2,3.9-2.1,5.8c1.3-0.9,2.6-1.9,3.7-3
			L254,234z"/>
		<path class="st32" d="M246.8,305.1l3.9,2.2c0.3,0.2,0.6,0.2,0.9,0l20.5-12.2c0.2-0.2,0.3-0.5,0.1-0.8c0,0-0.1-0.1-0.1-0.1
			l-3.8-2.1c-0.4-0.2-0.8-0.2-1.2,0c-1.8,1-7.3,4.3-12.2,7.1c-3.5,2.1-6.7,3.9-8.1,4.9c-0.3,0.2-0.3,0.6-0.1,0.9
			C246.7,305,246.7,305.1,246.8,305.1z"/>
		<path class="st9" d="M253.8,229.7c0,0,0.8-1.6,1.7-1.1s0.4,3.5-0.3,4.1c-0.4,0.4-1,0.4-1.3,0c-0.2-0.2-0.3-0.4-0.3-0.6
			c0,0,0-0.7,0.6-0.8s0,0.9,0.5,0.7c0.6-0.6,0.9-1.5,0.7-2.4c-0.3-0.6-0.3,1.3-0.4,1.5s-1,0-0.7-0.6
			C254.5,229.7,254.2,229.5,253.8,229.7z"/>
		<path class="st36" d="M232.6,272c0,0,0.6,1,2.8,1.5l-0.1,0.4C235.2,273.9,233.1,273.6,232.6,272z"/>
		<path class="st8" d="M257.3,289c-0.7,1.2-1.3,2.5-1.7,3.9c0,0-0.8,1.8-0.4,2.7s0.5,1.4,0.5,1.4l1.6-1.1c0,0-0.4-1.6,0.5-1.6
			s1.4,2.2,1.6,2.7s-1.6,1.7-1.4,2.2s0.7,1.6,2.4,0.3c0,0,2.5-1.3,3.3-2.9s-0.7-5.7-1.4-6.9C262.2,290,259.6,291.6,257.3,289z"/>
		<path class="st36" d="M257.3,246.9c-0.7,1.6-1.2,3.3-1.3,5c-0.1,1.6,0.2,3.2,0.8,4.7c0.8,2.9,1.5,5.9,2,8.9
			c0.2,0.8,0.3,1.6,0.3,2.4v2.4c0,1.6-0.1,3.2-0.2,4.8c-0.2,3.2-0.3,6.4-0.6,9.6l0,0c-0.3,1.4-0.5,2.8-0.6,4.2v-0.1
			c0.1,0.2,0.3,0.3,0.5,0.5c0.2,0.2,0.5,0.3,0.8,0.3c0.5,0.2,1.1,0.3,1.7,0.3c0.6,0,1.1-0.2,1.6-0.4c0.5-0.4,0.8-0.8,1-1.4l0,0
			c0.6-2.2,1.1-4.3,1.7-6.4c-0.4,2.2-0.9,4.4-1.3,6.5l0,0c-0.2,0.6-0.5,1.2-1,1.7c-0.5,0.4-1.1,0.6-1.8,0.6c-0.6,0-1.3-0.1-1.9-0.3
			c-0.7-0.2-1.3-0.6-1.7-1.2l0,0v-0.1c0-1.5,0.2-3,0.5-4.4v0.1c0.3-3.1,0.3-6.4,0.5-9.6c0.1-1.6,0.2-3.2,0.2-4.8c0-0.8,0-1.6,0-2.4
			c-0.1-0.8-0.2-1.6-0.3-2.4c-0.6-3.1-1.3-6.3-2.1-9.3C255,253,255.5,249.6,257.3,246.9z"/>
		<path class="st36" d="M257.9,284.7c0.5,0.2,1,0.4,1.5,0.6c0.5,0.2,1,0.3,1.5,0.3c0.5,0.1,1,0.1,1.5,0.1c0.5,0,1-0.1,1.6-0.1
			c-0.5,0.3-1,0.6-1.5,0.8c-0.5,0.2-1.1,0.2-1.7,0.1c-0.6-0.1-1.2-0.3-1.7-0.6C258.6,285.7,258.1,285.2,257.9,284.7z"/>
		<path class="st39" d="M240.3,274.9c2.7,2.2,5.9,3.6,9.4,4l-0.2,2v1.8c0,0-6.3-0.9-9.3-3.7L240.3,274.9z"/>
		<path class="st40" d="M242.6,276.6c-0.4,1.4-0.4,2.8,0,4.2c1.2,0.9,2.7,1.4,4.2,1.4l0.1-3.9C245.4,278,243.9,277.4,242.6,276.6z"
			/>
		<path class="st41" d="M243,283.1l1.7,7.2l4.2,2.8l-2.6-0.7c1.1,1.9,1.6,4.1,1.5,6.3v2c0,0,0.3-6.5-3.7-9.4L243,283.1z"/>
		<path class="st9" d="M230.4,283.7c0,0,1.1,1.2,2.3-0.7c0.2-0.4,0.4-0.8,0.5-1.3c0.1-0.5,0.2-0.9,0.2-0.9s0.6,0.2,0.1,1.4
			c-0.2,0.6-0.5,1.2-0.8,1.7c-0.5,0.5-1.3,0.7-2,0.5c0,0-0.6-0.2-0.5-0.5L230.4,283.7z"/>
		<path class="st42" d="M258.6,295.1l-3.3,2.3c0,0-0.8,0.3-0.8,1.9v2.6l1.6,0.6l1.3-0.7v-1.7c0,0-0.1-1,0.3-1.4s1.1-0.7,1.7-1.2
			C259.3,296.6,259.1,295.8,258.6,295.1z"/>
		<ellipse class="st43" cx="244" cy="271.9" rx="0.5" ry="0.7"/>
		<path class="st9" d="M233.5,281c0,0,1.1,0.1,1.3-0.6v0.9c0,0-0.3,0.3-1.3,0.3V281z"/>
		<path class="st36" d="M249.5,279.9c0,0,0.4-2.7,0.7-8.6s2.7-12.9,2.7-13.2s-1.2-4-1.2-4s1.5-0.1,2-0.7s-0.5-3.7,0.9-7.2
			s2.2-5.5,1.8-8.6c0,0-0.6-3-2.4-3.6l0.2,1.9c0,0,2,1.1-1,6.3c0,0-4.3,6.9-4.1,14.2c0,0,0.3,8,0.1,10.2S249.9,277.4,249.5,279.9z"
			/>
		<path class="st44" d="M256,302.4l1.3-0.7v-2.1c0-0.6,0.3-1.1,0.8-1.4l1.3-1c-0.1-0.5-0.2-0.9-0.3-1.4c-0.8,0.7-1.6,1.3-2.4,1.9
			C255.6,298.6,256,302.4,256,302.4z"/>
		<path class="st36" d="M254.5,250c0,1.1,0.2,2.1,0.6,3.1l0.7,0.9c0.1,0.5,0.1,1,0.1,1.5c-0.7-0.7-1.2-1.5-1.5-2.5
			c-0.1-0.5-0.2-1-0.2-1.5C254.2,251,254.3,250.5,254.5,250z"/>
		<path class="st45" d="M240.3,274.9c0,0,2.9,3.1,9.4,4c0,0-0.3-6.2-0.4-8.4s0.1-10.2,0-10.9c-0.4-4.4,0.3-8.9,1.9-13
			c0,0,1.4-3.3,2.5-5.2c0.5-1.1,0.9-2.2,1.2-3.3c0,0-4.6,5.2-8.2,7c2.6-1.2,5-2.9,6.9-5c0,0-3.7,5.5-4.4,10.2s-0.4,19.5-0.4,21.6
			s0.3,6.1,0.3,6.1S245.6,278,240.3,274.9z"/>
		<path class="st45" d="M241.5,238.6c-0.2,1.6-0.3,3.2-0.3,4.8c0.4-0.1,0.8-0.2,1.2-0.4c0.2,0.9,0.5,1.7,1,2.4c0,0-1.3,8.5-1.6,10.5
			l1.3-10.3l-1-1.8c-0.5,0.1-0.9,0.2-1.4,0.2c-0.2,2.5-0.3,4.9-0.2,7.4c0.4,7.9,0.3,15.8-0.4,23.7c0,0,0.1-13.6,0.2-15.4
			c0.1-2.9,0-5.8-0.3-8.7c0,0-0.2-7,0.5-9.9C240.8,240.2,241.1,239.4,241.5,238.6z"/>
		<path class="st46" d="M242.7,243.4c0,0,1.6-0.9,2.1-1.3l1,2.2c-0.2,0.5-0.5,1-0.9,1.5l-1.3-0.5l1.3,0.8l1.9,16.8
			c0,0-2,4.3-2.8,5.9c0,0,2.6-3.6,3.2-5.7c0,0-2.2-16.7-1.9-17.5c0.4-0.5,0.8-1,1.1-1.6c-0.4-0.9-0.8-1.7-1.4-2.5l-2.3,1.3
			C242.5,242.9,242.4,243.1,242.7,243.4z"/>
		<polygon class="st47" points="243,248.5 245.3,250.9 245.6,253.2 242.6,250.9 		"/>
		<polygon class="st47" points="242.2,253.4 246,256.5 246.3,259.3 241.9,255.9 		"/>
		<polygon class="st47" points="241.6,258.2 246.6,262.1 246.7,263 246,264.6 241.2,260.7 		"/>
		<path class="st47" d="M242,264.2l3.2,2.1l-1.3,2.6C243.1,267.4,242.4,265.8,242,264.2z"/>
		<path class="st41" d="M244.4,291.4c0,0-2.8-0.7-3.6-2c0,0,2.5,0.9,3.6,1.2V291.4z"/>
		<path class="st9" d="M257.3,289c0,0,0.4,1.4,3.7,1.5c0,0,1.1,0,1.4-0.5c0.8,1.5,1.3,3.2,1.5,4.9c0,0-1.2-2.6-2.5-3.1
			c-1.8,0-3.4-0.9-4.4-2.4L257.3,289z"/>
		<path class="st9" d="M259.4,297.4c0,0-0.5-2.8-1.7-3.1c0,0,1.8-0.8,1.7,3.3"/>
		<path class="st48" d="M116.1,253.1c-3.8,4.6-6.3,19.1-6.3,19.1c1-1.6,5.2-2.3,5.2-2.3C114.8,266.9,116,253.1,116.1,253.1z"/>
		<path class="st49" d="M116.2,194.8c0,0-2.4-1.3-4,2.1s-0.1,10.5,1,12.7s1.7,4.2,1.7,4.2l3-2c0.7-0.6,1.1-1.5,1.2-2.4
			c1.5-1.9,0.8-6.2,0.8-6.2L116.2,194.8z"/>
		<path class="st50" d="M112.9,299.4c-0.4,0.8-0.6,1.6-0.6,2.5c0,0.5,0.5,0.8,0.8,1.2c0.9,1.2,5,4.1,5,4.1c1.2-1.2,2.8-1.8,4.5-1.7
			l-3.5-5.1L112.9,299.4z"/>
		<path class="st50" d="M128.9,292.9c-0.1,0.2-0.6,1.9-0.7,2.1c-0.5,0.9-0.2,2.1,0.5,2.8l5.2,4.4l4.6-1.9c-1-1.7-4.2-5.7-4.2-5.7
			L128.9,292.9z"/>
		<path class="st50" d="M137.7,247l1,9.7c1.6-0.7,2.1-1,2.5-3.7s-0.5-7.9-0.5-7.9L137.7,247z"/>
		<path class="st51" d="M112.9,299.2c0.1-7,0-8.1,0.5-13.7c0.2-1.6,0.4-3,0.7-5.4c0.5-6-0.9-14.4-0.9-18.1c0-5.1,2-8.5,2.3-8.6
			c16.5-2.6,23,14.8,23.1,14.8c-0.3,4.9-4.1,26.3-4.1,26.3c-1.1,2.3-4.5,1.1-4.5,1.1c-1.2-0.7-1.8-2-1.6-3.3c0,0,0.7-10.7,0.7-14.5
			c0.1-1.9-0.2-3.9-0.8-5.7c0,0-3.9-2.3-4.4-0.3c-0.2,0.9-0.2,3.7-1,7.4c-0.9,4.6-2.5,10.4-2.7,13c-0.2,2.8-0.6,5.5-1.2,8.2
			c-0.9,0.9-2.2,1.3-3.5,1.1C114.2,301.2,112.9,300.2,112.9,299.2z"/>
		<path class="st52" d="M138.3,271.1c0,0-5.4,3.3-9.3,4l0.1,1.4c0,0,5.3,0.1,8.8-2.7L138.3,271.1z"/>
		<path class="st52" d="M116.4,255.9c0,0,2.5,10.8,0.4,20.6c0,0,3.9,1.8,6.3,1.1c0.3-1.8,0.5-3.7,0.6-5.5
			C123.7,271.1,118.5,254.1,116.4,255.9z"/>
		<path class="st53" d="M109.6,255.6c-0.9,1.8-2.3,10.2-2.5,14.6s3.2,5.1,3.2,5.1c-0.2-1.5-0.2-2.9,0.1-4.4
			c0.6-6.9,5.1-14.7,5.1-14.7l1.2-7.7l1,8.5c0.6,3.3,0.9,6.6,0.8,10c-0.2,3.2-0.6,6.4-1.3,9.5c2.5,0.5,10.2-0.3,16.6-2.6
			c6.4-2.3,7.4-4.8,7.4-4.8c0.1-1.9,0-3.7-0.2-5.6c-0.3-2.4-2.4-16.4-2.4-16.4c3-1.2,3.4-2.5,3.3-4.6s-1.3-10-1.6-16.2
			s-1.6-13.7-2.9-17.3s-3.9-3.3-3.9-3.3c-0.1,1.6-0.6,3.2-1.2,4.7c1.1,3.2,1.7,6.5,1.7,9.8c-0.9,2.9-4.4,3.2-6.4,3.3
			s-4.1-2.9-5.7-6.7c-1-2.3-3.1-3.9-5.6-4.3c-2.8,1.4-4.4,5.3-5.8,8.8s-3.2,15-3.5,19.9C106.9,245.9,109.7,255.5,109.6,255.6z
			 M114.6,241.4c0,0,0.6-7.9,2.1-10.7c0.8,1.6,0.9,3.4,0.3,5.1C116.3,237.7,115.5,239.6,114.6,241.4L114.6,241.4z"/>
		<path class="st54" d="M116.2,199.2c-1.3,0-1.8-1.3-1.9-3.8s1.5-2,1.5-2L116.2,199.2z"/>
		<path class="st50" d="M132.3,209.8c0.9,2.1,2.3,8.8,1.8,10.5s-4.4,3.7-7,3s-4.6-5.2-5.7-7.5s-5.1-3.6-5.1-3.6
			c0.3-0.4,1.7-1,3.1-2.2s0.7-4.4,0.7-4.4c0.4,0.5,1.1,0.8,1.7,0.6C124.1,208.5,132.4,209.8,132.3,209.8z"/>
		<path class="st50" d="M120.4,191.2c-5.7,2.6-1.2,12.5-1.2,12.5c-0.1,2.4,1.1,3.7,1.7,3.6c0,0,4.6,5.1,7.9,5.1s4.6-2.6,5.5-8.5
			c0.1-0.5-0.2-1.3-0.1-1.8c0.2-0.6,0.3-1.1,0.4-1.7c0.1-2.2-0.1-4.3-0.7-6.4C131,187.2,126,188.6,120.4,191.2z"/>
		<path class="st55" d="M111.3,241.4l3,12.7c0,0,5.5,5.1,6.2,5.1s5.1-2.4,5.5-3.5s-1.7-10.1-2.1-11.4s-10-7.4-10-7.4L111.3,241.4z"
			/>
		<path class="st56" d="M134.4,191.9c-0.5-1.1-1.2-2-2.2-2.7c-1.9-1.7-4.3-2.9-6.9-3.3c-2.5-0.2-8.4,2.1-9.4,4.5
			c-0.3,1.7-0.5,3.5-0.4,5.2c0.4,2-0.3,2.4,0.5,5.1c0.3,1,0.7,2,1.2,2.9c0.7,0.5,1.6,0.6,2.3,0.2c0.7,0,1.3-0.3,1.8-0.8
			c0.3,0.8-0.6,2.2,1,3c0.6,0.4,1.3,0.2,1.7-0.3c0.1-0.2,0.2-0.4,0.2-0.6c-0.7,1.3-2.3,0.6-1.9-1s2-1.2,2.5-3.7s1-2.4,4.8-3.2
			c3.8-0.8,3.9-3.4,3.9-3.4c0.3,0.5,0.5,1,0.6,1.6C134.1,195.4,135.4,194.2,134.4,191.9z"/>
		<path class="st57" d="M134.4,201.2c-2.3,1.5-5.5,2.9-6.1,2.6c-0.8,0.1-1.6,0-2.4-0.1c0.3-0.5,1.1-0.3,3-0.5s5.7-2.5,5.7-2.5
			L134.4,201.2z"/>
		<path class="st57" d="M130.5,207.1c0.7,0.3,1.3-0.2,1.1-0.6c-0.4-0.8-0.5-1.7-0.4-2.6c0.2-0.6,0.4-0.3,0.4-0.3
			c-0.2,0.9-0.1,1.9,0.3,2.8c0.6,1.7-1.8,1.7-2,0.8C130,206.7,130.5,207.1,130.5,207.1z"/>
		<path class="st57" d="M132.3,212c-0.8,1.2-3.2,1.4-3.2,1.4s-6.1,0.2-6.7-5.6c1,2,2.8,3.5,4.9,4.1c3.8,0.9,5.2-1.6,5.2-1.6l0.4,1.1
			c0,0,2.2,8.3,1.1,9.5C134,217.9,133.4,214.8,132.3,212z"/>
		<path class="st58" d="M136.6,216c1.3,1.4,2.1,3.2,2.5,5.1c0.5,3-1.1,5.9-2.6,8.2s-1.2,3.5,0.7,8.7c1.1,2.9,1.6,5.9,1.4,9
			c-0.4-8.2-3.5-9-3.7-12.9s1-4.7,3-9s-1.5-7.8-1.8-9.1c-0.1-1.3,0-2.6,0.3-3.9C136.3,213.4,136.4,214.7,136.6,216z"/>
		<path class="st58" d="M122.6,230.6c3.7,1.9,7.4-0.3,7.4-0.3C126.3,234.3,122.6,230.6,122.6,230.6z"/>
		<path class="st57" d="M139.7,254.4l-0.1-1.2c0,0,0.5-1.3,0.6-1.6s0.1-3.1,0.1-3.1C141.3,251.2,139.6,254.4,139.7,254.4z"/>
		<path class="st57" d="M120.8,209.9c-0.4,1.2-1.4,2.1-2.6,2.3c3.5,1.3,4.4,4.4,5.7,7c0.9,1.7,2.2,3.1,3.8,4.2
			c-2.7,0.1-4.6-4.3-4.6-4.3c-0.8-1.5-1.6-3-2.6-4.4c-0.9-1.2-4.1-2.4-4.1-2.4l3.1-2.2c0.9-1,1.1-2.4,0.5-3.6c1,1.1,1.8,0.2,1.8,0.2
			C122.7,208.7,121.2,208,120.8,209.9z"/>
		<path class="st8" d="M110.6,257.1c-0.5,2.1-0.6,4.3-0.3,6.5c0.3,2,1.3,2.4,2,3.1s1.5,1.3,2.1,0.3c0.3-0.4-0.1-2.5-0.1-3.9
			c0-0.9,0.1-1.8,0.3-2.6c0.2,0.9,0,4.7,1.1,4.4s0.8-1.4,0.9-4c0-1.7-0.2-3.3-0.7-4.9C113.9,258.5,110.6,257.1,110.6,257.1z"/>
		<path class="st11" d="M133.8,300.8c-2.9-1.2-5.7-5.2-5.7-5.2c-0.3,0.5-0.4,1-0.3,1.5c2,2.6,6.2,6.2,9.5,7.3s3.3-0.9,3.3-0.9
			c-0.4-1.7-1.3-3.3-2.6-4.5C136.4,298.8,134.7,299.5,133.8,300.8z"/>
		<path class="st11" d="M118.1,306.5c-2.9-1.2-5.7-5-5.7-5c-0.3,0.4-0.4,0.8-0.4,1.3c1,1.6,6.3,6.1,9.6,7.2s3.3-0.9,3.3-0.9
			c-0.3-1.7-1.3-3.2-2.6-4.3C120.7,304.5,119.1,305.2,118.1,306.5z"/>
		<path class="st53" d="M107.1,242c-0.3,2.9,2,10.7,2,10.7l1.1,4.3c1.9,0.9,4.2,0.3,5.5-1.3c-1.4-5.2-1-19.4-1-19.4L107.1,242z"/>
		<polygon class="st59" points="121.1,245.7 114.8,240.9 114.6,241.4 120.7,245.9 120.1,259 120.5,259.2 121,246 		"/>
		<path class="st59" d="M120.7,243.7l-5.7-4.3C116.6,241.2,118.5,242.7,120.7,243.7z"/>
		<path class="st59" d="M122.2,248.2c-0.2-1.6-1.5-13.8-1.5-13.8c-0.9-15.5-2.4-17.2-2.4-17.2c-0.6-1.8-2.5-2.9-4.4-2.6
			c0.2-0.8,0.9-1.4,1.7-1.6c3.3-0.8,5,4.9,4.9,4.5c1.7,4.2,3.2,30.5,3.2,30.5C123.7,249.7,122.4,249.7,122.2,248.2z"/>
		<path class="st58" d="M116.8,228.6l0.3-1.1c1.2-0.7,2.3-3.4,2.3-3.4C119.3,225.9,118.3,227.6,116.8,228.6z"/>
		<path class="st58" d="M116.9,226.3c-1.5,3-2.6,11.2-3,14.8s1.9,14.5,1.9,14.5c-0.8,2.1-5.5,1.3-5.5,1.3c5.1,1.8,6.2-1,6.2-1
			s-1.4-9.4-1.8-11.8s1.3-13.8,3.1-17.8s0.9-6.5,0.9-6.5C118.5,222.1,117.9,224.3,116.9,226.3z"/>
		<polygon class="st60" points="131.8,222.7 131,220.5 131,223 		"/>
		<path class="st60" d="M119.8,203.8c0,0-0.2,2.1,0.5,2.3s1.2-0.5,0.9-0.8s-0.9-0.6-0.3-1.5S119.8,203.8,119.8,203.8z"/>
		<path class="st59" d="M120.7,245.9l1-1.4l2.2-0.2c0,0,2.7,9.9,2,11.7c-1.6,1.4-3.4,2.5-5.4,3.3l-0.2-0.8c0,0,3.5-0.9,5.3-3.1
			c-0.3-3.6-0.9-7.2-1.9-10.7l-1.5,0.1l-1.4,1.7"/>
		<path class="st61" d="M131.1,212.9c0,0,1.1,3.3,0,4.5s-3,1.6-6-1.4c-1.9-1.9-3.9-3.7-6.1-5.3c0,0-0.2-1.2,1.1,0s6.6,6.6,7.9,6.9
			c1.3,0.3,4,0.7,2.5-4.5L131.1,212.9z"/>
		<circle class="st61" cx="130.2" cy="218.2" r="0.7"/>
		<circle class="st61" cx="121" cy="206.9" r="0.5"/>
		<path class="st57" d="M114.7,259.7c-0.1,0.9-0.2,1.7-0.4,2.6c-0.1,1.5,0,3,0.3,4.5c0,0-0.1-5,0.3-5.5v1.6
			C114.9,262.9,115.6,260.7,114.7,259.7z"/>
		<path class="st57" d="M116.1,256.4c0,0-0.9,1.8-5.5,0.7c-0.5,1.7-0.6,3.5-0.4,5.2c0,0,0.5-3.8,2-3.6s4-1.6,4.3,0.8l0.2,1.6
			C116.9,259.5,116.7,257.9,116.1,256.4z"/>
		<path class="st57" d="M140.9,245.8c-0.7,0.5-1.4,0.9-2.2,1.2l0.4,2.6c0,0,1-2.2,1.6-1.4c0.5,0.8,0.7,1.7,0.7,2.6
			C141.4,249.1,141.3,247.4,140.9,245.8z"/>
		<path class="st57" d="M134.5,294.5c0,0-0.5,2-4.1,1.2c0,0-1.5-0.5-1.7-1.7c-0.2,0.5-0.4,1.1-0.6,1.6c0,0,0.2-0.8,0.9-0.2
			c1.7,1.7,4.4,1.8,6.3,0.3L134.5,294.5z"/>
		<path class="st57" d="M119.1,300.4c0,0-2.4,2.3-4.9,0.5c0,0-1.3-0.7-1.3-1.5s-0.4,1-0.4,1c1.9,2.2,4.9,2.8,7.5,1.6L119.1,300.4z"
			/>
		<path class="st58" d="M137.3,213.5l-0.9,2.8l0.7,0.9C137.3,216,137.3,214.7,137.3,213.5z"/>
		<path class="st56" d="M119.2,203.8c-0.2,1.1,0.1,2.2,0.8,3c0.1,0.4,0.2,0.7,0.3,1.1c0,0-1.8,0.7-4-6.3L119.2,203.8z"/>
		<path class="st62" d="M133.2,191.3c0.9,1.9,0.1,4.2-1.8,5.1c-0.1,0.1-0.3,0.1-0.4,0.2C132.7,195.4,133.6,193.3,133.2,191.3z"/>
		<path class="st62" d="M122.2,200.9c0,0-0.4,3-3,2.7C119.1,203.7,121.7,202.7,122.2,200.9z"/>
		<path class="st9" d="M217,189.6c0,0-0.9,3.4-0.2,4c0.4,0.4,1.1,0.5,1.6,0.3C218.4,193.9,216.6,194.2,217,189.6z"/>
		<path class="st8" d="M367.5,289c-0.1,3.2,0,6.5,0.4,9.7c0.4,3.7-0.6,13.5-0.6,14.2c1.2,0.8,2,2,2.2,3.4c0.3,2.2,0.5,4.2-0.3,4.6
			s-1.1,0.3-1.1,0.3s0.2,4-2.9,3.6l-1.6-10l0.1-24L367.5,289z"/>
		<path class="st9" d="M365.2,315.6c0.8,0.8,1.8,1.5,2.9,1.8c0,0,0.1,3,0.7,3.5c0,0-0.7,1-1.2-2.9
			C367.4,318.2,365.5,317.7,365.2,315.6z"/>
		<path class="st63" d="M346.6,268.2c-1.3,0.2-2.6,0.8-3.6,1.7c-2.1,1.6-5.2,1.6-7,3.7s-2,5.2-2.4,9s-3.6,4.6-1.2,13.8
			c0,0,0.8,3.7,1.1,6s1.7,5.2,5.3,5.5l17.3-29.9L346.6,268.2z"/>
		<path class="st64" d="M340.2,379.3c-0.7,0.2-1.2,0.9-1.2,1.7c0.1,1.3,1.7,2.9,3,4.2c1.7,1.7,4.1,3.8,5.9,4.3s4.6-0.9,3.6-3
			l-7.3-7.1h-4V379.3z"/>
		<path class="st64" d="M353.4,372c-1,0.2-1.7,1.1-1.7,2.1c0,0-0.1,0.6,1.4,2c2,1.9,3.8,3,5.1,4.2c1.1,1.1,3.2,2.6,5.1,2.3
			s3-2.2,1.8-3.5C365.1,379.1,355.9,370.9,353.4,372z"/>
		<path class="st8" d="M353.2,371.3c0,0-1.6,1.9,0.6,3.9l7.6,5.9c0,0,1.8,0.7,2.8-0.3c1.3-1.3,1.6-2.4-0.6-4.5l-3.5-3.9
			C360,372.4,355.2,368.8,353.2,371.3z"/>
		<path class="st8" d="M340.7,377.8c0,0-1.5,1.9-0.4,3.2s5,6.4,7.6,7s4.8-1,3.3-3l-5.1-6.5l-4.8-0.4"/>
		<path class="st65" d="M365.2,327.5c0,0,0.8,22.4,0.8,24.4s-4.6,17.2-5.2,19.8c0.1,1.1-0.5,2.1-1.5,2.4c-1.5,0.4-5.9,0.9-7.1-3
			c0,0,4.2-15,4.4-18.3s-0.6-9.1-2.2-14.5c0,0-0.9,17.7-1.6,20.3s-5.5,20.3-5.5,20.3s-0.6,3-4.8,1.9s-3.3-4.1-3.3-4.1
			s4.5-15.6,4.5-25.1c0,0-1.6-32.2-1.3-35.5c0,0,17.1,1.2,21.4-1.7C363.8,314.4,365.2,317.6,365.2,327.5z"/>
		<path class="st66" d="M359.1,321.3l-1.7,7.2l-4.2,2.8l2.6-0.7c-1.1,1.9-1.6,4.1-1.5,6.3v2c0,0-0.3-6.5,3.7-9.4L359.1,321.3z"/>
		<path class="st67" d="M341,300.3l-0.3,15.4c0,0,2.8,5.8,11.8,4.7c0,0,8.5-1.2,11.6-6.7c0,0,0.9-19.7,0.8-22.4L341,300.3z"/>
		<path class="st67" d="M346.8,275.6l0.8-1.1c0,0-1.4-0.6-4.9,2.7l-3.4,3c0,0-1.9,1.6-1.9,6.8c-0.1,4.2-0.7,8.4-1.7,12.5
			c0,0.5,3.3,4.5,8,2.4c0,0,14.5,0.2,20.9-5l0.3-5.8c0,0,1.7,0.6,3-2.4l-0.7-13.5c0,0-0.6-7.3-5.4-7.2L346.8,275.6z"/>
		<path class="st8" d="M337.2,299.5c0,0-1.3,4.1,0.3,13.7c0,0,3.2,12.6,2.8,14.6c1.6,0.7,3.4,0.3,4.5-1c0,0-1.9-14.1-1.7-18.9
			s0.2-7.2,0.2-7.2S341.9,296.9,337.2,299.5z"/>
		<path class="st8" d="M347.6,264.2c0,0-1.7-0.3-1.6,1.1s0.5,4.2,1,4.9s1.6,0.6,1.6,0.6c0.2,1.1,0.1,2.2-0.3,3.2l-1.3,1.6
			c1.8,1,3.3,2.6,4.2,4.5c1.1,2.9,1.7,4.2,3,4s1.1-0.1,1.1-0.1l1.6,4.9l0.7-5.9c0.9-0.6,1.5-1.5,1.6-2.6c0.3-1.9-1-6.1-1-6.1
			L347.6,264.2z"/>
		<path class="st8" d="M361.6,255.5c0,0,1.3-0.7,1.1,3.6c0,0,0.3,4.8-0.1,5.7c-0.2,0.3-0.3,0.8-0.5,1.1c-0.3,0.5-0.3,1-0.2,1.5
			c0.3,0.5,0.3,1.2,0,1.7l-1.9,5.1c-0.2,0.4-0.5,0.8-0.9,1l-1.3,0.8c-0.5,0.3-1.2,0.4-1.8,0.3c-2.3-0.4-4.2-1.9-5.2-4l-1.7-1.8
			c0,0-0.9,1.3-2.2-0.3s-1.2-4.9-0.8-6.4S352.1,249.3,361.6,255.5z"/>
		<path class="st68" d="M355.2,264.6c0,0,7.9-1.6,7.2-7.1l0.2,3.3c0,0,1.6,0.3,1.3-3.9c0-1.9-1.4-3.4-3.2-3.7c0,0-0.9-2.1-4.1-2.3
			c0,0-3.6-1.9-6.3,0.5c-1,0-2,0.5-2.6,1.3c-1.2,0.4-2.2,1.3-2.8,2.5c-0.9,1.6-0.3,2-1,3.1c0,0-1.5,2,0.5,7.1
			c0.5,3.2,1.8,3.1,1.8,3.1s-1-4.5,0.8-4c0,0,1.6,0.3,1.7,1.3s-0.2,2.8,0.6,3.3l1.1,0.4c0,0-0.3-2.2,0.6-2.9c1.4-0.9,1.8-2.8,1-4.2
			c0,0-1.7-3.3-0.1-3.7c0,0-0.9,0.9,0.2,2.6c0.8,1.1,1.1,2.4,0.9,3.7c0,0,1.4-0.7,0.6-2.8s1.2-4,1.2-4s-1.5,1.4-1,2.9
			s0.8,3.1-0.2,4.1c0,0,1.2-0.2,1.7-2.8c0.2-1.5,1.1-2.9,2.4-3.7c-1,0.7-1.7,1.8-2,3C355.8,263.3,355.9,264.2,355.2,264.6z"/>
		<polygon class="st69" points="348.9,265.9 355.3,267.8 355.2,268.5 349,266.6 		"/>
		<path class="st67" d="M335.8,299.5c0,0,1.6,4.1,8.7,2.3c0,0,1.4-7.2,1.7-9.2s1.9-6.6-0.1-8.5c0,0-5.3,2.4-8.3-0.3
			c-0.2,1.7-0.2,3.4,0,5.1C338.1,291.3,336.9,297.4,335.8,299.5z"/>
		<path class="st9" d="M354,266.8c0.9,0.2,1.9,0.2,2.8,0.1c2.1-0.6,4.1-1.4,6-2.4l-0.3,0.7c-1.8,0.8-3.6,1.5-5.5,2.1
			C355.4,267.6,354.6,266.8,354,266.8z"/>
		
			<ellipse transform="matrix(0.1829 -0.9831 0.9831 0.1829 27.6923 570.5111)" class="st70" cx="357.1" cy="268.6" rx="2.1" ry="1.7"/>
		<path class="st71" d="M357.1,266.4c1.2-0.2,2.2,0.6,2.4,1.8c0.2,1.2-0.6,2.2-1.8,2.4c-1.2,0.2-2.2-0.6-2.4-1.8c0-0.1,0-0.2,0-0.3
			C355.2,267.4,356,266.5,357.1,266.4z"/>
		
			<ellipse transform="matrix(0.1829 -0.9831 0.9831 0.1829 32.9901 574.4728)" class="st70" cx="362.1" cy="267.4" rx="2.1" ry="1.7"/>
		
			<ellipse transform="matrix(0.1829 -0.9831 0.9831 0.1829 32.9901 574.4728)" class="st71" cx="362.1" cy="267.4" rx="2.1" ry="1.7"/>
		<path class="st71" d="M358.8,268c0,0,0.6-1.2,1.6-0.4"/>
		<path class="st9" d="M360.1,268c0.6,1.2,0.6,2.6,0.2,3.9l-1.2,0.6l-1.4-0.5l1.5,0.1l0.7-0.5C360.1,270.4,360.2,269.2,360.1,268z"
			/>
		<path class="st9" d="M350.8,272c0,0,2.2,3.7,5.9,4.2l1.6-0.5c0,0,2,2.7,1,5.5c0,0-0.1,1.2-1.9,1.8l-0.7,5.9l-0.2-6.2
			c0,0,3.1-1.3,1.7-5.2l-2,0.4C356.3,277.9,350.3,278.1,350.8,272z"/>
		<path class="st9" d="M348.4,270.8c0,0,0.4,0.2,0.8-0.4c0,1.2-0.1,2.3-0.3,3.5c-0.2,0.7-0.7,1,1,3.7c1.1,1.7,1.8,3.6,2.2,5.6
			c0,0-1.2-4-2.2-4.8s-3.5-2.6-3.5-2.6c0.9-0.8,1.6-1.8,1.9-3C348.6,270.9,348.4,270.8,348.4,270.8z"/>
		<path class="st8" d="M344.7,326.7c0,0,0.5,0.9,2,3.3c0.4,1,0.5,2,0.5,3.1c-0.1,0.6-0.2,1.1-0.4,1.7c-0.2,0.4-1.4,0.8-1.6-0.3
			s0.3-3-0.6-3s-0.4,2.5-0.3,3.4c0.1,0.5,0.9,3,0.7,3.6s-1.3,0.9-3-0.3c-1-1.3-1.8-2.8-2.2-4.4c-0.4-1.7,0-3.8,0.5-6.2
			C340.5,327.8,342.4,328.6,344.7,326.7z"/>
		<path class="st64" d="M357.2,378c0,0,1.3-3.6,4.9-3.3c0.7,0.5,1.3,1.2,1.8,1.9c-2,0.2-3.7,1.7-4.1,3.7L357.2,378z"/>
		<path class="st64" d="M343.3,384.8c0,0,2.1-4.1,5.5-2.9c0.7,0.5,1.3,1.2,1.6,2c0,0-2.6-0.7-4.6,3
			C345.4,387,344.1,385.8,343.3,384.8z"/>
		<path class="st72" d="M346.5,275.7c0,0,3,1.7,3.7,3s2,5.1,3,5.2c0.6,0.1,1.1,0.1,1.7,0l1.6,4.8l0.7-5.8c0,0,2.6-0.9,2-4.4
			c0-1-0.4-2-1.1-2.8l0.5-0.2c0.6,1.2,1,2.5,1.2,3.8c0.1,1.8-1,3.6-2.2,3.9l-0.8,7.2l-2.3-5.9c-1,0.2-2-0.2-2.6-1
			c-0.9-1.3-1.6-4.4-2.4-5.1c-1.1-0.8-2.2-1.7-3.2-2.6L346.5,275.7z"/>
		<path class="st72" d="M358.5,289.5c1.8-0.4,3.3-1.5,4.4-2.9c-0.6,1.7-2,3-3.8,3.4c0,0-0.3,4.4,0.3,5.3s3-0.3,3.5-1.6l0.1-5.7
			l0.3,6.2c0,0-2,3.4-4.7,1.4L358.5,289.5z"/>
		
			<ellipse transform="matrix(0.9508 -0.3098 0.3098 0.9508 -71.0911 123.7783)" class="st73" cx="354.1" cy="285.7" rx="0.5" ry="0.7"/>
		
			<ellipse transform="matrix(0.9507 -0.3102 0.3102 0.9507 -72.3507 124.6042)" class="st73" cx="355.6" cy="289.8" rx="0.5" ry="0.7"/>
		<path class="st72" d="M346.6,284.4c0,0,1.6,1.8,0.3,7.2c0,0-1.1,4.6-1.2,6c-0.2,1.5-0.4,3-0.8,4.4c0,0-2.2,2.2-7.6-0.7
			c0,0,5.4,1.7,7.1,0.3c0,0,0.4-2,0.7-3.7s1.1-6,1.4-7.5S347.2,285.4,346.6,284.4z"/>
		<path class="st63" d="M339,274.3c0,0,8.7,2.9,9.6,13.9c0,0,0.3,8.5-3.2,11.2l-0.4,2.5c0,0,4.4-0.9,5.7-7.4s0-14.8-7.1-21.6
			C343.5,273,341.3,271.6,339,274.3z"/>
		<path class="st63" d="M360.4,273.2c0,0,2.7,2.6,2.6,12.3c0,0,0.1,6,2,8.2c0,0,0.1-13.9-0.4-17.1c-0.6-3.4-1.6-4.7-3.3-6
			C361.3,270.5,360.8,272,360.4,273.2z"/>
		<path class="st9" d="M348.3,266.5c0-0.4-0.2-0.7-0.6-0.9c-0.6-0.3-1.3-0.4-1.1,1.3s0.8,2.7,1.4,2.8s0.9-0.9,0.2-1.4
			s-0.3-1.1,0-1.1s-1-0.7-0.9,0.2s0.3,1.4,0.3,1.4c-0.5-0.7-0.7-1.7-0.5-2.6C347.3,265,347.7,266.9,348.3,266.5z"/>
		<path class="st66" d="M357.6,328.6c0.9-0.5,1.8-1,2.7-1.6c-1.1,1.3-2.3,2.6-3.7,3.6L357.6,328.6z"/>
		<path class="st74" d="M341.3,276.4c0,0,2.6-1.5,6.6,7c0,0,4.1,10.3-2.5,16.1c0,0,6.7-8.5,0.7-18.2
			C346.1,281.3,344.6,277.5,341.3,276.4z"/>
		<path class="st74" d="M335,275.4c0,0,2.3,1.7,4.1,0.4s7-4.6,7.8-4.6c0,0-2-0.3-7.9,4C339,275.3,337.4,276.4,335,275.4z"/>
		<path class="st74" d="M360.4,273.2c0,0,2,1.3,2.3,5.2s0.5,10.5,1,11.9s1.3,3.4,1.3,3.4s-2.2-1.6-2.6-10.2s-0.8-8.5-2.2-9.8
			L360.4,273.2z"/>
		<path class="st74" d="M336,279.4c-0.5,1.6-0.6,3.3-0.4,5c0.5,2.2,0.1,4.5-0.9,6.5c-1.2,2.7,0.4,9.1,0.4,9.1s-2.1-6.1-0.7-10.5
			s0.3-4.5,0.3-5.9S335.1,279,336,279.4z"/>
		<path class="st72" d="M343.8,319c0,0,4.3,4.1,14.1-0.1c0,0,5-2.1,6.2-5.2l0.8-20l-1.2,20c0,0-2.6,4.5-9.6,5.9
			c0,0-7.7,1.4-10.5-1.5L343.8,319z"/>
		<path class="st9" d="M336.9,300.9c1.9,1.2,4.1,1.8,6.3,1.7l-0.1,3.7c0,0-0.4-2.3-2.3-2.7s-2.8-0.6-3.4,0.1s-0.6,2.2-0.5,3.8
			C336.5,305.3,336.5,303.1,336.9,300.9z"/>
		<path class="st9" d="M367.3,289.6c-0.4,1-1.4,1.7-2.5,1.5c0,0,0.1,7.2-0.2,9.3l-0.5,13.4l1.6-20.9c0.7-0.5,1.2-1.3,1.5-2.1v-1.2
			L367.3,289.6z"/>
		<path class="st9" d="M340,379.3c1.4,1.3,3.3,1.8,5.2,1.5c0.7-0.2,1.3-0.6,1.7-1.2l0.7,0.9c-0.7,0.2-1.3,0.6-1.9,1
			c-1.1,0.8-5,0.4-5.7-0.8C339.8,380.2,339.8,379.7,340,379.3z"/>
		<path class="st9" d="M352.8,372.2c0,0,1.3,2.4,5.2,2c0,0,1.9,0,2.5-1.2c0,0,0.7,1.7-2.6,2c-1.7,0.3-3.5-0.1-5-1.1
			C352.9,373.9,352.4,372.8,352.8,372.2z"/>
		<polygon class="st69" points="363.6,266.7 361.9,266.1 361.8,266.5 363.7,267.1 		"/>
		<path class="st75" d="M66,216.4c0,0,3.8,1.9,5.9,3.3c0,0,1.3,0.6,1,1.7c0,0-0.3,2.1-3.2,1.7c-1.3-0.2-3.3-0.1-7.8-3.4
			c-0.9-0.5-1.5-1.4-1.6-2.4C60.3,215.7,64.1,215.5,66,216.4"/>
		<path class="st76" d="M61.6,219.5c0,0,4.4,4,9.2,3.7c0,0-6.4-1.4-7.5-3.6c-0.8-1.2,0.2-1.6,0.2-1.6l-1-0.9l-0.7-0.2l-0.5,0.2
			C61.3,217.9,61.4,218.7,61.6,219.5z"/>
		<path class="st75" d="M56.8,217.1l-0.1,0.7c0,0-0.8,7.2,0.1,9c0.5,1.1,1.7,1.8,2.9,1.7c0.8,0,3.1-1.4,2.5-6
			c-0.2-1.9-0.5-3.8-0.9-5.6L56.8,217.1z"/>
		<path class="st76" d="M56.7,218c1.6,0.6,3.3,0.4,4.7-0.5l0.3,1.2c0,0-0.3,2.3-5.1,0.6L56.7,218z"/>
		<path class="st77" d="M57.8,217.9c-0.2,1.3-0.2,2.7,0,4c0.3,1,1.7,2.5,2.7,0.4c0.8-1.7-0.2-5.3-0.2-5.3L57.8,217.9z"/>
		<path class="st77" d="M65.2,215.3c0,0,0.3,0.9,2.2,1.9c1.2,0.6,2,1.3,2,2.1s-3.6,1-7-2.4L65.2,215.3z"/>
		<path class="st78" d="M61.5,216.9c0,0,2.8,1.2,3.7-1.5c0,0,0.3-14.1,2.5-24.3s4.6-25.9,4.4-27.4L60.6,168L61.5,216.9z"/>
		<path class="st77" d="M78.2,146.8c0.4,0.4,0.9,0.7,1.5,0.8c1.2,0.1,2.2,0.7,3,1.6c0.9,1,1.1,1.7,2,2.2s0.7,0.9,0.3,1.3
			s-2.1,0.1-2.7-1.4c0.2,0.9,0.6,1.7,1.1,2.4c0.7,0.8,1.7,2.4,1.2,3.4s-2.1,1.1-3.9,0.5s-4.5-1.9-5.3-5.9c0-0.7-0.3-1.4-0.8-2
			C74.6,149.7,74.7,147,78.2,146.8z"/>
		<path class="st78" d="M47.9,167.4c0,0,3.5,25,7.9,48.2c0,0,0.1,2.6,2,2.8c2.6,0.3,4.4-1.2,4.2-2.6c0,0-0.4-35.7,1.2-46.7
			C63.3,169.1,56.3,159.9,47.9,167.4z"/>
		<path class="st79" d="M49.7,132.2L47,158.9c-0.9,0.1-1.6,1-1.6,1.9c0,0,3.2-26,2.4-30.7L49.7,132.2z"/>
		<path class="st80" d="M78.3,146.1c0,0-3.3-8.4-4.1-10.2s-0.7-8.2-0.7-8.2c-1-15.9-6.1-15.9-6.1-15.9c-0.5,2.5-3.6,4.9-3.6,4.9
			c4.4,7.3,1,9.8,1,9.8c0.5,1.7-0.3,6.4-0.3,6.4c-0.7-3.9-2.1-5.1-2.1-5.1c-3.1,0-4.9-3.7-4.9-3.7c-2.7-5.1-5.1-6.1-5.1-6.1
			c-1.8,0.5-3.5,1.3-4.9,2.5c-4.9,5-6.5,20.9-6.4,24.2s4.3,10.3,4.3,10.3c-0.6,2.1-0.6,4.3-0.1,6.4l11.2,9.6
			c6.3,0.9,12.7-1.5,16.8-6.4l0.3-3.4c0.1-1.8,0-3.6-0.4-5.3c-0.6-2.9-3-12.9-3-12.9l4.3,7.2c0.7-3.1,4.1-3.2,4.1-3.2
			C78.5,146.7,78.4,146.4,78.3,146.1z M50,144.8l-1.1,3.1l-1.3-5.4c0.5-1.9,1.1-3.7,1.8-5.5C50.3,139.5,50.5,142.2,50,144.8z"/>
		<path class="st77" d="M55.2,113.3c0,0,0.6,2.7-2.4,4.8c1.9,1.9,3.6,4.1,5,6.4c2.8,4.4,4.7,3.3,4.7,3.3l2.1,5.1l0.5-6.4
			c0,0,3-2.3-1.3-9.8C60.6,116.9,57.4,115.6,55.2,113.3z"/>
		<path class="st77" d="M53,110.4c0,0-2,5.3,2.2,3.1c0,0,4,5.3,9.4,3.1c0,0,2.6-1.1,3.3-7.6c0,0,1.4-8.6-0.6-10.5
			c0,0-10.9-7-13.9-0.3C51.5,102,51.3,106.5,53,110.4z"/>
		<path class="st29" d="M54.6,93c0,0-7,0.7-7,10.9c-0.1,1.8-0.5,3.6-1.1,5.3c-0.9,2.4-0.7,7.8,7.6,7.8c1.1-0.9,1.5-2.4,1.1-3.7
			c0,0-1.7,0.7-1.7-1.7c1.2-0.8,2.3-1.8,3.2-2.9c0.6-0.3,1.6-0.6,2.4-4c0,0,6.2,0.9,8.3-4.1c0.3,1.9,0.5,3.8,0.4,5.7
			c0,0.3-0.6,1.6-0.6,2c-0.1,1.2,0.5,2.1,0.2,3.3c0,0,2,1,2.2-5.1s-1.6-7.4-3.5-10C66.1,96.2,60.7,89.7,54.6,93z"/>
		<path class="st81" d="M55.9,138.9c0,0,4.5,0.5,7.1-1.7C62.8,137.4,61.2,140.4,55.9,138.9z"/>
		<path class="st82" d="M65.1,126.6c1.5-4-1.6-8.7-1.6-8.7c-1.3,0-2.4-0.1-2.4-0.1c-1.2-0.2-2.3-0.6-3.3-1.3c-2.5-1.7-2.4-3-2.4-3.8
			c0,0,2.5,4,6.2,4.3c0.8,0.1,1.5,0.1,2.3,0C63.9,116.9,68.1,123.4,65.1,126.6"/>
		<path class="st82" d="M67.9,106.4c0,0-4.7,3.7-8,2.6c0,0,1,1.8,5.1-0.3l2.6-1.6L67.9,106.4z"/>
		<path class="st78" d="M49.4,144.3c0.5,0.9,1.1,1.7,1.8,2.4c1.4,1.5,6,2.4,8.9,1.5c-0.7-2.5-1-5.2-0.9-7.8c0.1-1.8,0.2-3.5,0.2-4.8
			c0.3-3.1,0-6.2-1-9.2c0,0-0.6,0-2.5-3.5c-2-3.7-2.9-4.6-4.2-4.9c0,0-2.3,0.5-2.9,1.5c0,0,4.5,1.9,4.4,8.9
			c-0.1,7.3-3.7,9.3-3.7,9.3c0,0.8,0.1,1.7,0.3,2.5C50.3,141.9,49.4,141.9,49.4,144.3z"/>
		<path class="st79" d="M47.6,120.4c0,0,4.2-0.8,5.7,10.4l1.6,27.4l0.7,4.5l1.1,0.8c0,0-1-9.6-1.2-16.2s-0.8-18.8-1.5-21.1
			s-1.6-5.4-5.1-6.8c-0.6-0.1-1.1,0.2-1.3,0.8C47.6,120.3,47.6,120.3,47.6,120.4z"/>
		<path class="st81" d="M51.6,127.5c0.1,3.3-0.6,6.6-2.2,9.6C49.4,137.1,53.5,131.2,51.6,127.5z"/>
		<path class="st81" d="M51.3,132.5c0.7-0.5,1.2-1.3,1.3-2.2c0.2,1.2-0.4,2.5-1.5,3.1L51.3,132.5z"/>
		<path class="st78" d="M65,116.4c0,0,3.7,5.1,2.9,19.1c0,0,0,4.3-0.3,7c-0.2,1.7-0.1,3.4,0.2,5c1.3-0.2,2.5-0.9,3.3-2
			c0.2-0.3,0.4-0.5,0.7-0.7c0,0-0.6-11.6-0.3-12.6c0.6-1.2,0.9-2.5,0.9-3.9c-0.2-1.7-2.3-4.5-3.3-7.4s-2.6-6.5-2.6-6.5
			C66.2,115.2,65.7,115.9,65,116.4z"/>
		<path class="st29" d="M58.5,106.6c0,0-1.7,5.1-4.9,5L58.5,106.6z"/>
		<path class="st83" d="M71.5,132.3c-0.7,1.1-1.6,2-2.6,2.7c1-0.4,1.9-1,2.6-1.8V132.3z"/>
		<polygon class="st81" points="62.2,127.9 64.6,132.9 65.4,126.3 65.1,126.5 64.5,131.9 62.5,127.8 		"/>
		<path class="st79" d="M45.6,155.1l1.1,1.5l-0.1,2.2c0,0-1.2,0.4-1.2,1.2C45.3,158.4,45.4,156.7,45.6,155.1z"/>
		<path class="st81" d="M48.8,148l2.8,6.7l1.3,1.8c-1,1.5-2.6,2.6-4.4,3c0,0-2.2-3.4-3-4.6l3.1,4c1.4-0.3,2.7-1.1,3.6-2.3l-1-1.7
			c-1.2,1-2.6,1.7-4.1,1.9c1.3-0.6,2.7-1.3,3.9-2.1C51.1,154.6,49,150.1,48.8,148z"/>
		<path class="st79" d="M45.3,161.3c0,0-0.1,6.6,0.9,8.5c0,0,1.2,1.9,6.7,3.9c1,0.5,2,0.7,3.1,0.7c1-0.1,1.8-0.8,2.1-1.8
			c0,0,0-6.2-0.3-6.9c0,0-0.3-0.9-2-1.2S45.1,158.5,45.3,161.3z"/>
		<path class="st84" d="M47,158.7c0,0-1.6-0.1-1.7,2.1c0,1.5,0.2,2.9,0.7,4.3c0,0,2.6,2.8,4.6,3.6s4.3,1.2,5.2,0.5
			c0.2-0.4,0.2-0.9,0.2-1.4c0-0.4,0.4-0.8,0.8-0.9c0,0,0.9-0.1,0.9-0.6l0.1-0.7C57.8,165.6,49.1,159.7,47,158.7z"/>
		<path class="st85" d="M45.6,161.1c0,0,9.1,5.8,10.3,6.2C56,167.2,49.7,164.6,45.6,161.1z"/>
		
			<ellipse transform="matrix(0.9328 -0.3603 0.3603 0.9328 -56.5333 29.2495)" class="st86" cx="50.2" cy="166.3" rx="0.6" ry="0.8"/>
		<path class="st85" d="M45.3,164.4c2.4,3.2,6.3,5.1,10.3,5c0,0-0.1-2,1.2-2.5c-0.7,0.7-1.1,1.7-0.9,2.7
			C51.7,169.9,47.6,167.9,45.3,164.4z"/>
		<path class="st78" d="M63.5,170.5c0,0-0.1,16.8-1.2,24.1c0,0,0.1,4.1,0.1,7.2s-0.4,15-0.4,15l-0.3,0.5c0,0,0.4-13.1,0.1-15.6
			c-0.2-2.4-0.2-4.9-0.1-7.3c0.1-1.1,0.9-22.2,1.1-23.7L63.5,170.5z"/>
		<path class="st81" d="M77.4,144.8c-1.9,0.1-3.5,1.4-3.9,3.3c-0.1-1.8,1.3-3.3,3.1-3.4C76.9,144.7,77.1,144.7,77.4,144.8z"/>
		<path class="st77" d="M52.7,156.8c0.4,0.5,1.1,0.8,1.7,0.8c0.9,0,1.8,0.9,2.5,2s1.2,1.3,1.3,1.7s-0.2,0.9-1.3,0.5
			c-0.7-0.2-1.3-0.5-1.9-0.9c0.6,0.6,1.1,1.3,1.5,2.1c0.5,1.2,1.7,1.1,2.1,2c0.2,0.5-0.1,1.1-0.6,1.3c-0.1,0-0.3,0.1-0.5,0
			c-0.8,0.4-1.8,0.5-2.7,0.4c0,0-3.1-0.7-4.7-4.9c-0.2-0.9-0.5-1.8-0.9-2.6C50.6,158.8,51.8,157.9,52.7,156.8z"/>
		<path class="st87" d="M71.9,166c0,0-3.8,4.8-13.8,4.9v1.7c4.9-0.3,9.7-2,13.6-5L71.9,166z"/>
		<path class="st82" d="M65.4,109c0,0,0.7,2.8,0.1,4.4c-0.2,0.4-0.7,0.7-1.2,0.6c0,0,1-0.3,1.1-2.1c0-0.9-0.1-1.8-0.4-2.7L65.4,109z
			"/>
		<path class="st88" d="M53.5,111.6c0,0,0,2.3,1.8,1.7c0,0,0.5,2.4-1.1,3.7c-1.2,0.1-2.4,0-3.6-0.4c0,0,4.3,0.7,4.1-1.8l-0.1-0.9
			C54.6,113.9,53.3,113.8,53.5,111.6z"/>
		<circle class="st89" cx="54.6" cy="113" r="0.5"/>
		<path class="st89" d="M55.1,114.3c0,0.3-0.2,0.5-0.5,0.5s-0.5-0.2-0.5-0.5c0-0.3,0.2-0.9,0.5-0.9S55.1,114.1,55.1,114.3z"/>
		<path class="st82" d="M55.3,113.3c0,0,0.9,2.5-2.4,4.8c1.3,1.3,2.4,2.7,3.5,4.2c0,0-2.2-3.3-1.3-4.4c0.6-0.9,1.1-1.9,1.3-2.9
			L55.3,113.3z"/>
		<path class="st82" d="M56.4,122.3c0,0,3.5,6.3,6.1,5.4l2,4.1l0.6-5.3l-0.8,3.7c-0.1-1.3-0.5-2.5-1-3.7l0.3,3l-1.1-2.2
			c0,0-2.6,0.9-7.2-6.8L56.4,122.3z"/>
		<polygon class="st82" points="63.2,117.4 62.9,119.9 63.6,118.9 63.5,117.3 		"/>
		<path class="st89" d="M54.1,117c0,0,3.8,6,8.5,6c0,0,2.2,0.1,0.9-4.6c0,0,2.2,4.4-0.4,5.1C63.1,123.6,58.7,125.1,54.1,117z"/>
		<path class="st89" d="M62.4,123.6c0,0,1.2,1.2,1.3-0.4L62.4,123.6z"/>
		<polygon class="st81" points="62.2,138.2 59.1,141.3 59.3,139.2 		"/>
		<path class="st81" d="M50.2,135.6l0.2,1.4l-0.8,0.6l-0.2-0.6C49.8,136.6,50,136.1,50.2,135.6z"/>
		<path class="st81" d="M41.2,145.2c0,0,2.6,8.1,5.8,11.9l2.3-0.9l-2,0.5C44.8,153.1,42.7,149.3,41.2,145.2z"/>
		<path class="st81" d="M47.5,142.8c-0.3-1-1.1-1.8-2.1-2.1C45.4,140.7,48.1,140.3,47.5,142.8z"/>
		<path class="st81" d="M65.8,134.7l-2.4,5.7C64.7,138.7,65.5,136.8,65.8,134.7z"/>
		
			<ellipse transform="matrix(0.8333 -0.5528 0.5528 0.8333 -60.8974 55.8389)" class="st78" cx="62.1" cy="128.9" rx="0.6" ry="0.3"/>
		<ellipse transform="matrix(0.8298 -0.558 0.558 0.8298 -63.4402 58.8839)" class="st78" cx="64.8" cy="133.5" rx="0.6" ry="0.3"/>
		<path class="st87" d="M63.5,170.5c0,0-0.7,18.1-1.4,24.8c0,0-0.2,20.1-0.4,21.1c0,0-1.8,3.2-5.4,0.7c0.5,1.2,1.8,1.8,3,1.4
			c1.2,0,2.3-0.6,2.8-1.7l0.4-21.8l3.2-25L63.5,170.5z"/>
		<path class="st82" d="M54.9,160.3c0,0-0.1,0.2,0.4,0.8s1.1,2.1,1.6,2.7s2.1,0.5,1.7,1.8c0,0,0.4-0.6-1.6-1.4
			C55.7,163.4,55.4,161.4,54.9,160.3z"/>
		<path class="st82" d="M82.3,151.3c-0.2-0.7-1-1-1.7-0.8c0,0-0.1,0-0.1,0.1c-0.9,0.3-1.8,0.2-2.6-0.3c0,0,0.4,1.2,2.4,0.9
			C80.9,150.7,81.7,150.8,82.3,151.3z"/>
		<path class="st82" d="M78.2,146.8c0,0-2.9,0.6-3.6,3c0.4,0.6,0.7,1.3,0.8,2c0.3,1.4,1.4,4.5,4.5,5.6c-2.2-1.3-3.7-3.5-4.1-6.1
			c-0.7-4.3,3.6-3.7,3.6-3.7L78.2,146.8z"/>
		<path class="st82" d="M81.7,153.1l-2.8,2C79.5,154,80.5,153.3,81.7,153.1z"/>
		<polygon class="st83" points="59.3,139.2 55.7,140.6 56.5,141.7 56.5,143 59.1,141.3 		"/>
		<path class="st82" d="M57.7,219.6c1,0.3,2.1,0.3,3.1,0l-0.2-1.5c0,0-0.7,0.5-2.8,0.3L57.7,219.6z"/>
		<path class="st82" d="M52.7,156.8c-0.8,1.2-2.1,2.1-3.5,2.4c0.3,0.8,0.6,1.7,0.9,2.6c0.5,1.4,1.3,2.6,2.4,3.5c0,0-2.6-3.4-2-4.9
			c0.6-1.2,1.7-1.9,3-2c0.6,0,1.2-0.1,1.8-0.2C54.5,157.7,53.6,157.2,52.7,156.8z"/>
		<path class="st82" d="M62.5,217.2l1,0.9c0,0,3-0.5,1.7-2.7C64.7,216.5,63.7,217.2,62.5,217.2z"/>
		<path class="st77" d="M401.6,85.4l0.5,10.8c3.4,0,2.6-5.1,2.6-5.1s-0.2,1.4,1.6,1.3s0.9-0.9,0.9-0.9c-0.6-1.2-0.7-3.3-1-4.6
			c-0.3-1-0.7-2-1.2-3C404,84.6,402.8,85.1,401.6,85.4z"/>
		<path class="st90" d="M401.2,56c0.1,1.7-0.1,3.3,0,5s0.2,3.3,0.3,5s0.2,3.2,0.3,4.9c0.2,1.7,0.3,3.3,0.3,5l0.3,5
			c0.1,1.7,0.2,3.3,0.2,5c-0.3-1.7-0.4-3.3-0.6-5l-0.5-5c-0.2-1.7-0.3-3.3-0.4-5s-0.3-3.3-0.4-5s-0.2-3.3-0.2-5s0.2-3.3,0.2-5
			s0-3.3,0-5s-0.1-3.3-0.1-5C401.1,49.2,401.3,52.6,401.2,56z"/>
		<path class="st90" d="M402.4,50.6c0,1,0,2-0.2,3c-0.1,0.5-0.2,1-0.3,1.5c-0.2,0.5-0.5,0.9-0.8,1.3H401c-0.1-0.5-0.1-1.1,0-1.6
			c0.1-0.4,0.3-1,0.4-1.4L402.4,50.6z"/>
		<path class="st90" d="M402.3,81.8l-0.1-0.4c2.2-0.5,2.8-1.5,2.8-1.5C404.6,81,403.5,81.8,402.3,81.8z"/>
		<path class="st82" d="M407.3,91.8c0.1,0.3-0.5,0.5-0.5,0.5c-0.7,0.2-1.4,0.1-2-0.3c-0.3-0.3-0.6-0.7-0.8-1.1
			c-0.2-0.6-0.2-1.3,0.1-1.9c0,0.3,0,0.7,0.1,1c0.1,0.4,0.3,0.8,0.5,1.2c1.2,1.9,2.4,0.4,2.4,0.4L407.3,91.8z"/>
		<path class="st82" d="M404.1,89.5c-1,0.1-1.3-0.3-1.3-0.3v-0.9c0.2,0.7,1.3,0.6,1.3,0.6V89.5z"/>
		<path class="st91" d="M374.8,148c0,0-1.1,2.1-0.8,3s8.4,9.4,10.8,8.6s2.8-1.6,2.5-2.5s-5.3-7.8-5.3-7.8
			C378.5,151.9,374.8,148,374.8,148z"/>
		<path class="st92" d="M383,150.8c0,0-4.4,2.8-8.6-1.6l0.4-1.2c0,0,4.7,3.2,7.2,1.3L383,150.8z"/>
		<path class="st91" d="M388.5,141.6c0,0-1,2.4-0.7,3s8.5,8.4,10.3,8.3c1.4-0.1,2.6-1.2,2.9-2.6c0-0.9-5.2-6.8-5.2-6.8L388.5,141.6z
			"/>
		<path class="st92" d="M396.3,144.2c0,0-4.9,2.2-8.1-0.7l0.4-1.9c1.9,1.6,4.5,2.1,6.9,1.3L396.3,144.2z"/>
		<path class="st93" d="M397.2,85.5c-4.4,2.9-19.4,5.9-19.4,5.9c-0.3,3.1,0.3,36,0.3,36c0.7,5.2-3.5,18.9-3.5,18.9s-0.9,3,3.3,4.1
			s4.8-1.9,4.8-1.9s4.8-17.7,5.5-20.3s1.6-20.3,1.6-20.3c1.6,5.4,2.4,11.2,2.2,14.5s-4.4,18.3-4.4,18.3c1.2,3.9,5.7,3.5,7.1,3
			c1-0.3,1.7-1.3,1.5-2.4c0.6-2.6,5.2-17.8,5.2-19.8s-0.8-24.4-0.8-24.4C400.6,87.3,397.2,85.5,397.2,85.5z"/>
		<path class="st94" d="M383.1,44.5l-0.4,1.4c0.6,3.8,4.1,10,5,13.2s-0.3,12,0.3,17.1c0.3,3.7,0.1,7.5-0.6,11.2
			c4.5,0.2,9.8-3.8,9.8-3.8s0.3-3.2,0.3-5.1s-0.3-16.7,0-23.5s-2.3-9.8-2.3-9.8L383.1,44.5z"/>
		<path class="st95" d="M392.7,49.5l-1.7,2.1l1.5,2.1c0.5,0.4,1.1,0.3,1.5-0.2c0,0,0.1-0.1,0.1-0.1c0.7-1,1.3-2.7,1.1-2.9
			C394.4,50,393.6,49.7,392.7,49.5z"/>
		<path class="st95" d="M392.8,53.5c0,0-2.2,19-2.3,19.3c1,1.4,2,2.8,3.2,4.1c1-1.8,1.9-3.7,2.7-5.7c0.2-2.6-2.4-18.1-2.4-18.1
			L392.8,53.5z"/>
		<path class="st96" d="M383.5,42c-1.9,0.8-2.4,3.8-2.4,3.8s-5.8,4-7.4,6.3s-1,4.3-1.3,7.8s-2.4,12.5-2.3,17.2s2.9,14,2.9,14
			c-0.6,1.6-1.1,3.2-1.3,4.9c3.4,4,9.5,3.9,9.5,3.9c2.3,0.5,4.7,0.2,6.8-0.9c-0.2-1.9-0.1-3.8,0.1-5.7c0.4-2.5-0.6-5.8,0-9.9
			s0-11.5,0.3-18.6s-2.7-12.1-4.6-16s-0.3-5.1-0.3-5.1V42z"/>
		<path class="st96" d="M395.1,44.9c2.3,2.7,2.5,12,2.2,15.6s0,8.4,0,13.5s0.3,16.5,0.4,19s-0.6,5.2,0.1,5.6s1.5-0.4,2.9-1.3
			c0.9-0.7,1.7-1.6,2.2-2.7c0.2-2.6-0.3-9.1-0.3-9.1c0.6-0.2,2.3-1.1,2.4-1.6c0.1-1,0.2-2.1,0.1-3.1c0-0.9-0.3-1.6-0.4-3.5
			s-0.8-14.6-0.9-17.5s-0.1-15.3-0.1-15.3c-0.1-3-2.6-5.3-5.6-5.2c-0.1,0-0.2,0-0.3,0C396.8,41.1,395.9,43,395.1,44.9z"/>
		<path class="st97" d="M390.7,53.4c-3.1-2.1-5.8-4.6-8-7.6c0.1-1.7,0.7-2,0.7-2c2.7,2.5,5.9,4.4,9.4,5.7
			C391.9,50.7,391.2,52,390.7,53.4z"/>
		<path class="st97" d="M395.3,45.2c1,1.9,1.4,4.1,1.1,6.2c-1.3-0.4-2.5-1-3.6-1.7c0.7-0.9,1.1-2,1.1-3.2
			C394.4,46.1,394.9,45.7,395.3,45.2z"/>
		<path class="st77" d="M375.3,97.9c-0.8,1.2-1,5.5-0.6,7.1c0.5,1.7,1.5,3.1,3,4c1.7,1.2,2.3,0.2,2.4-0.3s-0.6-3-0.7-3.6
			c-0.2-0.9-0.7-3.5,0.3-3.4s0.4,2,0.6,3s1.4,0.7,1.6,0.3s0.1-0.9,0.4-1.7s-0.5-3.1-0.5-3.1c-0.8-2.6-1.5-3.2-1.5-3.2
			C379.1,98.6,376.9,98.9,375.3,97.9z"/>
		<path class="st98" d="M381.9,62.1c-0.2,0.8-0.3,1.6-0.5,2.4c-0.7,3-1.4,6.1-2,9.2c-0.2,0.8-0.3,1.5-0.3,2.3c0,0.8,0,1.6,0,2.4
			l0.2,4.8c0.2,3.1,0.3,6.4,0.5,9.5v-0.1c0.3,1.4,0.5,2.9,0.5,4.4v0.1l0,0c-0.3,0.6-1,1.1-1.7,1.2c-0.6,0.2-1.3,0.3-1.9,0.3
			c-0.6,0-1.3-0.2-1.8-0.6c-0.5-0.4-0.9-1-1-1.7l0,0c-0.4-2.2-0.9-4.4-1.3-6.5c0.6,2.2,1.1,4.3,1.7,6.4l0,0c0.2,0.6,0.5,1,1,1.4
			c0.5,0.3,1,0.4,1.6,0.4c0.6,0,1.2-0.1,1.7-0.3c0.3-0.1,0.5-0.2,0.8-0.3c0.2-0.1,0.4-0.3,0.5-0.5V97c-0.1-1.4-0.3-2.8-0.6-4.2l0,0
			c-0.3-3.1-0.4-6.4-0.6-9.5c-0.1-1.6-0.2-3.2-0.2-4.8v-2.4c0.1-0.9,0.2-1.7,0.3-2.4c0.4-3.2,1.1-6.3,1.9-9.4c1-3.5,1.7-6,1-9.2
			C383,57.8,382,61.4,381.9,62.1z"/>
		<path class="st98" d="M378.6,93.9c-0.5,0.3-1,0.5-1.6,0.6c-0.6,0.1-1.2,0.1-1.7-0.1c-0.5-0.2-1-0.5-1.5-0.8c0.5,0,1,0.1,1.6,0.1
			c0.5,0,1,0,1.5-0.1c0.5-0.1,0.9-0.2,1.4-0.3c0.5-0.2,1-0.4,1.5-0.6C379.5,93.2,379.1,93.6,378.6,93.9z"/>
		<path class="st99" d="M397.5,87c-3,2.9-9.3,3.7-9.3,3.7l-0.3-3.8c6.3-0.9,9.3-4,9.3-4L397.5,87z"/>
		<path class="st100" d="M390.9,86.2l0.1,4.2c1.5-0.4,2.9-1,4.2-1.7c0.7-2.9-0.1-4.3-0.1-4.3C393.8,85.2,392.4,85.8,390.9,86.2z"/>
		<path class="st101" d="M393.5,99.2c-3.9,2.9-3.7,9.4-3.7,9.4v-2c-0.1-2.2,0.4-4.4,1.5-6.3l-2.6,0.7l4.2-2.8l1.7-7.2L393.5,99.2z"
			/>
		<ellipse class="st102" cx="393.6" cy="79.8" rx="0.5" ry="0.7"/>
		<path class="st98" d="M387.3,81.5c-0.1-1.1-0.2-2.3-0.3-3.3s-0.3-2.2-0.5-3.2c-0.4-2.2-1-4.3-1.6-6.4l-0.8-1.5l-0.1-0.4l-0.1-0.2
			v-0.3l0.3-0.9c0.3-1,0.7-2.1,1-3.1l0.3,0.5c-0.4-0.1-0.8-0.2-1.2-0.3c-0.2,0-0.4-0.2-0.6-0.3c-0.2-0.2-0.4-0.4-0.5-0.6
			c-0.1-0.4-0.2-0.9-0.1-1.3l0.1-1.1c0.1-1.5,0-3-0.5-4.4c-0.5-1.4-1.1-2.9-1.5-4.4c-0.3-1.5-0.4-3.1-0.2-4.6
			c-0.1,1.5,0.1,3,0.5,4.5c0.5,1.5,1,2.9,1.7,4.3c0.6,1.5,0.8,3,0.8,4.6v1.1c0,0.3,0,0.7,0.1,1c0.1,0.1,0.2,0.1,0.3,0.2
			c0.1,0.1,0.3,0.1,0.4,0.2c0.3,0.1,0.7,0.2,1,0.2h0.5l-0.2,0.5c-0.3,1-0.6,2.1-1,3.1c-0.1,0.2-0.1,0.5-0.2,0.7l0.2,0.6l0.4,1.6
			c0.6,2.1,1.1,4.3,1.5,6.4c0.2,1.1,0.3,2.2,0.3,3.3c0.1,1.1,0.1,2.2,0.2,3.3c0.1,2.2,0.2,4.4,0.3,6.5
			C387.6,85.7,387.4,83.6,387.3,81.5z"/>
		<path class="st77" d="M394.1,46.4c0.4-0.2,3.6-3.4,3.8-7.1c0.1-1,0-2-0.2-3c-0.1-0.5-0.1-1,0.1-1.5c0.1-0.5,0.2-0.9,0.1-1.4
			c0,0,0.3-3.5-0.7-4.4s-6.8-8.8-13.1-5.1c-1,0.9-1.5,2.3-1.3,3.7c0.1,0.3-0.2,7.6-0.2,7.6s-1.8-0.6-1.9,1.6s0.4,4.2,1,4.6
			s1.2,0.8,1.7,0.6l-0.2,1.9c2.6,2.6,5.8,4.5,9.3,5.7C393.4,48.8,394,47.6,394.1,46.4z"/>
		<path class="st29" d="M386.7,27.3c2.9,1.9,6.3,2.6,9.7,2.1c1.4,0,5-2.2,2.3-6.4c0,0-1.8-2.8-5.2-0.7c-1.6-0.6-3.5-2.3-5.7-1.7
			s-5.7,2.3-6.1,3.4c-0.2,0.8-0.2,1.6,0,2.4c0,0-1.3,0.4-1.3,2.6s0,6.4,0.4,7.8c0,0,0.5-2.2,2.4-1c0.7,0.8,1,1.8,1,2.8l0.1,1.6
			l1.6,0.7l-0.2-1.7c0-0.5,0.2-1,0.5-1.4c0.7-0.6,1.1-1.5,1.3-2.4c0.4-1.7-2.7-5.1-2.7-5.1C384.8,27.5,386.7,27.3,386.7,27.3z"/>
		<path class="st82" d="M392.9,49.5c0.1-1-0.1-1.7-0.6-2c-1-0.6-2.1-0.5-3.5-1.2c-3.4-1.7-3-3.9-3-3.9c0.6,1.2,1.6,2.3,2.8,3
			c3.6,2,5.4,1,5.4,1C394,47.5,393.6,48.6,392.9,49.5z"/>
		<path class="st82" d="M397.5,35.5c-1.9,1.5-4.1,2.6-6.5,3c-2.7,0.5-3-1-3-1s0.5,0.5,3,0.3c1.4-0.3,2.7-0.8,4-1.5
			c1.1-0.3,2.2-1,3-1.8C397.7,34.8,397.5,35.1,397.5,35.5z"/>
		<path class="st82" d="M383.4,43.8c1.2,1.1,2.4,2.1,3.7,3c-2.3-1.9-2.1-5.8-2.1-5.8c-0.3,0.1-0.5,0.6-0.7,0.7
			c-0.2,0.2-0.4,0.3-0.7,0.3L383.4,43.8z"/>
		<path class="st82" d="M383.3,38.3c0.3,0.6-0.4,0.8-0.7,0.6s-0.1-2.2-0.4-1.5s0.2,2.3,0.7,2.4s-0.1-0.8,0.5-0.7s0.6,0.8,0.6,0.8
			c0,0.5-0.5,0.9-1,0.9c-0.2,0-0.4-0.1-0.6-0.3c-0.7-0.6-1.2-3.7-0.3-4.1s1.7,1.1,1.7,1.1C383.4,37.5,383.1,37.7,383.3,38.3z"/>
		<path class="st98" d="M397.5,93.7c0,0-0.1-4.4,0-5.3c0.3-3.4,1.1-11.5,1.7-14.6c0.8-4.1-0.2-8.6-0.5-10.6s1.5-2.3,1.6-3.9
			s-1.4-6.1-1.4-6.1c-0.3-7.9-2.4-9.9-2.4-9.9l-1.4,2l1.4,3.5c1,4.4,0.4,11.5,0.3,15.2c-0.2,2.6-0.1,21.3,0.5,28.6L397.5,93.7z"/>
		<path class="st98" d="M383.5,42l-0.2,1.8c0,0-1.2,1.8,0.6,5.2c2.5,4.1,4,8.7,4.5,13.5c0.4,5.4-0.7,23.2-0.4,25.1
			c0,0-0.5-9.7-1.4-13.1s-2.5-8.2-2.1-8.9c0.4-1.1,0.7-2.2,0.9-3.3c0,0-1.6-0.5-1.8-1.2s0.3-4.6-0.7-6.7s-3-7.2-1.5-10.2
			C381.6,44.3,382.2,42.6,383.5,42z"/>
		<path class="st98" d="M402.8,46.7c0,0-0.9,3.3-1.2,4.9c0,0,0.7,30.9,1,33.8c0,0-1.6-16.7-1.6-33.2c0.1-1.5,0-2.9-0.1-4.4l0.5,2.3
			C402,49,402.5,47.9,402.8,46.7z"/>
		<path class="st98" d="M381.2,58.1c0,0,0.8,3.5,0.1,5.8l-0.5,1.4C380.7,62.9,380.8,60.5,381.2,58.1z"/>
		<path class="st101" d="M392.9,98.3l4-1.5c-1.4,1.2-2.8,2.2-4.4,3L392.9,98.3z"/>
		<path class="st102" d="M397,83.3c0,0-2.6,2.8-9.1,3.6c0,0,0.7-19.1,0.7-20.6c0.2-4.8-0.8-9.5-2.8-13.8c-3.1-6.2-2.5-5.5-2.7-6.2
			c0,0,3.6,4.9,7.6,7.2l0.6-1.4c0.4,0.7,0.9,1.3,1.5,1.9l-1.2-0.6l-0.8,1.4c-1.7-1.1-3.4-2.3-5-3.6c0,0,3,1.5,3.6,12.2
			c0.5,7.1,0.2,14.2-0.7,21.3c0,0-0.1,0.7-0.3,1.5c6.2-0.5,8.7-3.9,8.7-3.9L397,83.3z"/>
		<path class="st82" d="M395.1,38.1c0,0,1,2.8,0.3,4.1c0,0-0.3,0.4-1.3,0.4s-1.1-0.3-1.1-0.3c0.8,0,1.5-0.3,2.1-0.8V38.1z"/>
		<path class="st102" d="M396.3,47.9c0,0,0.9,1,0.9,8.2l-0.3,26.7l-0.6,0.7c0,0,0.5-20.2,0.2-23.2s-0.3-8.2-0.3-8.2l-1.2-0.8
			l0.1-0.5l1.2,0.6C396.4,51.5,396.8,50.6,396.3,47.9z"/>
		<path class="st82" d="M375.3,97.9c0,0,2.3,1.7,5-1c0,0,0.9,0.6,2,5.1c0,0-1.4-4-2.3-3.2c-1.5,1.1-3.4,1.3-5.1,0.5
			C374.9,98.8,375.1,98.3,375.3,97.9z"/>
		<path class="st82" d="M405.1,83.9c-0.6,0.8-1.4,1.3-2.4,1.6v0.8c1-0.4,2-0.9,2.9-1.4L405.1,83.9z"/>
		<path class="st8" d="M164.9,74.5c-0.9,2.7-1.3,5.6-1,8.4c0,0,0.9,4.1,4.1,4.6c0,0-0.5-6.6,0.5-8.3s-0.5-3.9-0.5-3.9L164.9,74.5z"
			/>
		<path class="st103" d="M164.7,75.3c1,1.1,2.7,1.4,4.1,0.7v0.9l-1.4,1.8c0,0,0.1-1-1.3-1.2c-0.7-0.1-1.3-0.2-2-0.4
			C164.1,77.1,164.5,75.8,164.7,75.3z"/>
		<path class="st103" d="M166.1,78.6c-0.1,1.5-0.2,3-0.1,4.5c0.2,0.9,1.2,0.7,1.3-0.3c0-1,0.1-2,0.4-2.9c0.3-0.4,0.5-0.8,0.6-1.3
			c0,0,0.4,0.4-0.5,1.9l-0.2,2.3c0,0-0.1,1.2-1,1.1s-1-1.3-1-2C165.7,81.5,165.6,78.4,166.1,78.6z"/>
		<path class="st104" d="M179.5,134.6c0,0-3.4,3-4.9,4.6s-0.1,3.6,2.4,2.6c2.9-1.2,5.6-2.7,8.1-4.6l0.3,1c0,0,0.7,0.6,0.9-0.6
			s1-4.9-0.2-5.9C186.1,131.8,183.3,136.1,179.5,134.6z"/>
		<path class="st8" d="M180.9,114.4c0,0,1.2,14.4,0.3,17c-0.6,1.6-1.5,3.1-2.7,4.4c0,0-2.3,2.5,0.7,1.9c2.6-0.6,5-2,6.7-4.1
			c0.8-1.3-0.6-2.7,0.2-6s2.8-8.9,3-13.9L180.9,114.4z"/>
		<path class="st103" d="M181,116.5c0,0,5.2,0.9,7.9-0.9l0.3-2.1l-8.4,0.9L181,116.5z"/>
		<path class="st104" d="M168.8,129.2c-1.8,1.3-3.5,2.9-4.9,4.6c-1.3,1.8-0.1,3.6,2.4,2.6c2.9-1.2,5.6-2.7,8.1-4.6l0.3,1
			c0,0,0.7,0.6,0.9-0.6s1-4.9-0.2-5.9C175.4,126.3,172.6,130.6,168.8,129.2z"/>
		<path class="st8" d="M170.2,109c0,0,1.2,14.4,0.3,17c-0.6,1.6-1.5,3.1-2.7,4.4c0,0-2.3,2.5,0.7,1.9c2.6-0.6,5-2,6.7-4.1
			c0.8-1.2-0.6-2.7,0.2-6s2.8-8.9,3-13.9L170.2,109z"/>
		<path class="st103" d="M170.5,113.4c0,0,2.9,3.2,6.7,2.1l0.4-1.4l-7.3-2.8L170.5,113.4z"/>
		<path class="st105" d="M169.5,75.8c-1.4,1-2.3,2.6-2.5,4.3c-0.3,2.8-1.9,24.2-1.9,24.2c-0.5,1.2-0.4,2.5,0.4,3.5
			c1.2,1.8,11,10.2,23.3,6.5c0,0,6.9-2.2,7.3-7L194,85.1L169.5,75.8z"/>
		<path class="st8" d="M191.1,47.4c0,0-4.2-1.4-6.4,4.9c-1,1.7-1.4,3.6-1.3,5.5c0,0,9.9,1.5,10.6-5.2
			C194,52.7,193.5,48.3,191.1,47.4z"/>
		<polygon class="st106" points="185.3,99.7 184.6,110.1 199.8,101.9 200,91.7 		"/>
		<path class="st103" d="M187.2,53.6l1.1,4.7l0.4-0.1C188.8,58.2,188.5,54.6,187.2,53.6z"/>
		<path class="st107" d="M170.4,29.2c0,0,0.7,4.1,0,6.7s-0.8,4.7,2.2,5.6l1.6,0.2c0,0-1.5-9.8-0.8-13.1
			C173.4,28.7,170.5,26.4,170.4,29.2z"/>
		<path class="st8" d="M189,88.1c-0.9,1.2-1.3,2.7-1.3,4.2c0,1.8-0.2,3.6-0.6,5.3c0,0,0.1,0.7,1.1,0.3s1-1.5,1.1-2.5
			c0-0.5,0.1-1,0.2-1.5c0.2,1.6,0.2,3.2,0,4.8c-0.4,2.2,1.9,1.4,3.1,0.4s2.7-6.2,1.5-9.9C194.1,89,190.6,89.5,189,88.1z"/>
		<path class="st103" d="M188.9,88.3c0,0,3.2,1.6,5.2,0.7c0.3,0.7,0.4,1.5,0.4,2.3c-0.4-0.9-1.4-1.3-2.3-1.1
			c-2.7,0.2-3.6,0.3-3.8,2.3c-0.1,1.7-0.5,3.3-1.2,4.8c0,0,0.5-4.5,0.4-5.4S188,88.7,188.9,88.3z"/>
		<path class="st107" d="M170.4,29.5c-0.6-3.6,1.4-7.1,4.8-8.5c0,0,4-2.2,6.7-1.5s7.4,2.3,8,5.8s-0.8,5.5,1,9.8s4,8.7,0.1,12.4
			c0,0-4-1.4-5.1-2.3c-2.1-1.9-1.6-3.5-1.8-5.4c-1.3-1.4-2.1-3.2-2.2-5.1v-2.8C182.1,31.7,173.5,33.9,170.4,29.5z"/>
		<path class="st108" d="M171.9,39c0,0-5,1.1-5.8,7.5s-1.5,15.4-2,18.1s-2.4,7.9,0,10.3s4.4,1,4.4,1l-0.6-0.7c0,0,1.7,3.7,4.7,4.6
			s4.2,0.8,7.4,4.2s6.6,3.2,8.7,2.1c-0.1,0.4-0.2,0.9-0.2,1.3c0,0.4-0.5,1.1,2.2,1.7s4.3-0.4,4.5-1.4s2.1-10.8,2.5-12.6s1-2.6,0-8.6
			c-1-5.4-2.5-10.8-4.4-16c0.6,1.6,0.2,3.3-0.9,4.6c-1.9,2-8.4,2.6-9.8,2.3c-2.3-0.6-8.8-2.3-9.9-12c-0.2-1.1,0-2.2,0.5-3.1
			C172.6,41.3,172.1,40.2,171.9,39z"/>
		<path class="st8" d="M184.3,40.1c-0.2,1.9,0.6,3.7,2.1,4.8c0,0,1.2,0.7,1.5,0.8c-2.7,3.6-5.2,7.4-7.4,11.3
			c-3.5-1.4-6.1-4.3-7.1-7.9c0,0-1.6-4.1-0.1-6.9c0,0,3.5,2.6,6.6,1.6s4.1-4.4,4.1-4.4L184.3,40.1z"/>
		<path class="st103" d="M173.2,42.3c-0.4,2.6-0.1,5.3,0.9,7.8c0,0,1.6,5,5.1,6.3l-1.8-1.5l0.3-1.1l-0.9,0.5c0,0-4-6.9-3.2-11.5
			L173.2,42.3z"/>
		<path class="st8" d="M171.4,30.6c-0.1,2.8,0.1,5.7,0.5,8.5c0.7,3.2,2.3,5.5,5.7,5.5c2.9,0,5.7-0.9,6.4-4.5
			c0.6,0.4,1.4,0.3,1.8-0.3c0,0,0.1-0.1,0.1-0.1c0.1-0.2,0.1-0.4,0-0.6c0,0-3.3-1.8-3.5-4.1c-0.1-1.3-0.1-2.5,0.1-3.8
			C182.5,31.2,175.4,33.8,171.4,30.6z"/>
		<path class="st109" d="M183.7,57.6c0-1.4,0.2-2.7,0.6-4c2.3-7.1,6.8-6.2,6.8-6.2c-0.8-1.9-3.2-1.7-3.2-1.7
			c-1.3,0.4-2.4,1.2-3.4,2.1c-3.4,3.2-2.1,8.3-5.3,8.5C179.1,56.4,182.9,58,183.7,57.6z"/>
		<path class="st103" d="M173.3,42.4c1.5,1.8,3.9,2.5,6.1,2c1.5-0.3,2.9-1.1,3.8-2.3c-0.7,1.9-2.6,3.1-4.6,3
			C175.5,45.1,174.6,43.9,173.3,42.4z"/>
		<path class="st103" d="M184.4,43.7c0.7,0.9,1.7,1.5,2.8,1.7c-2.4-1.5-1.9-5.3-1.9-5.3c-0.3,0.2-0.7,0.2-1,0c0,0.3-0.2-0.8-0.8,1.2
			c0,0,0,2.1-4.4,3.7C179.2,45.1,181,44.9,184.4,43.7z"/>
		<path class="st110" d="M189.7,95.9l-5.9,3.2l-0.7,10.4l1.5,0.6l0.7-10.4l4.4-2.3C189.8,96.9,189.8,96.4,189.7,95.9z"/>
		<polygon class="st110" points="194.5,93.3 194.3,94.9 200,91.7 198.7,91.1 		"/>
		<path class="st111" d="M169.4,48.2c0.5,1.9,0.3,3.9-0.4,5.7c-1.2,2.7-2.2,7.4,1.6,9.9c0,0-4.8-1.9-2.8-8.5
			C169.1,52,169.3,51.4,169.4,48.2z"/>
		<path class="st111" d="M173.2,42.3c0,0-1.9,8.4,6.3,14.3C179.4,56.7,169.8,51.6,173.2,42.3z"/>
		<path class="st111" d="M172.1,52c0,0,2.6,11.6,12,12.8C184.1,64.9,173.9,63.9,172.1,52z"/>
		<path class="st111" d="M174.5,52.1c0,0,1.5,10.3,10.7,8.9c0,0-7.9,0.8-10.1-8.1L174.5,52.1z"/>
		<path class="st111" d="M175.3,53.3c0,0,2.8,5.2,7,5.9c0,0-4.5-0.1-7.1-5.3L175.3,53.3z"/>
		<path class="st111" d="M169.4,63.1c0,0,1.5,4.9,1,7.2l-0.9-4.9c-0.1,2.8-0.5,5.6-1,8.4c-0.3,1-0.1,2.1,0.5,3c0,0-0.6,0-1-1
			c0-1.2,0.1-2.3,0.3-3.5c0.4-2.1,1.1-9,0.7-9.7L169.4,63.1z"/>
		<path class="st111" d="M173.8,69.1c0,0,5.7,10,13.4,5.1C187.2,74.2,181.1,77.9,173.8,69.1z"/>
		<path class="st111" d="M189.6,59.3c0,0,1.4,9.7,1.5,11.4s-1.9,14.6-1.9,15.8s0.7,2.2,2.9,2.3s2.2-0.2,3-1.1c0,0-0.2,1.8-3,1.5
			c0,0-3.1,0.1-3.6-1.2c0,0-0.3-0.5,0.3-2.9c0.9-4.7,1.5-9.5,1.9-14.3C190.7,70.9,188.6,59.7,189.6,59.3z"/>
		<path class="st111" d="M190.1,66.2c0,0,0.5,5.7-3.4,6.8c0,0,3.4-1,3.7-5.5L190.1,66.2z"/>
		<path class="st111" d="M191.5,65.2c0,0,2.9,2.8,4.3-0.4C195.8,64.8,194.9,69,191.5,65.2z"/>
		<path class="st111" d="M195.8,65.6c0,0-0.9,4.1-3.5,2.7c0,0,2.2,0.8,3.4-3.3L195.8,65.6z"/>
		<path class="st111" d="M196.2,73.4c0,0-1.1,4.1-4.2,4.7c1.5-0.2,2.8-1.1,3.4-2.4c0,0-1,4.1-3.5,4.2
			C191.9,79.9,195.4,80,196.2,73.4z"/>
		<path class="st111" d="M175.9,79.4c1.7,1,3,2.3,4,4c2.1,3.2,6.8,3.4,6.8,3.4c-3.1,0.3-6.1-1.2-7.7-3.8c-2.8-4.5-3.5-3.7-3.5-3.7"
			/>
		<path class="st111" d="M165.2,61.2c0,0-0.2,4.2,2.9,4.4C168.1,65.6,166.1,65,165.2,61.2z"/>
		<path class="st103" d="M171.9,34.4c0,0,2.6,3,8.9,2.1C180.9,36.5,173.7,38.6,171.9,34.4z"/>
		<path class="st103" d="M174.4,37.3l-0.1,2.6c0,0,0.5,0.9,2.1,0.7l0.2-0.3c-0.7,0.1-1.4-0.1-1.9-0.5
			C174.7,39.7,174.9,36.5,174.4,37.3z"/>
		<path class="st103" d="M188.9,92.3c0.1,0.6,0.3,1.2,0.6,1.7c0.5,1.1,0.1,4.2,0.1,4.2s-0.5,2,0.6,1.9c0,0-0.7-0.1-0.3-1.9
			S190.4,93.4,188.9,92.3z"/>
		<polygon class="st103" points="186.7,55 188.1,56.5 187.9,55.5 		"/>
		<path class="st103" d="M191.1,47.4c0,0-6.5-0.9-7.4,10.1c1.4,0,2.9-0.2,4.3-0.5l-3.6-0.1C184.3,57.1,184.5,48.5,191.1,47.4z"/>
		<polygon class="st103" points="175.3,44 175.7,45.6 176.2,45.7 176.3,44.7 		"/>
		<polygon class="st106" points="189.6,96.9 184.9,99.5 184.2,109.9 184.6,99.4 189.7,96.7 		"/>
		<polygon class="st106" points="189.4,96.4 184.3,99.3 183.7,109.7 183.3,109.5 184,99.1 189.6,96.1 		"/>
		<polygon class="st106" points="194.6,93.5 198.9,91.4 199.2,91.5 194.4,93.9 		"/>
		<polygon class="st106" points="194.6,94.2 199.5,91.7 194.5,94.5 		"/>
		<path class="st112" d="M171,88.7c0,0,1.4,17.8,7.5,19.7C174.3,102.6,171.7,95.8,171,88.7z"/>
		<path class="st113" d="M168.8,129.2c0,0-6.2,4.1-5.5,6.5s5.3,0.8,11.1-3.9c0,0-7.6,6-10.4,4.1C164,135.9,162,134.4,168.8,129.2z"
			/>
		<path class="st113" d="M179.4,134.7c0,0-6.2,4.1-5.5,6.5s5.3,0.8,11.1-3.9c0,0-7.9,5.7-10.4,4.1
			C174.7,141.5,172.7,140.2,179.4,134.7z"/>
		<path class="st114" d="M438.1,209c-0.9,2.7-1.3,5.6-1,8.4c0,0,0.9,4.1,4.1,4.6c0,0-0.5-6.6,0.5-8.3s-0.5-3.9-0.5-3.9L438.1,209z"
			/>
		<path class="st103" d="M437.9,209.8c1,1.1,2.7,1.4,4.1,0.7v0.9l-1.4,1.8c0,0,0.1-1-1.3-1.2c-0.7-0.1-1.3-0.2-2-0.4
			C437.4,211,437.6,210.4,437.9,209.8z"/>
		<path class="st115" d="M439.3,213.1c-0.1,1.5-0.2,3-0.1,4.5c0.2,0.9,1.2,0.7,1.3-0.3c0-1,0.1-2,0.4-2.9c0.3-0.4,0.5-0.8,0.6-1.3
			c0,0,0.4,0.4-0.5,1.9l-0.2,2.3c0,0-0.1,1.2-1,1.1s-1-1.3-1-2S438.8,212.9,439.3,213.1z"/>
		<path class="st91" d="M452.7,269.1c0,0-3.4,3-4.9,4.6s-0.1,3.6,2.4,2.6c2.9-1.2,5.6-2.7,8.1-4.6l0.3,1c0,0,0.7,0.6,0.9-0.6
			s1-4.9-0.2-5.9C459.3,266.2,456.4,270.5,452.7,269.1z"/>
		<path class="st114" d="M454,248.9c0,0,1.2,14.4,0.3,17c-0.6,1.6-1.5,3.1-2.7,4.4c0,0-2.3,2.5,0.7,1.9c2.6-0.6,5-2,6.7-4.1
			c0.8-1.2-0.6-2.7,0.2-6s2.8-8.9,3-13.9L454,248.9z"/>
		<path class="st115" d="M454.2,251c0,0,5.2,0.9,7.9-0.9l0.3-2.1l-8.4,0.9L454.2,251z"/>
		<path class="st91" d="M442,263.6c-1.8,1.3-3.5,2.9-4.9,4.6c-1.3,1.8-0.1,3.6,2.4,2.6c2.9-1.2,5.6-2.7,8.1-4.6l0.3,1
			c0,0,0.7,0.6,0.9-0.6s1-4.9-0.2-5.9C448.6,260.8,445.8,265.1,442,263.6z"/>
		<path class="st114" d="M443.4,243.4c0,0,1.2,14.4,0.3,17c-0.6,1.6-1.5,3.1-2.7,4.4c0,0-2.3,2.5,0.7,1.9c2.6-0.6,5-2,6.7-4.1
			c0.8-1.2-0.6-2.7,0.2-6s2.8-8.9,3-13.9L443.4,243.4z"/>
		<path class="st115" d="M443.7,247.9c0,0,2.9,3.2,6.7,2.1l0.4-1.4l-7.3-2.8L443.7,247.9z"/>
		<path class="st116" d="M442.7,210.3c-1.4,1-2.3,2.6-2.5,4.3c-0.3,2.8-1.9,24.2-1.9,24.2c-0.5,1.2-0.4,2.5,0.4,3.5
			c1.2,1.8,11,10.2,23.3,6.5c0,0,6.9-2.2,7.3-7l-2.1-22.2L442.7,210.3z"/>
		<path class="st114" d="M464.3,181.9c0,0-4.2-1.4-6.4,4.9c-1,1.7-1.4,3.6-1.3,5.5c0,0,9.9,1.5,10.6-5.2
			C467.2,187.2,466.7,182.7,464.3,181.9z"/>
		<polygon class="st106" points="458.5,234.1 457.7,244.5 473,236.3 473.2,226.2 		"/>
		<path class="st115" d="M460.4,188.1l1.1,4.7l0.4-0.1C462,192.7,461.7,189,460.4,188.1z"/>
		<path class="st68" d="M443.6,163.7c0,0,0.7,4.1,0,6.7s-0.8,4.7,2.2,5.6l1.6,0.2c0,0-1.5-9.8-0.8-13.1
			C446.6,163.1,443.7,160.9,443.6,163.7z"/>
		<path class="st114" d="M462.2,222.5c-0.9,1.2-1.3,2.7-1.3,4.2c0,1.8-0.2,3.6-0.6,5.3c0,0,0.1,0.7,1.1,0.3s1-1.5,1.1-2.5
			c0-0.5,0.1-1,0.2-1.5c0.2,1.6,0.2,3.2,0,4.8c-0.4,2.2,1.9,1.4,3.1,0.4s2.7-6.2,1.5-9.9C467.3,223.5,463.8,223.9,462.2,222.5z"/>
		<path class="st115" d="M462,222.7c0,0,3.2,1.6,5.2,0.7c0.3,0.7,0.4,1.5,0.4,2.3c-0.4-0.9-1.4-1.3-2.3-1.1
			c-2.7,0.2-3.6,0.3-3.8,2.3c-0.1,1.7-0.5,3.3-1.2,4.8c0,0,0.5-4.5,0.4-5.4S461.2,223.1,462,222.7z"/>
		<path class="st68" d="M443.6,164c-0.6-3.6,1.4-7.1,4.8-8.5c0,0,4-2.2,6.7-1.5s7.4,2.3,8,5.8s-0.8,5.5,1,9.8s4,8.7,0.1,12.4
			c0,0-4-1.4-5.1-2.3c-2.1-1.9-1.6-3.5-1.8-5.4c-1.3-1.4-2.1-3.2-2.2-5.1v-2.8C455.2,166.2,446.7,168.4,443.6,164z"/>
		<path class="st117" d="M445.1,173.5c0,0-5,1.1-5.8,7.5s-1.5,15.4-2,18.1s-2.4,7.9,0,10.3s4.4,1,4.4,1l-0.6-0.7
			c0,0,1.7,3.7,4.7,4.6s4.2,0.8,7.4,4.2s6.6,3.2,8.7,2.1c-0.1,0.4-0.2,0.9-0.2,1.3c0,0.4-0.5,1.1,2.2,1.7s4.3-0.4,4.5-1.4
			s2.1-10.8,2.5-12.6s1-2.6,0-8.6c-1-5.4-2.5-10.8-4.4-16c0.6,1.6,0.2,3.3-0.9,4.6c-1.9,2-8.4,2.6-9.8,2.3c-2.3-0.6-8.8-2.3-9.9-12
			c-0.2-1.1,0-2.2,0.5-3.1C445.8,175.8,445.4,174.7,445.1,173.5z"/>
		<path class="st114" d="M457.5,174.6c-0.2,1.9,0.6,3.7,2.1,4.8c0,0,1.2,0.7,1.5,0.8c-2.7,3.6-5.2,7.4-7.4,11.3
			c-3.5-1.4-6.1-4.3-7.1-7.9c0,0-1.6-4.1-0.1-6.9c0,0,3.5,2.6,6.6,1.6s4.1-4.4,4.1-4.4L457.5,174.6z"/>
		<path class="st115" d="M446.4,176.8c-0.4,2.6-0.1,5.3,0.9,7.8c0,0,1.6,5,5.1,6.3l-1.8-1.5l0.3-1.1l-0.9,0.5c0,0-4-6.9-3.2-11.5
			L446.4,176.8z"/>
		<path class="st114" d="M444.6,165.1c-0.1,2.8,0.1,5.7,0.5,8.5c0.7,3.1,2.3,5.5,5.7,5.5c2.9,0,5.7-0.9,6.4-4.5
			c0.6,0.4,1.4,0.3,1.8-0.3c0,0,0.1-0.1,0.1-0.1c0.1-0.2,0.1-0.4,0-0.6c0,0-3.3-1.8-3.5-4.1c-0.1-1.3-0.1-2.5,0.1-3.8
			C455.7,165.7,448.5,168.3,444.6,165.1z"/>
		<path class="st118" d="M456.9,192.1c0-1.4,0.2-2.7,0.6-4c2.3-7.1,6.8-6.2,6.8-6.2c-0.8-1.9-3.2-1.7-3.2-1.7
			c-1.3,0.4-2.4,1.2-3.4,2.1c-3.4,3.2-2.1,8.3-5.3,8.5C452.3,190.9,456.1,192.4,456.9,192.1z"/>
		<path class="st115" d="M446.5,176.8c1.5,1.8,3.9,2.5,6.1,2c1.5-0.3,2.9-1.1,3.8-2.3c-0.7,1.9-2.6,3.1-4.6,3
			C448.7,179.6,447.8,178.4,446.5,176.8z"/>
		<path class="st115" d="M457.6,178.2c0.7,0.9,1.7,1.5,2.8,1.7c-2.4-1.5-1.9-5.3-1.9-5.3c-0.3,0.2-0.7,0.2-1,0
			c0,0.3-0.2-0.8-0.8,1.2c0,0,0,2.1-4.4,3.7C454.1,179.2,455.9,178.8,457.6,178.2z"/>
		<path class="st110" d="M462.9,230.3l-5.9,3.2l-0.7,10.4l1.5,0.6l0.7-10.4l4.4-2.3C462.8,231.8,463,230.6,462.9,230.3z"/>
		<polygon class="st110" points="467.7,227.8 467.5,229.3 473.2,226.2 471.9,225.5 		"/>
		<path class="st119" d="M442.6,182.6c0.5,1.9,0.3,3.9-0.4,5.7c-1.2,2.7-2.2,7.4,1.6,9.9c0,0-4.8-1.9-2.8-8.5
			C442.3,186.5,442.5,185.9,442.6,182.6z"/>
		<path class="st119" d="M446.4,176.8c0,0-1.9,8.4,6.3,14.3C452.6,191.1,442.9,186.1,446.4,176.8z"/>
		<path class="st119" d="M445.3,186.5c0,0,2.6,11.6,12,12.8C457.3,199.3,447.1,198.4,445.3,186.5z"/>
		<path class="st119" d="M447.7,186.6c0,0,1.5,10.3,10.7,8.9c0,0-7.9,0.8-10.1-8.1L447.7,186.6z"/>
		<path class="st119" d="M448.5,187.8c0,0,2.8,5.2,7,5.9c0,0-4.5-0.1-7.1-5.3L448.5,187.8z"/>
		<path class="st119" d="M442.6,197.6c0,0,1.5,4.9,1,7.2l-0.9-4.9c-0.1,2.8-0.5,5.6-1,8.4c-0.3,1-0.1,2.1,0.5,3c0,0-0.6,0-1-1
			c0-1.2,0.1-2.3,0.3-3.5c0.4-2.1,1.1-9,0.7-9.7L442.6,197.6z"/>
		<path class="st119" d="M447,203.6c0,0,5.7,10,13.4,5.1C460.4,208.6,454.3,212.3,447,203.6z"/>
		<path class="st119" d="M462.8,193.7c0,0,1.4,9.7,1.5,11.4s-1.9,14.6-1.9,15.8s0.7,2.2,2.9,2.3s2.2-0.2,3-1.1c0,0-0.2,1.8-3,1.5
			c0,0-3.1,0.1-3.6-1.2c0,0-0.3-0.5,0.3-2.9c0.9-4.7,1.5-9.5,1.9-14.3C463.9,205.3,461.8,194.2,462.8,193.7z"/>
		<path class="st119" d="M463.2,200.7c0,0,2,5.8-3.4,6.8c0,0,3.4-1,3.7-5.5L463.2,200.7z"/>
		<path class="st119" d="M464.7,199.7c0,0,2.9,2.8,4.3-0.4C469,199.2,468,203.5,464.7,199.7z"/>
		<path class="st119" d="M469,200c0,0-0.9,4.1-3.5,2.7c0,0,2.2,0.8,3.4-3.3L469,200z"/>
		<path class="st119" d="M469.4,207.8c0,0-1.1,4.1-4.2,4.7c1.5-0.2,2.8-1.1,3.4-2.4c0,0-1,4.1-3.5,4.2
			C465.1,214.4,468.6,214.5,469.4,207.8z"/>
		<path class="st119" d="M449,213.9c1.7,1,3,2.3,4,4c2,3.1,6.8,3.4,6.8,3.4c-3.1,0.3-6.1-1.2-7.7-3.8c-2.8-4.5-3.5-3.7-3.5-3.7"/>
		<path class="st119" d="M438.4,195.7c0,0-0.2,4.2,2.9,4.4C441.3,200,439.2,199.5,438.4,195.7z"/>
		<path class="st115" d="M445.1,168.9c0,0,2.6,3,8.9,2.1C454,171,446.9,173,445.1,168.9z"/>
		<path class="st115" d="M447.6,171.7l-0.1,2.6c0,0,0.5,0.9,2.1,0.7l0.2-0.3c-0.7,0.1-1.4-0.1-1.9-0.5
			C447.9,174.1,448.1,171,447.6,171.7z"/>
		<path class="st115" d="M462,226.7c0.1,0.6,0.3,1.2,0.6,1.7c0.5,1.1,0.1,4.2,0.1,4.2s-0.5,2,0.6,1.9c0,0-0.7-0.1-0.3-1.9
			S463.5,227.8,462,226.7z"/>
		<polygon class="st115" points="459.9,189.5 461.3,191 461.1,190 		"/>
		<path class="st115" d="M464.3,181.9c0,0-6.5-0.9-7.4,10.1c1.4,0,2.9-0.2,4.3-0.5l-3.6-0.1C457.5,191.5,457.6,182.9,464.3,181.9z"
			/>
		<polygon class="st115" points="448.5,178.5 448.8,180.1 449.3,180.2 449.5,179.2 		"/>
		<polygon class="st106" points="462.8,231.4 458,234 457.4,244.4 457.8,233.8 462.8,231.2 		"/>
		<polygon class="st106" points="462.5,230.9 457.5,233.8 456.9,244.2 456.5,243.9 457.2,233.6 462.8,230.6 		"/>
		<polygon class="st106" points="467.8,228 472.1,225.8 472.4,226 467.6,228.4 		"/>
		<polygon class="st106" points="467.8,228.6 472.6,226.2 467.7,229 		"/>
		<path class="st120" d="M444.2,223.1c0,0,1.4,17.8,7.5,19.7C447.4,237.1,444.8,230.2,444.2,223.1z"/>
		<path class="st92" d="M442,263.6c0,0-6.2,4.1-5.5,6.5s5.3,0.8,11.1-3.9c0,0-7.6,6-10.4,4.1C437.2,270.4,435.2,268.9,442,263.6z"/>
		<path class="st92" d="M452.6,269.2c0,0-6.2,4.1-5.5,6.5s5.3,0.8,11.1-3.9c0,0-7.9,5.7-10.4,4.1
			C447.8,275.9,445.9,274.6,452.6,269.2z"/>
		<g>
			<defs>
				<path id="SVGID_2_" d="M238.9,483c0,0,42.5,0,48.5-0.5l-1.5-56.5l-12-31l-27.5,1l-17.5,59L238.9,483z"/>
			</defs>
			<clipPath id="SVGID_3_">
				<use xlink:href="#SVGID_2_"  style="overflow:visible;"/>
			</clipPath>
			<g class="st121">
				<path class="st122" d="M271.4,493.2c0,0,4.2,0.7,5.2,2.3c0,0-2.4-14.5-6.3-19.1C270.4,476.4,271.6,490.2,271.4,493.2z"/>
				<path class="st123" d="M266.7,426.4c0,0-0.7,4.3,0.8,6.2c0.1,0.9,0.5,1.8,1.2,2.4c1.1,0.8,3,2,3,2c0.5-1.4,1-2.8,1.7-4.2
					c1.1-2.2,2.6-9.3,1-12.7s-4-2.1-4-2.1L266.7,426.4z"/>
				<path class="st124" d="M267.4,523.7l-3.5,5.1c1.7-0.1,3.3,0.5,4.5,1.7c0,0,4.1-2.9,5-4.1c0.3-0.4,0.7-0.7,0.8-1.2
					c0-0.9-0.2-1.7-0.6-2.5L267.4,523.7z"/>
				<path class="st124" d="M252,517.9c-1.5,1.8-2.9,3.7-4.2,5.7l4.6,1.9l5.2-4.4c0.7-0.7,1-1.9,0.5-2.8c-0.1-0.2-0.6-1.9-0.7-2.1
					L252,517.9z"/>
				<path class="st124" d="M245.7,468.3c0,0-1,5.1-0.5,7.9s1,3,2.5,3.7l1-9.7L245.7,468.3z"/>
				<path class="st125" d="M270.8,524.7c-1.3,0.3-2.6-0.1-3.5-1.1c-0.6-2.7-1-5.4-1.2-8.2c-0.2-2.6-1.8-8.3-2.7-13
					c-0.7-3.7-0.8-6.5-1-7.4c-0.4-2-4.4,0.3-4.4,0.3c-0.6,1.8-0.9,3.8-0.8,5.7c0,3.8,0.7,14.5,0.7,14.5s0.4,2.4-1.6,3.3
					c0,0-3.4,1.3-4.5-1.1c0,0-3.8-21.4-4.1-26.3c0.1,0,6.6-17.4,23.1-14.8c0.3,0.1,2.3,3.5,2.3,8.6c0,3.7-1.4,12.1-0.9,18.1
					c0.2,2.4,0.5,3.8,0.7,5.4c0.5,5.6,0.4,6.8,0.5,13.7C273.5,523.4,272.2,524.5,270.8,524.7z"/>
				<path class="st126" d="M248.1,494.4c0,0,5.4,3.3,9.3,4l-0.1,1.4c0,0-5.3,0.1-8.8-2.7L248.1,494.4z"/>
				<path class="st126" d="M270,479.2c0,0-2.5,10.8-0.4,20.6c0,0-3.9,1.8-6.3,1.1c-0.3-1.8-0.5-3.7-0.6-5.5
					C262.7,494.4,267.9,477.4,270,479.2z"/>
				<path class="st127" d="M279.4,464.3c-0.3-4.9-2-16.4-3.5-19.9s-3-7.4-5.8-8.8c-2.5,0.4-4.6,2-5.6,4.3c-1.7,3.8-3.7,6.8-5.7,6.7
					s-5.5-0.4-6.4-3.3c0-3.3,0.6-6.6,1.7-9.8c-0.6-1.5-1.1-3.1-1.2-4.7c0,0-2.6-0.3-3.9,3.3s-2.5,11.1-2.9,17.3s-1.5,14.1-1.6,16.2
					s0.3,3.4,3.3,4.6c0,0-2,13.9-2.4,16.4c-0.2,1.9-0.3,3.7-0.2,5.6c0,0,1,2.5,7.4,4.8s14,3.1,16.6,2.6c-0.7-3.1-1.2-6.3-1.3-9.5
					c0-3.3,0.3-6.7,0.8-10l1-8.5l1.2,7.7c0,0,4.4,7.8,5.1,14.7c0.3,1.5,0.3,2.9,0.1,4.4c0,0,3.4-0.7,3.2-5.1s-1.7-12.8-2.5-14.6
					C276.7,478.7,279.5,469.2,279.4,464.3z M269.4,459.1c-0.6-1.7-0.5-3.5,0.3-5.1c1.5,2.8,2.1,10.7,2.1,10.7
					C270.9,462.9,270.1,461,269.4,459.1L269.4,459.1z"/>
				<path class="st67" d="M270.6,416.7c0,0,1.6-0.5,1.5,2s-0.6,3.8-1.9,3.8L270.6,416.7z"/>
				<path class="st124" d="M264.5,429.7c0.6,0.2,1.3-0.1,1.7-0.6c0,0-0.7,3.1,0.7,4.4s2.8,1.7,3.1,2.2c0,0-4,1.3-5.1,3.6
					s-3.2,6.8-5.7,7.5s-6.5-1.3-7-3s1-8.4,1.8-10.5C254,433,262.3,431.8,264.5,429.7z"/>
				<path class="st124" d="M252.5,417.3c-0.6,2.1-0.8,4.2-0.7,6.4c0.1,0.6,0.2,1.1,0.4,1.7c-0.1,0.6-0.1,1.2-0.1,1.8
					c0.9,5.9,2.2,8.5,5.5,8.5s7.9-5.1,7.9-5.1c0.6,0.1,1.8-1.2,1.7-3.6c0,0,4.4-9.8-1.2-12.5S255.4,410.5,252.5,417.3z"/>
				<path class="st53" d="M272.5,466.7c0,0-9.6,6.1-10,7.4s-2.4,10.4-2.1,11.4s4.8,3.4,5.5,3.5s6.2-5.1,6.2-5.1l3-12.7L272.5,466.7z
					"/>
				<path class="st29" d="M252.3,418.5c0.1-0.6,0.3-1.1,0.6-1.6c0,0,0.1,2.6,3.9,3.4c3.8,0.8,4.3,0.7,4.8,3.2s2.2,2.1,2.5,3.7
					s-1.2,2.4-1.9,1c0.1,0.7,0.7,1.2,1.3,1.1c0.2,0,0.4-0.1,0.6-0.2c1.6-0.8,0.7-2.2,1-3c0.5,0.5,1.1,0.8,1.8,0.8
					c0.7,0.4,1.6,0.3,2.3-0.2c0.5-0.9,0.9-1.9,1.2-2.9c0.9-2.7,0.1-3,0.5-5.1c0.1-1.7-0.1-3.5-0.4-5.2c-1-2.4-6.9-4.7-9.4-4.5
					c-2.6,0.4-5,1.6-6.9,3.3c-1,0.7-1.7,1.6-2.2,2.7C251,417.4,252.3,418.5,252.3,418.5z"/>
				<path class="st128" d="M251.9,424c0,0,3.9,2.3,5.7,2.5s2.6,0,3,0.5c-0.8,0.1-1.6,0.2-2.4,0.1c-0.6,0.3-3.8-1.1-6.1-2.6
					L251.9,424z"/>
				<path class="st128" d="M256.5,430.4c-0.2,0.9-2.6,1-2-0.8c0.4-0.9,0.5-1.9,0.3-2.8c0,0,0.3-0.3,0.4,0.3c0,0.9-0.1,1.8-0.4,2.6
					c-0.2,0.4,0.4,1,1.1,0.6C255.9,430.4,256.4,430,256.5,430.4z"/>
				<path class="st128" d="M252.5,444.2c-1.1-1.2,1.1-9.5,1.1-9.5l0.4-1.1c0,0,1.5,2.5,5.2,1.6c2.1-0.6,3.9-2.1,4.9-4.1
					c-0.7,5.8-6.7,5.6-6.7,5.6s-2.5-0.2-3.2-1.4C253,438.1,252.4,441.1,252.5,444.2z"/>
				<path class="st129" d="M249.9,435.5c0,0,0.7,2.6,0.3,3.9s-3.9,4.8-1.8,9.1s3.3,5.1,3,9s-3.3,4.7-3.7,12.9
					c-0.2-3.1,0.3-6.1,1.4-9c1.9-5.3,2.2-6.4,0.7-8.7s-3.1-5.1-2.6-8.2c0.4-1.9,1.2-3.7,2.5-5.1C249.9,438.1,250,436.8,249.9,435.5z
					"/>
				<path class="st129" d="M256.4,453.6c0,0,3.7,2.2,7.4,0.3C263.8,453.8,260.1,457.6,256.4,453.6z"/>
				<path class="st128" d="M246.2,471.8c0,0,0,2.9,0.1,3.1s0.6,1.6,0.6,1.6l-0.1,1.2C246.8,477.7,245.1,474.5,246.2,471.8z"/>
				<path class="st128" d="M264.7,430.1c0,0,0.8,1,1.8-0.2c-0.6,1.2-0.4,2.6,0.5,3.6l3.1,2.2c0,0-3.2,1.1-4.1,2.4
					c-1,1.4-1.9,2.9-2.6,4.4c0,0-1.9,4.4-4.6,4.3c1.6-1.1,2.9-2.5,3.8-4.2c1.2-2.5,2.2-5.7,5.7-7c-1.2-0.2-2.3-1.1-2.6-2.3
					C265.2,431.3,263.7,432,264.7,430.1z"/>
				<path class="st124" d="M270.4,479.4c-0.5,1.6-0.7,3.2-0.7,4.9c0.1,2.6-0.2,3.7,0.9,4s1-3.5,1.1-4.4c0.2,0.8,0.3,1.7,0.3,2.6
					c0,1.4-0.4,3.4-0.1,3.9c0.6,1,1.4,0.4,2.1-0.3s1.7-1.1,2-3.1c0.4-2.2,0.3-4.4-0.3-6.5C275.8,480.4,272.5,481.7,270.4,479.4z"/>
				<path class="st56" d="M248.4,522.3c-1.3,1.2-2.2,2.8-2.6,4.5c0,0,0,2,3.3,0.9s7.6-4.7,9.5-7.3c0-0.5-0.1-1-0.3-1.5
					c0,0-2.8,4-5.7,5.2C251.7,522.8,250,522.1,248.4,522.3z"/>
				<path class="st56" d="M264.1,528.2c-1.3,1.1-2.3,2.6-2.6,4.3c0,0,0,2,3.3,0.9s8.5-5.7,9.6-7.2c0-0.5-0.1-0.9-0.4-1.3
					c0,0-2.8,3.7-5.7,5C268.4,529.7,266.8,527.8,264.1,528.2z"/>
				<path class="st127" d="M271.7,459.5c0,0,0.3,14.2-1,19.4c1.3,1.6,3.6,2.2,5.5,1.3l1.1-4.3c0,0,2.3-7.8,2-10.7L271.7,459.5z"/>
				<polygon class="st79" points="265.4,475.9 265.9,489.1 266.3,488.9 265.7,475.8 271.8,471.3 271.6,470.7 265.4,475.6 				"/>
				<path class="st79" d="M271.4,469.3l-5.7,4.3C267.9,472.6,269.8,471.1,271.4,469.3z"/>
				<path class="st79" d="M263,476.8c0,0,1.3-31.8,3-36c-0.1,0.3,1.6-5.3,4.9-4.5c0.8,0.2,1.4,0.8,1.7,1.6c-1.9-0.3-3.8,0.8-4.4,2.6
					c0,0-1.6,1.7-2.4,17.2c0,0-1,17.8-1.2,19.4S263,478.4,263,476.8z"/>
				<path class="st129" d="M267.1,447.3c0,0,1,2.7,2.3,3.4l0.3,1.1C268.1,450.8,267.1,449.1,267.1,447.3z"/>
				<path class="st129" d="M267.8,443c0,0-0.9,2.6,0.9,6.5s3.6,15.3,3.1,17.8s-1.8,11.8-1.8,11.8s1.1,2.9,6.2,1c0,0-4.7,0.8-5.5-1.3
					c0,0,2.4-11,1.9-14.5s-1.6-11.8-3-14.8C268.6,447.5,268,445.3,267.8,443z"/>
				<polygon class="st128" points="254.6,445.9 255.5,443.8 255.4,446.2 				"/>
				<path class="st128" d="M266.6,427.1c0,0,0.2,2.1-0.5,2.3s-1.2-0.5-0.9-0.8s0.9-0.6,0.3-1.5S266.6,427.1,266.6,427.1z"/>
				<path class="st79" d="M265.7,475.9l-1-1.4l-2.2-0.2c0,0-2.7,9.9-2,11.7c1.6,1.4,3.4,2.5,5.4,3.3l0.2-0.8c0,0-3.5-0.9-5.3-3.1
					c0.3-3.6,0.9-7.2,1.9-10.7l1.6,0.1l1.4,1.7"/>
				<path class="st130" d="M255.3,436.2c0,0-1.1,3.3,0,4.5c1.1,1.2,3,1.6,6-1.4c1.9-1.9,3.9-3.7,6.1-5.3c0,0,0.2-1.2-1.1,0
					s-6.6,6.6-7.9,6.9s-4,0.7-2.5-4.5L255.3,436.2z"/>
				<circle class="st130" cx="256.3" cy="441.5" r="0.7"/>
				<circle class="st130" cx="265.4" cy="430.2" r="0.5"/>
				<path class="st128" d="M271.7,482.9c0.1,0.9,0.2,1.7,0.4,2.6c0.1,1.5,0,3-0.3,4.5c0,0,0.1-5-0.3-5.5v1.6
					C271.6,486.2,270.8,484,271.7,482.9z"/>
				<path class="st128" d="M270.3,479.7c0,0,0.9,1.8,5.5,0.7c0.5,1.7,0.6,3.5,0.4,5.2c0,0-0.5-3.8-2-3.6s-4-1.6-4.3,0.8l-0.2,1.6
					C269.5,482.8,269.7,481.2,270.3,479.7z"/>
				<path class="st128" d="M245.5,469.1c0.7,0.5,1.4,0.9,2.2,1.2l-0.4,2.6c0,0-1-2.2-1.6-1.4c-0.5,0.8-0.7,1.7-0.7,2.6
					C245,472.4,245.1,470.7,245.5,469.1z"/>
				<path class="st128" d="M251.9,517.8c0,0,0.5,2,4.1,1.2c0,0,1.5-0.5,1.7-1.7c0.2,0.5,0.4,1.1,0.6,1.6c0,0-0.2-0.8-0.9-0.2
					c-1.7,1.7-4.4,1.8-6.3,0.3L251.9,517.8z"/>
				<path class="st128" d="M267.3,523.7c0,0,2.4,2.3,4.9,0.5c0,0,1.3-0.7,1.3-1.5s0.4,1,0.4,1c-1.9,2.2-4.9,2.8-7.5,1.6L267.3,523.7
					z"/>
				<path class="st129" d="M249.1,436.7l0.9,2.8l-0.7,0.9C249.1,439.2,249.1,437.9,249.1,436.7z"/>
				<path class="st29" d="M267.2,427c0.2,1.1-0.1,2.2-0.8,3c-0.1,0.4-0.2,0.7-0.3,1.1c0,0,1.8,0.7,4-6.3L267.2,427z"/>
				<path class="st123" d="M253.2,414.6c-0.9,1.9-0.1,4.2,1.8,5.1c0.1,0.1,0.3,0.1,0.4,0.2C253.7,418.7,252.9,416.6,253.2,414.6z"/>
				<path class="st123" d="M264.3,424.2c0,0,0.4,3,3,2.7C267.3,426.9,264.7,425.9,264.3,424.2z"/>
			</g>
		</g>
		<rect class="st131" width="514.5" height="516.1"/>
	</g>
</g>
</svg>
