<?xml version="1.0" encoding="utf-8"?>
<!-- Generator: Adobe Illustrator 21.1.0, SVG Export Plug-In . SVG Version: 6.00 Build 0)  -->
<svg version="1.1" id="Layer_1" xmlns="http://www.w3.org/2000/svg" xmlns:xlink="http://www.w3.org/1999/xlink" x="0px" y="0px"
	 viewBox="0 0 514.5 871.3" style="enable-background:new 0 0 514.5 871.3;" xml:space="preserve">
<style type="text/css">
	.st0{opacity:0.5;}
	.st1{fill:#4E3136;}
	.st2{fill:#024E6C;}
	.st3{fill:#FED4AF;}
	.st4{fill:#FBBD92;}
	.st5{fill:#CA9E6F;}
	.st6{fill:#F2E094;}
	.st7{fill:#F2738E;}
	.st8{fill:#73A7BE;}
	.st9{fill:#197DAA;}
	.st10{fill:#F7EB98;}
	.st11{fill:#BC734F;}
	.st12{fill:#252A3D;}
	.st13{fill:#C0CCDD;}
	.st14{fill:#1F2746;}
	.st15{fill:#6D5539;}
	.st16{fill:#FFFFFF;}
	.st17{fill:#4E3C25;}
	.st18{fill:#F0C776;}
	.st19{fill:#DA587C;}
	.st20{fill:#F7A8A7;}
	.st21{fill:#F3F3F3;}
	.st22{fill:#31AABA;}
	.st23{opacity:0.1;fill:#010101;enable-background:new    ;}
	.st24{fill:#35B7AE;}
	.st25{fill:url(#SVGID_1_);}
	.st26{fill:none;}
</style>
<title>Asset 11</title>
<g id="Layer_2" class="st0">
	<g id="Layer_1-2">
		<path class="st1" d="M261.6,861c0,0-5.2,6.8-5.5,7.8s0.1,1.7,2.5,2.5s10.5-7.8,10.8-8.6s-0.9-3.1-0.9-3.1S265.1,863.6,261.6,861z"
			/>
		<path class="st1" d="M248.1,854.7c0,0-5.5,6.3-5.5,7.2c0.3,1.4,1.5,2.5,2.9,2.6c1.7,0.2,10-7.7,10.3-8.3s-0.7-3-0.7-3L248.1,854.7
			z"/>
		<path class="st2" d="M242.9,808.8c0,0-0.8,22.4-0.8,24.4s4.6,17.2,5.2,19.8c-0.1,1.1,0.5,2.1,1.5,2.4c1.5,0.5,5.9,0.9,7.1-3
			c0,0-4.2-15-4.4-18.3s0.6-9.1,2.2-14.5c0,0,0.9,17.7,1.6,20.3c0.7,2.6,5.5,20.3,5.5,20.3s0.6,3,4.8,1.9s3.3-4.1,3.3-4.1
			s-4.2-13.7-3.5-18.9c0,0,0.6-32.8,0.3-36c0,0-15.1-3-19.4-5.9C246.3,797.2,242.9,799,242.9,808.8z"/>
		<path class="st3" d="M238.6,795.6c-0.5,0.9-1,1.9-1.2,3c-0.3,1.3-0.3,3.4-1,4.6c0,0-0.9,0.8,0.9,0.9s1.6-1.3,1.6-1.3
			s-0.8,5.1,2.6,5.1l0.8-0.1l-0.3-10.7C241.9,797,239.5,796.4,238.6,795.6z"/>
		<path class="st4" d="M238.6,795.5c0.7,0.7,1.4,1.2,2.3,1.6v1c-0.6-0.9-1.6-1.6-2.7-1.7L238.6,795.5z"/>
		<path class="st5" d="M252.9,823.8c-0.3,0-1,0.6-0.9,2.3s-0.3,15.1-0.3,15.1c-0.4,0.8,0,1.7,0.8,2.1c0.1,0,0.2,0.1,0.3,0.1
			c1.8,0.6,3.4,1.6,4.6,0.9s19.5-11.7,19.5-11.7c0.7-0.2,1.2-0.9,1.2-1.7c0-1.4,0.1-16.6,0.1-16.6l-5.7,0.4L252.9,823.8z"/>
		<path class="st6" d="M248.2,756.8c0,0-2.5,3-2.3,9.8s-0.1,21.7,0,23.5s0.3,5.1,0.3,5.1s5.3,4,9.8,3.8c-0.7-3.7-0.9-7.5-0.6-11.2
			c0.6-5.1-0.5-13.8,0.3-17.1s4.4-9.4,5-13.2l-0.4-1.4L248.2,756.8z"/>
		<path class="st7" d="M248.4,762.1c-0.2,0.2,0.4,1.9,1.1,2.9c0.3,0.5,0.9,0.7,1.5,0.4c0,0,0.1-0.1,0.1-0.1l1.5-2.1l-1.7-2.1
			C250,761.3,249.2,761.7,248.4,762.1z"/>
		<path class="st7" d="M249.5,764.7c0,0-1.3,8.6-2.4,16.6c0.7,2.5,1.7,4.9,2.8,7.2c0,0,2.5-4.3,3.2-5.7c-0.1-0.3-2.3-17.8-2.3-17.8
			L249.5,764.7z"/>
		<path class="st8" d="M260.2,755.4c0,0,1.6,1.1-0.3,5.1s-4.9,9-4.6,16s0.1,13.7,0.3,18.5c0.2,4.1-0.5,7.5-0.1,10
			c0.2,1.9,0.3,3.8,0.1,5.7c2.1,1,4.5,1.3,6.8,0.9c0,0,6.1-0.2,9.5-4.2c-0.3-1.6-0.7-3.1-1.3-4.6c0,0,2.7-9.3,2.9-14
			s-1.9-13.8-2.3-17.2s0.3-5.4-1.3-7.8s-7.4-6.3-7.4-6.3s-0.4-3-2.4-3.8L260.2,755.4z"/>
		<path class="st8" d="M245.7,750.8c-3-0.2-5.7,2.1-5.9,5.1c0,0,0,0.1,0,0.1c0,0,0,12.5-0.1,15.3s-0.8,15.6-0.9,17.5
			c0,0.8-0.1,1.7-0.2,2.5c-0.2,0.6-0.4,1.3-0.4,1.9c0,0.7,0.1,1.5,0.2,2.2c0.7,0.7,1.5,1.2,2.4,1.6c0,0-0.4,6.4-0.3,9.1
			c0.5,1.1,1.3,2,2.2,2.7c1.4,0.9,2.2,1.7,2.9,1.3s-0.1-3,0.1-5.6s0.4-13.8,0.4-19s0.3-9.9,0-13.5s-0.4-12.5,1.8-15.1
			C248.1,757.1,245.6,755.5,245.7,750.8z"/>
		<path class="st9" d="M243,757.5c0,1.7-0.1,3.3-0.1,5s-0.1,3.3,0,5s0.2,3.3,0.2,5s-0.1,3.3-0.2,5s-0.3,3.3-0.4,5s-0.3,3.3-0.4,5
			l-0.5,5c-0.2,1.7-0.3,3.3-0.6,5c0-1.7,0.1-3.3,0.2-5l0.3-5c0.1-1.7,0.2-3.3,0.3-5c0.2-1.6,0.3-3.3,0.3-4.9c0.1-1.7,0.2-3.3,0.3-5
			s-0.1-3.3,0-5C242.3,764.2,242.5,760.8,243,757.5z"/>
		<path class="st10" d="M250.8,761.2c3.5-1.2,6.7-3.2,9.4-5.7c0,0,0.6,0.3,0.7,2c-2.4,2.8-5.2,5.2-8.3,7.1
			C252.2,763.4,251.6,762.2,250.8,761.2z"/>
		<path class="st10" d="M249.6,758c0,0,0.1,2.3,1.1,3.2c-1.1,0.7-2.3,1.3-3.6,1.7c0,0-0.1-4.5,0.8-6
			C248.4,757.4,249,757.7,249.6,758z"/>
		<path class="st9" d="M241.2,762.1l0.9,2.9c0.2,0.5,0.3,0.9,0.4,1.4c0.1,0.5,0.1,1.1,0,1.6h-0.1c-0.3-0.4-0.6-0.8-0.8-1.3
			c-0.2-0.5-0.3-1-0.3-1.5C241.3,764.1,241.1,763.2,241.2,762.1L241.2,762.1z"/>
		<path class="st9" d="M245.8,804.3c0.6-7.3,0.7-26,0.5-28.6c-0.2-3.7-0.7-10.9,0.3-15.2l1.4-3.5l-1.4-2c0,0-1.9,2.6-2.2,10.6
			c0,0-0.7,6.2-1,7.2c0,0,2,3.2,1.7,5.2s-1.9,3.5-1.1,7.6c0.6,3.1,1.4,11.2,1.7,14.6c0.1,1,0,5.3,0,5.3L245.8,804.3z"/>
		<path class="st3" d="M250.8,761.2c3.5-1.2,6.7-3.1,9.3-5.7l-0.2-1.9c0.5,0.2,1.1-0.2,1.7-0.6s1.1-2.4,1-4.6s-1.9-1.6-1.9-1.6
			s-0.3-7.3-0.2-7.7c0.2-1.4-0.3-2.8-1.3-3.7c-6.3-3.7-9.2,0.2-11.7,0.5s-2,4.1-2,4.1v4.9c-0.1,0.5,0,0.9,0.1,1.4
			c0.2,0.5,0.2,1,0.1,1.5c-0.3,1-0.3,2-0.2,3c-0.1,5.9,3.4,7,3.8,7.1S249.5,759.9,250.8,761.2z"/>
		<path class="st11" d="M245,734.4c0.7,0.6,1.7,0.8,2.6,0.4c1.6-0.6,5.4-3.7,7.6-3s6.5,2.4,6.9,3.5c0.2,0.8,0.2,1.6,0,2.4
			c0,0,1.3,0.4,1.3,2.6s-0.2,6.6-0.7,8.1c0,0-0.6-2.2-2.4-1c-0.7,0.8-1,1.8-1,2.8l-0.1,1.6l-1.6,0.7l0.2-1.7c0-0.5-0.2-1-0.5-1.4
			c-0.8-0.8-1.3-1.8-1.6-2.9c-0.2-0.9,0.1-1.9,0.8-2.5l2.3-2.2l-3.6,2.1c-1.3,0.7-2.9,0.7-4.2,0.1l-5.5-3.1
			C245.4,740.8,242.4,738.9,245,734.4z"/>
		<path class="st4" d="M249.6,758c1.9,0.6,3.9,0.3,5.6-0.7c1.1-0.9,2-2,2.6-3.3c0,0,0.4,2.2-3,3.9c-1.4,0.7-2.5,0.6-3.5,1.2
			c-0.5,0.3-0.7,1-0.6,2C250,760.2,249.7,759.1,249.6,758z"/>
		<path class="st4" d="M245.7,746.1c0.8,0.8,1.9,1.5,3,1.8c1.3,0.6,2.6,1.1,4,1.5c2.4,0.3,3-0.3,3-0.3s-0.3,1.5-3,1
			c-2.4-0.5-4.6-1.5-6.5-3C246.1,746.7,245.9,746.4,245.7,746.1z"/>
		<path class="st4" d="M260,753.6c-0.3,0-0.5-0.1-0.7-0.3c-0.2-0.1-0.4-0.6-0.7-0.7c0,0,0.2,3.9-2.1,5.8c1.3-0.9,2.6-1.9,3.7-3
			L260,753.6z"/>
		<path class="st5" d="M252.8,824.7l3.9,2.2c0.3,0.2,0.6,0.2,0.9,0l20.5-12.2c0.2-0.2,0.3-0.5,0.1-0.8c0,0-0.1-0.1-0.1-0.1l-3.8-2.1
			c-0.4-0.2-0.8-0.2-1.2,0c-1.8,1-7.3,4.3-12.2,7.1c-3.5,2.1-6.7,3.9-8.1,4.9C252.7,823.9,253,824.3,252.8,824.7z"/>
		<path class="st4" d="M259.7,749.3c0,0,0.8-1.6,1.7-1.1s0.4,3.5-0.3,4.1c-0.4,0.4-1,0.4-1.3,0c-0.2-0.2-0.3-0.4-0.3-0.6
			c0,0,0-0.7,0.6-0.8s0,0.9,0.5,0.7c0.6-0.6,0.9-1.5,0.7-2.4c-0.3-0.6-0.3,1.3-0.4,1.5s-1,0-0.7-0.6
			C260.4,749.3,260.2,749.1,259.7,749.3z"/>
		<path class="st9" d="M238.6,791.6c0,0,0.6,1,2.8,1.5l-0.1,0.4C241.2,793.5,239,793.2,238.6,791.6z"/>
		<path class="st3" d="M263.2,808.6c-0.7,1.2-1.3,2.5-1.7,3.9c0,0-0.8,1.8-0.4,2.7s0.5,1.4,0.5,1.4l1.6-1.1c0,0-0.4-1.6,0.5-1.6
			s1.4,2.2,1.6,2.7s-1.6,1.7-1.4,2.2s0.7,1.6,2.4,0.3c0,0,2.5-1.3,3.3-2.9s-0.7-5.7-1.4-6.9C268.2,809.6,265.6,811.2,263.2,808.6z"
			/>
		<path class="st9" d="M263.2,766.5c-0.7,1.6-1.2,3.3-1.3,5c-0.1,1.6,0.2,3.2,0.8,4.7c0.8,2.9,1.5,5.9,2,8.9
			c0.2,0.8,0.3,1.6,0.3,2.4v2.4c0,1.6-0.1,3.2-0.2,4.8c-0.2,3.2-0.3,6.4-0.6,9.6l0,0c-0.3,1.4-0.5,2.8-0.6,4.2v-0.1
			c0.1,0.2,0.3,0.3,0.5,0.5c0.2,0.2,0.5,0.3,0.8,0.3c0.5,0.2,1.1,0.3,1.7,0.3c0.6,0,1.1-0.2,1.6-0.4c0.5-0.4,0.8-0.8,1-1.4l0,0
			c0.6-2.2,1.1-4.3,1.7-6.4c-0.4,2.2-0.9,4.4-1.3,6.5l0,0c-0.2,0.6-0.5,1.2-1,1.7c-0.5,0.4-1.2,0.6-1.8,0.6c-0.6,0-1.3-0.1-1.9-0.3
			c-0.7-0.2-1.3-0.6-1.7-1.2l0,0v-0.1c0-1.5,0.2-3,0.5-4.4v0.1c0.3-3.1,0.3-6.4,0.5-9.6c0.1-1.6,0.2-3.2,0.2-4.8c0-0.8,0-1.6,0-2.4
			c-0.1-0.8-0.2-1.6-0.3-2.4c-0.6-3.1-1.3-6.3-2.1-9.3C261,772.6,261.4,769.2,263.2,766.5z"/>
		<path class="st9" d="M263.8,804.3c0.5,0.2,1,0.4,1.5,0.6c0.5,0.2,1,0.3,1.5,0.3c0.5,0,1,0.1,1.5,0.1s1-0.1,1.6-0.1
			c-0.5,0.3-1,0.6-1.5,0.8c-0.5,0.2-1.1,0.2-1.7,0.1c-0.6-0.1-1.2-0.3-1.7-0.6C264.5,805.2,264.1,804.8,263.8,804.3z"/>
		<path class="st12" d="M246.2,794.5c2.7,2.2,5.9,3.6,9.4,4l-0.2,2v1.8c0,0-6.3-0.9-9.3-3.7L246.2,794.5z"/>
		<path class="st13" d="M248.6,796.2c-0.4,1.4-0.4,2.8,0,4.2c1.2,0.9,2.7,1.4,4.2,1.4l0.1-3.9C251.4,797.6,249.9,797,248.6,796.2z"
			/>
		<path class="st14" d="M248.9,802.6l1.7,7.2l4.2,2.8l-2.6-0.7c1.1,1.9,1.6,4.1,1.5,6.3v2c0,0,0.3-6.5-3.7-9.4L248.9,802.6z"/>
		<path class="st4" d="M236.4,803.3c0,0,1.1,1.2,2.3-0.7c0.2-0.4,0.4-0.8,0.5-1.3c0.1-0.5,0.2-0.9,0.2-0.9s0.6,0.2,0.1,1.4
			c-0.2,0.6-0.5,1.2-0.8,1.7c-0.5,0.5-1.3,0.7-2,0.5c0,0-0.6-0.2-0.5-0.5L236.4,803.3z"/>
		<path class="st15" d="M264.5,814.7l-3.3,2.3c0,0-0.8,0.3-0.8,1.9v2.6l1.6,0.6l1.3-0.7v-1.7c0,0-0.1-1,0.3-1.4s1.1-0.7,1.7-1.2
			C265.2,816.2,265,815.4,264.5,814.7z"/>
		<ellipse class="st16" cx="250" cy="791.5" rx="0.5" ry="0.7"/>
		<path class="st4" d="M239.4,800.6c0,0,1.1,0.1,1.3-0.6v0.9c0,0-0.3,0.3-1.3,0.3V800.6z"/>
		<path class="st9" d="M255.5,799.5c0,0,0.4-2.7,0.7-8.6s2.7-12.9,2.7-13.2s-1.2-4-1.2-4s1.5-0.1,2-0.7s-0.5-3.7,0.9-7.2
			s2.2-5.5,1.8-8.6c0,0-0.6-3-2.4-3.6l0.2,1.9c0,0,2,1.1-1,6.3c0,0-4.3,6.9-4.1,14.2c0,0,0.3,8,0.1,10.2S255.8,797,255.5,799.5z"/>
		<path class="st17" d="M261.9,822l1.3-0.7v-2.1c0-0.6,0.3-1.1,0.8-1.4l1.3-1c-0.1-0.5-0.2-0.9-0.3-1.4c-0.8,0.7-1.6,1.3-2.4,1.9
			C261.6,818.2,261.9,822,261.9,822z"/>
		<path class="st9" d="M260.4,769.5c0,1.1,0.2,2.1,0.6,3.1l0.7,0.9c0.1,0.5,0.1,1,0.1,1.5c-0.7-0.7-1.2-1.5-1.5-2.5
			c-0.1-0.5-0.2-1-0.2-1.5C260.2,770.5,260.3,770,260.4,769.5z"/>
		<path class="st18" d="M246.2,794.5c0,0,2.9,3.1,9.4,4c0,0-0.3-6.2-0.4-8.4s0.1-10.2,0-10.9c-0.4-4.4,0.3-8.9,1.9-13
			c0,0,1.4-3.3,2.5-5.2c0.5-1.1,0.9-2.2,1.2-3.3c0,0-4.6,5.2-8.2,7c2.6-1.2,5-2.9,6.9-5c0,0-3.7,5.5-4.4,10.2s-0.4,19.5-0.4,21.6
			s0.3,6.1,0.3,6.1S251.5,797.6,246.2,794.5z"/>
		<path class="st18" d="M247.5,758.2c-0.2,1.6-0.3,3.2-0.3,4.8c0.4-0.1,0.8-0.2,1.2-0.4c0.2,0.9,0.5,1.7,1,2.4c0,0-1.3,8.5-1.6,10.5
			l1.3-10.3l-1-1.8c-0.5,0.1-0.9,0.2-1.4,0.2c-0.2,2.5-0.3,4.9-0.2,7.4c0.4,7.9,0.3,15.8-0.4,23.7c0,0,0.1-13.6,0.2-15.4
			c0.1-2.9,0-5.8-0.3-8.7c0,0-0.2-7,0.5-9.9C246.8,759.8,247.1,759,247.5,758.2z"/>
		<path class="st19" d="M248.6,763c0,0,1.6-0.9,2.1-1.3l1,2.2c-0.2,0.5-0.5,1-0.9,1.5l-1.3-0.5l1.3,0.8l1.9,16.8c0,0-2,4.3-2.8,5.9
			c0,0,2.6-3.6,3.2-5.7c0,0-2.2-16.7-1.9-17.5c0.4-0.5,0.8-1,1.1-1.6c-0.4-0.9-0.8-1.7-1.4-2.5l-2.3,1.3
			C248.4,762.5,248.4,762.7,248.6,763z"/>
		<polygon class="st20" points="249,768.1 251.2,770.5 251.5,772.8 248.6,770.5 		"/>
		<polygon class="st20" points="248.2,773 251.9,776.1 252.3,778.9 247.9,775.4 		"/>
		<polygon class="st20" points="247.5,777.8 252.5,781.7 252.7,782.6 251.9,784.2 247.2,780.3 		"/>
		<path class="st20" d="M247.9,783.8l3.2,2.1l-1.3,2.6C249,787,248.4,785.4,247.9,783.8z"/>
		<path class="st14" d="M250.3,811c0,0-2.8-0.7-3.6-2c0,0,2.5,0.9,3.6,1.2V811z"/>
		<path class="st4" d="M263.2,808.6c0,0,0.4,1.4,3.7,1.5c0,0,1.1,0,1.4-0.5c0.8,1.5,1.3,3.2,1.5,4.9c0,0-1.2-2.6-2.5-3.1
			c-1.8,0-3.4-0.9-4.4-2.4L263.2,808.6z"/>
		<path class="st4" d="M265.4,817c0,0-0.5-2.8-1.7-3.1c0,0,1.8-0.8,1.7,3.3"/>
		<path class="st21" d="M257.2,444.8c-50.8,0-105.5,8.2-105.5,26.3c0,4,2.8,7.5,7.6,10.6l62.3,74.8c4.4,5.2,6.8,11.8,6.9,18.6v58.4
			c0,9.1,14.9,13.2,28.8,13.2c13.9,0,28.8-4.1,28.8-13.2v-58.4c0-6.8,2.5-13.4,6.9-18.6l5.3-6.4h30.6c7.9,0,15.1-4.5,18-11.4l5-12.3
			c1.9-4.6,1.2-9.8-1.9-13.7c-3.2-4.1-8.2-6.4-13.4-6.4h-1.8l20.4-24.5c4.8-3.1,7.6-6.6,7.6-10.6C362.7,453.1,308,444.8,257.2,444.8
			z M336.5,515.1c2.1,0,4.2,0.9,5.5,2.6c1.3,1.6,1.6,3.8,0.8,5.7l-5,12.3c-1.6,3.5-5.1,5.8-9,5.7h-23.3l21.9-26.3H336.5z"/>
		<path class="st22" d="M257.2,454.8c61.8,0,95.5,11.9,95.5,18s-33.7,18-95.5,18s-95.5-11.9-95.5-18S195.4,454.8,257.2,454.8z"/>
		<path class="st23" d="M271.6,468c37.2,0,64.2,3.2,79.8,6.7c0.8-0.5,1.3-1.4,1.4-2.3c0-6-33.7-17.6-95.5-17.6s-95.5,11.6-95.5,17.6
			c0,2.3,5,5.4,14.5,8.4C178.2,476.2,211.6,468,271.6,468z"/>
		<path class="st24" d="M284.9,551.4c-5.6,6.8-8.8,15.3-8.9,24.1v58.6c-0.6,1.3-7.3,4.7-19.3,4.7s-18.7-3.3-19.3-4.4v-58.9
			c0-8.8-3.2-17.4-8.9-24.1l-51.8-62.6c20.7,5.7,51,8.4,80,8.4s59.3-2.7,80-8.4L284.9,551.4L284.9,551.4z"/>
		
			<linearGradient id="SVGID_1_" gradientUnits="userSpaceOnUse" x1="561.3671" y1="242.169" x2="561.3771" y2="242.129" gradientTransform="matrix(160 0 0 91 -89655.0078 -21336.7305)">
			<stop  offset="0" style="stop-color:#FFFFFF;stop-opacity:0.1"/>
			<stop  offset="1" style="stop-color:#FFFFFF;stop-opacity:0"/>
		</linearGradient>
		<path class="st25" d="M276,575.3c0-8.8,3.2-17.4,8.9-24.1l51.8-62.4c-20.7,5.7-51,8.4-80,8.4s-59.3-2.7-80-8.4l99.3,91V575.3
			L276,575.3z"/>
		<rect class="st26" width="514.5" height="516.1"/>
	</g>
</g>
</svg>
