<?xml version="1.0" encoding="utf-8"?>
<!-- Generator: Adobe Illustrator 21.1.0, SVG Export Plug-In . SVG Version: 6.00 Build 0)  -->
<svg version="1.1" id="Layer_1" xmlns="http://www.w3.org/2000/svg" xmlns:xlink="http://www.w3.org/1999/xlink" x="0px" y="0px"
	 viewBox="0 0 514.5 646.7" style="enable-background:new 0 0 514.5 646.7;" xml:space="preserve">
<style type="text/css">
	.st0{opacity:0.5;}
	.st1{fill:#F3F3F3;}
	.st2{fill:#31AABA;}
	.st3{opacity:0.1;fill:#010101;enable-background:new    ;}
	.st4{fill:#35B7AE;}
	.st5{fill:url(#SVGID_1_);}
	.st6{fill:none;}
	.st7{clip-path:url(#SVGID_3_);}
	.st8{fill:#CD8079;}
	.st9{fill:#B16979;}
	.st10{fill:#BD6D6A;}
	.st11{fill:#606281;}
	.st12{fill:#4E506A;}
	.st13{fill:#7A93A1;}
	.st14{fill:#FCCDB0;}
	.st15{fill:#E98B41;}
	.st16{fill:#CFD7B0;}
	.st17{fill:#FFDDB8;}
	.st18{fill:#9EA372;}
	.st19{fill:#57585A;}
	.st20{fill:#A2B4BF;}
	.st21{fill:#516780;}
	.st22{fill:#EEB59B;}
	.st23{fill:#454043;}
</style>
<title>Asset 8</title>
<g id="Layer_2" class="st0">
	<g id="Layer_1-2">
		<path class="st1" d="M257.2,444.8c-50.8,0-105.5,8.2-105.5,26.3c0,4,2.8,7.5,7.6,10.6l62.3,74.8c4.4,5.2,6.8,11.8,6.9,18.6v58.4
			c0,9.1,14.9,13.2,28.8,13.2c13.9,0,28.8-4.1,28.8-13.2v-58.4c0-6.8,2.5-13.4,6.9-18.6l5.3-6.4h30.6c7.9,0,15.1-4.5,18-11.4l5-12.3
			c1.9-4.6,1.2-9.8-1.9-13.7c-3.2-4.1-8.2-6.4-13.4-6.4h-1.8l20.4-24.5c4.8-3.1,7.6-6.6,7.6-10.6C362.7,453.1,308,444.8,257.2,444.8
			z M336.5,515.1c2.1,0,4.2,0.9,5.5,2.6c1.3,1.6,1.6,3.8,0.8,5.7l-5,12.3c-1.6,3.5-5.1,5.8-9,5.7h-23.3l21.9-26.3H336.5z"/>
		<path class="st2" d="M257.2,454.8c61.8,0,95.5,11.9,95.5,18s-33.7,18-95.5,18s-95.5-11.9-95.5-18S195.4,454.8,257.2,454.8z"/>
		<path class="st3" d="M271.6,468c37.2,0,64.2,3.2,79.8,6.7c0.8-0.5,1.3-1.4,1.4-2.3c0-6-33.7-17.6-95.5-17.6s-95.5,11.6-95.5,17.6
			c0,2.3,5,5.4,14.5,8.4C178.2,476.2,211.6,468,271.6,468z"/>
		<path class="st4" d="M284.9,551.4c-5.6,6.8-8.8,15.3-8.9,24.1v58.6c-0.6,1.3-7.3,4.7-19.3,4.7s-18.7-3.3-19.3-4.4v-58.9
			c0-8.8-3.2-17.4-8.9-24.1l-51.8-62.6c20.7,5.7,51,8.4,80,8.4s59.3-2.7,80-8.4L284.9,551.4L284.9,551.4z"/>
		
			<linearGradient id="SVGID_1_" gradientUnits="userSpaceOnUse" x1="-220.5985" y1="128.3562" x2="-220.5885" y2="128.4062" gradientTransform="matrix(160 0 0 -91 35477 12383.6699)">
			<stop  offset="0" style="stop-color:#FFFFFF;stop-opacity:0.1"/>
			<stop  offset="1" style="stop-color:#FFFFFF;stop-opacity:0"/>
		</linearGradient>
		<path class="st5" d="M276,575.3c0-8.8,3.2-17.4,8.9-24.1l51.8-62.4c-20.7,5.7-51,8.4-80,8.4s-59.3-2.7-80-8.4l99.3,91V575.3z"/>
		<rect class="st6" width="514.5" height="516.1"/>
		<g>
			<defs>
				<rect id="SVGID_2_" x="226.6" y="369.5" width="80" height="119"/>
			</defs>
			<clipPath id="SVGID_3_">
				<use xlink:href="#SVGID_2_"  style="overflow:visible;"/>
			</clipPath>
			<g class="st7">
				<path class="st8" d="M277.8,456.9l0.5,10.8c3.4,0,2.6-5.1,2.6-5.1s-0.2,1.4,1.6,1.3s0.9-0.9,0.9-0.9c-0.6-1.2-0.7-3.3-1-4.6
					c-0.3-1-0.7-2-1.2-3C280.2,456.1,279,456.6,277.8,456.9z"/>
				<path class="st9" d="M277.5,427.5c0.1,1.7-0.1,3.3,0,5s0.2,3.3,0.3,5s0.2,3.2,0.3,4.9c0.2,1.7,0.3,3.3,0.3,5l0.3,5
					c0.1,1.7,0.2,3.3,0.2,5c-0.3-1.7-0.4-3.3-0.6-5l-0.5-5c-0.2-1.7-0.3-3.3-0.4-5s-0.3-3.3-0.4-5s-0.2-3.3-0.2-5s0.2-3.3,0.2-5
					s0-3.3,0-5s-0.1-3.3-0.1-5C277.2,420.8,277.5,424.1,277.5,427.5z"/>
				<path class="st9" d="M278.6,422.1c0,1,0,2-0.2,3c-0.1,0.5-0.2,1-0.3,1.5c-0.2,0.5-0.5,0.9-0.8,1.3h-0.1c-0.1-0.5-0.1-1.1,0-1.6
					c0.1-0.4,0.3-1,0.4-1.4L278.6,422.1z"/>
				<path class="st9" d="M278.5,453.3l-0.1-0.4c2.2-0.5,2.8-1.5,2.8-1.5C280.8,452.5,279.7,453.3,278.5,453.3z"/>
				<path class="st10" d="M283.6,463.3c0.1,0.3-0.5,0.5-0.5,0.5c-0.7,0.2-1.4,0.1-2-0.3c-0.3-0.3-0.6-0.7-0.8-1.1
					c-0.2-0.6-0.2-1.3,0.1-1.9c0,0.3,0,0.7,0.1,1c0.1,0.4,0.3,0.8,0.5,1.2c1.2,1.9,2.4,0.4,2.4,0.4L283.6,463.3z"/>
				<path class="st10" d="M280.3,461c-1,0.1-1.3-0.3-1.3-0.3v-0.9c0.2,0.7,1.3,0.6,1.3,0.6V461z"/>
				<path class="st11" d="M251.1,519.5c0,0-1.1,2.1-0.8,3s8.4,9.4,10.8,8.6s2.8-1.6,2.5-2.5s-5.3-7.8-5.3-7.8
					C254.8,523.4,251.1,519.5,251.1,519.5z"/>
				<path class="st12" d="M259.3,522.3c0,0-4.4,2.8-8.6-1.6l0.4-1.2c0,0,4.7,3.2,7.2,1.3L259.3,522.3z"/>
				<path class="st11" d="M264.7,513.1c0,0-1,2.4-0.7,3s8.5,8.4,10.3,8.3c1.4-0.1,2.6-1.2,2.9-2.6c0-0.9-5.2-6.8-5.2-6.8
					L264.7,513.1z"/>
				<path class="st12" d="M272.5,515.7c0,0-4.9,2.2-8.1-0.7l0.4-1.9c1.9,1.6,4.5,2.1,6.9,1.3L272.5,515.7z"/>
				<path class="st13" d="M273.4,457c-4.4,2.9-19.4,5.9-19.4,5.9c-0.3,3.1,0.3,36,0.3,36c0.7,5.2-3.5,18.9-3.5,18.9s-0.9,3,3.3,4.1
					c4.2,1.1,4.8-1.9,4.8-1.9s4.8-17.7,5.5-20.3s1.6-20.3,1.6-20.3c1.6,5.4,2.4,11.2,2.2,14.5s-4.4,18.3-4.4,18.3
					c1.2,3.9,5.7,3.5,7.1,3c1-0.4,1.6-1.3,1.5-2.4c0.6-2.6,5.2-17.8,5.2-19.8s-0.8-24.4-0.8-24.4C276.8,458.8,273.4,457,273.4,457z"
					/>
				<path class="st14" d="M259.3,416l-0.4,1.4c0.6,3.8,4.1,10,5,13.2s-0.3,12,0.3,17.1c0.3,3.7,0.1,7.5-0.6,11.2
					c4.5,0.2,9.8-3.8,9.8-3.8s0.3-3.2,0.3-5.1s-0.3-16.7,0-23.5s-2.3-9.8-2.3-9.8L259.3,416z"/>
				<path class="st15" d="M268.9,421l-1.7,2.1l1.5,2.1c0.5,0.4,1.1,0.3,1.5-0.2c0,0,0.1-0.1,0.1-0.1c0.7-1,1.3-2.7,1.1-2.9
					C270.6,421.5,269.8,421.2,268.9,421z"/>
				<path class="st15" d="M269,425c0,0-2.2,19-2.3,19.3c1,1.4,2,2.8,3.2,4.1c1-1.8,1.9-3.7,2.7-5.7c0.2-2.6-2.4-18.1-2.4-18.1
					L269,425z"/>
				<path class="st16" d="M259.8,413.5c-1.9,0.8-2.4,3.8-2.4,3.8s-5.8,4-7.4,6.3s-1,4.3-1.3,7.8s-2.4,12.5-2.3,17.2s2.9,14,2.9,14
					c-0.6,1.6-1.1,3.2-1.3,4.9c3.4,4,9.5,3.9,9.5,3.9c2.3,0.5,4.7,0.2,6.8-0.9c-0.2-1.9-0.1-3.8,0.1-5.7c0.4-2.5-0.6-5.8,0-9.9
					s0-11.5,0.3-18.6s-2.7-12.1-4.6-16s-0.3-5.1-0.3-5.1V413.5z"/>
				<path class="st16" d="M271.4,416.4c2.3,2.7,2.5,12,2.2,15.6s0,8.4,0,13.5s0.3,16.5,0.4,19s-0.6,5.2,0.1,5.6s1.5-0.4,2.9-1.3
					c0.9-0.7,1.7-1.6,2.2-2.7c0.2-2.6-0.3-9.1-0.3-9.1c0.6-0.2,2.3-1.1,2.4-1.6c0.1-1,0.2-2.1,0.1-3.1c0-1-0.3-1.6-0.4-3.5
					s-0.8-14.6-0.9-17.5S280,416,280,416c-0.1-3-2.6-5.3-5.6-5.2c-0.1,0-0.2,0-0.3,0C273,412.6,272.1,414.4,271.4,416.4z"/>
				<path class="st17" d="M266.9,424.9c-3.1-2.1-5.8-4.6-8-7.6c0.1-1.7,0.7-2,0.7-2c2.7,2.5,5.9,4.4,9.4,5.7
					C268.2,422.2,267.5,423.5,266.9,424.9z"/>
				<path class="st17" d="M271.5,416.7c1,1.9,1.4,4.1,1.1,6.2c-1.3-0.4-2.5-1-3.6-1.7c0.7-0.9,1.1-2,1.1-3.2
					C270.7,417.7,271.1,417.2,271.5,416.7z"/>
				<path class="st8" d="M251.6,469.5c-0.8,1.2-1,5.5-0.6,7.1c0.5,1.7,1.5,3.1,3,4c1.7,1.2,2.3,0.2,2.4-0.3s-0.6-3-0.7-3.6
					c-0.2-0.9-0.7-3.5,0.3-3.4s0.4,2,0.6,3s1.4,0.7,1.6,0.3s0.1-0.9,0.4-1.7s-0.5-3.1-0.5-3.1c-0.8-2.6-1.5-3.2-1.5-3.2
					C255.4,470.1,253.3,470.4,251.6,469.5z"/>
				<path class="st18" d="M258.1,433.7c-0.2,0.8-0.3,1.6-0.5,2.4c-0.7,3-1.4,6.1-2,9.2c-0.2,0.8-0.3,1.5-0.3,2.3
					c-0.1,0.8-0.1,1.6,0,2.4l0.2,4.8c0.2,3.1,0.3,6.4,0.5,9.5v-0.1c0.3,1.4,0.5,2.9,0.5,4.4v0.1l0,0c-0.3,0.6-1,1.1-1.7,1.2
					c-0.6,0.2-1.3,0.3-1.9,0.3c-0.6,0-1.3-0.2-1.8-0.6c-0.5-0.4-0.9-1-1-1.7l0,0c-0.4-2.2-0.9-4.4-1.3-6.5c0.6,2.2,1.1,4.3,1.7,6.4
					l0,0c0.2,0.6,0.5,1,1,1.4c0.5,0.3,1,0.4,1.6,0.4c0.6,0,1.2-0.1,1.7-0.3c0.3-0.1,0.5-0.2,0.8-0.3c0.2-0.1,0.4-0.3,0.5-0.5v0.1
					c-0.1-1.4-0.3-2.8-0.6-4.2l0,0c-0.3-3.1-0.4-6.4-0.6-9.5c-0.1-1.6-0.2-3.2-0.2-4.8v-2.4c0.1-0.9,0.2-1.7,0.3-2.4
					c0.4-3.2,1.1-6.3,1.9-9.4c1-3.5,1.7-6,1-9.2C259.2,429.3,258.2,432.9,258.1,433.7z"/>
				<path class="st18" d="M254.8,465.4c-0.5,0.3-1,0.5-1.6,0.6c-0.6,0.1-1.2,0.1-1.7-0.1c-0.5-0.2-1-0.5-1.5-0.8
					c0.5,0,1,0.1,1.6,0.1c0.5,0,1,0,1.5-0.1c0.5-0.1,0.9-0.2,1.4-0.3c0.5-0.2,1-0.4,1.5-0.6C255.7,464.7,255.3,465.1,254.8,465.4z"
					/>
				<path class="st19" d="M273.7,458.5c-3,2.9-9.3,3.7-9.3,3.7l-0.3-3.8c6.3-0.9,9.3-4,9.3-4L273.7,458.5z"/>
				<path class="st20" d="M267.1,457.7l0.1,4.2c1.5-0.4,2.9-1,4.2-1.7c0.7-2.9-0.1-4.3-0.1-4.3C270,456.7,268.6,457.3,267.1,457.7z"
					/>
				<path class="st21" d="M269.7,470.8c-3.9,2.9-3.7,9.4-3.7,9.4v-2c-0.1-2.2,0.4-4.4,1.5-6.3l-2.6,0.7l4.2-2.8l1.7-7.2L269.7,470.8
					z"/>
				<ellipse class="st22" cx="269.8" cy="451.3" rx="0.5" ry="0.7"/>
				<path class="st18" d="M263.5,453c-0.1-1.1-0.2-2.3-0.3-3.3s-0.3-2.2-0.5-3.2c-0.4-2.2-1-4.3-1.6-6.4l-0.8-1.5l-0.1-0.4l-0.1-0.2
					v-0.3l0.3-0.9c0.3-1,0.7-2.1,1-3.1l0.3,0.5c-0.4-0.1-0.8-0.2-1.2-0.3c-0.2,0-0.4-0.2-0.6-0.3c-0.2-0.2-0.4-0.4-0.5-0.6
					c-0.1-0.4-0.2-0.9-0.1-1.3l0.1-1.1c0.1-1.5,0-3-0.5-4.4c-0.5-1.4-1.1-2.9-1.5-4.4c-0.3-1.5-0.4-3.1-0.2-4.6
					c-0.1,1.5,0.1,3,0.5,4.5c0.5,1.5,1,2.9,1.7,4.3c0.6,1.5,0.8,3,0.8,4.6v1.1c0,0.3,0,0.7,0.1,1c0.1,0.1,0.2,0.1,0.3,0.2
					c0.1,0.1,0.3,0.1,0.4,0.2c0.3,0.1,0.7,0.2,1,0.2h0.5l-0.2,0.5c-0.3,1-0.6,2.1-1,3.1c-0.1,0.2-0.1,0.5-0.2,0.7l0.2,0.6l0.4,1.6
					c0.6,2.1,1.1,4.3,1.5,6.4c0.2,1.1,0.3,2.2,0.3,3.3c0.1,1.1,0.1,2.2,0.2,3.3c0.1,2.2,0.2,4.4,0.3,6.5
					C263.9,457.3,263.6,455.1,263.5,453z"/>
				<path class="st8" d="M270.3,417.9c0.4-0.2,3.6-3.4,3.8-7.1c0.1-1,0-2-0.2-3c-0.1-0.5-0.1-1,0.1-1.5c0.1-0.5,0.2-0.9,0.1-1.4
					c0,0,0.3-3.5-0.7-4.4s-6.8-8.8-13.1-5.1c-1,0.9-1.5,2.3-1.3,3.7c0.1,0.3-0.2,7.6-0.2,7.6s-1.8-0.6-1.9,1.6s0.4,4.2,1,4.6
					s1.2,0.8,1.7,0.6l-0.2,1.9c2.6,2.6,5.8,4.5,9.3,5.7C269.6,420.3,270.2,419.1,270.3,417.9z"/>
				<path class="st23" d="M262.9,398.8c2.9,1.9,6.3,2.6,9.7,2.1c1.4,0,5-2.2,2.3-6.4c0,0-1.8-2.8-5.2-0.7c-1.6-0.6-3.5-2.3-5.7-1.7
					s-5.7,2.3-6.1,3.4c-0.2,0.8-0.2,1.6,0,2.4c0,0-1.3,0.4-1.3,2.6s0,6.4,0.4,7.8c0,0,0.5-2.2,2.4-1c0.7,0.8,1,1.8,1,2.8l0.1,1.6
					l1.6,0.7l-0.2-1.7c0-0.5,0.2-1,0.5-1.4c0.7-0.6,1.1-1.5,1.3-2.4c0.4-1.7-2.7-5.1-2.7-5.1C261,399,262.9,398.8,262.9,398.8z"/>
				<path class="st10" d="M269.1,421c0.1-1-0.1-1.7-0.6-2c-1-0.6-2.1-0.5-3.5-1.2c-3.4-1.7-3-3.9-3-3.9c0.6,1.2,1.6,2.3,2.8,3
					c3.6,2,5.4,1,5.4,1C270.2,419,269.8,420.1,269.1,421z"/>
				<path class="st10" d="M273.7,407c-1.9,1.5-4.1,2.6-6.5,3c-2.7,0.5-3-1-3-1s0.5,0.5,3,0.3c1.4-0.3,2.7-0.8,4-1.5
					c1.1-0.3,2.2-1,3-1.8C273.9,406.3,273.7,406.6,273.7,407z"/>
				<path class="st10" d="M259.6,415.4c1.2,1.1,2.4,2.1,3.7,3c-2.3-1.9-2.1-5.8-2.1-5.8c-0.3,0.1-0.5,0.6-0.7,0.7
					c-0.2,0.2-0.4,0.3-0.7,0.3L259.6,415.4z"/>
				<path class="st10" d="M259.5,409.8c0.3,0.6-0.4,0.8-0.7,0.6s-0.1-2.2-0.4-1.5s0.2,2.3,0.7,2.4s-0.1-0.8,0.5-0.7s0.6,0.8,0.6,0.8
					c0,0.5-0.5,0.9-1,0.9c-0.2,0-0.4-0.1-0.6-0.3c-0.7-0.6-1.2-3.7-0.3-4.1s1.7,1.1,1.7,1.1C259.7,409,259.3,409.2,259.5,409.8z"/>
				<path class="st18" d="M273.7,465.3c0,0-0.1-4.4,0-5.3c0.3-3.4,1.1-11.5,1.7-14.6c0.8-4.1-0.2-8.6-0.5-10.6s1.5-2.3,1.6-3.9
					s-1.4-6.1-1.4-6.1c-0.3-7.9-2.4-9.9-2.4-9.9l-1.4,2l1.4,3.5c1,4.4,0.4,11.5,0.3,15.2c-0.2,2.6-0.1,21.3,0.5,28.6L273.7,465.3z"
					/>
				<path class="st18" d="M259.8,413.5l-0.2,1.8c0,0-1.2,1.8,0.6,5.2c2.5,4.1,4,8.7,4.5,13.5c0.3,5.4-0.7,23.2-0.4,25.1
					c0,0-0.5-9.7-1.4-13.1s-2.5-8.2-2.1-8.9c0.4-1.1,0.7-2.2,0.9-3.3c0,0-1.6-0.5-1.8-1.2s0.3-4.6-0.7-6.7s-3-7.2-1.5-10.2
					C257.8,415.8,258.4,414.1,259.8,413.5z"/>
				<path class="st18" d="M279.1,418.3c0,0-0.9,3.3-1.2,4.9c0,0,0.7,30.9,1,33.8c0,0-1.6-16.7-1.6-33.2c0.1-1.5,0-2.9-0.1-4.4
					l0.5,2.3C277.6,421.8,278.7,419.6,279.1,418.3z"/>
				<path class="st18" d="M257.4,429.6c0,0,0.8,3.5,0.1,5.8l-0.5,1.4C257,434.4,257.1,432,257.4,429.6z"/>
				<path class="st21" d="M269.1,469.8l4-1.5c-1.4,1.2-2.8,2.2-4.4,3L269.1,469.8z"/>
				<path class="st22" d="M273.2,454.8c0,0-2.6,2.8-9.1,3.6c0,0,0.7-19.1,0.7-20.6s0.3-7.6-2.8-13.8s-2.5-5.5-2.7-6.2
					c0,0,3.6,4.9,7.6,7.2l0.6-1.4c0.4,0.7,0.9,1.3,1.5,1.9l-1.2-0.6l-0.8,1.4c-1.7-1.1-3.4-2.3-5-3.6c0,0,3,1.5,3.6,12.2
					c0.5,7.1,0.2,14.2-0.7,21.3c0,0-0.1,0.7-0.3,1.5c6.2-0.5,8.7-3.9,8.7-3.9L273.2,454.8z"/>
				<path class="st10" d="M271.3,409.7c0,0,1,2.8,0.3,4.1c0,0-0.3,0.4-1.3,0.4s-1.1-0.3-1.1-0.3c0.8,0,1.5-0.3,2.1-0.8V409.7z"/>
				<path class="st22" d="M272.6,419.4c0,0,0.9,1,0.9,8.2l-0.3,26.7l-0.6,0.7c0,0,0.5-20.2,0.2-23.2s-0.3-8.2-0.3-8.2l-1.2-0.8
					l0.1-0.5l1.2,0.6C272.6,423,273,422.1,272.6,419.4z"/>
				<path class="st10" d="M251.6,469.5c0,0,2.3,1.7,5-1c0,0,0.9,0.6,2,5.1c0,0-1.4-4-2.3-3.2c-1.5,1.1-3.4,1.3-5.1,0.5
					C251.1,470.9,251.1,470.1,251.6,469.5z"/>
				<path class="st10" d="M281.3,455.4c-0.6,0.8-1.4,1.3-2.4,1.6v0.8c1-0.4,2-0.9,2.9-1.4L281.3,455.4z"/>
			</g>
		</g>
	</g>
</g>
</svg>
