<svg xmlns="http://www.w3.org/2000/svg" width="40" height="28" viewBox="0 0 40 28">
    <path fill="#F2F2F2" fill-rule="nonzero" d="M1.111 27.5c.284 0 .569-.112.786-.336l12.547-12.94 5.881 6.065a1.087 1.087 0 0 0 1.572 0l15.88-16.377v4.109c0 .633.498 1.146 1.112 1.146.614 0 1.111-.513 1.111-1.146V1.146C40 .513 39.503 0 38.889 0h-6.667c-.614 0-1.111.513-1.111 1.146 0 .633.497 1.146 1.111 1.146h3.985L21.11 17.859l-5.88-6.065a1.087 1.087 0 0 0-1.572 0L.326 25.544a1.17 1.17 0 0 0 0 1.62c.217.224.5.336.785.336z"/>
</svg>
