<svg id="Layer_1" data-name="Layer 1" xmlns="http://www.w3.org/2000/svg" viewBox="0 0 135.72 35.93"><defs><style>.cls-1{fill:#33aab9;}</style></defs><title>Groome_Logo</title><g id="_Group_" data-name="&lt;Group&gt;"><g id="_Group_2" data-name="&lt;Group&gt;"><g id="_Group_3" data-name="&lt;Group&gt;"><path class="cls-1" d="M18.28,4.88,20.18,3a1.33,1.33,0,0,0,0-1.87l-.06-.06a1.33,1.33,0,0,0-1.87,0l-2,2a9.94,9.94,0,1,0,2.05,1.8Zm-7.51,13.6a7.11,7.11,0,1,1,7.11-7.11A7.12,7.12,0,0,1,10.77,18.48Z"/></g><g id="_Group_4" data-name="&lt;Group&gt;"><g id="_Group_5" data-name="&lt;Group&gt;"><path id="_Path_" data-name="&lt;Path&gt;" class="cls-1" d="M20.66,34.69h0a1.36,1.36,0,0,1-1.36-1.36v0a8.75,8.75,0,0,0-6.49-8.58,8.58,8.58,0,0,0-8.42,2.57,1.37,1.37,0,0,1-1.8.25h0a1.37,1.37,0,0,1-.23-2.06,11.27,11.27,0,0,1,10.1-3.6A11.49,11.49,0,0,1,22,33.33h0A1.36,1.36,0,0,1,20.66,34.69Z"/></g></g></g><path id="_Compound_Path_" data-name="&lt;Compound Path&gt;" class="cls-1" d="M37,1.62a1.24,1.24,0,0,1,.89,1.13,1.31,1.31,0,0,1,0,.33,1.16,1.16,0,0,1-.46.7,1.75,1.75,0,0,1-.86.18c-.22,0-.6,0-1.14-.07a6.28,6.28,0,0,0-.87,0,6.77,6.77,0,0,0-4.49,1.46,4.75,4.75,0,0,0-1.73,3.81V20.06a1.28,1.28,0,0,1-1.4,1.39,1.36,1.36,0,0,1-1-.37,1.38,1.38,0,0,1-.37-1V2.82a1.38,1.38,0,0,1,.37-1,1.4,1.4,0,0,1,1-.37,1.42,1.42,0,0,1,1,.37,1.38,1.38,0,0,1,.37,1V4.43A7.25,7.25,0,0,1,31,2.06a7.59,7.59,0,0,1,3.55-.85A6,6,0,0,1,37,1.62Z"/><path id="_Compound_Path_2" data-name="&lt;Compound Path&gt;" class="cls-1" d="M43.79,20.32a9.46,9.46,0,0,1-3.64-3.65,10.32,10.32,0,0,1-1.32-5.21,10.45,10.45,0,0,1,1.32-5.23,9.42,9.42,0,0,1,3.64-3.66,10.92,10.92,0,0,1,10.41,0,9.69,9.69,0,0,1,3.64,3.66,10.35,10.35,0,0,1,1.33,5.23,10.42,10.42,0,0,1-1.31,5.21,9.59,9.59,0,0,1-3.64,3.65,11,11,0,0,1-10.43,0Zm9-2.24a6.88,6.88,0,0,0,2.63-2.72,7.93,7.93,0,0,0,1-3.9,8,8,0,0,0-1-3.93A7,7,0,0,0,52.81,4.8a7.79,7.79,0,0,0-7.6,0,7.15,7.15,0,0,0-2.67,2.73,8,8,0,0,0-1,3.93,7.94,7.94,0,0,0,1,3.9,7.05,7.05,0,0,0,2.67,2.72,7.79,7.79,0,0,0,7.6,0Z"/><path id="_Compound_Path_3" data-name="&lt;Compound Path&gt;" class="cls-1" d="M66.45,20.32a9.53,9.53,0,0,1-3.64-3.65,10.31,10.31,0,0,1-1.31-5.21,10.44,10.44,0,0,1,1.31-5.23,9.48,9.48,0,0,1,3.64-3.66,10.94,10.94,0,0,1,10.42,0,9.69,9.69,0,0,1,3.64,3.66,10.35,10.35,0,0,1,1.33,5.23,10.32,10.32,0,0,1-1.32,5.21,9.46,9.46,0,0,1-3.64,3.65,11,11,0,0,1-10.43,0ZM78.11,7.53A7,7,0,0,0,75.47,4.8a7.77,7.77,0,0,0-7.59,0,7.15,7.15,0,0,0-2.67,2.73,7.9,7.9,0,0,0-1,3.93,7.84,7.84,0,0,0,1,3.9,7.05,7.05,0,0,0,2.67,2.72,7.77,7.77,0,0,0,7.59,0,6.91,6.91,0,0,0,2.64-2.72,8,8,0,0,0,1-3.9,8.1,8.1,0,0,0-1-3.93"/><g id="_Group_6" data-name="&lt;Group&gt;"><path id="_Compound_Path_4" data-name="&lt;Compound Path&gt;" class="cls-1" d="M130.43,2.24a8.74,8.74,0,0,1,3.29,3.55A11.09,11.09,0,0,1,134.89,11a1.3,1.3,0,0,1-.37.95,1.37,1.37,0,0,1-1,.35h-15a7.32,7.32,0,0,0,7.58,6.84,8.28,8.28,0,0,0,2.7-.46A6.36,6.36,0,0,0,131,17.46a1.7,1.7,0,0,1,1-.37,1.41,1.41,0,0,1,.82.3,1.34,1.34,0,0,1,.48,1,1.14,1.14,0,0,1-.41.86A10.28,10.28,0,0,1,129.76,21a10.76,10.76,0,0,1-9-.63,9.37,9.37,0,0,1-3.67-3.69,10.72,10.72,0,0,1-1.32-5.33A11.32,11.32,0,0,1,117.06,6a9.1,9.1,0,0,1,3.46-3.68,9.62,9.62,0,0,1,5-1.32A9.2,9.2,0,0,1,130.43,2.24Zm-9.56,3a7.54,7.54,0,0,0-2.27,4.61h13.61a7.26,7.26,0,0,0-2.08-4.61,6.25,6.25,0,0,0-4.57-1.75A6.55,6.55,0,0,0,120.87,5.27Z"/><path id="_Compound_Path_5" data-name="&lt;Compound Path&gt;" class="cls-1" d="M109.73,2.24a7,7,0,0,1,2.6,2.91,9.73,9.73,0,0,1,.93,4.37V20.06a1.32,1.32,0,0,1-1.39,1.39,1.45,1.45,0,0,1-1-.38,1.34,1.34,0,0,1-.4-1V9.52a6,6,0,0,0-1.33-4.12,4.46,4.46,0,0,0-3.5-1.51,4.86,4.86,0,0,0-3.73,1.53,5.55,5.55,0,0,0-1.39,4V20.06a1.32,1.32,0,0,1-1.39,1.39,1.45,1.45,0,0,1-1-.38,1.34,1.34,0,0,1-.4-1V9.52A6,6,0,0,0,96.33,5.4a4.42,4.42,0,0,0-3.49-1.51,5,5,0,0,0-3.73,1.5,5.26,5.26,0,0,0-1.47,3.84V20.06a1.41,1.41,0,0,1-.38,1,1.39,1.39,0,0,1-1,.38,1.45,1.45,0,0,1-1-.38,1.35,1.35,0,0,1-.41-1V2.86a1.37,1.37,0,0,1,.41-1,1.39,1.39,0,0,1,1-.41,1.33,1.33,0,0,1,1,.41,1.43,1.43,0,0,1,.38,1v.81a7.26,7.26,0,0,1,2.44-1.82,7.37,7.37,0,0,1,3-.64,7.19,7.19,0,0,1,3.62.92,6.79,6.79,0,0,1,2.57,2.56,7.3,7.3,0,0,1,2.76-2.56,7.93,7.93,0,0,1,3.82-.92A7.2,7.2,0,0,1,109.73,2.24Z"/></g></g></svg>